G04 #@! TF.GenerationSoftware,KiCad,Pcbnew,9.0.0*
G04 #@! TF.CreationDate,2025-09-23T11:37:30-05:00*
G04 #@! TF.ProjectId,eidon-tracker,6569646f-6e2d-4747-9261-636b65722e6b,rev?*
G04 #@! TF.SameCoordinates,Original*
G04 #@! TF.FileFunction,Legend,Top*
G04 #@! TF.FilePolarity,Positive*
%FSLAX46Y46*%
G04 Gerber Fmt 4.6, Leading zero omitted, Abs format (unit mm)*
G04 Created by KiCad (PCBNEW 9.0.0) date 2025-09-23 11:37:30*
%MOMM*%
%LPD*%
G01*
G04 APERTURE LIST*
G04 Aperture macros list*
%AMRoundRect*
0 Rectangle with rounded corners*
0 $1 Rounding radius*
0 $2 $3 $4 $5 $6 $7 $8 $9 X,Y pos of 4 corners*
0 Add a 4 corners polygon primitive as box body*
4,1,4,$2,$3,$4,$5,$6,$7,$8,$9,$2,$3,0*
0 Add four circle primitives for the rounded corners*
1,1,$1+$1,$2,$3*
1,1,$1+$1,$4,$5*
1,1,$1+$1,$6,$7*
1,1,$1+$1,$8,$9*
0 Add four rect primitives between the rounded corners*
20,1,$1+$1,$2,$3,$4,$5,0*
20,1,$1+$1,$4,$5,$6,$7,0*
20,1,$1+$1,$6,$7,$8,$9,0*
20,1,$1+$1,$8,$9,$2,$3,0*%
G04 Aperture macros list end*
%ADD10C,0.200000*%
%ADD11C,0.100000*%
%ADD12C,0.101600*%
%ADD13C,0.127000*%
%ADD14C,0.504000*%
%ADD15C,0.120000*%
%ADD16C,0.000000*%
%ADD17RoundRect,0.525000X0.900000X0.525000X-0.900000X0.525000X-0.900000X-0.525000X0.900000X-0.525000X0*%
%ADD18C,2.100000*%
%ADD19RoundRect,0.525000X-0.900000X-0.525000X0.900000X-0.525000X0.900000X0.525000X-0.900000X0.525000X0*%
%ADD20RoundRect,0.261111X-0.913889X-1.288889X0.913889X-1.288889X0.913889X1.288889X-0.913889X1.288889X0*%
%ADD21RoundRect,0.261111X-1.288889X-0.913889X1.288889X-0.913889X1.288889X0.913889X-1.288889X0.913889X0*%
%ADD22RoundRect,0.270833X0.379167X0.654167X-0.379167X0.654167X-0.379167X-0.654167X0.379167X-0.654167X0*%
%ADD23O,1.300000X1.850000*%
%ADD24RoundRect,0.050000X0.750000X1.250000X-0.750000X1.250000X-0.750000X-1.250000X0.750000X-1.250000X0*%
%ADD25O,1.600000X2.600000*%
%ADD26O,2.300000X3.600000*%
%ADD27C,4.100000*%
G04 APERTURE END LIST*
D10*
X162689850Y-88882780D02*
X162499374Y-88882780D01*
X162499374Y-88882780D02*
X162404136Y-88835161D01*
X162404136Y-88835161D02*
X162308898Y-88739923D01*
X162308898Y-88739923D02*
X162261279Y-88549447D01*
X162261279Y-88549447D02*
X162261279Y-88216114D01*
X162261279Y-88216114D02*
X162308898Y-88025638D01*
X162308898Y-88025638D02*
X162404136Y-87930400D01*
X162404136Y-87930400D02*
X162499374Y-87882780D01*
X162499374Y-87882780D02*
X162689850Y-87882780D01*
X162689850Y-87882780D02*
X162785088Y-87930400D01*
X162785088Y-87930400D02*
X162880326Y-88025638D01*
X162880326Y-88025638D02*
X162927945Y-88216114D01*
X162927945Y-88216114D02*
X162927945Y-88549447D01*
X162927945Y-88549447D02*
X162880326Y-88739923D01*
X162880326Y-88739923D02*
X162785088Y-88835161D01*
X162785088Y-88835161D02*
X162689850Y-88882780D01*
X161499374Y-88406590D02*
X161832707Y-88406590D01*
X161832707Y-87882780D02*
X161832707Y-88882780D01*
X161832707Y-88882780D02*
X161356517Y-88882780D01*
X160642231Y-88406590D02*
X160975564Y-88406590D01*
X160975564Y-87882780D02*
X160975564Y-88882780D01*
X160975564Y-88882780D02*
X160499374Y-88882780D01*
X156548244Y-88882780D02*
X156357768Y-88882780D01*
X156357768Y-88882780D02*
X156262530Y-88835161D01*
X156262530Y-88835161D02*
X156167292Y-88739923D01*
X156167292Y-88739923D02*
X156119673Y-88549447D01*
X156119673Y-88549447D02*
X156119673Y-88216114D01*
X156119673Y-88216114D02*
X156167292Y-88025638D01*
X156167292Y-88025638D02*
X156262530Y-87930400D01*
X156262530Y-87930400D02*
X156357768Y-87882780D01*
X156357768Y-87882780D02*
X156548244Y-87882780D01*
X156548244Y-87882780D02*
X156643482Y-87930400D01*
X156643482Y-87930400D02*
X156738720Y-88025638D01*
X156738720Y-88025638D02*
X156786339Y-88216114D01*
X156786339Y-88216114D02*
X156786339Y-88549447D01*
X156786339Y-88549447D02*
X156738720Y-88739923D01*
X156738720Y-88739923D02*
X156643482Y-88835161D01*
X156643482Y-88835161D02*
X156548244Y-88882780D01*
X155691101Y-87882780D02*
X155691101Y-88882780D01*
X155691101Y-88882780D02*
X155119673Y-87882780D01*
X155119673Y-87882780D02*
X155119673Y-88882780D01*
D11*
X137253258Y-88126109D02*
X137253258Y-88530871D01*
X137253258Y-88530871D02*
X137277068Y-88578490D01*
X137277068Y-88578490D02*
X137300877Y-88602300D01*
X137300877Y-88602300D02*
X137348496Y-88626109D01*
X137348496Y-88626109D02*
X137443734Y-88626109D01*
X137443734Y-88626109D02*
X137491353Y-88602300D01*
X137491353Y-88602300D02*
X137515163Y-88578490D01*
X137515163Y-88578490D02*
X137538972Y-88530871D01*
X137538972Y-88530871D02*
X137538972Y-88126109D01*
X138038973Y-88626109D02*
X137753259Y-88626109D01*
X137896116Y-88626109D02*
X137896116Y-88126109D01*
X137896116Y-88126109D02*
X137848497Y-88197538D01*
X137848497Y-88197538D02*
X137800878Y-88245157D01*
X137800878Y-88245157D02*
X137753259Y-88268966D01*
D12*
X140907500Y-88253479D02*
X141330833Y-88888479D01*
X141330833Y-88253479D02*
X140907500Y-88888479D01*
X141572738Y-88888479D02*
X141572738Y-88253479D01*
X141844881Y-88707050D02*
X142147262Y-88707050D01*
X141784405Y-88888479D02*
X141996071Y-88253479D01*
X141996071Y-88253479D02*
X142207738Y-88888479D01*
X142540357Y-88253479D02*
X142661310Y-88253479D01*
X142661310Y-88253479D02*
X142721786Y-88283717D01*
X142721786Y-88283717D02*
X142782262Y-88344193D01*
X142782262Y-88344193D02*
X142812500Y-88465145D01*
X142812500Y-88465145D02*
X142812500Y-88676812D01*
X142812500Y-88676812D02*
X142782262Y-88797764D01*
X142782262Y-88797764D02*
X142721786Y-88858241D01*
X142721786Y-88858241D02*
X142661310Y-88888479D01*
X142661310Y-88888479D02*
X142540357Y-88888479D01*
X142540357Y-88888479D02*
X142479881Y-88858241D01*
X142479881Y-88858241D02*
X142419405Y-88797764D01*
X142419405Y-88797764D02*
X142389167Y-88676812D01*
X142389167Y-88676812D02*
X142389167Y-88465145D01*
X142389167Y-88465145D02*
X142419405Y-88344193D01*
X142419405Y-88344193D02*
X142479881Y-88283717D01*
X142479881Y-88283717D02*
X142540357Y-88253479D01*
X143084643Y-88646574D02*
X143568453Y-88646574D01*
X143870833Y-88555860D02*
X144082500Y-88555860D01*
X144173214Y-88888479D02*
X143870833Y-88888479D01*
X143870833Y-88888479D02*
X143870833Y-88253479D01*
X143870833Y-88253479D02*
X144173214Y-88253479D01*
X144415119Y-88858241D02*
X144505833Y-88888479D01*
X144505833Y-88888479D02*
X144657024Y-88888479D01*
X144657024Y-88888479D02*
X144717500Y-88858241D01*
X144717500Y-88858241D02*
X144747738Y-88828002D01*
X144747738Y-88828002D02*
X144777976Y-88767526D01*
X144777976Y-88767526D02*
X144777976Y-88707050D01*
X144777976Y-88707050D02*
X144747738Y-88646574D01*
X144747738Y-88646574D02*
X144717500Y-88616336D01*
X144717500Y-88616336D02*
X144657024Y-88586098D01*
X144657024Y-88586098D02*
X144536071Y-88555860D01*
X144536071Y-88555860D02*
X144475595Y-88525621D01*
X144475595Y-88525621D02*
X144445357Y-88495383D01*
X144445357Y-88495383D02*
X144415119Y-88434907D01*
X144415119Y-88434907D02*
X144415119Y-88374431D01*
X144415119Y-88374431D02*
X144445357Y-88313955D01*
X144445357Y-88313955D02*
X144475595Y-88283717D01*
X144475595Y-88283717D02*
X144536071Y-88253479D01*
X144536071Y-88253479D02*
X144687262Y-88253479D01*
X144687262Y-88253479D02*
X144777976Y-88283717D01*
X145050119Y-88888479D02*
X145050119Y-88253479D01*
X145050119Y-88253479D02*
X145292024Y-88253479D01*
X145292024Y-88253479D02*
X145352500Y-88283717D01*
X145352500Y-88283717D02*
X145382738Y-88313955D01*
X145382738Y-88313955D02*
X145412976Y-88374431D01*
X145412976Y-88374431D02*
X145412976Y-88465145D01*
X145412976Y-88465145D02*
X145382738Y-88525621D01*
X145382738Y-88525621D02*
X145352500Y-88555860D01*
X145352500Y-88555860D02*
X145292024Y-88586098D01*
X145292024Y-88586098D02*
X145050119Y-88586098D01*
X145624643Y-88253479D02*
X146017738Y-88253479D01*
X146017738Y-88253479D02*
X145806071Y-88495383D01*
X145806071Y-88495383D02*
X145896786Y-88495383D01*
X145896786Y-88495383D02*
X145957262Y-88525621D01*
X145957262Y-88525621D02*
X145987500Y-88555860D01*
X145987500Y-88555860D02*
X146017738Y-88616336D01*
X146017738Y-88616336D02*
X146017738Y-88767526D01*
X146017738Y-88767526D02*
X145987500Y-88828002D01*
X145987500Y-88828002D02*
X145957262Y-88858241D01*
X145957262Y-88858241D02*
X145896786Y-88888479D01*
X145896786Y-88888479D02*
X145715357Y-88888479D01*
X145715357Y-88888479D02*
X145654881Y-88858241D01*
X145654881Y-88858241D02*
X145624643Y-88828002D01*
X146259643Y-88313955D02*
X146289881Y-88283717D01*
X146289881Y-88283717D02*
X146350357Y-88253479D01*
X146350357Y-88253479D02*
X146501548Y-88253479D01*
X146501548Y-88253479D02*
X146562024Y-88283717D01*
X146562024Y-88283717D02*
X146592262Y-88313955D01*
X146592262Y-88313955D02*
X146622500Y-88374431D01*
X146622500Y-88374431D02*
X146622500Y-88434907D01*
X146622500Y-88434907D02*
X146592262Y-88525621D01*
X146592262Y-88525621D02*
X146229405Y-88888479D01*
X146229405Y-88888479D02*
X146622500Y-88888479D01*
X147257500Y-88828002D02*
X147227262Y-88858241D01*
X147227262Y-88858241D02*
X147136548Y-88888479D01*
X147136548Y-88888479D02*
X147076072Y-88888479D01*
X147076072Y-88888479D02*
X146985357Y-88858241D01*
X146985357Y-88858241D02*
X146924881Y-88797764D01*
X146924881Y-88797764D02*
X146894643Y-88737288D01*
X146894643Y-88737288D02*
X146864405Y-88616336D01*
X146864405Y-88616336D02*
X146864405Y-88525621D01*
X146864405Y-88525621D02*
X146894643Y-88404669D01*
X146894643Y-88404669D02*
X146924881Y-88344193D01*
X146924881Y-88344193D02*
X146985357Y-88283717D01*
X146985357Y-88283717D02*
X147076072Y-88253479D01*
X147076072Y-88253479D02*
X147136548Y-88253479D01*
X147136548Y-88253479D02*
X147227262Y-88283717D01*
X147227262Y-88283717D02*
X147257500Y-88313955D01*
X147801786Y-88253479D02*
X147680833Y-88253479D01*
X147680833Y-88253479D02*
X147620357Y-88283717D01*
X147620357Y-88283717D02*
X147590119Y-88313955D01*
X147590119Y-88313955D02*
X147529643Y-88404669D01*
X147529643Y-88404669D02*
X147499405Y-88525621D01*
X147499405Y-88525621D02*
X147499405Y-88767526D01*
X147499405Y-88767526D02*
X147529643Y-88828002D01*
X147529643Y-88828002D02*
X147559881Y-88858241D01*
X147559881Y-88858241D02*
X147620357Y-88888479D01*
X147620357Y-88888479D02*
X147741310Y-88888479D01*
X147741310Y-88888479D02*
X147801786Y-88858241D01*
X147801786Y-88858241D02*
X147832024Y-88828002D01*
X147832024Y-88828002D02*
X147862262Y-88767526D01*
X147862262Y-88767526D02*
X147862262Y-88616336D01*
X147862262Y-88616336D02*
X147832024Y-88555860D01*
X147832024Y-88555860D02*
X147801786Y-88525621D01*
X147801786Y-88525621D02*
X147741310Y-88495383D01*
X147741310Y-88495383D02*
X147620357Y-88495383D01*
X147620357Y-88495383D02*
X147559881Y-88525621D01*
X147559881Y-88525621D02*
X147529643Y-88555860D01*
X147529643Y-88555860D02*
X147499405Y-88616336D01*
D11*
X161087769Y-105673146D02*
X161159197Y-105696956D01*
X161159197Y-105696956D02*
X161183007Y-105720765D01*
X161183007Y-105720765D02*
X161206816Y-105768384D01*
X161206816Y-105768384D02*
X161206816Y-105839813D01*
X161206816Y-105839813D02*
X161183007Y-105887432D01*
X161183007Y-105887432D02*
X161159197Y-105911242D01*
X161159197Y-105911242D02*
X161111578Y-105935051D01*
X161111578Y-105935051D02*
X160921102Y-105935051D01*
X160921102Y-105935051D02*
X160921102Y-105435051D01*
X160921102Y-105435051D02*
X161087769Y-105435051D01*
X161087769Y-105435051D02*
X161135388Y-105458861D01*
X161135388Y-105458861D02*
X161159197Y-105482670D01*
X161159197Y-105482670D02*
X161183007Y-105530289D01*
X161183007Y-105530289D02*
X161183007Y-105577908D01*
X161183007Y-105577908D02*
X161159197Y-105625527D01*
X161159197Y-105625527D02*
X161135388Y-105649337D01*
X161135388Y-105649337D02*
X161087769Y-105673146D01*
X161087769Y-105673146D02*
X160921102Y-105673146D01*
X161349674Y-105435051D02*
X161635388Y-105435051D01*
X161492531Y-105935051D02*
X161492531Y-105435051D01*
X162063959Y-105935051D02*
X161778245Y-105935051D01*
X161921102Y-105935051D02*
X161921102Y-105435051D01*
X161921102Y-105435051D02*
X161873483Y-105506480D01*
X161873483Y-105506480D02*
X161825864Y-105554099D01*
X161825864Y-105554099D02*
X161778245Y-105577908D01*
X159880951Y-108508533D02*
X159119047Y-108508533D01*
X161860951Y-108508533D02*
X161099047Y-108508533D01*
X161479999Y-108127580D02*
X161479999Y-108889485D01*
X160683334Y-93452300D02*
X160754762Y-93476109D01*
X160754762Y-93476109D02*
X160873810Y-93476109D01*
X160873810Y-93476109D02*
X160921429Y-93452300D01*
X160921429Y-93452300D02*
X160945238Y-93428490D01*
X160945238Y-93428490D02*
X160969048Y-93380871D01*
X160969048Y-93380871D02*
X160969048Y-93333252D01*
X160969048Y-93333252D02*
X160945238Y-93285633D01*
X160945238Y-93285633D02*
X160921429Y-93261823D01*
X160921429Y-93261823D02*
X160873810Y-93238014D01*
X160873810Y-93238014D02*
X160778572Y-93214204D01*
X160778572Y-93214204D02*
X160730953Y-93190395D01*
X160730953Y-93190395D02*
X160707143Y-93166585D01*
X160707143Y-93166585D02*
X160683334Y-93118966D01*
X160683334Y-93118966D02*
X160683334Y-93071347D01*
X160683334Y-93071347D02*
X160707143Y-93023728D01*
X160707143Y-93023728D02*
X160730953Y-92999919D01*
X160730953Y-92999919D02*
X160778572Y-92976109D01*
X160778572Y-92976109D02*
X160897619Y-92976109D01*
X160897619Y-92976109D02*
X160969048Y-92999919D01*
X161135714Y-92976109D02*
X161254762Y-93476109D01*
X161254762Y-93476109D02*
X161350000Y-93118966D01*
X161350000Y-93118966D02*
X161445238Y-93476109D01*
X161445238Y-93476109D02*
X161564286Y-92976109D01*
X162016667Y-93476109D02*
X161730953Y-93476109D01*
X161873810Y-93476109D02*
X161873810Y-92976109D01*
X161873810Y-92976109D02*
X161826191Y-93047538D01*
X161826191Y-93047538D02*
X161778572Y-93095157D01*
X161778572Y-93095157D02*
X161730953Y-93118966D01*
D13*
X135375000Y-106359000D02*
X135375000Y-89214000D01*
X137280000Y-108264000D02*
X151250000Y-108264000D01*
X139770000Y-87309000D02*
X139773728Y-86298728D01*
X140273728Y-85799000D02*
X148269000Y-85799000D01*
X148769000Y-86299000D02*
X148769000Y-87309000D01*
D11*
X151250000Y-87309000D02*
X137280000Y-87309000D01*
D13*
X151250000Y-87309000D02*
X137280000Y-87309000D01*
X153155000Y-106359000D02*
X153155000Y-89214000D01*
X135375000Y-89214000D02*
G75*
G02*
X137280000Y-87309000I1905001J-1D01*
G01*
X137280000Y-108264000D02*
G75*
G02*
X135375000Y-106359000I1J1905001D01*
G01*
X139773728Y-86298728D02*
G75*
G02*
X140273728Y-85799001I500018J-291D01*
G01*
X148269000Y-85799000D02*
G75*
G02*
X148769000Y-86299000I0J-500000D01*
G01*
X151250000Y-87309000D02*
G75*
G02*
X153155000Y-89214000I0J-1905000D01*
G01*
X153155000Y-106359000D02*
G75*
G02*
X151250000Y-108264000I-1905000J0D01*
G01*
D14*
X136710000Y-88430000D02*
G75*
G02*
X136206000Y-88430000I-252000J0D01*
G01*
X136206000Y-88430000D02*
G75*
G02*
X136710000Y-88430000I252000J0D01*
G01*
D15*
X157420000Y-100740000D02*
X157420000Y-108560000D01*
X157420000Y-106960000D02*
X158340000Y-106960000D01*
X157420000Y-108560000D02*
X158340000Y-108560000D01*
X158180000Y-103000000D02*
X159180000Y-103000000D01*
X158180000Y-104600000D02*
X158180000Y-103000000D01*
X158340000Y-106960000D02*
X158620000Y-106960000D01*
X158340000Y-108560000D02*
X158340000Y-106960000D01*
X159180000Y-103000000D02*
X159180000Y-104600000D01*
X159180000Y-104600000D02*
X158180000Y-104600000D01*
X159980000Y-105100000D02*
X159980000Y-100740000D01*
X160980000Y-100740000D02*
X160980000Y-105100000D01*
X160980000Y-105100000D02*
X159980000Y-105100000D01*
X161780000Y-103000000D02*
X161780000Y-100740000D01*
X161780000Y-103000000D02*
X161780000Y-104600000D01*
X161780000Y-104600000D02*
X162780000Y-104600000D01*
X162280000Y-103000000D02*
X162280000Y-100740000D01*
X162340000Y-106960000D02*
X162340000Y-108175000D01*
X162340000Y-106960000D02*
X162620000Y-106960000D01*
X162620000Y-106960000D02*
X162620000Y-108560000D01*
X162620000Y-108560000D02*
X163540000Y-108560000D01*
X162780000Y-103000000D02*
X161780000Y-103000000D01*
X162780000Y-104600000D02*
X162780000Y-103000000D01*
X163540000Y-100740000D02*
X157420000Y-100740000D01*
X163540000Y-106960000D02*
X162620000Y-106960000D01*
X163540000Y-108560000D02*
X163540000Y-100740000D01*
D16*
G36*
X156675161Y-102352009D02*
G01*
X156697605Y-102360844D01*
X156704018Y-102364421D01*
X156719625Y-102373114D01*
X156733297Y-102379869D01*
X156739238Y-102382258D01*
X156747701Y-102386394D01*
X156750000Y-102389450D01*
X156754101Y-102393591D01*
X156764629Y-102400164D01*
X156773750Y-102404961D01*
X156787584Y-102412109D01*
X156797320Y-102417725D01*
X156800000Y-102419719D01*
X156805546Y-102423463D01*
X156817180Y-102429900D01*
X156827371Y-102435122D01*
X156842451Y-102443099D01*
X156854316Y-102450214D01*
X156858613Y-102453384D01*
X156867032Y-102459023D01*
X156880326Y-102465959D01*
X156884991Y-102468096D01*
X156897153Y-102474299D01*
X156904250Y-102479539D01*
X156905000Y-102480962D01*
X156909063Y-102484548D01*
X156912500Y-102485000D01*
X156919153Y-102487699D01*
X156920000Y-102490000D01*
X156923877Y-102494762D01*
X156925572Y-102495000D01*
X156931846Y-102497459D01*
X156944698Y-102504140D01*
X156962204Y-102513999D01*
X156980804Y-102525000D01*
X157000731Y-102536836D01*
X157017587Y-102546470D01*
X157029514Y-102552866D01*
X157034558Y-102555000D01*
X157040951Y-102557825D01*
X157050966Y-102564693D01*
X157051825Y-102565362D01*
X157065000Y-102575725D01*
X157065000Y-103224587D01*
X157064994Y-103318547D01*
X157064973Y-103403017D01*
X157064930Y-103478507D01*
X157064857Y-103545528D01*
X157064749Y-103604590D01*
X157064598Y-103656202D01*
X157064397Y-103700876D01*
X157064140Y-103739121D01*
X157063820Y-103771448D01*
X157063430Y-103798367D01*
X157062964Y-103820387D01*
X157062413Y-103838020D01*
X157061773Y-103851775D01*
X157061035Y-103862163D01*
X157060194Y-103869693D01*
X157059241Y-103874876D01*
X157058171Y-103878223D01*
X157056977Y-103880243D01*
X157056250Y-103880987D01*
X157046024Y-103888382D01*
X157032272Y-103896757D01*
X157030000Y-103898011D01*
X157018245Y-103904777D01*
X157010805Y-103909785D01*
X157010000Y-103910546D01*
X157004732Y-103914140D01*
X156992793Y-103921139D01*
X156976357Y-103930287D01*
X156968698Y-103934434D01*
X156946407Y-103946743D01*
X156920082Y-103961779D01*
X156894179Y-103976984D01*
X156884772Y-103982637D01*
X156865710Y-103993934D01*
X156849653Y-104002961D01*
X156838603Y-104008622D01*
X156834824Y-104010000D01*
X156830138Y-104013810D01*
X156830000Y-104015000D01*
X156826484Y-104019857D01*
X156825394Y-104020000D01*
X156819351Y-104022364D01*
X156806784Y-104028732D01*
X156789776Y-104038016D01*
X156777500Y-104044999D01*
X156758741Y-104055581D01*
X156743087Y-104063944D01*
X156732621Y-104069001D01*
X156729605Y-104069999D01*
X156725117Y-104073803D01*
X156725000Y-104074904D01*
X156720757Y-104079643D01*
X156712500Y-104082946D01*
X156703146Y-104086597D01*
X156700000Y-104089935D01*
X156695881Y-104094293D01*
X156685890Y-104099625D01*
X156685108Y-104099954D01*
X156674675Y-104103142D01*
X156665076Y-104102156D01*
X156652130Y-104096385D01*
X156648858Y-104094649D01*
X156630671Y-104085037D01*
X156611887Y-104075337D01*
X156607500Y-104073116D01*
X156594835Y-104066328D01*
X156586435Y-104061049D01*
X156585000Y-104059776D01*
X156579423Y-104055682D01*
X156567222Y-104048233D01*
X156550640Y-104038698D01*
X156531917Y-104028351D01*
X156513295Y-104018461D01*
X156502500Y-104012978D01*
X156489818Y-104006244D01*
X156481419Y-104000963D01*
X156480000Y-103999683D01*
X156473786Y-103995135D01*
X156458714Y-103986247D01*
X156434902Y-103973084D01*
X156402465Y-103955714D01*
X156400000Y-103954408D01*
X156386639Y-103947123D01*
X156377338Y-103941653D01*
X156375000Y-103940000D01*
X156366769Y-103933936D01*
X156353955Y-103926389D01*
X156341437Y-103920183D01*
X156327957Y-103913188D01*
X156311813Y-103903249D01*
X156296291Y-103892564D01*
X156284679Y-103883333D01*
X156281409Y-103880004D01*
X156279733Y-103875200D01*
X156278356Y-103864841D01*
X156277256Y-103848240D01*
X156276412Y-103824704D01*
X156275801Y-103793543D01*
X156275403Y-103754068D01*
X156275195Y-103705588D01*
X156275159Y-103681250D01*
X156275078Y-103631944D01*
X156274901Y-103591742D01*
X156274593Y-103559750D01*
X156274118Y-103535071D01*
X156273439Y-103516811D01*
X156272521Y-103504074D01*
X156271328Y-103495964D01*
X156269825Y-103491587D01*
X156267975Y-103490047D01*
X156267500Y-103490000D01*
X156260846Y-103492699D01*
X156260000Y-103495000D01*
X156256098Y-103499725D01*
X156254213Y-103500000D01*
X156247929Y-103502464D01*
X156234980Y-103509189D01*
X156217204Y-103519171D01*
X156196438Y-103531410D01*
X156194631Y-103532499D01*
X156174019Y-103544827D01*
X156156606Y-103555008D01*
X156144109Y-103562052D01*
X156138251Y-103564972D01*
X156138093Y-103564999D01*
X156132956Y-103567439D01*
X156121167Y-103574043D01*
X156104597Y-103583743D01*
X156089043Y-103593079D01*
X156069328Y-103604909D01*
X156052255Y-103614923D01*
X156039957Y-103621885D01*
X156035117Y-103624373D01*
X156029727Y-103627009D01*
X156020581Y-103632073D01*
X156006600Y-103640193D01*
X155986706Y-103652000D01*
X155959824Y-103668122D01*
X155945820Y-103676555D01*
X155929690Y-103685809D01*
X155914716Y-103693643D01*
X155908750Y-103696401D01*
X155898985Y-103701675D01*
X155895000Y-103706096D01*
X155891099Y-103709822D01*
X155889444Y-103710000D01*
X155882994Y-103712450D01*
X155870215Y-103719036D01*
X155853268Y-103728607D01*
X155842500Y-103735000D01*
X155824135Y-103745763D01*
X155808700Y-103754202D01*
X155798356Y-103759166D01*
X155795555Y-103760000D01*
X155790252Y-103762679D01*
X155790000Y-103763814D01*
X155785275Y-103769327D01*
X155771470Y-103777200D01*
X155753750Y-103785194D01*
X155743973Y-103790653D01*
X155740000Y-103795489D01*
X155735942Y-103799493D01*
X155732500Y-103800000D01*
X155725846Y-103802699D01*
X155725000Y-103805000D01*
X155721120Y-103809758D01*
X155719409Y-103809999D01*
X155712826Y-103812309D01*
X155700412Y-103818372D01*
X155684455Y-103826889D01*
X155667243Y-103836562D01*
X155651065Y-103846093D01*
X155638208Y-103854182D01*
X155630961Y-103859531D01*
X155630139Y-103860665D01*
X155634058Y-103864669D01*
X155644313Y-103871837D01*
X155658395Y-103880661D01*
X155673798Y-103889635D01*
X155688015Y-103897254D01*
X155698537Y-103902012D01*
X155699556Y-103902359D01*
X155707868Y-103906845D01*
X155710000Y-103910336D01*
X155713722Y-103914913D01*
X155714605Y-103914999D01*
X155720625Y-103917375D01*
X155733186Y-103923783D01*
X155750236Y-103933142D01*
X155763355Y-103940646D01*
X155785031Y-103953187D01*
X155806237Y-103965367D01*
X155823706Y-103975312D01*
X155830000Y-103978852D01*
X155845209Y-103987546D01*
X155865132Y-103999209D01*
X155885945Y-104011598D01*
X155890000Y-104014039D01*
X155911490Y-104026798D01*
X155933833Y-104039728D01*
X155952679Y-104050318D01*
X155955000Y-104051585D01*
X155973471Y-104061882D01*
X155995726Y-104074680D01*
X156017021Y-104087251D01*
X156017500Y-104087539D01*
X156043209Y-104102739D01*
X156069905Y-104117957D01*
X156100424Y-104134784D01*
X156129713Y-104150591D01*
X156145013Y-104159477D01*
X156158015Y-104168174D01*
X156161936Y-104171278D01*
X156173839Y-104179221D01*
X156188433Y-104186018D01*
X156188473Y-104186032D01*
X156199457Y-104191021D01*
X156204878Y-104195477D01*
X156205000Y-104196004D01*
X156208794Y-104199922D01*
X156209716Y-104200000D01*
X156215778Y-104202474D01*
X156228281Y-104209098D01*
X156245215Y-104218671D01*
X156264571Y-104229995D01*
X156284341Y-104241871D01*
X156302514Y-104253098D01*
X156317083Y-104262478D01*
X156326039Y-104268811D01*
X156327806Y-104270496D01*
X156328406Y-104276329D01*
X156328921Y-104290929D01*
X156329351Y-104313060D01*
X156329698Y-104341487D01*
X156329963Y-104374978D01*
X156330145Y-104412298D01*
X156330247Y-104452212D01*
X156330268Y-104493486D01*
X156330210Y-104534887D01*
X156330073Y-104575180D01*
X156329858Y-104613131D01*
X156329566Y-104647505D01*
X156329198Y-104677069D01*
X156328754Y-104700589D01*
X156328236Y-104716830D01*
X156327643Y-104724557D01*
X156327513Y-104724977D01*
X156322468Y-104728894D01*
X156310486Y-104736728D01*
X156293317Y-104747434D01*
X156272706Y-104759968D01*
X156250400Y-104773287D01*
X156228148Y-104786346D01*
X156207695Y-104798102D01*
X156190789Y-104807509D01*
X156180000Y-104813131D01*
X156171989Y-104817911D01*
X156170000Y-104819635D01*
X156164274Y-104823541D01*
X156153207Y-104829639D01*
X156150000Y-104831274D01*
X156135441Y-104839012D01*
X156117522Y-104849118D01*
X156107500Y-104855002D01*
X156092523Y-104863776D01*
X156080242Y-104870644D01*
X156075000Y-104873322D01*
X156067964Y-104877085D01*
X156054304Y-104884865D01*
X156035969Y-104895539D01*
X156014909Y-104907980D01*
X156014299Y-104908343D01*
X155993467Y-104920485D01*
X155975518Y-104930473D01*
X155962306Y-104937308D01*
X155955682Y-104939992D01*
X155955549Y-104940000D01*
X155950259Y-104943490D01*
X155950000Y-104945000D01*
X155946536Y-104949858D01*
X155945465Y-104950000D01*
X155939608Y-104952421D01*
X155927069Y-104959004D01*
X155909719Y-104968730D01*
X155890406Y-104980000D01*
X155870165Y-104991781D01*
X155852900Y-105001388D01*
X155840499Y-105007799D01*
X155834941Y-105010000D01*
X155830143Y-105013806D01*
X155830000Y-105015000D01*
X155826125Y-105019765D01*
X155824450Y-105020000D01*
X155818256Y-105022447D01*
X155805361Y-105029127D01*
X155787590Y-105039049D01*
X155766768Y-105051221D01*
X155764629Y-105052499D01*
X155743938Y-105064784D01*
X155726492Y-105074941D01*
X155713995Y-105081993D01*
X155708151Y-105084964D01*
X155707979Y-105084999D01*
X155702940Y-105087411D01*
X155691363Y-105093886D01*
X155675253Y-105103288D01*
X155665071Y-105109363D01*
X155624541Y-105133727D01*
X155643520Y-105143595D01*
X155672566Y-105158924D01*
X155693654Y-105170608D01*
X155707867Y-105179268D01*
X155715687Y-105185000D01*
X155725121Y-105191589D01*
X155739512Y-105200113D01*
X155748473Y-105204942D01*
X155763129Y-105212854D01*
X155783257Y-105224144D01*
X155805748Y-105237056D01*
X155820000Y-105245389D01*
X155841565Y-105257902D01*
X155861991Y-105269403D01*
X155878521Y-105278358D01*
X155886250Y-105282266D01*
X155897917Y-105288755D01*
X155904476Y-105294283D01*
X155905000Y-105295569D01*
X155908889Y-105299795D01*
X155910555Y-105300000D01*
X155917005Y-105302450D01*
X155929784Y-105309036D01*
X155946731Y-105318607D01*
X155957500Y-105325000D01*
X155975864Y-105335763D01*
X155991299Y-105344202D01*
X156001643Y-105349166D01*
X156004444Y-105350000D01*
X156009738Y-105353487D01*
X156010000Y-105355000D01*
X156013877Y-105359762D01*
X156015572Y-105360000D01*
X156021846Y-105362459D01*
X156034698Y-105369140D01*
X156052204Y-105378999D01*
X156070804Y-105390000D01*
X156090586Y-105401812D01*
X156107132Y-105411435D01*
X156118643Y-105417838D01*
X156123262Y-105420000D01*
X156128368Y-105422438D01*
X156140292Y-105429094D01*
X156157313Y-105438984D01*
X156177709Y-105451121D01*
X156180000Y-105452499D01*
X156200725Y-105464829D01*
X156218340Y-105475010D01*
X156231095Y-105482054D01*
X156237245Y-105484973D01*
X156237431Y-105485000D01*
X156243421Y-105487804D01*
X156253107Y-105494586D01*
X156253549Y-105494931D01*
X156263494Y-105501030D01*
X156270365Y-105502254D01*
X156270587Y-105502136D01*
X156271566Y-105496696D01*
X156272470Y-105482351D01*
X156273274Y-105460199D01*
X156273952Y-105431335D01*
X156274482Y-105396856D01*
X156274761Y-105366186D01*
X156274837Y-105357858D01*
X156274994Y-105315436D01*
X156275000Y-105305841D01*
X156275000Y-105132500D01*
X156365066Y-105132500D01*
X156369136Y-105137142D01*
X156379914Y-105144914D01*
X156395250Y-105154298D01*
X156398783Y-105156294D01*
X156419592Y-105168044D01*
X156441025Y-105180383D01*
X156457500Y-105190080D01*
X156475016Y-105200405D01*
X156492190Y-105210246D01*
X156500000Y-105214580D01*
X156510201Y-105220335D01*
X156527105Y-105230105D01*
X156548824Y-105242790D01*
X156573468Y-105257289D01*
X156589960Y-105267044D01*
X156614461Y-105281302D01*
X156636340Y-105293535D01*
X156654007Y-105302894D01*
X156665875Y-105308528D01*
X156669960Y-105309802D01*
X156675930Y-105307306D01*
X156689453Y-105300308D01*
X156709475Y-105289395D01*
X156734943Y-105275154D01*
X156764802Y-105258175D01*
X156797999Y-105239044D01*
X156824600Y-105223552D01*
X156859382Y-105203087D01*
X156891318Y-105184073D01*
X156919400Y-105167126D01*
X156942621Y-105152863D01*
X156959973Y-105141902D01*
X156970450Y-105134859D01*
X156973196Y-105132500D01*
X156969645Y-105128342D01*
X156958868Y-105120439D01*
X156942420Y-105109832D01*
X156921855Y-105097561D01*
X156916096Y-105094266D01*
X156892657Y-105080906D01*
X156863184Y-105064005D01*
X156830279Y-105045061D01*
X156796545Y-105025572D01*
X156766269Y-105008016D01*
X156738866Y-104992234D01*
X156714242Y-104978322D01*
X156693751Y-104967024D01*
X156678748Y-104959083D01*
X156670586Y-104955242D01*
X156669654Y-104955000D01*
X156663918Y-104957419D01*
X156650906Y-104964187D01*
X156631952Y-104974568D01*
X156608391Y-104987827D01*
X156581558Y-105003227D01*
X156570885Y-105009427D01*
X156533373Y-105031287D01*
X156503293Y-105048806D01*
X156479438Y-105062678D01*
X156460600Y-105073601D01*
X156445573Y-105082271D01*
X156433149Y-105089383D01*
X156422123Y-105095635D01*
X156411287Y-105101722D01*
X156399434Y-105108340D01*
X156398783Y-105108703D01*
X156382774Y-105118232D01*
X156370880Y-105126460D01*
X156365252Y-105131872D01*
X156365066Y-105132500D01*
X156275000Y-105132500D01*
X156275000Y-105112274D01*
X156293750Y-105102434D01*
X156305960Y-105095606D01*
X156313888Y-105090394D01*
X156315000Y-105089359D01*
X156320828Y-105085377D01*
X156332077Y-105079628D01*
X156335000Y-105078291D01*
X156349455Y-105071081D01*
X156367263Y-105061221D01*
X156377500Y-105055149D01*
X156393910Y-105045517D01*
X156409100Y-105037285D01*
X156416250Y-105033824D01*
X156425994Y-105028404D01*
X156430000Y-105023903D01*
X156434064Y-105020436D01*
X156437500Y-105020000D01*
X156444158Y-105017622D01*
X156445000Y-105015606D01*
X156449153Y-105010984D01*
X156459343Y-105005385D01*
X156461250Y-105004576D01*
X156473946Y-104998430D01*
X156491094Y-104988919D01*
X156507500Y-104979017D01*
X156523255Y-104969599D01*
X156536188Y-104962806D01*
X156543596Y-104960053D01*
X156543750Y-104960047D01*
X156549567Y-104957438D01*
X156550000Y-104955962D01*
X156554138Y-104951626D01*
X156564496Y-104945643D01*
X156568971Y-104943554D01*
X156582354Y-104936788D01*
X156600531Y-104926490D01*
X156619974Y-104914672D01*
X156623531Y-104912414D01*
X156642428Y-104900877D01*
X156657155Y-104894299D01*
X156670344Y-104892773D01*
X156684630Y-104896392D01*
X156702644Y-104905248D01*
X156720975Y-104915850D01*
X156739528Y-104926697D01*
X156756221Y-104936226D01*
X156768081Y-104942747D01*
X156770000Y-104943737D01*
X156781314Y-104949868D01*
X156796930Y-104958863D01*
X156807500Y-104965171D01*
X156824945Y-104975383D01*
X156842070Y-104984831D01*
X156850000Y-104988914D01*
X156861857Y-104995121D01*
X156869276Y-104999724D01*
X156870000Y-105000372D01*
X156875518Y-105004221D01*
X156886861Y-105010886D01*
X156895000Y-105015372D01*
X156908176Y-105022991D01*
X156917089Y-105029114D01*
X156919166Y-105031250D01*
X156924777Y-105034998D01*
X156924886Y-105035000D01*
X156930765Y-105037442D01*
X156943258Y-105044026D01*
X156960471Y-105053643D01*
X156980513Y-105065178D01*
X157001487Y-105077521D01*
X157021502Y-105089559D01*
X157038662Y-105100182D01*
X157051076Y-105108277D01*
X157056250Y-105112125D01*
X157057522Y-105113680D01*
X157058665Y-105116274D01*
X157059686Y-105120422D01*
X157060591Y-105126635D01*
X157061388Y-105135427D01*
X157062083Y-105147311D01*
X157062683Y-105162799D01*
X157063196Y-105182404D01*
X157063627Y-105206639D01*
X157063984Y-105236017D01*
X157064274Y-105271051D01*
X157064503Y-105312253D01*
X157064679Y-105360137D01*
X157064808Y-105415215D01*
X157064898Y-105478000D01*
X157064955Y-105549005D01*
X157064986Y-105628743D01*
X157064998Y-105717727D01*
X157065000Y-105762978D01*
X157065013Y-105857915D01*
X157065036Y-105943360D01*
X157065044Y-106019823D01*
X157065010Y-106087812D01*
X157064910Y-106147836D01*
X157064717Y-106200404D01*
X157064406Y-106246024D01*
X157063951Y-106285205D01*
X157063328Y-106318455D01*
X157062509Y-106346284D01*
X157061471Y-106369200D01*
X157060186Y-106387712D01*
X157058630Y-106402329D01*
X157056777Y-106413558D01*
X157054601Y-106421910D01*
X157052077Y-106427892D01*
X157049179Y-106432014D01*
X157045882Y-106434784D01*
X157042160Y-106436710D01*
X157037988Y-106438302D01*
X157033339Y-106440069D01*
X157030903Y-106441141D01*
X157015805Y-106448847D01*
X156997534Y-106459000D01*
X156987500Y-106464909D01*
X156971078Y-106474351D01*
X156955883Y-106482276D01*
X156948750Y-106485507D01*
X156938947Y-106490762D01*
X156935000Y-106495489D01*
X156931201Y-106499893D01*
X156930153Y-106500000D01*
X156924012Y-106502405D01*
X156911428Y-106508876D01*
X156894507Y-106518297D01*
X156882980Y-106525000D01*
X156864389Y-106535677D01*
X156848780Y-106544081D01*
X156838290Y-106549090D01*
X156835327Y-106550000D01*
X156830210Y-106553611D01*
X156830000Y-106555000D01*
X156826103Y-106559732D01*
X156824252Y-106560000D01*
X156818413Y-106562461D01*
X156805906Y-106569126D01*
X156788554Y-106578913D01*
X156768179Y-106590743D01*
X156746604Y-106603535D01*
X156725653Y-106616210D01*
X156707146Y-106627687D01*
X156692908Y-106636886D01*
X156685000Y-106642527D01*
X156675103Y-106646804D01*
X156670000Y-106646674D01*
X156659554Y-106642656D01*
X156643746Y-106635289D01*
X156625645Y-106626156D01*
X156608318Y-106616841D01*
X156594834Y-106608928D01*
X156589243Y-106605000D01*
X156579832Y-106598433D01*
X156565441Y-106589982D01*
X156556526Y-106585239D01*
X156542404Y-106577689D01*
X156522509Y-106566604D01*
X156499655Y-106553569D01*
X156480000Y-106542136D01*
X156459296Y-106530055D01*
X156441573Y-106519865D01*
X156428697Y-106512629D01*
X156422532Y-106509409D01*
X156422500Y-106509397D01*
X156416537Y-106506234D01*
X156403787Y-106498933D01*
X156386021Y-106488524D01*
X156365011Y-106476039D01*
X156361187Y-106473750D01*
X156339838Y-106461168D01*
X156321420Y-106450717D01*
X156307695Y-106443365D01*
X156300425Y-106440083D01*
X156299937Y-106440000D01*
X156295143Y-106436193D01*
X156295000Y-106435000D01*
X156291124Y-106430235D01*
X156289444Y-106430000D01*
X156282994Y-106427549D01*
X156270215Y-106420963D01*
X156253268Y-106411392D01*
X156242500Y-106405000D01*
X156224186Y-106394243D01*
X156208859Y-106385807D01*
X156198657Y-106380840D01*
X156195939Y-106380000D01*
X156188934Y-106377069D01*
X156178449Y-106369870D01*
X156176633Y-106368416D01*
X156162704Y-106358493D01*
X156146084Y-106348566D01*
X156142500Y-106346684D01*
X156110316Y-106329922D01*
X156086939Y-106316747D01*
X156071937Y-106306910D01*
X156068621Y-106304241D01*
X156058681Y-106297353D01*
X156043769Y-106288910D01*
X156034585Y-106284311D01*
X156020979Y-106277209D01*
X156012051Y-106271316D01*
X156010000Y-106268819D01*
X156006097Y-106265173D01*
X156004444Y-106265000D01*
X155997964Y-106262565D01*
X155985168Y-106256032D01*
X155968248Y-106246554D01*
X155958194Y-106240634D01*
X155937853Y-106228727D01*
X155918418Y-106217816D01*
X155903060Y-106209665D01*
X155898750Y-106207564D01*
X155887074Y-106201248D01*
X155880518Y-106195962D01*
X155880000Y-106194767D01*
X155875873Y-106190190D01*
X155869661Y-106187392D01*
X155860716Y-106183404D01*
X155845949Y-106175659D01*
X155828075Y-106165601D01*
X155822017Y-106162055D01*
X155804613Y-106152078D01*
X155790303Y-106144452D01*
X155781373Y-106140372D01*
X155779856Y-106140000D01*
X155775117Y-106136355D01*
X155775000Y-106135336D01*
X155770871Y-106130265D01*
X155764948Y-106127483D01*
X155760669Y-106125728D01*
X155753496Y-106122138D01*
X155742714Y-106116304D01*
X155727604Y-106107812D01*
X155707451Y-106096254D01*
X155681538Y-106081217D01*
X155649148Y-106062292D01*
X155609565Y-106039066D01*
X155564114Y-106012332D01*
X155542626Y-105999903D01*
X155523464Y-105989223D01*
X155508701Y-105981423D01*
X155500413Y-105977631D01*
X155500364Y-105977615D01*
X155492093Y-105973128D01*
X155490000Y-105969663D01*
X155486245Y-105965352D01*
X156695000Y-105965352D01*
X156695000Y-106564517D01*
X156708750Y-106558312D01*
X156722360Y-106551427D01*
X156737816Y-106542630D01*
X156740000Y-106541297D01*
X156751561Y-106534767D01*
X156759242Y-106531549D01*
X156760357Y-106531493D01*
X156765758Y-106529270D01*
X156770914Y-106525000D01*
X156777213Y-106520548D01*
X156790958Y-106511902D01*
X156810902Y-106499809D01*
X156835799Y-106485018D01*
X156864401Y-106468277D01*
X156891692Y-106452500D01*
X157004770Y-106387500D01*
X157004885Y-105788750D01*
X157004884Y-105695569D01*
X157004840Y-105611941D01*
X157004748Y-105537418D01*
X157004605Y-105471552D01*
X157004404Y-105413895D01*
X157004143Y-105364000D01*
X157003815Y-105321419D01*
X157003417Y-105285704D01*
X157002945Y-105256408D01*
X157002392Y-105233083D01*
X157001756Y-105215282D01*
X157001030Y-105202557D01*
X157000211Y-105194460D01*
X156999295Y-105190543D01*
X156998750Y-105190009D01*
X156991921Y-105192439D01*
X156978844Y-105198945D01*
X156961786Y-105208359D01*
X156952500Y-105213778D01*
X156932863Y-105225286D01*
X156914738Y-105235639D01*
X156901064Y-105243165D01*
X156897500Y-105245010D01*
X156886527Y-105250936D01*
X156880179Y-105255214D01*
X156880000Y-105255405D01*
X156874372Y-105259447D01*
X156862063Y-105266987D01*
X156844924Y-105276994D01*
X156824807Y-105288437D01*
X156803566Y-105300285D01*
X156783050Y-105311509D01*
X156765114Y-105321078D01*
X156751609Y-105327961D01*
X156744387Y-105331128D01*
X156743750Y-105331211D01*
X156740134Y-105333717D01*
X156740000Y-105334999D01*
X156736151Y-105339801D01*
X156734666Y-105340000D01*
X156727670Y-105342820D01*
X156716525Y-105349892D01*
X156712166Y-105353093D01*
X156695000Y-105366186D01*
X156695000Y-105965352D01*
X155486245Y-105965352D01*
X155486121Y-105965210D01*
X155484489Y-105965000D01*
X155478243Y-105962531D01*
X155465431Y-105955825D01*
X155447977Y-105945934D01*
X155429599Y-105935000D01*
X155409888Y-105923164D01*
X155393408Y-105913530D01*
X155381962Y-105907133D01*
X155377414Y-105905000D01*
X155372574Y-105902614D01*
X155360934Y-105896154D01*
X155344284Y-105886664D01*
X155324416Y-105875187D01*
X155303119Y-105862766D01*
X155282184Y-105850447D01*
X155263402Y-105839272D01*
X155248564Y-105830286D01*
X155240000Y-105824892D01*
X155229006Y-105818537D01*
X155225000Y-105816588D01*
X155218157Y-105812898D01*
X155204531Y-105805071D01*
X155185898Y-105794144D01*
X155164034Y-105781151D01*
X155156467Y-105776620D01*
X155134491Y-105763523D01*
X155115704Y-105752498D01*
X155101701Y-105744466D01*
X155094071Y-105740347D01*
X155093182Y-105740000D01*
X155088247Y-105737597D01*
X155076531Y-105731071D01*
X155059833Y-105721441D01*
X155041558Y-105710683D01*
X155020759Y-105698594D01*
X155002163Y-105688258D01*
X154987995Y-105680884D01*
X154981093Y-105677847D01*
X154972451Y-105673356D01*
X154970000Y-105669663D01*
X154966173Y-105665146D01*
X154964909Y-105665000D01*
X154958414Y-105662555D01*
X154945991Y-105656108D01*
X154930172Y-105646982D01*
X154928068Y-105645710D01*
X154909942Y-105635052D01*
X154892919Y-105625636D01*
X154880677Y-105619498D01*
X154880658Y-105619490D01*
X154870130Y-105613842D01*
X154865077Y-105609189D01*
X154865000Y-105608779D01*
X154860933Y-105605422D01*
X154857500Y-105605000D01*
X154850842Y-105602559D01*
X154850000Y-105600489D01*
X154845872Y-105595619D01*
X154836250Y-105590463D01*
X154824205Y-105584731D01*
X154808097Y-105575957D01*
X154797500Y-105569720D01*
X154779104Y-105559060D01*
X154760103Y-105548875D01*
X154751457Y-105544604D01*
X154738191Y-105537648D01*
X154729096Y-105531550D01*
X154727297Y-105529671D01*
X154721310Y-105524693D01*
X154709428Y-105517504D01*
X154700839Y-105512986D01*
X154667234Y-105495777D01*
X154642656Y-105482181D01*
X154627211Y-105472258D01*
X154624367Y-105470000D01*
X154614975Y-105463413D01*
X154600610Y-105454879D01*
X154591580Y-105450000D01*
X154577716Y-105442548D01*
X154567875Y-105436786D01*
X154565000Y-105434716D01*
X154559096Y-105431206D01*
X154547716Y-105426097D01*
X154545000Y-105425000D01*
X154532951Y-105419640D01*
X154525581Y-105415274D01*
X154525000Y-105414680D01*
X154519815Y-105410670D01*
X154508246Y-105403006D01*
X154492506Y-105393140D01*
X154487500Y-105390088D01*
X154469891Y-105379130D01*
X154454783Y-105369210D01*
X154444933Y-105362150D01*
X154443750Y-105361166D01*
X154441649Y-105358722D01*
X154439914Y-105354838D01*
X154438509Y-105348622D01*
X154437400Y-105339178D01*
X154436554Y-105325614D01*
X154435936Y-105307035D01*
X154435513Y-105282547D01*
X154435251Y-105251257D01*
X154435115Y-105212271D01*
X154435072Y-105164695D01*
X154435076Y-105132975D01*
X154435182Y-105086817D01*
X154435454Y-105043651D01*
X154435873Y-105004524D01*
X154436420Y-104970482D01*
X154437076Y-104942574D01*
X154437821Y-104921848D01*
X154437828Y-104921742D01*
X154528534Y-104921742D01*
X154532375Y-104925344D01*
X154543712Y-104933102D01*
X154561327Y-104944256D01*
X154584008Y-104958045D01*
X154610538Y-104973710D01*
X154625000Y-104982084D01*
X154659874Y-105002161D01*
X154699994Y-105025277D01*
X154743471Y-105050341D01*
X154788417Y-105076264D01*
X154832944Y-105101958D01*
X154875165Y-105126333D01*
X154913190Y-105148299D01*
X154945133Y-105166768D01*
X154955000Y-105172478D01*
X154968824Y-105180470D01*
X154990212Y-105192819D01*
X155018063Y-105208891D01*
X155051275Y-105228051D01*
X155088749Y-105249665D01*
X155129383Y-105273097D01*
X155172076Y-105297713D01*
X155215728Y-105322878D01*
X155259237Y-105347957D01*
X155301502Y-105372316D01*
X155341423Y-105395319D01*
X155377899Y-105416332D01*
X155397500Y-105427621D01*
X155419801Y-105440471D01*
X155449862Y-105457801D01*
X155486782Y-105479094D01*
X155529662Y-105503828D01*
X155577599Y-105531485D01*
X155629695Y-105561545D01*
X155685048Y-105593488D01*
X155742759Y-105626796D01*
X155801927Y-105660948D01*
X155861651Y-105695425D01*
X155889711Y-105711624D01*
X155946115Y-105744135D01*
X156000057Y-105775120D01*
X156050907Y-105804225D01*
X156098037Y-105831095D01*
X156140817Y-105855376D01*
X156178619Y-105876710D01*
X156210814Y-105894745D01*
X156236773Y-105909124D01*
X156255868Y-105919493D01*
X156267468Y-105925496D01*
X156270961Y-105926905D01*
X156271903Y-105921497D01*
X156272767Y-105907243D01*
X156273526Y-105885298D01*
X156274156Y-105856816D01*
X156274628Y-105822952D01*
X156274917Y-105784859D01*
X156275000Y-105749767D01*
X156275000Y-105575125D01*
X156256250Y-105563388D01*
X156248009Y-105558451D01*
X156232089Y-105549120D01*
X156209487Y-105535971D01*
X156181198Y-105519581D01*
X156148220Y-105500527D01*
X156111551Y-105479386D01*
X156072185Y-105456735D01*
X156047500Y-105442553D01*
X156005127Y-105418210D01*
X155963275Y-105394144D01*
X155923212Y-105371085D01*
X155886208Y-105349766D01*
X155853530Y-105330915D01*
X155826448Y-105315266D01*
X155806230Y-105303549D01*
X155800000Y-105299923D01*
X155781946Y-105289429D01*
X155756202Y-105274514D01*
X155723748Y-105255744D01*
X155685562Y-105233683D01*
X155642624Y-105208896D01*
X155595913Y-105181949D01*
X155546407Y-105153406D01*
X155495085Y-105123831D01*
X155442927Y-105093791D01*
X155390913Y-105063849D01*
X155365000Y-105048939D01*
X155337090Y-105032845D01*
X155307694Y-105015827D01*
X155278333Y-104998773D01*
X155250531Y-104982572D01*
X155225812Y-104968113D01*
X155205698Y-104956284D01*
X155191714Y-104947975D01*
X155186571Y-104944843D01*
X155175245Y-104933300D01*
X155173804Y-104921791D01*
X155268175Y-104921791D01*
X155271123Y-104926592D01*
X155281736Y-104931856D01*
X155282885Y-104932338D01*
X155297899Y-104939742D01*
X155315446Y-104949936D01*
X155323136Y-104954905D01*
X155335978Y-104963301D01*
X155345134Y-104968781D01*
X155347870Y-104970000D01*
X155353506Y-104972446D01*
X155365820Y-104979064D01*
X155382981Y-104988767D01*
X155403157Y-105000471D01*
X155424520Y-105013091D01*
X155445237Y-105025543D01*
X155463479Y-105036741D01*
X155477415Y-105045601D01*
X155485214Y-105051039D01*
X155486173Y-105051957D01*
X155489515Y-105054274D01*
X155490000Y-105052500D01*
X155491870Y-105050348D01*
X155493826Y-105052500D01*
X155501618Y-105059148D01*
X155515389Y-105067702D01*
X155531875Y-105076244D01*
X155541250Y-105080377D01*
X155551041Y-105085717D01*
X155555000Y-105090489D01*
X155559346Y-105093656D01*
X155569819Y-105094999D01*
X155570000Y-105095000D01*
X155580533Y-105093663D01*
X155584998Y-105090443D01*
X155585000Y-105090387D01*
X155589259Y-105085974D01*
X155599778Y-105080954D01*
X155602500Y-105080000D01*
X155613902Y-105075263D01*
X155619783Y-105070918D01*
X155620000Y-105070218D01*
X155624146Y-105065857D01*
X155634321Y-105060384D01*
X155636250Y-105059567D01*
X155649320Y-105053174D01*
X155658789Y-105046762D01*
X155659107Y-105046461D01*
X155668443Y-105040854D01*
X155672857Y-105040000D01*
X155679281Y-105037362D01*
X155680000Y-105035323D01*
X155684227Y-105030755D01*
X155694676Y-105025401D01*
X155697500Y-105024319D01*
X155708844Y-105019558D01*
X155714762Y-105015790D01*
X155715006Y-105015245D01*
X155719113Y-105011796D01*
X155729972Y-105005169D01*
X155745403Y-104996679D01*
X155748602Y-104995000D01*
X155765836Y-104985673D01*
X155780064Y-104977344D01*
X155788482Y-104971662D01*
X155788945Y-104971257D01*
X155799085Y-104965103D01*
X155807849Y-104961965D01*
X155817040Y-104958243D01*
X155820000Y-104954845D01*
X155824252Y-104950789D01*
X155834756Y-104945955D01*
X155837500Y-104945000D01*
X155848910Y-104940134D01*
X155854786Y-104935481D01*
X155855000Y-104934707D01*
X155859238Y-104930261D01*
X155867500Y-104927053D01*
X155876853Y-104923402D01*
X155880000Y-104920064D01*
X155884149Y-104915822D01*
X155894330Y-104910443D01*
X155896250Y-104909640D01*
X155907841Y-104904398D01*
X155914678Y-104900280D01*
X155915000Y-104899945D01*
X155920340Y-104896078D01*
X155932086Y-104888806D01*
X155947994Y-104879406D01*
X155965820Y-104869159D01*
X155983322Y-104859342D01*
X155998255Y-104851236D01*
X156008377Y-104846119D01*
X156011366Y-104845000D01*
X156017405Y-104842073D01*
X156025104Y-104836250D01*
X156033411Y-104830637D01*
X156037844Y-104830000D01*
X156042251Y-104828973D01*
X156043932Y-104826904D01*
X156049984Y-104821700D01*
X156062114Y-104813824D01*
X156075000Y-104806466D01*
X156093876Y-104796061D01*
X156112739Y-104785326D01*
X156122500Y-104779580D01*
X156134520Y-104772983D01*
X156142411Y-104769861D01*
X156143932Y-104770018D01*
X156147440Y-104769145D01*
X156148932Y-104767345D01*
X156154769Y-104762439D01*
X156166711Y-104754332D01*
X156182197Y-104744570D01*
X156198664Y-104734704D01*
X156213551Y-104726283D01*
X156224294Y-104720855D01*
X156227800Y-104719668D01*
X156234190Y-104716707D01*
X156245509Y-104709473D01*
X156254011Y-104703418D01*
X156275522Y-104687500D01*
X156276511Y-104513805D01*
X156276717Y-104465980D01*
X156276719Y-104427278D01*
X156276487Y-104396821D01*
X156275994Y-104373734D01*
X156275212Y-104357141D01*
X156274113Y-104346165D01*
X156272669Y-104339930D01*
X156270878Y-104337569D01*
X156262357Y-104338642D01*
X156256771Y-104342514D01*
X156247437Y-104348706D01*
X156242142Y-104350000D01*
X156235715Y-104352354D01*
X156235000Y-104354165D01*
X156230899Y-104358427D01*
X156220187Y-104365482D01*
X156206250Y-104373232D01*
X156186678Y-104383800D01*
X156166894Y-104395145D01*
X156155996Y-104401789D01*
X156140390Y-104411168D01*
X156125859Y-104419052D01*
X156120996Y-104421370D01*
X156110448Y-104426723D01*
X156104964Y-104430728D01*
X156099668Y-104434560D01*
X156087863Y-104441749D01*
X156071876Y-104450973D01*
X156054033Y-104460908D01*
X156036663Y-104470230D01*
X156025000Y-104476195D01*
X156013104Y-104483165D01*
X156005892Y-104488691D01*
X155996482Y-104494189D01*
X155992142Y-104495000D01*
X155985724Y-104497979D01*
X155985000Y-104500295D01*
X155981936Y-104503281D01*
X155980000Y-104502500D01*
X155975366Y-104502275D01*
X155975000Y-104503630D01*
X155970900Y-104507927D01*
X155960196Y-104515004D01*
X155946423Y-104522675D01*
X155930449Y-104531348D01*
X155917583Y-104539027D01*
X155911393Y-104543422D01*
X155901431Y-104549710D01*
X155893720Y-104552846D01*
X155883869Y-104557149D01*
X155879920Y-104560325D01*
X155874423Y-104564614D01*
X155862730Y-104571759D01*
X155849920Y-104578842D01*
X155829617Y-104590101D01*
X155808141Y-104602749D01*
X155797771Y-104609190D01*
X155783381Y-104617757D01*
X155771841Y-104623498D01*
X155766878Y-104625000D01*
X155758355Y-104628245D01*
X155754018Y-104631695D01*
X155746334Y-104637552D01*
X155732835Y-104646249D01*
X155715884Y-104656432D01*
X155697848Y-104666750D01*
X155681091Y-104675851D01*
X155667979Y-104682384D01*
X155660878Y-104684996D01*
X155660758Y-104685000D01*
X155655288Y-104687557D01*
X155654982Y-104688750D01*
X155650885Y-104692810D01*
X155640196Y-104699748D01*
X155626275Y-104707500D01*
X155610312Y-104716235D01*
X155597474Y-104723962D01*
X155591263Y-104728422D01*
X155581424Y-104734702D01*
X155573720Y-104737846D01*
X155563920Y-104741863D01*
X155560000Y-104744614D01*
X155554984Y-104748152D01*
X155542872Y-104755692D01*
X155525258Y-104766293D01*
X155503737Y-104779012D01*
X155479904Y-104792906D01*
X155455354Y-104807033D01*
X155431682Y-104820451D01*
X155430994Y-104820837D01*
X155419934Y-104827155D01*
X155402418Y-104837288D01*
X155380609Y-104849980D01*
X155356671Y-104863974D01*
X155349619Y-104868109D01*
X155327011Y-104881193D01*
X155307350Y-104892236D01*
X155292290Y-104900333D01*
X155283487Y-104904580D01*
X155282071Y-104905000D01*
X155276060Y-104908774D01*
X155271202Y-104914932D01*
X155268175Y-104921791D01*
X155173804Y-104921791D01*
X155173409Y-104918633D01*
X155175269Y-104911917D01*
X155181101Y-104905327D01*
X155194275Y-104895208D01*
X155213258Y-104882643D01*
X155235773Y-104869142D01*
X155257114Y-104856871D01*
X155286110Y-104840171D01*
X155321761Y-104819618D01*
X155363067Y-104795791D01*
X155409027Y-104769266D01*
X155458641Y-104740623D01*
X155510907Y-104710439D01*
X155564827Y-104679291D01*
X155619399Y-104647757D01*
X155673623Y-104616415D01*
X155726498Y-104585844D01*
X155777025Y-104556619D01*
X155824203Y-104529321D01*
X155840000Y-104520177D01*
X155883199Y-104495174D01*
X155929864Y-104468177D01*
X155977743Y-104440486D01*
X156024584Y-104413405D01*
X156068136Y-104388234D01*
X156106148Y-104366275D01*
X156118750Y-104358999D01*
X156150184Y-104340737D01*
X156178588Y-104324018D01*
X156202863Y-104309505D01*
X156221910Y-104297865D01*
X156234627Y-104289761D01*
X156239915Y-104285859D01*
X156240000Y-104285686D01*
X156239510Y-104284824D01*
X156237713Y-104283275D01*
X156234120Y-104280752D01*
X156228240Y-104276968D01*
X156219583Y-104271637D01*
X156207658Y-104264472D01*
X156191976Y-104255187D01*
X156172045Y-104243494D01*
X156147377Y-104229108D01*
X156117479Y-104211741D01*
X156081863Y-104191107D01*
X156040038Y-104166918D01*
X155991514Y-104138890D01*
X155935800Y-104106734D01*
X155872406Y-104070164D01*
X155800842Y-104028893D01*
X155800000Y-104028408D01*
X155757892Y-104004126D01*
X155718026Y-103981135D01*
X155681321Y-103959965D01*
X155648697Y-103941147D01*
X155621076Y-103925213D01*
X155599377Y-103912693D01*
X155584522Y-103904118D01*
X155577500Y-103900059D01*
X155566755Y-103893848D01*
X155548591Y-103883367D01*
X155524254Y-103869335D01*
X155494994Y-103852470D01*
X155462057Y-103833493D01*
X155426690Y-103813121D01*
X155390142Y-103792072D01*
X155353660Y-103771067D01*
X155318491Y-103750823D01*
X155285883Y-103732059D01*
X155282500Y-103730112D01*
X155254884Y-103714108D01*
X155229809Y-103699357D01*
X155208731Y-103686732D01*
X155193103Y-103677106D01*
X155184380Y-103671353D01*
X155183507Y-103670673D01*
X155176471Y-103658360D01*
X155176171Y-103651616D01*
X155265268Y-103651616D01*
X155269581Y-103656655D01*
X155280600Y-103664117D01*
X155295268Y-103672041D01*
X155310372Y-103680016D01*
X155321074Y-103686788D01*
X155325000Y-103690791D01*
X155329036Y-103694578D01*
X155332142Y-103695000D01*
X155341012Y-103698294D01*
X155348035Y-103703750D01*
X155355717Y-103710096D01*
X155359642Y-103711589D01*
X155364911Y-103713524D01*
X155376527Y-103719355D01*
X155392268Y-103727825D01*
X155409910Y-103737680D01*
X155427230Y-103747663D01*
X155442005Y-103756519D01*
X155452011Y-103762991D01*
X155455000Y-103765448D01*
X155460764Y-103768326D01*
X155461087Y-103768272D01*
X155467195Y-103770582D01*
X155474303Y-103775743D01*
X155486268Y-103783700D01*
X155494435Y-103787320D01*
X155506017Y-103792755D01*
X155511248Y-103796577D01*
X155520301Y-103803097D01*
X155533538Y-103810466D01*
X155548248Y-103817467D01*
X155561720Y-103822880D01*
X155571244Y-103825487D01*
X155574166Y-103824865D01*
X155579901Y-103820420D01*
X155582916Y-103820000D01*
X155589296Y-103816999D01*
X155590000Y-103814704D01*
X155593063Y-103811718D01*
X155595000Y-103812500D01*
X155599633Y-103812724D01*
X155600000Y-103811369D01*
X155604099Y-103807072D01*
X155614803Y-103799995D01*
X155628576Y-103792324D01*
X155644623Y-103783588D01*
X155657627Y-103775774D01*
X155663933Y-103771250D01*
X155673004Y-103765837D01*
X155677092Y-103765000D01*
X155685184Y-103761949D01*
X155695000Y-103755000D01*
X155705345Y-103747815D01*
X155713265Y-103745000D01*
X155719409Y-103741866D01*
X155720000Y-103739704D01*
X155723063Y-103736718D01*
X155725000Y-103737500D01*
X155729609Y-103737157D01*
X155730000Y-103735390D01*
X155734245Y-103730428D01*
X155742500Y-103727053D01*
X155751849Y-103723623D01*
X155755006Y-103720707D01*
X155759118Y-103717034D01*
X155769989Y-103710238D01*
X155785434Y-103701664D01*
X155788602Y-103700000D01*
X155805773Y-103690726D01*
X155819885Y-103682511D01*
X155828163Y-103676977D01*
X155828625Y-103676577D01*
X155838569Y-103670290D01*
X155846279Y-103667153D01*
X155856086Y-103663001D01*
X155860000Y-103660045D01*
X155865571Y-103655749D01*
X155877553Y-103648266D01*
X155893531Y-103638941D01*
X155911092Y-103629117D01*
X155927822Y-103620141D01*
X155941308Y-103613356D01*
X155949137Y-103610107D01*
X155949826Y-103610000D01*
X155954827Y-103606876D01*
X155955000Y-103605802D01*
X155959026Y-103601066D01*
X155968338Y-103595230D01*
X155978786Y-103590511D01*
X155986221Y-103589121D01*
X155986250Y-103589127D01*
X155989981Y-103586462D01*
X155990000Y-103586074D01*
X155994101Y-103581945D01*
X156004816Y-103575004D01*
X156018750Y-103567324D01*
X156034213Y-103558896D01*
X156046008Y-103551630D01*
X156051173Y-103547500D01*
X156054558Y-103545348D01*
X156055000Y-103547500D01*
X156056962Y-103549373D01*
X156058826Y-103547249D01*
X156064424Y-103542271D01*
X156074955Y-103534884D01*
X156087845Y-103526661D01*
X156100522Y-103519177D01*
X156110411Y-103514004D01*
X156114939Y-103512717D01*
X156115000Y-103512903D01*
X156117899Y-103512180D01*
X156122857Y-103507857D01*
X156132236Y-103501471D01*
X156137857Y-103500000D01*
X156144291Y-103497877D01*
X156145006Y-103496250D01*
X156149124Y-103492313D01*
X156160008Y-103485317D01*
X156175471Y-103476647D01*
X156178602Y-103475000D01*
X156195773Y-103465726D01*
X156209885Y-103457511D01*
X156218163Y-103451977D01*
X156218625Y-103451577D01*
X156228610Y-103445227D01*
X156236046Y-103442167D01*
X156248061Y-103436327D01*
X156253873Y-103431840D01*
X156263152Y-103425999D01*
X156267857Y-103425000D01*
X156274291Y-103422877D01*
X156275006Y-103421250D01*
X156279124Y-103417313D01*
X156290008Y-103410317D01*
X156305471Y-103401647D01*
X156308602Y-103400000D01*
X156325773Y-103390726D01*
X156339885Y-103382511D01*
X156348163Y-103376977D01*
X156348625Y-103376577D01*
X156358569Y-103370290D01*
X156366279Y-103367153D01*
X156376084Y-103363049D01*
X156380000Y-103360164D01*
X156385287Y-103355940D01*
X156396039Y-103349024D01*
X156409755Y-103340844D01*
X156423932Y-103332833D01*
X156436069Y-103326418D01*
X156443662Y-103323031D01*
X156445000Y-103323014D01*
X156447903Y-103322202D01*
X156452857Y-103317857D01*
X156462236Y-103311471D01*
X156467857Y-103310000D01*
X156474281Y-103307362D01*
X156475000Y-103305323D01*
X156479227Y-103300755D01*
X156489676Y-103295401D01*
X156492500Y-103294319D01*
X156503857Y-103289331D01*
X156509763Y-103285017D01*
X156510000Y-103284332D01*
X156514112Y-103280088D01*
X156520127Y-103277459D01*
X156530612Y-103272736D01*
X156544470Y-103264851D01*
X156548877Y-103262052D01*
X156560699Y-103254963D01*
X156568798Y-103251303D01*
X156570357Y-103251180D01*
X156575615Y-103249098D01*
X156581964Y-103243749D01*
X156591482Y-103236921D01*
X156597857Y-103234999D01*
X156604284Y-103232628D01*
X156605000Y-103230802D01*
X156609026Y-103226066D01*
X156618338Y-103220230D01*
X156628786Y-103215511D01*
X156636221Y-103214121D01*
X156636250Y-103214127D01*
X156639960Y-103211403D01*
X156640000Y-103210802D01*
X156644053Y-103206133D01*
X156653443Y-103200517D01*
X156664008Y-103196146D01*
X156669977Y-103195000D01*
X156676375Y-103198112D01*
X156686028Y-103205716D01*
X156687242Y-103206823D01*
X156700000Y-103218646D01*
X156700000Y-103615990D01*
X156700035Y-103678135D01*
X156700138Y-103737369D01*
X156700302Y-103792933D01*
X156700522Y-103844070D01*
X156700794Y-103890021D01*
X156701111Y-103930027D01*
X156701467Y-103963332D01*
X156701858Y-103989176D01*
X156702278Y-104006801D01*
X156702722Y-104015449D01*
X156702881Y-104016215D01*
X156708725Y-104015932D01*
X156719503Y-104011623D01*
X156731894Y-104004905D01*
X156742576Y-103997394D01*
X156743871Y-103996257D01*
X156754079Y-103990099D01*
X156762849Y-103986965D01*
X156772037Y-103983321D01*
X156775000Y-103980064D01*
X156779149Y-103975822D01*
X156789330Y-103970443D01*
X156791250Y-103969640D01*
X156802841Y-103964390D01*
X156809679Y-103960252D01*
X156810000Y-103959914D01*
X156815365Y-103956191D01*
X156827190Y-103949305D01*
X156843040Y-103940666D01*
X156845000Y-103939630D01*
X156861144Y-103930955D01*
X156873549Y-103923980D01*
X156879785Y-103920077D01*
X156880000Y-103919884D01*
X156886683Y-103914577D01*
X156896194Y-103908585D01*
X156905069Y-103903887D01*
X156909842Y-103902463D01*
X156910000Y-103902741D01*
X156912865Y-103902234D01*
X156917289Y-103898424D01*
X156924855Y-103892790D01*
X156938744Y-103884055D01*
X156956430Y-103873780D01*
X156963539Y-103869841D01*
X156981430Y-103859686D01*
X156995908Y-103850766D01*
X157004720Y-103844500D01*
X157006173Y-103843024D01*
X157006835Y-103837143D01*
X157007433Y-103822087D01*
X157007968Y-103798601D01*
X157008442Y-103767431D01*
X157008854Y-103729323D01*
X157009207Y-103685023D01*
X157009500Y-103635277D01*
X157009736Y-103580831D01*
X157009914Y-103522430D01*
X157010036Y-103460822D01*
X157010103Y-103396751D01*
X157010116Y-103330963D01*
X157010075Y-103264206D01*
X157009982Y-103197224D01*
X157009838Y-103130763D01*
X157009643Y-103065569D01*
X157009398Y-103002390D01*
X157009105Y-102941969D01*
X157008765Y-102885054D01*
X157008378Y-102832389D01*
X157007945Y-102784722D01*
X157007467Y-102742798D01*
X157006945Y-102707363D01*
X157006381Y-102679163D01*
X157005775Y-102658944D01*
X157005127Y-102647452D01*
X157004646Y-102645000D01*
X156997438Y-102647315D01*
X156984454Y-102653275D01*
X156968505Y-102661397D01*
X156952400Y-102670200D01*
X156938950Y-102678201D01*
X156931148Y-102683750D01*
X156921588Y-102689173D01*
X156917142Y-102690000D01*
X156910724Y-102692979D01*
X156910000Y-102695295D01*
X156906936Y-102698281D01*
X156905000Y-102697499D01*
X156900384Y-102697704D01*
X156900000Y-102699367D01*
X156895830Y-102704515D01*
X156888750Y-102707836D01*
X156878941Y-102711786D01*
X156875000Y-102714439D01*
X156868212Y-102719936D01*
X156855872Y-102727856D01*
X156841002Y-102736490D01*
X156826625Y-102744127D01*
X156815766Y-102749055D01*
X156812167Y-102750000D01*
X156805722Y-102752213D01*
X156805000Y-102753925D01*
X156800898Y-102758054D01*
X156790183Y-102764995D01*
X156776250Y-102772675D01*
X156761058Y-102780716D01*
X156749735Y-102787096D01*
X156745000Y-102790227D01*
X156739560Y-102794059D01*
X156727702Y-102801343D01*
X156711298Y-102811018D01*
X156692217Y-102822024D01*
X156672331Y-102833299D01*
X156653511Y-102843784D01*
X156637627Y-102852418D01*
X156626551Y-102858141D01*
X156622153Y-102859892D01*
X156622142Y-102859867D01*
X156618912Y-102861058D01*
X156613035Y-102866250D01*
X156603517Y-102873078D01*
X156597142Y-102875000D01*
X156590718Y-102877637D01*
X156590000Y-102879676D01*
X156585772Y-102884244D01*
X156575323Y-102889598D01*
X156572500Y-102890680D01*
X156561141Y-102895672D01*
X156555236Y-102899993D01*
X156555000Y-102900680D01*
X156550786Y-102904587D01*
X156540367Y-102909594D01*
X156537500Y-102910680D01*
X156526141Y-102915672D01*
X156520236Y-102919993D01*
X156520000Y-102920680D01*
X156515786Y-102924587D01*
X156505367Y-102929594D01*
X156502500Y-102930680D01*
X156491153Y-102935497D01*
X156485241Y-102939400D01*
X156485000Y-102939980D01*
X156480871Y-102943492D01*
X156469948Y-102950078D01*
X156454427Y-102958430D01*
X156451250Y-102960053D01*
X156434713Y-102968666D01*
X156421936Y-102975759D01*
X156415326Y-102979986D01*
X156415000Y-102980310D01*
X156409934Y-102983864D01*
X156397904Y-102991293D01*
X156380649Y-103001549D01*
X156359910Y-103013583D01*
X156357500Y-103014965D01*
X156329839Y-103030874D01*
X156297982Y-103049300D01*
X156266350Y-103067683D01*
X156245000Y-103080155D01*
X156222648Y-103093018D01*
X156202540Y-103104165D01*
X156186680Y-103112512D01*
X156177074Y-103116977D01*
X156176250Y-103117259D01*
X156167525Y-103121514D01*
X156165000Y-103125013D01*
X156160777Y-103129359D01*
X156150338Y-103134597D01*
X156147500Y-103135680D01*
X156136154Y-103140484D01*
X156130242Y-103144357D01*
X156130000Y-103144929D01*
X156125916Y-103148548D01*
X156115248Y-103155136D01*
X156101423Y-103162675D01*
X156085377Y-103171409D01*
X156072377Y-103179221D01*
X156066073Y-103183742D01*
X156055916Y-103189897D01*
X156047150Y-103193034D01*
X156037962Y-103196678D01*
X156035000Y-103199935D01*
X156030850Y-103204177D01*
X156020669Y-103209556D01*
X156018750Y-103210359D01*
X156007155Y-103215635D01*
X156000319Y-103219834D01*
X156000000Y-103220180D01*
X155994652Y-103224065D01*
X155982222Y-103231810D01*
X155964309Y-103242502D01*
X155942514Y-103255232D01*
X155918435Y-103269089D01*
X155893674Y-103283162D01*
X155869831Y-103296542D01*
X155848506Y-103308316D01*
X155831298Y-103317576D01*
X155819809Y-103323410D01*
X155815791Y-103325000D01*
X155810315Y-103328114D01*
X155810000Y-103329612D01*
X155805744Y-103334047D01*
X155795260Y-103339042D01*
X155792822Y-103339893D01*
X155781062Y-103344650D01*
X155774420Y-103348995D01*
X155774072Y-103349560D01*
X155769266Y-103353571D01*
X155757614Y-103361163D01*
X155741092Y-103371208D01*
X155721677Y-103382578D01*
X155701345Y-103394143D01*
X155682071Y-103404777D01*
X155665832Y-103413349D01*
X155654604Y-103418732D01*
X155650726Y-103420000D01*
X155645301Y-103423337D01*
X155645000Y-103424904D01*
X155640757Y-103429643D01*
X155632500Y-103432946D01*
X155623146Y-103436597D01*
X155620000Y-103439935D01*
X155615850Y-103444177D01*
X155605669Y-103449556D01*
X155603750Y-103450359D01*
X155592135Y-103455737D01*
X155585280Y-103460171D01*
X155584964Y-103460546D01*
X155579580Y-103464602D01*
X155567868Y-103471801D01*
X155552334Y-103480605D01*
X155551922Y-103480830D01*
X155530222Y-103492893D01*
X155506512Y-103506379D01*
X155491958Y-103514832D01*
X155477273Y-103523133D01*
X155466602Y-103528522D01*
X155462161Y-103529885D01*
X155462142Y-103529832D01*
X155458911Y-103531050D01*
X155453035Y-103536250D01*
X155443517Y-103543078D01*
X155437142Y-103545000D01*
X155430718Y-103547637D01*
X155429999Y-103549676D01*
X155425772Y-103554244D01*
X155415323Y-103559598D01*
X155412499Y-103560680D01*
X155401141Y-103565672D01*
X155395236Y-103569993D01*
X155394999Y-103570680D01*
X155390786Y-103574587D01*
X155380367Y-103579594D01*
X155377499Y-103580680D01*
X155366131Y-103585826D01*
X155360232Y-103590519D01*
X155360000Y-103591299D01*
X155356877Y-103593344D01*
X155355000Y-103592500D01*
X155350384Y-103592704D01*
X155350000Y-103594367D01*
X155345830Y-103599515D01*
X155338750Y-103602836D01*
X155328934Y-103606910D01*
X155325000Y-103609754D01*
X155319648Y-103613803D01*
X155308098Y-103621064D01*
X155293750Y-103629447D01*
X155279138Y-103638572D01*
X155268880Y-103646601D01*
X155265268Y-103651616D01*
X155176171Y-103651616D01*
X155176007Y-103647944D01*
X155177227Y-103641935D01*
X155180363Y-103636176D01*
X155186537Y-103629835D01*
X155196870Y-103622079D01*
X155212482Y-103612076D01*
X155234496Y-103598994D01*
X155264031Y-103582001D01*
X155267500Y-103580021D01*
X155287388Y-103568637D01*
X155314371Y-103553135D01*
X155346893Y-103534413D01*
X155383399Y-103513368D01*
X155422332Y-103490899D01*
X155462137Y-103467903D01*
X155501257Y-103445278D01*
X155538136Y-103423923D01*
X155560000Y-103411246D01*
X155592124Y-103392611D01*
X155622714Y-103374878D01*
X155652974Y-103357347D01*
X155684109Y-103339323D01*
X155717324Y-103320109D01*
X155753824Y-103299008D01*
X155794814Y-103275321D01*
X155841500Y-103248354D01*
X155895085Y-103217408D01*
X155922500Y-103201578D01*
X155945385Y-103188362D01*
X155975706Y-103170851D01*
X156012237Y-103149751D01*
X156053756Y-103125771D01*
X156099037Y-103099616D01*
X156146856Y-103071994D01*
X156195991Y-103043611D01*
X156245215Y-103015176D01*
X156262500Y-103005191D01*
X156310927Y-102977217D01*
X156359269Y-102949293D01*
X156406367Y-102922089D01*
X156451065Y-102896272D01*
X156492205Y-102872513D01*
X156528630Y-102851478D01*
X156559182Y-102833837D01*
X156582704Y-102820257D01*
X156590000Y-102816046D01*
X156623187Y-102796882D01*
X156660272Y-102775449D01*
X156697697Y-102753805D01*
X156731903Y-102734008D01*
X156747500Y-102724974D01*
X156779878Y-102706219D01*
X156816950Y-102684758D01*
X156854748Y-102662886D01*
X156889306Y-102642899D01*
X156898750Y-102637440D01*
X156923404Y-102623018D01*
X156944737Y-102610212D01*
X156961361Y-102599884D01*
X156971885Y-102592894D01*
X156975000Y-102590200D01*
X156970840Y-102587010D01*
X156959161Y-102579612D01*
X156941162Y-102568696D01*
X156918040Y-102554952D01*
X156890997Y-102539070D01*
X156861229Y-102521740D01*
X156829937Y-102503651D01*
X156798319Y-102485494D01*
X156767573Y-102467959D01*
X156738900Y-102451735D01*
X156713498Y-102437512D01*
X156692566Y-102425981D01*
X156677303Y-102417831D01*
X156668907Y-102413752D01*
X156667774Y-102413412D01*
X156662045Y-102415852D01*
X156649064Y-102422622D01*
X156630193Y-102432971D01*
X156606794Y-102446150D01*
X156580228Y-102461408D01*
X156572500Y-102465896D01*
X156541663Y-102483829D01*
X156504764Y-102505248D01*
X156464405Y-102528647D01*
X156423187Y-102552518D01*
X156383711Y-102575353D01*
X156365000Y-102586166D01*
X156333648Y-102604279D01*
X156295434Y-102626365D01*
X156252152Y-102651387D01*
X156205593Y-102678308D01*
X156157551Y-102706093D01*
X156109818Y-102733703D01*
X156064188Y-102760103D01*
X156060000Y-102762527D01*
X156019743Y-102785813D01*
X155981520Y-102807909D01*
X155946340Y-102828232D01*
X155915214Y-102846198D01*
X155889150Y-102861226D01*
X155869158Y-102872733D01*
X155856248Y-102880136D01*
X155852500Y-102882265D01*
X155843660Y-102887307D01*
X155827275Y-102896727D01*
X155804451Y-102909884D01*
X155776295Y-102926141D01*
X155743912Y-102944858D01*
X155708409Y-102965397D01*
X155670892Y-102987120D01*
X155670000Y-102987637D01*
X155631102Y-103010162D01*
X155593028Y-103032197D01*
X155557104Y-103052976D01*
X155524657Y-103071731D01*
X155497015Y-103087696D01*
X155475505Y-103100102D01*
X155462500Y-103107583D01*
X155437500Y-103121949D01*
X155405339Y-103140465D01*
X155367510Y-103162270D01*
X155325503Y-103186503D01*
X155280811Y-103212301D01*
X155234927Y-103238804D01*
X155189341Y-103265149D01*
X155145547Y-103290476D01*
X155105036Y-103313922D01*
X155069300Y-103334625D01*
X155060000Y-103340018D01*
X155028194Y-103358461D01*
X154995972Y-103377134D01*
X154965488Y-103394790D01*
X154938893Y-103410183D01*
X154918343Y-103422065D01*
X154915000Y-103423996D01*
X154894509Y-103435826D01*
X154867931Y-103451169D01*
X154837267Y-103468869D01*
X154804522Y-103487771D01*
X154771695Y-103506719D01*
X154740791Y-103524557D01*
X154713812Y-103540129D01*
X154692759Y-103552279D01*
X154686942Y-103555636D01*
X154674787Y-103562628D01*
X154656334Y-103573217D01*
X154633965Y-103586037D01*
X154610064Y-103599721D01*
X154606942Y-103601507D01*
X154579560Y-103616865D01*
X154558689Y-103628684D01*
X154544539Y-103638049D01*
X154537320Y-103646044D01*
X154537241Y-103653754D01*
X154544511Y-103662262D01*
X154559340Y-103672652D01*
X154581939Y-103686009D01*
X154612515Y-103703418D01*
X154628408Y-103712557D01*
X154658953Y-103730239D01*
X154687921Y-103746995D01*
X154713756Y-103761925D01*
X154734899Y-103774129D01*
X154749793Y-103782707D01*
X154754706Y-103785524D01*
X154763859Y-103790779D01*
X154780826Y-103800545D01*
X154804763Y-103814336D01*
X154834824Y-103831663D01*
X154870163Y-103852038D01*
X154909935Y-103874975D01*
X154953294Y-103899984D01*
X154999394Y-103926578D01*
X155047391Y-103954270D01*
X155096438Y-103982571D01*
X155145690Y-104010994D01*
X155194301Y-104039051D01*
X155241426Y-104066255D01*
X155286219Y-104092117D01*
X155327836Y-104116149D01*
X155332500Y-104118843D01*
X155368440Y-104139590D01*
X155405040Y-104160700D01*
X155440398Y-104181074D01*
X155472610Y-104199619D01*
X155499773Y-104215237D01*
X155518277Y-104225854D01*
X155546816Y-104242482D01*
X155567552Y-104255420D01*
X155581547Y-104265604D01*
X155589863Y-104273969D01*
X155593563Y-104281452D01*
X155593710Y-104288989D01*
X155593124Y-104291790D01*
X155591671Y-104295394D01*
X155588597Y-104299469D01*
X155583178Y-104304473D01*
X155574691Y-104310861D01*
X155562414Y-104319087D01*
X155545623Y-104329609D01*
X155523595Y-104342881D01*
X155495607Y-104359359D01*
X155460935Y-104379499D01*
X155418858Y-104403755D01*
X155380000Y-104426075D01*
X155348821Y-104444001D01*
X155312074Y-104465184D01*
X155272831Y-104487852D01*
X155234164Y-104510228D01*
X155200000Y-104530043D01*
X155166296Y-104549591D01*
X155126769Y-104572474D01*
X155084268Y-104597044D01*
X155041641Y-104621656D01*
X155001737Y-104644662D01*
X154987500Y-104652861D01*
X154906227Y-104699672D01*
X154833456Y-104741660D01*
X154768989Y-104778939D01*
X154712631Y-104811624D01*
X154664188Y-104839829D01*
X154623462Y-104863670D01*
X154590260Y-104883260D01*
X154564384Y-104898714D01*
X154545641Y-104910147D01*
X154533833Y-104917672D01*
X154528766Y-104921406D01*
X154528534Y-104921742D01*
X154437828Y-104921742D01*
X154438637Y-104909351D01*
X154439231Y-104906072D01*
X154446092Y-104899595D01*
X154457800Y-104891841D01*
X154460404Y-104890383D01*
X154490525Y-104874002D01*
X154513019Y-104861602D01*
X154529100Y-104852489D01*
X154539980Y-104845970D01*
X154546871Y-104841348D01*
X154549206Y-104839528D01*
X154559328Y-104832623D01*
X154573076Y-104824921D01*
X154575067Y-104823924D01*
X154595624Y-104813245D01*
X154617673Y-104800893D01*
X154638194Y-104788638D01*
X154654165Y-104778254D01*
X154659135Y-104774606D01*
X154668877Y-104767832D01*
X154675196Y-104765000D01*
X154675209Y-104765000D01*
X154680791Y-104762584D01*
X154693091Y-104756013D01*
X154710267Y-104746305D01*
X154729593Y-104735000D01*
X154749530Y-104723266D01*
X154766151Y-104713684D01*
X154777684Y-104707260D01*
X154782331Y-104705000D01*
X154787187Y-104702557D01*
X154798951Y-104695861D01*
X154815992Y-104685862D01*
X154836677Y-104673509D01*
X154842500Y-104669999D01*
X154863928Y-104657176D01*
X154882205Y-104646463D01*
X154895677Y-104638810D01*
X154902694Y-104635171D01*
X154903256Y-104635000D01*
X154908365Y-104632561D01*
X154920291Y-104625904D01*
X154937313Y-104616015D01*
X154957710Y-104603878D01*
X154960000Y-104602500D01*
X154980940Y-104590135D01*
X154999011Y-104579934D01*
X155012386Y-104572897D01*
X155019238Y-104570020D01*
X155019470Y-104570000D01*
X155024744Y-104566498D01*
X155025000Y-104565000D01*
X155028862Y-104560217D01*
X155030450Y-104559999D01*
X155036517Y-104557604D01*
X155048761Y-104551213D01*
X155065170Y-104542022D01*
X155083732Y-104531226D01*
X155102435Y-104520020D01*
X155119269Y-104509600D01*
X155132220Y-104501159D01*
X155139277Y-104495894D01*
X155140000Y-104494926D01*
X155135986Y-104491236D01*
X155125917Y-104485148D01*
X155121250Y-104482675D01*
X155109503Y-104476311D01*
X155091671Y-104466230D01*
X155070243Y-104453854D01*
X155049279Y-104441538D01*
X155028751Y-104429489D01*
X155011469Y-104419564D01*
X154999170Y-104412744D01*
X154993589Y-104410012D01*
X154993494Y-104410000D01*
X154988439Y-104407594D01*
X154976597Y-104401049D01*
X154959755Y-104391374D01*
X154940406Y-104380000D01*
X154920165Y-104368218D01*
X154902900Y-104358611D01*
X154890499Y-104352200D01*
X154884941Y-104350000D01*
X154880143Y-104346193D01*
X154880000Y-104345000D01*
X154876423Y-104340143D01*
X154875310Y-104340000D01*
X154869503Y-104337556D01*
X154856882Y-104330864D01*
X154839174Y-104320878D01*
X154818104Y-104308553D01*
X154812810Y-104305396D01*
X154791701Y-104292930D01*
X154774045Y-104282827D01*
X154761398Y-104275952D01*
X154755315Y-104273170D01*
X154755000Y-104273236D01*
X154751440Y-104272215D01*
X154742539Y-104266705D01*
X154738789Y-104264090D01*
X154721003Y-104252419D01*
X154699466Y-104239758D01*
X154678010Y-104228250D01*
X154660464Y-104220035D01*
X154658750Y-104219351D01*
X154648946Y-104214371D01*
X154645000Y-104210094D01*
X154640943Y-104205421D01*
X154636250Y-104203228D01*
X154624236Y-104197912D01*
X154620000Y-104195469D01*
X154604853Y-104186031D01*
X154586119Y-104174791D01*
X154565730Y-104162852D01*
X154545619Y-104151320D01*
X154527718Y-104141299D01*
X154513962Y-104133896D01*
X154506283Y-104130213D01*
X154505466Y-104129999D01*
X154498084Y-104126926D01*
X154494015Y-104123750D01*
X154485316Y-104117313D01*
X154472482Y-104109478D01*
X154469908Y-104108054D01*
X154461760Y-104103741D01*
X154454996Y-104099830D01*
X154449487Y-104095404D01*
X154445105Y-104089550D01*
X154441719Y-104081351D01*
X154439202Y-104069892D01*
X154437425Y-104054256D01*
X154436258Y-104033530D01*
X154435572Y-104006797D01*
X154435240Y-103973141D01*
X154435131Y-103931647D01*
X154435117Y-103881400D01*
X154435111Y-103860921D01*
X154435202Y-103802916D01*
X154435535Y-103752863D01*
X154436101Y-103711119D01*
X154436893Y-103678043D01*
X154437902Y-103653990D01*
X154439121Y-103639320D01*
X154440126Y-103634763D01*
X154447189Y-103627595D01*
X154460357Y-103618654D01*
X154473876Y-103611342D01*
X154488983Y-103603605D01*
X154499967Y-103597170D01*
X154504166Y-103593750D01*
X154509922Y-103590319D01*
X154512916Y-103590000D01*
X154519301Y-103587378D01*
X154520000Y-103585387D01*
X154524249Y-103580918D01*
X154534678Y-103575964D01*
X154536684Y-103575269D01*
X154551267Y-103568880D01*
X154563051Y-103561197D01*
X154563126Y-103561131D01*
X154573171Y-103553961D01*
X154588138Y-103545109D01*
X154597691Y-103540073D01*
X154612811Y-103531973D01*
X154624769Y-103524633D01*
X154629107Y-103521323D01*
X154637374Y-103515870D01*
X154640900Y-103514999D01*
X154646841Y-103512538D01*
X154659625Y-103505775D01*
X154677575Y-103495642D01*
X154699014Y-103483073D01*
X154707426Y-103478032D01*
X154730309Y-103464447D01*
X154750886Y-103452610D01*
X154767287Y-103443571D01*
X154777640Y-103438378D01*
X154779383Y-103437695D01*
X154787776Y-103433442D01*
X154790000Y-103430246D01*
X154794059Y-103425443D01*
X154798750Y-103423228D01*
X154810765Y-103417884D01*
X154815000Y-103415420D01*
X154830128Y-103405972D01*
X154848090Y-103395307D01*
X154866690Y-103384656D01*
X154883734Y-103375249D01*
X154897026Y-103368317D01*
X154904371Y-103365092D01*
X154904914Y-103364999D01*
X154909841Y-103361491D01*
X154910000Y-103360336D01*
X154914157Y-103355385D01*
X154921093Y-103352152D01*
X154928892Y-103348571D01*
X154943148Y-103341079D01*
X154961727Y-103330885D01*
X154982493Y-103319193D01*
X155003312Y-103307211D01*
X155022047Y-103296145D01*
X155036566Y-103287200D01*
X155040000Y-103284965D01*
X155050648Y-103278957D01*
X155058808Y-103275089D01*
X155068578Y-103269967D01*
X155083497Y-103261155D01*
X155100403Y-103250522D01*
X155101052Y-103250101D01*
X155117006Y-103240277D01*
X155130228Y-103233116D01*
X155138089Y-103230030D01*
X155138494Y-103229999D01*
X155144489Y-103227459D01*
X155145000Y-103225854D01*
X155149151Y-103221629D01*
X155159851Y-103215112D01*
X155169999Y-103210000D01*
X155183754Y-103202869D01*
X155192834Y-103196842D01*
X155195000Y-103194145D01*
X155198869Y-103190158D01*
X155200327Y-103190000D01*
X155206707Y-103187591D01*
X155219461Y-103181122D01*
X155236418Y-103171728D01*
X155246926Y-103165623D01*
X155266129Y-103154584D01*
X155283164Y-103145335D01*
X155295485Y-103139235D01*
X155299098Y-103137786D01*
X155307643Y-103133297D01*
X155310000Y-103129663D01*
X155313777Y-103125096D01*
X155314732Y-103124999D01*
X155321679Y-103122509D01*
X155334412Y-103116040D01*
X155350351Y-103107095D01*
X155366920Y-103097176D01*
X155381539Y-103087786D01*
X155391630Y-103080428D01*
X155392500Y-103079677D01*
X155405282Y-103071515D01*
X155416250Y-103067328D01*
X155426179Y-103063586D01*
X155430000Y-103059794D01*
X155434140Y-103055242D01*
X155440797Y-103052247D01*
X155449597Y-103048253D01*
X155464451Y-103040312D01*
X155482921Y-103029757D01*
X155494547Y-103022832D01*
X155516070Y-103010077D01*
X155537415Y-102997877D01*
X155555199Y-102988150D01*
X155561250Y-102985036D01*
X155574543Y-102977775D01*
X155583162Y-102971817D01*
X155585000Y-102969450D01*
X155589148Y-102965220D01*
X155596250Y-102962131D01*
X155605233Y-102958077D01*
X155620243Y-102950056D01*
X155638830Y-102939409D01*
X155650700Y-102932305D01*
X155670161Y-102920761D01*
X155687413Y-102911061D01*
X155700050Y-102904530D01*
X155704450Y-102902674D01*
X155712817Y-102898187D01*
X155715000Y-102894663D01*
X155718793Y-102890111D01*
X155719846Y-102889999D01*
X155725987Y-102887594D01*
X155738571Y-102881123D01*
X155755492Y-102871702D01*
X155767019Y-102864999D01*
X155785610Y-102854322D01*
X155801219Y-102845918D01*
X155811709Y-102840909D01*
X155814672Y-102839999D01*
X155819789Y-102836388D01*
X155820000Y-102835000D01*
X155823872Y-102830230D01*
X155825529Y-102829999D01*
X155831712Y-102827542D01*
X155844580Y-102820834D01*
X155862307Y-102810875D01*
X155883067Y-102798662D01*
X155885000Y-102797499D01*
X155905940Y-102785135D01*
X155924011Y-102774934D01*
X155937386Y-102767897D01*
X155944238Y-102765020D01*
X155944470Y-102764999D01*
X155949744Y-102761498D01*
X155950000Y-102760000D01*
X155953885Y-102755250D01*
X155955649Y-102754999D01*
X155961689Y-102752519D01*
X155974617Y-102745680D01*
X155992817Y-102735386D01*
X156014673Y-102722541D01*
X156027199Y-102714999D01*
X156050366Y-102701162D01*
X156070763Y-102689399D01*
X156086768Y-102680615D01*
X156096754Y-102675713D01*
X156099049Y-102675000D01*
X156104643Y-102671923D01*
X156105000Y-102670336D01*
X156109161Y-102665405D01*
X156116250Y-102662112D01*
X156127259Y-102657210D01*
X156145171Y-102647522D01*
X156168588Y-102633838D01*
X156196113Y-102616951D01*
X156197500Y-102616083D01*
X156209999Y-102608877D01*
X156220000Y-102603655D01*
X156229336Y-102598631D01*
X156244902Y-102589810D01*
X156264352Y-102578537D01*
X156280972Y-102568750D01*
X156300838Y-102557230D01*
X156317759Y-102547910D01*
X156329779Y-102541833D01*
X156334722Y-102540000D01*
X156339800Y-102536360D01*
X156340000Y-102535000D01*
X156344049Y-102530564D01*
X156347500Y-102530000D01*
X156354160Y-102527812D01*
X156355000Y-102525962D01*
X156359148Y-102521677D01*
X156369593Y-102515636D01*
X156375008Y-102513096D01*
X156388942Y-102506268D01*
X156399439Y-102499935D01*
X156401386Y-102498384D01*
X156409290Y-102492926D01*
X156422696Y-102485269D01*
X156432628Y-102480122D01*
X156446817Y-102472680D01*
X156456974Y-102466647D01*
X156460101Y-102464185D01*
X156466275Y-102459738D01*
X156475101Y-102455407D01*
X156486313Y-102449884D01*
X156501831Y-102441286D01*
X156512500Y-102434978D01*
X156529937Y-102424732D01*
X156547056Y-102415245D01*
X156555000Y-102411134D01*
X156566632Y-102404706D01*
X156573571Y-102399575D01*
X156574166Y-102398750D01*
X156579922Y-102395319D01*
X156582916Y-102395000D01*
X156589301Y-102392378D01*
X156590000Y-102390387D01*
X156594259Y-102385974D01*
X156604778Y-102380954D01*
X156607500Y-102379999D01*
X156618912Y-102375110D01*
X156624787Y-102370399D01*
X156625000Y-102369612D01*
X156628861Y-102365183D01*
X156630357Y-102364999D01*
X156637964Y-102361783D01*
X156643214Y-102357499D01*
X156656673Y-102350853D01*
X156675161Y-102352009D01*
G37*
D15*
X157350000Y-89100000D02*
X155050000Y-89100000D01*
X163650000Y-89100000D02*
X161450000Y-89100000D01*
X163650000Y-93700000D02*
X155050000Y-93700000D01*
%LPC*%
D17*
X135810000Y-90230000D03*
D18*
X136645000Y-90230000D03*
D17*
X135810000Y-92770000D03*
D18*
X136645000Y-92770000D03*
D17*
X135810000Y-95310000D03*
D18*
X136645000Y-95310000D03*
D17*
X135810000Y-97850000D03*
D18*
X136645000Y-97850000D03*
D17*
X135810000Y-100390000D03*
D18*
X136645000Y-100390000D03*
D17*
X135810000Y-102930000D03*
D18*
X136645000Y-102930000D03*
X151885000Y-105470000D03*
D19*
X152720000Y-105470000D03*
D18*
X151885000Y-102930000D03*
D19*
X152720000Y-102930000D03*
D18*
X151885000Y-100390000D03*
D19*
X152720000Y-100390000D03*
D18*
X151885000Y-97850000D03*
D19*
X152720000Y-97850000D03*
D18*
X151885000Y-95310000D03*
D19*
X152720000Y-95310000D03*
D18*
X151885000Y-92770000D03*
D19*
X152720000Y-92770000D03*
D20*
X142310000Y-103350000D03*
X145310000Y-103350000D03*
D21*
X142551528Y-96828213D03*
D22*
X161480000Y-107100000D03*
D23*
X159480000Y-107100000D03*
D24*
X161350000Y-91400000D03*
D25*
X159350000Y-91400000D03*
X157350000Y-91400000D03*
D26*
X163450000Y-91400000D03*
X155250000Y-91400000D03*
D18*
X158500000Y-109750000D03*
X155960000Y-109750000D03*
X153420000Y-109750000D03*
X150880000Y-109750000D03*
X148340000Y-109750000D03*
X145800000Y-109750000D03*
X143260000Y-109750000D03*
X140720000Y-109750000D03*
X138180000Y-109750000D03*
X135640000Y-109750000D03*
D27*
X157070000Y-98765000D03*
%LPD*%
M02*
