%TF.GenerationSoftware,KiCad,Pcbnew,9.0.0*%
%TF.CreationDate,2025-09-23T11:37:28-05:00*%
%TF.ProjectId,eidon-tracker,6569646f-6e2d-4747-9261-636b65722e6b,rev?*%
%TF.SameCoordinates,Original*%
%TF.FileFunction,Drillmap*%
%TF.FilePolarity,Positive*%
%FSLAX45Y45*%
G04 Gerber Fmt 4.5, Leading zero omitted, Abs format (unit mm)*
G04 Created by KiCad (PCBNEW 9.0.0) date 2025-09-23 11:37:28*
%MOMM*%
%LPD*%
G01*
G04 APERTURE LIST*
%ADD10C,0.200000*%
%ADD11C,0.100000*%
%ADD12C,0.150000*%
%ADD13C,0.300000*%
G04 APERTURE END LIST*
D10*
X13400000Y-8925000D02*
G75*
G02*
X13600000Y-8725000I200000J0D01*
G01*
X16350000Y-9925000D02*
X16350000Y-10950000D01*
X13400000Y-8925000D02*
X13400000Y-11150000D01*
X16350000Y-8725000D02*
X16350000Y-9525000D01*
X16150000Y-9725000D02*
G75*
G02*
X16350000Y-9525000I200000J0D01*
G01*
X16350000Y-9925000D02*
G75*
G02*
X16150000Y-9725000I0J200000D01*
G01*
X16350000Y-10950000D02*
G75*
G02*
X16150000Y-11150000I-200000J0D01*
G01*
X13400000Y-11150000D02*
X16150000Y-11150000D01*
X13600000Y-8725000D02*
X16350000Y-8725000D01*
D11*
X13535000Y-8810000D02*
X13565000Y-8840000D01*
X13565000Y-8810000D02*
X13535000Y-8840000D01*
X13822295Y-10780934D02*
X13852295Y-10810934D01*
X13852295Y-10780934D02*
X13822295Y-10810934D01*
X13885000Y-9535000D02*
X13915000Y-9565000D01*
X13915000Y-9535000D02*
X13885000Y-9565000D01*
X14060000Y-9010000D02*
X14090000Y-9040000D01*
X14090000Y-9010000D02*
X14060000Y-9040000D01*
X14060000Y-9960000D02*
X14090000Y-9990000D01*
X14090000Y-9960000D02*
X14060000Y-9990000D01*
X14385000Y-9010000D02*
X14415000Y-9040000D01*
X14415000Y-9010000D02*
X14385000Y-9040000D01*
X14435000Y-10710000D02*
X14465000Y-10740000D01*
X14465000Y-10710000D02*
X14435000Y-10740000D01*
X14810000Y-9960000D02*
X14840000Y-9990000D01*
X14840000Y-9960000D02*
X14810000Y-9990000D01*
X15460000Y-10710000D02*
X15490000Y-10740000D01*
X15490000Y-10710000D02*
X15460000Y-10740000D01*
X15560000Y-10185000D02*
X15590000Y-10215000D01*
X15590000Y-10185000D02*
X15560000Y-10215000D01*
X15710000Y-9385000D02*
X15740000Y-9415000D01*
X15740000Y-9385000D02*
X15710000Y-9415000D01*
X15785000Y-10435000D02*
X15815000Y-10465000D01*
X15815000Y-10435000D02*
X15785000Y-10465000D01*
X15954908Y-8833007D02*
X15984908Y-8863007D01*
X15984908Y-8833007D02*
X15954908Y-8863007D01*
X16135000Y-10985000D02*
X16165000Y-11015000D01*
X16165000Y-10985000D02*
X16135000Y-11015000D01*
X16160000Y-9385000D02*
X16190000Y-9415000D01*
X16190000Y-9385000D02*
X16160000Y-9415000D01*
X15985500Y-10710000D02*
G75*
G02*
X15910500Y-10710000I-37500J0D01*
G01*
X15910500Y-10710000D02*
G75*
G02*
X15985500Y-10710000I37500J0D01*
G01*
X16185500Y-10710000D02*
G75*
G02*
X16110500Y-10710000I-37500J0D01*
G01*
X16110500Y-10710000D02*
G75*
G02*
X16185500Y-10710000I37500J0D01*
G01*
X13564000Y-10930550D02*
X13564000Y-11019450D01*
X13519550Y-10975000D02*
X13608450Y-10975000D01*
X13664500Y-8978550D02*
X13664500Y-9067450D01*
X13620050Y-9023000D02*
X13708950Y-9023000D01*
X13664500Y-9232550D02*
X13664500Y-9321450D01*
X13620050Y-9277000D02*
X13708950Y-9277000D01*
X13664500Y-9486550D02*
X13664500Y-9575450D01*
X13620050Y-9531000D02*
X13708950Y-9531000D01*
X13664500Y-9740550D02*
X13664500Y-9829450D01*
X13620050Y-9785000D02*
X13708950Y-9785000D01*
X13664500Y-9994550D02*
X13664500Y-10083450D01*
X13620050Y-10039000D02*
X13708950Y-10039000D01*
X13664500Y-10248550D02*
X13664500Y-10337450D01*
X13620050Y-10293000D02*
X13708950Y-10293000D01*
X13818000Y-10930550D02*
X13818000Y-11019450D01*
X13773550Y-10975000D02*
X13862450Y-10975000D01*
X14072000Y-10930550D02*
X14072000Y-11019450D01*
X14027550Y-10975000D02*
X14116450Y-10975000D01*
X14326000Y-10930550D02*
X14326000Y-11019450D01*
X14281550Y-10975000D02*
X14370450Y-10975000D01*
X14580000Y-10930550D02*
X14580000Y-11019450D01*
X14535550Y-10975000D02*
X14624450Y-10975000D01*
X14834000Y-10930550D02*
X14834000Y-11019450D01*
X14789550Y-10975000D02*
X14878450Y-10975000D01*
X15088000Y-10930550D02*
X15088000Y-11019450D01*
X15043550Y-10975000D02*
X15132450Y-10975000D01*
X15188500Y-9232550D02*
X15188500Y-9321450D01*
X15144050Y-9277000D02*
X15232950Y-9277000D01*
X15188500Y-9486550D02*
X15188500Y-9575450D01*
X15144050Y-9531000D02*
X15232950Y-9531000D01*
X15188500Y-9740550D02*
X15188500Y-9829450D01*
X15144050Y-9785000D02*
X15232950Y-9785000D01*
X15188500Y-9994550D02*
X15188500Y-10083450D01*
X15144050Y-10039000D02*
X15232950Y-10039000D01*
X15188500Y-10248550D02*
X15188500Y-10337450D01*
X15144050Y-10293000D02*
X15232950Y-10293000D01*
X15188500Y-10502550D02*
X15188500Y-10591450D01*
X15144050Y-10547000D02*
X15232950Y-10547000D01*
X15342000Y-10930550D02*
X15342000Y-11019450D01*
X15297550Y-10975000D02*
X15386450Y-10975000D01*
X15596000Y-10930550D02*
X15596000Y-11019450D01*
X15551550Y-10975000D02*
X15640450Y-10975000D01*
X15850000Y-10930550D02*
X15850000Y-11019450D01*
X15805550Y-10975000D02*
X15894450Y-10975000D01*
X15766820Y-9171820D02*
X15766820Y-9108180D01*
X15703180Y-9108180D01*
X15703180Y-9171820D01*
X15766820Y-9171820D01*
X15966820Y-9171820D02*
X15966820Y-9108180D01*
X15903180Y-9108180D01*
X15903180Y-9171820D01*
X15966820Y-9171820D01*
X16166820Y-9171820D02*
X16166820Y-9108180D01*
X16103180Y-9108180D01*
X16103180Y-9171820D01*
X16166820Y-9171820D01*
D12*
X14231000Y-10410000D02*
X14306000Y-10335000D01*
X14231000Y-10260000D01*
X14156000Y-10335000D01*
X14231000Y-10410000D01*
D11*
X14156000Y-10285000D02*
X14156000Y-10385000D01*
X14306000Y-10385000D02*
G75*
G02*
X14156000Y-10385000I-75000J0D01*
G01*
X14306000Y-10385000D02*
X14306000Y-10285000D01*
X14306000Y-10285000D02*
G75*
G03*
X14156000Y-10285000I-75000J0D01*
G01*
D12*
X14255153Y-9757821D02*
X14330153Y-9682821D01*
X14255153Y-9607821D01*
X14180153Y-9682821D01*
X14255153Y-9757821D01*
D11*
X14205153Y-9757821D02*
X14305153Y-9757821D01*
X14305153Y-9607821D02*
G75*
G02*
X14305153Y-9757821I0J-75000D01*
G01*
X14305153Y-9607821D02*
X14205153Y-9607821D01*
X14205153Y-9607821D02*
G75*
G03*
X14205153Y-9757821I0J-75000D01*
G01*
D12*
X14531000Y-10410000D02*
X14606000Y-10335000D01*
X14531000Y-10260000D01*
X14456000Y-10335000D01*
X14531000Y-10410000D01*
D11*
X14456000Y-10285000D02*
X14456000Y-10385000D01*
X14606000Y-10385000D02*
G75*
G02*
X14456000Y-10385000I-75000J0D01*
G01*
X14606000Y-10385000D02*
X14606000Y-10285000D01*
X14606000Y-10285000D02*
G75*
G03*
X14456000Y-10285000I-75000J0D01*
G01*
D12*
X15525000Y-9215000D02*
X15600000Y-9140000D01*
X15525000Y-9065000D01*
X15450000Y-9140000D01*
X15525000Y-9215000D01*
X16345000Y-9215000D02*
X16420000Y-9140000D01*
X16345000Y-9065000D01*
X16270000Y-9140000D01*
X16345000Y-9215000D01*
D13*
X15557000Y-9726500D02*
X15857000Y-10026500D01*
X15857000Y-9726500D02*
X15557000Y-10026500D01*
X15857000Y-9876500D02*
G75*
G02*
X15557000Y-9876500I-150000J0D01*
G01*
X15557000Y-9876500D02*
G75*
G02*
X15857000Y-9876500I150000J0D01*
G01*
D10*
X13650777Y-11471484D02*
X13650777Y-11271484D01*
X13650777Y-11271484D02*
X13698396Y-11271484D01*
X13698396Y-11271484D02*
X13726967Y-11281008D01*
X13726967Y-11281008D02*
X13746015Y-11300055D01*
X13746015Y-11300055D02*
X13755539Y-11319103D01*
X13755539Y-11319103D02*
X13765062Y-11357198D01*
X13765062Y-11357198D02*
X13765062Y-11385769D01*
X13765062Y-11385769D02*
X13755539Y-11423865D01*
X13755539Y-11423865D02*
X13746015Y-11442912D01*
X13746015Y-11442912D02*
X13726967Y-11461960D01*
X13726967Y-11461960D02*
X13698396Y-11471484D01*
X13698396Y-11471484D02*
X13650777Y-11471484D01*
X13850777Y-11471484D02*
X13850777Y-11338150D01*
X13850777Y-11376246D02*
X13860301Y-11357198D01*
X13860301Y-11357198D02*
X13869824Y-11347674D01*
X13869824Y-11347674D02*
X13888872Y-11338150D01*
X13888872Y-11338150D02*
X13907920Y-11338150D01*
X13974586Y-11471484D02*
X13974586Y-11338150D01*
X13974586Y-11271484D02*
X13965062Y-11281008D01*
X13965062Y-11281008D02*
X13974586Y-11290531D01*
X13974586Y-11290531D02*
X13984110Y-11281008D01*
X13984110Y-11281008D02*
X13974586Y-11271484D01*
X13974586Y-11271484D02*
X13974586Y-11290531D01*
X14098396Y-11471484D02*
X14079348Y-11461960D01*
X14079348Y-11461960D02*
X14069824Y-11442912D01*
X14069824Y-11442912D02*
X14069824Y-11271484D01*
X14203158Y-11471484D02*
X14184110Y-11461960D01*
X14184110Y-11461960D02*
X14174586Y-11442912D01*
X14174586Y-11442912D02*
X14174586Y-11271484D01*
X14431729Y-11471484D02*
X14431729Y-11271484D01*
X14431729Y-11271484D02*
X14498396Y-11414341D01*
X14498396Y-11414341D02*
X14565062Y-11271484D01*
X14565062Y-11271484D02*
X14565062Y-11471484D01*
X14746015Y-11471484D02*
X14746015Y-11366722D01*
X14746015Y-11366722D02*
X14736491Y-11347674D01*
X14736491Y-11347674D02*
X14717443Y-11338150D01*
X14717443Y-11338150D02*
X14679348Y-11338150D01*
X14679348Y-11338150D02*
X14660301Y-11347674D01*
X14746015Y-11461960D02*
X14726967Y-11471484D01*
X14726967Y-11471484D02*
X14679348Y-11471484D01*
X14679348Y-11471484D02*
X14660301Y-11461960D01*
X14660301Y-11461960D02*
X14650777Y-11442912D01*
X14650777Y-11442912D02*
X14650777Y-11423865D01*
X14650777Y-11423865D02*
X14660301Y-11404817D01*
X14660301Y-11404817D02*
X14679348Y-11395293D01*
X14679348Y-11395293D02*
X14726967Y-11395293D01*
X14726967Y-11395293D02*
X14746015Y-11385769D01*
X14841253Y-11338150D02*
X14841253Y-11538150D01*
X14841253Y-11347674D02*
X14860301Y-11338150D01*
X14860301Y-11338150D02*
X14898396Y-11338150D01*
X14898396Y-11338150D02*
X14917443Y-11347674D01*
X14917443Y-11347674D02*
X14926967Y-11357198D01*
X14926967Y-11357198D02*
X14936491Y-11376246D01*
X14936491Y-11376246D02*
X14936491Y-11433388D01*
X14936491Y-11433388D02*
X14926967Y-11452436D01*
X14926967Y-11452436D02*
X14917443Y-11461960D01*
X14917443Y-11461960D02*
X14898396Y-11471484D01*
X14898396Y-11471484D02*
X14860301Y-11471484D01*
X14860301Y-11471484D02*
X14841253Y-11461960D01*
X15022205Y-11452436D02*
X15031729Y-11461960D01*
X15031729Y-11461960D02*
X15022205Y-11471484D01*
X15022205Y-11471484D02*
X15012682Y-11461960D01*
X15012682Y-11461960D02*
X15022205Y-11452436D01*
X15022205Y-11452436D02*
X15022205Y-11471484D01*
X15022205Y-11347674D02*
X15031729Y-11357198D01*
X15031729Y-11357198D02*
X15022205Y-11366722D01*
X15022205Y-11366722D02*
X15012682Y-11357198D01*
X15012682Y-11357198D02*
X15022205Y-11347674D01*
X15022205Y-11347674D02*
X15022205Y-11366722D01*
D11*
X13360000Y-11785000D02*
X13390000Y-11815000D01*
X13390000Y-11785000D02*
X13360000Y-11815000D01*
D10*
X13688872Y-11691484D02*
X13707920Y-11691484D01*
X13707920Y-11691484D02*
X13726967Y-11701008D01*
X13726967Y-11701008D02*
X13736491Y-11710531D01*
X13736491Y-11710531D02*
X13746015Y-11729579D01*
X13746015Y-11729579D02*
X13755539Y-11767674D01*
X13755539Y-11767674D02*
X13755539Y-11815293D01*
X13755539Y-11815293D02*
X13746015Y-11853388D01*
X13746015Y-11853388D02*
X13736491Y-11872436D01*
X13736491Y-11872436D02*
X13726967Y-11881960D01*
X13726967Y-11881960D02*
X13707920Y-11891484D01*
X13707920Y-11891484D02*
X13688872Y-11891484D01*
X13688872Y-11891484D02*
X13669824Y-11881960D01*
X13669824Y-11881960D02*
X13660301Y-11872436D01*
X13660301Y-11872436D02*
X13650777Y-11853388D01*
X13650777Y-11853388D02*
X13641253Y-11815293D01*
X13641253Y-11815293D02*
X13641253Y-11767674D01*
X13641253Y-11767674D02*
X13650777Y-11729579D01*
X13650777Y-11729579D02*
X13660301Y-11710531D01*
X13660301Y-11710531D02*
X13669824Y-11701008D01*
X13669824Y-11701008D02*
X13688872Y-11691484D01*
X13841253Y-11872436D02*
X13850777Y-11881960D01*
X13850777Y-11881960D02*
X13841253Y-11891484D01*
X13841253Y-11891484D02*
X13831729Y-11881960D01*
X13831729Y-11881960D02*
X13841253Y-11872436D01*
X13841253Y-11872436D02*
X13841253Y-11891484D01*
X13917443Y-11691484D02*
X14041253Y-11691484D01*
X14041253Y-11691484D02*
X13974586Y-11767674D01*
X13974586Y-11767674D02*
X14003158Y-11767674D01*
X14003158Y-11767674D02*
X14022205Y-11777198D01*
X14022205Y-11777198D02*
X14031729Y-11786722D01*
X14031729Y-11786722D02*
X14041253Y-11805769D01*
X14041253Y-11805769D02*
X14041253Y-11853388D01*
X14041253Y-11853388D02*
X14031729Y-11872436D01*
X14031729Y-11872436D02*
X14022205Y-11881960D01*
X14022205Y-11881960D02*
X14003158Y-11891484D01*
X14003158Y-11891484D02*
X13946015Y-11891484D01*
X13946015Y-11891484D02*
X13926967Y-11881960D01*
X13926967Y-11881960D02*
X13917443Y-11872436D01*
X14165062Y-11691484D02*
X14184110Y-11691484D01*
X14184110Y-11691484D02*
X14203158Y-11701008D01*
X14203158Y-11701008D02*
X14212682Y-11710531D01*
X14212682Y-11710531D02*
X14222205Y-11729579D01*
X14222205Y-11729579D02*
X14231729Y-11767674D01*
X14231729Y-11767674D02*
X14231729Y-11815293D01*
X14231729Y-11815293D02*
X14222205Y-11853388D01*
X14222205Y-11853388D02*
X14212682Y-11872436D01*
X14212682Y-11872436D02*
X14203158Y-11881960D01*
X14203158Y-11881960D02*
X14184110Y-11891484D01*
X14184110Y-11891484D02*
X14165062Y-11891484D01*
X14165062Y-11891484D02*
X14146015Y-11881960D01*
X14146015Y-11881960D02*
X14136491Y-11872436D01*
X14136491Y-11872436D02*
X14126967Y-11853388D01*
X14126967Y-11853388D02*
X14117443Y-11815293D01*
X14117443Y-11815293D02*
X14117443Y-11767674D01*
X14117443Y-11767674D02*
X14126967Y-11729579D01*
X14126967Y-11729579D02*
X14136491Y-11710531D01*
X14136491Y-11710531D02*
X14146015Y-11701008D01*
X14146015Y-11701008D02*
X14165062Y-11691484D01*
X14355539Y-11691484D02*
X14374586Y-11691484D01*
X14374586Y-11691484D02*
X14393634Y-11701008D01*
X14393634Y-11701008D02*
X14403158Y-11710531D01*
X14403158Y-11710531D02*
X14412682Y-11729579D01*
X14412682Y-11729579D02*
X14422205Y-11767674D01*
X14422205Y-11767674D02*
X14422205Y-11815293D01*
X14422205Y-11815293D02*
X14412682Y-11853388D01*
X14412682Y-11853388D02*
X14403158Y-11872436D01*
X14403158Y-11872436D02*
X14393634Y-11881960D01*
X14393634Y-11881960D02*
X14374586Y-11891484D01*
X14374586Y-11891484D02*
X14355539Y-11891484D01*
X14355539Y-11891484D02*
X14336491Y-11881960D01*
X14336491Y-11881960D02*
X14326967Y-11872436D01*
X14326967Y-11872436D02*
X14317443Y-11853388D01*
X14317443Y-11853388D02*
X14307920Y-11815293D01*
X14307920Y-11815293D02*
X14307920Y-11767674D01*
X14307920Y-11767674D02*
X14317443Y-11729579D01*
X14317443Y-11729579D02*
X14326967Y-11710531D01*
X14326967Y-11710531D02*
X14336491Y-11701008D01*
X14336491Y-11701008D02*
X14355539Y-11691484D01*
X14507920Y-11891484D02*
X14507920Y-11758150D01*
X14507920Y-11777198D02*
X14517443Y-11767674D01*
X14517443Y-11767674D02*
X14536491Y-11758150D01*
X14536491Y-11758150D02*
X14565063Y-11758150D01*
X14565063Y-11758150D02*
X14584110Y-11767674D01*
X14584110Y-11767674D02*
X14593634Y-11786722D01*
X14593634Y-11786722D02*
X14593634Y-11891484D01*
X14593634Y-11786722D02*
X14603158Y-11767674D01*
X14603158Y-11767674D02*
X14622205Y-11758150D01*
X14622205Y-11758150D02*
X14650777Y-11758150D01*
X14650777Y-11758150D02*
X14669824Y-11767674D01*
X14669824Y-11767674D02*
X14679348Y-11786722D01*
X14679348Y-11786722D02*
X14679348Y-11891484D01*
X14774586Y-11891484D02*
X14774586Y-11758150D01*
X14774586Y-11777198D02*
X14784110Y-11767674D01*
X14784110Y-11767674D02*
X14803158Y-11758150D01*
X14803158Y-11758150D02*
X14831729Y-11758150D01*
X14831729Y-11758150D02*
X14850777Y-11767674D01*
X14850777Y-11767674D02*
X14860301Y-11786722D01*
X14860301Y-11786722D02*
X14860301Y-11891484D01*
X14860301Y-11786722D02*
X14869824Y-11767674D01*
X14869824Y-11767674D02*
X14888872Y-11758150D01*
X14888872Y-11758150D02*
X14917443Y-11758150D01*
X14917443Y-11758150D02*
X14936491Y-11767674D01*
X14936491Y-11767674D02*
X14946015Y-11786722D01*
X14946015Y-11786722D02*
X14946015Y-11891484D01*
X15336491Y-11681960D02*
X15165063Y-11939103D01*
X15593634Y-11691484D02*
X15612682Y-11691484D01*
X15612682Y-11691484D02*
X15631729Y-11701008D01*
X15631729Y-11701008D02*
X15641253Y-11710531D01*
X15641253Y-11710531D02*
X15650777Y-11729579D01*
X15650777Y-11729579D02*
X15660301Y-11767674D01*
X15660301Y-11767674D02*
X15660301Y-11815293D01*
X15660301Y-11815293D02*
X15650777Y-11853388D01*
X15650777Y-11853388D02*
X15641253Y-11872436D01*
X15641253Y-11872436D02*
X15631729Y-11881960D01*
X15631729Y-11881960D02*
X15612682Y-11891484D01*
X15612682Y-11891484D02*
X15593634Y-11891484D01*
X15593634Y-11891484D02*
X15574586Y-11881960D01*
X15574586Y-11881960D02*
X15565063Y-11872436D01*
X15565063Y-11872436D02*
X15555539Y-11853388D01*
X15555539Y-11853388D02*
X15546015Y-11815293D01*
X15546015Y-11815293D02*
X15546015Y-11767674D01*
X15546015Y-11767674D02*
X15555539Y-11729579D01*
X15555539Y-11729579D02*
X15565063Y-11710531D01*
X15565063Y-11710531D02*
X15574586Y-11701008D01*
X15574586Y-11701008D02*
X15593634Y-11691484D01*
X15746015Y-11872436D02*
X15755539Y-11881960D01*
X15755539Y-11881960D02*
X15746015Y-11891484D01*
X15746015Y-11891484D02*
X15736491Y-11881960D01*
X15736491Y-11881960D02*
X15746015Y-11872436D01*
X15746015Y-11872436D02*
X15746015Y-11891484D01*
X15879348Y-11691484D02*
X15898396Y-11691484D01*
X15898396Y-11691484D02*
X15917444Y-11701008D01*
X15917444Y-11701008D02*
X15926967Y-11710531D01*
X15926967Y-11710531D02*
X15936491Y-11729579D01*
X15936491Y-11729579D02*
X15946015Y-11767674D01*
X15946015Y-11767674D02*
X15946015Y-11815293D01*
X15946015Y-11815293D02*
X15936491Y-11853388D01*
X15936491Y-11853388D02*
X15926967Y-11872436D01*
X15926967Y-11872436D02*
X15917444Y-11881960D01*
X15917444Y-11881960D02*
X15898396Y-11891484D01*
X15898396Y-11891484D02*
X15879348Y-11891484D01*
X15879348Y-11891484D02*
X15860301Y-11881960D01*
X15860301Y-11881960D02*
X15850777Y-11872436D01*
X15850777Y-11872436D02*
X15841253Y-11853388D01*
X15841253Y-11853388D02*
X15831729Y-11815293D01*
X15831729Y-11815293D02*
X15831729Y-11767674D01*
X15831729Y-11767674D02*
X15841253Y-11729579D01*
X15841253Y-11729579D02*
X15850777Y-11710531D01*
X15850777Y-11710531D02*
X15860301Y-11701008D01*
X15860301Y-11701008D02*
X15879348Y-11691484D01*
X16136491Y-11891484D02*
X16022206Y-11891484D01*
X16079348Y-11891484D02*
X16079348Y-11691484D01*
X16079348Y-11691484D02*
X16060301Y-11720055D01*
X16060301Y-11720055D02*
X16041253Y-11739103D01*
X16041253Y-11739103D02*
X16022206Y-11748627D01*
X16326967Y-11891484D02*
X16212682Y-11891484D01*
X16269825Y-11891484D02*
X16269825Y-11691484D01*
X16269825Y-11691484D02*
X16250777Y-11720055D01*
X16250777Y-11720055D02*
X16231729Y-11739103D01*
X16231729Y-11739103D02*
X16212682Y-11748627D01*
X16441253Y-11777198D02*
X16422206Y-11767674D01*
X16422206Y-11767674D02*
X16412682Y-11758150D01*
X16412682Y-11758150D02*
X16403158Y-11739103D01*
X16403158Y-11739103D02*
X16403158Y-11729579D01*
X16403158Y-11729579D02*
X16412682Y-11710531D01*
X16412682Y-11710531D02*
X16422206Y-11701008D01*
X16422206Y-11701008D02*
X16441253Y-11691484D01*
X16441253Y-11691484D02*
X16479348Y-11691484D01*
X16479348Y-11691484D02*
X16498396Y-11701008D01*
X16498396Y-11701008D02*
X16507920Y-11710531D01*
X16507920Y-11710531D02*
X16517444Y-11729579D01*
X16517444Y-11729579D02*
X16517444Y-11739103D01*
X16517444Y-11739103D02*
X16507920Y-11758150D01*
X16507920Y-11758150D02*
X16498396Y-11767674D01*
X16498396Y-11767674D02*
X16479348Y-11777198D01*
X16479348Y-11777198D02*
X16441253Y-11777198D01*
X16441253Y-11777198D02*
X16422206Y-11786722D01*
X16422206Y-11786722D02*
X16412682Y-11796246D01*
X16412682Y-11796246D02*
X16403158Y-11815293D01*
X16403158Y-11815293D02*
X16403158Y-11853388D01*
X16403158Y-11853388D02*
X16412682Y-11872436D01*
X16412682Y-11872436D02*
X16422206Y-11881960D01*
X16422206Y-11881960D02*
X16441253Y-11891484D01*
X16441253Y-11891484D02*
X16479348Y-11891484D01*
X16479348Y-11891484D02*
X16498396Y-11881960D01*
X16498396Y-11881960D02*
X16507920Y-11872436D01*
X16507920Y-11872436D02*
X16517444Y-11853388D01*
X16517444Y-11853388D02*
X16517444Y-11815293D01*
X16517444Y-11815293D02*
X16507920Y-11796246D01*
X16507920Y-11796246D02*
X16498396Y-11786722D01*
X16498396Y-11786722D02*
X16479348Y-11777198D01*
X16593634Y-11691484D02*
X16593634Y-11729579D01*
X16669825Y-11691484D02*
X16669825Y-11729579D01*
X16965063Y-11967674D02*
X16955539Y-11958150D01*
X16955539Y-11958150D02*
X16936491Y-11929579D01*
X16936491Y-11929579D02*
X16926968Y-11910531D01*
X16926968Y-11910531D02*
X16917444Y-11881960D01*
X16917444Y-11881960D02*
X16907920Y-11834341D01*
X16907920Y-11834341D02*
X16907920Y-11796246D01*
X16907920Y-11796246D02*
X16917444Y-11748627D01*
X16917444Y-11748627D02*
X16926968Y-11720055D01*
X16926968Y-11720055D02*
X16936491Y-11701008D01*
X16936491Y-11701008D02*
X16955539Y-11672436D01*
X16955539Y-11672436D02*
X16965063Y-11662912D01*
X17146015Y-11891484D02*
X17031730Y-11891484D01*
X17088872Y-11891484D02*
X17088872Y-11691484D01*
X17088872Y-11691484D02*
X17069825Y-11720055D01*
X17069825Y-11720055D02*
X17050777Y-11739103D01*
X17050777Y-11739103D02*
X17031730Y-11748627D01*
X17326968Y-11691484D02*
X17231730Y-11691484D01*
X17231730Y-11691484D02*
X17222206Y-11786722D01*
X17222206Y-11786722D02*
X17231730Y-11777198D01*
X17231730Y-11777198D02*
X17250777Y-11767674D01*
X17250777Y-11767674D02*
X17298396Y-11767674D01*
X17298396Y-11767674D02*
X17317444Y-11777198D01*
X17317444Y-11777198D02*
X17326968Y-11786722D01*
X17326968Y-11786722D02*
X17336491Y-11805769D01*
X17336491Y-11805769D02*
X17336491Y-11853388D01*
X17336491Y-11853388D02*
X17326968Y-11872436D01*
X17326968Y-11872436D02*
X17317444Y-11881960D01*
X17317444Y-11881960D02*
X17298396Y-11891484D01*
X17298396Y-11891484D02*
X17250777Y-11891484D01*
X17250777Y-11891484D02*
X17231730Y-11881960D01*
X17231730Y-11881960D02*
X17222206Y-11872436D01*
X17574587Y-11891484D02*
X17574587Y-11691484D01*
X17660301Y-11891484D02*
X17660301Y-11786722D01*
X17660301Y-11786722D02*
X17650777Y-11767674D01*
X17650777Y-11767674D02*
X17631730Y-11758150D01*
X17631730Y-11758150D02*
X17603158Y-11758150D01*
X17603158Y-11758150D02*
X17584111Y-11767674D01*
X17584111Y-11767674D02*
X17574587Y-11777198D01*
X17784111Y-11891484D02*
X17765063Y-11881960D01*
X17765063Y-11881960D02*
X17755539Y-11872436D01*
X17755539Y-11872436D02*
X17746015Y-11853388D01*
X17746015Y-11853388D02*
X17746015Y-11796246D01*
X17746015Y-11796246D02*
X17755539Y-11777198D01*
X17755539Y-11777198D02*
X17765063Y-11767674D01*
X17765063Y-11767674D02*
X17784111Y-11758150D01*
X17784111Y-11758150D02*
X17812682Y-11758150D01*
X17812682Y-11758150D02*
X17831730Y-11767674D01*
X17831730Y-11767674D02*
X17841253Y-11777198D01*
X17841253Y-11777198D02*
X17850777Y-11796246D01*
X17850777Y-11796246D02*
X17850777Y-11853388D01*
X17850777Y-11853388D02*
X17841253Y-11872436D01*
X17841253Y-11872436D02*
X17831730Y-11881960D01*
X17831730Y-11881960D02*
X17812682Y-11891484D01*
X17812682Y-11891484D02*
X17784111Y-11891484D01*
X17965063Y-11891484D02*
X17946015Y-11881960D01*
X17946015Y-11881960D02*
X17936492Y-11862912D01*
X17936492Y-11862912D02*
X17936492Y-11691484D01*
X18117444Y-11881960D02*
X18098396Y-11891484D01*
X18098396Y-11891484D02*
X18060301Y-11891484D01*
X18060301Y-11891484D02*
X18041253Y-11881960D01*
X18041253Y-11881960D02*
X18031730Y-11862912D01*
X18031730Y-11862912D02*
X18031730Y-11786722D01*
X18031730Y-11786722D02*
X18041253Y-11767674D01*
X18041253Y-11767674D02*
X18060301Y-11758150D01*
X18060301Y-11758150D02*
X18098396Y-11758150D01*
X18098396Y-11758150D02*
X18117444Y-11767674D01*
X18117444Y-11767674D02*
X18126968Y-11786722D01*
X18126968Y-11786722D02*
X18126968Y-11805769D01*
X18126968Y-11805769D02*
X18031730Y-11824817D01*
X18203158Y-11881960D02*
X18222206Y-11891484D01*
X18222206Y-11891484D02*
X18260301Y-11891484D01*
X18260301Y-11891484D02*
X18279349Y-11881960D01*
X18279349Y-11881960D02*
X18288873Y-11862912D01*
X18288873Y-11862912D02*
X18288873Y-11853388D01*
X18288873Y-11853388D02*
X18279349Y-11834341D01*
X18279349Y-11834341D02*
X18260301Y-11824817D01*
X18260301Y-11824817D02*
X18231730Y-11824817D01*
X18231730Y-11824817D02*
X18212682Y-11815293D01*
X18212682Y-11815293D02*
X18203158Y-11796246D01*
X18203158Y-11796246D02*
X18203158Y-11786722D01*
X18203158Y-11786722D02*
X18212682Y-11767674D01*
X18212682Y-11767674D02*
X18231730Y-11758150D01*
X18231730Y-11758150D02*
X18260301Y-11758150D01*
X18260301Y-11758150D02*
X18279349Y-11767674D01*
X18355539Y-11967674D02*
X18365063Y-11958150D01*
X18365063Y-11958150D02*
X18384111Y-11929579D01*
X18384111Y-11929579D02*
X18393634Y-11910531D01*
X18393634Y-11910531D02*
X18403158Y-11881960D01*
X18403158Y-11881960D02*
X18412682Y-11834341D01*
X18412682Y-11834341D02*
X18412682Y-11796246D01*
X18412682Y-11796246D02*
X18403158Y-11748627D01*
X18403158Y-11748627D02*
X18393634Y-11720055D01*
X18393634Y-11720055D02*
X18384111Y-11701008D01*
X18384111Y-11701008D02*
X18365063Y-11672436D01*
X18365063Y-11672436D02*
X18355539Y-11662912D01*
D11*
X13390000Y-12064000D02*
G75*
G02*
X13315000Y-12064000I-37500J0D01*
G01*
X13315000Y-12064000D02*
G75*
G02*
X13390000Y-12064000I37500J0D01*
G01*
D10*
X13688872Y-11955484D02*
X13707920Y-11955484D01*
X13707920Y-11955484D02*
X13726967Y-11965008D01*
X13726967Y-11965008D02*
X13736491Y-11974531D01*
X13736491Y-11974531D02*
X13746015Y-11993579D01*
X13746015Y-11993579D02*
X13755539Y-12031674D01*
X13755539Y-12031674D02*
X13755539Y-12079293D01*
X13755539Y-12079293D02*
X13746015Y-12117388D01*
X13746015Y-12117388D02*
X13736491Y-12136436D01*
X13736491Y-12136436D02*
X13726967Y-12145960D01*
X13726967Y-12145960D02*
X13707920Y-12155484D01*
X13707920Y-12155484D02*
X13688872Y-12155484D01*
X13688872Y-12155484D02*
X13669824Y-12145960D01*
X13669824Y-12145960D02*
X13660301Y-12136436D01*
X13660301Y-12136436D02*
X13650777Y-12117388D01*
X13650777Y-12117388D02*
X13641253Y-12079293D01*
X13641253Y-12079293D02*
X13641253Y-12031674D01*
X13641253Y-12031674D02*
X13650777Y-11993579D01*
X13650777Y-11993579D02*
X13660301Y-11974531D01*
X13660301Y-11974531D02*
X13669824Y-11965008D01*
X13669824Y-11965008D02*
X13688872Y-11955484D01*
X13841253Y-12136436D02*
X13850777Y-12145960D01*
X13850777Y-12145960D02*
X13841253Y-12155484D01*
X13841253Y-12155484D02*
X13831729Y-12145960D01*
X13831729Y-12145960D02*
X13841253Y-12136436D01*
X13841253Y-12136436D02*
X13841253Y-12155484D01*
X13917443Y-11955484D02*
X14050777Y-11955484D01*
X14050777Y-11955484D02*
X13965062Y-12155484D01*
X14222205Y-11955484D02*
X14126967Y-11955484D01*
X14126967Y-11955484D02*
X14117443Y-12050722D01*
X14117443Y-12050722D02*
X14126967Y-12041198D01*
X14126967Y-12041198D02*
X14146015Y-12031674D01*
X14146015Y-12031674D02*
X14193634Y-12031674D01*
X14193634Y-12031674D02*
X14212682Y-12041198D01*
X14212682Y-12041198D02*
X14222205Y-12050722D01*
X14222205Y-12050722D02*
X14231729Y-12069769D01*
X14231729Y-12069769D02*
X14231729Y-12117388D01*
X14231729Y-12117388D02*
X14222205Y-12136436D01*
X14222205Y-12136436D02*
X14212682Y-12145960D01*
X14212682Y-12145960D02*
X14193634Y-12155484D01*
X14193634Y-12155484D02*
X14146015Y-12155484D01*
X14146015Y-12155484D02*
X14126967Y-12145960D01*
X14126967Y-12145960D02*
X14117443Y-12136436D01*
X14355539Y-11955484D02*
X14374586Y-11955484D01*
X14374586Y-11955484D02*
X14393634Y-11965008D01*
X14393634Y-11965008D02*
X14403158Y-11974531D01*
X14403158Y-11974531D02*
X14412682Y-11993579D01*
X14412682Y-11993579D02*
X14422205Y-12031674D01*
X14422205Y-12031674D02*
X14422205Y-12079293D01*
X14422205Y-12079293D02*
X14412682Y-12117388D01*
X14412682Y-12117388D02*
X14403158Y-12136436D01*
X14403158Y-12136436D02*
X14393634Y-12145960D01*
X14393634Y-12145960D02*
X14374586Y-12155484D01*
X14374586Y-12155484D02*
X14355539Y-12155484D01*
X14355539Y-12155484D02*
X14336491Y-12145960D01*
X14336491Y-12145960D02*
X14326967Y-12136436D01*
X14326967Y-12136436D02*
X14317443Y-12117388D01*
X14317443Y-12117388D02*
X14307920Y-12079293D01*
X14307920Y-12079293D02*
X14307920Y-12031674D01*
X14307920Y-12031674D02*
X14317443Y-11993579D01*
X14317443Y-11993579D02*
X14326967Y-11974531D01*
X14326967Y-11974531D02*
X14336491Y-11965008D01*
X14336491Y-11965008D02*
X14355539Y-11955484D01*
X14507920Y-12155484D02*
X14507920Y-12022150D01*
X14507920Y-12041198D02*
X14517443Y-12031674D01*
X14517443Y-12031674D02*
X14536491Y-12022150D01*
X14536491Y-12022150D02*
X14565063Y-12022150D01*
X14565063Y-12022150D02*
X14584110Y-12031674D01*
X14584110Y-12031674D02*
X14593634Y-12050722D01*
X14593634Y-12050722D02*
X14593634Y-12155484D01*
X14593634Y-12050722D02*
X14603158Y-12031674D01*
X14603158Y-12031674D02*
X14622205Y-12022150D01*
X14622205Y-12022150D02*
X14650777Y-12022150D01*
X14650777Y-12022150D02*
X14669824Y-12031674D01*
X14669824Y-12031674D02*
X14679348Y-12050722D01*
X14679348Y-12050722D02*
X14679348Y-12155484D01*
X14774586Y-12155484D02*
X14774586Y-12022150D01*
X14774586Y-12041198D02*
X14784110Y-12031674D01*
X14784110Y-12031674D02*
X14803158Y-12022150D01*
X14803158Y-12022150D02*
X14831729Y-12022150D01*
X14831729Y-12022150D02*
X14850777Y-12031674D01*
X14850777Y-12031674D02*
X14860301Y-12050722D01*
X14860301Y-12050722D02*
X14860301Y-12155484D01*
X14860301Y-12050722D02*
X14869824Y-12031674D01*
X14869824Y-12031674D02*
X14888872Y-12022150D01*
X14888872Y-12022150D02*
X14917443Y-12022150D01*
X14917443Y-12022150D02*
X14936491Y-12031674D01*
X14936491Y-12031674D02*
X14946015Y-12050722D01*
X14946015Y-12050722D02*
X14946015Y-12155484D01*
X15336491Y-11945960D02*
X15165063Y-12203103D01*
X15593634Y-11955484D02*
X15612682Y-11955484D01*
X15612682Y-11955484D02*
X15631729Y-11965008D01*
X15631729Y-11965008D02*
X15641253Y-11974531D01*
X15641253Y-11974531D02*
X15650777Y-11993579D01*
X15650777Y-11993579D02*
X15660301Y-12031674D01*
X15660301Y-12031674D02*
X15660301Y-12079293D01*
X15660301Y-12079293D02*
X15650777Y-12117388D01*
X15650777Y-12117388D02*
X15641253Y-12136436D01*
X15641253Y-12136436D02*
X15631729Y-12145960D01*
X15631729Y-12145960D02*
X15612682Y-12155484D01*
X15612682Y-12155484D02*
X15593634Y-12155484D01*
X15593634Y-12155484D02*
X15574586Y-12145960D01*
X15574586Y-12145960D02*
X15565063Y-12136436D01*
X15565063Y-12136436D02*
X15555539Y-12117388D01*
X15555539Y-12117388D02*
X15546015Y-12079293D01*
X15546015Y-12079293D02*
X15546015Y-12031674D01*
X15546015Y-12031674D02*
X15555539Y-11993579D01*
X15555539Y-11993579D02*
X15565063Y-11974531D01*
X15565063Y-11974531D02*
X15574586Y-11965008D01*
X15574586Y-11965008D02*
X15593634Y-11955484D01*
X15746015Y-12136436D02*
X15755539Y-12145960D01*
X15755539Y-12145960D02*
X15746015Y-12155484D01*
X15746015Y-12155484D02*
X15736491Y-12145960D01*
X15736491Y-12145960D02*
X15746015Y-12136436D01*
X15746015Y-12136436D02*
X15746015Y-12155484D01*
X15879348Y-11955484D02*
X15898396Y-11955484D01*
X15898396Y-11955484D02*
X15917444Y-11965008D01*
X15917444Y-11965008D02*
X15926967Y-11974531D01*
X15926967Y-11974531D02*
X15936491Y-11993579D01*
X15936491Y-11993579D02*
X15946015Y-12031674D01*
X15946015Y-12031674D02*
X15946015Y-12079293D01*
X15946015Y-12079293D02*
X15936491Y-12117388D01*
X15936491Y-12117388D02*
X15926967Y-12136436D01*
X15926967Y-12136436D02*
X15917444Y-12145960D01*
X15917444Y-12145960D02*
X15898396Y-12155484D01*
X15898396Y-12155484D02*
X15879348Y-12155484D01*
X15879348Y-12155484D02*
X15860301Y-12145960D01*
X15860301Y-12145960D02*
X15850777Y-12136436D01*
X15850777Y-12136436D02*
X15841253Y-12117388D01*
X15841253Y-12117388D02*
X15831729Y-12079293D01*
X15831729Y-12079293D02*
X15831729Y-12031674D01*
X15831729Y-12031674D02*
X15841253Y-11993579D01*
X15841253Y-11993579D02*
X15850777Y-11974531D01*
X15850777Y-11974531D02*
X15860301Y-11965008D01*
X15860301Y-11965008D02*
X15879348Y-11955484D01*
X16022206Y-11974531D02*
X16031729Y-11965008D01*
X16031729Y-11965008D02*
X16050777Y-11955484D01*
X16050777Y-11955484D02*
X16098396Y-11955484D01*
X16098396Y-11955484D02*
X16117444Y-11965008D01*
X16117444Y-11965008D02*
X16126967Y-11974531D01*
X16126967Y-11974531D02*
X16136491Y-11993579D01*
X16136491Y-11993579D02*
X16136491Y-12012627D01*
X16136491Y-12012627D02*
X16126967Y-12041198D01*
X16126967Y-12041198D02*
X16012682Y-12155484D01*
X16012682Y-12155484D02*
X16136491Y-12155484D01*
X16231729Y-12155484D02*
X16269825Y-12155484D01*
X16269825Y-12155484D02*
X16288872Y-12145960D01*
X16288872Y-12145960D02*
X16298396Y-12136436D01*
X16298396Y-12136436D02*
X16317444Y-12107865D01*
X16317444Y-12107865D02*
X16326967Y-12069769D01*
X16326967Y-12069769D02*
X16326967Y-11993579D01*
X16326967Y-11993579D02*
X16317444Y-11974531D01*
X16317444Y-11974531D02*
X16307920Y-11965008D01*
X16307920Y-11965008D02*
X16288872Y-11955484D01*
X16288872Y-11955484D02*
X16250777Y-11955484D01*
X16250777Y-11955484D02*
X16231729Y-11965008D01*
X16231729Y-11965008D02*
X16222206Y-11974531D01*
X16222206Y-11974531D02*
X16212682Y-11993579D01*
X16212682Y-11993579D02*
X16212682Y-12041198D01*
X16212682Y-12041198D02*
X16222206Y-12060246D01*
X16222206Y-12060246D02*
X16231729Y-12069769D01*
X16231729Y-12069769D02*
X16250777Y-12079293D01*
X16250777Y-12079293D02*
X16288872Y-12079293D01*
X16288872Y-12079293D02*
X16307920Y-12069769D01*
X16307920Y-12069769D02*
X16317444Y-12060246D01*
X16317444Y-12060246D02*
X16326967Y-12041198D01*
X16507920Y-11955484D02*
X16412682Y-11955484D01*
X16412682Y-11955484D02*
X16403158Y-12050722D01*
X16403158Y-12050722D02*
X16412682Y-12041198D01*
X16412682Y-12041198D02*
X16431729Y-12031674D01*
X16431729Y-12031674D02*
X16479348Y-12031674D01*
X16479348Y-12031674D02*
X16498396Y-12041198D01*
X16498396Y-12041198D02*
X16507920Y-12050722D01*
X16507920Y-12050722D02*
X16517444Y-12069769D01*
X16517444Y-12069769D02*
X16517444Y-12117388D01*
X16517444Y-12117388D02*
X16507920Y-12136436D01*
X16507920Y-12136436D02*
X16498396Y-12145960D01*
X16498396Y-12145960D02*
X16479348Y-12155484D01*
X16479348Y-12155484D02*
X16431729Y-12155484D01*
X16431729Y-12155484D02*
X16412682Y-12145960D01*
X16412682Y-12145960D02*
X16403158Y-12136436D01*
X16593634Y-11955484D02*
X16593634Y-11993579D01*
X16669825Y-11955484D02*
X16669825Y-11993579D01*
X16965063Y-12231674D02*
X16955539Y-12222150D01*
X16955539Y-12222150D02*
X16936491Y-12193579D01*
X16936491Y-12193579D02*
X16926968Y-12174531D01*
X16926968Y-12174531D02*
X16917444Y-12145960D01*
X16917444Y-12145960D02*
X16907920Y-12098341D01*
X16907920Y-12098341D02*
X16907920Y-12060246D01*
X16907920Y-12060246D02*
X16917444Y-12012627D01*
X16917444Y-12012627D02*
X16926968Y-11984055D01*
X16926968Y-11984055D02*
X16936491Y-11965008D01*
X16936491Y-11965008D02*
X16955539Y-11936436D01*
X16955539Y-11936436D02*
X16965063Y-11926912D01*
X17031730Y-11974531D02*
X17041253Y-11965008D01*
X17041253Y-11965008D02*
X17060301Y-11955484D01*
X17060301Y-11955484D02*
X17107920Y-11955484D01*
X17107920Y-11955484D02*
X17126968Y-11965008D01*
X17126968Y-11965008D02*
X17136491Y-11974531D01*
X17136491Y-11974531D02*
X17146015Y-11993579D01*
X17146015Y-11993579D02*
X17146015Y-12012627D01*
X17146015Y-12012627D02*
X17136491Y-12041198D01*
X17136491Y-12041198D02*
X17022206Y-12155484D01*
X17022206Y-12155484D02*
X17146015Y-12155484D01*
X17384111Y-12155484D02*
X17384111Y-11955484D01*
X17469825Y-12155484D02*
X17469825Y-12050722D01*
X17469825Y-12050722D02*
X17460301Y-12031674D01*
X17460301Y-12031674D02*
X17441253Y-12022150D01*
X17441253Y-12022150D02*
X17412682Y-12022150D01*
X17412682Y-12022150D02*
X17393634Y-12031674D01*
X17393634Y-12031674D02*
X17384111Y-12041198D01*
X17593634Y-12155484D02*
X17574587Y-12145960D01*
X17574587Y-12145960D02*
X17565063Y-12136436D01*
X17565063Y-12136436D02*
X17555539Y-12117388D01*
X17555539Y-12117388D02*
X17555539Y-12060246D01*
X17555539Y-12060246D02*
X17565063Y-12041198D01*
X17565063Y-12041198D02*
X17574587Y-12031674D01*
X17574587Y-12031674D02*
X17593634Y-12022150D01*
X17593634Y-12022150D02*
X17622206Y-12022150D01*
X17622206Y-12022150D02*
X17641253Y-12031674D01*
X17641253Y-12031674D02*
X17650777Y-12041198D01*
X17650777Y-12041198D02*
X17660301Y-12060246D01*
X17660301Y-12060246D02*
X17660301Y-12117388D01*
X17660301Y-12117388D02*
X17650777Y-12136436D01*
X17650777Y-12136436D02*
X17641253Y-12145960D01*
X17641253Y-12145960D02*
X17622206Y-12155484D01*
X17622206Y-12155484D02*
X17593634Y-12155484D01*
X17774587Y-12155484D02*
X17755539Y-12145960D01*
X17755539Y-12145960D02*
X17746015Y-12126912D01*
X17746015Y-12126912D02*
X17746015Y-11955484D01*
X17926968Y-12145960D02*
X17907920Y-12155484D01*
X17907920Y-12155484D02*
X17869825Y-12155484D01*
X17869825Y-12155484D02*
X17850777Y-12145960D01*
X17850777Y-12145960D02*
X17841253Y-12126912D01*
X17841253Y-12126912D02*
X17841253Y-12050722D01*
X17841253Y-12050722D02*
X17850777Y-12031674D01*
X17850777Y-12031674D02*
X17869825Y-12022150D01*
X17869825Y-12022150D02*
X17907920Y-12022150D01*
X17907920Y-12022150D02*
X17926968Y-12031674D01*
X17926968Y-12031674D02*
X17936492Y-12050722D01*
X17936492Y-12050722D02*
X17936492Y-12069769D01*
X17936492Y-12069769D02*
X17841253Y-12088817D01*
X18012682Y-12145960D02*
X18031730Y-12155484D01*
X18031730Y-12155484D02*
X18069825Y-12155484D01*
X18069825Y-12155484D02*
X18088873Y-12145960D01*
X18088873Y-12145960D02*
X18098396Y-12126912D01*
X18098396Y-12126912D02*
X18098396Y-12117388D01*
X18098396Y-12117388D02*
X18088873Y-12098341D01*
X18088873Y-12098341D02*
X18069825Y-12088817D01*
X18069825Y-12088817D02*
X18041253Y-12088817D01*
X18041253Y-12088817D02*
X18022206Y-12079293D01*
X18022206Y-12079293D02*
X18012682Y-12060246D01*
X18012682Y-12060246D02*
X18012682Y-12050722D01*
X18012682Y-12050722D02*
X18022206Y-12031674D01*
X18022206Y-12031674D02*
X18041253Y-12022150D01*
X18041253Y-12022150D02*
X18069825Y-12022150D01*
X18069825Y-12022150D02*
X18088873Y-12031674D01*
X18165063Y-12231674D02*
X18174587Y-12222150D01*
X18174587Y-12222150D02*
X18193634Y-12193579D01*
X18193634Y-12193579D02*
X18203158Y-12174531D01*
X18203158Y-12174531D02*
X18212682Y-12145960D01*
X18212682Y-12145960D02*
X18222206Y-12098341D01*
X18222206Y-12098341D02*
X18222206Y-12060246D01*
X18222206Y-12060246D02*
X18212682Y-12012627D01*
X18212682Y-12012627D02*
X18203158Y-11984055D01*
X18203158Y-11984055D02*
X18193634Y-11965008D01*
X18193634Y-11965008D02*
X18174587Y-11936436D01*
X18174587Y-11936436D02*
X18165063Y-11926912D01*
D11*
X13345550Y-12283550D02*
X13345550Y-12372450D01*
X13301100Y-12328000D02*
X13390000Y-12328000D01*
D10*
X13688872Y-12219484D02*
X13707920Y-12219484D01*
X13707920Y-12219484D02*
X13726967Y-12229008D01*
X13726967Y-12229008D02*
X13736491Y-12238531D01*
X13736491Y-12238531D02*
X13746015Y-12257579D01*
X13746015Y-12257579D02*
X13755539Y-12295674D01*
X13755539Y-12295674D02*
X13755539Y-12343293D01*
X13755539Y-12343293D02*
X13746015Y-12381388D01*
X13746015Y-12381388D02*
X13736491Y-12400436D01*
X13736491Y-12400436D02*
X13726967Y-12409960D01*
X13726967Y-12409960D02*
X13707920Y-12419484D01*
X13707920Y-12419484D02*
X13688872Y-12419484D01*
X13688872Y-12419484D02*
X13669824Y-12409960D01*
X13669824Y-12409960D02*
X13660301Y-12400436D01*
X13660301Y-12400436D02*
X13650777Y-12381388D01*
X13650777Y-12381388D02*
X13641253Y-12343293D01*
X13641253Y-12343293D02*
X13641253Y-12295674D01*
X13641253Y-12295674D02*
X13650777Y-12257579D01*
X13650777Y-12257579D02*
X13660301Y-12238531D01*
X13660301Y-12238531D02*
X13669824Y-12229008D01*
X13669824Y-12229008D02*
X13688872Y-12219484D01*
X13841253Y-12400436D02*
X13850777Y-12409960D01*
X13850777Y-12409960D02*
X13841253Y-12419484D01*
X13841253Y-12419484D02*
X13831729Y-12409960D01*
X13831729Y-12409960D02*
X13841253Y-12400436D01*
X13841253Y-12400436D02*
X13841253Y-12419484D01*
X13965062Y-12305198D02*
X13946015Y-12295674D01*
X13946015Y-12295674D02*
X13936491Y-12286150D01*
X13936491Y-12286150D02*
X13926967Y-12267103D01*
X13926967Y-12267103D02*
X13926967Y-12257579D01*
X13926967Y-12257579D02*
X13936491Y-12238531D01*
X13936491Y-12238531D02*
X13946015Y-12229008D01*
X13946015Y-12229008D02*
X13965062Y-12219484D01*
X13965062Y-12219484D02*
X14003158Y-12219484D01*
X14003158Y-12219484D02*
X14022205Y-12229008D01*
X14022205Y-12229008D02*
X14031729Y-12238531D01*
X14031729Y-12238531D02*
X14041253Y-12257579D01*
X14041253Y-12257579D02*
X14041253Y-12267103D01*
X14041253Y-12267103D02*
X14031729Y-12286150D01*
X14031729Y-12286150D02*
X14022205Y-12295674D01*
X14022205Y-12295674D02*
X14003158Y-12305198D01*
X14003158Y-12305198D02*
X13965062Y-12305198D01*
X13965062Y-12305198D02*
X13946015Y-12314722D01*
X13946015Y-12314722D02*
X13936491Y-12324246D01*
X13936491Y-12324246D02*
X13926967Y-12343293D01*
X13926967Y-12343293D02*
X13926967Y-12381388D01*
X13926967Y-12381388D02*
X13936491Y-12400436D01*
X13936491Y-12400436D02*
X13946015Y-12409960D01*
X13946015Y-12409960D02*
X13965062Y-12419484D01*
X13965062Y-12419484D02*
X14003158Y-12419484D01*
X14003158Y-12419484D02*
X14022205Y-12409960D01*
X14022205Y-12409960D02*
X14031729Y-12400436D01*
X14031729Y-12400436D02*
X14041253Y-12381388D01*
X14041253Y-12381388D02*
X14041253Y-12343293D01*
X14041253Y-12343293D02*
X14031729Y-12324246D01*
X14031729Y-12324246D02*
X14022205Y-12314722D01*
X14022205Y-12314722D02*
X14003158Y-12305198D01*
X14155539Y-12305198D02*
X14136491Y-12295674D01*
X14136491Y-12295674D02*
X14126967Y-12286150D01*
X14126967Y-12286150D02*
X14117443Y-12267103D01*
X14117443Y-12267103D02*
X14117443Y-12257579D01*
X14117443Y-12257579D02*
X14126967Y-12238531D01*
X14126967Y-12238531D02*
X14136491Y-12229008D01*
X14136491Y-12229008D02*
X14155539Y-12219484D01*
X14155539Y-12219484D02*
X14193634Y-12219484D01*
X14193634Y-12219484D02*
X14212682Y-12229008D01*
X14212682Y-12229008D02*
X14222205Y-12238531D01*
X14222205Y-12238531D02*
X14231729Y-12257579D01*
X14231729Y-12257579D02*
X14231729Y-12267103D01*
X14231729Y-12267103D02*
X14222205Y-12286150D01*
X14222205Y-12286150D02*
X14212682Y-12295674D01*
X14212682Y-12295674D02*
X14193634Y-12305198D01*
X14193634Y-12305198D02*
X14155539Y-12305198D01*
X14155539Y-12305198D02*
X14136491Y-12314722D01*
X14136491Y-12314722D02*
X14126967Y-12324246D01*
X14126967Y-12324246D02*
X14117443Y-12343293D01*
X14117443Y-12343293D02*
X14117443Y-12381388D01*
X14117443Y-12381388D02*
X14126967Y-12400436D01*
X14126967Y-12400436D02*
X14136491Y-12409960D01*
X14136491Y-12409960D02*
X14155539Y-12419484D01*
X14155539Y-12419484D02*
X14193634Y-12419484D01*
X14193634Y-12419484D02*
X14212682Y-12409960D01*
X14212682Y-12409960D02*
X14222205Y-12400436D01*
X14222205Y-12400436D02*
X14231729Y-12381388D01*
X14231729Y-12381388D02*
X14231729Y-12343293D01*
X14231729Y-12343293D02*
X14222205Y-12324246D01*
X14222205Y-12324246D02*
X14212682Y-12314722D01*
X14212682Y-12314722D02*
X14193634Y-12305198D01*
X14326967Y-12419484D02*
X14365062Y-12419484D01*
X14365062Y-12419484D02*
X14384110Y-12409960D01*
X14384110Y-12409960D02*
X14393634Y-12400436D01*
X14393634Y-12400436D02*
X14412682Y-12371865D01*
X14412682Y-12371865D02*
X14422205Y-12333769D01*
X14422205Y-12333769D02*
X14422205Y-12257579D01*
X14422205Y-12257579D02*
X14412682Y-12238531D01*
X14412682Y-12238531D02*
X14403158Y-12229008D01*
X14403158Y-12229008D02*
X14384110Y-12219484D01*
X14384110Y-12219484D02*
X14346015Y-12219484D01*
X14346015Y-12219484D02*
X14326967Y-12229008D01*
X14326967Y-12229008D02*
X14317443Y-12238531D01*
X14317443Y-12238531D02*
X14307920Y-12257579D01*
X14307920Y-12257579D02*
X14307920Y-12305198D01*
X14307920Y-12305198D02*
X14317443Y-12324246D01*
X14317443Y-12324246D02*
X14326967Y-12333769D01*
X14326967Y-12333769D02*
X14346015Y-12343293D01*
X14346015Y-12343293D02*
X14384110Y-12343293D01*
X14384110Y-12343293D02*
X14403158Y-12333769D01*
X14403158Y-12333769D02*
X14412682Y-12324246D01*
X14412682Y-12324246D02*
X14422205Y-12305198D01*
X14507920Y-12419484D02*
X14507920Y-12286150D01*
X14507920Y-12305198D02*
X14517443Y-12295674D01*
X14517443Y-12295674D02*
X14536491Y-12286150D01*
X14536491Y-12286150D02*
X14565063Y-12286150D01*
X14565063Y-12286150D02*
X14584110Y-12295674D01*
X14584110Y-12295674D02*
X14593634Y-12314722D01*
X14593634Y-12314722D02*
X14593634Y-12419484D01*
X14593634Y-12314722D02*
X14603158Y-12295674D01*
X14603158Y-12295674D02*
X14622205Y-12286150D01*
X14622205Y-12286150D02*
X14650777Y-12286150D01*
X14650777Y-12286150D02*
X14669824Y-12295674D01*
X14669824Y-12295674D02*
X14679348Y-12314722D01*
X14679348Y-12314722D02*
X14679348Y-12419484D01*
X14774586Y-12419484D02*
X14774586Y-12286150D01*
X14774586Y-12305198D02*
X14784110Y-12295674D01*
X14784110Y-12295674D02*
X14803158Y-12286150D01*
X14803158Y-12286150D02*
X14831729Y-12286150D01*
X14831729Y-12286150D02*
X14850777Y-12295674D01*
X14850777Y-12295674D02*
X14860301Y-12314722D01*
X14860301Y-12314722D02*
X14860301Y-12419484D01*
X14860301Y-12314722D02*
X14869824Y-12295674D01*
X14869824Y-12295674D02*
X14888872Y-12286150D01*
X14888872Y-12286150D02*
X14917443Y-12286150D01*
X14917443Y-12286150D02*
X14936491Y-12295674D01*
X14936491Y-12295674D02*
X14946015Y-12314722D01*
X14946015Y-12314722D02*
X14946015Y-12419484D01*
X15336491Y-12209960D02*
X15165063Y-12467103D01*
X15593634Y-12219484D02*
X15612682Y-12219484D01*
X15612682Y-12219484D02*
X15631729Y-12229008D01*
X15631729Y-12229008D02*
X15641253Y-12238531D01*
X15641253Y-12238531D02*
X15650777Y-12257579D01*
X15650777Y-12257579D02*
X15660301Y-12295674D01*
X15660301Y-12295674D02*
X15660301Y-12343293D01*
X15660301Y-12343293D02*
X15650777Y-12381388D01*
X15650777Y-12381388D02*
X15641253Y-12400436D01*
X15641253Y-12400436D02*
X15631729Y-12409960D01*
X15631729Y-12409960D02*
X15612682Y-12419484D01*
X15612682Y-12419484D02*
X15593634Y-12419484D01*
X15593634Y-12419484D02*
X15574586Y-12409960D01*
X15574586Y-12409960D02*
X15565063Y-12400436D01*
X15565063Y-12400436D02*
X15555539Y-12381388D01*
X15555539Y-12381388D02*
X15546015Y-12343293D01*
X15546015Y-12343293D02*
X15546015Y-12295674D01*
X15546015Y-12295674D02*
X15555539Y-12257579D01*
X15555539Y-12257579D02*
X15565063Y-12238531D01*
X15565063Y-12238531D02*
X15574586Y-12229008D01*
X15574586Y-12229008D02*
X15593634Y-12219484D01*
X15746015Y-12400436D02*
X15755539Y-12409960D01*
X15755539Y-12409960D02*
X15746015Y-12419484D01*
X15746015Y-12419484D02*
X15736491Y-12409960D01*
X15736491Y-12409960D02*
X15746015Y-12400436D01*
X15746015Y-12400436D02*
X15746015Y-12419484D01*
X15879348Y-12219484D02*
X15898396Y-12219484D01*
X15898396Y-12219484D02*
X15917444Y-12229008D01*
X15917444Y-12229008D02*
X15926967Y-12238531D01*
X15926967Y-12238531D02*
X15936491Y-12257579D01*
X15936491Y-12257579D02*
X15946015Y-12295674D01*
X15946015Y-12295674D02*
X15946015Y-12343293D01*
X15946015Y-12343293D02*
X15936491Y-12381388D01*
X15936491Y-12381388D02*
X15926967Y-12400436D01*
X15926967Y-12400436D02*
X15917444Y-12409960D01*
X15917444Y-12409960D02*
X15898396Y-12419484D01*
X15898396Y-12419484D02*
X15879348Y-12419484D01*
X15879348Y-12419484D02*
X15860301Y-12409960D01*
X15860301Y-12409960D02*
X15850777Y-12400436D01*
X15850777Y-12400436D02*
X15841253Y-12381388D01*
X15841253Y-12381388D02*
X15831729Y-12343293D01*
X15831729Y-12343293D02*
X15831729Y-12295674D01*
X15831729Y-12295674D02*
X15841253Y-12257579D01*
X15841253Y-12257579D02*
X15850777Y-12238531D01*
X15850777Y-12238531D02*
X15860301Y-12229008D01*
X15860301Y-12229008D02*
X15879348Y-12219484D01*
X16012682Y-12219484D02*
X16136491Y-12219484D01*
X16136491Y-12219484D02*
X16069825Y-12295674D01*
X16069825Y-12295674D02*
X16098396Y-12295674D01*
X16098396Y-12295674D02*
X16117444Y-12305198D01*
X16117444Y-12305198D02*
X16126967Y-12314722D01*
X16126967Y-12314722D02*
X16136491Y-12333769D01*
X16136491Y-12333769D02*
X16136491Y-12381388D01*
X16136491Y-12381388D02*
X16126967Y-12400436D01*
X16126967Y-12400436D02*
X16117444Y-12409960D01*
X16117444Y-12409960D02*
X16098396Y-12419484D01*
X16098396Y-12419484D02*
X16041253Y-12419484D01*
X16041253Y-12419484D02*
X16022206Y-12409960D01*
X16022206Y-12409960D02*
X16012682Y-12400436D01*
X16317444Y-12219484D02*
X16222206Y-12219484D01*
X16222206Y-12219484D02*
X16212682Y-12314722D01*
X16212682Y-12314722D02*
X16222206Y-12305198D01*
X16222206Y-12305198D02*
X16241253Y-12295674D01*
X16241253Y-12295674D02*
X16288872Y-12295674D01*
X16288872Y-12295674D02*
X16307920Y-12305198D01*
X16307920Y-12305198D02*
X16317444Y-12314722D01*
X16317444Y-12314722D02*
X16326967Y-12333769D01*
X16326967Y-12333769D02*
X16326967Y-12381388D01*
X16326967Y-12381388D02*
X16317444Y-12400436D01*
X16317444Y-12400436D02*
X16307920Y-12409960D01*
X16307920Y-12409960D02*
X16288872Y-12419484D01*
X16288872Y-12419484D02*
X16241253Y-12419484D01*
X16241253Y-12419484D02*
X16222206Y-12409960D01*
X16222206Y-12409960D02*
X16212682Y-12400436D01*
X16450777Y-12219484D02*
X16469825Y-12219484D01*
X16469825Y-12219484D02*
X16488872Y-12229008D01*
X16488872Y-12229008D02*
X16498396Y-12238531D01*
X16498396Y-12238531D02*
X16507920Y-12257579D01*
X16507920Y-12257579D02*
X16517444Y-12295674D01*
X16517444Y-12295674D02*
X16517444Y-12343293D01*
X16517444Y-12343293D02*
X16507920Y-12381388D01*
X16507920Y-12381388D02*
X16498396Y-12400436D01*
X16498396Y-12400436D02*
X16488872Y-12409960D01*
X16488872Y-12409960D02*
X16469825Y-12419484D01*
X16469825Y-12419484D02*
X16450777Y-12419484D01*
X16450777Y-12419484D02*
X16431729Y-12409960D01*
X16431729Y-12409960D02*
X16422206Y-12400436D01*
X16422206Y-12400436D02*
X16412682Y-12381388D01*
X16412682Y-12381388D02*
X16403158Y-12343293D01*
X16403158Y-12343293D02*
X16403158Y-12295674D01*
X16403158Y-12295674D02*
X16412682Y-12257579D01*
X16412682Y-12257579D02*
X16422206Y-12238531D01*
X16422206Y-12238531D02*
X16431729Y-12229008D01*
X16431729Y-12229008D02*
X16450777Y-12219484D01*
X16593634Y-12219484D02*
X16593634Y-12257579D01*
X16669825Y-12219484D02*
X16669825Y-12257579D01*
X16965063Y-12495674D02*
X16955539Y-12486150D01*
X16955539Y-12486150D02*
X16936491Y-12457579D01*
X16936491Y-12457579D02*
X16926968Y-12438531D01*
X16926968Y-12438531D02*
X16917444Y-12409960D01*
X16917444Y-12409960D02*
X16907920Y-12362341D01*
X16907920Y-12362341D02*
X16907920Y-12324246D01*
X16907920Y-12324246D02*
X16917444Y-12276627D01*
X16917444Y-12276627D02*
X16926968Y-12248055D01*
X16926968Y-12248055D02*
X16936491Y-12229008D01*
X16936491Y-12229008D02*
X16955539Y-12200436D01*
X16955539Y-12200436D02*
X16965063Y-12190912D01*
X17031730Y-12238531D02*
X17041253Y-12229008D01*
X17041253Y-12229008D02*
X17060301Y-12219484D01*
X17060301Y-12219484D02*
X17107920Y-12219484D01*
X17107920Y-12219484D02*
X17126968Y-12229008D01*
X17126968Y-12229008D02*
X17136491Y-12238531D01*
X17136491Y-12238531D02*
X17146015Y-12257579D01*
X17146015Y-12257579D02*
X17146015Y-12276627D01*
X17146015Y-12276627D02*
X17136491Y-12305198D01*
X17136491Y-12305198D02*
X17022206Y-12419484D01*
X17022206Y-12419484D02*
X17146015Y-12419484D01*
X17222206Y-12238531D02*
X17231730Y-12229008D01*
X17231730Y-12229008D02*
X17250777Y-12219484D01*
X17250777Y-12219484D02*
X17298396Y-12219484D01*
X17298396Y-12219484D02*
X17317444Y-12229008D01*
X17317444Y-12229008D02*
X17326968Y-12238531D01*
X17326968Y-12238531D02*
X17336491Y-12257579D01*
X17336491Y-12257579D02*
X17336491Y-12276627D01*
X17336491Y-12276627D02*
X17326968Y-12305198D01*
X17326968Y-12305198D02*
X17212682Y-12419484D01*
X17212682Y-12419484D02*
X17336491Y-12419484D01*
X17574587Y-12419484D02*
X17574587Y-12219484D01*
X17660301Y-12419484D02*
X17660301Y-12314722D01*
X17660301Y-12314722D02*
X17650777Y-12295674D01*
X17650777Y-12295674D02*
X17631730Y-12286150D01*
X17631730Y-12286150D02*
X17603158Y-12286150D01*
X17603158Y-12286150D02*
X17584111Y-12295674D01*
X17584111Y-12295674D02*
X17574587Y-12305198D01*
X17784111Y-12419484D02*
X17765063Y-12409960D01*
X17765063Y-12409960D02*
X17755539Y-12400436D01*
X17755539Y-12400436D02*
X17746015Y-12381388D01*
X17746015Y-12381388D02*
X17746015Y-12324246D01*
X17746015Y-12324246D02*
X17755539Y-12305198D01*
X17755539Y-12305198D02*
X17765063Y-12295674D01*
X17765063Y-12295674D02*
X17784111Y-12286150D01*
X17784111Y-12286150D02*
X17812682Y-12286150D01*
X17812682Y-12286150D02*
X17831730Y-12295674D01*
X17831730Y-12295674D02*
X17841253Y-12305198D01*
X17841253Y-12305198D02*
X17850777Y-12324246D01*
X17850777Y-12324246D02*
X17850777Y-12381388D01*
X17850777Y-12381388D02*
X17841253Y-12400436D01*
X17841253Y-12400436D02*
X17831730Y-12409960D01*
X17831730Y-12409960D02*
X17812682Y-12419484D01*
X17812682Y-12419484D02*
X17784111Y-12419484D01*
X17965063Y-12419484D02*
X17946015Y-12409960D01*
X17946015Y-12409960D02*
X17936492Y-12390912D01*
X17936492Y-12390912D02*
X17936492Y-12219484D01*
X18117444Y-12409960D02*
X18098396Y-12419484D01*
X18098396Y-12419484D02*
X18060301Y-12419484D01*
X18060301Y-12419484D02*
X18041253Y-12409960D01*
X18041253Y-12409960D02*
X18031730Y-12390912D01*
X18031730Y-12390912D02*
X18031730Y-12314722D01*
X18031730Y-12314722D02*
X18041253Y-12295674D01*
X18041253Y-12295674D02*
X18060301Y-12286150D01*
X18060301Y-12286150D02*
X18098396Y-12286150D01*
X18098396Y-12286150D02*
X18117444Y-12295674D01*
X18117444Y-12295674D02*
X18126968Y-12314722D01*
X18126968Y-12314722D02*
X18126968Y-12333769D01*
X18126968Y-12333769D02*
X18031730Y-12352817D01*
X18203158Y-12409960D02*
X18222206Y-12419484D01*
X18222206Y-12419484D02*
X18260301Y-12419484D01*
X18260301Y-12419484D02*
X18279349Y-12409960D01*
X18279349Y-12409960D02*
X18288873Y-12390912D01*
X18288873Y-12390912D02*
X18288873Y-12381388D01*
X18288873Y-12381388D02*
X18279349Y-12362341D01*
X18279349Y-12362341D02*
X18260301Y-12352817D01*
X18260301Y-12352817D02*
X18231730Y-12352817D01*
X18231730Y-12352817D02*
X18212682Y-12343293D01*
X18212682Y-12343293D02*
X18203158Y-12324246D01*
X18203158Y-12324246D02*
X18203158Y-12314722D01*
X18203158Y-12314722D02*
X18212682Y-12295674D01*
X18212682Y-12295674D02*
X18231730Y-12286150D01*
X18231730Y-12286150D02*
X18260301Y-12286150D01*
X18260301Y-12286150D02*
X18279349Y-12295674D01*
X18355539Y-12495674D02*
X18365063Y-12486150D01*
X18365063Y-12486150D02*
X18384111Y-12457579D01*
X18384111Y-12457579D02*
X18393634Y-12438531D01*
X18393634Y-12438531D02*
X18403158Y-12409960D01*
X18403158Y-12409960D02*
X18412682Y-12362341D01*
X18412682Y-12362341D02*
X18412682Y-12324246D01*
X18412682Y-12324246D02*
X18403158Y-12276627D01*
X18403158Y-12276627D02*
X18393634Y-12248055D01*
X18393634Y-12248055D02*
X18384111Y-12229008D01*
X18384111Y-12229008D02*
X18365063Y-12200436D01*
X18365063Y-12200436D02*
X18355539Y-12190912D01*
D11*
X13376820Y-12623820D02*
X13376820Y-12560180D01*
X13313180Y-12560180D01*
X13313180Y-12623820D01*
X13376820Y-12623820D01*
D10*
X13688872Y-12483484D02*
X13707920Y-12483484D01*
X13707920Y-12483484D02*
X13726967Y-12493008D01*
X13726967Y-12493008D02*
X13736491Y-12502531D01*
X13736491Y-12502531D02*
X13746015Y-12521579D01*
X13746015Y-12521579D02*
X13755539Y-12559674D01*
X13755539Y-12559674D02*
X13755539Y-12607293D01*
X13755539Y-12607293D02*
X13746015Y-12645388D01*
X13746015Y-12645388D02*
X13736491Y-12664436D01*
X13736491Y-12664436D02*
X13726967Y-12673960D01*
X13726967Y-12673960D02*
X13707920Y-12683484D01*
X13707920Y-12683484D02*
X13688872Y-12683484D01*
X13688872Y-12683484D02*
X13669824Y-12673960D01*
X13669824Y-12673960D02*
X13660301Y-12664436D01*
X13660301Y-12664436D02*
X13650777Y-12645388D01*
X13650777Y-12645388D02*
X13641253Y-12607293D01*
X13641253Y-12607293D02*
X13641253Y-12559674D01*
X13641253Y-12559674D02*
X13650777Y-12521579D01*
X13650777Y-12521579D02*
X13660301Y-12502531D01*
X13660301Y-12502531D02*
X13669824Y-12493008D01*
X13669824Y-12493008D02*
X13688872Y-12483484D01*
X13841253Y-12664436D02*
X13850777Y-12673960D01*
X13850777Y-12673960D02*
X13841253Y-12683484D01*
X13841253Y-12683484D02*
X13831729Y-12673960D01*
X13831729Y-12673960D02*
X13841253Y-12664436D01*
X13841253Y-12664436D02*
X13841253Y-12683484D01*
X13946015Y-12683484D02*
X13984110Y-12683484D01*
X13984110Y-12683484D02*
X14003158Y-12673960D01*
X14003158Y-12673960D02*
X14012682Y-12664436D01*
X14012682Y-12664436D02*
X14031729Y-12635865D01*
X14031729Y-12635865D02*
X14041253Y-12597769D01*
X14041253Y-12597769D02*
X14041253Y-12521579D01*
X14041253Y-12521579D02*
X14031729Y-12502531D01*
X14031729Y-12502531D02*
X14022205Y-12493008D01*
X14022205Y-12493008D02*
X14003158Y-12483484D01*
X14003158Y-12483484D02*
X13965062Y-12483484D01*
X13965062Y-12483484D02*
X13946015Y-12493008D01*
X13946015Y-12493008D02*
X13936491Y-12502531D01*
X13936491Y-12502531D02*
X13926967Y-12521579D01*
X13926967Y-12521579D02*
X13926967Y-12569198D01*
X13926967Y-12569198D02*
X13936491Y-12588246D01*
X13936491Y-12588246D02*
X13946015Y-12597769D01*
X13946015Y-12597769D02*
X13965062Y-12607293D01*
X13965062Y-12607293D02*
X14003158Y-12607293D01*
X14003158Y-12607293D02*
X14022205Y-12597769D01*
X14022205Y-12597769D02*
X14031729Y-12588246D01*
X14031729Y-12588246D02*
X14041253Y-12569198D01*
X14165062Y-12483484D02*
X14184110Y-12483484D01*
X14184110Y-12483484D02*
X14203158Y-12493008D01*
X14203158Y-12493008D02*
X14212682Y-12502531D01*
X14212682Y-12502531D02*
X14222205Y-12521579D01*
X14222205Y-12521579D02*
X14231729Y-12559674D01*
X14231729Y-12559674D02*
X14231729Y-12607293D01*
X14231729Y-12607293D02*
X14222205Y-12645388D01*
X14222205Y-12645388D02*
X14212682Y-12664436D01*
X14212682Y-12664436D02*
X14203158Y-12673960D01*
X14203158Y-12673960D02*
X14184110Y-12683484D01*
X14184110Y-12683484D02*
X14165062Y-12683484D01*
X14165062Y-12683484D02*
X14146015Y-12673960D01*
X14146015Y-12673960D02*
X14136491Y-12664436D01*
X14136491Y-12664436D02*
X14126967Y-12645388D01*
X14126967Y-12645388D02*
X14117443Y-12607293D01*
X14117443Y-12607293D02*
X14117443Y-12559674D01*
X14117443Y-12559674D02*
X14126967Y-12521579D01*
X14126967Y-12521579D02*
X14136491Y-12502531D01*
X14136491Y-12502531D02*
X14146015Y-12493008D01*
X14146015Y-12493008D02*
X14165062Y-12483484D01*
X14355539Y-12483484D02*
X14374586Y-12483484D01*
X14374586Y-12483484D02*
X14393634Y-12493008D01*
X14393634Y-12493008D02*
X14403158Y-12502531D01*
X14403158Y-12502531D02*
X14412682Y-12521579D01*
X14412682Y-12521579D02*
X14422205Y-12559674D01*
X14422205Y-12559674D02*
X14422205Y-12607293D01*
X14422205Y-12607293D02*
X14412682Y-12645388D01*
X14412682Y-12645388D02*
X14403158Y-12664436D01*
X14403158Y-12664436D02*
X14393634Y-12673960D01*
X14393634Y-12673960D02*
X14374586Y-12683484D01*
X14374586Y-12683484D02*
X14355539Y-12683484D01*
X14355539Y-12683484D02*
X14336491Y-12673960D01*
X14336491Y-12673960D02*
X14326967Y-12664436D01*
X14326967Y-12664436D02*
X14317443Y-12645388D01*
X14317443Y-12645388D02*
X14307920Y-12607293D01*
X14307920Y-12607293D02*
X14307920Y-12559674D01*
X14307920Y-12559674D02*
X14317443Y-12521579D01*
X14317443Y-12521579D02*
X14326967Y-12502531D01*
X14326967Y-12502531D02*
X14336491Y-12493008D01*
X14336491Y-12493008D02*
X14355539Y-12483484D01*
X14507920Y-12683484D02*
X14507920Y-12550150D01*
X14507920Y-12569198D02*
X14517443Y-12559674D01*
X14517443Y-12559674D02*
X14536491Y-12550150D01*
X14536491Y-12550150D02*
X14565063Y-12550150D01*
X14565063Y-12550150D02*
X14584110Y-12559674D01*
X14584110Y-12559674D02*
X14593634Y-12578722D01*
X14593634Y-12578722D02*
X14593634Y-12683484D01*
X14593634Y-12578722D02*
X14603158Y-12559674D01*
X14603158Y-12559674D02*
X14622205Y-12550150D01*
X14622205Y-12550150D02*
X14650777Y-12550150D01*
X14650777Y-12550150D02*
X14669824Y-12559674D01*
X14669824Y-12559674D02*
X14679348Y-12578722D01*
X14679348Y-12578722D02*
X14679348Y-12683484D01*
X14774586Y-12683484D02*
X14774586Y-12550150D01*
X14774586Y-12569198D02*
X14784110Y-12559674D01*
X14784110Y-12559674D02*
X14803158Y-12550150D01*
X14803158Y-12550150D02*
X14831729Y-12550150D01*
X14831729Y-12550150D02*
X14850777Y-12559674D01*
X14850777Y-12559674D02*
X14860301Y-12578722D01*
X14860301Y-12578722D02*
X14860301Y-12683484D01*
X14860301Y-12578722D02*
X14869824Y-12559674D01*
X14869824Y-12559674D02*
X14888872Y-12550150D01*
X14888872Y-12550150D02*
X14917443Y-12550150D01*
X14917443Y-12550150D02*
X14936491Y-12559674D01*
X14936491Y-12559674D02*
X14946015Y-12578722D01*
X14946015Y-12578722D02*
X14946015Y-12683484D01*
X15336491Y-12473960D02*
X15165063Y-12731103D01*
X15593634Y-12483484D02*
X15612682Y-12483484D01*
X15612682Y-12483484D02*
X15631729Y-12493008D01*
X15631729Y-12493008D02*
X15641253Y-12502531D01*
X15641253Y-12502531D02*
X15650777Y-12521579D01*
X15650777Y-12521579D02*
X15660301Y-12559674D01*
X15660301Y-12559674D02*
X15660301Y-12607293D01*
X15660301Y-12607293D02*
X15650777Y-12645388D01*
X15650777Y-12645388D02*
X15641253Y-12664436D01*
X15641253Y-12664436D02*
X15631729Y-12673960D01*
X15631729Y-12673960D02*
X15612682Y-12683484D01*
X15612682Y-12683484D02*
X15593634Y-12683484D01*
X15593634Y-12683484D02*
X15574586Y-12673960D01*
X15574586Y-12673960D02*
X15565063Y-12664436D01*
X15565063Y-12664436D02*
X15555539Y-12645388D01*
X15555539Y-12645388D02*
X15546015Y-12607293D01*
X15546015Y-12607293D02*
X15546015Y-12559674D01*
X15546015Y-12559674D02*
X15555539Y-12521579D01*
X15555539Y-12521579D02*
X15565063Y-12502531D01*
X15565063Y-12502531D02*
X15574586Y-12493008D01*
X15574586Y-12493008D02*
X15593634Y-12483484D01*
X15746015Y-12664436D02*
X15755539Y-12673960D01*
X15755539Y-12673960D02*
X15746015Y-12683484D01*
X15746015Y-12683484D02*
X15736491Y-12673960D01*
X15736491Y-12673960D02*
X15746015Y-12664436D01*
X15746015Y-12664436D02*
X15746015Y-12683484D01*
X15879348Y-12483484D02*
X15898396Y-12483484D01*
X15898396Y-12483484D02*
X15917444Y-12493008D01*
X15917444Y-12493008D02*
X15926967Y-12502531D01*
X15926967Y-12502531D02*
X15936491Y-12521579D01*
X15936491Y-12521579D02*
X15946015Y-12559674D01*
X15946015Y-12559674D02*
X15946015Y-12607293D01*
X15946015Y-12607293D02*
X15936491Y-12645388D01*
X15936491Y-12645388D02*
X15926967Y-12664436D01*
X15926967Y-12664436D02*
X15917444Y-12673960D01*
X15917444Y-12673960D02*
X15898396Y-12683484D01*
X15898396Y-12683484D02*
X15879348Y-12683484D01*
X15879348Y-12683484D02*
X15860301Y-12673960D01*
X15860301Y-12673960D02*
X15850777Y-12664436D01*
X15850777Y-12664436D02*
X15841253Y-12645388D01*
X15841253Y-12645388D02*
X15831729Y-12607293D01*
X15831729Y-12607293D02*
X15831729Y-12559674D01*
X15831729Y-12559674D02*
X15841253Y-12521579D01*
X15841253Y-12521579D02*
X15850777Y-12502531D01*
X15850777Y-12502531D02*
X15860301Y-12493008D01*
X15860301Y-12493008D02*
X15879348Y-12483484D01*
X16012682Y-12483484D02*
X16136491Y-12483484D01*
X16136491Y-12483484D02*
X16069825Y-12559674D01*
X16069825Y-12559674D02*
X16098396Y-12559674D01*
X16098396Y-12559674D02*
X16117444Y-12569198D01*
X16117444Y-12569198D02*
X16126967Y-12578722D01*
X16126967Y-12578722D02*
X16136491Y-12597769D01*
X16136491Y-12597769D02*
X16136491Y-12645388D01*
X16136491Y-12645388D02*
X16126967Y-12664436D01*
X16126967Y-12664436D02*
X16117444Y-12673960D01*
X16117444Y-12673960D02*
X16098396Y-12683484D01*
X16098396Y-12683484D02*
X16041253Y-12683484D01*
X16041253Y-12683484D02*
X16022206Y-12673960D01*
X16022206Y-12673960D02*
X16012682Y-12664436D01*
X16317444Y-12483484D02*
X16222206Y-12483484D01*
X16222206Y-12483484D02*
X16212682Y-12578722D01*
X16212682Y-12578722D02*
X16222206Y-12569198D01*
X16222206Y-12569198D02*
X16241253Y-12559674D01*
X16241253Y-12559674D02*
X16288872Y-12559674D01*
X16288872Y-12559674D02*
X16307920Y-12569198D01*
X16307920Y-12569198D02*
X16317444Y-12578722D01*
X16317444Y-12578722D02*
X16326967Y-12597769D01*
X16326967Y-12597769D02*
X16326967Y-12645388D01*
X16326967Y-12645388D02*
X16317444Y-12664436D01*
X16317444Y-12664436D02*
X16307920Y-12673960D01*
X16307920Y-12673960D02*
X16288872Y-12683484D01*
X16288872Y-12683484D02*
X16241253Y-12683484D01*
X16241253Y-12683484D02*
X16222206Y-12673960D01*
X16222206Y-12673960D02*
X16212682Y-12664436D01*
X16498396Y-12550150D02*
X16498396Y-12683484D01*
X16450777Y-12473960D02*
X16403158Y-12616817D01*
X16403158Y-12616817D02*
X16526967Y-12616817D01*
X16593634Y-12483484D02*
X16593634Y-12521579D01*
X16669825Y-12483484D02*
X16669825Y-12521579D01*
X16965063Y-12759674D02*
X16955539Y-12750150D01*
X16955539Y-12750150D02*
X16936491Y-12721579D01*
X16936491Y-12721579D02*
X16926968Y-12702531D01*
X16926968Y-12702531D02*
X16917444Y-12673960D01*
X16917444Y-12673960D02*
X16907920Y-12626341D01*
X16907920Y-12626341D02*
X16907920Y-12588246D01*
X16907920Y-12588246D02*
X16917444Y-12540627D01*
X16917444Y-12540627D02*
X16926968Y-12512055D01*
X16926968Y-12512055D02*
X16936491Y-12493008D01*
X16936491Y-12493008D02*
X16955539Y-12464436D01*
X16955539Y-12464436D02*
X16965063Y-12454912D01*
X17022206Y-12483484D02*
X17146015Y-12483484D01*
X17146015Y-12483484D02*
X17079349Y-12559674D01*
X17079349Y-12559674D02*
X17107920Y-12559674D01*
X17107920Y-12559674D02*
X17126968Y-12569198D01*
X17126968Y-12569198D02*
X17136491Y-12578722D01*
X17136491Y-12578722D02*
X17146015Y-12597769D01*
X17146015Y-12597769D02*
X17146015Y-12645388D01*
X17146015Y-12645388D02*
X17136491Y-12664436D01*
X17136491Y-12664436D02*
X17126968Y-12673960D01*
X17126968Y-12673960D02*
X17107920Y-12683484D01*
X17107920Y-12683484D02*
X17050777Y-12683484D01*
X17050777Y-12683484D02*
X17031730Y-12673960D01*
X17031730Y-12673960D02*
X17022206Y-12664436D01*
X17384111Y-12683484D02*
X17384111Y-12483484D01*
X17469825Y-12683484D02*
X17469825Y-12578722D01*
X17469825Y-12578722D02*
X17460301Y-12559674D01*
X17460301Y-12559674D02*
X17441253Y-12550150D01*
X17441253Y-12550150D02*
X17412682Y-12550150D01*
X17412682Y-12550150D02*
X17393634Y-12559674D01*
X17393634Y-12559674D02*
X17384111Y-12569198D01*
X17593634Y-12683484D02*
X17574587Y-12673960D01*
X17574587Y-12673960D02*
X17565063Y-12664436D01*
X17565063Y-12664436D02*
X17555539Y-12645388D01*
X17555539Y-12645388D02*
X17555539Y-12588246D01*
X17555539Y-12588246D02*
X17565063Y-12569198D01*
X17565063Y-12569198D02*
X17574587Y-12559674D01*
X17574587Y-12559674D02*
X17593634Y-12550150D01*
X17593634Y-12550150D02*
X17622206Y-12550150D01*
X17622206Y-12550150D02*
X17641253Y-12559674D01*
X17641253Y-12559674D02*
X17650777Y-12569198D01*
X17650777Y-12569198D02*
X17660301Y-12588246D01*
X17660301Y-12588246D02*
X17660301Y-12645388D01*
X17660301Y-12645388D02*
X17650777Y-12664436D01*
X17650777Y-12664436D02*
X17641253Y-12673960D01*
X17641253Y-12673960D02*
X17622206Y-12683484D01*
X17622206Y-12683484D02*
X17593634Y-12683484D01*
X17774587Y-12683484D02*
X17755539Y-12673960D01*
X17755539Y-12673960D02*
X17746015Y-12654912D01*
X17746015Y-12654912D02*
X17746015Y-12483484D01*
X17926968Y-12673960D02*
X17907920Y-12683484D01*
X17907920Y-12683484D02*
X17869825Y-12683484D01*
X17869825Y-12683484D02*
X17850777Y-12673960D01*
X17850777Y-12673960D02*
X17841253Y-12654912D01*
X17841253Y-12654912D02*
X17841253Y-12578722D01*
X17841253Y-12578722D02*
X17850777Y-12559674D01*
X17850777Y-12559674D02*
X17869825Y-12550150D01*
X17869825Y-12550150D02*
X17907920Y-12550150D01*
X17907920Y-12550150D02*
X17926968Y-12559674D01*
X17926968Y-12559674D02*
X17936492Y-12578722D01*
X17936492Y-12578722D02*
X17936492Y-12597769D01*
X17936492Y-12597769D02*
X17841253Y-12616817D01*
X18012682Y-12673960D02*
X18031730Y-12683484D01*
X18031730Y-12683484D02*
X18069825Y-12683484D01*
X18069825Y-12683484D02*
X18088873Y-12673960D01*
X18088873Y-12673960D02*
X18098396Y-12654912D01*
X18098396Y-12654912D02*
X18098396Y-12645388D01*
X18098396Y-12645388D02*
X18088873Y-12626341D01*
X18088873Y-12626341D02*
X18069825Y-12616817D01*
X18069825Y-12616817D02*
X18041253Y-12616817D01*
X18041253Y-12616817D02*
X18022206Y-12607293D01*
X18022206Y-12607293D02*
X18012682Y-12588246D01*
X18012682Y-12588246D02*
X18012682Y-12578722D01*
X18012682Y-12578722D02*
X18022206Y-12559674D01*
X18022206Y-12559674D02*
X18041253Y-12550150D01*
X18041253Y-12550150D02*
X18069825Y-12550150D01*
X18069825Y-12550150D02*
X18088873Y-12559674D01*
X18165063Y-12759674D02*
X18174587Y-12750150D01*
X18174587Y-12750150D02*
X18193634Y-12721579D01*
X18193634Y-12721579D02*
X18203158Y-12702531D01*
X18203158Y-12702531D02*
X18212682Y-12673960D01*
X18212682Y-12673960D02*
X18222206Y-12626341D01*
X18222206Y-12626341D02*
X18222206Y-12588246D01*
X18222206Y-12588246D02*
X18212682Y-12540627D01*
X18212682Y-12540627D02*
X18203158Y-12512055D01*
X18203158Y-12512055D02*
X18193634Y-12493008D01*
X18193634Y-12493008D02*
X18174587Y-12464436D01*
X18174587Y-12464436D02*
X18165063Y-12454912D01*
D12*
X13315000Y-12931000D02*
X13390000Y-12856000D01*
X13315000Y-12781000D01*
X13240000Y-12856000D01*
X13315000Y-12931000D01*
D10*
X13755539Y-12947484D02*
X13641253Y-12947484D01*
X13698396Y-12947484D02*
X13698396Y-12747484D01*
X13698396Y-12747484D02*
X13679348Y-12776055D01*
X13679348Y-12776055D02*
X13660301Y-12795103D01*
X13660301Y-12795103D02*
X13641253Y-12804627D01*
X13841253Y-12928436D02*
X13850777Y-12937960D01*
X13850777Y-12937960D02*
X13841253Y-12947484D01*
X13841253Y-12947484D02*
X13831729Y-12937960D01*
X13831729Y-12937960D02*
X13841253Y-12928436D01*
X13841253Y-12928436D02*
X13841253Y-12947484D01*
X14031729Y-12747484D02*
X13936491Y-12747484D01*
X13936491Y-12747484D02*
X13926967Y-12842722D01*
X13926967Y-12842722D02*
X13936491Y-12833198D01*
X13936491Y-12833198D02*
X13955539Y-12823674D01*
X13955539Y-12823674D02*
X14003158Y-12823674D01*
X14003158Y-12823674D02*
X14022205Y-12833198D01*
X14022205Y-12833198D02*
X14031729Y-12842722D01*
X14031729Y-12842722D02*
X14041253Y-12861769D01*
X14041253Y-12861769D02*
X14041253Y-12909388D01*
X14041253Y-12909388D02*
X14031729Y-12928436D01*
X14031729Y-12928436D02*
X14022205Y-12937960D01*
X14022205Y-12937960D02*
X14003158Y-12947484D01*
X14003158Y-12947484D02*
X13955539Y-12947484D01*
X13955539Y-12947484D02*
X13936491Y-12937960D01*
X13936491Y-12937960D02*
X13926967Y-12928436D01*
X14165062Y-12747484D02*
X14184110Y-12747484D01*
X14184110Y-12747484D02*
X14203158Y-12757008D01*
X14203158Y-12757008D02*
X14212682Y-12766531D01*
X14212682Y-12766531D02*
X14222205Y-12785579D01*
X14222205Y-12785579D02*
X14231729Y-12823674D01*
X14231729Y-12823674D02*
X14231729Y-12871293D01*
X14231729Y-12871293D02*
X14222205Y-12909388D01*
X14222205Y-12909388D02*
X14212682Y-12928436D01*
X14212682Y-12928436D02*
X14203158Y-12937960D01*
X14203158Y-12937960D02*
X14184110Y-12947484D01*
X14184110Y-12947484D02*
X14165062Y-12947484D01*
X14165062Y-12947484D02*
X14146015Y-12937960D01*
X14146015Y-12937960D02*
X14136491Y-12928436D01*
X14136491Y-12928436D02*
X14126967Y-12909388D01*
X14126967Y-12909388D02*
X14117443Y-12871293D01*
X14117443Y-12871293D02*
X14117443Y-12823674D01*
X14117443Y-12823674D02*
X14126967Y-12785579D01*
X14126967Y-12785579D02*
X14136491Y-12766531D01*
X14136491Y-12766531D02*
X14146015Y-12757008D01*
X14146015Y-12757008D02*
X14165062Y-12747484D01*
X14355539Y-12747484D02*
X14374586Y-12747484D01*
X14374586Y-12747484D02*
X14393634Y-12757008D01*
X14393634Y-12757008D02*
X14403158Y-12766531D01*
X14403158Y-12766531D02*
X14412682Y-12785579D01*
X14412682Y-12785579D02*
X14422205Y-12823674D01*
X14422205Y-12823674D02*
X14422205Y-12871293D01*
X14422205Y-12871293D02*
X14412682Y-12909388D01*
X14412682Y-12909388D02*
X14403158Y-12928436D01*
X14403158Y-12928436D02*
X14393634Y-12937960D01*
X14393634Y-12937960D02*
X14374586Y-12947484D01*
X14374586Y-12947484D02*
X14355539Y-12947484D01*
X14355539Y-12947484D02*
X14336491Y-12937960D01*
X14336491Y-12937960D02*
X14326967Y-12928436D01*
X14326967Y-12928436D02*
X14317443Y-12909388D01*
X14317443Y-12909388D02*
X14307920Y-12871293D01*
X14307920Y-12871293D02*
X14307920Y-12823674D01*
X14307920Y-12823674D02*
X14317443Y-12785579D01*
X14317443Y-12785579D02*
X14326967Y-12766531D01*
X14326967Y-12766531D02*
X14336491Y-12757008D01*
X14336491Y-12757008D02*
X14355539Y-12747484D01*
X14507920Y-12947484D02*
X14507920Y-12814150D01*
X14507920Y-12833198D02*
X14517443Y-12823674D01*
X14517443Y-12823674D02*
X14536491Y-12814150D01*
X14536491Y-12814150D02*
X14565063Y-12814150D01*
X14565063Y-12814150D02*
X14584110Y-12823674D01*
X14584110Y-12823674D02*
X14593634Y-12842722D01*
X14593634Y-12842722D02*
X14593634Y-12947484D01*
X14593634Y-12842722D02*
X14603158Y-12823674D01*
X14603158Y-12823674D02*
X14622205Y-12814150D01*
X14622205Y-12814150D02*
X14650777Y-12814150D01*
X14650777Y-12814150D02*
X14669824Y-12823674D01*
X14669824Y-12823674D02*
X14679348Y-12842722D01*
X14679348Y-12842722D02*
X14679348Y-12947484D01*
X14774586Y-12947484D02*
X14774586Y-12814150D01*
X14774586Y-12833198D02*
X14784110Y-12823674D01*
X14784110Y-12823674D02*
X14803158Y-12814150D01*
X14803158Y-12814150D02*
X14831729Y-12814150D01*
X14831729Y-12814150D02*
X14850777Y-12823674D01*
X14850777Y-12823674D02*
X14860301Y-12842722D01*
X14860301Y-12842722D02*
X14860301Y-12947484D01*
X14860301Y-12842722D02*
X14869824Y-12823674D01*
X14869824Y-12823674D02*
X14888872Y-12814150D01*
X14888872Y-12814150D02*
X14917443Y-12814150D01*
X14917443Y-12814150D02*
X14936491Y-12823674D01*
X14936491Y-12823674D02*
X14946015Y-12842722D01*
X14946015Y-12842722D02*
X14946015Y-12947484D01*
X15336491Y-12737960D02*
X15165063Y-12995103D01*
X15593634Y-12747484D02*
X15612682Y-12747484D01*
X15612682Y-12747484D02*
X15631729Y-12757008D01*
X15631729Y-12757008D02*
X15641253Y-12766531D01*
X15641253Y-12766531D02*
X15650777Y-12785579D01*
X15650777Y-12785579D02*
X15660301Y-12823674D01*
X15660301Y-12823674D02*
X15660301Y-12871293D01*
X15660301Y-12871293D02*
X15650777Y-12909388D01*
X15650777Y-12909388D02*
X15641253Y-12928436D01*
X15641253Y-12928436D02*
X15631729Y-12937960D01*
X15631729Y-12937960D02*
X15612682Y-12947484D01*
X15612682Y-12947484D02*
X15593634Y-12947484D01*
X15593634Y-12947484D02*
X15574586Y-12937960D01*
X15574586Y-12937960D02*
X15565063Y-12928436D01*
X15565063Y-12928436D02*
X15555539Y-12909388D01*
X15555539Y-12909388D02*
X15546015Y-12871293D01*
X15546015Y-12871293D02*
X15546015Y-12823674D01*
X15546015Y-12823674D02*
X15555539Y-12785579D01*
X15555539Y-12785579D02*
X15565063Y-12766531D01*
X15565063Y-12766531D02*
X15574586Y-12757008D01*
X15574586Y-12757008D02*
X15593634Y-12747484D01*
X15746015Y-12928436D02*
X15755539Y-12937960D01*
X15755539Y-12937960D02*
X15746015Y-12947484D01*
X15746015Y-12947484D02*
X15736491Y-12937960D01*
X15736491Y-12937960D02*
X15746015Y-12928436D01*
X15746015Y-12928436D02*
X15746015Y-12947484D01*
X15879348Y-12747484D02*
X15898396Y-12747484D01*
X15898396Y-12747484D02*
X15917444Y-12757008D01*
X15917444Y-12757008D02*
X15926967Y-12766531D01*
X15926967Y-12766531D02*
X15936491Y-12785579D01*
X15936491Y-12785579D02*
X15946015Y-12823674D01*
X15946015Y-12823674D02*
X15946015Y-12871293D01*
X15946015Y-12871293D02*
X15936491Y-12909388D01*
X15936491Y-12909388D02*
X15926967Y-12928436D01*
X15926967Y-12928436D02*
X15917444Y-12937960D01*
X15917444Y-12937960D02*
X15898396Y-12947484D01*
X15898396Y-12947484D02*
X15879348Y-12947484D01*
X15879348Y-12947484D02*
X15860301Y-12937960D01*
X15860301Y-12937960D02*
X15850777Y-12928436D01*
X15850777Y-12928436D02*
X15841253Y-12909388D01*
X15841253Y-12909388D02*
X15831729Y-12871293D01*
X15831729Y-12871293D02*
X15831729Y-12823674D01*
X15831729Y-12823674D02*
X15841253Y-12785579D01*
X15841253Y-12785579D02*
X15850777Y-12766531D01*
X15850777Y-12766531D02*
X15860301Y-12757008D01*
X15860301Y-12757008D02*
X15879348Y-12747484D01*
X16126967Y-12747484D02*
X16031729Y-12747484D01*
X16031729Y-12747484D02*
X16022206Y-12842722D01*
X16022206Y-12842722D02*
X16031729Y-12833198D01*
X16031729Y-12833198D02*
X16050777Y-12823674D01*
X16050777Y-12823674D02*
X16098396Y-12823674D01*
X16098396Y-12823674D02*
X16117444Y-12833198D01*
X16117444Y-12833198D02*
X16126967Y-12842722D01*
X16126967Y-12842722D02*
X16136491Y-12861769D01*
X16136491Y-12861769D02*
X16136491Y-12909388D01*
X16136491Y-12909388D02*
X16126967Y-12928436D01*
X16126967Y-12928436D02*
X16117444Y-12937960D01*
X16117444Y-12937960D02*
X16098396Y-12947484D01*
X16098396Y-12947484D02*
X16050777Y-12947484D01*
X16050777Y-12947484D02*
X16031729Y-12937960D01*
X16031729Y-12937960D02*
X16022206Y-12928436D01*
X16231729Y-12947484D02*
X16269825Y-12947484D01*
X16269825Y-12947484D02*
X16288872Y-12937960D01*
X16288872Y-12937960D02*
X16298396Y-12928436D01*
X16298396Y-12928436D02*
X16317444Y-12899865D01*
X16317444Y-12899865D02*
X16326967Y-12861769D01*
X16326967Y-12861769D02*
X16326967Y-12785579D01*
X16326967Y-12785579D02*
X16317444Y-12766531D01*
X16317444Y-12766531D02*
X16307920Y-12757008D01*
X16307920Y-12757008D02*
X16288872Y-12747484D01*
X16288872Y-12747484D02*
X16250777Y-12747484D01*
X16250777Y-12747484D02*
X16231729Y-12757008D01*
X16231729Y-12757008D02*
X16222206Y-12766531D01*
X16222206Y-12766531D02*
X16212682Y-12785579D01*
X16212682Y-12785579D02*
X16212682Y-12833198D01*
X16212682Y-12833198D02*
X16222206Y-12852246D01*
X16222206Y-12852246D02*
X16231729Y-12861769D01*
X16231729Y-12861769D02*
X16250777Y-12871293D01*
X16250777Y-12871293D02*
X16288872Y-12871293D01*
X16288872Y-12871293D02*
X16307920Y-12861769D01*
X16307920Y-12861769D02*
X16317444Y-12852246D01*
X16317444Y-12852246D02*
X16326967Y-12833198D01*
X16517444Y-12947484D02*
X16403158Y-12947484D01*
X16460301Y-12947484D02*
X16460301Y-12747484D01*
X16460301Y-12747484D02*
X16441253Y-12776055D01*
X16441253Y-12776055D02*
X16422206Y-12795103D01*
X16422206Y-12795103D02*
X16403158Y-12804627D01*
X16593634Y-12747484D02*
X16593634Y-12785579D01*
X16669825Y-12747484D02*
X16669825Y-12785579D01*
X16965063Y-13023674D02*
X16955539Y-13014150D01*
X16955539Y-13014150D02*
X16936491Y-12985579D01*
X16936491Y-12985579D02*
X16926968Y-12966531D01*
X16926968Y-12966531D02*
X16917444Y-12937960D01*
X16917444Y-12937960D02*
X16907920Y-12890341D01*
X16907920Y-12890341D02*
X16907920Y-12852246D01*
X16907920Y-12852246D02*
X16917444Y-12804627D01*
X16917444Y-12804627D02*
X16926968Y-12776055D01*
X16926968Y-12776055D02*
X16936491Y-12757008D01*
X16936491Y-12757008D02*
X16955539Y-12728436D01*
X16955539Y-12728436D02*
X16965063Y-12718912D01*
X17031730Y-12766531D02*
X17041253Y-12757008D01*
X17041253Y-12757008D02*
X17060301Y-12747484D01*
X17060301Y-12747484D02*
X17107920Y-12747484D01*
X17107920Y-12747484D02*
X17126968Y-12757008D01*
X17126968Y-12757008D02*
X17136491Y-12766531D01*
X17136491Y-12766531D02*
X17146015Y-12785579D01*
X17146015Y-12785579D02*
X17146015Y-12804627D01*
X17146015Y-12804627D02*
X17136491Y-12833198D01*
X17136491Y-12833198D02*
X17022206Y-12947484D01*
X17022206Y-12947484D02*
X17146015Y-12947484D01*
X17384111Y-12947484D02*
X17384111Y-12747484D01*
X17469825Y-12947484D02*
X17469825Y-12842722D01*
X17469825Y-12842722D02*
X17460301Y-12823674D01*
X17460301Y-12823674D02*
X17441253Y-12814150D01*
X17441253Y-12814150D02*
X17412682Y-12814150D01*
X17412682Y-12814150D02*
X17393634Y-12823674D01*
X17393634Y-12823674D02*
X17384111Y-12833198D01*
X17593634Y-12947484D02*
X17574587Y-12937960D01*
X17574587Y-12937960D02*
X17565063Y-12928436D01*
X17565063Y-12928436D02*
X17555539Y-12909388D01*
X17555539Y-12909388D02*
X17555539Y-12852246D01*
X17555539Y-12852246D02*
X17565063Y-12833198D01*
X17565063Y-12833198D02*
X17574587Y-12823674D01*
X17574587Y-12823674D02*
X17593634Y-12814150D01*
X17593634Y-12814150D02*
X17622206Y-12814150D01*
X17622206Y-12814150D02*
X17641253Y-12823674D01*
X17641253Y-12823674D02*
X17650777Y-12833198D01*
X17650777Y-12833198D02*
X17660301Y-12852246D01*
X17660301Y-12852246D02*
X17660301Y-12909388D01*
X17660301Y-12909388D02*
X17650777Y-12928436D01*
X17650777Y-12928436D02*
X17641253Y-12937960D01*
X17641253Y-12937960D02*
X17622206Y-12947484D01*
X17622206Y-12947484D02*
X17593634Y-12947484D01*
X17774587Y-12947484D02*
X17755539Y-12937960D01*
X17755539Y-12937960D02*
X17746015Y-12918912D01*
X17746015Y-12918912D02*
X17746015Y-12747484D01*
X17926968Y-12937960D02*
X17907920Y-12947484D01*
X17907920Y-12947484D02*
X17869825Y-12947484D01*
X17869825Y-12947484D02*
X17850777Y-12937960D01*
X17850777Y-12937960D02*
X17841253Y-12918912D01*
X17841253Y-12918912D02*
X17841253Y-12842722D01*
X17841253Y-12842722D02*
X17850777Y-12823674D01*
X17850777Y-12823674D02*
X17869825Y-12814150D01*
X17869825Y-12814150D02*
X17907920Y-12814150D01*
X17907920Y-12814150D02*
X17926968Y-12823674D01*
X17926968Y-12823674D02*
X17936492Y-12842722D01*
X17936492Y-12842722D02*
X17936492Y-12861769D01*
X17936492Y-12861769D02*
X17841253Y-12880817D01*
X18012682Y-12937960D02*
X18031730Y-12947484D01*
X18031730Y-12947484D02*
X18069825Y-12947484D01*
X18069825Y-12947484D02*
X18088873Y-12937960D01*
X18088873Y-12937960D02*
X18098396Y-12918912D01*
X18098396Y-12918912D02*
X18098396Y-12909388D01*
X18098396Y-12909388D02*
X18088873Y-12890341D01*
X18088873Y-12890341D02*
X18069825Y-12880817D01*
X18069825Y-12880817D02*
X18041253Y-12880817D01*
X18041253Y-12880817D02*
X18022206Y-12871293D01*
X18022206Y-12871293D02*
X18012682Y-12852246D01*
X18012682Y-12852246D02*
X18012682Y-12842722D01*
X18012682Y-12842722D02*
X18022206Y-12823674D01*
X18022206Y-12823674D02*
X18041253Y-12814150D01*
X18041253Y-12814150D02*
X18069825Y-12814150D01*
X18069825Y-12814150D02*
X18088873Y-12823674D01*
X18336492Y-12871293D02*
X18488873Y-12871293D01*
X18412682Y-12947484D02*
X18412682Y-12795103D01*
X18717444Y-12747484D02*
X18841254Y-12747484D01*
X18841254Y-12747484D02*
X18774587Y-12823674D01*
X18774587Y-12823674D02*
X18803158Y-12823674D01*
X18803158Y-12823674D02*
X18822206Y-12833198D01*
X18822206Y-12833198D02*
X18831730Y-12842722D01*
X18831730Y-12842722D02*
X18841254Y-12861769D01*
X18841254Y-12861769D02*
X18841254Y-12909388D01*
X18841254Y-12909388D02*
X18831730Y-12928436D01*
X18831730Y-12928436D02*
X18822206Y-12937960D01*
X18822206Y-12937960D02*
X18803158Y-12947484D01*
X18803158Y-12947484D02*
X18746015Y-12947484D01*
X18746015Y-12947484D02*
X18726968Y-12937960D01*
X18726968Y-12937960D02*
X18717444Y-12928436D01*
X19069825Y-12937960D02*
X19088873Y-12947484D01*
X19088873Y-12947484D02*
X19126968Y-12947484D01*
X19126968Y-12947484D02*
X19146016Y-12937960D01*
X19146016Y-12937960D02*
X19155539Y-12918912D01*
X19155539Y-12918912D02*
X19155539Y-12909388D01*
X19155539Y-12909388D02*
X19146016Y-12890341D01*
X19146016Y-12890341D02*
X19126968Y-12880817D01*
X19126968Y-12880817D02*
X19098396Y-12880817D01*
X19098396Y-12880817D02*
X19079349Y-12871293D01*
X19079349Y-12871293D02*
X19069825Y-12852246D01*
X19069825Y-12852246D02*
X19069825Y-12842722D01*
X19069825Y-12842722D02*
X19079349Y-12823674D01*
X19079349Y-12823674D02*
X19098396Y-12814150D01*
X19098396Y-12814150D02*
X19126968Y-12814150D01*
X19126968Y-12814150D02*
X19146016Y-12823674D01*
X19269825Y-12947484D02*
X19250777Y-12937960D01*
X19250777Y-12937960D02*
X19241254Y-12918912D01*
X19241254Y-12918912D02*
X19241254Y-12747484D01*
X19374587Y-12947484D02*
X19355539Y-12937960D01*
X19355539Y-12937960D02*
X19346016Y-12928436D01*
X19346016Y-12928436D02*
X19336492Y-12909388D01*
X19336492Y-12909388D02*
X19336492Y-12852246D01*
X19336492Y-12852246D02*
X19346016Y-12833198D01*
X19346016Y-12833198D02*
X19355539Y-12823674D01*
X19355539Y-12823674D02*
X19374587Y-12814150D01*
X19374587Y-12814150D02*
X19403158Y-12814150D01*
X19403158Y-12814150D02*
X19422206Y-12823674D01*
X19422206Y-12823674D02*
X19431730Y-12833198D01*
X19431730Y-12833198D02*
X19441254Y-12852246D01*
X19441254Y-12852246D02*
X19441254Y-12909388D01*
X19441254Y-12909388D02*
X19431730Y-12928436D01*
X19431730Y-12928436D02*
X19422206Y-12937960D01*
X19422206Y-12937960D02*
X19403158Y-12947484D01*
X19403158Y-12947484D02*
X19374587Y-12947484D01*
X19498397Y-12814150D02*
X19574587Y-12814150D01*
X19526968Y-12747484D02*
X19526968Y-12918912D01*
X19526968Y-12918912D02*
X19536492Y-12937960D01*
X19536492Y-12937960D02*
X19555539Y-12947484D01*
X19555539Y-12947484D02*
X19574587Y-12947484D01*
X19631730Y-12937960D02*
X19650777Y-12947484D01*
X19650777Y-12947484D02*
X19688873Y-12947484D01*
X19688873Y-12947484D02*
X19707920Y-12937960D01*
X19707920Y-12937960D02*
X19717444Y-12918912D01*
X19717444Y-12918912D02*
X19717444Y-12909388D01*
X19717444Y-12909388D02*
X19707920Y-12890341D01*
X19707920Y-12890341D02*
X19688873Y-12880817D01*
X19688873Y-12880817D02*
X19660301Y-12880817D01*
X19660301Y-12880817D02*
X19641254Y-12871293D01*
X19641254Y-12871293D02*
X19631730Y-12852246D01*
X19631730Y-12852246D02*
X19631730Y-12842722D01*
X19631730Y-12842722D02*
X19641254Y-12823674D01*
X19641254Y-12823674D02*
X19660301Y-12814150D01*
X19660301Y-12814150D02*
X19688873Y-12814150D01*
X19688873Y-12814150D02*
X19707920Y-12823674D01*
X19784111Y-13023674D02*
X19793635Y-13014150D01*
X19793635Y-13014150D02*
X19812682Y-12985579D01*
X19812682Y-12985579D02*
X19822206Y-12966531D01*
X19822206Y-12966531D02*
X19831730Y-12937960D01*
X19831730Y-12937960D02*
X19841254Y-12890341D01*
X19841254Y-12890341D02*
X19841254Y-12852246D01*
X19841254Y-12852246D02*
X19831730Y-12804627D01*
X19831730Y-12804627D02*
X19822206Y-12776055D01*
X19822206Y-12776055D02*
X19812682Y-12757008D01*
X19812682Y-12757008D02*
X19793635Y-12728436D01*
X19793635Y-12728436D02*
X19784111Y-12718912D01*
X13190000Y-13026000D02*
X13390000Y-13226000D01*
X13390000Y-13026000D02*
X13190000Y-13226000D01*
X13390000Y-13126000D02*
G75*
G02*
X13190000Y-13126000I-100000J0D01*
G01*
X13190000Y-13126000D02*
G75*
G02*
X13390000Y-13126000I100000J0D01*
G01*
X13631729Y-13017484D02*
X13755539Y-13017484D01*
X13755539Y-13017484D02*
X13688872Y-13093674D01*
X13688872Y-13093674D02*
X13717443Y-13093674D01*
X13717443Y-13093674D02*
X13736491Y-13103198D01*
X13736491Y-13103198D02*
X13746015Y-13112722D01*
X13746015Y-13112722D02*
X13755539Y-13131769D01*
X13755539Y-13131769D02*
X13755539Y-13179388D01*
X13755539Y-13179388D02*
X13746015Y-13198436D01*
X13746015Y-13198436D02*
X13736491Y-13207960D01*
X13736491Y-13207960D02*
X13717443Y-13217484D01*
X13717443Y-13217484D02*
X13660301Y-13217484D01*
X13660301Y-13217484D02*
X13641253Y-13207960D01*
X13641253Y-13207960D02*
X13631729Y-13198436D01*
X13841253Y-13198436D02*
X13850777Y-13207960D01*
X13850777Y-13207960D02*
X13841253Y-13217484D01*
X13841253Y-13217484D02*
X13831729Y-13207960D01*
X13831729Y-13207960D02*
X13841253Y-13198436D01*
X13841253Y-13198436D02*
X13841253Y-13217484D01*
X13974586Y-13017484D02*
X13993634Y-13017484D01*
X13993634Y-13017484D02*
X14012682Y-13027008D01*
X14012682Y-13027008D02*
X14022205Y-13036531D01*
X14022205Y-13036531D02*
X14031729Y-13055579D01*
X14031729Y-13055579D02*
X14041253Y-13093674D01*
X14041253Y-13093674D02*
X14041253Y-13141293D01*
X14041253Y-13141293D02*
X14031729Y-13179388D01*
X14031729Y-13179388D02*
X14022205Y-13198436D01*
X14022205Y-13198436D02*
X14012682Y-13207960D01*
X14012682Y-13207960D02*
X13993634Y-13217484D01*
X13993634Y-13217484D02*
X13974586Y-13217484D01*
X13974586Y-13217484D02*
X13955539Y-13207960D01*
X13955539Y-13207960D02*
X13946015Y-13198436D01*
X13946015Y-13198436D02*
X13936491Y-13179388D01*
X13936491Y-13179388D02*
X13926967Y-13141293D01*
X13926967Y-13141293D02*
X13926967Y-13093674D01*
X13926967Y-13093674D02*
X13936491Y-13055579D01*
X13936491Y-13055579D02*
X13946015Y-13036531D01*
X13946015Y-13036531D02*
X13955539Y-13027008D01*
X13955539Y-13027008D02*
X13974586Y-13017484D01*
X14165062Y-13017484D02*
X14184110Y-13017484D01*
X14184110Y-13017484D02*
X14203158Y-13027008D01*
X14203158Y-13027008D02*
X14212682Y-13036531D01*
X14212682Y-13036531D02*
X14222205Y-13055579D01*
X14222205Y-13055579D02*
X14231729Y-13093674D01*
X14231729Y-13093674D02*
X14231729Y-13141293D01*
X14231729Y-13141293D02*
X14222205Y-13179388D01*
X14222205Y-13179388D02*
X14212682Y-13198436D01*
X14212682Y-13198436D02*
X14203158Y-13207960D01*
X14203158Y-13207960D02*
X14184110Y-13217484D01*
X14184110Y-13217484D02*
X14165062Y-13217484D01*
X14165062Y-13217484D02*
X14146015Y-13207960D01*
X14146015Y-13207960D02*
X14136491Y-13198436D01*
X14136491Y-13198436D02*
X14126967Y-13179388D01*
X14126967Y-13179388D02*
X14117443Y-13141293D01*
X14117443Y-13141293D02*
X14117443Y-13093674D01*
X14117443Y-13093674D02*
X14126967Y-13055579D01*
X14126967Y-13055579D02*
X14136491Y-13036531D01*
X14136491Y-13036531D02*
X14146015Y-13027008D01*
X14146015Y-13027008D02*
X14165062Y-13017484D01*
X14355539Y-13017484D02*
X14374586Y-13017484D01*
X14374586Y-13017484D02*
X14393634Y-13027008D01*
X14393634Y-13027008D02*
X14403158Y-13036531D01*
X14403158Y-13036531D02*
X14412682Y-13055579D01*
X14412682Y-13055579D02*
X14422205Y-13093674D01*
X14422205Y-13093674D02*
X14422205Y-13141293D01*
X14422205Y-13141293D02*
X14412682Y-13179388D01*
X14412682Y-13179388D02*
X14403158Y-13198436D01*
X14403158Y-13198436D02*
X14393634Y-13207960D01*
X14393634Y-13207960D02*
X14374586Y-13217484D01*
X14374586Y-13217484D02*
X14355539Y-13217484D01*
X14355539Y-13217484D02*
X14336491Y-13207960D01*
X14336491Y-13207960D02*
X14326967Y-13198436D01*
X14326967Y-13198436D02*
X14317443Y-13179388D01*
X14317443Y-13179388D02*
X14307920Y-13141293D01*
X14307920Y-13141293D02*
X14307920Y-13093674D01*
X14307920Y-13093674D02*
X14317443Y-13055579D01*
X14317443Y-13055579D02*
X14326967Y-13036531D01*
X14326967Y-13036531D02*
X14336491Y-13027008D01*
X14336491Y-13027008D02*
X14355539Y-13017484D01*
X14507920Y-13217484D02*
X14507920Y-13084150D01*
X14507920Y-13103198D02*
X14517443Y-13093674D01*
X14517443Y-13093674D02*
X14536491Y-13084150D01*
X14536491Y-13084150D02*
X14565063Y-13084150D01*
X14565063Y-13084150D02*
X14584110Y-13093674D01*
X14584110Y-13093674D02*
X14593634Y-13112722D01*
X14593634Y-13112722D02*
X14593634Y-13217484D01*
X14593634Y-13112722D02*
X14603158Y-13093674D01*
X14603158Y-13093674D02*
X14622205Y-13084150D01*
X14622205Y-13084150D02*
X14650777Y-13084150D01*
X14650777Y-13084150D02*
X14669824Y-13093674D01*
X14669824Y-13093674D02*
X14679348Y-13112722D01*
X14679348Y-13112722D02*
X14679348Y-13217484D01*
X14774586Y-13217484D02*
X14774586Y-13084150D01*
X14774586Y-13103198D02*
X14784110Y-13093674D01*
X14784110Y-13093674D02*
X14803158Y-13084150D01*
X14803158Y-13084150D02*
X14831729Y-13084150D01*
X14831729Y-13084150D02*
X14850777Y-13093674D01*
X14850777Y-13093674D02*
X14860301Y-13112722D01*
X14860301Y-13112722D02*
X14860301Y-13217484D01*
X14860301Y-13112722D02*
X14869824Y-13093674D01*
X14869824Y-13093674D02*
X14888872Y-13084150D01*
X14888872Y-13084150D02*
X14917443Y-13084150D01*
X14917443Y-13084150D02*
X14936491Y-13093674D01*
X14936491Y-13093674D02*
X14946015Y-13112722D01*
X14946015Y-13112722D02*
X14946015Y-13217484D01*
X15336491Y-13007960D02*
X15165063Y-13265103D01*
X15593634Y-13017484D02*
X15612682Y-13017484D01*
X15612682Y-13017484D02*
X15631729Y-13027008D01*
X15631729Y-13027008D02*
X15641253Y-13036531D01*
X15641253Y-13036531D02*
X15650777Y-13055579D01*
X15650777Y-13055579D02*
X15660301Y-13093674D01*
X15660301Y-13093674D02*
X15660301Y-13141293D01*
X15660301Y-13141293D02*
X15650777Y-13179388D01*
X15650777Y-13179388D02*
X15641253Y-13198436D01*
X15641253Y-13198436D02*
X15631729Y-13207960D01*
X15631729Y-13207960D02*
X15612682Y-13217484D01*
X15612682Y-13217484D02*
X15593634Y-13217484D01*
X15593634Y-13217484D02*
X15574586Y-13207960D01*
X15574586Y-13207960D02*
X15565063Y-13198436D01*
X15565063Y-13198436D02*
X15555539Y-13179388D01*
X15555539Y-13179388D02*
X15546015Y-13141293D01*
X15546015Y-13141293D02*
X15546015Y-13093674D01*
X15546015Y-13093674D02*
X15555539Y-13055579D01*
X15555539Y-13055579D02*
X15565063Y-13036531D01*
X15565063Y-13036531D02*
X15574586Y-13027008D01*
X15574586Y-13027008D02*
X15593634Y-13017484D01*
X15746015Y-13198436D02*
X15755539Y-13207960D01*
X15755539Y-13207960D02*
X15746015Y-13217484D01*
X15746015Y-13217484D02*
X15736491Y-13207960D01*
X15736491Y-13207960D02*
X15746015Y-13198436D01*
X15746015Y-13198436D02*
X15746015Y-13217484D01*
X15946015Y-13217484D02*
X15831729Y-13217484D01*
X15888872Y-13217484D02*
X15888872Y-13017484D01*
X15888872Y-13017484D02*
X15869825Y-13046055D01*
X15869825Y-13046055D02*
X15850777Y-13065103D01*
X15850777Y-13065103D02*
X15831729Y-13074627D01*
X16136491Y-13217484D02*
X16022206Y-13217484D01*
X16079348Y-13217484D02*
X16079348Y-13017484D01*
X16079348Y-13017484D02*
X16060301Y-13046055D01*
X16060301Y-13046055D02*
X16041253Y-13065103D01*
X16041253Y-13065103D02*
X16022206Y-13074627D01*
X16250777Y-13103198D02*
X16231729Y-13093674D01*
X16231729Y-13093674D02*
X16222206Y-13084150D01*
X16222206Y-13084150D02*
X16212682Y-13065103D01*
X16212682Y-13065103D02*
X16212682Y-13055579D01*
X16212682Y-13055579D02*
X16222206Y-13036531D01*
X16222206Y-13036531D02*
X16231729Y-13027008D01*
X16231729Y-13027008D02*
X16250777Y-13017484D01*
X16250777Y-13017484D02*
X16288872Y-13017484D01*
X16288872Y-13017484D02*
X16307920Y-13027008D01*
X16307920Y-13027008D02*
X16317444Y-13036531D01*
X16317444Y-13036531D02*
X16326967Y-13055579D01*
X16326967Y-13055579D02*
X16326967Y-13065103D01*
X16326967Y-13065103D02*
X16317444Y-13084150D01*
X16317444Y-13084150D02*
X16307920Y-13093674D01*
X16307920Y-13093674D02*
X16288872Y-13103198D01*
X16288872Y-13103198D02*
X16250777Y-13103198D01*
X16250777Y-13103198D02*
X16231729Y-13112722D01*
X16231729Y-13112722D02*
X16222206Y-13122246D01*
X16222206Y-13122246D02*
X16212682Y-13141293D01*
X16212682Y-13141293D02*
X16212682Y-13179388D01*
X16212682Y-13179388D02*
X16222206Y-13198436D01*
X16222206Y-13198436D02*
X16231729Y-13207960D01*
X16231729Y-13207960D02*
X16250777Y-13217484D01*
X16250777Y-13217484D02*
X16288872Y-13217484D01*
X16288872Y-13217484D02*
X16307920Y-13207960D01*
X16307920Y-13207960D02*
X16317444Y-13198436D01*
X16317444Y-13198436D02*
X16326967Y-13179388D01*
X16326967Y-13179388D02*
X16326967Y-13141293D01*
X16326967Y-13141293D02*
X16317444Y-13122246D01*
X16317444Y-13122246D02*
X16307920Y-13112722D01*
X16307920Y-13112722D02*
X16288872Y-13103198D01*
X16517444Y-13217484D02*
X16403158Y-13217484D01*
X16460301Y-13217484D02*
X16460301Y-13017484D01*
X16460301Y-13017484D02*
X16441253Y-13046055D01*
X16441253Y-13046055D02*
X16422206Y-13065103D01*
X16422206Y-13065103D02*
X16403158Y-13074627D01*
X16593634Y-13017484D02*
X16593634Y-13055579D01*
X16669825Y-13017484D02*
X16669825Y-13055579D01*
X16965063Y-13293674D02*
X16955539Y-13284150D01*
X16955539Y-13284150D02*
X16936491Y-13255579D01*
X16936491Y-13255579D02*
X16926968Y-13236531D01*
X16926968Y-13236531D02*
X16917444Y-13207960D01*
X16917444Y-13207960D02*
X16907920Y-13160341D01*
X16907920Y-13160341D02*
X16907920Y-13122246D01*
X16907920Y-13122246D02*
X16917444Y-13074627D01*
X16917444Y-13074627D02*
X16926968Y-13046055D01*
X16926968Y-13046055D02*
X16936491Y-13027008D01*
X16936491Y-13027008D02*
X16955539Y-12998436D01*
X16955539Y-12998436D02*
X16965063Y-12988912D01*
X17146015Y-13217484D02*
X17031730Y-13217484D01*
X17088872Y-13217484D02*
X17088872Y-13017484D01*
X17088872Y-13017484D02*
X17069825Y-13046055D01*
X17069825Y-13046055D02*
X17050777Y-13065103D01*
X17050777Y-13065103D02*
X17031730Y-13074627D01*
X17384111Y-13217484D02*
X17384111Y-13017484D01*
X17469825Y-13217484D02*
X17469825Y-13112722D01*
X17469825Y-13112722D02*
X17460301Y-13093674D01*
X17460301Y-13093674D02*
X17441253Y-13084150D01*
X17441253Y-13084150D02*
X17412682Y-13084150D01*
X17412682Y-13084150D02*
X17393634Y-13093674D01*
X17393634Y-13093674D02*
X17384111Y-13103198D01*
X17593634Y-13217484D02*
X17574587Y-13207960D01*
X17574587Y-13207960D02*
X17565063Y-13198436D01*
X17565063Y-13198436D02*
X17555539Y-13179388D01*
X17555539Y-13179388D02*
X17555539Y-13122246D01*
X17555539Y-13122246D02*
X17565063Y-13103198D01*
X17565063Y-13103198D02*
X17574587Y-13093674D01*
X17574587Y-13093674D02*
X17593634Y-13084150D01*
X17593634Y-13084150D02*
X17622206Y-13084150D01*
X17622206Y-13084150D02*
X17641253Y-13093674D01*
X17641253Y-13093674D02*
X17650777Y-13103198D01*
X17650777Y-13103198D02*
X17660301Y-13122246D01*
X17660301Y-13122246D02*
X17660301Y-13179388D01*
X17660301Y-13179388D02*
X17650777Y-13198436D01*
X17650777Y-13198436D02*
X17641253Y-13207960D01*
X17641253Y-13207960D02*
X17622206Y-13217484D01*
X17622206Y-13217484D02*
X17593634Y-13217484D01*
X17774587Y-13217484D02*
X17755539Y-13207960D01*
X17755539Y-13207960D02*
X17746015Y-13188912D01*
X17746015Y-13188912D02*
X17746015Y-13017484D01*
X17926968Y-13207960D02*
X17907920Y-13217484D01*
X17907920Y-13217484D02*
X17869825Y-13217484D01*
X17869825Y-13217484D02*
X17850777Y-13207960D01*
X17850777Y-13207960D02*
X17841253Y-13188912D01*
X17841253Y-13188912D02*
X17841253Y-13112722D01*
X17841253Y-13112722D02*
X17850777Y-13093674D01*
X17850777Y-13093674D02*
X17869825Y-13084150D01*
X17869825Y-13084150D02*
X17907920Y-13084150D01*
X17907920Y-13084150D02*
X17926968Y-13093674D01*
X17926968Y-13093674D02*
X17936492Y-13112722D01*
X17936492Y-13112722D02*
X17936492Y-13131769D01*
X17936492Y-13131769D02*
X17841253Y-13150817D01*
X18003158Y-13293674D02*
X18012682Y-13284150D01*
X18012682Y-13284150D02*
X18031730Y-13255579D01*
X18031730Y-13255579D02*
X18041253Y-13236531D01*
X18041253Y-13236531D02*
X18050777Y-13207960D01*
X18050777Y-13207960D02*
X18060301Y-13160341D01*
X18060301Y-13160341D02*
X18060301Y-13122246D01*
X18060301Y-13122246D02*
X18050777Y-13074627D01*
X18050777Y-13074627D02*
X18041253Y-13046055D01*
X18041253Y-13046055D02*
X18031730Y-13027008D01*
X18031730Y-13027008D02*
X18012682Y-12998436D01*
X18012682Y-12998436D02*
X18003158Y-12988912D01*
M02*
