G04 #@! TF.GenerationSoftware,KiCad,Pcbnew,9.0.0*
G04 #@! TF.CreationDate,2026-03-02T13:57:16-06:00*
G04 #@! TF.ProjectId,eidon-tracker,6569646f-6e2d-4747-9261-636b65722e6b,rev?*
G04 #@! TF.SameCoordinates,Original*
G04 #@! TF.FileFunction,Copper,L1,Top*
G04 #@! TF.FilePolarity,Positive*
%FSLAX46Y46*%
G04 Gerber Fmt 4.6, Leading zero omitted, Abs format (unit mm)*
G04 Created by KiCad (PCBNEW 9.0.0) date 2026-03-02 13:57:16*
%MOMM*%
%LPD*%
G01*
G04 APERTURE LIST*
G04 Aperture macros list*
%AMRoundRect*
0 Rectangle with rounded corners*
0 $1 Rounding radius*
0 $2 $3 $4 $5 $6 $7 $8 $9 X,Y pos of 4 corners*
0 Add a 4 corners polygon primitive as box body*
4,1,4,$2,$3,$4,$5,$6,$7,$8,$9,$2,$3,0*
0 Add four circle primitives for the rounded corners*
1,1,$1+$1,$2,$3*
1,1,$1+$1,$4,$5*
1,1,$1+$1,$6,$7*
1,1,$1+$1,$8,$9*
0 Add four rect primitives between the rounded corners*
20,1,$1+$1,$2,$3,$4,$5,0*
20,1,$1+$1,$4,$5,$6,$7,0*
20,1,$1+$1,$6,$7,$8,$9,0*
20,1,$1+$1,$8,$9,$2,$3,0*%
G04 Aperture macros list end*
G04 #@! TA.AperFunction,SMDPad,CuDef*
%ADD10RoundRect,0.225000X0.250000X-0.225000X0.250000X0.225000X-0.250000X0.225000X-0.250000X-0.225000X0*%
G04 #@! TD*
G04 #@! TA.AperFunction,SMDPad,CuDef*
%ADD11RoundRect,0.500000X-0.875000X-0.500000X0.875000X-0.500000X0.875000X0.500000X-0.875000X0.500000X0*%
G04 #@! TD*
G04 #@! TA.AperFunction,SMDPad,CuDef*
%ADD12RoundRect,0.275000X-0.275000X0.975000X-0.275000X-0.975000X0.275000X-0.975000X0.275000X0.975000X0*%
G04 #@! TD*
G04 #@! TA.AperFunction,SMDPad,CuDef*
%ADD13C,1.700000*%
G04 #@! TD*
G04 #@! TA.AperFunction,ComponentPad*
%ADD14O,1.750000X1.200000*%
G04 #@! TD*
G04 #@! TA.AperFunction,ComponentPad*
%ADD15RoundRect,0.250000X0.625000X-0.350000X0.625000X0.350000X-0.625000X0.350000X-0.625000X-0.350000X0*%
G04 #@! TD*
G04 #@! TA.AperFunction,SMDPad,CuDef*
%ADD16RoundRect,0.250000X-0.262500X-0.450000X0.262500X-0.450000X0.262500X0.450000X-0.262500X0.450000X0*%
G04 #@! TD*
G04 #@! TA.AperFunction,SMDPad,CuDef*
%ADD17R,0.254000X0.685800*%
G04 #@! TD*
G04 #@! TA.AperFunction,SMDPad,CuDef*
%ADD18R,0.685800X0.254000*%
G04 #@! TD*
G04 #@! TA.AperFunction,SMDPad,CuDef*
%ADD19RoundRect,0.250000X0.262500X0.450000X-0.262500X0.450000X-0.262500X-0.450000X0.262500X-0.450000X0*%
G04 #@! TD*
G04 #@! TA.AperFunction,SMDPad,CuDef*
%ADD20R,1.000000X1.800000*%
G04 #@! TD*
G04 #@! TA.AperFunction,ComponentPad*
%ADD21O,2.200000X3.500000*%
G04 #@! TD*
G04 #@! TA.AperFunction,ComponentPad*
%ADD22R,1.500000X2.500000*%
G04 #@! TD*
G04 #@! TA.AperFunction,ComponentPad*
%ADD23O,1.500000X2.500000*%
G04 #@! TD*
G04 #@! TA.AperFunction,ViaPad*
%ADD24C,0.600000*%
G04 #@! TD*
G04 #@! TA.AperFunction,Conductor*
%ADD25C,0.250000*%
G04 #@! TD*
G04 #@! TA.AperFunction,Conductor*
%ADD26C,0.500000*%
G04 #@! TD*
G04 #@! TA.AperFunction,Conductor*
%ADD27C,1.000000*%
G04 #@! TD*
G04 #@! TA.AperFunction,Conductor*
%ADD28C,0.200000*%
G04 #@! TD*
G04 APERTURE END LIST*
D10*
X155250000Y-109700000D03*
X155250000Y-108150000D03*
D11*
X136028400Y-90251500D03*
X136028400Y-92791500D03*
X136028400Y-95331500D03*
X136028400Y-97871500D03*
X136028400Y-100411500D03*
X136028400Y-102951500D03*
X136028400Y-105491500D03*
X152193400Y-105491500D03*
X152193400Y-102951500D03*
X152193400Y-100411500D03*
X152193400Y-97871500D03*
X152193400Y-95331500D03*
X152193400Y-92791500D03*
X152193400Y-90251500D03*
D12*
X142302000Y-103403200D03*
X144842000Y-103403200D03*
D13*
X142810000Y-89230000D03*
X145350000Y-89230000D03*
X142810000Y-91770000D03*
X145350000Y-91770000D03*
X142810000Y-94310000D03*
X145350000Y-94310000D03*
X142810000Y-96850000D03*
X145257400Y-96793200D03*
D14*
X155578185Y-98467448D03*
D15*
X155578185Y-100467448D03*
D16*
X142100000Y-109400000D03*
X143925000Y-109400000D03*
D17*
X160537501Y-106631100D03*
D18*
X160550000Y-105818600D03*
X160550000Y-105318599D03*
X160550000Y-104818599D03*
X160550000Y-104318598D03*
D17*
X160537501Y-103506098D03*
X160037499Y-103506098D03*
X159537500Y-103506098D03*
X159037501Y-103506098D03*
X158537500Y-103506098D03*
X158037500Y-103506098D03*
X157537499Y-103506098D03*
X157037500Y-103506098D03*
X156537501Y-103506098D03*
X156037499Y-103506098D03*
D18*
X156025000Y-104318598D03*
X156025000Y-104818599D03*
X156025000Y-105318599D03*
X156025000Y-105818600D03*
D17*
X156037499Y-106631100D03*
X156537501Y-106631100D03*
X157037500Y-106631100D03*
X157537499Y-106631100D03*
X158037500Y-106631100D03*
X158537500Y-106631100D03*
X159037501Y-106631100D03*
X159537500Y-106631100D03*
X160037499Y-106631100D03*
D16*
X138712500Y-109400000D03*
X140537500Y-109400000D03*
X158000000Y-95071813D03*
X159825000Y-95071813D03*
D19*
X156325000Y-95071813D03*
X154500000Y-95071813D03*
D10*
X162250000Y-105250000D03*
X162250000Y-103700000D03*
D16*
X135300000Y-109400000D03*
X137125000Y-109400000D03*
D20*
X160750000Y-108600000D03*
X158250000Y-108600000D03*
D10*
X153750000Y-109700000D03*
X153750000Y-108150000D03*
D16*
X145525000Y-109400000D03*
X147350000Y-109400000D03*
X148925000Y-109400000D03*
X150750000Y-109400000D03*
D10*
X162250000Y-109050000D03*
X162250000Y-107500000D03*
D21*
X163450000Y-91400000D03*
D22*
X161350000Y-91400000D03*
D23*
X159350000Y-91400000D03*
X157350000Y-91400000D03*
D21*
X155250000Y-91400000D03*
D10*
X156750000Y-109700000D03*
X156750000Y-108150000D03*
D24*
X148750000Y-95450000D03*
X139750000Y-95500000D03*
X140700000Y-99750000D03*
X144050000Y-93000000D03*
X138800000Y-103000000D03*
X140000000Y-88580000D03*
X157700000Y-96900000D03*
X143450000Y-105750000D03*
X159698005Y-88536838D03*
X162250000Y-106400000D03*
X147400000Y-100750000D03*
X158100000Y-110450000D03*
X157050000Y-105300000D03*
X152300000Y-109700000D03*
X161600000Y-110450000D03*
X149200000Y-90700000D03*
X154750000Y-102600000D03*
X138450000Y-100400000D03*
X155700000Y-101750000D03*
X136300000Y-107650000D03*
X138478101Y-90251500D03*
X156358720Y-93900789D03*
X159550000Y-105100000D03*
X138700000Y-107750000D03*
X150000000Y-106900000D03*
X147800000Y-107650000D03*
X162250000Y-102550000D03*
X159750000Y-102500000D03*
D25*
X160550000Y-104318598D02*
X160550000Y-103518597D01*
D26*
X155250000Y-109700000D02*
X156750000Y-109700000D01*
D27*
X154500000Y-95071813D02*
X154500000Y-92150000D01*
X153858500Y-92791500D02*
X152193400Y-92791500D01*
D25*
X158537500Y-105831100D02*
X158550000Y-105818600D01*
D27*
X144842000Y-102808000D02*
X144842000Y-103403200D01*
D25*
X158537500Y-103506098D02*
X158537500Y-104306098D01*
X157168600Y-105818600D02*
X157050000Y-105700000D01*
X145350000Y-91770000D02*
X145280000Y-91770000D01*
D27*
X154500000Y-93723100D02*
X154500000Y-95071813D01*
D25*
X160550000Y-104318598D02*
X158550000Y-104318598D01*
D26*
X153750000Y-109700000D02*
X152300000Y-109700000D01*
D27*
X155250000Y-91400000D02*
X153858500Y-92791500D01*
D25*
X157231402Y-104318598D02*
X157050000Y-104500000D01*
X158550000Y-105818600D02*
X157168600Y-105818600D01*
D26*
X162250000Y-109800000D02*
X162250000Y-109050000D01*
D25*
X158550000Y-104318598D02*
X157231402Y-104318598D01*
X160537501Y-103506098D02*
X160537501Y-102402203D01*
D27*
X152193400Y-92791500D02*
X153568400Y-92791500D01*
D26*
X153750000Y-109700000D02*
X155250000Y-109700000D01*
X157500000Y-110450000D02*
X158100000Y-110450000D01*
D25*
X157050000Y-104500000D02*
X157050000Y-105300000D01*
X160550000Y-103518597D02*
X160537501Y-103506098D01*
X158602746Y-100467448D02*
X155578185Y-100467448D01*
D27*
X149200000Y-90700000D02*
X151291500Y-92791500D01*
D25*
X155618059Y-100507322D02*
X155578185Y-100467448D01*
D26*
X158100000Y-110450000D02*
X161600000Y-110450000D01*
D25*
X157031401Y-105318599D02*
X157050000Y-105300000D01*
X157050000Y-105700000D02*
X157050000Y-105300000D01*
D26*
X162250000Y-106400000D02*
X162250000Y-105250000D01*
D27*
X151291500Y-92791500D02*
X152193400Y-92791500D01*
D25*
X156025000Y-105318599D02*
X157031401Y-105318599D01*
X158537500Y-102502202D02*
X156502746Y-100467448D01*
X145280000Y-91770000D02*
X144050000Y-93000000D01*
D27*
X154500000Y-92150000D02*
X155250000Y-91400000D01*
X153568400Y-92791500D02*
X154500000Y-93723100D01*
D25*
X158537500Y-103506098D02*
X158537500Y-102502202D01*
X160537501Y-102402203D02*
X158602746Y-100467448D01*
X160550000Y-105818600D02*
X158550000Y-105818600D01*
X158537500Y-104306098D02*
X158550000Y-104318598D01*
X156502746Y-100467448D02*
X155578185Y-100467448D01*
X158537500Y-106631100D02*
X158537500Y-105831100D01*
D26*
X156750000Y-109700000D02*
X157500000Y-110450000D01*
X161600000Y-110450000D02*
X162250000Y-109800000D01*
X137125000Y-109400000D02*
X137125000Y-109523292D01*
D25*
X154866957Y-99466957D02*
X159266957Y-99466957D01*
X159266957Y-99466957D02*
X161400000Y-101600000D01*
D26*
X140537500Y-109400000D02*
X140537500Y-108662500D01*
X140537500Y-109400000D02*
X140537500Y-109548292D01*
X148365208Y-110551000D02*
X149599000Y-110551000D01*
X147550000Y-105050000D02*
X147550000Y-102950000D01*
X147350000Y-109400000D02*
X147350000Y-109535792D01*
D25*
X160037499Y-107137499D02*
X160037499Y-106631100D01*
X161200301Y-105318599D02*
X161400000Y-105518298D01*
D26*
X137125000Y-109523292D02*
X138152708Y-110551000D01*
D25*
X160200000Y-107300000D02*
X160037499Y-107137499D01*
D26*
X139386500Y-110551000D02*
X140537500Y-109400000D01*
X144965208Y-110551000D02*
X146199000Y-110551000D01*
D25*
X161400000Y-101600000D02*
X161400000Y-105118900D01*
X154100000Y-97227688D02*
X154100000Y-98700000D01*
D26*
X140537500Y-108662500D02*
X142050000Y-107150000D01*
X146199000Y-110551000D02*
X147350000Y-109400000D01*
D25*
X153417812Y-96545500D02*
X154100000Y-97227688D01*
D26*
X138152708Y-110551000D02*
X139386500Y-110551000D01*
X153750000Y-108150000D02*
X155250000Y-108150000D01*
X147550000Y-102950000D02*
X149600000Y-100900000D01*
X142774000Y-110551000D02*
X143925000Y-109400000D01*
D25*
X152193400Y-95331500D02*
X153407400Y-96545500D01*
X160990501Y-107300000D02*
X160200000Y-107300000D01*
D26*
X150750000Y-109400000D02*
X152000000Y-108150000D01*
D25*
X154100000Y-98700000D02*
X154866957Y-99466957D01*
D26*
X150818400Y-95331500D02*
X152193400Y-95331500D01*
D25*
X161400000Y-105518298D02*
X161400000Y-106890501D01*
D26*
X143925000Y-109400000D02*
X143925000Y-109510792D01*
D25*
X161400000Y-105118900D02*
X161200301Y-105318599D01*
D26*
X145450000Y-107150000D02*
X147550000Y-105050000D01*
X143925000Y-109510792D02*
X144965208Y-110551000D01*
X149599000Y-110551000D02*
X150750000Y-109400000D01*
X149600000Y-100900000D02*
X149600000Y-96549900D01*
X140537500Y-109548292D02*
X141540208Y-110551000D01*
X152000000Y-108150000D02*
X153750000Y-108150000D01*
X147350000Y-109535792D02*
X148365208Y-110551000D01*
D25*
X161400000Y-106890501D02*
X160990501Y-107300000D01*
D26*
X141540208Y-110551000D02*
X142774000Y-110551000D01*
D25*
X153407400Y-96545500D02*
X153417812Y-96545500D01*
X160550000Y-105318599D02*
X161200301Y-105318599D01*
D26*
X142050000Y-107150000D02*
X145450000Y-107150000D01*
X149600000Y-96549900D02*
X150818400Y-95331500D01*
D25*
X154750000Y-102600000D02*
X156100000Y-102600000D01*
X156100000Y-102600000D02*
X156537501Y-103037501D01*
X136039900Y-100400000D02*
X136028400Y-100411500D01*
X138450000Y-100400000D02*
X136039900Y-100400000D01*
X156537501Y-103037501D02*
X156537501Y-103506098D01*
X155700000Y-101750000D02*
X156900000Y-101750000D01*
X158037500Y-102887500D02*
X158037500Y-103506098D01*
X135300000Y-108650000D02*
X135300000Y-109400000D01*
X156900000Y-101750000D02*
X158037500Y-102887500D01*
X136300000Y-107650000D02*
X135300000Y-108650000D01*
D27*
X159532552Y-98467448D02*
X155578185Y-98467448D01*
X159350000Y-91400000D02*
X159350000Y-92532469D01*
X159350000Y-92532469D02*
X161500000Y-94682469D01*
X161500000Y-94682469D02*
X161500000Y-96500000D01*
X161500000Y-96500000D02*
X159532552Y-98467448D01*
X156358720Y-95038093D02*
X156325000Y-95071813D01*
D26*
X136028400Y-90251500D02*
X138478101Y-90251500D01*
D27*
X156358720Y-93900789D02*
X156358720Y-95038093D01*
X158000000Y-95071813D02*
X156325000Y-95071813D01*
X156251000Y-88251000D02*
X157350000Y-89350000D01*
D26*
X157350000Y-91400000D02*
X157350000Y-92350000D01*
D27*
X142302000Y-100948000D02*
X143750000Y-99500000D01*
D26*
X157350000Y-92350000D02*
X159825000Y-94825000D01*
D27*
X159825000Y-94825000D02*
X159825000Y-95071813D01*
X147219919Y-98280081D02*
X147219919Y-89780081D01*
X143750000Y-99500000D02*
X146000000Y-99500000D01*
X157350000Y-89350000D02*
X157350000Y-91400000D01*
X147219919Y-89780081D02*
X148749000Y-88251000D01*
X148749000Y-88251000D02*
X156251000Y-88251000D01*
X142302000Y-103403200D02*
X142302000Y-100948000D01*
X146000000Y-99500000D02*
X147219919Y-98280081D01*
D25*
X138700000Y-109387500D02*
X138712500Y-109400000D01*
X138700000Y-107750000D02*
X138700000Y-109387500D01*
X159831401Y-104818599D02*
X159550000Y-105100000D01*
X160550000Y-104818599D02*
X159831401Y-104818599D01*
X153825000Y-106850000D02*
X154856400Y-105818600D01*
X147250000Y-107650000D02*
X145550000Y-109350000D01*
X150050000Y-106850000D02*
X153825000Y-106850000D01*
X150818400Y-102951500D02*
X150000000Y-103769900D01*
X152193400Y-102951500D02*
X150818400Y-102951500D01*
X147800000Y-107650000D02*
X147250000Y-107650000D01*
X154856400Y-105818600D02*
X156025000Y-105818600D01*
X150000000Y-106900000D02*
X150050000Y-106850000D01*
X145550000Y-109375000D02*
X145525000Y-109400000D01*
X150000000Y-103769900D02*
X150000000Y-106900000D01*
X145550000Y-109350000D02*
X145550000Y-109375000D01*
X145525000Y-109400000D02*
X145525000Y-109050000D01*
X148925000Y-109400000D02*
X148950000Y-109400000D01*
X156037499Y-107062501D02*
X156037499Y-106631100D01*
X152193400Y-100411500D02*
X152182988Y-100411500D01*
X155800000Y-107300000D02*
X156037499Y-107062501D01*
X148925000Y-103669488D02*
X148925000Y-109400000D01*
X152182988Y-100411500D02*
X148925000Y-103669488D01*
X148950000Y-109400000D02*
X151050000Y-107300000D01*
X151050000Y-107300000D02*
X155800000Y-107300000D01*
X160750000Y-108600000D02*
X161150000Y-108600000D01*
X159537500Y-107387500D02*
X160750000Y-108600000D01*
X161150000Y-108600000D02*
X162250000Y-107500000D01*
X159537500Y-106631100D02*
X159537500Y-107387500D01*
X154100000Y-104075000D02*
X154100000Y-99600000D01*
X150818400Y-97871500D02*
X152193400Y-97871500D01*
X148350000Y-103300000D02*
X150300000Y-101350000D01*
X152371500Y-97871500D02*
X152193400Y-97871500D01*
X142100000Y-109400000D02*
X143650000Y-107850000D01*
X154100000Y-99600000D02*
X152371500Y-97871500D01*
X156025000Y-104818599D02*
X154843599Y-104818599D01*
X151000000Y-98000000D02*
X151128500Y-97871500D01*
X143650000Y-107850000D02*
X145900000Y-107850000D01*
X148350000Y-105400000D02*
X148350000Y-103300000D01*
X150300000Y-98389900D02*
X150818400Y-97871500D01*
X145900000Y-107850000D02*
X148350000Y-105400000D01*
X154843599Y-104818599D02*
X154100000Y-104075000D01*
X150300000Y-101350000D02*
X150300000Y-98389900D01*
X159125002Y-102500000D02*
X159037501Y-102587501D01*
X159037501Y-102587501D02*
X159037501Y-103506098D01*
X159750000Y-102500000D02*
X159125002Y-102500000D01*
D26*
X162250000Y-103700000D02*
X162250000Y-102550000D01*
D25*
X159037501Y-106631100D02*
X159037501Y-107812499D01*
X156750000Y-108150000D02*
X157800000Y-108150000D01*
X159037501Y-107812499D02*
X158250000Y-108600000D01*
X157800000Y-108150000D02*
X158250000Y-108600000D01*
D28*
X152272399Y-105412501D02*
X152193400Y-105491500D01*
X152101900Y-105400000D02*
X152193400Y-105491500D01*
D25*
X136076900Y-103000000D02*
X136028400Y-102951500D01*
G04 #@! TA.AperFunction,Conductor*
G36*
X159543334Y-108293770D02*
G01*
X159587681Y-108322271D01*
X159713181Y-108447771D01*
X159746666Y-108509094D01*
X159749500Y-108535452D01*
X159749500Y-109547870D01*
X159749501Y-109547876D01*
X159755908Y-109607483D01*
X159806202Y-109742328D01*
X159806206Y-109742335D01*
X159892452Y-109857544D01*
X159892455Y-109857547D01*
X160007664Y-109943793D01*
X160007671Y-109943797D01*
X160142517Y-109994091D01*
X160142516Y-109994091D01*
X160149444Y-109994835D01*
X160202127Y-110000500D01*
X161297872Y-110000499D01*
X161357483Y-109994091D01*
X161422485Y-109969847D01*
X161492329Y-109943797D01*
X161492329Y-109943796D01*
X161492331Y-109943796D01*
X161520050Y-109923044D01*
X161585511Y-109898627D01*
X161653785Y-109913477D01*
X161659460Y-109916774D01*
X161691509Y-109936543D01*
X161691518Y-109936547D01*
X161852393Y-109989855D01*
X161951683Y-109999999D01*
X161999999Y-109999998D01*
X162000000Y-109999998D01*
X162000000Y-109174000D01*
X162019685Y-109106961D01*
X162072489Y-109061206D01*
X162124000Y-109050000D01*
X162376000Y-109050000D01*
X162443039Y-109069685D01*
X162488794Y-109122489D01*
X162500000Y-109174000D01*
X162500000Y-109999999D01*
X162548308Y-109999999D01*
X162548322Y-109999998D01*
X162647605Y-109989856D01*
X162701916Y-109971859D01*
X162726112Y-109971026D01*
X162749767Y-109965881D01*
X162760400Y-109969847D01*
X162771745Y-109969457D01*
X162792551Y-109981838D01*
X162815231Y-109990298D01*
X162822031Y-109999382D01*
X162831787Y-110005188D01*
X162842595Y-110026851D01*
X162857103Y-110046231D01*
X162857912Y-110057552D01*
X162862980Y-110067709D01*
X162860360Y-110091778D01*
X162862087Y-110115923D01*
X162855938Y-110132408D01*
X162855420Y-110137168D01*
X162849753Y-110148991D01*
X162765711Y-110302904D01*
X162756146Y-110317789D01*
X162638558Y-110474867D01*
X162626972Y-110488237D01*
X162488237Y-110626972D01*
X162474867Y-110638558D01*
X162317789Y-110756146D01*
X162302904Y-110765711D01*
X162130701Y-110859740D01*
X162114609Y-110867090D01*
X161930763Y-110935662D01*
X161913787Y-110940646D01*
X161722068Y-110982351D01*
X161704557Y-110984869D01*
X161523779Y-110997799D01*
X161504417Y-110999184D01*
X161495572Y-110999500D01*
X150511229Y-110999500D01*
X150444190Y-110979815D01*
X150398435Y-110927011D01*
X150388491Y-110857853D01*
X150417516Y-110794297D01*
X150423548Y-110787819D01*
X150574549Y-110636818D01*
X150635872Y-110603333D01*
X150662230Y-110600499D01*
X151062502Y-110600499D01*
X151062508Y-110600499D01*
X151165297Y-110589999D01*
X151331834Y-110534814D01*
X151481156Y-110442712D01*
X151605212Y-110318656D01*
X151697314Y-110169334D01*
X151752499Y-110002797D01*
X151755510Y-109973322D01*
X152775001Y-109973322D01*
X152785144Y-110072607D01*
X152838452Y-110233481D01*
X152838457Y-110233492D01*
X152927424Y-110377728D01*
X152927427Y-110377732D01*
X153047267Y-110497572D01*
X153047271Y-110497575D01*
X153191507Y-110586542D01*
X153191518Y-110586547D01*
X153352393Y-110639855D01*
X153451683Y-110649999D01*
X154000000Y-110649999D01*
X154048308Y-110649999D01*
X154048322Y-110649998D01*
X154147607Y-110639855D01*
X154308481Y-110586547D01*
X154308488Y-110586544D01*
X154434902Y-110508570D01*
X154502295Y-110490129D01*
X154565098Y-110508570D01*
X154691511Y-110586544D01*
X154691518Y-110586547D01*
X154852393Y-110639855D01*
X154951683Y-110649999D01*
X155500000Y-110649999D01*
X155548308Y-110649999D01*
X155548322Y-110649998D01*
X155647607Y-110639855D01*
X155808481Y-110586547D01*
X155808488Y-110586544D01*
X155934902Y-110508570D01*
X156002295Y-110490129D01*
X156065098Y-110508570D01*
X156191511Y-110586544D01*
X156191518Y-110586547D01*
X156352393Y-110639855D01*
X156451683Y-110649999D01*
X156499999Y-110649998D01*
X156500000Y-110649998D01*
X156500000Y-109950000D01*
X155500000Y-109950000D01*
X155500000Y-110649999D01*
X154951683Y-110649999D01*
X154999999Y-110649998D01*
X155000000Y-110649998D01*
X155000000Y-109950000D01*
X154000000Y-109950000D01*
X154000000Y-110649999D01*
X153451683Y-110649999D01*
X153499999Y-110649998D01*
X153500000Y-110649998D01*
X153500000Y-109950000D01*
X152775001Y-109950000D01*
X152775001Y-109973322D01*
X151755510Y-109973322D01*
X151763000Y-109900009D01*
X151762999Y-109499728D01*
X151782683Y-109432690D01*
X151799313Y-109412053D01*
X152274549Y-108936819D01*
X152335872Y-108903334D01*
X152362230Y-108900500D01*
X152780359Y-108900500D01*
X152847398Y-108920185D01*
X152893153Y-108972989D01*
X152903097Y-109042147D01*
X152885897Y-109089597D01*
X152838457Y-109166507D01*
X152838452Y-109166518D01*
X152785144Y-109327393D01*
X152775000Y-109426677D01*
X152775000Y-109450000D01*
X156626000Y-109450000D01*
X156693039Y-109469685D01*
X156738794Y-109522489D01*
X156750000Y-109574000D01*
X156750000Y-109700000D01*
X156876000Y-109700000D01*
X156943039Y-109719685D01*
X156988794Y-109772489D01*
X157000000Y-109824000D01*
X157000000Y-110649999D01*
X157048308Y-110649999D01*
X157048322Y-110649998D01*
X157147607Y-110639855D01*
X157308481Y-110586547D01*
X157308492Y-110586542D01*
X157452728Y-110497575D01*
X157452732Y-110497572D01*
X157572572Y-110377732D01*
X157572575Y-110377728D01*
X157661542Y-110233492D01*
X157661547Y-110233481D01*
X157710585Y-110085495D01*
X157750357Y-110028050D01*
X157814873Y-110001227D01*
X157828274Y-110000499D01*
X158797872Y-110000499D01*
X158857483Y-109994091D01*
X158992331Y-109943796D01*
X159107546Y-109857546D01*
X159193796Y-109742331D01*
X159244091Y-109607483D01*
X159250500Y-109547873D01*
X159250499Y-108535451D01*
X159259145Y-108506005D01*
X159265667Y-108476025D01*
X159269420Y-108471011D01*
X159270183Y-108468413D01*
X159286809Y-108447780D01*
X159412321Y-108322268D01*
X159473642Y-108288786D01*
X159543334Y-108293770D01*
G37*
G04 #@! TD.AperFunction*
G04 #@! TA.AperFunction,Conductor*
G36*
X142289492Y-87770185D02*
G01*
X142335247Y-87822989D01*
X142345191Y-87892147D01*
X142316166Y-87955703D01*
X142278748Y-87984985D01*
X142102180Y-88074951D01*
X141930213Y-88199890D01*
X141779890Y-88350213D01*
X141654951Y-88522179D01*
X141558444Y-88711585D01*
X141558444Y-88711586D01*
X141558443Y-88711588D01*
X141540000Y-88768349D01*
X141492753Y-88913760D01*
X141484102Y-88968382D01*
X141459500Y-89123713D01*
X141459500Y-89336287D01*
X141466603Y-89381132D01*
X141492098Y-89542106D01*
X141492754Y-89546243D01*
X141556103Y-89741211D01*
X141558444Y-89748414D01*
X141654951Y-89937820D01*
X141779890Y-90109786D01*
X141930213Y-90260109D01*
X142102182Y-90385050D01*
X142110946Y-90389516D01*
X142161742Y-90437491D01*
X142178536Y-90505312D01*
X142155998Y-90571447D01*
X142110946Y-90610484D01*
X142102182Y-90614949D01*
X141930213Y-90739890D01*
X141779890Y-90890213D01*
X141654951Y-91062179D01*
X141558444Y-91251585D01*
X141492753Y-91453760D01*
X141459500Y-91663713D01*
X141459500Y-91876286D01*
X141489332Y-92064641D01*
X141492754Y-92086243D01*
X141540589Y-92233464D01*
X141558444Y-92288414D01*
X141654951Y-92477820D01*
X141779890Y-92649786D01*
X141930213Y-92800109D01*
X142102182Y-92925050D01*
X142110946Y-92929516D01*
X142161742Y-92977491D01*
X142178536Y-93045312D01*
X142155998Y-93111447D01*
X142110946Y-93150484D01*
X142102182Y-93154949D01*
X141930213Y-93279890D01*
X141779890Y-93430213D01*
X141654951Y-93602179D01*
X141558444Y-93791585D01*
X141558443Y-93791587D01*
X141558443Y-93791588D01*
X141541209Y-93844629D01*
X141492753Y-93993760D01*
X141459500Y-94203713D01*
X141459500Y-94416286D01*
X141484131Y-94571804D01*
X141492754Y-94626243D01*
X141540589Y-94773464D01*
X141558444Y-94828414D01*
X141654951Y-95017820D01*
X141779890Y-95189786D01*
X141930213Y-95340109D01*
X142102182Y-95465050D01*
X142110946Y-95469516D01*
X142161742Y-95517491D01*
X142178536Y-95585312D01*
X142155998Y-95651447D01*
X142110946Y-95690484D01*
X142102182Y-95694949D01*
X141930213Y-95819890D01*
X141779890Y-95970213D01*
X141654951Y-96142179D01*
X141558444Y-96331585D01*
X141492753Y-96533760D01*
X141472697Y-96660391D01*
X141459500Y-96743713D01*
X141459500Y-96956287D01*
X141462292Y-96973914D01*
X141483585Y-97108357D01*
X141492754Y-97166243D01*
X141557967Y-97366948D01*
X141558444Y-97368414D01*
X141654951Y-97557820D01*
X141779890Y-97729786D01*
X141930213Y-97880109D01*
X142102179Y-98005048D01*
X142102181Y-98005049D01*
X142102184Y-98005051D01*
X142291588Y-98101557D01*
X142493757Y-98167246D01*
X142703713Y-98200500D01*
X142703714Y-98200500D01*
X142916286Y-98200500D01*
X142916287Y-98200500D01*
X143126243Y-98167246D01*
X143328412Y-98101557D01*
X143517816Y-98005051D01*
X143595995Y-97948251D01*
X143689786Y-97880109D01*
X143689788Y-97880106D01*
X143689792Y-97880104D01*
X143840104Y-97729792D01*
X143954016Y-97573004D01*
X144009344Y-97530339D01*
X144078957Y-97524360D01*
X144140752Y-97556965D01*
X144154651Y-97573005D01*
X144227290Y-97672986D01*
X144377613Y-97823309D01*
X144549579Y-97948248D01*
X144549581Y-97948249D01*
X144549584Y-97948251D01*
X144738988Y-98044757D01*
X144941157Y-98110446D01*
X145151113Y-98143700D01*
X145151114Y-98143700D01*
X145363686Y-98143700D01*
X145363687Y-98143700D01*
X145573643Y-98110446D01*
X145676419Y-98077051D01*
X145746256Y-98075057D01*
X145806089Y-98111137D01*
X145836918Y-98173838D01*
X145828954Y-98243252D01*
X145802415Y-98282664D01*
X145621899Y-98463181D01*
X145560576Y-98496666D01*
X145534218Y-98499500D01*
X143651457Y-98499500D01*
X143560722Y-98517549D01*
X143560721Y-98517549D01*
X143458171Y-98537947D01*
X143458159Y-98537950D01*
X143418659Y-98554311D01*
X143418660Y-98554312D01*
X143276088Y-98613366D01*
X143276084Y-98613369D01*
X143112219Y-98722859D01*
X143042540Y-98792538D01*
X142972861Y-98862218D01*
X142972858Y-98862221D01*
X141664221Y-100170858D01*
X141664218Y-100170861D01*
X141618622Y-100216457D01*
X141524859Y-100310219D01*
X141415371Y-100474079D01*
X141415364Y-100474092D01*
X141339950Y-100656160D01*
X141339947Y-100656170D01*
X141301500Y-100849456D01*
X141301500Y-102132477D01*
X141294542Y-102173427D01*
X141271251Y-102239991D01*
X141266157Y-102254549D01*
X141266157Y-102254551D01*
X141251500Y-102384641D01*
X141251500Y-104421758D01*
X141266157Y-104551848D01*
X141266159Y-104551858D01*
X141323532Y-104715818D01*
X141323878Y-104716806D01*
X141416853Y-104864776D01*
X141540424Y-104988347D01*
X141688394Y-105081322D01*
X141853343Y-105139041D01*
X141853349Y-105139041D01*
X141853351Y-105139042D01*
X141894750Y-105143706D01*
X141983442Y-105153699D01*
X141983445Y-105153700D01*
X141983448Y-105153700D01*
X142620555Y-105153700D01*
X142620556Y-105153699D01*
X142750657Y-105139041D01*
X142915606Y-105081322D01*
X143063576Y-104988347D01*
X143187147Y-104864776D01*
X143273379Y-104727538D01*
X143871212Y-104727538D01*
X143957246Y-104864462D01*
X144080737Y-104987953D01*
X144228613Y-105080869D01*
X144393460Y-105138551D01*
X144523469Y-105153199D01*
X144523473Y-105153200D01*
X145160527Y-105153200D01*
X145160530Y-105153199D01*
X145290539Y-105138551D01*
X145455386Y-105080869D01*
X145603262Y-104987953D01*
X145726753Y-104864462D01*
X145726755Y-104864459D01*
X145812786Y-104727538D01*
X144842000Y-103756752D01*
X143871212Y-104727538D01*
X143273379Y-104727538D01*
X143280122Y-104716806D01*
X143337841Y-104551857D01*
X143352500Y-104421752D01*
X143352500Y-104099648D01*
X143792000Y-104099648D01*
X144488448Y-103403200D01*
X144488448Y-103403199D01*
X145195552Y-103403199D01*
X145195552Y-103403200D01*
X145891999Y-104099648D01*
X145892000Y-104099647D01*
X145892000Y-102706752D01*
X145891999Y-102706751D01*
X145195552Y-103403199D01*
X144488448Y-103403199D01*
X143792000Y-102706751D01*
X143792000Y-104099648D01*
X143352500Y-104099648D01*
X143352500Y-102384648D01*
X143340043Y-102274084D01*
X143337842Y-102254551D01*
X143337842Y-102254549D01*
X143337841Y-102254547D01*
X143337841Y-102254543D01*
X143309457Y-102173427D01*
X143308763Y-102169341D01*
X143307523Y-102167412D01*
X143302500Y-102132477D01*
X143302500Y-102078860D01*
X143871212Y-102078860D01*
X144842000Y-103049648D01*
X144842001Y-103049648D01*
X145812787Y-102078860D01*
X145812787Y-102078859D01*
X145726756Y-101941940D01*
X145603262Y-101818446D01*
X145455386Y-101725530D01*
X145290539Y-101667848D01*
X145160530Y-101653200D01*
X144523469Y-101653200D01*
X144393460Y-101667848D01*
X144228613Y-101725530D01*
X144080737Y-101818446D01*
X143957246Y-101941937D01*
X143871212Y-102078860D01*
X143302500Y-102078860D01*
X143302500Y-101413782D01*
X143322185Y-101346743D01*
X143338819Y-101326101D01*
X144128101Y-100536819D01*
X144189424Y-100503334D01*
X144215782Y-100500500D01*
X146098543Y-100500500D01*
X146132649Y-100493715D01*
X146231332Y-100474086D01*
X146291836Y-100462051D01*
X146345165Y-100439961D01*
X146473914Y-100386632D01*
X146637782Y-100277139D01*
X146777139Y-100137782D01*
X146777140Y-100137779D01*
X146784206Y-100130714D01*
X146784209Y-100130710D01*
X147857697Y-99057222D01*
X147857701Y-99057220D01*
X147997058Y-98917863D01*
X148106551Y-98753995D01*
X148164800Y-98613368D01*
X148181970Y-98571917D01*
X148215428Y-98403714D01*
X148220419Y-98378622D01*
X148220419Y-90245863D01*
X148240104Y-90178824D01*
X148256738Y-90158182D01*
X149127101Y-89287819D01*
X149188424Y-89254334D01*
X149214782Y-89251500D01*
X150256359Y-89251500D01*
X150323398Y-89271185D01*
X150369153Y-89323989D01*
X150379097Y-89393147D01*
X150375575Y-89409608D01*
X150337663Y-89542109D01*
X150328513Y-89574086D01*
X150317900Y-89693466D01*
X150317900Y-90809528D01*
X150317900Y-90809533D01*
X150317901Y-90809536D01*
X150319971Y-90832830D01*
X150328513Y-90928915D01*
X150384489Y-91124545D01*
X150384490Y-91124548D01*
X150384491Y-91124549D01*
X150478702Y-91304907D01*
X150478704Y-91304909D01*
X150591738Y-91443535D01*
X150618847Y-91507932D01*
X150606838Y-91576761D01*
X150591738Y-91600257D01*
X150479121Y-91738370D01*
X150384957Y-91918638D01*
X150329009Y-92114171D01*
X150329008Y-92114174D01*
X150318400Y-92233499D01*
X150318400Y-93349500D01*
X150329008Y-93468825D01*
X150329009Y-93468828D01*
X150384957Y-93664361D01*
X150479121Y-93844629D01*
X150591738Y-93982742D01*
X150618847Y-94047138D01*
X150606838Y-94115968D01*
X150591738Y-94139463D01*
X150478705Y-94278087D01*
X150478702Y-94278093D01*
X150384491Y-94458451D01*
X150384491Y-94458452D01*
X150328513Y-94654084D01*
X150322164Y-94725499D01*
X150296619Y-94790532D01*
X150286332Y-94802198D01*
X149017049Y-96071481D01*
X149010021Y-96082001D01*
X149010020Y-96082003D01*
X148934913Y-96194408D01*
X148878343Y-96330982D01*
X148878340Y-96330992D01*
X148849500Y-96475979D01*
X148849500Y-100537770D01*
X148829815Y-100604809D01*
X148813181Y-100625451D01*
X146967048Y-102471583D01*
X146945479Y-102503864D01*
X146924054Y-102535931D01*
X146904485Y-102565218D01*
X146884916Y-102594504D01*
X146884912Y-102594511D01*
X146828343Y-102731082D01*
X146828340Y-102731092D01*
X146799500Y-102876079D01*
X146799500Y-104687770D01*
X146779815Y-104754809D01*
X146763181Y-104775451D01*
X145175451Y-106363181D01*
X145114128Y-106396666D01*
X145087770Y-106399500D01*
X141976080Y-106399500D01*
X141831092Y-106428340D01*
X141831086Y-106428342D01*
X141694508Y-106484914D01*
X141694496Y-106484921D01*
X141645269Y-106517813D01*
X141571588Y-106567044D01*
X141571580Y-106567050D01*
X139954549Y-108184082D01*
X139954545Y-108184086D01*
X139926232Y-108226463D01*
X139926231Y-108226465D01*
X139876595Y-108300750D01*
X139838592Y-108337396D01*
X139806344Y-108357286D01*
X139712680Y-108450951D01*
X139707527Y-108453764D01*
X139704252Y-108458637D01*
X139677205Y-108470320D01*
X139651356Y-108484435D01*
X139645501Y-108484016D01*
X139640111Y-108486345D01*
X139611046Y-108481552D01*
X139581665Y-108479451D01*
X139575464Y-108475684D01*
X139571172Y-108474977D01*
X139552614Y-108461806D01*
X139541881Y-108455287D01*
X139539544Y-108453176D01*
X139443656Y-108357288D01*
X139411280Y-108337318D01*
X139402886Y-108329736D01*
X139390287Y-108309213D01*
X139374183Y-108291309D01*
X139372338Y-108279976D01*
X139366332Y-108270192D01*
X139366828Y-108246118D01*
X139362960Y-108222347D01*
X139367574Y-108209963D01*
X139367773Y-108200337D01*
X139375376Y-108189026D01*
X139382903Y-108168826D01*
X139409389Y-108129187D01*
X139409390Y-108129184D01*
X139409394Y-108129179D01*
X139469737Y-107983497D01*
X139500500Y-107828842D01*
X139500500Y-107671158D01*
X139500500Y-107671155D01*
X139500499Y-107671153D01*
X139484282Y-107589625D01*
X139469737Y-107516503D01*
X139428314Y-107416498D01*
X139409397Y-107370827D01*
X139409390Y-107370814D01*
X139321789Y-107239711D01*
X139321786Y-107239707D01*
X139210292Y-107128213D01*
X139210288Y-107128210D01*
X139079185Y-107040609D01*
X139079172Y-107040602D01*
X138933501Y-106980264D01*
X138933489Y-106980261D01*
X138778845Y-106949500D01*
X138778842Y-106949500D01*
X138621158Y-106949500D01*
X138621155Y-106949500D01*
X138466510Y-106980261D01*
X138466498Y-106980264D01*
X138320827Y-107040602D01*
X138320814Y-107040609D01*
X138189711Y-107128210D01*
X138189707Y-107128213D01*
X138078213Y-107239707D01*
X138078210Y-107239711D01*
X137990609Y-107370814D01*
X137990602Y-107370827D01*
X137930264Y-107516498D01*
X137930261Y-107516510D01*
X137899500Y-107671153D01*
X137899500Y-107828846D01*
X137930261Y-107983489D01*
X137930264Y-107983501D01*
X137990602Y-108129172D01*
X137990609Y-108129185D01*
X138024393Y-108179746D01*
X138027771Y-108190537D01*
X138035019Y-108199220D01*
X138038026Y-108223286D01*
X138045271Y-108246424D01*
X138042279Y-108257327D01*
X138043682Y-108268550D01*
X138033200Y-108290421D01*
X138026786Y-108313804D01*
X138017592Y-108322991D01*
X138013487Y-108331559D01*
X137986390Y-108354174D01*
X137983848Y-108355742D01*
X137916456Y-108374184D01*
X137853653Y-108355744D01*
X137706840Y-108265189D01*
X137706835Y-108265187D01*
X137706834Y-108265186D01*
X137540297Y-108210001D01*
X137540295Y-108210000D01*
X137437516Y-108199500D01*
X137437509Y-108199500D01*
X137124424Y-108199500D01*
X137057385Y-108179815D01*
X137011630Y-108127011D01*
X137001686Y-108057853D01*
X137009863Y-108028048D01*
X137069735Y-107883501D01*
X137069737Y-107883497D01*
X137100500Y-107728842D01*
X137100500Y-107571158D01*
X137100500Y-107571155D01*
X137100499Y-107571153D01*
X137069738Y-107416510D01*
X137069738Y-107416508D01*
X137069737Y-107416503D01*
X137050812Y-107370814D01*
X137009397Y-107270827D01*
X137009395Y-107270823D01*
X137009394Y-107270821D01*
X136947033Y-107177492D01*
X136926156Y-107110816D01*
X136944640Y-107043436D01*
X136996619Y-106996745D01*
X137039155Y-106985089D01*
X137080818Y-106981386D01*
X137276449Y-106925409D01*
X137456807Y-106831198D01*
X137614509Y-106702609D01*
X137743098Y-106544907D01*
X137837309Y-106364549D01*
X137893286Y-106168918D01*
X137903900Y-106049537D01*
X137903899Y-104933464D01*
X137893286Y-104814082D01*
X137837309Y-104618451D01*
X137743098Y-104438093D01*
X137630383Y-104299859D01*
X137603275Y-104235465D01*
X137615284Y-104166635D01*
X137630381Y-104143142D01*
X137743098Y-104004907D01*
X137837309Y-103824549D01*
X137893286Y-103628918D01*
X137903900Y-103509537D01*
X137903899Y-102393464D01*
X137893286Y-102274082D01*
X137843838Y-102101270D01*
X137837310Y-102078454D01*
X137837309Y-102078453D01*
X137837309Y-102078451D01*
X137743098Y-101898093D01*
X137630383Y-101759859D01*
X137603275Y-101695465D01*
X137615284Y-101626635D01*
X137630381Y-101603142D01*
X137743098Y-101464907D01*
X137837309Y-101284549D01*
X137870099Y-101169952D01*
X137907463Y-101110917D01*
X137970817Y-101081453D01*
X138040042Y-101090918D01*
X138058202Y-101100962D01*
X138070821Y-101109394D01*
X138070823Y-101109395D01*
X138070827Y-101109397D01*
X138165316Y-101148535D01*
X138216503Y-101169737D01*
X138331875Y-101192686D01*
X138371153Y-101200499D01*
X138371156Y-101200500D01*
X138371158Y-101200500D01*
X138528844Y-101200500D01*
X138528845Y-101200499D01*
X138683497Y-101169737D01*
X138829179Y-101109394D01*
X138960289Y-101021789D01*
X139071789Y-100910289D01*
X139159394Y-100779179D01*
X139219737Y-100633497D01*
X139250500Y-100478842D01*
X139250500Y-100321158D01*
X139250500Y-100321155D01*
X139250499Y-100321153D01*
X139233798Y-100237193D01*
X139219737Y-100166503D01*
X139212660Y-100149418D01*
X139159397Y-100020827D01*
X139159390Y-100020814D01*
X139071789Y-99889711D01*
X139071786Y-99889707D01*
X138960292Y-99778213D01*
X138960288Y-99778210D01*
X138829185Y-99690609D01*
X138829172Y-99690602D01*
X138683501Y-99630264D01*
X138683489Y-99630261D01*
X138528845Y-99599500D01*
X138528842Y-99599500D01*
X138371158Y-99599500D01*
X138371155Y-99599500D01*
X138216510Y-99630261D01*
X138216498Y-99630264D01*
X138070827Y-99690602D01*
X138070813Y-99690610D01*
X138052677Y-99702728D01*
X137985999Y-99723604D01*
X137918620Y-99705118D01*
X137871931Y-99653138D01*
X137864573Y-99633735D01*
X137837310Y-99538454D01*
X137837309Y-99538453D01*
X137837309Y-99538451D01*
X137743098Y-99358093D01*
X137630383Y-99219859D01*
X137603275Y-99155465D01*
X137615284Y-99086635D01*
X137630381Y-99063142D01*
X137743098Y-98924907D01*
X137837309Y-98744549D01*
X137893286Y-98548918D01*
X137903900Y-98429537D01*
X137903899Y-97313464D01*
X137893286Y-97194082D01*
X137843102Y-97018696D01*
X137837310Y-96998454D01*
X137837309Y-96998453D01*
X137837309Y-96998451D01*
X137743098Y-96818093D01*
X137630383Y-96679859D01*
X137603275Y-96615465D01*
X137615284Y-96546635D01*
X137630381Y-96523142D01*
X137743098Y-96384907D01*
X137837309Y-96204549D01*
X137893286Y-96008918D01*
X137903900Y-95889537D01*
X137903899Y-94773464D01*
X137893286Y-94654082D01*
X137837309Y-94458451D01*
X137743098Y-94278093D01*
X137630383Y-94139859D01*
X137603275Y-94075465D01*
X137615284Y-94006635D01*
X137630381Y-93983142D01*
X137743098Y-93844907D01*
X137837309Y-93664549D01*
X137893286Y-93468918D01*
X137903900Y-93349537D01*
X137903899Y-92233464D01*
X137893286Y-92114082D01*
X137848412Y-91957256D01*
X137837310Y-91918454D01*
X137837309Y-91918453D01*
X137837309Y-91918451D01*
X137743098Y-91738093D01*
X137630383Y-91599859D01*
X137603275Y-91535465D01*
X137615284Y-91466635D01*
X137630381Y-91443142D01*
X137743098Y-91304907D01*
X137837309Y-91124549D01*
X137837311Y-91124543D01*
X137846656Y-91091887D01*
X137861007Y-91069212D01*
X137872158Y-91044797D01*
X137879412Y-91040134D01*
X137884024Y-91032849D01*
X137908358Y-91021532D01*
X137930936Y-91007023D01*
X137943418Y-91005228D01*
X137947378Y-91003387D01*
X137965871Y-91002000D01*
X138173497Y-91002000D01*
X138220945Y-91011437D01*
X138244604Y-91021237D01*
X138244609Y-91021238D01*
X138244612Y-91021239D01*
X138399254Y-91051999D01*
X138399257Y-91052000D01*
X138399259Y-91052000D01*
X138556945Y-91052000D01*
X138556946Y-91051999D01*
X138711598Y-91021237D01*
X138857280Y-90960894D01*
X138988390Y-90873289D01*
X139099890Y-90761789D01*
X139187495Y-90630679D01*
X139247838Y-90484997D01*
X139278601Y-90330342D01*
X139278601Y-90172658D01*
X139278601Y-90172655D01*
X139278600Y-90172653D01*
X139247838Y-90018003D01*
X139247836Y-90017998D01*
X139187498Y-89872327D01*
X139187491Y-89872314D01*
X139099890Y-89741211D01*
X139099887Y-89741207D01*
X138988393Y-89629713D01*
X138988389Y-89629710D01*
X138857286Y-89542109D01*
X138857273Y-89542102D01*
X138711602Y-89481764D01*
X138711590Y-89481761D01*
X138556946Y-89451000D01*
X138556943Y-89451000D01*
X138399259Y-89451000D01*
X138399256Y-89451000D01*
X138244612Y-89481760D01*
X138244607Y-89481762D01*
X138244605Y-89481762D01*
X138244604Y-89481763D01*
X138220945Y-89491562D01*
X138212771Y-89493188D01*
X138208432Y-89495977D01*
X138173497Y-89501000D01*
X137965871Y-89501000D01*
X137898832Y-89481315D01*
X137853077Y-89428511D01*
X137846656Y-89411113D01*
X137837311Y-89378456D01*
X137837309Y-89378453D01*
X137837309Y-89378451D01*
X137743098Y-89198093D01*
X137662093Y-89098748D01*
X137614509Y-89040390D01*
X137459208Y-88913760D01*
X137456807Y-88911802D01*
X137276449Y-88817591D01*
X137276448Y-88817590D01*
X137276445Y-88817589D01*
X137146339Y-88780362D01*
X137080818Y-88761614D01*
X137080815Y-88761613D01*
X137080813Y-88761613D01*
X137014502Y-88755717D01*
X136961437Y-88751000D01*
X136961432Y-88751000D01*
X135095371Y-88751000D01*
X135095365Y-88751000D01*
X135095364Y-88751001D01*
X135083716Y-88752036D01*
X134975984Y-88761613D01*
X134775337Y-88819025D01*
X134762290Y-88818934D01*
X134750068Y-88823493D01*
X134728029Y-88818697D01*
X134705469Y-88818542D01*
X134694541Y-88811412D01*
X134681796Y-88808639D01*
X134665846Y-88792689D01*
X134646954Y-88780362D01*
X134641616Y-88768458D01*
X134632392Y-88759233D01*
X134627597Y-88737189D01*
X134618369Y-88716607D01*
X134619974Y-88702143D01*
X134617542Y-88690959D01*
X134625043Y-88656479D01*
X134632912Y-88635381D01*
X134640259Y-88619298D01*
X134663902Y-88575998D01*
X134734291Y-88447089D01*
X134743845Y-88432221D01*
X134861448Y-88275123D01*
X134873020Y-88261769D01*
X135011769Y-88123020D01*
X135025123Y-88111448D01*
X135182221Y-87993845D01*
X135197089Y-87984291D01*
X135369298Y-87890258D01*
X135385385Y-87882911D01*
X135569248Y-87814333D01*
X135586199Y-87809356D01*
X135777938Y-87767646D01*
X135795436Y-87765130D01*
X135995582Y-87750816D01*
X136004428Y-87750500D01*
X136065892Y-87750500D01*
X142222453Y-87750500D01*
X142289492Y-87770185D01*
G37*
G04 #@! TD.AperFunction*
G04 #@! TA.AperFunction,Conductor*
G36*
X162443039Y-105269685D02*
G01*
X162488794Y-105322489D01*
X162500000Y-105374000D01*
X162500000Y-106199999D01*
X162548308Y-106199999D01*
X162548322Y-106199998D01*
X162647607Y-106189855D01*
X162808481Y-106136547D01*
X162808487Y-106136544D01*
X162810398Y-106135366D01*
X162811891Y-106134957D01*
X162815032Y-106133493D01*
X162815282Y-106134029D01*
X162877789Y-106116923D01*
X162944454Y-106137843D01*
X162989226Y-106191483D01*
X162999499Y-106240902D01*
X162999499Y-106508510D01*
X162979814Y-106575549D01*
X162927010Y-106621304D01*
X162857852Y-106631248D01*
X162815343Y-106615840D01*
X162815245Y-106616051D01*
X162812872Y-106614944D01*
X162810404Y-106614050D01*
X162808701Y-106612999D01*
X162808698Y-106612997D01*
X162808697Y-106612997D01*
X162808694Y-106612996D01*
X162647709Y-106559651D01*
X162548352Y-106549500D01*
X162548345Y-106549500D01*
X162149500Y-106549500D01*
X162082461Y-106529815D01*
X162036706Y-106477011D01*
X162025500Y-106425500D01*
X162025500Y-105456691D01*
X162025499Y-105456687D01*
X162013864Y-105398191D01*
X162015741Y-105377207D01*
X162012743Y-105356353D01*
X162018792Y-105343105D01*
X162020091Y-105328599D01*
X162033016Y-105311960D01*
X162041768Y-105292797D01*
X162054019Y-105284923D01*
X162062954Y-105273422D01*
X162082822Y-105266412D01*
X162100546Y-105255023D01*
X162125129Y-105251488D01*
X162128844Y-105250178D01*
X162135481Y-105250000D01*
X162376000Y-105250000D01*
X162443039Y-105269685D01*
G37*
G04 #@! TD.AperFunction*
G04 #@! TA.AperFunction,Conductor*
G36*
X158596922Y-104241035D02*
G01*
X158611794Y-104250591D01*
X158612162Y-104250867D01*
X158614795Y-104252837D01*
X158632888Y-104276998D01*
X158646329Y-104290438D01*
X158647711Y-104296792D01*
X158656675Y-104308762D01*
X158663813Y-104348311D01*
X158664500Y-104348998D01*
X158712328Y-104348998D01*
X158712339Y-104348997D01*
X158771896Y-104342593D01*
X158796362Y-104342390D01*
X158802681Y-104342963D01*
X158803018Y-104343089D01*
X158862628Y-104349498D01*
X158874682Y-104349497D01*
X158880269Y-104350005D01*
X158907742Y-104360854D01*
X158936090Y-104369175D01*
X158939877Y-104373544D01*
X158945254Y-104375668D01*
X158962502Y-104399650D01*
X158981850Y-104421974D01*
X158982673Y-104427696D01*
X158986050Y-104432391D01*
X158987593Y-104461890D01*
X158991801Y-104491131D01*
X158989398Y-104496392D01*
X158989701Y-104502165D01*
X158975052Y-104527814D01*
X158962782Y-104554690D01*
X158956744Y-104561177D01*
X158928210Y-104589711D01*
X158840609Y-104720814D01*
X158840602Y-104720827D01*
X158780264Y-104866498D01*
X158780261Y-104866510D01*
X158749500Y-105021153D01*
X158749500Y-105178846D01*
X158780261Y-105333489D01*
X158780264Y-105333501D01*
X158840602Y-105479172D01*
X158840609Y-105479185D01*
X158920629Y-105598943D01*
X158921655Y-105602221D01*
X158924170Y-105604563D01*
X158932021Y-105635326D01*
X158941507Y-105665621D01*
X158940598Y-105668933D01*
X158941448Y-105672263D01*
X158931420Y-105702389D01*
X158923022Y-105733001D01*
X158920466Y-105735296D01*
X158919381Y-105738557D01*
X158894657Y-105758479D01*
X158871043Y-105779691D01*
X158866859Y-105780878D01*
X158864977Y-105782396D01*
X158830779Y-105791124D01*
X158798402Y-105794604D01*
X158771895Y-105794604D01*
X158712328Y-105788200D01*
X158664500Y-105788200D01*
X158663213Y-105789486D01*
X158664183Y-105793948D01*
X158653455Y-105822695D01*
X158644815Y-105852121D01*
X158640909Y-105856315D01*
X158639755Y-105859409D01*
X158614794Y-105884361D01*
X158611794Y-105886606D01*
X158546326Y-105911013D01*
X158478055Y-105896149D01*
X158463185Y-105886590D01*
X158460185Y-105884344D01*
X158442097Y-105860179D01*
X158428658Y-105846736D01*
X158427276Y-105840379D01*
X158418316Y-105828409D01*
X158411186Y-105788886D01*
X158410500Y-105788200D01*
X158362666Y-105788200D01*
X158303095Y-105794604D01*
X158276588Y-105794604D01*
X158269367Y-105793827D01*
X158212373Y-105787700D01*
X158212365Y-105787700D01*
X157862630Y-105787700D01*
X157862620Y-105787701D01*
X157800748Y-105794352D01*
X157774242Y-105794352D01*
X157771982Y-105794109D01*
X157712372Y-105787700D01*
X157712364Y-105787700D01*
X157362629Y-105787700D01*
X157362619Y-105787701D01*
X157300748Y-105794352D01*
X157274242Y-105794352D01*
X157271983Y-105794109D01*
X157212373Y-105787700D01*
X157212367Y-105787700D01*
X156992399Y-105787700D01*
X156988417Y-105786530D01*
X156984368Y-105787440D01*
X156955174Y-105776769D01*
X156925360Y-105768015D01*
X156922642Y-105764878D01*
X156918744Y-105763454D01*
X156899950Y-105738691D01*
X156879605Y-105715211D01*
X156878298Y-105710160D01*
X156876505Y-105707798D01*
X156873606Y-105692027D01*
X156868776Y-105673361D01*
X156868399Y-105668536D01*
X156868399Y-105643728D01*
X156861991Y-105584117D01*
X156861751Y-105583475D01*
X156861161Y-105575915D01*
X156861495Y-105574329D01*
X156861495Y-105552996D01*
X156867899Y-105493438D01*
X156867900Y-105493426D01*
X156867900Y-105445599D01*
X156866617Y-105444316D01*
X156862178Y-105445283D01*
X156833421Y-105434559D01*
X156803979Y-105425914D01*
X156799796Y-105422020D01*
X156796712Y-105420870D01*
X156771755Y-105395914D01*
X156769509Y-105392914D01*
X156745088Y-105327451D01*
X156759937Y-105259177D01*
X156769517Y-105244273D01*
X156771771Y-105241263D01*
X156795903Y-105223207D01*
X156809340Y-105209770D01*
X156815718Y-105208382D01*
X156827716Y-105199406D01*
X156867214Y-105192284D01*
X156867900Y-105191599D01*
X156867900Y-105143771D01*
X156867899Y-105143759D01*
X156861495Y-105084203D01*
X156861495Y-105057688D01*
X156861989Y-105053084D01*
X156861991Y-105053082D01*
X156868400Y-104993472D01*
X156868399Y-104643727D01*
X156861991Y-104584116D01*
X156861990Y-104584114D01*
X156861747Y-104581849D01*
X156861407Y-104559023D01*
X156861834Y-104553500D01*
X156861991Y-104553081D01*
X156868400Y-104493471D01*
X156868399Y-104468706D01*
X156868770Y-104463925D01*
X156879539Y-104435561D01*
X156888085Y-104406458D01*
X156891817Y-104403223D01*
X156893571Y-104398605D01*
X156917968Y-104380563D01*
X156940889Y-104360703D01*
X156946467Y-104359489D01*
X156949749Y-104357063D01*
X156961021Y-104356323D01*
X156992400Y-104349497D01*
X157212371Y-104349497D01*
X157212372Y-104349497D01*
X157271983Y-104343089D01*
X157271986Y-104343087D01*
X157274243Y-104342845D01*
X157300753Y-104342845D01*
X157303013Y-104343087D01*
X157303016Y-104343089D01*
X157362626Y-104349498D01*
X157712371Y-104349497D01*
X157712375Y-104349496D01*
X157712384Y-104349496D01*
X157728948Y-104347715D01*
X157771982Y-104343089D01*
X157771986Y-104343087D01*
X157774241Y-104342845D01*
X157800755Y-104342845D01*
X157803013Y-104343087D01*
X157803017Y-104343089D01*
X157862627Y-104349498D01*
X158212372Y-104349497D01*
X158271983Y-104343089D01*
X158271983Y-104343088D01*
X158276595Y-104342593D01*
X158303105Y-104342594D01*
X158362655Y-104348997D01*
X158362672Y-104348998D01*
X158410500Y-104348998D01*
X158411782Y-104347715D01*
X158410816Y-104343276D01*
X158421539Y-104314519D01*
X158430185Y-104285077D01*
X158434078Y-104280894D01*
X158435229Y-104277810D01*
X158460185Y-104252853D01*
X158463185Y-104250607D01*
X158528648Y-104226186D01*
X158596922Y-104241035D01*
G37*
G04 #@! TD.AperFunction*
G04 #@! TA.AperFunction,Conductor*
G36*
X159023544Y-100112142D02*
G01*
X159044186Y-100128776D01*
X160738181Y-101822771D01*
X160771666Y-101884094D01*
X160774500Y-101910452D01*
X160774500Y-102288288D01*
X160754815Y-102355327D01*
X160702011Y-102401082D01*
X160632853Y-102411026D01*
X160569297Y-102382001D01*
X160531523Y-102323223D01*
X160528883Y-102312480D01*
X160519738Y-102266508D01*
X160519737Y-102266507D01*
X160519737Y-102266503D01*
X160519735Y-102266498D01*
X160459397Y-102120827D01*
X160459390Y-102120814D01*
X160371789Y-101989711D01*
X160371786Y-101989707D01*
X160260292Y-101878213D01*
X160260288Y-101878210D01*
X160129185Y-101790609D01*
X160129172Y-101790602D01*
X159983501Y-101730264D01*
X159983489Y-101730261D01*
X159828845Y-101699500D01*
X159828842Y-101699500D01*
X159671158Y-101699500D01*
X159671155Y-101699500D01*
X159516510Y-101730261D01*
X159516498Y-101730264D01*
X159370827Y-101790602D01*
X159370815Y-101790609D01*
X159276541Y-101853602D01*
X159261239Y-101858773D01*
X159249987Y-101867048D01*
X159222386Y-101871906D01*
X159215437Y-101874255D01*
X159211543Y-101874500D01*
X159186609Y-101874500D01*
X159063395Y-101874500D01*
X159002973Y-101886518D01*
X158942550Y-101898537D01*
X158942548Y-101898537D01*
X158942547Y-101898538D01*
X158942545Y-101898538D01*
X158914752Y-101910051D01*
X158828720Y-101945685D01*
X158828711Y-101945690D01*
X158785598Y-101974499D01*
X158785597Y-101974500D01*
X158726270Y-102014140D01*
X158661960Y-102078451D01*
X158639144Y-102101267D01*
X158639141Y-102101270D01*
X158638771Y-102101640D01*
X158638768Y-102101643D01*
X158551643Y-102188768D01*
X158517416Y-102239991D01*
X158513028Y-102246557D01*
X158513021Y-102246566D01*
X158504088Y-102259935D01*
X158450473Y-102304737D01*
X158381147Y-102313440D01*
X158318122Y-102283281D01*
X158313309Y-102278719D01*
X157390198Y-101355608D01*
X157390178Y-101355586D01*
X157298733Y-101264141D01*
X157253325Y-101233801D01*
X157253324Y-101233800D01*
X157247509Y-101229915D01*
X157196286Y-101195688D01*
X157115792Y-101162347D01*
X157082452Y-101148537D01*
X157082446Y-101148535D01*
X157033540Y-101138807D01*
X156971629Y-101106422D01*
X156937055Y-101045706D01*
X156940027Y-100978183D01*
X156942691Y-100970144D01*
X156953184Y-100867434D01*
X156953185Y-100867421D01*
X156953185Y-100717448D01*
X155858515Y-100717448D01*
X155878260Y-100697703D01*
X155927629Y-100612193D01*
X155953185Y-100516818D01*
X155953185Y-100418078D01*
X155927629Y-100322703D01*
X155878260Y-100237193D01*
X155858515Y-100217448D01*
X156953184Y-100217448D01*
X156953184Y-100216457D01*
X156972869Y-100149418D01*
X157025673Y-100103663D01*
X157077184Y-100092457D01*
X158956505Y-100092457D01*
X159023544Y-100112142D01*
G37*
G04 #@! TD.AperFunction*
G04 #@! TA.AperFunction,Conductor*
G36*
X155500000Y-93347486D02*
G01*
X155480315Y-93414525D01*
X155479104Y-93416374D01*
X155472092Y-93426868D01*
X155472084Y-93426882D01*
X155396670Y-93608949D01*
X155396667Y-93608959D01*
X155358220Y-93802245D01*
X155358220Y-93885887D01*
X155338535Y-93952926D01*
X155285731Y-93998681D01*
X155216573Y-94008625D01*
X155169124Y-93991426D01*
X155081628Y-93937458D01*
X155081619Y-93937454D01*
X154915197Y-93882307D01*
X154915190Y-93882306D01*
X154812486Y-93871813D01*
X154750000Y-93871813D01*
X154750000Y-96271812D01*
X154812472Y-96271812D01*
X154812486Y-96271811D01*
X154915197Y-96261318D01*
X155081619Y-96206171D01*
X155081624Y-96206169D01*
X155230842Y-96114130D01*
X155324464Y-96020508D01*
X155385787Y-95987023D01*
X155455479Y-95992007D01*
X155499827Y-96020508D01*
X155593844Y-96114525D01*
X155743166Y-96206627D01*
X155909703Y-96261812D01*
X156012491Y-96272313D01*
X156637508Y-96272312D01*
X156637516Y-96272311D01*
X156637519Y-96272311D01*
X156693802Y-96266561D01*
X156740297Y-96261812D01*
X156906834Y-96206627D01*
X157056156Y-96114525D01*
X157062049Y-96108632D01*
X157088976Y-96093928D01*
X157114795Y-96077336D01*
X157120995Y-96076444D01*
X157123372Y-96075147D01*
X157149730Y-96072313D01*
X157175270Y-96072313D01*
X157242309Y-96091998D01*
X157262951Y-96108632D01*
X157268844Y-96114525D01*
X157418166Y-96206627D01*
X157584703Y-96261812D01*
X157687491Y-96272313D01*
X158312508Y-96272312D01*
X158312516Y-96272311D01*
X158312519Y-96272311D01*
X158368802Y-96266561D01*
X158415297Y-96261812D01*
X158581834Y-96206627D01*
X158731156Y-96114525D01*
X158824819Y-96020862D01*
X158886142Y-95987377D01*
X158955834Y-95992361D01*
X159000181Y-96020862D01*
X159093844Y-96114525D01*
X159243166Y-96206627D01*
X159409703Y-96261812D01*
X159512491Y-96272313D01*
X160013404Y-96272312D01*
X160080443Y-96291996D01*
X160126198Y-96344800D01*
X160136142Y-96413959D01*
X160107117Y-96477515D01*
X160101085Y-96483993D01*
X159154451Y-97430629D01*
X159093128Y-97464114D01*
X159066770Y-97466948D01*
X156343422Y-97466948D01*
X156287126Y-97453432D01*
X156275634Y-97447576D01*
X156163649Y-97411190D01*
X156110886Y-97394046D01*
X156110884Y-97394045D01*
X156110883Y-97394045D01*
X155979456Y-97373229D01*
X155939796Y-97366948D01*
X155216574Y-97366948D01*
X155184377Y-97372047D01*
X155045486Y-97394045D01*
X154887818Y-97445275D01*
X154859698Y-97446078D01*
X154831853Y-97450082D01*
X154825241Y-97447062D01*
X154817977Y-97447270D01*
X154793887Y-97432743D01*
X154768297Y-97421057D01*
X154764367Y-97414943D01*
X154758144Y-97411190D01*
X154745731Y-97385943D01*
X154730523Y-97362279D01*
X154729046Y-97352008D01*
X154727316Y-97348489D01*
X154725500Y-97327344D01*
X154725500Y-97295429D01*
X154725501Y-97295408D01*
X154725501Y-97166079D01*
X154701464Y-97045243D01*
X154701463Y-97045237D01*
X154654312Y-96931403D01*
X154585858Y-96828955D01*
X154585855Y-96828951D01*
X154327075Y-96570172D01*
X154227037Y-96470135D01*
X154193553Y-96408813D01*
X154198537Y-96339122D01*
X154227038Y-96294774D01*
X154250000Y-96271812D01*
X154250000Y-93871813D01*
X154249999Y-93871812D01*
X154187528Y-93871813D01*
X154187509Y-93871814D01*
X154106068Y-93880134D01*
X154037375Y-93867364D01*
X153986491Y-93819483D01*
X153969571Y-93751693D01*
X153983559Y-93699364D01*
X154001842Y-93664363D01*
X154057790Y-93468828D01*
X154057791Y-93468824D01*
X154064077Y-93398116D01*
X154089620Y-93333083D01*
X154146268Y-93292183D01*
X154216035Y-93288402D01*
X154260476Y-93308777D01*
X154411416Y-93418442D01*
X154635815Y-93532780D01*
X154875329Y-93610602D01*
X155000000Y-93630348D01*
X155000000Y-92108240D01*
X155031233Y-92121178D01*
X155176131Y-92150000D01*
X155323869Y-92150000D01*
X155468767Y-92121178D01*
X155500000Y-92108240D01*
X155500000Y-93347486D01*
G37*
G04 #@! TD.AperFunction*
G04 #@! TA.AperFunction,Conductor*
G36*
X144151444Y-89883999D02*
G01*
X144190486Y-89929056D01*
X144194951Y-89937820D01*
X144319890Y-90109786D01*
X144470213Y-90260109D01*
X144642179Y-90385048D01*
X144642181Y-90385049D01*
X144642184Y-90385051D01*
X144651493Y-90389794D01*
X144702290Y-90437766D01*
X144719087Y-90505587D01*
X144696552Y-90571722D01*
X144651505Y-90610760D01*
X144642446Y-90615376D01*
X144642440Y-90615380D01*
X144588282Y-90654727D01*
X144588282Y-90654728D01*
X145439096Y-91505542D01*
X145472581Y-91566865D01*
X145467597Y-91636557D01*
X145439096Y-91680904D01*
X145350000Y-91770000D01*
X145439095Y-91859095D01*
X145472580Y-91920418D01*
X145467596Y-91990110D01*
X145439095Y-92034457D01*
X144588282Y-92885269D01*
X144588282Y-92885270D01*
X144642452Y-92924626D01*
X144642451Y-92924626D01*
X144651495Y-92929234D01*
X144702292Y-92977208D01*
X144719087Y-93045029D01*
X144696550Y-93111164D01*
X144651499Y-93150202D01*
X144642182Y-93154949D01*
X144470213Y-93279890D01*
X144319890Y-93430213D01*
X144194949Y-93602182D01*
X144190484Y-93610946D01*
X144142509Y-93661742D01*
X144074688Y-93678536D01*
X144008553Y-93655998D01*
X143969516Y-93610946D01*
X143965050Y-93602182D01*
X143840109Y-93430213D01*
X143689786Y-93279890D01*
X143517820Y-93154951D01*
X143517115Y-93154591D01*
X143509054Y-93150485D01*
X143458259Y-93102512D01*
X143441463Y-93034692D01*
X143463999Y-92968556D01*
X143509054Y-92929515D01*
X143517816Y-92925051D01*
X143615847Y-92853828D01*
X143689786Y-92800109D01*
X143689788Y-92800106D01*
X143689792Y-92800104D01*
X143840104Y-92649792D01*
X143840106Y-92649788D01*
X143840109Y-92649786D01*
X143908680Y-92555405D01*
X143965051Y-92477816D01*
X143969793Y-92468508D01*
X144017763Y-92417711D01*
X144085583Y-92400911D01*
X144151719Y-92423445D01*
X144190763Y-92468500D01*
X144195373Y-92477547D01*
X144234728Y-92531716D01*
X144996446Y-91770000D01*
X144234728Y-91008282D01*
X144234727Y-91008282D01*
X144195380Y-91062440D01*
X144195376Y-91062446D01*
X144190760Y-91071505D01*
X144142781Y-91122297D01*
X144074959Y-91139087D01*
X144008826Y-91116543D01*
X143969794Y-91071493D01*
X143965051Y-91062184D01*
X143965049Y-91062181D01*
X143965048Y-91062179D01*
X143840109Y-90890213D01*
X143689786Y-90739890D01*
X143517820Y-90614951D01*
X143517115Y-90614591D01*
X143509054Y-90610485D01*
X143458259Y-90562512D01*
X143441463Y-90494692D01*
X143463999Y-90428556D01*
X143509054Y-90389515D01*
X143517816Y-90385051D01*
X143593112Y-90330346D01*
X143689786Y-90260109D01*
X143689788Y-90260106D01*
X143689792Y-90260104D01*
X143840104Y-90109792D01*
X143840106Y-90109788D01*
X143840109Y-90109786D01*
X143965048Y-89937820D01*
X143965047Y-89937820D01*
X143965051Y-89937816D01*
X143969514Y-89929054D01*
X144017488Y-89878259D01*
X144085308Y-89861463D01*
X144151444Y-89883999D01*
G37*
G04 #@! TD.AperFunction*
G04 #@! TA.AperFunction,Conductor*
G36*
X153347285Y-91732826D02*
G01*
X153405801Y-91771005D01*
X153434387Y-91834760D01*
X153423966Y-91903848D01*
X153399211Y-91939240D01*
X152457857Y-92880595D01*
X152396534Y-92914080D01*
X152326843Y-92909096D01*
X152282495Y-92880595D01*
X152104304Y-92702404D01*
X152070819Y-92641081D01*
X152075803Y-92571389D01*
X152104304Y-92527042D01*
X152843029Y-91788318D01*
X152904352Y-91754833D01*
X152930709Y-91751999D01*
X153126436Y-91751999D01*
X153245818Y-91741386D01*
X153277418Y-91732344D01*
X153347285Y-91732826D01*
G37*
G04 #@! TD.AperFunction*
G04 #@! TA.AperFunction,Conductor*
G36*
X154528822Y-91181233D02*
G01*
X154500000Y-91326131D01*
X154500000Y-91473869D01*
X154528822Y-91618767D01*
X154541759Y-91650000D01*
X153887818Y-91650000D01*
X153820779Y-91630315D01*
X153775024Y-91577511D01*
X153765080Y-91508353D01*
X153791716Y-91447640D01*
X153908098Y-91304907D01*
X153908099Y-91304906D01*
X153954233Y-91216588D01*
X154002719Y-91166281D01*
X154064141Y-91150000D01*
X154541759Y-91150000D01*
X154528822Y-91181233D01*
G37*
G04 #@! TD.AperFunction*
G04 #@! TA.AperFunction,Conductor*
G36*
X162942539Y-87770185D02*
G01*
X162988294Y-87822989D01*
X162999500Y-87874500D01*
X162999499Y-89123420D01*
X162979814Y-89190460D01*
X162927010Y-89236214D01*
X162913818Y-89241351D01*
X162835616Y-89266760D01*
X162611151Y-89381132D01*
X162407350Y-89529200D01*
X162315487Y-89621062D01*
X162254163Y-89654546D01*
X162214553Y-89656669D01*
X162205522Y-89655698D01*
X162147873Y-89649500D01*
X162147865Y-89649500D01*
X160552129Y-89649500D01*
X160552123Y-89649501D01*
X160492516Y-89655908D01*
X160357671Y-89706202D01*
X160357664Y-89706206D01*
X160242455Y-89792452D01*
X160213765Y-89830777D01*
X160157830Y-89872648D01*
X160088139Y-89877631D01*
X160041613Y-89856783D01*
X160005405Y-89830476D01*
X159830029Y-89741117D01*
X159642826Y-89680290D01*
X159448422Y-89649500D01*
X159448417Y-89649500D01*
X159251583Y-89649500D01*
X159251578Y-89649500D01*
X159057173Y-89680290D01*
X158869970Y-89741117D01*
X158694594Y-89830476D01*
X158547386Y-89937430D01*
X158481579Y-89960910D01*
X158413525Y-89945085D01*
X158364830Y-89894979D01*
X158350500Y-89837112D01*
X158350500Y-89251458D01*
X158350499Y-89251457D01*
X158328787Y-89142300D01*
X158328787Y-89142296D01*
X158312053Y-89058172D01*
X158312052Y-89058165D01*
X158236632Y-88876086D01*
X158236631Y-88876085D01*
X158236628Y-88876079D01*
X158127140Y-88712219D01*
X158127137Y-88712215D01*
X157377101Y-87962181D01*
X157343616Y-87900858D01*
X157348600Y-87831167D01*
X157390471Y-87775233D01*
X157455936Y-87750816D01*
X157464782Y-87750500D01*
X162875500Y-87750500D01*
X162942539Y-87770185D01*
G37*
G04 #@! TD.AperFunction*
M02*
