G04 #@! TF.GenerationSoftware,KiCad,Pcbnew,9.0.0*
G04 #@! TF.CreationDate,2026-03-02T13:57:17-06:00*
G04 #@! TF.ProjectId,eidon-tracker,6569646f-6e2d-4747-9261-636b65722e6b,rev?*
G04 #@! TF.SameCoordinates,Original*
G04 #@! TF.FileFunction,Paste,Top*
G04 #@! TF.FilePolarity,Positive*
%FSLAX46Y46*%
G04 Gerber Fmt 4.6, Leading zero omitted, Abs format (unit mm)*
G04 Created by KiCad (PCBNEW 9.0.0) date 2026-03-02 13:57:17*
%MOMM*%
%LPD*%
G01*
G04 APERTURE LIST*
G04 Aperture macros list*
%AMRoundRect*
0 Rectangle with rounded corners*
0 $1 Rounding radius*
0 $2 $3 $4 $5 $6 $7 $8 $9 X,Y pos of 4 corners*
0 Add a 4 corners polygon primitive as box body*
4,1,4,$2,$3,$4,$5,$6,$7,$8,$9,$2,$3,0*
0 Add four circle primitives for the rounded corners*
1,1,$1+$1,$2,$3*
1,1,$1+$1,$4,$5*
1,1,$1+$1,$6,$7*
1,1,$1+$1,$8,$9*
0 Add four rect primitives between the rounded corners*
20,1,$1+$1,$2,$3,$4,$5,0*
20,1,$1+$1,$4,$5,$6,$7,0*
20,1,$1+$1,$6,$7,$8,$9,0*
20,1,$1+$1,$8,$9,$2,$3,0*%
G04 Aperture macros list end*
%ADD10RoundRect,0.225000X0.250000X-0.225000X0.250000X0.225000X-0.250000X0.225000X-0.250000X-0.225000X0*%
%ADD11RoundRect,0.500000X-0.875000X-0.500000X0.875000X-0.500000X0.875000X0.500000X-0.875000X0.500000X0*%
%ADD12RoundRect,0.275000X-0.275000X0.975000X-0.275000X-0.975000X0.275000X-0.975000X0.275000X0.975000X0*%
%ADD13C,1.700000*%
%ADD14RoundRect,0.250000X-0.262500X-0.450000X0.262500X-0.450000X0.262500X0.450000X-0.262500X0.450000X0*%
%ADD15R,0.254000X0.685800*%
%ADD16R,0.685800X0.254000*%
%ADD17RoundRect,0.250000X0.262500X0.450000X-0.262500X0.450000X-0.262500X-0.450000X0.262500X-0.450000X0*%
%ADD18R,1.000000X1.800000*%
G04 APERTURE END LIST*
D10*
X155250000Y-109700000D03*
X155250000Y-108150000D03*
D11*
X136028400Y-90251500D03*
X136028400Y-92791500D03*
X136028400Y-95331500D03*
X136028400Y-97871500D03*
X136028400Y-100411500D03*
X136028400Y-102951500D03*
X136028400Y-105491500D03*
X152193400Y-105491500D03*
X152193400Y-102951500D03*
X152193400Y-100411500D03*
X152193400Y-97871500D03*
X152193400Y-95331500D03*
X152193400Y-92791500D03*
X152193400Y-90251500D03*
D12*
X142302000Y-103403200D03*
X144842000Y-103403200D03*
D13*
X142810000Y-89230000D03*
X145350000Y-89230000D03*
X142810000Y-91770000D03*
X145350000Y-91770000D03*
X142810000Y-94310000D03*
X145350000Y-94310000D03*
X142810000Y-96850000D03*
X145257400Y-96793200D03*
D14*
X142100000Y-109400000D03*
X143925000Y-109400000D03*
D15*
X160537501Y-106631100D03*
D16*
X160550000Y-105818600D03*
X160550000Y-105318599D03*
X160550000Y-104818599D03*
X160550000Y-104318598D03*
D15*
X160537501Y-103506098D03*
X160037499Y-103506098D03*
X159537500Y-103506098D03*
X159037501Y-103506098D03*
X158537500Y-103506098D03*
X158037500Y-103506098D03*
X157537499Y-103506098D03*
X157037500Y-103506098D03*
X156537501Y-103506098D03*
X156037499Y-103506098D03*
D16*
X156025000Y-104318598D03*
X156025000Y-104818599D03*
X156025000Y-105318599D03*
X156025000Y-105818600D03*
D15*
X156037499Y-106631100D03*
X156537501Y-106631100D03*
X157037500Y-106631100D03*
X157537499Y-106631100D03*
X158037500Y-106631100D03*
X158537500Y-106631100D03*
X159037501Y-106631100D03*
X159537500Y-106631100D03*
X160037499Y-106631100D03*
D14*
X138712500Y-109400000D03*
X140537500Y-109400000D03*
X158000000Y-95071813D03*
X159825000Y-95071813D03*
D17*
X156325000Y-95071813D03*
X154500000Y-95071813D03*
D10*
X162250000Y-105250000D03*
X162250000Y-103700000D03*
D14*
X135300000Y-109400000D03*
X137125000Y-109400000D03*
D18*
X160750000Y-108600000D03*
X158250000Y-108600000D03*
D10*
X153750000Y-109700000D03*
X153750000Y-108150000D03*
D14*
X145525000Y-109400000D03*
X147350000Y-109400000D03*
X148925000Y-109400000D03*
X150750000Y-109400000D03*
D10*
X162250000Y-109050000D03*
X162250000Y-107500000D03*
X156750000Y-109700000D03*
X156750000Y-108150000D03*
M02*
