M48
; DRILL file {KiCad 9.0.0} date 2025-09-23T11:37:28-0500
; FORMAT={-:-/ absolute / metric / decimal}
; #@! TF.CreationDate,2025-09-23T11:37:28-05:00
; #@! TF.GenerationSoftware,Kicad,Pcbnew,9.0.0
; #@! TF.FileFunction,Plated,1,2,PTH
FMAT,2
METRIC
; #@! TA.AperFunction,Plated,PTH,ViaDrill
T1C0.300
; #@! TA.AperFunction,Plated,PTH,ComponentDrill
T2C0.750
; #@! TA.AperFunction,Plated,PTH,ComponentDrill
T3C0.889
; #@! TA.AperFunction,Plated,PTH,ComponentDrill
T4C0.900
; #@! TA.AperFunction,Plated,PTH,ComponentDrill
T5C1.500
; #@! TA.AperFunction,Plated,PTH,ComponentDrill
T6C3.000
%
G90
G05
T1
X135.5Y-88.25
X138.373Y-107.959
X139.0Y-95.5
X140.75Y-90.25
X140.75Y-99.75
X144.0Y-90.25
X144.5Y-107.25
X148.25Y-99.75
X154.75Y-107.25
X155.75Y-102.0
X157.25Y-94.0
X158.0Y-104.5
X159.699Y-88.48
X161.5Y-110.0
X161.75Y-94.0
T2
X159.48Y-107.1
X161.48Y-107.1
T3
X135.64Y-109.75
X136.645Y-90.23
X136.645Y-92.77
X136.645Y-95.31
X136.645Y-97.85
X136.645Y-100.39
X136.645Y-102.93
X138.18Y-109.75
X140.72Y-109.75
X143.26Y-109.75
X145.8Y-109.75
X148.34Y-109.75
X150.88Y-109.75
X151.885Y-92.77
X151.885Y-95.31
X151.885Y-97.85
X151.885Y-100.39
X151.885Y-102.93
X151.885Y-105.47
X153.42Y-109.75
X155.96Y-109.75
X158.5Y-109.75
T4
X157.35Y-91.4
X159.35Y-91.4
X161.35Y-91.4
T5
X155.25Y-91.4
X163.45Y-91.4
T6
X157.07Y-98.765
T5
G00X142.31Y-102.85
M15
G01X142.31Y-103.85
M16
G05
G00X142.052Y-96.828
M15
G01X143.052Y-96.828
M16
G05
G00X145.31Y-102.85
M15
G01X145.31Y-103.85
M16
G05
M30
