G04 #@! TF.GenerationSoftware,KiCad,Pcbnew,9.0.0*
G04 #@! TF.CreationDate,2026-03-02T13:57:17-06:00*
G04 #@! TF.ProjectId,eidon-tracker,6569646f-6e2d-4747-9261-636b65722e6b,rev?*
G04 #@! TF.SameCoordinates,Original*
G04 #@! TF.FileFunction,Legend,Top*
G04 #@! TF.FilePolarity,Positive*
%FSLAX46Y46*%
G04 Gerber Fmt 4.6, Leading zero omitted, Abs format (unit mm)*
G04 Created by KiCad (PCBNEW 9.0.0) date 2026-03-02 13:57:17*
%MOMM*%
%LPD*%
G01*
G04 APERTURE LIST*
G04 Aperture macros list*
%AMRoundRect*
0 Rectangle with rounded corners*
0 $1 Rounding radius*
0 $2 $3 $4 $5 $6 $7 $8 $9 X,Y pos of 4 corners*
0 Add a 4 corners polygon primitive as box body*
4,1,4,$2,$3,$4,$5,$6,$7,$8,$9,$2,$3,0*
0 Add four circle primitives for the rounded corners*
1,1,$1+$1,$2,$3*
1,1,$1+$1,$4,$5*
1,1,$1+$1,$6,$7*
1,1,$1+$1,$8,$9*
0 Add four rect primitives between the rounded corners*
20,1,$1+$1,$2,$3,$4,$5,0*
20,1,$1+$1,$4,$5,$6,$7,0*
20,1,$1+$1,$6,$7,$8,$9,0*
20,1,$1+$1,$8,$9,$2,$3,0*%
G04 Aperture macros list end*
%ADD10C,0.100000*%
%ADD11C,0.150000*%
%ADD12C,0.120000*%
%ADD13C,0.127000*%
%ADD14C,0.504000*%
%ADD15C,0.152400*%
%ADD16C,0.000000*%
%ADD17RoundRect,0.250000X0.275000X-0.250000X0.275000X0.250000X-0.275000X0.250000X-0.275000X-0.250000X0*%
%ADD18RoundRect,0.525400X-0.900400X-0.525400X0.900400X-0.525400X0.900400X0.525400X-0.900400X0.525400X0*%
%ADD19RoundRect,0.300400X-0.300400X1.000400X-0.300400X-1.000400X0.300400X-1.000400X0.300400X1.000400X0*%
%ADD20C,1.800000*%
%ADD21O,1.850000X1.300000*%
%ADD22RoundRect,0.270833X0.654167X-0.379167X0.654167X0.379167X-0.654167X0.379167X-0.654167X-0.379167X0*%
%ADD23RoundRect,0.274390X-0.288110X-0.475610X0.288110X-0.475610X0.288110X0.475610X-0.288110X0.475610X0*%
%ADD24RoundRect,0.050000X-0.127000X0.342900X-0.127000X-0.342900X0.127000X-0.342900X0.127000X0.342900X0*%
%ADD25RoundRect,0.050000X-0.342900X-0.127000X0.342900X-0.127000X0.342900X0.127000X-0.342900X0.127000X0*%
%ADD26RoundRect,0.274390X0.288110X0.475610X-0.288110X0.475610X-0.288110X-0.475610X0.288110X-0.475610X0*%
%ADD27RoundRect,0.050000X-0.500000X-0.900000X0.500000X-0.900000X0.500000X0.900000X-0.500000X0.900000X0*%
%ADD28O,2.300000X3.600000*%
%ADD29RoundRect,0.050000X0.750000X1.250000X-0.750000X1.250000X-0.750000X-1.250000X0.750000X-1.250000X0*%
%ADD30O,1.600000X2.600000*%
G04 APERTURE END LIST*
D10*
X138329047Y-89976109D02*
X138329047Y-90380871D01*
X138329047Y-90380871D02*
X138352857Y-90428490D01*
X138352857Y-90428490D02*
X138376666Y-90452300D01*
X138376666Y-90452300D02*
X138424285Y-90476109D01*
X138424285Y-90476109D02*
X138519523Y-90476109D01*
X138519523Y-90476109D02*
X138567142Y-90452300D01*
X138567142Y-90452300D02*
X138590952Y-90428490D01*
X138590952Y-90428490D02*
X138614761Y-90380871D01*
X138614761Y-90380871D02*
X138614761Y-89976109D01*
X139114762Y-90476109D02*
X138829048Y-90476109D01*
X138971905Y-90476109D02*
X138971905Y-89976109D01*
X138971905Y-89976109D02*
X138924286Y-90047538D01*
X138924286Y-90047538D02*
X138876667Y-90095157D01*
X138876667Y-90095157D02*
X138829048Y-90118966D01*
X158407143Y-99431652D02*
X158478571Y-99455462D01*
X158478571Y-99455462D02*
X158502381Y-99479271D01*
X158502381Y-99479271D02*
X158526190Y-99526890D01*
X158526190Y-99526890D02*
X158526190Y-99598319D01*
X158526190Y-99598319D02*
X158502381Y-99645938D01*
X158502381Y-99645938D02*
X158478571Y-99669748D01*
X158478571Y-99669748D02*
X158430952Y-99693557D01*
X158430952Y-99693557D02*
X158240476Y-99693557D01*
X158240476Y-99693557D02*
X158240476Y-99193557D01*
X158240476Y-99193557D02*
X158407143Y-99193557D01*
X158407143Y-99193557D02*
X158454762Y-99217367D01*
X158454762Y-99217367D02*
X158478571Y-99241176D01*
X158478571Y-99241176D02*
X158502381Y-99288795D01*
X158502381Y-99288795D02*
X158502381Y-99336414D01*
X158502381Y-99336414D02*
X158478571Y-99384033D01*
X158478571Y-99384033D02*
X158454762Y-99407843D01*
X158454762Y-99407843D02*
X158407143Y-99431652D01*
X158407143Y-99431652D02*
X158240476Y-99431652D01*
X158669048Y-99193557D02*
X158954762Y-99193557D01*
X158811905Y-99693557D02*
X158811905Y-99193557D01*
X159383333Y-99693557D02*
X159097619Y-99693557D01*
X159240476Y-99693557D02*
X159240476Y-99193557D01*
X159240476Y-99193557D02*
X159192857Y-99264986D01*
X159192857Y-99264986D02*
X159145238Y-99312605D01*
X159145238Y-99312605D02*
X159097619Y-99336414D01*
X154169651Y-100848399D02*
X154169651Y-100086495D01*
X154169651Y-98848399D02*
X154169651Y-98086495D01*
X154550604Y-98467447D02*
X153788699Y-98467447D01*
D11*
X157575596Y-104360917D02*
X157575596Y-105170440D01*
X157575596Y-105170440D02*
X157623215Y-105265678D01*
X157623215Y-105265678D02*
X157670834Y-105313298D01*
X157670834Y-105313298D02*
X157766072Y-105360917D01*
X157766072Y-105360917D02*
X157956548Y-105360917D01*
X157956548Y-105360917D02*
X158051786Y-105313298D01*
X158051786Y-105313298D02*
X158099405Y-105265678D01*
X158099405Y-105265678D02*
X158147024Y-105170440D01*
X158147024Y-105170440D02*
X158147024Y-104360917D01*
X158575596Y-104456155D02*
X158623215Y-104408536D01*
X158623215Y-104408536D02*
X158718453Y-104360917D01*
X158718453Y-104360917D02*
X158956548Y-104360917D01*
X158956548Y-104360917D02*
X159051786Y-104408536D01*
X159051786Y-104408536D02*
X159099405Y-104456155D01*
X159099405Y-104456155D02*
X159147024Y-104551393D01*
X159147024Y-104551393D02*
X159147024Y-104646631D01*
X159147024Y-104646631D02*
X159099405Y-104789488D01*
X159099405Y-104789488D02*
X158527977Y-105360917D01*
X158527977Y-105360917D02*
X159147024Y-105360917D01*
X160895180Y-107304199D02*
X160657085Y-107304199D01*
X160752323Y-107066104D02*
X160657085Y-107304199D01*
X160657085Y-107304199D02*
X160752323Y-107542294D01*
X160466609Y-107161342D02*
X160657085Y-107304199D01*
X160657085Y-107304199D02*
X160466609Y-107447056D01*
D10*
X158829166Y-95297922D02*
X158662500Y-95059827D01*
X158543452Y-95297922D02*
X158543452Y-94797922D01*
X158543452Y-94797922D02*
X158733928Y-94797922D01*
X158733928Y-94797922D02*
X158781547Y-94821732D01*
X158781547Y-94821732D02*
X158805357Y-94845541D01*
X158805357Y-94845541D02*
X158829166Y-94893160D01*
X158829166Y-94893160D02*
X158829166Y-94964589D01*
X158829166Y-94964589D02*
X158805357Y-95012208D01*
X158805357Y-95012208D02*
X158781547Y-95036017D01*
X158781547Y-95036017D02*
X158733928Y-95059827D01*
X158733928Y-95059827D02*
X158543452Y-95059827D01*
X159305357Y-95297922D02*
X159019643Y-95297922D01*
X159162500Y-95297922D02*
X159162500Y-94797922D01*
X159162500Y-94797922D02*
X159114881Y-94869351D01*
X159114881Y-94869351D02*
X159067262Y-94916970D01*
X159067262Y-94916970D02*
X159019643Y-94940779D01*
X155329166Y-95297922D02*
X155162500Y-95059827D01*
X155043452Y-95297922D02*
X155043452Y-94797922D01*
X155043452Y-94797922D02*
X155233928Y-94797922D01*
X155233928Y-94797922D02*
X155281547Y-94821732D01*
X155281547Y-94821732D02*
X155305357Y-94845541D01*
X155305357Y-94845541D02*
X155329166Y-94893160D01*
X155329166Y-94893160D02*
X155329166Y-94964589D01*
X155329166Y-94964589D02*
X155305357Y-95012208D01*
X155305357Y-95012208D02*
X155281547Y-95036017D01*
X155281547Y-95036017D02*
X155233928Y-95059827D01*
X155233928Y-95059827D02*
X155043452Y-95059827D01*
X155519643Y-94845541D02*
X155543452Y-94821732D01*
X155543452Y-94821732D02*
X155591071Y-94797922D01*
X155591071Y-94797922D02*
X155710119Y-94797922D01*
X155710119Y-94797922D02*
X155757738Y-94821732D01*
X155757738Y-94821732D02*
X155781547Y-94845541D01*
X155781547Y-94845541D02*
X155805357Y-94893160D01*
X155805357Y-94893160D02*
X155805357Y-94940779D01*
X155805357Y-94940779D02*
X155781547Y-95012208D01*
X155781547Y-95012208D02*
X155495833Y-95297922D01*
X155495833Y-95297922D02*
X155805357Y-95297922D01*
X160713334Y-93432300D02*
X160784762Y-93456109D01*
X160784762Y-93456109D02*
X160903810Y-93456109D01*
X160903810Y-93456109D02*
X160951429Y-93432300D01*
X160951429Y-93432300D02*
X160975238Y-93408490D01*
X160975238Y-93408490D02*
X160999048Y-93360871D01*
X160999048Y-93360871D02*
X160999048Y-93313252D01*
X160999048Y-93313252D02*
X160975238Y-93265633D01*
X160975238Y-93265633D02*
X160951429Y-93241823D01*
X160951429Y-93241823D02*
X160903810Y-93218014D01*
X160903810Y-93218014D02*
X160808572Y-93194204D01*
X160808572Y-93194204D02*
X160760953Y-93170395D01*
X160760953Y-93170395D02*
X160737143Y-93146585D01*
X160737143Y-93146585D02*
X160713334Y-93098966D01*
X160713334Y-93098966D02*
X160713334Y-93051347D01*
X160713334Y-93051347D02*
X160737143Y-93003728D01*
X160737143Y-93003728D02*
X160760953Y-92979919D01*
X160760953Y-92979919D02*
X160808572Y-92956109D01*
X160808572Y-92956109D02*
X160927619Y-92956109D01*
X160927619Y-92956109D02*
X160999048Y-92979919D01*
X161165714Y-92956109D02*
X161284762Y-93456109D01*
X161284762Y-93456109D02*
X161380000Y-93098966D01*
X161380000Y-93098966D02*
X161475238Y-93456109D01*
X161475238Y-93456109D02*
X161594286Y-92956109D01*
X162046667Y-93456109D02*
X161760953Y-93456109D01*
X161903810Y-93456109D02*
X161903810Y-92956109D01*
X161903810Y-92956109D02*
X161856191Y-93027538D01*
X161856191Y-93027538D02*
X161808572Y-93075157D01*
X161808572Y-93075157D02*
X161760953Y-93098966D01*
D12*
X154740000Y-109065580D02*
X154740000Y-108784420D01*
X155760000Y-109065580D02*
X155760000Y-108784420D01*
D10*
X135193400Y-106384500D02*
X135193400Y-89239500D01*
X137098400Y-108289500D02*
X151068400Y-108289500D01*
D13*
X139588400Y-87334500D02*
X139592128Y-86324228D01*
X140092128Y-85824500D02*
X148087400Y-85824500D01*
X148587400Y-86324500D02*
X148587400Y-87334500D01*
D10*
X151068400Y-87334500D02*
X137098400Y-87334500D01*
X152973400Y-106384500D02*
X152973400Y-89239500D01*
X135193400Y-89235500D02*
G75*
G02*
X137098400Y-87330500I1905001J-1D01*
G01*
X137098400Y-108289500D02*
G75*
G02*
X135193400Y-106384500I1J1905001D01*
G01*
D13*
X139592128Y-86324228D02*
G75*
G02*
X140092128Y-85824501I500018J-291D01*
G01*
X148087400Y-85824500D02*
G75*
G02*
X148587400Y-86324500I0J-500000D01*
G01*
D10*
X151068400Y-87334500D02*
G75*
G02*
X152973400Y-89239500I0J-1905000D01*
G01*
X152973400Y-106384500D02*
G75*
G02*
X151068400Y-108289500I-1905000J0D01*
G01*
D14*
X136509400Y-88467500D02*
G75*
G02*
X136005400Y-88467500I-252000J0D01*
G01*
X136005400Y-88467500D02*
G75*
G02*
X136509400Y-88467500I252000J0D01*
G01*
D12*
X154118185Y-96407448D02*
X154118185Y-97327448D01*
X154118185Y-97327448D02*
X155718185Y-97327448D01*
X154118185Y-101607448D02*
X154118185Y-102527448D01*
X154118185Y-102527448D02*
X161938185Y-102527448D01*
X155718185Y-96407448D02*
X155718185Y-97327448D01*
X155718185Y-97327448D02*
X155718185Y-97607448D01*
X155718185Y-101327448D02*
X154503185Y-101327448D01*
X155718185Y-101327448D02*
X155718185Y-101607448D01*
X155718185Y-101607448D02*
X154118185Y-101607448D01*
X155718185Y-102527448D02*
X155718185Y-101607448D01*
X157578185Y-98967448D02*
X161938185Y-98967448D01*
X157578185Y-99967448D02*
X157578185Y-98967448D01*
X158078185Y-97167448D02*
X159678185Y-97167448D01*
X158078185Y-98167448D02*
X158078185Y-97167448D01*
X158078185Y-100767448D02*
X158078185Y-101767448D01*
X158078185Y-101767448D02*
X159678185Y-101767448D01*
X159678185Y-97167448D02*
X159678185Y-98167448D01*
X159678185Y-98167448D02*
X158078185Y-98167448D01*
X159678185Y-100767448D02*
X158078185Y-100767448D01*
X159678185Y-100767448D02*
X161938185Y-100767448D01*
X159678185Y-101267448D02*
X161938185Y-101267448D01*
X159678185Y-101767448D02*
X159678185Y-100767448D01*
X161938185Y-96407448D02*
X154118185Y-96407448D01*
X161938185Y-99967448D02*
X157578185Y-99967448D01*
X161938185Y-102527448D02*
X161938185Y-96407448D01*
X142785436Y-108665000D02*
X143239564Y-108665000D01*
X142785436Y-110135000D02*
X143239564Y-110135000D01*
D15*
X155557000Y-103036599D02*
X155557000Y-103883270D01*
X155557000Y-106253928D02*
X155557000Y-107100599D01*
X161018000Y-103883270D02*
X161018000Y-103036599D01*
X161018000Y-107100599D02*
X161018000Y-106253928D01*
D12*
X139397936Y-108665000D02*
X139852064Y-108665000D01*
X139397936Y-110135000D02*
X139852064Y-110135000D01*
X158685436Y-94336813D02*
X159139564Y-94336813D01*
X158685436Y-95806813D02*
X159139564Y-95806813D01*
X155639564Y-94336813D02*
X155185436Y-94336813D01*
X155639564Y-95806813D02*
X155185436Y-95806813D01*
X161740000Y-104615580D02*
X161740000Y-104334420D01*
X162760000Y-104615580D02*
X162760000Y-104334420D01*
D16*
G36*
X140655178Y-90852009D02*
G01*
X140677622Y-90860844D01*
X140684035Y-90864421D01*
X140699642Y-90873114D01*
X140713314Y-90879869D01*
X140719255Y-90882258D01*
X140727718Y-90886394D01*
X140730017Y-90889450D01*
X140734118Y-90893591D01*
X140744646Y-90900164D01*
X140753767Y-90904961D01*
X140767601Y-90912109D01*
X140777337Y-90917725D01*
X140780017Y-90919719D01*
X140785563Y-90923463D01*
X140797197Y-90929900D01*
X140807388Y-90935122D01*
X140822468Y-90943099D01*
X140834333Y-90950214D01*
X140838630Y-90953384D01*
X140847049Y-90959023D01*
X140860343Y-90965959D01*
X140865008Y-90968096D01*
X140877170Y-90974299D01*
X140884267Y-90979539D01*
X140885017Y-90980962D01*
X140889080Y-90984548D01*
X140892517Y-90985000D01*
X140899170Y-90987699D01*
X140900017Y-90990000D01*
X140903894Y-90994762D01*
X140905589Y-90995000D01*
X140911863Y-90997459D01*
X140924715Y-91004140D01*
X140942221Y-91013999D01*
X140960821Y-91025000D01*
X140980748Y-91036836D01*
X140997604Y-91046470D01*
X141009531Y-91052866D01*
X141014575Y-91055000D01*
X141020968Y-91057825D01*
X141030983Y-91064693D01*
X141031842Y-91065362D01*
X141045017Y-91075725D01*
X141045017Y-91724587D01*
X141045011Y-91818547D01*
X141044990Y-91903017D01*
X141044947Y-91978507D01*
X141044874Y-92045528D01*
X141044766Y-92104590D01*
X141044615Y-92156202D01*
X141044414Y-92200876D01*
X141044157Y-92239121D01*
X141043837Y-92271448D01*
X141043447Y-92298367D01*
X141042981Y-92320387D01*
X141042430Y-92338020D01*
X141041790Y-92351775D01*
X141041052Y-92362163D01*
X141040211Y-92369693D01*
X141039258Y-92374876D01*
X141038188Y-92378223D01*
X141036994Y-92380243D01*
X141036267Y-92380987D01*
X141026041Y-92388382D01*
X141012289Y-92396757D01*
X141010017Y-92398011D01*
X140998262Y-92404777D01*
X140990822Y-92409785D01*
X140990017Y-92410546D01*
X140984749Y-92414140D01*
X140972810Y-92421139D01*
X140956374Y-92430287D01*
X140948715Y-92434434D01*
X140926424Y-92446743D01*
X140900099Y-92461779D01*
X140874196Y-92476984D01*
X140864789Y-92482637D01*
X140845727Y-92493934D01*
X140829670Y-92502961D01*
X140818620Y-92508622D01*
X140814841Y-92510000D01*
X140810155Y-92513810D01*
X140810017Y-92515000D01*
X140806501Y-92519857D01*
X140805411Y-92520000D01*
X140799368Y-92522364D01*
X140786801Y-92528732D01*
X140769793Y-92538016D01*
X140757517Y-92544999D01*
X140738758Y-92555581D01*
X140723104Y-92563944D01*
X140712638Y-92569001D01*
X140709622Y-92569999D01*
X140705134Y-92573803D01*
X140705017Y-92574904D01*
X140700774Y-92579643D01*
X140692517Y-92582946D01*
X140683163Y-92586597D01*
X140680017Y-92589935D01*
X140675898Y-92594293D01*
X140665907Y-92599625D01*
X140665125Y-92599954D01*
X140654692Y-92603142D01*
X140645093Y-92602156D01*
X140632147Y-92596385D01*
X140628875Y-92594649D01*
X140610688Y-92585037D01*
X140591904Y-92575337D01*
X140587517Y-92573116D01*
X140574852Y-92566328D01*
X140566452Y-92561049D01*
X140565017Y-92559776D01*
X140559440Y-92555682D01*
X140547239Y-92548233D01*
X140530657Y-92538698D01*
X140511934Y-92528351D01*
X140493312Y-92518461D01*
X140482517Y-92512978D01*
X140469835Y-92506244D01*
X140461436Y-92500963D01*
X140460017Y-92499683D01*
X140453803Y-92495135D01*
X140438731Y-92486247D01*
X140414919Y-92473084D01*
X140382482Y-92455714D01*
X140380017Y-92454408D01*
X140366656Y-92447123D01*
X140357355Y-92441653D01*
X140355017Y-92440000D01*
X140346786Y-92433936D01*
X140333972Y-92426389D01*
X140321454Y-92420183D01*
X140307974Y-92413188D01*
X140291830Y-92403249D01*
X140276308Y-92392564D01*
X140264696Y-92383333D01*
X140261426Y-92380004D01*
X140259750Y-92375200D01*
X140258373Y-92364841D01*
X140257273Y-92348240D01*
X140256429Y-92324704D01*
X140255818Y-92293543D01*
X140255420Y-92254068D01*
X140255212Y-92205588D01*
X140255176Y-92181250D01*
X140255095Y-92131944D01*
X140254918Y-92091742D01*
X140254610Y-92059750D01*
X140254135Y-92035071D01*
X140253456Y-92016811D01*
X140252538Y-92004074D01*
X140251345Y-91995964D01*
X140249842Y-91991587D01*
X140247992Y-91990047D01*
X140247517Y-91990000D01*
X140240863Y-91992699D01*
X140240017Y-91995000D01*
X140236115Y-91999725D01*
X140234230Y-92000000D01*
X140227946Y-92002464D01*
X140214997Y-92009189D01*
X140197221Y-92019171D01*
X140176455Y-92031410D01*
X140174648Y-92032499D01*
X140154036Y-92044827D01*
X140136623Y-92055008D01*
X140124126Y-92062052D01*
X140118268Y-92064972D01*
X140118110Y-92064999D01*
X140112973Y-92067439D01*
X140101184Y-92074043D01*
X140084614Y-92083743D01*
X140069060Y-92093079D01*
X140049345Y-92104909D01*
X140032272Y-92114923D01*
X140019974Y-92121885D01*
X140015134Y-92124373D01*
X140009744Y-92127009D01*
X140000598Y-92132073D01*
X139986617Y-92140193D01*
X139966723Y-92152000D01*
X139939841Y-92168122D01*
X139925837Y-92176555D01*
X139909707Y-92185809D01*
X139894733Y-92193643D01*
X139888767Y-92196401D01*
X139879002Y-92201675D01*
X139875017Y-92206096D01*
X139871116Y-92209822D01*
X139869461Y-92210000D01*
X139863011Y-92212450D01*
X139850232Y-92219036D01*
X139833285Y-92228607D01*
X139822517Y-92235000D01*
X139804152Y-92245763D01*
X139788717Y-92254202D01*
X139778373Y-92259166D01*
X139775572Y-92260000D01*
X139770269Y-92262679D01*
X139770017Y-92263814D01*
X139765292Y-92269327D01*
X139751487Y-92277200D01*
X139733767Y-92285194D01*
X139723990Y-92290653D01*
X139720017Y-92295489D01*
X139715959Y-92299493D01*
X139712517Y-92300000D01*
X139705863Y-92302699D01*
X139705017Y-92305000D01*
X139701137Y-92309758D01*
X139699426Y-92309999D01*
X139692843Y-92312309D01*
X139680429Y-92318372D01*
X139664472Y-92326889D01*
X139647260Y-92336562D01*
X139631082Y-92346093D01*
X139618225Y-92354182D01*
X139610978Y-92359531D01*
X139610156Y-92360665D01*
X139614075Y-92364669D01*
X139624330Y-92371837D01*
X139638412Y-92380661D01*
X139653815Y-92389635D01*
X139668032Y-92397254D01*
X139678554Y-92402012D01*
X139679573Y-92402359D01*
X139687885Y-92406845D01*
X139690017Y-92410336D01*
X139693739Y-92414913D01*
X139694622Y-92414999D01*
X139700642Y-92417375D01*
X139713203Y-92423783D01*
X139730253Y-92433142D01*
X139743372Y-92440646D01*
X139765048Y-92453187D01*
X139786254Y-92465367D01*
X139803723Y-92475312D01*
X139810017Y-92478852D01*
X139825226Y-92487546D01*
X139845149Y-92499209D01*
X139865962Y-92511598D01*
X139870017Y-92514039D01*
X139891507Y-92526798D01*
X139913850Y-92539728D01*
X139932696Y-92550318D01*
X139935017Y-92551585D01*
X139953488Y-92561882D01*
X139975743Y-92574680D01*
X139997038Y-92587251D01*
X139997517Y-92587539D01*
X140023226Y-92602739D01*
X140049922Y-92617957D01*
X140080441Y-92634784D01*
X140109730Y-92650591D01*
X140125030Y-92659477D01*
X140138032Y-92668174D01*
X140141953Y-92671278D01*
X140153856Y-92679221D01*
X140168450Y-92686018D01*
X140168490Y-92686032D01*
X140179474Y-92691021D01*
X140184895Y-92695477D01*
X140185017Y-92696004D01*
X140188811Y-92699922D01*
X140189733Y-92700000D01*
X140195795Y-92702474D01*
X140208298Y-92709098D01*
X140225232Y-92718671D01*
X140244588Y-92729995D01*
X140264358Y-92741871D01*
X140282531Y-92753098D01*
X140297100Y-92762478D01*
X140306056Y-92768811D01*
X140307823Y-92770496D01*
X140308423Y-92776329D01*
X140308938Y-92790929D01*
X140309368Y-92813060D01*
X140309715Y-92841487D01*
X140309980Y-92874978D01*
X140310162Y-92912298D01*
X140310264Y-92952212D01*
X140310285Y-92993486D01*
X140310227Y-93034887D01*
X140310090Y-93075180D01*
X140309875Y-93113131D01*
X140309583Y-93147505D01*
X140309215Y-93177069D01*
X140308771Y-93200589D01*
X140308253Y-93216830D01*
X140307660Y-93224557D01*
X140307530Y-93224977D01*
X140302485Y-93228894D01*
X140290503Y-93236728D01*
X140273334Y-93247434D01*
X140252723Y-93259968D01*
X140230417Y-93273287D01*
X140208165Y-93286346D01*
X140187712Y-93298102D01*
X140170806Y-93307509D01*
X140160017Y-93313131D01*
X140152006Y-93317911D01*
X140150017Y-93319635D01*
X140144291Y-93323541D01*
X140133224Y-93329639D01*
X140130017Y-93331274D01*
X140115458Y-93339012D01*
X140097539Y-93349118D01*
X140087517Y-93355002D01*
X140072540Y-93363776D01*
X140060259Y-93370644D01*
X140055017Y-93373322D01*
X140047981Y-93377085D01*
X140034321Y-93384865D01*
X140015986Y-93395539D01*
X139994926Y-93407980D01*
X139994316Y-93408343D01*
X139973484Y-93420485D01*
X139955535Y-93430473D01*
X139942323Y-93437308D01*
X139935699Y-93439992D01*
X139935566Y-93440000D01*
X139930276Y-93443490D01*
X139930017Y-93445000D01*
X139926553Y-93449858D01*
X139925482Y-93450000D01*
X139919625Y-93452421D01*
X139907086Y-93459004D01*
X139889736Y-93468730D01*
X139870423Y-93480000D01*
X139850182Y-93491781D01*
X139832917Y-93501388D01*
X139820516Y-93507799D01*
X139814958Y-93510000D01*
X139810160Y-93513806D01*
X139810017Y-93515000D01*
X139806142Y-93519765D01*
X139804467Y-93520000D01*
X139798273Y-93522447D01*
X139785378Y-93529127D01*
X139767607Y-93539049D01*
X139746785Y-93551221D01*
X139744646Y-93552499D01*
X139723955Y-93564784D01*
X139706509Y-93574941D01*
X139694012Y-93581993D01*
X139688168Y-93584964D01*
X139687996Y-93584999D01*
X139682957Y-93587411D01*
X139671380Y-93593886D01*
X139655270Y-93603288D01*
X139645088Y-93609363D01*
X139604558Y-93633727D01*
X139623537Y-93643595D01*
X139652583Y-93658924D01*
X139673671Y-93670608D01*
X139687884Y-93679268D01*
X139695704Y-93685000D01*
X139705138Y-93691589D01*
X139719529Y-93700113D01*
X139728490Y-93704942D01*
X139743146Y-93712854D01*
X139763274Y-93724144D01*
X139785765Y-93737056D01*
X139800017Y-93745389D01*
X139821582Y-93757902D01*
X139842008Y-93769403D01*
X139858538Y-93778358D01*
X139866267Y-93782266D01*
X139877934Y-93788755D01*
X139884493Y-93794283D01*
X139885017Y-93795569D01*
X139888906Y-93799795D01*
X139890572Y-93800000D01*
X139897022Y-93802450D01*
X139909801Y-93809036D01*
X139926748Y-93818607D01*
X139937517Y-93825000D01*
X139955881Y-93835763D01*
X139971316Y-93844202D01*
X139981660Y-93849166D01*
X139984461Y-93850000D01*
X139989755Y-93853487D01*
X139990017Y-93855000D01*
X139993894Y-93859762D01*
X139995589Y-93860000D01*
X140001863Y-93862459D01*
X140014715Y-93869140D01*
X140032221Y-93878999D01*
X140050821Y-93890000D01*
X140070603Y-93901812D01*
X140087149Y-93911435D01*
X140098660Y-93917838D01*
X140103279Y-93920000D01*
X140108385Y-93922438D01*
X140120309Y-93929094D01*
X140137330Y-93938984D01*
X140157726Y-93951121D01*
X140160017Y-93952499D01*
X140180742Y-93964829D01*
X140198357Y-93975010D01*
X140211112Y-93982054D01*
X140217262Y-93984973D01*
X140217448Y-93985000D01*
X140223438Y-93987804D01*
X140233124Y-93994586D01*
X140233566Y-93994931D01*
X140243511Y-94001030D01*
X140250382Y-94002254D01*
X140250604Y-94002136D01*
X140251583Y-93996696D01*
X140252487Y-93982351D01*
X140253291Y-93960199D01*
X140253969Y-93931335D01*
X140254499Y-93896856D01*
X140254778Y-93866186D01*
X140254854Y-93857858D01*
X140255011Y-93815436D01*
X140255017Y-93805841D01*
X140255017Y-93632500D01*
X140345083Y-93632500D01*
X140349153Y-93637142D01*
X140359931Y-93644914D01*
X140375267Y-93654298D01*
X140378800Y-93656294D01*
X140399609Y-93668044D01*
X140421042Y-93680383D01*
X140437517Y-93690080D01*
X140455033Y-93700405D01*
X140472207Y-93710246D01*
X140480017Y-93714580D01*
X140490218Y-93720335D01*
X140507122Y-93730105D01*
X140528841Y-93742790D01*
X140553485Y-93757289D01*
X140569977Y-93767044D01*
X140594478Y-93781302D01*
X140616357Y-93793535D01*
X140634024Y-93802894D01*
X140645892Y-93808528D01*
X140649977Y-93809802D01*
X140655947Y-93807306D01*
X140669470Y-93800308D01*
X140689492Y-93789395D01*
X140714960Y-93775154D01*
X140744819Y-93758175D01*
X140778016Y-93739044D01*
X140804617Y-93723552D01*
X140839399Y-93703087D01*
X140871335Y-93684073D01*
X140899417Y-93667126D01*
X140922638Y-93652863D01*
X140939990Y-93641902D01*
X140950467Y-93634859D01*
X140953213Y-93632500D01*
X140949662Y-93628342D01*
X140938885Y-93620439D01*
X140922437Y-93609832D01*
X140901872Y-93597561D01*
X140896113Y-93594266D01*
X140872674Y-93580906D01*
X140843201Y-93564005D01*
X140810296Y-93545061D01*
X140776562Y-93525572D01*
X140746286Y-93508016D01*
X140718883Y-93492234D01*
X140694259Y-93478322D01*
X140673768Y-93467024D01*
X140658765Y-93459083D01*
X140650603Y-93455242D01*
X140649671Y-93455000D01*
X140643935Y-93457419D01*
X140630923Y-93464187D01*
X140611969Y-93474568D01*
X140588408Y-93487827D01*
X140561575Y-93503227D01*
X140550902Y-93509427D01*
X140513390Y-93531287D01*
X140483310Y-93548806D01*
X140459455Y-93562678D01*
X140440617Y-93573601D01*
X140425590Y-93582271D01*
X140413166Y-93589383D01*
X140402140Y-93595635D01*
X140391304Y-93601722D01*
X140379451Y-93608340D01*
X140378800Y-93608703D01*
X140362791Y-93618232D01*
X140350897Y-93626460D01*
X140345269Y-93631872D01*
X140345083Y-93632500D01*
X140255017Y-93632500D01*
X140255017Y-93612274D01*
X140273767Y-93602434D01*
X140285977Y-93595606D01*
X140293905Y-93590394D01*
X140295017Y-93589359D01*
X140300845Y-93585377D01*
X140312094Y-93579628D01*
X140315017Y-93578291D01*
X140329472Y-93571081D01*
X140347280Y-93561221D01*
X140357517Y-93555149D01*
X140373927Y-93545517D01*
X140389117Y-93537285D01*
X140396267Y-93533824D01*
X140406011Y-93528404D01*
X140410017Y-93523903D01*
X140414081Y-93520436D01*
X140417517Y-93520000D01*
X140424175Y-93517622D01*
X140425017Y-93515606D01*
X140429170Y-93510984D01*
X140439360Y-93505385D01*
X140441267Y-93504576D01*
X140453963Y-93498430D01*
X140471111Y-93488919D01*
X140487517Y-93479017D01*
X140503272Y-93469599D01*
X140516205Y-93462806D01*
X140523613Y-93460053D01*
X140523767Y-93460047D01*
X140529584Y-93457438D01*
X140530017Y-93455962D01*
X140534155Y-93451626D01*
X140544513Y-93445643D01*
X140548988Y-93443554D01*
X140562371Y-93436788D01*
X140580548Y-93426490D01*
X140599991Y-93414672D01*
X140603548Y-93412414D01*
X140622445Y-93400877D01*
X140637172Y-93394299D01*
X140650361Y-93392773D01*
X140664647Y-93396392D01*
X140682661Y-93405248D01*
X140700992Y-93415850D01*
X140719545Y-93426697D01*
X140736238Y-93436226D01*
X140748098Y-93442747D01*
X140750017Y-93443737D01*
X140761331Y-93449868D01*
X140776947Y-93458863D01*
X140787517Y-93465171D01*
X140804962Y-93475383D01*
X140822087Y-93484831D01*
X140830017Y-93488914D01*
X140841874Y-93495121D01*
X140849293Y-93499724D01*
X140850017Y-93500372D01*
X140855535Y-93504221D01*
X140866878Y-93510886D01*
X140875017Y-93515372D01*
X140888193Y-93522991D01*
X140897106Y-93529114D01*
X140899183Y-93531250D01*
X140904794Y-93534998D01*
X140904903Y-93535000D01*
X140910782Y-93537442D01*
X140923275Y-93544026D01*
X140940488Y-93553643D01*
X140960530Y-93565178D01*
X140981504Y-93577521D01*
X141001519Y-93589559D01*
X141018679Y-93600182D01*
X141031093Y-93608277D01*
X141036267Y-93612125D01*
X141037539Y-93613680D01*
X141038682Y-93616274D01*
X141039703Y-93620422D01*
X141040608Y-93626635D01*
X141041405Y-93635427D01*
X141042100Y-93647311D01*
X141042700Y-93662799D01*
X141043213Y-93682404D01*
X141043644Y-93706639D01*
X141044001Y-93736017D01*
X141044291Y-93771051D01*
X141044520Y-93812253D01*
X141044696Y-93860137D01*
X141044825Y-93915215D01*
X141044915Y-93978000D01*
X141044972Y-94049005D01*
X141045003Y-94128743D01*
X141045015Y-94217727D01*
X141045017Y-94262978D01*
X141045030Y-94357915D01*
X141045053Y-94443360D01*
X141045061Y-94519823D01*
X141045027Y-94587812D01*
X141044927Y-94647836D01*
X141044734Y-94700404D01*
X141044423Y-94746024D01*
X141043968Y-94785205D01*
X141043345Y-94818455D01*
X141042526Y-94846284D01*
X141041488Y-94869200D01*
X141040203Y-94887712D01*
X141038647Y-94902329D01*
X141036794Y-94913558D01*
X141034618Y-94921910D01*
X141032094Y-94927892D01*
X141029196Y-94932014D01*
X141025899Y-94934784D01*
X141022177Y-94936710D01*
X141018005Y-94938302D01*
X141013356Y-94940069D01*
X141010920Y-94941141D01*
X140995822Y-94948847D01*
X140977551Y-94959000D01*
X140967517Y-94964909D01*
X140951095Y-94974351D01*
X140935900Y-94982276D01*
X140928767Y-94985507D01*
X140918964Y-94990762D01*
X140915017Y-94995489D01*
X140911218Y-94999893D01*
X140910170Y-95000000D01*
X140904029Y-95002405D01*
X140891445Y-95008876D01*
X140874524Y-95018297D01*
X140862997Y-95025000D01*
X140844406Y-95035677D01*
X140828797Y-95044081D01*
X140818307Y-95049090D01*
X140815344Y-95050000D01*
X140810227Y-95053611D01*
X140810017Y-95055000D01*
X140806120Y-95059732D01*
X140804269Y-95060000D01*
X140798430Y-95062461D01*
X140785923Y-95069126D01*
X140768571Y-95078913D01*
X140748196Y-95090743D01*
X140726621Y-95103535D01*
X140705670Y-95116210D01*
X140687163Y-95127687D01*
X140672925Y-95136886D01*
X140665017Y-95142527D01*
X140655120Y-95146804D01*
X140650017Y-95146674D01*
X140639571Y-95142656D01*
X140623763Y-95135289D01*
X140605662Y-95126156D01*
X140588335Y-95116841D01*
X140574851Y-95108928D01*
X140569260Y-95105000D01*
X140559849Y-95098433D01*
X140545458Y-95089982D01*
X140536543Y-95085239D01*
X140522421Y-95077689D01*
X140502526Y-95066604D01*
X140479672Y-95053569D01*
X140460017Y-95042136D01*
X140439313Y-95030055D01*
X140421590Y-95019865D01*
X140408714Y-95012629D01*
X140402549Y-95009409D01*
X140402517Y-95009397D01*
X140396554Y-95006234D01*
X140383804Y-94998933D01*
X140366038Y-94988524D01*
X140345028Y-94976039D01*
X140341204Y-94973750D01*
X140319855Y-94961168D01*
X140301437Y-94950717D01*
X140287712Y-94943365D01*
X140280442Y-94940083D01*
X140279954Y-94940000D01*
X140275160Y-94936193D01*
X140275017Y-94935000D01*
X140271141Y-94930235D01*
X140269461Y-94930000D01*
X140263011Y-94927549D01*
X140250232Y-94920963D01*
X140233285Y-94911392D01*
X140222517Y-94905000D01*
X140204203Y-94894243D01*
X140188876Y-94885807D01*
X140178674Y-94880840D01*
X140175956Y-94880000D01*
X140168951Y-94877069D01*
X140158466Y-94869870D01*
X140156650Y-94868416D01*
X140142721Y-94858493D01*
X140126101Y-94848566D01*
X140122517Y-94846684D01*
X140090333Y-94829922D01*
X140066956Y-94816747D01*
X140051954Y-94806910D01*
X140048638Y-94804241D01*
X140038698Y-94797353D01*
X140023786Y-94788910D01*
X140014602Y-94784311D01*
X140000996Y-94777209D01*
X139992068Y-94771316D01*
X139990017Y-94768819D01*
X139986114Y-94765173D01*
X139984461Y-94765000D01*
X139977981Y-94762565D01*
X139965185Y-94756032D01*
X139948265Y-94746554D01*
X139938211Y-94740634D01*
X139917870Y-94728727D01*
X139898435Y-94717816D01*
X139883077Y-94709665D01*
X139878767Y-94707564D01*
X139867091Y-94701248D01*
X139860535Y-94695962D01*
X139860017Y-94694767D01*
X139855890Y-94690190D01*
X139849678Y-94687392D01*
X139840733Y-94683404D01*
X139825966Y-94675659D01*
X139808092Y-94665601D01*
X139802034Y-94662055D01*
X139784630Y-94652078D01*
X139770320Y-94644452D01*
X139761390Y-94640372D01*
X139759873Y-94640000D01*
X139755134Y-94636355D01*
X139755017Y-94635336D01*
X139750888Y-94630265D01*
X139744965Y-94627483D01*
X139740686Y-94625728D01*
X139733513Y-94622138D01*
X139722731Y-94616304D01*
X139707621Y-94607812D01*
X139687468Y-94596254D01*
X139661555Y-94581217D01*
X139629165Y-94562292D01*
X139589582Y-94539066D01*
X139544131Y-94512332D01*
X139522643Y-94499903D01*
X139503481Y-94489223D01*
X139488718Y-94481423D01*
X139480430Y-94477631D01*
X139480381Y-94477615D01*
X139472110Y-94473128D01*
X139470017Y-94469663D01*
X139466262Y-94465352D01*
X140675017Y-94465352D01*
X140675017Y-95064517D01*
X140688767Y-95058312D01*
X140702377Y-95051427D01*
X140717833Y-95042630D01*
X140720017Y-95041297D01*
X140731578Y-95034767D01*
X140739259Y-95031549D01*
X140740374Y-95031493D01*
X140745775Y-95029270D01*
X140750931Y-95025000D01*
X140757230Y-95020548D01*
X140770975Y-95011902D01*
X140790919Y-94999809D01*
X140815816Y-94985018D01*
X140844418Y-94968277D01*
X140871709Y-94952500D01*
X140984787Y-94887500D01*
X140984902Y-94288750D01*
X140984901Y-94195569D01*
X140984857Y-94111941D01*
X140984765Y-94037418D01*
X140984622Y-93971552D01*
X140984421Y-93913895D01*
X140984160Y-93864000D01*
X140983832Y-93821419D01*
X140983434Y-93785704D01*
X140982962Y-93756408D01*
X140982409Y-93733083D01*
X140981773Y-93715282D01*
X140981047Y-93702557D01*
X140980228Y-93694460D01*
X140979312Y-93690543D01*
X140978767Y-93690009D01*
X140971938Y-93692439D01*
X140958861Y-93698945D01*
X140941803Y-93708359D01*
X140932517Y-93713778D01*
X140912880Y-93725286D01*
X140894755Y-93735639D01*
X140881081Y-93743165D01*
X140877517Y-93745010D01*
X140866544Y-93750936D01*
X140860196Y-93755214D01*
X140860017Y-93755405D01*
X140854389Y-93759447D01*
X140842080Y-93766987D01*
X140824941Y-93776994D01*
X140804824Y-93788437D01*
X140783583Y-93800285D01*
X140763067Y-93811509D01*
X140745131Y-93821078D01*
X140731626Y-93827961D01*
X140724404Y-93831128D01*
X140723767Y-93831211D01*
X140720151Y-93833717D01*
X140720017Y-93834999D01*
X140716168Y-93839801D01*
X140714683Y-93840000D01*
X140707687Y-93842820D01*
X140696542Y-93849892D01*
X140692183Y-93853093D01*
X140675017Y-93866186D01*
X140675017Y-94465352D01*
X139466262Y-94465352D01*
X139466138Y-94465210D01*
X139464506Y-94465000D01*
X139458260Y-94462531D01*
X139445448Y-94455825D01*
X139427994Y-94445934D01*
X139409616Y-94435000D01*
X139389905Y-94423164D01*
X139373425Y-94413530D01*
X139361979Y-94407133D01*
X139357431Y-94405000D01*
X139352591Y-94402614D01*
X139340951Y-94396154D01*
X139324301Y-94386664D01*
X139304433Y-94375187D01*
X139283136Y-94362766D01*
X139262201Y-94350447D01*
X139243419Y-94339272D01*
X139228581Y-94330286D01*
X139220017Y-94324892D01*
X139209023Y-94318537D01*
X139205017Y-94316588D01*
X139198174Y-94312898D01*
X139184548Y-94305071D01*
X139165915Y-94294144D01*
X139144051Y-94281151D01*
X139136484Y-94276620D01*
X139114508Y-94263523D01*
X139095721Y-94252498D01*
X139081718Y-94244466D01*
X139074088Y-94240347D01*
X139073199Y-94240000D01*
X139068264Y-94237597D01*
X139056548Y-94231071D01*
X139039850Y-94221441D01*
X139021575Y-94210683D01*
X139000776Y-94198594D01*
X138982180Y-94188258D01*
X138968012Y-94180884D01*
X138961110Y-94177847D01*
X138952468Y-94173356D01*
X138950017Y-94169663D01*
X138946190Y-94165146D01*
X138944926Y-94165000D01*
X138938431Y-94162555D01*
X138926008Y-94156108D01*
X138910189Y-94146982D01*
X138908085Y-94145710D01*
X138889959Y-94135052D01*
X138872936Y-94125636D01*
X138860694Y-94119498D01*
X138860675Y-94119490D01*
X138850147Y-94113842D01*
X138845094Y-94109189D01*
X138845017Y-94108779D01*
X138840950Y-94105422D01*
X138837517Y-94105000D01*
X138830859Y-94102559D01*
X138830017Y-94100489D01*
X138825889Y-94095619D01*
X138816267Y-94090463D01*
X138804222Y-94084731D01*
X138788114Y-94075957D01*
X138777517Y-94069720D01*
X138759121Y-94059060D01*
X138740120Y-94048875D01*
X138731474Y-94044604D01*
X138718208Y-94037648D01*
X138709113Y-94031550D01*
X138707314Y-94029671D01*
X138701327Y-94024693D01*
X138689445Y-94017504D01*
X138680856Y-94012986D01*
X138647251Y-93995777D01*
X138622673Y-93982181D01*
X138607228Y-93972258D01*
X138604384Y-93970000D01*
X138594992Y-93963413D01*
X138580627Y-93954879D01*
X138571597Y-93950000D01*
X138557733Y-93942548D01*
X138547892Y-93936786D01*
X138545017Y-93934716D01*
X138539113Y-93931206D01*
X138527733Y-93926097D01*
X138525017Y-93925000D01*
X138512968Y-93919640D01*
X138505598Y-93915274D01*
X138505017Y-93914680D01*
X138499832Y-93910670D01*
X138488263Y-93903006D01*
X138472523Y-93893140D01*
X138467517Y-93890088D01*
X138449908Y-93879130D01*
X138434800Y-93869210D01*
X138424950Y-93862150D01*
X138423767Y-93861166D01*
X138421666Y-93858722D01*
X138419931Y-93854838D01*
X138418526Y-93848622D01*
X138417417Y-93839178D01*
X138416571Y-93825614D01*
X138415953Y-93807035D01*
X138415530Y-93782547D01*
X138415268Y-93751257D01*
X138415132Y-93712271D01*
X138415089Y-93664695D01*
X138415093Y-93632975D01*
X138415199Y-93586817D01*
X138415471Y-93543651D01*
X138415890Y-93504524D01*
X138416437Y-93470482D01*
X138417093Y-93442574D01*
X138417838Y-93421848D01*
X138417845Y-93421742D01*
X138508551Y-93421742D01*
X138512392Y-93425344D01*
X138523729Y-93433102D01*
X138541344Y-93444256D01*
X138564025Y-93458045D01*
X138590555Y-93473710D01*
X138605017Y-93482084D01*
X138639891Y-93502161D01*
X138680011Y-93525277D01*
X138723488Y-93550341D01*
X138768434Y-93576264D01*
X138812961Y-93601958D01*
X138855182Y-93626333D01*
X138893207Y-93648299D01*
X138925150Y-93666768D01*
X138935017Y-93672478D01*
X138948841Y-93680470D01*
X138970229Y-93692819D01*
X138998080Y-93708891D01*
X139031292Y-93728051D01*
X139068766Y-93749665D01*
X139109400Y-93773097D01*
X139152093Y-93797713D01*
X139195745Y-93822878D01*
X139239254Y-93847957D01*
X139281519Y-93872316D01*
X139321440Y-93895319D01*
X139357916Y-93916332D01*
X139377517Y-93927621D01*
X139399818Y-93940471D01*
X139429879Y-93957801D01*
X139466799Y-93979094D01*
X139509679Y-94003828D01*
X139557616Y-94031485D01*
X139609712Y-94061545D01*
X139665065Y-94093488D01*
X139722776Y-94126796D01*
X139781944Y-94160948D01*
X139841668Y-94195425D01*
X139869728Y-94211624D01*
X139926132Y-94244135D01*
X139980074Y-94275120D01*
X140030924Y-94304225D01*
X140078054Y-94331095D01*
X140120834Y-94355376D01*
X140158636Y-94376710D01*
X140190831Y-94394745D01*
X140216790Y-94409124D01*
X140235885Y-94419493D01*
X140247485Y-94425496D01*
X140250978Y-94426905D01*
X140251920Y-94421497D01*
X140252784Y-94407243D01*
X140253543Y-94385298D01*
X140254173Y-94356816D01*
X140254645Y-94322952D01*
X140254934Y-94284859D01*
X140255017Y-94249767D01*
X140255017Y-94075125D01*
X140236267Y-94063388D01*
X140228026Y-94058451D01*
X140212106Y-94049120D01*
X140189504Y-94035971D01*
X140161215Y-94019581D01*
X140128237Y-94000527D01*
X140091568Y-93979386D01*
X140052202Y-93956735D01*
X140027517Y-93942553D01*
X139985144Y-93918210D01*
X139943292Y-93894144D01*
X139903229Y-93871085D01*
X139866225Y-93849766D01*
X139833547Y-93830915D01*
X139806465Y-93815266D01*
X139786247Y-93803549D01*
X139780017Y-93799923D01*
X139761963Y-93789429D01*
X139736219Y-93774514D01*
X139703765Y-93755744D01*
X139665579Y-93733683D01*
X139622641Y-93708896D01*
X139575930Y-93681949D01*
X139526424Y-93653406D01*
X139475102Y-93623831D01*
X139422944Y-93593791D01*
X139370930Y-93563849D01*
X139345017Y-93548939D01*
X139317107Y-93532845D01*
X139287711Y-93515827D01*
X139258350Y-93498773D01*
X139230548Y-93482572D01*
X139205829Y-93468113D01*
X139185715Y-93456284D01*
X139171731Y-93447975D01*
X139166588Y-93444843D01*
X139155262Y-93433300D01*
X139153821Y-93421791D01*
X139248192Y-93421791D01*
X139251140Y-93426592D01*
X139261753Y-93431856D01*
X139262902Y-93432338D01*
X139277916Y-93439742D01*
X139295463Y-93449936D01*
X139303153Y-93454905D01*
X139315995Y-93463301D01*
X139325151Y-93468781D01*
X139327887Y-93470000D01*
X139333523Y-93472446D01*
X139345837Y-93479064D01*
X139362998Y-93488767D01*
X139383174Y-93500471D01*
X139404537Y-93513091D01*
X139425254Y-93525543D01*
X139443496Y-93536741D01*
X139457432Y-93545601D01*
X139465231Y-93551039D01*
X139466190Y-93551957D01*
X139469532Y-93554274D01*
X139470017Y-93552500D01*
X139471887Y-93550348D01*
X139473843Y-93552500D01*
X139481635Y-93559148D01*
X139495406Y-93567702D01*
X139511892Y-93576244D01*
X139521267Y-93580377D01*
X139531058Y-93585717D01*
X139535017Y-93590489D01*
X139539363Y-93593656D01*
X139549836Y-93594999D01*
X139550017Y-93595000D01*
X139560550Y-93593663D01*
X139565015Y-93590443D01*
X139565017Y-93590387D01*
X139569276Y-93585974D01*
X139579795Y-93580954D01*
X139582517Y-93580000D01*
X139593919Y-93575263D01*
X139599800Y-93570918D01*
X139600017Y-93570218D01*
X139604163Y-93565857D01*
X139614338Y-93560384D01*
X139616267Y-93559567D01*
X139629337Y-93553174D01*
X139638806Y-93546762D01*
X139639124Y-93546461D01*
X139648460Y-93540854D01*
X139652874Y-93540000D01*
X139659298Y-93537362D01*
X139660017Y-93535323D01*
X139664244Y-93530755D01*
X139674693Y-93525401D01*
X139677517Y-93524319D01*
X139688861Y-93519558D01*
X139694779Y-93515790D01*
X139695023Y-93515245D01*
X139699130Y-93511796D01*
X139709989Y-93505169D01*
X139725420Y-93496679D01*
X139728619Y-93495000D01*
X139745853Y-93485673D01*
X139760081Y-93477344D01*
X139768499Y-93471662D01*
X139768962Y-93471257D01*
X139779102Y-93465103D01*
X139787866Y-93461965D01*
X139797057Y-93458243D01*
X139800017Y-93454845D01*
X139804269Y-93450789D01*
X139814773Y-93445955D01*
X139817517Y-93445000D01*
X139828927Y-93440134D01*
X139834803Y-93435481D01*
X139835017Y-93434707D01*
X139839255Y-93430261D01*
X139847517Y-93427053D01*
X139856870Y-93423402D01*
X139860017Y-93420064D01*
X139864166Y-93415822D01*
X139874347Y-93410443D01*
X139876267Y-93409640D01*
X139887858Y-93404398D01*
X139894695Y-93400280D01*
X139895017Y-93399945D01*
X139900357Y-93396078D01*
X139912103Y-93388806D01*
X139928011Y-93379406D01*
X139945837Y-93369159D01*
X139963339Y-93359342D01*
X139978272Y-93351236D01*
X139988394Y-93346119D01*
X139991383Y-93345000D01*
X139997422Y-93342073D01*
X140005121Y-93336250D01*
X140013428Y-93330637D01*
X140017861Y-93330000D01*
X140022268Y-93328973D01*
X140023949Y-93326904D01*
X140030001Y-93321700D01*
X140042131Y-93313824D01*
X140055017Y-93306466D01*
X140073893Y-93296061D01*
X140092756Y-93285326D01*
X140102517Y-93279580D01*
X140114537Y-93272983D01*
X140122428Y-93269861D01*
X140123949Y-93270018D01*
X140127457Y-93269145D01*
X140128949Y-93267345D01*
X140134786Y-93262439D01*
X140146728Y-93254332D01*
X140162214Y-93244570D01*
X140178681Y-93234704D01*
X140193568Y-93226283D01*
X140204311Y-93220855D01*
X140207817Y-93219668D01*
X140214207Y-93216707D01*
X140225526Y-93209473D01*
X140234028Y-93203418D01*
X140255539Y-93187500D01*
X140256528Y-93013805D01*
X140256734Y-92965980D01*
X140256736Y-92927278D01*
X140256504Y-92896821D01*
X140256011Y-92873734D01*
X140255229Y-92857141D01*
X140254130Y-92846165D01*
X140252686Y-92839930D01*
X140250895Y-92837569D01*
X140242374Y-92838642D01*
X140236788Y-92842514D01*
X140227454Y-92848706D01*
X140222159Y-92850000D01*
X140215732Y-92852354D01*
X140215017Y-92854165D01*
X140210916Y-92858427D01*
X140200204Y-92865482D01*
X140186267Y-92873232D01*
X140166695Y-92883800D01*
X140146911Y-92895145D01*
X140136013Y-92901789D01*
X140120407Y-92911168D01*
X140105876Y-92919052D01*
X140101013Y-92921370D01*
X140090465Y-92926723D01*
X140084981Y-92930728D01*
X140079685Y-92934560D01*
X140067880Y-92941749D01*
X140051893Y-92950973D01*
X140034050Y-92960908D01*
X140016680Y-92970230D01*
X140005017Y-92976195D01*
X139993121Y-92983165D01*
X139985909Y-92988691D01*
X139976499Y-92994189D01*
X139972159Y-92995000D01*
X139965741Y-92997979D01*
X139965017Y-93000295D01*
X139961953Y-93003281D01*
X139960017Y-93002500D01*
X139955383Y-93002275D01*
X139955017Y-93003630D01*
X139950917Y-93007927D01*
X139940213Y-93015004D01*
X139926440Y-93022675D01*
X139910466Y-93031348D01*
X139897600Y-93039027D01*
X139891410Y-93043422D01*
X139881448Y-93049710D01*
X139873737Y-93052846D01*
X139863886Y-93057149D01*
X139859937Y-93060325D01*
X139854440Y-93064614D01*
X139842747Y-93071759D01*
X139829937Y-93078842D01*
X139809634Y-93090101D01*
X139788158Y-93102749D01*
X139777788Y-93109190D01*
X139763398Y-93117757D01*
X139751858Y-93123498D01*
X139746895Y-93125000D01*
X139738372Y-93128245D01*
X139734035Y-93131695D01*
X139726351Y-93137552D01*
X139712852Y-93146249D01*
X139695901Y-93156432D01*
X139677865Y-93166750D01*
X139661108Y-93175851D01*
X139647996Y-93182384D01*
X139640895Y-93184996D01*
X139640775Y-93185000D01*
X139635305Y-93187557D01*
X139634999Y-93188750D01*
X139630902Y-93192810D01*
X139620213Y-93199748D01*
X139606292Y-93207500D01*
X139590329Y-93216235D01*
X139577491Y-93223962D01*
X139571280Y-93228422D01*
X139561441Y-93234702D01*
X139553737Y-93237846D01*
X139543937Y-93241863D01*
X139540017Y-93244614D01*
X139535001Y-93248152D01*
X139522889Y-93255692D01*
X139505275Y-93266293D01*
X139483754Y-93279012D01*
X139459921Y-93292906D01*
X139435371Y-93307033D01*
X139411699Y-93320451D01*
X139411011Y-93320837D01*
X139399951Y-93327155D01*
X139382435Y-93337288D01*
X139360626Y-93349980D01*
X139336688Y-93363974D01*
X139329636Y-93368109D01*
X139307028Y-93381193D01*
X139287367Y-93392236D01*
X139272307Y-93400333D01*
X139263504Y-93404580D01*
X139262088Y-93405000D01*
X139256077Y-93408774D01*
X139251219Y-93414932D01*
X139248192Y-93421791D01*
X139153821Y-93421791D01*
X139153426Y-93418633D01*
X139155286Y-93411917D01*
X139161118Y-93405327D01*
X139174292Y-93395208D01*
X139193275Y-93382643D01*
X139215790Y-93369142D01*
X139237131Y-93356871D01*
X139266127Y-93340171D01*
X139301778Y-93319618D01*
X139343084Y-93295791D01*
X139389044Y-93269266D01*
X139438658Y-93240623D01*
X139490924Y-93210439D01*
X139544844Y-93179291D01*
X139599416Y-93147757D01*
X139653640Y-93116415D01*
X139706515Y-93085844D01*
X139757042Y-93056619D01*
X139804220Y-93029321D01*
X139820017Y-93020177D01*
X139863216Y-92995174D01*
X139909881Y-92968177D01*
X139957760Y-92940486D01*
X140004601Y-92913405D01*
X140048153Y-92888234D01*
X140086165Y-92866275D01*
X140098767Y-92858999D01*
X140130201Y-92840737D01*
X140158605Y-92824018D01*
X140182880Y-92809505D01*
X140201927Y-92797865D01*
X140214644Y-92789761D01*
X140219932Y-92785859D01*
X140220017Y-92785686D01*
X140219527Y-92784824D01*
X140217730Y-92783275D01*
X140214137Y-92780752D01*
X140208257Y-92776968D01*
X140199600Y-92771637D01*
X140187675Y-92764472D01*
X140171993Y-92755187D01*
X140152062Y-92743494D01*
X140127394Y-92729108D01*
X140097496Y-92711741D01*
X140061880Y-92691107D01*
X140020055Y-92666918D01*
X139971531Y-92638890D01*
X139915817Y-92606734D01*
X139852423Y-92570164D01*
X139780859Y-92528893D01*
X139780017Y-92528408D01*
X139737909Y-92504126D01*
X139698043Y-92481135D01*
X139661338Y-92459965D01*
X139628714Y-92441147D01*
X139601093Y-92425213D01*
X139579394Y-92412693D01*
X139564539Y-92404118D01*
X139557517Y-92400059D01*
X139546772Y-92393848D01*
X139528608Y-92383367D01*
X139504271Y-92369335D01*
X139475011Y-92352470D01*
X139442074Y-92333493D01*
X139406707Y-92313121D01*
X139370159Y-92292072D01*
X139333677Y-92271067D01*
X139298508Y-92250823D01*
X139265900Y-92232059D01*
X139262517Y-92230112D01*
X139234901Y-92214108D01*
X139209826Y-92199357D01*
X139188748Y-92186732D01*
X139173120Y-92177106D01*
X139164397Y-92171353D01*
X139163524Y-92170673D01*
X139156488Y-92158360D01*
X139156188Y-92151616D01*
X139245285Y-92151616D01*
X139249598Y-92156655D01*
X139260617Y-92164117D01*
X139275285Y-92172041D01*
X139290389Y-92180016D01*
X139301091Y-92186788D01*
X139305017Y-92190791D01*
X139309053Y-92194578D01*
X139312159Y-92195000D01*
X139321029Y-92198294D01*
X139328052Y-92203750D01*
X139335734Y-92210096D01*
X139339659Y-92211589D01*
X139344928Y-92213524D01*
X139356544Y-92219355D01*
X139372285Y-92227825D01*
X139389927Y-92237680D01*
X139407247Y-92247663D01*
X139422022Y-92256519D01*
X139432028Y-92262991D01*
X139435017Y-92265448D01*
X139440781Y-92268326D01*
X139441104Y-92268272D01*
X139447212Y-92270582D01*
X139454320Y-92275743D01*
X139466285Y-92283700D01*
X139474452Y-92287320D01*
X139486034Y-92292755D01*
X139491265Y-92296577D01*
X139500318Y-92303097D01*
X139513555Y-92310466D01*
X139528265Y-92317467D01*
X139541737Y-92322880D01*
X139551261Y-92325487D01*
X139554183Y-92324865D01*
X139559918Y-92320420D01*
X139562933Y-92320000D01*
X139569313Y-92316999D01*
X139570017Y-92314704D01*
X139573080Y-92311718D01*
X139575017Y-92312500D01*
X139579650Y-92312724D01*
X139580017Y-92311369D01*
X139584116Y-92307072D01*
X139594820Y-92299995D01*
X139608593Y-92292324D01*
X139624640Y-92283588D01*
X139637644Y-92275774D01*
X139643950Y-92271250D01*
X139653021Y-92265837D01*
X139657109Y-92265000D01*
X139665201Y-92261949D01*
X139675017Y-92255000D01*
X139685362Y-92247815D01*
X139693282Y-92245000D01*
X139699426Y-92241866D01*
X139700017Y-92239704D01*
X139703080Y-92236718D01*
X139705017Y-92237500D01*
X139709626Y-92237157D01*
X139710017Y-92235390D01*
X139714262Y-92230428D01*
X139722517Y-92227053D01*
X139731866Y-92223623D01*
X139735023Y-92220707D01*
X139739135Y-92217034D01*
X139750006Y-92210238D01*
X139765451Y-92201664D01*
X139768619Y-92200000D01*
X139785790Y-92190726D01*
X139799902Y-92182511D01*
X139808180Y-92176977D01*
X139808642Y-92176577D01*
X139818586Y-92170290D01*
X139826296Y-92167153D01*
X139836103Y-92163001D01*
X139840017Y-92160045D01*
X139845588Y-92155749D01*
X139857570Y-92148266D01*
X139873548Y-92138941D01*
X139891109Y-92129117D01*
X139907839Y-92120141D01*
X139921325Y-92113356D01*
X139929154Y-92110107D01*
X139929843Y-92110000D01*
X139934844Y-92106876D01*
X139935017Y-92105802D01*
X139939043Y-92101066D01*
X139948355Y-92095230D01*
X139958803Y-92090511D01*
X139966238Y-92089121D01*
X139966267Y-92089127D01*
X139969998Y-92086462D01*
X139970017Y-92086074D01*
X139974118Y-92081945D01*
X139984833Y-92075004D01*
X139998767Y-92067324D01*
X140014230Y-92058896D01*
X140026025Y-92051630D01*
X140031190Y-92047500D01*
X140034575Y-92045348D01*
X140035017Y-92047500D01*
X140036979Y-92049373D01*
X140038843Y-92047249D01*
X140044441Y-92042271D01*
X140054972Y-92034884D01*
X140067862Y-92026661D01*
X140080539Y-92019177D01*
X140090428Y-92014004D01*
X140094956Y-92012717D01*
X140095017Y-92012903D01*
X140097916Y-92012180D01*
X140102874Y-92007857D01*
X140112253Y-92001471D01*
X140117874Y-92000000D01*
X140124308Y-91997877D01*
X140125023Y-91996250D01*
X140129141Y-91992313D01*
X140140025Y-91985317D01*
X140155488Y-91976647D01*
X140158619Y-91975000D01*
X140175790Y-91965726D01*
X140189902Y-91957511D01*
X140198180Y-91951977D01*
X140198642Y-91951577D01*
X140208627Y-91945227D01*
X140216063Y-91942167D01*
X140228078Y-91936327D01*
X140233890Y-91931840D01*
X140243169Y-91925999D01*
X140247874Y-91925000D01*
X140254308Y-91922877D01*
X140255023Y-91921250D01*
X140259141Y-91917313D01*
X140270025Y-91910317D01*
X140285488Y-91901647D01*
X140288619Y-91900000D01*
X140305790Y-91890726D01*
X140319902Y-91882511D01*
X140328180Y-91876977D01*
X140328642Y-91876577D01*
X140338586Y-91870290D01*
X140346296Y-91867153D01*
X140356101Y-91863049D01*
X140360017Y-91860164D01*
X140365304Y-91855940D01*
X140376056Y-91849024D01*
X140389772Y-91840844D01*
X140403949Y-91832833D01*
X140416086Y-91826418D01*
X140423679Y-91823031D01*
X140425017Y-91823014D01*
X140427920Y-91822202D01*
X140432874Y-91817857D01*
X140442253Y-91811471D01*
X140447874Y-91810000D01*
X140454298Y-91807362D01*
X140455017Y-91805323D01*
X140459244Y-91800755D01*
X140469693Y-91795401D01*
X140472517Y-91794319D01*
X140483874Y-91789331D01*
X140489780Y-91785017D01*
X140490017Y-91784332D01*
X140494129Y-91780088D01*
X140500144Y-91777459D01*
X140510629Y-91772736D01*
X140524487Y-91764851D01*
X140528894Y-91762052D01*
X140540716Y-91754963D01*
X140548815Y-91751303D01*
X140550374Y-91751180D01*
X140555632Y-91749098D01*
X140561981Y-91743749D01*
X140571499Y-91736921D01*
X140577874Y-91734999D01*
X140584301Y-91732628D01*
X140585017Y-91730802D01*
X140589043Y-91726066D01*
X140598355Y-91720230D01*
X140608803Y-91715511D01*
X140616238Y-91714121D01*
X140616267Y-91714127D01*
X140619977Y-91711403D01*
X140620017Y-91710802D01*
X140624070Y-91706133D01*
X140633460Y-91700517D01*
X140644025Y-91696146D01*
X140649994Y-91695000D01*
X140656392Y-91698112D01*
X140666045Y-91705716D01*
X140667259Y-91706823D01*
X140680017Y-91718646D01*
X140680017Y-92115990D01*
X140680052Y-92178135D01*
X140680155Y-92237369D01*
X140680319Y-92292933D01*
X140680539Y-92344070D01*
X140680811Y-92390021D01*
X140681128Y-92430027D01*
X140681484Y-92463332D01*
X140681875Y-92489176D01*
X140682295Y-92506801D01*
X140682739Y-92515449D01*
X140682898Y-92516215D01*
X140688742Y-92515932D01*
X140699520Y-92511623D01*
X140711911Y-92504905D01*
X140722593Y-92497394D01*
X140723888Y-92496257D01*
X140734096Y-92490099D01*
X140742866Y-92486965D01*
X140752054Y-92483321D01*
X140755017Y-92480064D01*
X140759166Y-92475822D01*
X140769347Y-92470443D01*
X140771267Y-92469640D01*
X140782858Y-92464390D01*
X140789696Y-92460252D01*
X140790017Y-92459914D01*
X140795382Y-92456191D01*
X140807207Y-92449305D01*
X140823057Y-92440666D01*
X140825017Y-92439630D01*
X140841161Y-92430955D01*
X140853566Y-92423980D01*
X140859802Y-92420077D01*
X140860017Y-92419884D01*
X140866700Y-92414577D01*
X140876211Y-92408585D01*
X140885086Y-92403887D01*
X140889859Y-92402463D01*
X140890017Y-92402741D01*
X140892882Y-92402234D01*
X140897306Y-92398424D01*
X140904872Y-92392790D01*
X140918761Y-92384055D01*
X140936447Y-92373780D01*
X140943556Y-92369841D01*
X140961447Y-92359686D01*
X140975925Y-92350766D01*
X140984737Y-92344500D01*
X140986190Y-92343024D01*
X140986852Y-92337143D01*
X140987450Y-92322087D01*
X140987985Y-92298601D01*
X140988459Y-92267431D01*
X140988871Y-92229323D01*
X140989224Y-92185023D01*
X140989517Y-92135277D01*
X140989753Y-92080831D01*
X140989931Y-92022430D01*
X140990053Y-91960822D01*
X140990120Y-91896751D01*
X140990133Y-91830963D01*
X140990092Y-91764206D01*
X140989999Y-91697224D01*
X140989855Y-91630763D01*
X140989660Y-91565569D01*
X140989415Y-91502390D01*
X140989122Y-91441969D01*
X140988782Y-91385054D01*
X140988395Y-91332389D01*
X140987962Y-91284722D01*
X140987484Y-91242798D01*
X140986962Y-91207363D01*
X140986398Y-91179163D01*
X140985792Y-91158944D01*
X140985144Y-91147452D01*
X140984663Y-91145000D01*
X140977455Y-91147315D01*
X140964471Y-91153275D01*
X140948522Y-91161397D01*
X140932417Y-91170200D01*
X140918967Y-91178201D01*
X140911165Y-91183750D01*
X140901605Y-91189173D01*
X140897159Y-91190000D01*
X140890741Y-91192979D01*
X140890017Y-91195295D01*
X140886953Y-91198281D01*
X140885017Y-91197499D01*
X140880401Y-91197704D01*
X140880017Y-91199367D01*
X140875847Y-91204515D01*
X140868767Y-91207836D01*
X140858958Y-91211786D01*
X140855017Y-91214439D01*
X140848229Y-91219936D01*
X140835889Y-91227856D01*
X140821019Y-91236490D01*
X140806642Y-91244127D01*
X140795783Y-91249055D01*
X140792184Y-91250000D01*
X140785739Y-91252213D01*
X140785017Y-91253925D01*
X140780915Y-91258054D01*
X140770200Y-91264995D01*
X140756267Y-91272675D01*
X140741075Y-91280716D01*
X140729752Y-91287096D01*
X140725017Y-91290227D01*
X140719577Y-91294059D01*
X140707719Y-91301343D01*
X140691315Y-91311018D01*
X140672234Y-91322024D01*
X140652348Y-91333299D01*
X140633528Y-91343784D01*
X140617644Y-91352418D01*
X140606568Y-91358141D01*
X140602170Y-91359892D01*
X140602159Y-91359867D01*
X140598929Y-91361058D01*
X140593052Y-91366250D01*
X140583534Y-91373078D01*
X140577159Y-91375000D01*
X140570735Y-91377637D01*
X140570017Y-91379676D01*
X140565789Y-91384244D01*
X140555340Y-91389598D01*
X140552517Y-91390680D01*
X140541158Y-91395672D01*
X140535253Y-91399993D01*
X140535017Y-91400680D01*
X140530803Y-91404587D01*
X140520384Y-91409594D01*
X140517517Y-91410680D01*
X140506158Y-91415672D01*
X140500253Y-91419993D01*
X140500017Y-91420680D01*
X140495803Y-91424587D01*
X140485384Y-91429594D01*
X140482517Y-91430680D01*
X140471170Y-91435497D01*
X140465258Y-91439400D01*
X140465017Y-91439980D01*
X140460888Y-91443492D01*
X140449965Y-91450078D01*
X140434444Y-91458430D01*
X140431267Y-91460053D01*
X140414730Y-91468666D01*
X140401953Y-91475759D01*
X140395343Y-91479986D01*
X140395017Y-91480310D01*
X140389951Y-91483864D01*
X140377921Y-91491293D01*
X140360666Y-91501549D01*
X140339927Y-91513583D01*
X140337517Y-91514965D01*
X140309856Y-91530874D01*
X140277999Y-91549300D01*
X140246367Y-91567683D01*
X140225017Y-91580155D01*
X140202665Y-91593018D01*
X140182557Y-91604165D01*
X140166697Y-91612512D01*
X140157091Y-91616977D01*
X140156267Y-91617259D01*
X140147542Y-91621514D01*
X140145017Y-91625013D01*
X140140794Y-91629359D01*
X140130355Y-91634597D01*
X140127517Y-91635680D01*
X140116171Y-91640484D01*
X140110259Y-91644357D01*
X140110017Y-91644929D01*
X140105933Y-91648548D01*
X140095265Y-91655136D01*
X140081440Y-91662675D01*
X140065394Y-91671409D01*
X140052394Y-91679221D01*
X140046090Y-91683742D01*
X140035933Y-91689897D01*
X140027167Y-91693034D01*
X140017979Y-91696678D01*
X140015017Y-91699935D01*
X140010867Y-91704177D01*
X140000686Y-91709556D01*
X139998767Y-91710359D01*
X139987172Y-91715635D01*
X139980336Y-91719834D01*
X139980017Y-91720180D01*
X139974669Y-91724065D01*
X139962239Y-91731810D01*
X139944326Y-91742502D01*
X139922531Y-91755232D01*
X139898452Y-91769089D01*
X139873691Y-91783162D01*
X139849848Y-91796542D01*
X139828523Y-91808316D01*
X139811315Y-91817576D01*
X139799826Y-91823410D01*
X139795808Y-91825000D01*
X139790332Y-91828114D01*
X139790017Y-91829612D01*
X139785761Y-91834047D01*
X139775277Y-91839042D01*
X139772839Y-91839893D01*
X139761079Y-91844650D01*
X139754437Y-91848995D01*
X139754089Y-91849560D01*
X139749283Y-91853571D01*
X139737631Y-91861163D01*
X139721109Y-91871208D01*
X139701694Y-91882578D01*
X139681362Y-91894143D01*
X139662088Y-91904777D01*
X139645849Y-91913349D01*
X139634621Y-91918732D01*
X139630743Y-91920000D01*
X139625318Y-91923337D01*
X139625017Y-91924904D01*
X139620774Y-91929643D01*
X139612517Y-91932946D01*
X139603163Y-91936597D01*
X139600017Y-91939935D01*
X139595867Y-91944177D01*
X139585686Y-91949556D01*
X139583767Y-91950359D01*
X139572152Y-91955737D01*
X139565297Y-91960171D01*
X139564981Y-91960546D01*
X139559597Y-91964602D01*
X139547885Y-91971801D01*
X139532351Y-91980605D01*
X139531939Y-91980830D01*
X139510239Y-91992893D01*
X139486529Y-92006379D01*
X139471975Y-92014832D01*
X139457290Y-92023133D01*
X139446619Y-92028522D01*
X139442178Y-92029885D01*
X139442159Y-92029832D01*
X139438928Y-92031050D01*
X139433052Y-92036250D01*
X139423534Y-92043078D01*
X139417159Y-92045000D01*
X139410735Y-92047637D01*
X139410016Y-92049676D01*
X139405789Y-92054244D01*
X139395340Y-92059598D01*
X139392516Y-92060680D01*
X139381158Y-92065672D01*
X139375253Y-92069993D01*
X139375016Y-92070680D01*
X139370803Y-92074587D01*
X139360384Y-92079594D01*
X139357516Y-92080680D01*
X139346148Y-92085826D01*
X139340249Y-92090519D01*
X139340017Y-92091299D01*
X139336894Y-92093344D01*
X139335017Y-92092500D01*
X139330401Y-92092704D01*
X139330017Y-92094367D01*
X139325847Y-92099515D01*
X139318767Y-92102836D01*
X139308951Y-92106910D01*
X139305017Y-92109754D01*
X139299665Y-92113803D01*
X139288115Y-92121064D01*
X139273767Y-92129447D01*
X139259155Y-92138572D01*
X139248897Y-92146601D01*
X139245285Y-92151616D01*
X139156188Y-92151616D01*
X139156024Y-92147944D01*
X139157244Y-92141935D01*
X139160380Y-92136176D01*
X139166554Y-92129835D01*
X139176887Y-92122079D01*
X139192499Y-92112076D01*
X139214513Y-92098994D01*
X139244048Y-92082001D01*
X139247517Y-92080021D01*
X139267405Y-92068637D01*
X139294388Y-92053135D01*
X139326910Y-92034413D01*
X139363416Y-92013368D01*
X139402349Y-91990899D01*
X139442154Y-91967903D01*
X139481274Y-91945278D01*
X139518153Y-91923923D01*
X139540017Y-91911246D01*
X139572141Y-91892611D01*
X139602731Y-91874878D01*
X139632991Y-91857347D01*
X139664126Y-91839323D01*
X139697341Y-91820109D01*
X139733841Y-91799008D01*
X139774831Y-91775321D01*
X139821517Y-91748354D01*
X139875102Y-91717408D01*
X139902517Y-91701578D01*
X139925402Y-91688362D01*
X139955723Y-91670851D01*
X139992254Y-91649751D01*
X140033773Y-91625771D01*
X140079054Y-91599616D01*
X140126873Y-91571994D01*
X140176008Y-91543611D01*
X140225232Y-91515176D01*
X140242517Y-91505191D01*
X140290944Y-91477217D01*
X140339286Y-91449293D01*
X140386384Y-91422089D01*
X140431082Y-91396272D01*
X140472222Y-91372513D01*
X140508647Y-91351478D01*
X140539199Y-91333837D01*
X140562721Y-91320257D01*
X140570017Y-91316046D01*
X140603204Y-91296882D01*
X140640289Y-91275449D01*
X140677714Y-91253805D01*
X140711920Y-91234008D01*
X140727517Y-91224974D01*
X140759895Y-91206219D01*
X140796967Y-91184758D01*
X140834765Y-91162886D01*
X140869323Y-91142899D01*
X140878767Y-91137440D01*
X140903421Y-91123018D01*
X140924754Y-91110212D01*
X140941378Y-91099884D01*
X140951902Y-91092894D01*
X140955017Y-91090200D01*
X140950857Y-91087010D01*
X140939178Y-91079612D01*
X140921179Y-91068696D01*
X140898057Y-91054952D01*
X140871014Y-91039070D01*
X140841246Y-91021740D01*
X140809954Y-91003651D01*
X140778336Y-90985494D01*
X140747590Y-90967959D01*
X140718917Y-90951735D01*
X140693515Y-90937512D01*
X140672583Y-90925981D01*
X140657320Y-90917831D01*
X140648924Y-90913752D01*
X140647791Y-90913412D01*
X140642062Y-90915852D01*
X140629081Y-90922622D01*
X140610210Y-90932971D01*
X140586811Y-90946150D01*
X140560245Y-90961408D01*
X140552517Y-90965896D01*
X140521680Y-90983829D01*
X140484781Y-91005248D01*
X140444422Y-91028647D01*
X140403204Y-91052518D01*
X140363728Y-91075353D01*
X140345017Y-91086166D01*
X140313665Y-91104279D01*
X140275451Y-91126365D01*
X140232169Y-91151387D01*
X140185610Y-91178308D01*
X140137568Y-91206093D01*
X140089835Y-91233703D01*
X140044205Y-91260103D01*
X140040017Y-91262527D01*
X139999760Y-91285813D01*
X139961537Y-91307909D01*
X139926357Y-91328232D01*
X139895231Y-91346198D01*
X139869167Y-91361226D01*
X139849175Y-91372733D01*
X139836265Y-91380136D01*
X139832517Y-91382265D01*
X139823677Y-91387307D01*
X139807292Y-91396727D01*
X139784468Y-91409884D01*
X139756312Y-91426141D01*
X139723929Y-91444858D01*
X139688426Y-91465397D01*
X139650909Y-91487120D01*
X139650017Y-91487637D01*
X139611119Y-91510162D01*
X139573045Y-91532197D01*
X139537121Y-91552976D01*
X139504674Y-91571731D01*
X139477032Y-91587696D01*
X139455522Y-91600102D01*
X139442517Y-91607583D01*
X139417517Y-91621949D01*
X139385356Y-91640465D01*
X139347527Y-91662270D01*
X139305520Y-91686503D01*
X139260828Y-91712301D01*
X139214944Y-91738804D01*
X139169358Y-91765149D01*
X139125564Y-91790476D01*
X139085053Y-91813922D01*
X139049317Y-91834625D01*
X139040017Y-91840018D01*
X139008211Y-91858461D01*
X138975989Y-91877134D01*
X138945505Y-91894790D01*
X138918910Y-91910183D01*
X138898360Y-91922065D01*
X138895017Y-91923996D01*
X138874526Y-91935826D01*
X138847948Y-91951169D01*
X138817284Y-91968869D01*
X138784539Y-91987771D01*
X138751712Y-92006719D01*
X138720808Y-92024557D01*
X138693829Y-92040129D01*
X138672776Y-92052279D01*
X138666959Y-92055636D01*
X138654804Y-92062628D01*
X138636351Y-92073217D01*
X138613982Y-92086037D01*
X138590081Y-92099721D01*
X138586959Y-92101507D01*
X138559577Y-92116865D01*
X138538706Y-92128684D01*
X138524556Y-92138049D01*
X138517337Y-92146044D01*
X138517258Y-92153754D01*
X138524528Y-92162262D01*
X138539357Y-92172652D01*
X138561956Y-92186009D01*
X138592532Y-92203418D01*
X138608425Y-92212557D01*
X138638970Y-92230239D01*
X138667938Y-92246995D01*
X138693773Y-92261925D01*
X138714916Y-92274129D01*
X138729810Y-92282707D01*
X138734723Y-92285524D01*
X138743876Y-92290779D01*
X138760843Y-92300545D01*
X138784780Y-92314336D01*
X138814841Y-92331663D01*
X138850180Y-92352038D01*
X138889952Y-92374975D01*
X138933311Y-92399984D01*
X138979411Y-92426578D01*
X139027408Y-92454270D01*
X139076455Y-92482571D01*
X139125707Y-92510994D01*
X139174318Y-92539051D01*
X139221443Y-92566255D01*
X139266236Y-92592117D01*
X139307853Y-92616149D01*
X139312517Y-92618843D01*
X139348457Y-92639590D01*
X139385057Y-92660700D01*
X139420415Y-92681074D01*
X139452627Y-92699619D01*
X139479790Y-92715237D01*
X139498294Y-92725854D01*
X139526833Y-92742482D01*
X139547569Y-92755420D01*
X139561564Y-92765604D01*
X139569880Y-92773969D01*
X139573580Y-92781452D01*
X139573727Y-92788989D01*
X139573141Y-92791790D01*
X139571688Y-92795394D01*
X139568614Y-92799469D01*
X139563195Y-92804473D01*
X139554708Y-92810861D01*
X139542431Y-92819087D01*
X139525640Y-92829609D01*
X139503612Y-92842881D01*
X139475624Y-92859359D01*
X139440952Y-92879499D01*
X139398875Y-92903755D01*
X139360017Y-92926075D01*
X139328838Y-92944001D01*
X139292091Y-92965184D01*
X139252848Y-92987852D01*
X139214181Y-93010228D01*
X139180017Y-93030043D01*
X139146313Y-93049591D01*
X139106786Y-93072474D01*
X139064285Y-93097044D01*
X139021658Y-93121656D01*
X138981754Y-93144662D01*
X138967517Y-93152861D01*
X138886244Y-93199672D01*
X138813473Y-93241660D01*
X138749006Y-93278939D01*
X138692648Y-93311624D01*
X138644205Y-93339829D01*
X138603479Y-93363670D01*
X138570277Y-93383260D01*
X138544401Y-93398714D01*
X138525658Y-93410147D01*
X138513850Y-93417672D01*
X138508783Y-93421406D01*
X138508551Y-93421742D01*
X138417845Y-93421742D01*
X138418654Y-93409351D01*
X138419248Y-93406072D01*
X138426109Y-93399595D01*
X138437817Y-93391841D01*
X138440421Y-93390383D01*
X138470542Y-93374002D01*
X138493036Y-93361602D01*
X138509117Y-93352489D01*
X138519997Y-93345970D01*
X138526888Y-93341348D01*
X138529223Y-93339528D01*
X138539345Y-93332623D01*
X138553093Y-93324921D01*
X138555084Y-93323924D01*
X138575641Y-93313245D01*
X138597690Y-93300893D01*
X138618211Y-93288638D01*
X138634182Y-93278254D01*
X138639152Y-93274606D01*
X138648894Y-93267832D01*
X138655213Y-93265000D01*
X138655226Y-93265000D01*
X138660808Y-93262584D01*
X138673108Y-93256013D01*
X138690284Y-93246305D01*
X138709610Y-93235000D01*
X138729547Y-93223266D01*
X138746168Y-93213684D01*
X138757701Y-93207260D01*
X138762348Y-93205000D01*
X138767204Y-93202557D01*
X138778968Y-93195861D01*
X138796009Y-93185862D01*
X138816694Y-93173509D01*
X138822517Y-93169999D01*
X138843945Y-93157176D01*
X138862222Y-93146463D01*
X138875694Y-93138810D01*
X138882711Y-93135171D01*
X138883273Y-93135000D01*
X138888382Y-93132561D01*
X138900308Y-93125904D01*
X138917330Y-93116015D01*
X138937727Y-93103878D01*
X138940017Y-93102500D01*
X138960957Y-93090135D01*
X138979028Y-93079934D01*
X138992403Y-93072897D01*
X138999255Y-93070020D01*
X138999487Y-93070000D01*
X139004761Y-93066498D01*
X139005017Y-93065000D01*
X139008879Y-93060217D01*
X139010467Y-93059999D01*
X139016534Y-93057604D01*
X139028778Y-93051213D01*
X139045187Y-93042022D01*
X139063749Y-93031226D01*
X139082452Y-93020020D01*
X139099286Y-93009600D01*
X139112237Y-93001159D01*
X139119294Y-92995894D01*
X139120017Y-92994926D01*
X139116003Y-92991236D01*
X139105934Y-92985148D01*
X139101267Y-92982675D01*
X139089520Y-92976311D01*
X139071688Y-92966230D01*
X139050260Y-92953854D01*
X139029296Y-92941538D01*
X139008768Y-92929489D01*
X138991486Y-92919564D01*
X138979187Y-92912744D01*
X138973606Y-92910012D01*
X138973511Y-92910000D01*
X138968456Y-92907594D01*
X138956614Y-92901049D01*
X138939772Y-92891374D01*
X138920423Y-92880000D01*
X138900182Y-92868218D01*
X138882917Y-92858611D01*
X138870516Y-92852200D01*
X138864958Y-92850000D01*
X138860160Y-92846193D01*
X138860017Y-92845000D01*
X138856440Y-92840143D01*
X138855327Y-92840000D01*
X138849520Y-92837556D01*
X138836899Y-92830864D01*
X138819191Y-92820878D01*
X138798121Y-92808553D01*
X138792827Y-92805396D01*
X138771718Y-92792930D01*
X138754062Y-92782827D01*
X138741415Y-92775952D01*
X138735332Y-92773170D01*
X138735017Y-92773236D01*
X138731457Y-92772215D01*
X138722556Y-92766705D01*
X138718806Y-92764090D01*
X138701020Y-92752419D01*
X138679483Y-92739758D01*
X138658027Y-92728250D01*
X138640481Y-92720035D01*
X138638767Y-92719351D01*
X138628963Y-92714371D01*
X138625017Y-92710094D01*
X138620960Y-92705421D01*
X138616267Y-92703228D01*
X138604253Y-92697912D01*
X138600017Y-92695469D01*
X138584870Y-92686031D01*
X138566136Y-92674791D01*
X138545747Y-92662852D01*
X138525636Y-92651320D01*
X138507735Y-92641299D01*
X138493979Y-92633896D01*
X138486300Y-92630213D01*
X138485483Y-92629999D01*
X138478101Y-92626926D01*
X138474032Y-92623750D01*
X138465333Y-92617313D01*
X138452499Y-92609478D01*
X138449925Y-92608054D01*
X138441777Y-92603741D01*
X138435013Y-92599830D01*
X138429504Y-92595404D01*
X138425122Y-92589550D01*
X138421736Y-92581351D01*
X138419219Y-92569892D01*
X138417442Y-92554256D01*
X138416275Y-92533530D01*
X138415589Y-92506797D01*
X138415257Y-92473141D01*
X138415148Y-92431647D01*
X138415134Y-92381400D01*
X138415128Y-92360921D01*
X138415219Y-92302916D01*
X138415552Y-92252863D01*
X138416118Y-92211119D01*
X138416910Y-92178043D01*
X138417919Y-92153990D01*
X138419138Y-92139320D01*
X138420143Y-92134763D01*
X138427206Y-92127595D01*
X138440374Y-92118654D01*
X138453893Y-92111342D01*
X138469000Y-92103605D01*
X138479984Y-92097170D01*
X138484183Y-92093750D01*
X138489939Y-92090319D01*
X138492933Y-92090000D01*
X138499318Y-92087378D01*
X138500017Y-92085387D01*
X138504266Y-92080918D01*
X138514695Y-92075964D01*
X138516701Y-92075269D01*
X138531284Y-92068880D01*
X138543068Y-92061197D01*
X138543143Y-92061131D01*
X138553188Y-92053961D01*
X138568155Y-92045109D01*
X138577708Y-92040073D01*
X138592828Y-92031973D01*
X138604786Y-92024633D01*
X138609124Y-92021323D01*
X138617391Y-92015870D01*
X138620917Y-92014999D01*
X138626858Y-92012538D01*
X138639642Y-92005775D01*
X138657592Y-91995642D01*
X138679031Y-91983073D01*
X138687443Y-91978032D01*
X138710326Y-91964447D01*
X138730903Y-91952610D01*
X138747304Y-91943571D01*
X138757657Y-91938378D01*
X138759400Y-91937695D01*
X138767793Y-91933442D01*
X138770017Y-91930246D01*
X138774076Y-91925443D01*
X138778767Y-91923228D01*
X138790782Y-91917884D01*
X138795017Y-91915420D01*
X138810145Y-91905972D01*
X138828107Y-91895307D01*
X138846707Y-91884656D01*
X138863751Y-91875249D01*
X138877043Y-91868317D01*
X138884388Y-91865092D01*
X138884931Y-91864999D01*
X138889858Y-91861491D01*
X138890017Y-91860336D01*
X138894174Y-91855385D01*
X138901110Y-91852152D01*
X138908909Y-91848571D01*
X138923165Y-91841079D01*
X138941744Y-91830885D01*
X138962510Y-91819193D01*
X138983329Y-91807211D01*
X139002064Y-91796145D01*
X139016583Y-91787200D01*
X139020017Y-91784965D01*
X139030665Y-91778957D01*
X139038825Y-91775089D01*
X139048595Y-91769967D01*
X139063514Y-91761155D01*
X139080420Y-91750522D01*
X139081069Y-91750101D01*
X139097023Y-91740277D01*
X139110245Y-91733116D01*
X139118106Y-91730030D01*
X139118511Y-91729999D01*
X139124506Y-91727459D01*
X139125017Y-91725854D01*
X139129168Y-91721629D01*
X139139868Y-91715112D01*
X139150016Y-91710000D01*
X139163771Y-91702869D01*
X139172851Y-91696842D01*
X139175017Y-91694145D01*
X139178886Y-91690158D01*
X139180344Y-91690000D01*
X139186724Y-91687591D01*
X139199478Y-91681122D01*
X139216435Y-91671728D01*
X139226943Y-91665623D01*
X139246146Y-91654584D01*
X139263181Y-91645335D01*
X139275502Y-91639235D01*
X139279115Y-91637786D01*
X139287660Y-91633297D01*
X139290017Y-91629663D01*
X139293794Y-91625096D01*
X139294749Y-91624999D01*
X139301696Y-91622509D01*
X139314429Y-91616040D01*
X139330368Y-91607095D01*
X139346937Y-91597176D01*
X139361556Y-91587786D01*
X139371647Y-91580428D01*
X139372517Y-91579677D01*
X139385299Y-91571515D01*
X139396267Y-91567328D01*
X139406196Y-91563586D01*
X139410017Y-91559794D01*
X139414157Y-91555242D01*
X139420814Y-91552247D01*
X139429614Y-91548253D01*
X139444468Y-91540312D01*
X139462938Y-91529757D01*
X139474564Y-91522832D01*
X139496087Y-91510077D01*
X139517432Y-91497877D01*
X139535216Y-91488150D01*
X139541267Y-91485036D01*
X139554560Y-91477775D01*
X139563179Y-91471817D01*
X139565017Y-91469450D01*
X139569165Y-91465220D01*
X139576267Y-91462131D01*
X139585250Y-91458077D01*
X139600260Y-91450056D01*
X139618847Y-91439409D01*
X139630717Y-91432305D01*
X139650178Y-91420761D01*
X139667430Y-91411061D01*
X139680067Y-91404530D01*
X139684467Y-91402674D01*
X139692834Y-91398187D01*
X139695017Y-91394663D01*
X139698810Y-91390111D01*
X139699863Y-91389999D01*
X139706004Y-91387594D01*
X139718588Y-91381123D01*
X139735509Y-91371702D01*
X139747036Y-91364999D01*
X139765627Y-91354322D01*
X139781236Y-91345918D01*
X139791726Y-91340909D01*
X139794689Y-91339999D01*
X139799806Y-91336388D01*
X139800017Y-91335000D01*
X139803889Y-91330230D01*
X139805546Y-91329999D01*
X139811729Y-91327542D01*
X139824597Y-91320834D01*
X139842324Y-91310875D01*
X139863084Y-91298662D01*
X139865017Y-91297499D01*
X139885957Y-91285135D01*
X139904028Y-91274934D01*
X139917403Y-91267897D01*
X139924255Y-91265020D01*
X139924487Y-91264999D01*
X139929761Y-91261498D01*
X139930017Y-91260000D01*
X139933902Y-91255250D01*
X139935666Y-91254999D01*
X139941706Y-91252519D01*
X139954634Y-91245680D01*
X139972834Y-91235386D01*
X139994690Y-91222541D01*
X140007216Y-91214999D01*
X140030383Y-91201162D01*
X140050780Y-91189399D01*
X140066785Y-91180615D01*
X140076771Y-91175713D01*
X140079066Y-91175000D01*
X140084660Y-91171923D01*
X140085017Y-91170336D01*
X140089178Y-91165405D01*
X140096267Y-91162112D01*
X140107276Y-91157210D01*
X140125188Y-91147522D01*
X140148605Y-91133838D01*
X140176130Y-91116951D01*
X140177517Y-91116083D01*
X140190016Y-91108877D01*
X140200017Y-91103655D01*
X140209353Y-91098631D01*
X140224919Y-91089810D01*
X140244369Y-91078537D01*
X140260989Y-91068750D01*
X140280855Y-91057230D01*
X140297776Y-91047910D01*
X140309796Y-91041833D01*
X140314739Y-91040000D01*
X140319817Y-91036360D01*
X140320017Y-91035000D01*
X140324066Y-91030564D01*
X140327517Y-91030000D01*
X140334177Y-91027812D01*
X140335017Y-91025962D01*
X140339165Y-91021677D01*
X140349610Y-91015636D01*
X140355025Y-91013096D01*
X140368959Y-91006268D01*
X140379456Y-90999935D01*
X140381403Y-90998384D01*
X140389307Y-90992926D01*
X140402713Y-90985269D01*
X140412645Y-90980122D01*
X140426834Y-90972680D01*
X140436991Y-90966647D01*
X140440118Y-90964185D01*
X140446292Y-90959738D01*
X140455118Y-90955407D01*
X140466330Y-90949884D01*
X140481848Y-90941286D01*
X140492517Y-90934978D01*
X140509954Y-90924732D01*
X140527073Y-90915245D01*
X140535017Y-90911134D01*
X140546649Y-90904706D01*
X140553588Y-90899575D01*
X140554183Y-90898750D01*
X140559939Y-90895319D01*
X140562933Y-90895000D01*
X140569318Y-90892378D01*
X140570017Y-90890387D01*
X140574276Y-90885974D01*
X140584795Y-90880954D01*
X140587517Y-90879999D01*
X140598929Y-90875110D01*
X140604804Y-90870399D01*
X140605017Y-90869612D01*
X140608878Y-90865183D01*
X140610374Y-90864999D01*
X140617981Y-90861783D01*
X140623231Y-90857499D01*
X140636690Y-90850853D01*
X140655178Y-90852009D01*
G37*
D12*
X135985436Y-108665000D02*
X136439564Y-108665000D01*
X135985436Y-110135000D02*
X136439564Y-110135000D01*
X158825000Y-107725000D02*
X160175000Y-107725000D01*
X158825000Y-109475000D02*
X160175000Y-109475000D01*
X153240000Y-109065580D02*
X153240000Y-108784420D01*
X154260000Y-109065580D02*
X154260000Y-108784420D01*
X146210436Y-108665000D02*
X146664564Y-108665000D01*
X146210436Y-110135000D02*
X146664564Y-110135000D01*
X149610436Y-108665000D02*
X150064564Y-108665000D01*
X149610436Y-110135000D02*
X150064564Y-110135000D01*
X161740000Y-108415580D02*
X161740000Y-108134420D01*
X162760000Y-108415580D02*
X162760000Y-108134420D01*
X157350000Y-89100000D02*
X155050000Y-89100000D01*
X163650000Y-89100000D02*
X161450000Y-89100000D01*
X163650000Y-93700000D02*
X155050000Y-93700000D01*
X156240000Y-109065580D02*
X156240000Y-108784420D01*
X157260000Y-109065580D02*
X157260000Y-108784420D01*
%LPC*%
D17*
X155250000Y-109700000D03*
X155250000Y-108150000D03*
D18*
X136028400Y-90251500D03*
X136028400Y-92791500D03*
X136028400Y-95331500D03*
X136028400Y-97871500D03*
X136028400Y-100411500D03*
X136028400Y-102951500D03*
X136028400Y-105491500D03*
X152193400Y-105491500D03*
X152193400Y-102951500D03*
X152193400Y-100411500D03*
X152193400Y-97871500D03*
X152193400Y-95331500D03*
X152193400Y-92791500D03*
X152193400Y-90251500D03*
D19*
X142302000Y-103403200D03*
X144842000Y-103403200D03*
D20*
X142810000Y-89230000D03*
X145350000Y-89230000D03*
X142810000Y-91770000D03*
X145350000Y-91770000D03*
X142810000Y-94310000D03*
X145350000Y-94310000D03*
X142810000Y-96850000D03*
X145257400Y-96793200D03*
D21*
X155578185Y-98467448D03*
D22*
X155578185Y-100467448D03*
D23*
X142100000Y-109400000D03*
X143925000Y-109400000D03*
D24*
X160537501Y-106631100D03*
D25*
X160550000Y-105818600D03*
X160550000Y-105318599D03*
X160550000Y-104818599D03*
X160550000Y-104318598D03*
D24*
X160537501Y-103506098D03*
X160037499Y-103506098D03*
X159537500Y-103506098D03*
X159037501Y-103506098D03*
X158537500Y-103506098D03*
X158037500Y-103506098D03*
X157537499Y-103506098D03*
X157037500Y-103506098D03*
X156537501Y-103506098D03*
X156037499Y-103506098D03*
D25*
X156025000Y-104318598D03*
X156025000Y-104818599D03*
X156025000Y-105318599D03*
X156025000Y-105818600D03*
D24*
X156037499Y-106631100D03*
X156537501Y-106631100D03*
X157037500Y-106631100D03*
X157537499Y-106631100D03*
X158037500Y-106631100D03*
X158537500Y-106631100D03*
X159037501Y-106631100D03*
X159537500Y-106631100D03*
X160037499Y-106631100D03*
D23*
X138712500Y-109400000D03*
X140537500Y-109400000D03*
X158000000Y-95071813D03*
X159825000Y-95071813D03*
D26*
X156325000Y-95071813D03*
X154500000Y-95071813D03*
D17*
X162250000Y-105250000D03*
X162250000Y-103700000D03*
D23*
X135300000Y-109400000D03*
X137125000Y-109400000D03*
D27*
X160750000Y-108600000D03*
X158250000Y-108600000D03*
D17*
X153750000Y-109700000D03*
X153750000Y-108150000D03*
D23*
X145525000Y-109400000D03*
X147350000Y-109400000D03*
X148925000Y-109400000D03*
X150750000Y-109400000D03*
D17*
X162250000Y-109050000D03*
X162250000Y-107500000D03*
D28*
X163450000Y-91400000D03*
D29*
X161350000Y-91400000D03*
D30*
X159350000Y-91400000D03*
X157350000Y-91400000D03*
D28*
X155250000Y-91400000D03*
D17*
X156750000Y-109700000D03*
X156750000Y-108150000D03*
%LPD*%
M02*
