G04 #@! TF.GenerationSoftware,KiCad,Pcbnew,9.0.0*
G04 #@! TF.CreationDate,2026-03-02T13:57:17-06:00*
G04 #@! TF.ProjectId,eidon-tracker,6569646f-6e2d-4747-9261-636b65722e6b,rev?*
G04 #@! TF.SameCoordinates,Original*
G04 #@! TF.FileFunction,Soldermask,Bot*
G04 #@! TF.FilePolarity,Negative*
%FSLAX46Y46*%
G04 Gerber Fmt 4.6, Leading zero omitted, Abs format (unit mm)*
G04 Created by KiCad (PCBNEW 9.0.0) date 2026-03-02 13:57:17*
%MOMM*%
%LPD*%
G01*
G04 APERTURE LIST*
G04 APERTURE END LIST*
G36*
X156271870Y-99825417D02*
G01*
X156276027Y-99827252D01*
X156280222Y-99827805D01*
X156332699Y-99852275D01*
X156372726Y-99869949D01*
X156374583Y-99871806D01*
X156375037Y-99872018D01*
X156448614Y-99945595D01*
X156448825Y-99946048D01*
X156450684Y-99947907D01*
X156468366Y-99987955D01*
X156492827Y-100040410D01*
X156493378Y-100044602D01*
X156495216Y-100048763D01*
X156503185Y-100117448D01*
X156503185Y-100817448D01*
X156495216Y-100886133D01*
X156493378Y-100890294D01*
X156492827Y-100894485D01*
X156468375Y-100946922D01*
X156450684Y-100986989D01*
X156448824Y-100988848D01*
X156448614Y-100989300D01*
X156375037Y-101062877D01*
X156374585Y-101063087D01*
X156372726Y-101064947D01*
X156332659Y-101082638D01*
X156280222Y-101107090D01*
X156276031Y-101107641D01*
X156271870Y-101109479D01*
X156203185Y-101117448D01*
X154953185Y-101117448D01*
X154884500Y-101109479D01*
X154880339Y-101107641D01*
X154876147Y-101107090D01*
X154823692Y-101082629D01*
X154783644Y-101064947D01*
X154781785Y-101063088D01*
X154781332Y-101062877D01*
X154707755Y-100989300D01*
X154707543Y-100988846D01*
X154705686Y-100986989D01*
X154688012Y-100946962D01*
X154663542Y-100894485D01*
X154662989Y-100890290D01*
X154661154Y-100886133D01*
X154653185Y-100817448D01*
X154653185Y-100117448D01*
X154661154Y-100048763D01*
X154662989Y-100044605D01*
X154663542Y-100040410D01*
X154688021Y-99987914D01*
X154705686Y-99947907D01*
X154707542Y-99946050D01*
X154707755Y-99945595D01*
X154781332Y-99872018D01*
X154781787Y-99871805D01*
X154783644Y-99869949D01*
X154823651Y-99852284D01*
X154876147Y-99827805D01*
X154880342Y-99827252D01*
X154884500Y-99825417D01*
X154953185Y-99817448D01*
X156203185Y-99817448D01*
X156271870Y-99825417D01*
G37*
G36*
X155916896Y-97820578D02*
G01*
X156041870Y-97845437D01*
X156159593Y-97894199D01*
X156265541Y-97964991D01*
X156355642Y-98055092D01*
X156426434Y-98161040D01*
X156475196Y-98278763D01*
X156500055Y-98403737D01*
X156500055Y-98531159D01*
X156475196Y-98656133D01*
X156426434Y-98773856D01*
X156355642Y-98879804D01*
X156265541Y-98969905D01*
X156159593Y-99040697D01*
X156041870Y-99089459D01*
X155916896Y-99114318D01*
X155853185Y-99117448D01*
X155852569Y-99117448D01*
X155303801Y-99117448D01*
X155303185Y-99117448D01*
X155239474Y-99114318D01*
X155114500Y-99089459D01*
X154996777Y-99040697D01*
X154890829Y-98969905D01*
X154800728Y-98879804D01*
X154729936Y-98773856D01*
X154681174Y-98656133D01*
X154656315Y-98531159D01*
X154656315Y-98403737D01*
X154681174Y-98278763D01*
X154729936Y-98161040D01*
X154800728Y-98055092D01*
X154890829Y-97964991D01*
X154996777Y-97894199D01*
X155114500Y-97845437D01*
X155239474Y-97820578D01*
X155303185Y-97817448D01*
X155853185Y-97817448D01*
X155916896Y-97820578D01*
G37*
G36*
X155518462Y-89631775D02*
G01*
X155690086Y-89687539D01*
X155850873Y-89769464D01*
X155996865Y-89875533D01*
X156124467Y-90003135D01*
X156230536Y-90149127D01*
X156312461Y-90309914D01*
X156368225Y-90481538D01*
X156396455Y-90659772D01*
X156400000Y-90750000D01*
X156400000Y-92050000D01*
X156396455Y-92140228D01*
X156368225Y-92318462D01*
X156312461Y-92490086D01*
X156230536Y-92650873D01*
X156124467Y-92796865D01*
X155996865Y-92924467D01*
X155850873Y-93030536D01*
X155690086Y-93112461D01*
X155518462Y-93168225D01*
X155340228Y-93196455D01*
X155159772Y-93196455D01*
X154981538Y-93168225D01*
X154809914Y-93112461D01*
X154649127Y-93030536D01*
X154503135Y-92924467D01*
X154375533Y-92796865D01*
X154269464Y-92650873D01*
X154187539Y-92490086D01*
X154131775Y-92318462D01*
X154103545Y-92140228D01*
X154100000Y-92050000D01*
X154100000Y-90750000D01*
X154103545Y-90659772D01*
X154131775Y-90481538D01*
X154187539Y-90309914D01*
X154269464Y-90149127D01*
X154375533Y-90003135D01*
X154503135Y-89875533D01*
X154649127Y-89769464D01*
X154809914Y-89687539D01*
X154981538Y-89631775D01*
X155159772Y-89603545D01*
X155340228Y-89603545D01*
X155518462Y-89631775D01*
G37*
G36*
X163718462Y-89631775D02*
G01*
X163890086Y-89687539D01*
X164050873Y-89769464D01*
X164196865Y-89875533D01*
X164324467Y-90003135D01*
X164430536Y-90149127D01*
X164512461Y-90309914D01*
X164568225Y-90481538D01*
X164596455Y-90659772D01*
X164600000Y-90750000D01*
X164600000Y-92050000D01*
X164596455Y-92140228D01*
X164568225Y-92318462D01*
X164512461Y-92490086D01*
X164430536Y-92650873D01*
X164324467Y-92796865D01*
X164196865Y-92924467D01*
X164050873Y-93030536D01*
X163890086Y-93112461D01*
X163718462Y-93168225D01*
X163540228Y-93196455D01*
X163359772Y-93196455D01*
X163181538Y-93168225D01*
X163009914Y-93112461D01*
X162849127Y-93030536D01*
X162703135Y-92924467D01*
X162575533Y-92796865D01*
X162469464Y-92650873D01*
X162387539Y-92490086D01*
X162331775Y-92318462D01*
X162303545Y-92140228D01*
X162300000Y-92050000D01*
X162300000Y-90750000D01*
X162303545Y-90659772D01*
X162331775Y-90481538D01*
X162387539Y-90309914D01*
X162469464Y-90149127D01*
X162575533Y-90003135D01*
X162703135Y-89875533D01*
X162849127Y-89769464D01*
X163009914Y-89687539D01*
X163181538Y-89631775D01*
X163359772Y-89603545D01*
X163540228Y-89603545D01*
X163718462Y-89631775D01*
G37*
G36*
X162119134Y-90103806D02*
G01*
X162135355Y-90114645D01*
X162146194Y-90130866D01*
X162150000Y-90150000D01*
X162150000Y-92650000D01*
X162146194Y-92669134D01*
X162135355Y-92685355D01*
X162119134Y-92696194D01*
X162100000Y-92700000D01*
X160600000Y-92700000D01*
X160580866Y-92696194D01*
X160564645Y-92685355D01*
X160553806Y-92669134D01*
X160550000Y-92650000D01*
X160550000Y-90150000D01*
X160553806Y-90130866D01*
X160564645Y-90114645D01*
X160580866Y-90103806D01*
X160600000Y-90100000D01*
X162100000Y-90100000D01*
X162119134Y-90103806D01*
G37*
G36*
X157582228Y-90134448D02*
G01*
X157727117Y-90194463D01*
X157857515Y-90281592D01*
X157968408Y-90392485D01*
X158055537Y-90522883D01*
X158115552Y-90667772D01*
X158146148Y-90821586D01*
X158150000Y-90900000D01*
X158150000Y-91900000D01*
X158146148Y-91978414D01*
X158115552Y-92132228D01*
X158055537Y-92277117D01*
X157968408Y-92407515D01*
X157857515Y-92518408D01*
X157727117Y-92605537D01*
X157582228Y-92665552D01*
X157428414Y-92696148D01*
X157271586Y-92696148D01*
X157117772Y-92665552D01*
X156972883Y-92605537D01*
X156842485Y-92518408D01*
X156731592Y-92407515D01*
X156644463Y-92277117D01*
X156584448Y-92132228D01*
X156553852Y-91978414D01*
X156550000Y-91900000D01*
X156550000Y-90900000D01*
X156553852Y-90821586D01*
X156584448Y-90667772D01*
X156644463Y-90522883D01*
X156731592Y-90392485D01*
X156842485Y-90281592D01*
X156972883Y-90194463D01*
X157117772Y-90134448D01*
X157271586Y-90103852D01*
X157428414Y-90103852D01*
X157582228Y-90134448D01*
G37*
G36*
X159582228Y-90134448D02*
G01*
X159727117Y-90194463D01*
X159857515Y-90281592D01*
X159968408Y-90392485D01*
X160055537Y-90522883D01*
X160115552Y-90667772D01*
X160146148Y-90821586D01*
X160150000Y-90900000D01*
X160150000Y-91900000D01*
X160146148Y-91978414D01*
X160115552Y-92132228D01*
X160055537Y-92277117D01*
X159968408Y-92407515D01*
X159857515Y-92518408D01*
X159727117Y-92605537D01*
X159582228Y-92665552D01*
X159428414Y-92696148D01*
X159271586Y-92696148D01*
X159117772Y-92665552D01*
X158972883Y-92605537D01*
X158842485Y-92518408D01*
X158731592Y-92407515D01*
X158644463Y-92277117D01*
X158584448Y-92132228D01*
X158553852Y-91978414D01*
X158550000Y-91900000D01*
X158550000Y-90900000D01*
X158553852Y-90821586D01*
X158584448Y-90667772D01*
X158644463Y-90522883D01*
X158731592Y-90392485D01*
X158842485Y-90281592D01*
X158972883Y-90194463D01*
X159117772Y-90134448D01*
X159271586Y-90103852D01*
X159428414Y-90103852D01*
X159582228Y-90134448D01*
G37*
M02*
