G04 #@! TF.GenerationSoftware,KiCad,Pcbnew,9.0.0*
G04 #@! TF.CreationDate,2026-03-02T13:57:17-06:00*
G04 #@! TF.ProjectId,eidon-tracker,6569646f-6e2d-4747-9261-636b65722e6b,rev?*
G04 #@! TF.SameCoordinates,Original*
G04 #@! TF.FileFunction,Legend,Bot*
G04 #@! TF.FilePolarity,Positive*
%FSLAX46Y46*%
G04 Gerber Fmt 4.6, Leading zero omitted, Abs format (unit mm)*
G04 Created by KiCad (PCBNEW 9.0.0) date 2026-03-02 13:57:17*
%MOMM*%
%LPD*%
G01*
G04 APERTURE LIST*
G04 Aperture macros list*
%AMRoundRect*
0 Rectangle with rounded corners*
0 $1 Rounding radius*
0 $2 $3 $4 $5 $6 $7 $8 $9 X,Y pos of 4 corners*
0 Add a 4 corners polygon primitive as box body*
4,1,4,$2,$3,$4,$5,$6,$7,$8,$9,$2,$3,0*
0 Add four circle primitives for the rounded corners*
1,1,$1+$1,$2,$3*
1,1,$1+$1,$4,$5*
1,1,$1+$1,$6,$7*
1,1,$1+$1,$8,$9*
0 Add four rect primitives between the rounded corners*
20,1,$1+$1,$2,$3,$4,$5,0*
20,1,$1+$1,$4,$5,$6,$7,0*
20,1,$1+$1,$6,$7,$8,$9,0*
20,1,$1+$1,$8,$9,$2,$3,0*%
G04 Aperture macros list end*
%ADD10C,0.100000*%
%ADD11C,0.000000*%
%ADD12O,1.850000X1.300000*%
%ADD13RoundRect,0.270833X0.654167X-0.379167X0.654167X0.379167X-0.654167X0.379167X-0.654167X-0.379167X0*%
%ADD14O,2.300000X3.600000*%
%ADD15RoundRect,0.050000X0.750000X1.250000X-0.750000X1.250000X-0.750000X-1.250000X0.750000X-1.250000X0*%
%ADD16O,1.600000X2.600000*%
G04 APERTURE END LIST*
D10*
X146258890Y-88533206D02*
X145958890Y-88533206D01*
X145830318Y-89004635D02*
X146258890Y-89004635D01*
X146258890Y-89004635D02*
X146258890Y-88104635D01*
X146258890Y-88104635D02*
X145830318Y-88104635D01*
X145444604Y-89004635D02*
X145444604Y-88104635D01*
X145016033Y-89004635D02*
X145016033Y-88104635D01*
X145016033Y-88104635D02*
X144801747Y-88104635D01*
X144801747Y-88104635D02*
X144673176Y-88147492D01*
X144673176Y-88147492D02*
X144587461Y-88233206D01*
X144587461Y-88233206D02*
X144544604Y-88318920D01*
X144544604Y-88318920D02*
X144501747Y-88490349D01*
X144501747Y-88490349D02*
X144501747Y-88618920D01*
X144501747Y-88618920D02*
X144544604Y-88790349D01*
X144544604Y-88790349D02*
X144587461Y-88876063D01*
X144587461Y-88876063D02*
X144673176Y-88961778D01*
X144673176Y-88961778D02*
X144801747Y-89004635D01*
X144801747Y-89004635D02*
X145016033Y-89004635D01*
X143944604Y-88104635D02*
X143773176Y-88104635D01*
X143773176Y-88104635D02*
X143687461Y-88147492D01*
X143687461Y-88147492D02*
X143601747Y-88233206D01*
X143601747Y-88233206D02*
X143558890Y-88404635D01*
X143558890Y-88404635D02*
X143558890Y-88704635D01*
X143558890Y-88704635D02*
X143601747Y-88876063D01*
X143601747Y-88876063D02*
X143687461Y-88961778D01*
X143687461Y-88961778D02*
X143773176Y-89004635D01*
X143773176Y-89004635D02*
X143944604Y-89004635D01*
X143944604Y-89004635D02*
X144030319Y-88961778D01*
X144030319Y-88961778D02*
X144116033Y-88876063D01*
X144116033Y-88876063D02*
X144158890Y-88704635D01*
X144158890Y-88704635D02*
X144158890Y-88404635D01*
X144158890Y-88404635D02*
X144116033Y-88233206D01*
X144116033Y-88233206D02*
X144030319Y-88147492D01*
X144030319Y-88147492D02*
X143944604Y-88104635D01*
X143173176Y-89004635D02*
X143173176Y-88104635D01*
X143173176Y-88104635D02*
X142658890Y-89004635D01*
X142658890Y-89004635D02*
X142658890Y-88104635D01*
X142230319Y-88918920D02*
X142187462Y-88961778D01*
X142187462Y-88961778D02*
X142230319Y-89004635D01*
X142230319Y-89004635D02*
X142273176Y-88961778D01*
X142273176Y-88961778D02*
X142230319Y-88918920D01*
X142230319Y-88918920D02*
X142230319Y-89004635D01*
X141844605Y-88747492D02*
X141416034Y-88747492D01*
X141930319Y-89004635D02*
X141630319Y-88104635D01*
X141630319Y-88104635D02*
X141330319Y-89004635D01*
X141030319Y-89004635D02*
X141030319Y-88104635D01*
X139873176Y-88318920D02*
X139958891Y-88276063D01*
X139958891Y-88276063D02*
X140130319Y-88276063D01*
X140130319Y-88276063D02*
X140216034Y-88318920D01*
X140216034Y-88318920D02*
X140301748Y-88404635D01*
X140301748Y-88404635D02*
X140344605Y-88490349D01*
X140344605Y-88490349D02*
X140344605Y-88661778D01*
X140344605Y-88661778D02*
X140301748Y-88747492D01*
X140301748Y-88747492D02*
X140216034Y-88833206D01*
X140216034Y-88833206D02*
X140130319Y-88876063D01*
X140130319Y-88876063D02*
X139958891Y-88876063D01*
X139958891Y-88876063D02*
X139873176Y-88833206D01*
X140044605Y-87976063D02*
X140258891Y-88018920D01*
X140258891Y-88018920D02*
X140473176Y-88147492D01*
X140473176Y-88147492D02*
X140601748Y-88361778D01*
X140601748Y-88361778D02*
X140644605Y-88576063D01*
X140644605Y-88576063D02*
X140601748Y-88790349D01*
X140601748Y-88790349D02*
X140473176Y-89004635D01*
X140473176Y-89004635D02*
X140258891Y-89133206D01*
X140258891Y-89133206D02*
X140044605Y-89176063D01*
X140044605Y-89176063D02*
X139830319Y-89133206D01*
X139830319Y-89133206D02*
X139616034Y-89004635D01*
X139616034Y-89004635D02*
X139487462Y-88790349D01*
X139487462Y-88790349D02*
X139444605Y-88576063D01*
X139444605Y-88576063D02*
X139487462Y-88361778D01*
X139487462Y-88361778D02*
X139616034Y-88147492D01*
X139616034Y-88147492D02*
X139830319Y-88018920D01*
X139830319Y-88018920D02*
X140044605Y-87976063D01*
X139101748Y-88190349D02*
X139058891Y-88147492D01*
X139058891Y-88147492D02*
X138973177Y-88104635D01*
X138973177Y-88104635D02*
X138758891Y-88104635D01*
X138758891Y-88104635D02*
X138673177Y-88147492D01*
X138673177Y-88147492D02*
X138630319Y-88190349D01*
X138630319Y-88190349D02*
X138587462Y-88276063D01*
X138587462Y-88276063D02*
X138587462Y-88361778D01*
X138587462Y-88361778D02*
X138630319Y-88490349D01*
X138630319Y-88490349D02*
X139144605Y-89004635D01*
X139144605Y-89004635D02*
X138587462Y-89004635D01*
X138030319Y-88104635D02*
X137944605Y-88104635D01*
X137944605Y-88104635D02*
X137858891Y-88147492D01*
X137858891Y-88147492D02*
X137816034Y-88190349D01*
X137816034Y-88190349D02*
X137773176Y-88276063D01*
X137773176Y-88276063D02*
X137730319Y-88447492D01*
X137730319Y-88447492D02*
X137730319Y-88661778D01*
X137730319Y-88661778D02*
X137773176Y-88833206D01*
X137773176Y-88833206D02*
X137816034Y-88918920D01*
X137816034Y-88918920D02*
X137858891Y-88961778D01*
X137858891Y-88961778D02*
X137944605Y-89004635D01*
X137944605Y-89004635D02*
X138030319Y-89004635D01*
X138030319Y-89004635D02*
X138116034Y-88961778D01*
X138116034Y-88961778D02*
X138158891Y-88918920D01*
X138158891Y-88918920D02*
X138201748Y-88833206D01*
X138201748Y-88833206D02*
X138244605Y-88661778D01*
X138244605Y-88661778D02*
X138244605Y-88447492D01*
X138244605Y-88447492D02*
X138201748Y-88276063D01*
X138201748Y-88276063D02*
X138158891Y-88190349D01*
X138158891Y-88190349D02*
X138116034Y-88147492D01*
X138116034Y-88147492D02*
X138030319Y-88104635D01*
X137387462Y-88190349D02*
X137344605Y-88147492D01*
X137344605Y-88147492D02*
X137258891Y-88104635D01*
X137258891Y-88104635D02*
X137044605Y-88104635D01*
X137044605Y-88104635D02*
X136958891Y-88147492D01*
X136958891Y-88147492D02*
X136916033Y-88190349D01*
X136916033Y-88190349D02*
X136873176Y-88276063D01*
X136873176Y-88276063D02*
X136873176Y-88361778D01*
X136873176Y-88361778D02*
X136916033Y-88490349D01*
X136916033Y-88490349D02*
X137430319Y-89004635D01*
X137430319Y-89004635D02*
X136873176Y-89004635D01*
X136101748Y-88104635D02*
X136273176Y-88104635D01*
X136273176Y-88104635D02*
X136358890Y-88147492D01*
X136358890Y-88147492D02*
X136401748Y-88190349D01*
X136401748Y-88190349D02*
X136487462Y-88318920D01*
X136487462Y-88318920D02*
X136530319Y-88490349D01*
X136530319Y-88490349D02*
X136530319Y-88833206D01*
X136530319Y-88833206D02*
X136487462Y-88918920D01*
X136487462Y-88918920D02*
X136444605Y-88961778D01*
X136444605Y-88961778D02*
X136358890Y-89004635D01*
X136358890Y-89004635D02*
X136187462Y-89004635D01*
X136187462Y-89004635D02*
X136101748Y-88961778D01*
X136101748Y-88961778D02*
X136058890Y-88918920D01*
X136058890Y-88918920D02*
X136016033Y-88833206D01*
X136016033Y-88833206D02*
X136016033Y-88618920D01*
X136016033Y-88618920D02*
X136058890Y-88533206D01*
X136058890Y-88533206D02*
X136101748Y-88490349D01*
X136101748Y-88490349D02*
X136187462Y-88447492D01*
X136187462Y-88447492D02*
X136358890Y-88447492D01*
X136358890Y-88447492D02*
X136444605Y-88490349D01*
X136444605Y-88490349D02*
X136487462Y-88533206D01*
X136487462Y-88533206D02*
X136530319Y-88618920D01*
X162085789Y-88533206D02*
X161785789Y-88533206D01*
X161657217Y-89004635D02*
X162085789Y-89004635D01*
X162085789Y-89004635D02*
X162085789Y-88104635D01*
X162085789Y-88104635D02*
X161657217Y-88104635D01*
X161271503Y-89004635D02*
X161271503Y-88104635D01*
X160842932Y-89004635D02*
X160842932Y-88104635D01*
X160842932Y-88104635D02*
X160628646Y-88104635D01*
X160628646Y-88104635D02*
X160500075Y-88147492D01*
X160500075Y-88147492D02*
X160414360Y-88233206D01*
X160414360Y-88233206D02*
X160371503Y-88318920D01*
X160371503Y-88318920D02*
X160328646Y-88490349D01*
X160328646Y-88490349D02*
X160328646Y-88618920D01*
X160328646Y-88618920D02*
X160371503Y-88790349D01*
X160371503Y-88790349D02*
X160414360Y-88876063D01*
X160414360Y-88876063D02*
X160500075Y-88961778D01*
X160500075Y-88961778D02*
X160628646Y-89004635D01*
X160628646Y-89004635D02*
X160842932Y-89004635D01*
X159771503Y-88104635D02*
X159600075Y-88104635D01*
X159600075Y-88104635D02*
X159514360Y-88147492D01*
X159514360Y-88147492D02*
X159428646Y-88233206D01*
X159428646Y-88233206D02*
X159385789Y-88404635D01*
X159385789Y-88404635D02*
X159385789Y-88704635D01*
X159385789Y-88704635D02*
X159428646Y-88876063D01*
X159428646Y-88876063D02*
X159514360Y-88961778D01*
X159514360Y-88961778D02*
X159600075Y-89004635D01*
X159600075Y-89004635D02*
X159771503Y-89004635D01*
X159771503Y-89004635D02*
X159857218Y-88961778D01*
X159857218Y-88961778D02*
X159942932Y-88876063D01*
X159942932Y-88876063D02*
X159985789Y-88704635D01*
X159985789Y-88704635D02*
X159985789Y-88404635D01*
X159985789Y-88404635D02*
X159942932Y-88233206D01*
X159942932Y-88233206D02*
X159857218Y-88147492D01*
X159857218Y-88147492D02*
X159771503Y-88104635D01*
X159000075Y-89004635D02*
X159000075Y-88104635D01*
X159000075Y-88104635D02*
X158485789Y-89004635D01*
X158485789Y-89004635D02*
X158485789Y-88104635D01*
X158057218Y-88661778D02*
X157371504Y-88661778D01*
X157071503Y-88104635D02*
X156557218Y-88104635D01*
X156814360Y-89004635D02*
X156814360Y-88104635D01*
X155742932Y-89004635D02*
X156042932Y-88576063D01*
X156257218Y-89004635D02*
X156257218Y-88104635D01*
X156257218Y-88104635D02*
X155914361Y-88104635D01*
X155914361Y-88104635D02*
X155828646Y-88147492D01*
X155828646Y-88147492D02*
X155785789Y-88190349D01*
X155785789Y-88190349D02*
X155742932Y-88276063D01*
X155742932Y-88276063D02*
X155742932Y-88404635D01*
X155742932Y-88404635D02*
X155785789Y-88490349D01*
X155785789Y-88490349D02*
X155828646Y-88533206D01*
X155828646Y-88533206D02*
X155914361Y-88576063D01*
X155914361Y-88576063D02*
X156257218Y-88576063D01*
X155400075Y-88747492D02*
X154971504Y-88747492D01*
X155485789Y-89004635D02*
X155185789Y-88104635D01*
X155185789Y-88104635D02*
X154885789Y-89004635D01*
X154071503Y-88918920D02*
X154114360Y-88961778D01*
X154114360Y-88961778D02*
X154242932Y-89004635D01*
X154242932Y-89004635D02*
X154328646Y-89004635D01*
X154328646Y-89004635D02*
X154457217Y-88961778D01*
X154457217Y-88961778D02*
X154542932Y-88876063D01*
X154542932Y-88876063D02*
X154585789Y-88790349D01*
X154585789Y-88790349D02*
X154628646Y-88618920D01*
X154628646Y-88618920D02*
X154628646Y-88490349D01*
X154628646Y-88490349D02*
X154585789Y-88318920D01*
X154585789Y-88318920D02*
X154542932Y-88233206D01*
X154542932Y-88233206D02*
X154457217Y-88147492D01*
X154457217Y-88147492D02*
X154328646Y-88104635D01*
X154328646Y-88104635D02*
X154242932Y-88104635D01*
X154242932Y-88104635D02*
X154114360Y-88147492D01*
X154114360Y-88147492D02*
X154071503Y-88190349D01*
X153685789Y-89004635D02*
X153685789Y-88104635D01*
X153171503Y-89004635D02*
X153557217Y-88490349D01*
X153171503Y-88104635D02*
X153685789Y-88618920D01*
X152785789Y-88533206D02*
X152485789Y-88533206D01*
X152357217Y-89004635D02*
X152785789Y-89004635D01*
X152785789Y-89004635D02*
X152785789Y-88104635D01*
X152785789Y-88104635D02*
X152357217Y-88104635D01*
X151457217Y-89004635D02*
X151757217Y-88576063D01*
X151971503Y-89004635D02*
X151971503Y-88104635D01*
X151971503Y-88104635D02*
X151628646Y-88104635D01*
X151628646Y-88104635D02*
X151542931Y-88147492D01*
X151542931Y-88147492D02*
X151500074Y-88190349D01*
X151500074Y-88190349D02*
X151457217Y-88276063D01*
X151457217Y-88276063D02*
X151457217Y-88404635D01*
X151457217Y-88404635D02*
X151500074Y-88490349D01*
X151500074Y-88490349D02*
X151542931Y-88533206D01*
X151542931Y-88533206D02*
X151628646Y-88576063D01*
X151628646Y-88576063D02*
X151971503Y-88576063D01*
X153685789Y-89553585D02*
X153385789Y-90453585D01*
X153385789Y-90453585D02*
X153085789Y-89553585D01*
X152614360Y-89553585D02*
X152528646Y-89553585D01*
X152528646Y-89553585D02*
X152442932Y-89596442D01*
X152442932Y-89596442D02*
X152400075Y-89639299D01*
X152400075Y-89639299D02*
X152357217Y-89725013D01*
X152357217Y-89725013D02*
X152314360Y-89896442D01*
X152314360Y-89896442D02*
X152314360Y-90110728D01*
X152314360Y-90110728D02*
X152357217Y-90282156D01*
X152357217Y-90282156D02*
X152400075Y-90367870D01*
X152400075Y-90367870D02*
X152442932Y-90410728D01*
X152442932Y-90410728D02*
X152528646Y-90453585D01*
X152528646Y-90453585D02*
X152614360Y-90453585D01*
X152614360Y-90453585D02*
X152700075Y-90410728D01*
X152700075Y-90410728D02*
X152742932Y-90367870D01*
X152742932Y-90367870D02*
X152785789Y-90282156D01*
X152785789Y-90282156D02*
X152828646Y-90110728D01*
X152828646Y-90110728D02*
X152828646Y-89896442D01*
X152828646Y-89896442D02*
X152785789Y-89725013D01*
X152785789Y-89725013D02*
X152742932Y-89639299D01*
X152742932Y-89639299D02*
X152700075Y-89596442D01*
X152700075Y-89596442D02*
X152614360Y-89553585D01*
X151542932Y-89853585D02*
X151542932Y-90453585D01*
X151757217Y-89510728D02*
X151971503Y-90153585D01*
X151971503Y-90153585D02*
X151414360Y-90153585D01*
D11*
G36*
X141042196Y-93421848D02*
G01*
X141042941Y-93442574D01*
X141043597Y-93470482D01*
X141044144Y-93504524D01*
X141044563Y-93543651D01*
X141044835Y-93586817D01*
X141044941Y-93632975D01*
X141044945Y-93664695D01*
X141044902Y-93712271D01*
X141044766Y-93751257D01*
X141044504Y-93782547D01*
X141044081Y-93807035D01*
X141043463Y-93825614D01*
X141042617Y-93839178D01*
X141041508Y-93848622D01*
X141040103Y-93854838D01*
X141038368Y-93858722D01*
X141036267Y-93861166D01*
X141035084Y-93862150D01*
X141025234Y-93869210D01*
X141010126Y-93879130D01*
X140992517Y-93890088D01*
X140987511Y-93893140D01*
X140971771Y-93903006D01*
X140960202Y-93910670D01*
X140955017Y-93914680D01*
X140954436Y-93915274D01*
X140947066Y-93919640D01*
X140935017Y-93925000D01*
X140932301Y-93926097D01*
X140920921Y-93931206D01*
X140915017Y-93934716D01*
X140912142Y-93936786D01*
X140902301Y-93942548D01*
X140888437Y-93950000D01*
X140879407Y-93954879D01*
X140865042Y-93963413D01*
X140855650Y-93970000D01*
X140852806Y-93972258D01*
X140837361Y-93982181D01*
X140812783Y-93995777D01*
X140779178Y-94012986D01*
X140770589Y-94017504D01*
X140758707Y-94024693D01*
X140752720Y-94029671D01*
X140750921Y-94031550D01*
X140741826Y-94037648D01*
X140728560Y-94044604D01*
X140719914Y-94048875D01*
X140700913Y-94059060D01*
X140682517Y-94069720D01*
X140671920Y-94075957D01*
X140655812Y-94084731D01*
X140643767Y-94090463D01*
X140634145Y-94095619D01*
X140630017Y-94100489D01*
X140629175Y-94102559D01*
X140622517Y-94105000D01*
X140619084Y-94105422D01*
X140615017Y-94108779D01*
X140614940Y-94109189D01*
X140609887Y-94113842D01*
X140599359Y-94119490D01*
X140599340Y-94119498D01*
X140587098Y-94125636D01*
X140570075Y-94135052D01*
X140551949Y-94145710D01*
X140549845Y-94146982D01*
X140534026Y-94156108D01*
X140521603Y-94162555D01*
X140515108Y-94165000D01*
X140513844Y-94165146D01*
X140510017Y-94169663D01*
X140507566Y-94173356D01*
X140498924Y-94177847D01*
X140492022Y-94180884D01*
X140477854Y-94188258D01*
X140459258Y-94198594D01*
X140438459Y-94210683D01*
X140420184Y-94221441D01*
X140403486Y-94231071D01*
X140391770Y-94237597D01*
X140386835Y-94240000D01*
X140385946Y-94240347D01*
X140378316Y-94244466D01*
X140364313Y-94252498D01*
X140345526Y-94263523D01*
X140323550Y-94276620D01*
X140315983Y-94281151D01*
X140294119Y-94294144D01*
X140275486Y-94305071D01*
X140261860Y-94312898D01*
X140255017Y-94316588D01*
X140251011Y-94318537D01*
X140240017Y-94324892D01*
X140231453Y-94330286D01*
X140216615Y-94339272D01*
X140197833Y-94350447D01*
X140176898Y-94362766D01*
X140155601Y-94375187D01*
X140135733Y-94386664D01*
X140119083Y-94396154D01*
X140107443Y-94402614D01*
X140102603Y-94405000D01*
X140098055Y-94407133D01*
X140086609Y-94413530D01*
X140070129Y-94423164D01*
X140050418Y-94435000D01*
X140032040Y-94445934D01*
X140014586Y-94455825D01*
X140001774Y-94462531D01*
X139995528Y-94465000D01*
X139993896Y-94465210D01*
X139990017Y-94469663D01*
X139987924Y-94473128D01*
X139979653Y-94477615D01*
X139979604Y-94477631D01*
X139971316Y-94481423D01*
X139956553Y-94489223D01*
X139937391Y-94499903D01*
X139915903Y-94512332D01*
X139870452Y-94539066D01*
X139830869Y-94562292D01*
X139798479Y-94581217D01*
X139772566Y-94596254D01*
X139752413Y-94607812D01*
X139737303Y-94616304D01*
X139726521Y-94622138D01*
X139719348Y-94625728D01*
X139715069Y-94627483D01*
X139709146Y-94630265D01*
X139705017Y-94635336D01*
X139704900Y-94636355D01*
X139700161Y-94640000D01*
X139698644Y-94640372D01*
X139689714Y-94644452D01*
X139675404Y-94652078D01*
X139658000Y-94662055D01*
X139651942Y-94665601D01*
X139634068Y-94675659D01*
X139619301Y-94683404D01*
X139610356Y-94687392D01*
X139604144Y-94690190D01*
X139600017Y-94694767D01*
X139599499Y-94695962D01*
X139592943Y-94701248D01*
X139581267Y-94707564D01*
X139576957Y-94709665D01*
X139561599Y-94717816D01*
X139542164Y-94728727D01*
X139521823Y-94740634D01*
X139511769Y-94746554D01*
X139494849Y-94756032D01*
X139482053Y-94762565D01*
X139475573Y-94765000D01*
X139473920Y-94765173D01*
X139470017Y-94768819D01*
X139467966Y-94771316D01*
X139459038Y-94777209D01*
X139445432Y-94784311D01*
X139436248Y-94788910D01*
X139421336Y-94797353D01*
X139411396Y-94804241D01*
X139408080Y-94806910D01*
X139393078Y-94816747D01*
X139369701Y-94829922D01*
X139337517Y-94846684D01*
X139333933Y-94848566D01*
X139317313Y-94858493D01*
X139303384Y-94868416D01*
X139301568Y-94869870D01*
X139291083Y-94877069D01*
X139284078Y-94880000D01*
X139281360Y-94880840D01*
X139271158Y-94885807D01*
X139255831Y-94894243D01*
X139237517Y-94905000D01*
X139226749Y-94911392D01*
X139209802Y-94920963D01*
X139197023Y-94927549D01*
X139190573Y-94930000D01*
X139188893Y-94930235D01*
X139185017Y-94935000D01*
X139184874Y-94936193D01*
X139180080Y-94940000D01*
X139179592Y-94940083D01*
X139172322Y-94943365D01*
X139158597Y-94950717D01*
X139140179Y-94961168D01*
X139118830Y-94973750D01*
X139115006Y-94976039D01*
X139093996Y-94988524D01*
X139076230Y-94998933D01*
X139063480Y-95006234D01*
X139057517Y-95009397D01*
X139057485Y-95009409D01*
X139051320Y-95012629D01*
X139038444Y-95019865D01*
X139020721Y-95030055D01*
X139000017Y-95042136D01*
X138980362Y-95053569D01*
X138957508Y-95066604D01*
X138937613Y-95077689D01*
X138923491Y-95085239D01*
X138914576Y-95089982D01*
X138900185Y-95098433D01*
X138890774Y-95105000D01*
X138885183Y-95108928D01*
X138871699Y-95116841D01*
X138854372Y-95126156D01*
X138836271Y-95135289D01*
X138820463Y-95142656D01*
X138810017Y-95146674D01*
X138804914Y-95146804D01*
X138795017Y-95142527D01*
X138787109Y-95136886D01*
X138772871Y-95127687D01*
X138754364Y-95116210D01*
X138733413Y-95103535D01*
X138711838Y-95090743D01*
X138691463Y-95078913D01*
X138674111Y-95069126D01*
X138661604Y-95062461D01*
X138655765Y-95060000D01*
X138653914Y-95059732D01*
X138650017Y-95055000D01*
X138649807Y-95053611D01*
X138644690Y-95050000D01*
X138641727Y-95049090D01*
X138631237Y-95044081D01*
X138615628Y-95035677D01*
X138597037Y-95025000D01*
X138585510Y-95018297D01*
X138568589Y-95008876D01*
X138556005Y-95002405D01*
X138549864Y-95000000D01*
X138548816Y-94999893D01*
X138545017Y-94995489D01*
X138541070Y-94990762D01*
X138531267Y-94985507D01*
X138524134Y-94982276D01*
X138508939Y-94974351D01*
X138492517Y-94964909D01*
X138482483Y-94959000D01*
X138464212Y-94948847D01*
X138449114Y-94941141D01*
X138446678Y-94940069D01*
X138442029Y-94938302D01*
X138437857Y-94936710D01*
X138434135Y-94934784D01*
X138430838Y-94932014D01*
X138427940Y-94927892D01*
X138425416Y-94921910D01*
X138423240Y-94913558D01*
X138421387Y-94902329D01*
X138419831Y-94887712D01*
X138418546Y-94869200D01*
X138417508Y-94846284D01*
X138416689Y-94818455D01*
X138416066Y-94785205D01*
X138415611Y-94746024D01*
X138415300Y-94700404D01*
X138415107Y-94647836D01*
X138415007Y-94587812D01*
X138414973Y-94519823D01*
X138414981Y-94443360D01*
X138415004Y-94357915D01*
X138415013Y-94288750D01*
X138475132Y-94288750D01*
X138475247Y-94887500D01*
X138588325Y-94952500D01*
X138615616Y-94968277D01*
X138644218Y-94985018D01*
X138669115Y-94999809D01*
X138689059Y-95011902D01*
X138702804Y-95020548D01*
X138709103Y-95025000D01*
X138714259Y-95029270D01*
X138719660Y-95031493D01*
X138720775Y-95031549D01*
X138728456Y-95034767D01*
X138740017Y-95041297D01*
X138742201Y-95042630D01*
X138757657Y-95051427D01*
X138771267Y-95058312D01*
X138785017Y-95064517D01*
X138785017Y-94465352D01*
X138785017Y-93866186D01*
X138767851Y-93853093D01*
X138763492Y-93849892D01*
X138752347Y-93842820D01*
X138745351Y-93840000D01*
X138743866Y-93839801D01*
X138740017Y-93834999D01*
X138739883Y-93833717D01*
X138736267Y-93831211D01*
X138735630Y-93831128D01*
X138728408Y-93827961D01*
X138714903Y-93821078D01*
X138696967Y-93811509D01*
X138676451Y-93800285D01*
X138655210Y-93788437D01*
X138635093Y-93776994D01*
X138617954Y-93766987D01*
X138605645Y-93759447D01*
X138600017Y-93755405D01*
X138599838Y-93755214D01*
X138593490Y-93750936D01*
X138582517Y-93745010D01*
X138578953Y-93743165D01*
X138565279Y-93735639D01*
X138547154Y-93725286D01*
X138527517Y-93713778D01*
X138518231Y-93708359D01*
X138501173Y-93698945D01*
X138488096Y-93692439D01*
X138481267Y-93690009D01*
X138480722Y-93690543D01*
X138479806Y-93694460D01*
X138478987Y-93702557D01*
X138478261Y-93715282D01*
X138477625Y-93733083D01*
X138477072Y-93756408D01*
X138476600Y-93785704D01*
X138476202Y-93821419D01*
X138475874Y-93864000D01*
X138475613Y-93913895D01*
X138475412Y-93971552D01*
X138475269Y-94037418D01*
X138475177Y-94111941D01*
X138475133Y-94195569D01*
X138475132Y-94288750D01*
X138415013Y-94288750D01*
X138415017Y-94262978D01*
X138415019Y-94217727D01*
X138415031Y-94128743D01*
X138415062Y-94049005D01*
X138415119Y-93978000D01*
X138415209Y-93915215D01*
X138415338Y-93860137D01*
X138415514Y-93812253D01*
X138415743Y-93771051D01*
X138416033Y-93736017D01*
X138416390Y-93706639D01*
X138416821Y-93682404D01*
X138417334Y-93662799D01*
X138417934Y-93647311D01*
X138418629Y-93635427D01*
X138418894Y-93632500D01*
X138506821Y-93632500D01*
X138509567Y-93634859D01*
X138520044Y-93641902D01*
X138537396Y-93652863D01*
X138560617Y-93667126D01*
X138588699Y-93684073D01*
X138620635Y-93703087D01*
X138655417Y-93723552D01*
X138682018Y-93739044D01*
X138715215Y-93758175D01*
X138745074Y-93775154D01*
X138770542Y-93789395D01*
X138790564Y-93800308D01*
X138804087Y-93807306D01*
X138810057Y-93809802D01*
X138814142Y-93808528D01*
X138826010Y-93802894D01*
X138843677Y-93793535D01*
X138865556Y-93781302D01*
X138890057Y-93767044D01*
X138906549Y-93757289D01*
X138931193Y-93742790D01*
X138952912Y-93730105D01*
X138969816Y-93720335D01*
X138980017Y-93714580D01*
X138987827Y-93710246D01*
X139005001Y-93700405D01*
X139022517Y-93690080D01*
X139038992Y-93680383D01*
X139060425Y-93668044D01*
X139081234Y-93656294D01*
X139084767Y-93654298D01*
X139100103Y-93644914D01*
X139110881Y-93637142D01*
X139114951Y-93632500D01*
X139114765Y-93631872D01*
X139109137Y-93626460D01*
X139097243Y-93618232D01*
X139081234Y-93608703D01*
X139080583Y-93608340D01*
X139068730Y-93601722D01*
X139057894Y-93595635D01*
X139046868Y-93589383D01*
X139034444Y-93582271D01*
X139019417Y-93573601D01*
X139000579Y-93562678D01*
X138976724Y-93548806D01*
X138946644Y-93531287D01*
X138909132Y-93509427D01*
X138898459Y-93503227D01*
X138871626Y-93487827D01*
X138848065Y-93474568D01*
X138829111Y-93464187D01*
X138816099Y-93457419D01*
X138810363Y-93455000D01*
X138809431Y-93455242D01*
X138801269Y-93459083D01*
X138786266Y-93467024D01*
X138765775Y-93478322D01*
X138741151Y-93492234D01*
X138713748Y-93508016D01*
X138683472Y-93525572D01*
X138649738Y-93545061D01*
X138616833Y-93564005D01*
X138587360Y-93580906D01*
X138563921Y-93594266D01*
X138558162Y-93597561D01*
X138537597Y-93609832D01*
X138521149Y-93620439D01*
X138510372Y-93628342D01*
X138506821Y-93632500D01*
X138418894Y-93632500D01*
X138419426Y-93626635D01*
X138420331Y-93620422D01*
X138421352Y-93616274D01*
X138422495Y-93613680D01*
X138423767Y-93612125D01*
X138428941Y-93608277D01*
X138441355Y-93600182D01*
X138458515Y-93589559D01*
X138478530Y-93577521D01*
X138499504Y-93565178D01*
X138519546Y-93553643D01*
X138536759Y-93544026D01*
X138549252Y-93537442D01*
X138555131Y-93535000D01*
X138555240Y-93534998D01*
X138560851Y-93531250D01*
X138562928Y-93529114D01*
X138571841Y-93522991D01*
X138585017Y-93515372D01*
X138593156Y-93510886D01*
X138604499Y-93504221D01*
X138610017Y-93500372D01*
X138610741Y-93499724D01*
X138618160Y-93495121D01*
X138630017Y-93488914D01*
X138637947Y-93484831D01*
X138655072Y-93475383D01*
X138672517Y-93465171D01*
X138683087Y-93458863D01*
X138698703Y-93449868D01*
X138710017Y-93443737D01*
X138711936Y-93442747D01*
X138723796Y-93436226D01*
X138740489Y-93426697D01*
X138759042Y-93415850D01*
X138777373Y-93405248D01*
X138795387Y-93396392D01*
X138809673Y-93392773D01*
X138822862Y-93394299D01*
X138837589Y-93400877D01*
X138856486Y-93412414D01*
X138860043Y-93414672D01*
X138879486Y-93426490D01*
X138897663Y-93436788D01*
X138911046Y-93443554D01*
X138915521Y-93445643D01*
X138925879Y-93451626D01*
X138930017Y-93455962D01*
X138930450Y-93457438D01*
X138936267Y-93460047D01*
X138936421Y-93460053D01*
X138943829Y-93462806D01*
X138956762Y-93469599D01*
X138972517Y-93479017D01*
X138988923Y-93488919D01*
X139006071Y-93498430D01*
X139018767Y-93504576D01*
X139020674Y-93505385D01*
X139030864Y-93510984D01*
X139035017Y-93515606D01*
X139035859Y-93517622D01*
X139042517Y-93520000D01*
X139045953Y-93520436D01*
X139050017Y-93523903D01*
X139054023Y-93528404D01*
X139063767Y-93533824D01*
X139070917Y-93537285D01*
X139086107Y-93545517D01*
X139102517Y-93555149D01*
X139112754Y-93561221D01*
X139130562Y-93571081D01*
X139145017Y-93578291D01*
X139147940Y-93579628D01*
X139159189Y-93585377D01*
X139165017Y-93589359D01*
X139166129Y-93590394D01*
X139174057Y-93595606D01*
X139186267Y-93602434D01*
X139205017Y-93612274D01*
X139205017Y-93632500D01*
X139205017Y-93805841D01*
X139205023Y-93815436D01*
X139205180Y-93857858D01*
X139205256Y-93866186D01*
X139205535Y-93896856D01*
X139206065Y-93931335D01*
X139206743Y-93960199D01*
X139207547Y-93982351D01*
X139208451Y-93996696D01*
X139209430Y-94002136D01*
X139209652Y-94002254D01*
X139216523Y-94001030D01*
X139226468Y-93994931D01*
X139226910Y-93994586D01*
X139236596Y-93987804D01*
X139242586Y-93985000D01*
X139242772Y-93984973D01*
X139248922Y-93982054D01*
X139261677Y-93975010D01*
X139279292Y-93964829D01*
X139300017Y-93952499D01*
X139302308Y-93951121D01*
X139322704Y-93938984D01*
X139339725Y-93929094D01*
X139351649Y-93922438D01*
X139356755Y-93920000D01*
X139361374Y-93917838D01*
X139372885Y-93911435D01*
X139389431Y-93901812D01*
X139409213Y-93890000D01*
X139427813Y-93878999D01*
X139445319Y-93869140D01*
X139458171Y-93862459D01*
X139464445Y-93860000D01*
X139466140Y-93859762D01*
X139470017Y-93855000D01*
X139470279Y-93853487D01*
X139475573Y-93850000D01*
X139478374Y-93849166D01*
X139488718Y-93844202D01*
X139504153Y-93835763D01*
X139522517Y-93825000D01*
X139533286Y-93818607D01*
X139550233Y-93809036D01*
X139563012Y-93802450D01*
X139569462Y-93800000D01*
X139571128Y-93799795D01*
X139575017Y-93795569D01*
X139575541Y-93794283D01*
X139582100Y-93788755D01*
X139593767Y-93782266D01*
X139601496Y-93778358D01*
X139618026Y-93769403D01*
X139638452Y-93757902D01*
X139660017Y-93745389D01*
X139674269Y-93737056D01*
X139696760Y-93724144D01*
X139716888Y-93712854D01*
X139731544Y-93704942D01*
X139740505Y-93700113D01*
X139754896Y-93691589D01*
X139764330Y-93685000D01*
X139772150Y-93679268D01*
X139786363Y-93670608D01*
X139807451Y-93658924D01*
X139836497Y-93643595D01*
X139855476Y-93633727D01*
X139814946Y-93609363D01*
X139804764Y-93603288D01*
X139788654Y-93593886D01*
X139777077Y-93587411D01*
X139772038Y-93584999D01*
X139771866Y-93584964D01*
X139766022Y-93581993D01*
X139753525Y-93574941D01*
X139736079Y-93564784D01*
X139715388Y-93552499D01*
X139713249Y-93551221D01*
X139692427Y-93539049D01*
X139674656Y-93529127D01*
X139661761Y-93522447D01*
X139655567Y-93520000D01*
X139653892Y-93519765D01*
X139650017Y-93515000D01*
X139649874Y-93513806D01*
X139645076Y-93510000D01*
X139639518Y-93507799D01*
X139627117Y-93501388D01*
X139609852Y-93491781D01*
X139589611Y-93480000D01*
X139570298Y-93468730D01*
X139552948Y-93459004D01*
X139540409Y-93452421D01*
X139534552Y-93450000D01*
X139533481Y-93449858D01*
X139530017Y-93445000D01*
X139529758Y-93443490D01*
X139524468Y-93440000D01*
X139524335Y-93439992D01*
X139517711Y-93437308D01*
X139504499Y-93430473D01*
X139486550Y-93420485D01*
X139465718Y-93408343D01*
X139465108Y-93407980D01*
X139444048Y-93395539D01*
X139425713Y-93384865D01*
X139412053Y-93377085D01*
X139405017Y-93373322D01*
X139399775Y-93370644D01*
X139387494Y-93363776D01*
X139372517Y-93355002D01*
X139362495Y-93349118D01*
X139344576Y-93339012D01*
X139330017Y-93331274D01*
X139326810Y-93329639D01*
X139315743Y-93323541D01*
X139310017Y-93319635D01*
X139308028Y-93317911D01*
X139300017Y-93313131D01*
X139289228Y-93307509D01*
X139272322Y-93298102D01*
X139251869Y-93286346D01*
X139229617Y-93273287D01*
X139207311Y-93259968D01*
X139186700Y-93247434D01*
X139169531Y-93236728D01*
X139157549Y-93228894D01*
X139152504Y-93224977D01*
X139152374Y-93224557D01*
X139151781Y-93216830D01*
X139151263Y-93200589D01*
X139150819Y-93177069D01*
X139150451Y-93147505D01*
X139150159Y-93113131D01*
X139149944Y-93075180D01*
X139149807Y-93034887D01*
X139149749Y-92993486D01*
X139149770Y-92952212D01*
X139149834Y-92927278D01*
X139203298Y-92927278D01*
X139203300Y-92965980D01*
X139203506Y-93013805D01*
X139204495Y-93187500D01*
X139226006Y-93203418D01*
X139234508Y-93209473D01*
X139245827Y-93216707D01*
X139252217Y-93219668D01*
X139255723Y-93220855D01*
X139266466Y-93226283D01*
X139281353Y-93234704D01*
X139297820Y-93244570D01*
X139313306Y-93254332D01*
X139325248Y-93262439D01*
X139331085Y-93267345D01*
X139332577Y-93269145D01*
X139336085Y-93270018D01*
X139337606Y-93269861D01*
X139345497Y-93272983D01*
X139357517Y-93279580D01*
X139367278Y-93285326D01*
X139386141Y-93296061D01*
X139405017Y-93306466D01*
X139417903Y-93313824D01*
X139430033Y-93321700D01*
X139436085Y-93326904D01*
X139437766Y-93328973D01*
X139442173Y-93330000D01*
X139446606Y-93330637D01*
X139454913Y-93336250D01*
X139462612Y-93342073D01*
X139468651Y-93345000D01*
X139471640Y-93346119D01*
X139481762Y-93351236D01*
X139496695Y-93359342D01*
X139514197Y-93369159D01*
X139532023Y-93379406D01*
X139547931Y-93388806D01*
X139559677Y-93396078D01*
X139565017Y-93399945D01*
X139565339Y-93400280D01*
X139572176Y-93404398D01*
X139583767Y-93409640D01*
X139585687Y-93410443D01*
X139595868Y-93415822D01*
X139600017Y-93420064D01*
X139603164Y-93423402D01*
X139612517Y-93427053D01*
X139620779Y-93430261D01*
X139625017Y-93434707D01*
X139625231Y-93435481D01*
X139631107Y-93440134D01*
X139642517Y-93445000D01*
X139645261Y-93445955D01*
X139655765Y-93450789D01*
X139660017Y-93454845D01*
X139662977Y-93458243D01*
X139672168Y-93461965D01*
X139680932Y-93465103D01*
X139691072Y-93471257D01*
X139691535Y-93471662D01*
X139699953Y-93477344D01*
X139714181Y-93485673D01*
X139731415Y-93495000D01*
X139734614Y-93496679D01*
X139750045Y-93505169D01*
X139760904Y-93511796D01*
X139765011Y-93515245D01*
X139765255Y-93515790D01*
X139771173Y-93519558D01*
X139782517Y-93524319D01*
X139785341Y-93525401D01*
X139795790Y-93530755D01*
X139800017Y-93535323D01*
X139800736Y-93537362D01*
X139807160Y-93540000D01*
X139811574Y-93540854D01*
X139820910Y-93546461D01*
X139821228Y-93546762D01*
X139830697Y-93553174D01*
X139843767Y-93559567D01*
X139845696Y-93560384D01*
X139855871Y-93565857D01*
X139860017Y-93570218D01*
X139860234Y-93570918D01*
X139866115Y-93575263D01*
X139877517Y-93580000D01*
X139880239Y-93580954D01*
X139890758Y-93585974D01*
X139895017Y-93590387D01*
X139895019Y-93590443D01*
X139899484Y-93593663D01*
X139910017Y-93595000D01*
X139910198Y-93594999D01*
X139920671Y-93593656D01*
X139925017Y-93590489D01*
X139928976Y-93585717D01*
X139938767Y-93580377D01*
X139948142Y-93576244D01*
X139964628Y-93567702D01*
X139978399Y-93559148D01*
X139986191Y-93552500D01*
X139988147Y-93550348D01*
X139990017Y-93552500D01*
X139990502Y-93554274D01*
X139993844Y-93551957D01*
X139994803Y-93551039D01*
X140002602Y-93545601D01*
X140016538Y-93536741D01*
X140034780Y-93525543D01*
X140055497Y-93513091D01*
X140076860Y-93500471D01*
X140097036Y-93488767D01*
X140114197Y-93479064D01*
X140126511Y-93472446D01*
X140132147Y-93470000D01*
X140134883Y-93468781D01*
X140144039Y-93463301D01*
X140156881Y-93454905D01*
X140164571Y-93449936D01*
X140182118Y-93439742D01*
X140197132Y-93432338D01*
X140198281Y-93431856D01*
X140208894Y-93426592D01*
X140211842Y-93421791D01*
X140208815Y-93414932D01*
X140203957Y-93408774D01*
X140197946Y-93405000D01*
X140196530Y-93404580D01*
X140187727Y-93400333D01*
X140172667Y-93392236D01*
X140153006Y-93381193D01*
X140130398Y-93368109D01*
X140123346Y-93363974D01*
X140099408Y-93349980D01*
X140077599Y-93337288D01*
X140060083Y-93327155D01*
X140049023Y-93320837D01*
X140048335Y-93320451D01*
X140024663Y-93307033D01*
X140000113Y-93292906D01*
X139976280Y-93279012D01*
X139954759Y-93266293D01*
X139937145Y-93255692D01*
X139925033Y-93248152D01*
X139920017Y-93244614D01*
X139916097Y-93241863D01*
X139906297Y-93237846D01*
X139898593Y-93234702D01*
X139888754Y-93228422D01*
X139882543Y-93223962D01*
X139869705Y-93216235D01*
X139853742Y-93207500D01*
X139839821Y-93199748D01*
X139829132Y-93192810D01*
X139825035Y-93188750D01*
X139824729Y-93187557D01*
X139819259Y-93185000D01*
X139819139Y-93184996D01*
X139812038Y-93182384D01*
X139798926Y-93175851D01*
X139782169Y-93166750D01*
X139764133Y-93156432D01*
X139747182Y-93146249D01*
X139733683Y-93137552D01*
X139725999Y-93131695D01*
X139721662Y-93128245D01*
X139713139Y-93125000D01*
X139708176Y-93123498D01*
X139696636Y-93117757D01*
X139682246Y-93109190D01*
X139671876Y-93102749D01*
X139650400Y-93090101D01*
X139630097Y-93078842D01*
X139617287Y-93071759D01*
X139605594Y-93064614D01*
X139600097Y-93060325D01*
X139596148Y-93057149D01*
X139586297Y-93052846D01*
X139578586Y-93049710D01*
X139568624Y-93043422D01*
X139562434Y-93039027D01*
X139549568Y-93031348D01*
X139533594Y-93022675D01*
X139519821Y-93015004D01*
X139509117Y-93007927D01*
X139505017Y-93003630D01*
X139504651Y-93002275D01*
X139500017Y-93002500D01*
X139498081Y-93003281D01*
X139495017Y-93000295D01*
X139494293Y-92997979D01*
X139487875Y-92995000D01*
X139483535Y-92994189D01*
X139474125Y-92988691D01*
X139466913Y-92983165D01*
X139455017Y-92976195D01*
X139443354Y-92970230D01*
X139425984Y-92960908D01*
X139408141Y-92950973D01*
X139392154Y-92941749D01*
X139380349Y-92934560D01*
X139375053Y-92930728D01*
X139369569Y-92926723D01*
X139359021Y-92921370D01*
X139354158Y-92919052D01*
X139339627Y-92911168D01*
X139324021Y-92901789D01*
X139313123Y-92895145D01*
X139293339Y-92883800D01*
X139273767Y-92873232D01*
X139259830Y-92865482D01*
X139249118Y-92858427D01*
X139245017Y-92854165D01*
X139244302Y-92852354D01*
X139237875Y-92850000D01*
X139232580Y-92848706D01*
X139223246Y-92842514D01*
X139217660Y-92838642D01*
X139209139Y-92837569D01*
X139207348Y-92839930D01*
X139205904Y-92846165D01*
X139204805Y-92857141D01*
X139204023Y-92873734D01*
X139203530Y-92896821D01*
X139203298Y-92927278D01*
X139149834Y-92927278D01*
X139149872Y-92912298D01*
X139150054Y-92874978D01*
X139150319Y-92841487D01*
X139150666Y-92813060D01*
X139151096Y-92790929D01*
X139151611Y-92776329D01*
X139152211Y-92770496D01*
X139153978Y-92768811D01*
X139162934Y-92762478D01*
X139177503Y-92753098D01*
X139195676Y-92741871D01*
X139215446Y-92729995D01*
X139234802Y-92718671D01*
X139251736Y-92709098D01*
X139264239Y-92702474D01*
X139270301Y-92700000D01*
X139271223Y-92699922D01*
X139275017Y-92696004D01*
X139275139Y-92695477D01*
X139280560Y-92691021D01*
X139291544Y-92686032D01*
X139291584Y-92686018D01*
X139306178Y-92679221D01*
X139318081Y-92671278D01*
X139322002Y-92668174D01*
X139335004Y-92659477D01*
X139350304Y-92650591D01*
X139379593Y-92634784D01*
X139410112Y-92617957D01*
X139436808Y-92602739D01*
X139462517Y-92587539D01*
X139462996Y-92587251D01*
X139484291Y-92574680D01*
X139506546Y-92561882D01*
X139525017Y-92551585D01*
X139527338Y-92550318D01*
X139546184Y-92539728D01*
X139568527Y-92526798D01*
X139590017Y-92514039D01*
X139594072Y-92511598D01*
X139614885Y-92499209D01*
X139634808Y-92487546D01*
X139650017Y-92478852D01*
X139656311Y-92475312D01*
X139673780Y-92465367D01*
X139694986Y-92453187D01*
X139716662Y-92440646D01*
X139729781Y-92433142D01*
X139746831Y-92423783D01*
X139759392Y-92417375D01*
X139765412Y-92414999D01*
X139766295Y-92414913D01*
X139770017Y-92410336D01*
X139772149Y-92406845D01*
X139780461Y-92402359D01*
X139781480Y-92402012D01*
X139792002Y-92397254D01*
X139806219Y-92389635D01*
X139821622Y-92380661D01*
X139835704Y-92371837D01*
X139845959Y-92364669D01*
X139849878Y-92360665D01*
X139849056Y-92359531D01*
X139841809Y-92354182D01*
X139828952Y-92346093D01*
X139812774Y-92336562D01*
X139795562Y-92326889D01*
X139779605Y-92318372D01*
X139767191Y-92312309D01*
X139760608Y-92309999D01*
X139758897Y-92309758D01*
X139755017Y-92305000D01*
X139754171Y-92302699D01*
X139747517Y-92300000D01*
X139744075Y-92299493D01*
X139740017Y-92295489D01*
X139736044Y-92290653D01*
X139726267Y-92285194D01*
X139708547Y-92277200D01*
X139694742Y-92269327D01*
X139690017Y-92263814D01*
X139689765Y-92262679D01*
X139684462Y-92260000D01*
X139681661Y-92259166D01*
X139671317Y-92254202D01*
X139655882Y-92245763D01*
X139637517Y-92235000D01*
X139626749Y-92228607D01*
X139609802Y-92219036D01*
X139597023Y-92212450D01*
X139590573Y-92210000D01*
X139588918Y-92209822D01*
X139585017Y-92206096D01*
X139581032Y-92201675D01*
X139571267Y-92196401D01*
X139565301Y-92193643D01*
X139550327Y-92185809D01*
X139534197Y-92176555D01*
X139520193Y-92168122D01*
X139493311Y-92152000D01*
X139473417Y-92140193D01*
X139459436Y-92132073D01*
X139450290Y-92127009D01*
X139444900Y-92124373D01*
X139440060Y-92121885D01*
X139427762Y-92114923D01*
X139410689Y-92104909D01*
X139390974Y-92093079D01*
X139375420Y-92083743D01*
X139358850Y-92074043D01*
X139347061Y-92067439D01*
X139341924Y-92064999D01*
X139341766Y-92064972D01*
X139335908Y-92062052D01*
X139323411Y-92055008D01*
X139305998Y-92044827D01*
X139285386Y-92032499D01*
X139283579Y-92031410D01*
X139262813Y-92019171D01*
X139245037Y-92009189D01*
X139232088Y-92002464D01*
X139225804Y-92000000D01*
X139223919Y-91999725D01*
X139220017Y-91995000D01*
X139219171Y-91992699D01*
X139212517Y-91990000D01*
X139212042Y-91990047D01*
X139210192Y-91991587D01*
X139208689Y-91995964D01*
X139207496Y-92004074D01*
X139206578Y-92016811D01*
X139205899Y-92035071D01*
X139205424Y-92059750D01*
X139205116Y-92091742D01*
X139204939Y-92131944D01*
X139204858Y-92181250D01*
X139204822Y-92205588D01*
X139204614Y-92254068D01*
X139204216Y-92293543D01*
X139203605Y-92324704D01*
X139202761Y-92348240D01*
X139201661Y-92364841D01*
X139200284Y-92375200D01*
X139198608Y-92380004D01*
X139195338Y-92383333D01*
X139183726Y-92392564D01*
X139168204Y-92403249D01*
X139152060Y-92413188D01*
X139138580Y-92420183D01*
X139126062Y-92426389D01*
X139113248Y-92433936D01*
X139105017Y-92440000D01*
X139102679Y-92441653D01*
X139093378Y-92447123D01*
X139080017Y-92454408D01*
X139077552Y-92455714D01*
X139045115Y-92473084D01*
X139021303Y-92486247D01*
X139006231Y-92495135D01*
X139000017Y-92499683D01*
X138998598Y-92500963D01*
X138990199Y-92506244D01*
X138977517Y-92512978D01*
X138966722Y-92518461D01*
X138948100Y-92528351D01*
X138929377Y-92538698D01*
X138912795Y-92548233D01*
X138900594Y-92555682D01*
X138895017Y-92559776D01*
X138893582Y-92561049D01*
X138885182Y-92566328D01*
X138872517Y-92573116D01*
X138868130Y-92575337D01*
X138849346Y-92585037D01*
X138831159Y-92594649D01*
X138827887Y-92596385D01*
X138814941Y-92602156D01*
X138805342Y-92603142D01*
X138794909Y-92599954D01*
X138794127Y-92599625D01*
X138784136Y-92594293D01*
X138780017Y-92589935D01*
X138776871Y-92586597D01*
X138767517Y-92582946D01*
X138759260Y-92579643D01*
X138755017Y-92574904D01*
X138754900Y-92573803D01*
X138750412Y-92569999D01*
X138747396Y-92569001D01*
X138736930Y-92563944D01*
X138721276Y-92555581D01*
X138702517Y-92544999D01*
X138690241Y-92538016D01*
X138673233Y-92528732D01*
X138660666Y-92522364D01*
X138654623Y-92520000D01*
X138653533Y-92519857D01*
X138650017Y-92515000D01*
X138649879Y-92513810D01*
X138645193Y-92510000D01*
X138641414Y-92508622D01*
X138630364Y-92502961D01*
X138614307Y-92493934D01*
X138595245Y-92482637D01*
X138585838Y-92476984D01*
X138559935Y-92461779D01*
X138533610Y-92446743D01*
X138511319Y-92434434D01*
X138503660Y-92430287D01*
X138487224Y-92421139D01*
X138475285Y-92414140D01*
X138470017Y-92410546D01*
X138469212Y-92409785D01*
X138461772Y-92404777D01*
X138450017Y-92398011D01*
X138447745Y-92396757D01*
X138433993Y-92388382D01*
X138423767Y-92380987D01*
X138423040Y-92380243D01*
X138421846Y-92378223D01*
X138420776Y-92374876D01*
X138419823Y-92369693D01*
X138418982Y-92362163D01*
X138418244Y-92351775D01*
X138417604Y-92338020D01*
X138417053Y-92320387D01*
X138416587Y-92298367D01*
X138416197Y-92271448D01*
X138415877Y-92239121D01*
X138415620Y-92200876D01*
X138415419Y-92156202D01*
X138415268Y-92104590D01*
X138415160Y-92045528D01*
X138415087Y-91978507D01*
X138415044Y-91903017D01*
X138415026Y-91830963D01*
X138469901Y-91830963D01*
X138469914Y-91896751D01*
X138469981Y-91960822D01*
X138470103Y-92022430D01*
X138470281Y-92080831D01*
X138470517Y-92135277D01*
X138470810Y-92185023D01*
X138471163Y-92229323D01*
X138471575Y-92267431D01*
X138472049Y-92298601D01*
X138472584Y-92322087D01*
X138473182Y-92337143D01*
X138473844Y-92343024D01*
X138475297Y-92344500D01*
X138484109Y-92350766D01*
X138498587Y-92359686D01*
X138516478Y-92369841D01*
X138523587Y-92373780D01*
X138541273Y-92384055D01*
X138555162Y-92392790D01*
X138562728Y-92398424D01*
X138567152Y-92402234D01*
X138570017Y-92402741D01*
X138570175Y-92402463D01*
X138574948Y-92403887D01*
X138583823Y-92408585D01*
X138593334Y-92414577D01*
X138600017Y-92419884D01*
X138600232Y-92420077D01*
X138606468Y-92423980D01*
X138618873Y-92430955D01*
X138635017Y-92439630D01*
X138636977Y-92440666D01*
X138652827Y-92449305D01*
X138664652Y-92456191D01*
X138670017Y-92459914D01*
X138670338Y-92460252D01*
X138677176Y-92464390D01*
X138688767Y-92469640D01*
X138690687Y-92470443D01*
X138700868Y-92475822D01*
X138705017Y-92480064D01*
X138707980Y-92483321D01*
X138717168Y-92486965D01*
X138725938Y-92490099D01*
X138736146Y-92496257D01*
X138737441Y-92497394D01*
X138748123Y-92504905D01*
X138760514Y-92511623D01*
X138771292Y-92515932D01*
X138777136Y-92516215D01*
X138777295Y-92515449D01*
X138777739Y-92506801D01*
X138778159Y-92489176D01*
X138778550Y-92463332D01*
X138778906Y-92430027D01*
X138779223Y-92390021D01*
X138779495Y-92344070D01*
X138779715Y-92292933D01*
X138779879Y-92237369D01*
X138779982Y-92178135D01*
X138780017Y-92115990D01*
X138780017Y-91718646D01*
X138792775Y-91706823D01*
X138793989Y-91705716D01*
X138803642Y-91698112D01*
X138810040Y-91695000D01*
X138816009Y-91696146D01*
X138826574Y-91700517D01*
X138835964Y-91706133D01*
X138840017Y-91710802D01*
X138840057Y-91711403D01*
X138843767Y-91714127D01*
X138843796Y-91714121D01*
X138851231Y-91715511D01*
X138861679Y-91720230D01*
X138870991Y-91726066D01*
X138875017Y-91730802D01*
X138875733Y-91732628D01*
X138882160Y-91734999D01*
X138888535Y-91736921D01*
X138898053Y-91743749D01*
X138904402Y-91749098D01*
X138909660Y-91751180D01*
X138911219Y-91751303D01*
X138919318Y-91754963D01*
X138931140Y-91762052D01*
X138935547Y-91764851D01*
X138949405Y-91772736D01*
X138959890Y-91777459D01*
X138965905Y-91780088D01*
X138970017Y-91784332D01*
X138970254Y-91785017D01*
X138976160Y-91789331D01*
X138987517Y-91794319D01*
X138990341Y-91795401D01*
X139000790Y-91800755D01*
X139005017Y-91805323D01*
X139005736Y-91807362D01*
X139012160Y-91810000D01*
X139017781Y-91811471D01*
X139027160Y-91817857D01*
X139032114Y-91822202D01*
X139035017Y-91823014D01*
X139036355Y-91823031D01*
X139043948Y-91826418D01*
X139056085Y-91832833D01*
X139070262Y-91840844D01*
X139083978Y-91849024D01*
X139094730Y-91855940D01*
X139100017Y-91860164D01*
X139103933Y-91863049D01*
X139113738Y-91867153D01*
X139121448Y-91870290D01*
X139131392Y-91876577D01*
X139131854Y-91876977D01*
X139140132Y-91882511D01*
X139154244Y-91890726D01*
X139171415Y-91900000D01*
X139174546Y-91901647D01*
X139190009Y-91910317D01*
X139200893Y-91917313D01*
X139205011Y-91921250D01*
X139205726Y-91922877D01*
X139212160Y-91925000D01*
X139216865Y-91925999D01*
X139226144Y-91931840D01*
X139231956Y-91936327D01*
X139243971Y-91942167D01*
X139251407Y-91945227D01*
X139261392Y-91951577D01*
X139261854Y-91951977D01*
X139270132Y-91957511D01*
X139284244Y-91965726D01*
X139301415Y-91975000D01*
X139304546Y-91976647D01*
X139320009Y-91985317D01*
X139330893Y-91992313D01*
X139335011Y-91996250D01*
X139335726Y-91997877D01*
X139342160Y-92000000D01*
X139347781Y-92001471D01*
X139357160Y-92007857D01*
X139362118Y-92012180D01*
X139365017Y-92012903D01*
X139365078Y-92012717D01*
X139369606Y-92014004D01*
X139379495Y-92019177D01*
X139392172Y-92026661D01*
X139405062Y-92034884D01*
X139415593Y-92042271D01*
X139421191Y-92047249D01*
X139423055Y-92049373D01*
X139425017Y-92047500D01*
X139425459Y-92045348D01*
X139428844Y-92047500D01*
X139434009Y-92051630D01*
X139445804Y-92058896D01*
X139461267Y-92067324D01*
X139475201Y-92075004D01*
X139485916Y-92081945D01*
X139490017Y-92086074D01*
X139490036Y-92086462D01*
X139493767Y-92089127D01*
X139493796Y-92089121D01*
X139501231Y-92090511D01*
X139511679Y-92095230D01*
X139520991Y-92101066D01*
X139525017Y-92105802D01*
X139525190Y-92106876D01*
X139530191Y-92110000D01*
X139530880Y-92110107D01*
X139538709Y-92113356D01*
X139552195Y-92120141D01*
X139568925Y-92129117D01*
X139586486Y-92138941D01*
X139602464Y-92148266D01*
X139614446Y-92155749D01*
X139620017Y-92160045D01*
X139623931Y-92163001D01*
X139633738Y-92167153D01*
X139641448Y-92170290D01*
X139651392Y-92176577D01*
X139651854Y-92176977D01*
X139660132Y-92182511D01*
X139674244Y-92190726D01*
X139691415Y-92200000D01*
X139694583Y-92201664D01*
X139710028Y-92210238D01*
X139720899Y-92217034D01*
X139725011Y-92220707D01*
X139728168Y-92223623D01*
X139737517Y-92227053D01*
X139745772Y-92230428D01*
X139750017Y-92235390D01*
X139750408Y-92237157D01*
X139755017Y-92237500D01*
X139756954Y-92236718D01*
X139760017Y-92239704D01*
X139760608Y-92241866D01*
X139766752Y-92245000D01*
X139774672Y-92247815D01*
X139785017Y-92255000D01*
X139794833Y-92261949D01*
X139802925Y-92265000D01*
X139807013Y-92265837D01*
X139816084Y-92271250D01*
X139822390Y-92275774D01*
X139835394Y-92283588D01*
X139851441Y-92292324D01*
X139865214Y-92299995D01*
X139875918Y-92307072D01*
X139880017Y-92311369D01*
X139880384Y-92312724D01*
X139885017Y-92312500D01*
X139886954Y-92311718D01*
X139890017Y-92314704D01*
X139890721Y-92316999D01*
X139897101Y-92320000D01*
X139900116Y-92320420D01*
X139905851Y-92324865D01*
X139908773Y-92325487D01*
X139918297Y-92322880D01*
X139931769Y-92317467D01*
X139946479Y-92310466D01*
X139959716Y-92303097D01*
X139968769Y-92296577D01*
X139974000Y-92292755D01*
X139985582Y-92287320D01*
X139993749Y-92283700D01*
X140005714Y-92275743D01*
X140012822Y-92270582D01*
X140018930Y-92268272D01*
X140019253Y-92268326D01*
X140025017Y-92265448D01*
X140028006Y-92262991D01*
X140038012Y-92256519D01*
X140052787Y-92247663D01*
X140070107Y-92237680D01*
X140087749Y-92227825D01*
X140103490Y-92219355D01*
X140115106Y-92213524D01*
X140120375Y-92211589D01*
X140124300Y-92210096D01*
X140131982Y-92203750D01*
X140139005Y-92198294D01*
X140147875Y-92195000D01*
X140150981Y-92194578D01*
X140155017Y-92190791D01*
X140158943Y-92186788D01*
X140169645Y-92180016D01*
X140184749Y-92172041D01*
X140199417Y-92164117D01*
X140210436Y-92156655D01*
X140214749Y-92151616D01*
X140211137Y-92146601D01*
X140200879Y-92138572D01*
X140186267Y-92129447D01*
X140171919Y-92121064D01*
X140160369Y-92113803D01*
X140155017Y-92109754D01*
X140151083Y-92106910D01*
X140141267Y-92102836D01*
X140134187Y-92099515D01*
X140130017Y-92094367D01*
X140129633Y-92092704D01*
X140125017Y-92092500D01*
X140123140Y-92093344D01*
X140120017Y-92091299D01*
X140119785Y-92090519D01*
X140113886Y-92085826D01*
X140102518Y-92080680D01*
X140099650Y-92079594D01*
X140089231Y-92074587D01*
X140085018Y-92070680D01*
X140084781Y-92069993D01*
X140078876Y-92065672D01*
X140067518Y-92060680D01*
X140064694Y-92059598D01*
X140054245Y-92054244D01*
X140050018Y-92049676D01*
X140049299Y-92047637D01*
X140042875Y-92045000D01*
X140036500Y-92043078D01*
X140026982Y-92036250D01*
X140021106Y-92031050D01*
X140017875Y-92029832D01*
X140017856Y-92029885D01*
X140013415Y-92028522D01*
X140002744Y-92023133D01*
X139988059Y-92014832D01*
X139973505Y-92006379D01*
X139949795Y-91992893D01*
X139928095Y-91980830D01*
X139927683Y-91980605D01*
X139912149Y-91971801D01*
X139900437Y-91964602D01*
X139895053Y-91960546D01*
X139894737Y-91960171D01*
X139887882Y-91955737D01*
X139876267Y-91950359D01*
X139874348Y-91949556D01*
X139864167Y-91944177D01*
X139860017Y-91939935D01*
X139856871Y-91936597D01*
X139847517Y-91932946D01*
X139839260Y-91929643D01*
X139835017Y-91924904D01*
X139834716Y-91923337D01*
X139829291Y-91920000D01*
X139825413Y-91918732D01*
X139814185Y-91913349D01*
X139797946Y-91904777D01*
X139778672Y-91894143D01*
X139758340Y-91882578D01*
X139738925Y-91871208D01*
X139722403Y-91861163D01*
X139710751Y-91853571D01*
X139705945Y-91849560D01*
X139705597Y-91848995D01*
X139698955Y-91844650D01*
X139687195Y-91839893D01*
X139684757Y-91839042D01*
X139674273Y-91834047D01*
X139670017Y-91829612D01*
X139669702Y-91828114D01*
X139664226Y-91825000D01*
X139660208Y-91823410D01*
X139648719Y-91817576D01*
X139631511Y-91808316D01*
X139610186Y-91796542D01*
X139586343Y-91783162D01*
X139561582Y-91769089D01*
X139537503Y-91755232D01*
X139515708Y-91742502D01*
X139497795Y-91731810D01*
X139485365Y-91724065D01*
X139480017Y-91720180D01*
X139479698Y-91719834D01*
X139472862Y-91715635D01*
X139461267Y-91710359D01*
X139459348Y-91709556D01*
X139449167Y-91704177D01*
X139445017Y-91699935D01*
X139442055Y-91696678D01*
X139432867Y-91693034D01*
X139424101Y-91689897D01*
X139413944Y-91683742D01*
X139407640Y-91679221D01*
X139394640Y-91671409D01*
X139378594Y-91662675D01*
X139364769Y-91655136D01*
X139354101Y-91648548D01*
X139350017Y-91644929D01*
X139349775Y-91644357D01*
X139343863Y-91640484D01*
X139332517Y-91635680D01*
X139329679Y-91634597D01*
X139319240Y-91629359D01*
X139315017Y-91625013D01*
X139312492Y-91621514D01*
X139303767Y-91617259D01*
X139302943Y-91616977D01*
X139293337Y-91612512D01*
X139277477Y-91604165D01*
X139257369Y-91593018D01*
X139235017Y-91580155D01*
X139213667Y-91567683D01*
X139182035Y-91549300D01*
X139150178Y-91530874D01*
X139122517Y-91514965D01*
X139120107Y-91513583D01*
X139099368Y-91501549D01*
X139082113Y-91491293D01*
X139070083Y-91483864D01*
X139065017Y-91480310D01*
X139064691Y-91479986D01*
X139058081Y-91475759D01*
X139045304Y-91468666D01*
X139028767Y-91460053D01*
X139025590Y-91458430D01*
X139010069Y-91450078D01*
X138999146Y-91443492D01*
X138995017Y-91439980D01*
X138994776Y-91439400D01*
X138988864Y-91435497D01*
X138977517Y-91430680D01*
X138974650Y-91429594D01*
X138964231Y-91424587D01*
X138960017Y-91420680D01*
X138959781Y-91419993D01*
X138953876Y-91415672D01*
X138942517Y-91410680D01*
X138939650Y-91409594D01*
X138929231Y-91404587D01*
X138925017Y-91400680D01*
X138924781Y-91399993D01*
X138918876Y-91395672D01*
X138907517Y-91390680D01*
X138904694Y-91389598D01*
X138894245Y-91384244D01*
X138890017Y-91379676D01*
X138889299Y-91377637D01*
X138882875Y-91375000D01*
X138876500Y-91373078D01*
X138866982Y-91366250D01*
X138861105Y-91361058D01*
X138857875Y-91359867D01*
X138857864Y-91359892D01*
X138853466Y-91358141D01*
X138842390Y-91352418D01*
X138826506Y-91343784D01*
X138807686Y-91333299D01*
X138787800Y-91322024D01*
X138768719Y-91311018D01*
X138752315Y-91301343D01*
X138740457Y-91294059D01*
X138735017Y-91290227D01*
X138730282Y-91287096D01*
X138718959Y-91280716D01*
X138703767Y-91272675D01*
X138689834Y-91264995D01*
X138679119Y-91258054D01*
X138675017Y-91253925D01*
X138674295Y-91252213D01*
X138667850Y-91250000D01*
X138664251Y-91249055D01*
X138653392Y-91244127D01*
X138639015Y-91236490D01*
X138624145Y-91227856D01*
X138611805Y-91219936D01*
X138605017Y-91214439D01*
X138601076Y-91211786D01*
X138591267Y-91207836D01*
X138584187Y-91204515D01*
X138580017Y-91199367D01*
X138579633Y-91197704D01*
X138575017Y-91197499D01*
X138573081Y-91198281D01*
X138570017Y-91195295D01*
X138569293Y-91192979D01*
X138562875Y-91190000D01*
X138558429Y-91189173D01*
X138548869Y-91183750D01*
X138541067Y-91178201D01*
X138527617Y-91170200D01*
X138511512Y-91161397D01*
X138495563Y-91153275D01*
X138482579Y-91147315D01*
X138475371Y-91145000D01*
X138474890Y-91147452D01*
X138474242Y-91158944D01*
X138473636Y-91179163D01*
X138473072Y-91207363D01*
X138472550Y-91242798D01*
X138472072Y-91284722D01*
X138471639Y-91332389D01*
X138471252Y-91385054D01*
X138470912Y-91441969D01*
X138470619Y-91502390D01*
X138470374Y-91565569D01*
X138470179Y-91630763D01*
X138470035Y-91697224D01*
X138469942Y-91764206D01*
X138469901Y-91830963D01*
X138415026Y-91830963D01*
X138415023Y-91818547D01*
X138415017Y-91724587D01*
X138415017Y-91090200D01*
X138505017Y-91090200D01*
X138508132Y-91092894D01*
X138518656Y-91099884D01*
X138535280Y-91110212D01*
X138556613Y-91123018D01*
X138581267Y-91137440D01*
X138590711Y-91142899D01*
X138625269Y-91162886D01*
X138663067Y-91184758D01*
X138700139Y-91206219D01*
X138732517Y-91224974D01*
X138748114Y-91234008D01*
X138782320Y-91253805D01*
X138819745Y-91275449D01*
X138856830Y-91296882D01*
X138890017Y-91316046D01*
X138897313Y-91320257D01*
X138920835Y-91333837D01*
X138951387Y-91351478D01*
X138987812Y-91372513D01*
X139028952Y-91396272D01*
X139073650Y-91422089D01*
X139120748Y-91449293D01*
X139169090Y-91477217D01*
X139217517Y-91505191D01*
X139234802Y-91515176D01*
X139284026Y-91543611D01*
X139333161Y-91571994D01*
X139380980Y-91599616D01*
X139426261Y-91625771D01*
X139467780Y-91649751D01*
X139504311Y-91670851D01*
X139534632Y-91688362D01*
X139557517Y-91701578D01*
X139584932Y-91717408D01*
X139638517Y-91748354D01*
X139685203Y-91775321D01*
X139726193Y-91799008D01*
X139762693Y-91820109D01*
X139795908Y-91839323D01*
X139827043Y-91857347D01*
X139857303Y-91874878D01*
X139887893Y-91892611D01*
X139920017Y-91911246D01*
X139941881Y-91923923D01*
X139978760Y-91945278D01*
X140017880Y-91967903D01*
X140057685Y-91990899D01*
X140096618Y-92013368D01*
X140133124Y-92034413D01*
X140165646Y-92053135D01*
X140192629Y-92068637D01*
X140212517Y-92080021D01*
X140215986Y-92082001D01*
X140245521Y-92098994D01*
X140267535Y-92112076D01*
X140283147Y-92122079D01*
X140293480Y-92129835D01*
X140299654Y-92136176D01*
X140302790Y-92141935D01*
X140304010Y-92147944D01*
X140303846Y-92151616D01*
X140303546Y-92158360D01*
X140296510Y-92170673D01*
X140295637Y-92171353D01*
X140286914Y-92177106D01*
X140271286Y-92186732D01*
X140250208Y-92199357D01*
X140225133Y-92214108D01*
X140197517Y-92230112D01*
X140194134Y-92232059D01*
X140161526Y-92250823D01*
X140126357Y-92271067D01*
X140089875Y-92292072D01*
X140053327Y-92313121D01*
X140017960Y-92333493D01*
X139985023Y-92352470D01*
X139955763Y-92369335D01*
X139931426Y-92383367D01*
X139913262Y-92393848D01*
X139902517Y-92400059D01*
X139895495Y-92404118D01*
X139880640Y-92412693D01*
X139858941Y-92425213D01*
X139831320Y-92441147D01*
X139798696Y-92459965D01*
X139761991Y-92481135D01*
X139722125Y-92504126D01*
X139680017Y-92528408D01*
X139679175Y-92528893D01*
X139607611Y-92570164D01*
X139544217Y-92606734D01*
X139488503Y-92638890D01*
X139439979Y-92666918D01*
X139398154Y-92691107D01*
X139362538Y-92711741D01*
X139332640Y-92729108D01*
X139307972Y-92743494D01*
X139288041Y-92755187D01*
X139272359Y-92764472D01*
X139260434Y-92771637D01*
X139251777Y-92776968D01*
X139245897Y-92780752D01*
X139242304Y-92783275D01*
X139240507Y-92784824D01*
X139240017Y-92785686D01*
X139240102Y-92785859D01*
X139245390Y-92789761D01*
X139258107Y-92797865D01*
X139277154Y-92809505D01*
X139301429Y-92824018D01*
X139329833Y-92840737D01*
X139361267Y-92858999D01*
X139373869Y-92866275D01*
X139411881Y-92888234D01*
X139455433Y-92913405D01*
X139502274Y-92940486D01*
X139550153Y-92968177D01*
X139596818Y-92995174D01*
X139640017Y-93020177D01*
X139655814Y-93029321D01*
X139702992Y-93056619D01*
X139753519Y-93085844D01*
X139806394Y-93116415D01*
X139860618Y-93147757D01*
X139915190Y-93179291D01*
X139969110Y-93210439D01*
X140021376Y-93240623D01*
X140070990Y-93269266D01*
X140116950Y-93295791D01*
X140158256Y-93319618D01*
X140193907Y-93340171D01*
X140222903Y-93356871D01*
X140244244Y-93369142D01*
X140266759Y-93382643D01*
X140285742Y-93395208D01*
X140298916Y-93405327D01*
X140304748Y-93411917D01*
X140306608Y-93418633D01*
X140306213Y-93421791D01*
X140304772Y-93433300D01*
X140293446Y-93444843D01*
X140288303Y-93447975D01*
X140274319Y-93456284D01*
X140254205Y-93468113D01*
X140229486Y-93482572D01*
X140201684Y-93498773D01*
X140172323Y-93515827D01*
X140142927Y-93532845D01*
X140115017Y-93548939D01*
X140089104Y-93563849D01*
X140037090Y-93593791D01*
X139984932Y-93623831D01*
X139933610Y-93653406D01*
X139884104Y-93681949D01*
X139837393Y-93708896D01*
X139794455Y-93733683D01*
X139756269Y-93755744D01*
X139723815Y-93774514D01*
X139698071Y-93789429D01*
X139680017Y-93799923D01*
X139673787Y-93803549D01*
X139653569Y-93815266D01*
X139626487Y-93830915D01*
X139593809Y-93849766D01*
X139556805Y-93871085D01*
X139516742Y-93894144D01*
X139474890Y-93918210D01*
X139432517Y-93942553D01*
X139407832Y-93956735D01*
X139368466Y-93979386D01*
X139331797Y-94000527D01*
X139298819Y-94019581D01*
X139270530Y-94035971D01*
X139247928Y-94049120D01*
X139232008Y-94058451D01*
X139223767Y-94063388D01*
X139205017Y-94075125D01*
X139205017Y-94249767D01*
X139205100Y-94284859D01*
X139205389Y-94322952D01*
X139205861Y-94356816D01*
X139206491Y-94385298D01*
X139207250Y-94407243D01*
X139208114Y-94421497D01*
X139209056Y-94426905D01*
X139212549Y-94425496D01*
X139224149Y-94419493D01*
X139243244Y-94409124D01*
X139269203Y-94394745D01*
X139301398Y-94376710D01*
X139339200Y-94355376D01*
X139381980Y-94331095D01*
X139429110Y-94304225D01*
X139479960Y-94275120D01*
X139533902Y-94244135D01*
X139590306Y-94211624D01*
X139618366Y-94195425D01*
X139678090Y-94160948D01*
X139737258Y-94126796D01*
X139794969Y-94093488D01*
X139850322Y-94061545D01*
X139902418Y-94031485D01*
X139950355Y-94003828D01*
X139993235Y-93979094D01*
X140030155Y-93957801D01*
X140060216Y-93940471D01*
X140082517Y-93927621D01*
X140102118Y-93916332D01*
X140138594Y-93895319D01*
X140178515Y-93872316D01*
X140220780Y-93847957D01*
X140264289Y-93822878D01*
X140307941Y-93797713D01*
X140350634Y-93773097D01*
X140391268Y-93749665D01*
X140428742Y-93728051D01*
X140461954Y-93708891D01*
X140489805Y-93692819D01*
X140511193Y-93680470D01*
X140525017Y-93672478D01*
X140534884Y-93666768D01*
X140566827Y-93648299D01*
X140604852Y-93626333D01*
X140647073Y-93601958D01*
X140691600Y-93576264D01*
X140736546Y-93550341D01*
X140780023Y-93525277D01*
X140820143Y-93502161D01*
X140855017Y-93482084D01*
X140869479Y-93473710D01*
X140896009Y-93458045D01*
X140918690Y-93444256D01*
X140936305Y-93433102D01*
X140947642Y-93425344D01*
X140951483Y-93421742D01*
X140951251Y-93421406D01*
X140946184Y-93417672D01*
X140934376Y-93410147D01*
X140915633Y-93398714D01*
X140889757Y-93383260D01*
X140856555Y-93363670D01*
X140815829Y-93339829D01*
X140767386Y-93311624D01*
X140711028Y-93278939D01*
X140646561Y-93241660D01*
X140573790Y-93199672D01*
X140492517Y-93152861D01*
X140478280Y-93144662D01*
X140438376Y-93121656D01*
X140395749Y-93097044D01*
X140353248Y-93072474D01*
X140313721Y-93049591D01*
X140280017Y-93030043D01*
X140245853Y-93010228D01*
X140207186Y-92987852D01*
X140167943Y-92965184D01*
X140131196Y-92944001D01*
X140100017Y-92926075D01*
X140061159Y-92903755D01*
X140019082Y-92879499D01*
X139984410Y-92859359D01*
X139956422Y-92842881D01*
X139934394Y-92829609D01*
X139917603Y-92819087D01*
X139905326Y-92810861D01*
X139896839Y-92804473D01*
X139891420Y-92799469D01*
X139888346Y-92795394D01*
X139886893Y-92791790D01*
X139886307Y-92788989D01*
X139886454Y-92781452D01*
X139890154Y-92773969D01*
X139898470Y-92765604D01*
X139912465Y-92755420D01*
X139933201Y-92742482D01*
X139961740Y-92725854D01*
X139980244Y-92715237D01*
X140007407Y-92699619D01*
X140039619Y-92681074D01*
X140074977Y-92660700D01*
X140111577Y-92639590D01*
X140147517Y-92618843D01*
X140152181Y-92616149D01*
X140193798Y-92592117D01*
X140238591Y-92566255D01*
X140285716Y-92539051D01*
X140334327Y-92510994D01*
X140383579Y-92482571D01*
X140432626Y-92454270D01*
X140480623Y-92426578D01*
X140526723Y-92399984D01*
X140570082Y-92374975D01*
X140609854Y-92352038D01*
X140645193Y-92331663D01*
X140675254Y-92314336D01*
X140699191Y-92300545D01*
X140716158Y-92290779D01*
X140725311Y-92285524D01*
X140730224Y-92282707D01*
X140745118Y-92274129D01*
X140766261Y-92261925D01*
X140792096Y-92246995D01*
X140821064Y-92230239D01*
X140851609Y-92212557D01*
X140867502Y-92203418D01*
X140898078Y-92186009D01*
X140920677Y-92172652D01*
X140935506Y-92162262D01*
X140942776Y-92153754D01*
X140942697Y-92146044D01*
X140935478Y-92138049D01*
X140921328Y-92128684D01*
X140900457Y-92116865D01*
X140873075Y-92101507D01*
X140869953Y-92099721D01*
X140846052Y-92086037D01*
X140823683Y-92073217D01*
X140805230Y-92062628D01*
X140793075Y-92055636D01*
X140787258Y-92052279D01*
X140766205Y-92040129D01*
X140739226Y-92024557D01*
X140708322Y-92006719D01*
X140675495Y-91987771D01*
X140642750Y-91968869D01*
X140612086Y-91951169D01*
X140585508Y-91935826D01*
X140565017Y-91923996D01*
X140561674Y-91922065D01*
X140541124Y-91910183D01*
X140514529Y-91894790D01*
X140484045Y-91877134D01*
X140451823Y-91858461D01*
X140420017Y-91840018D01*
X140410717Y-91834625D01*
X140374981Y-91813922D01*
X140334470Y-91790476D01*
X140290676Y-91765149D01*
X140245090Y-91738804D01*
X140199206Y-91712301D01*
X140154514Y-91686503D01*
X140112507Y-91662270D01*
X140074678Y-91640465D01*
X140042517Y-91621949D01*
X140017517Y-91607583D01*
X140004512Y-91600102D01*
X139983002Y-91587696D01*
X139955360Y-91571731D01*
X139922913Y-91552976D01*
X139886989Y-91532197D01*
X139848915Y-91510162D01*
X139810017Y-91487637D01*
X139809125Y-91487120D01*
X139771608Y-91465397D01*
X139736105Y-91444858D01*
X139703722Y-91426141D01*
X139675566Y-91409884D01*
X139652742Y-91396727D01*
X139636357Y-91387307D01*
X139627517Y-91382265D01*
X139623769Y-91380136D01*
X139610859Y-91372733D01*
X139590867Y-91361226D01*
X139564803Y-91346198D01*
X139533677Y-91328232D01*
X139498497Y-91307909D01*
X139460274Y-91285813D01*
X139420017Y-91262527D01*
X139415829Y-91260103D01*
X139370199Y-91233703D01*
X139322466Y-91206093D01*
X139274424Y-91178308D01*
X139227865Y-91151387D01*
X139184583Y-91126365D01*
X139146369Y-91104279D01*
X139115017Y-91086166D01*
X139096306Y-91075353D01*
X139056830Y-91052518D01*
X139015612Y-91028647D01*
X138975253Y-91005248D01*
X138938354Y-90983829D01*
X138907517Y-90965896D01*
X138899789Y-90961408D01*
X138873223Y-90946150D01*
X138849824Y-90932971D01*
X138830953Y-90922622D01*
X138817972Y-90915852D01*
X138812243Y-90913412D01*
X138811110Y-90913752D01*
X138802714Y-90917831D01*
X138787451Y-90925981D01*
X138766519Y-90937512D01*
X138741117Y-90951735D01*
X138712444Y-90967959D01*
X138681698Y-90985494D01*
X138650080Y-91003651D01*
X138618788Y-91021740D01*
X138589020Y-91039070D01*
X138561977Y-91054952D01*
X138538855Y-91068696D01*
X138520856Y-91079612D01*
X138509177Y-91087010D01*
X138505017Y-91090200D01*
X138415017Y-91090200D01*
X138415017Y-91075725D01*
X138428192Y-91065362D01*
X138429051Y-91064693D01*
X138439066Y-91057825D01*
X138445459Y-91055000D01*
X138450503Y-91052866D01*
X138462430Y-91046470D01*
X138479286Y-91036836D01*
X138499213Y-91025000D01*
X138517813Y-91013999D01*
X138535319Y-91004140D01*
X138548171Y-90997459D01*
X138554445Y-90995000D01*
X138556140Y-90994762D01*
X138560017Y-90990000D01*
X138560864Y-90987699D01*
X138567517Y-90985000D01*
X138570954Y-90984548D01*
X138575017Y-90980962D01*
X138575767Y-90979539D01*
X138582864Y-90974299D01*
X138595026Y-90968096D01*
X138599691Y-90965959D01*
X138612985Y-90959023D01*
X138621404Y-90953384D01*
X138625701Y-90950214D01*
X138637566Y-90943099D01*
X138652646Y-90935122D01*
X138662837Y-90929900D01*
X138674471Y-90923463D01*
X138680017Y-90919719D01*
X138682697Y-90917725D01*
X138692433Y-90912109D01*
X138706267Y-90904961D01*
X138715388Y-90900164D01*
X138725916Y-90893591D01*
X138730017Y-90889450D01*
X138732316Y-90886394D01*
X138740779Y-90882258D01*
X138746720Y-90879869D01*
X138760392Y-90873114D01*
X138775999Y-90864421D01*
X138782412Y-90860844D01*
X138804856Y-90852009D01*
X138823344Y-90850853D01*
X138836803Y-90857499D01*
X138842053Y-90861783D01*
X138849660Y-90864999D01*
X138851156Y-90865183D01*
X138855017Y-90869612D01*
X138855230Y-90870399D01*
X138861105Y-90875110D01*
X138872517Y-90879999D01*
X138875239Y-90880954D01*
X138885758Y-90885974D01*
X138890017Y-90890387D01*
X138890716Y-90892378D01*
X138897101Y-90895000D01*
X138900095Y-90895319D01*
X138905851Y-90898750D01*
X138906446Y-90899575D01*
X138913385Y-90904706D01*
X138925017Y-90911134D01*
X138932961Y-90915245D01*
X138950080Y-90924732D01*
X138967517Y-90934978D01*
X138978186Y-90941286D01*
X138993704Y-90949884D01*
X139004916Y-90955407D01*
X139013742Y-90959738D01*
X139019916Y-90964185D01*
X139023043Y-90966647D01*
X139033200Y-90972680D01*
X139047389Y-90980122D01*
X139057321Y-90985269D01*
X139070727Y-90992926D01*
X139078631Y-90998384D01*
X139080578Y-90999935D01*
X139091075Y-91006268D01*
X139105009Y-91013096D01*
X139110424Y-91015636D01*
X139120869Y-91021677D01*
X139125017Y-91025962D01*
X139125857Y-91027812D01*
X139132517Y-91030000D01*
X139135968Y-91030564D01*
X139140017Y-91035000D01*
X139140217Y-91036360D01*
X139145295Y-91040000D01*
X139150238Y-91041833D01*
X139162258Y-91047910D01*
X139179179Y-91057230D01*
X139199045Y-91068750D01*
X139215665Y-91078537D01*
X139235115Y-91089810D01*
X139250681Y-91098631D01*
X139260017Y-91103655D01*
X139270018Y-91108877D01*
X139282517Y-91116083D01*
X139283904Y-91116951D01*
X139311429Y-91133838D01*
X139334846Y-91147522D01*
X139352758Y-91157210D01*
X139363767Y-91162112D01*
X139370856Y-91165405D01*
X139375017Y-91170336D01*
X139375374Y-91171923D01*
X139380968Y-91175000D01*
X139383263Y-91175713D01*
X139393249Y-91180615D01*
X139409254Y-91189399D01*
X139429651Y-91201162D01*
X139452818Y-91214999D01*
X139465344Y-91222541D01*
X139487200Y-91235386D01*
X139505400Y-91245680D01*
X139518328Y-91252519D01*
X139524368Y-91254999D01*
X139526132Y-91255250D01*
X139530017Y-91260000D01*
X139530273Y-91261498D01*
X139535547Y-91264999D01*
X139535779Y-91265020D01*
X139542631Y-91267897D01*
X139556006Y-91274934D01*
X139574077Y-91285135D01*
X139595017Y-91297499D01*
X139596950Y-91298662D01*
X139617710Y-91310875D01*
X139635437Y-91320834D01*
X139648305Y-91327542D01*
X139654488Y-91329999D01*
X139656145Y-91330230D01*
X139660017Y-91335000D01*
X139660228Y-91336388D01*
X139665345Y-91339999D01*
X139668308Y-91340909D01*
X139678798Y-91345918D01*
X139694407Y-91354322D01*
X139712998Y-91364999D01*
X139724525Y-91371702D01*
X139741446Y-91381123D01*
X139754030Y-91387594D01*
X139760171Y-91389999D01*
X139761224Y-91390111D01*
X139765017Y-91394663D01*
X139767200Y-91398187D01*
X139775567Y-91402674D01*
X139779967Y-91404530D01*
X139792604Y-91411061D01*
X139809856Y-91420761D01*
X139829317Y-91432305D01*
X139841187Y-91439409D01*
X139859774Y-91450056D01*
X139874784Y-91458077D01*
X139883767Y-91462131D01*
X139890869Y-91465220D01*
X139895017Y-91469450D01*
X139896855Y-91471817D01*
X139905474Y-91477775D01*
X139918767Y-91485036D01*
X139924818Y-91488150D01*
X139942602Y-91497877D01*
X139963947Y-91510077D01*
X139985470Y-91522832D01*
X139997096Y-91529757D01*
X140015566Y-91540312D01*
X140030420Y-91548253D01*
X140039220Y-91552247D01*
X140045877Y-91555242D01*
X140050017Y-91559794D01*
X140053838Y-91563586D01*
X140063767Y-91567328D01*
X140074735Y-91571515D01*
X140087517Y-91579677D01*
X140088387Y-91580428D01*
X140098478Y-91587786D01*
X140113097Y-91597176D01*
X140129666Y-91607095D01*
X140145605Y-91616040D01*
X140158338Y-91622509D01*
X140165285Y-91624999D01*
X140166240Y-91625096D01*
X140170017Y-91629663D01*
X140172374Y-91633297D01*
X140180919Y-91637786D01*
X140184532Y-91639235D01*
X140196853Y-91645335D01*
X140213888Y-91654584D01*
X140233091Y-91665623D01*
X140243599Y-91671728D01*
X140260556Y-91681122D01*
X140273310Y-91687591D01*
X140279690Y-91690000D01*
X140281148Y-91690158D01*
X140285017Y-91694145D01*
X140287183Y-91696842D01*
X140296263Y-91702869D01*
X140310018Y-91710000D01*
X140320166Y-91715112D01*
X140330866Y-91721629D01*
X140335017Y-91725854D01*
X140335528Y-91727459D01*
X140341523Y-91729999D01*
X140341928Y-91730030D01*
X140349789Y-91733116D01*
X140363011Y-91740277D01*
X140378965Y-91750101D01*
X140379614Y-91750522D01*
X140396520Y-91761155D01*
X140411439Y-91769967D01*
X140421209Y-91775089D01*
X140429369Y-91778957D01*
X140440017Y-91784965D01*
X140443451Y-91787200D01*
X140457970Y-91796145D01*
X140476705Y-91807211D01*
X140497524Y-91819193D01*
X140518290Y-91830885D01*
X140536869Y-91841079D01*
X140551125Y-91848571D01*
X140558924Y-91852152D01*
X140565860Y-91855385D01*
X140570017Y-91860336D01*
X140570176Y-91861491D01*
X140575103Y-91864999D01*
X140575646Y-91865092D01*
X140582991Y-91868317D01*
X140596283Y-91875249D01*
X140613327Y-91884656D01*
X140631927Y-91895307D01*
X140649889Y-91905972D01*
X140665017Y-91915420D01*
X140669252Y-91917884D01*
X140681267Y-91923228D01*
X140685958Y-91925443D01*
X140690017Y-91930246D01*
X140692241Y-91933442D01*
X140700634Y-91937695D01*
X140702377Y-91938378D01*
X140712730Y-91943571D01*
X140729131Y-91952610D01*
X140749708Y-91964447D01*
X140772591Y-91978032D01*
X140781003Y-91983073D01*
X140802442Y-91995642D01*
X140820392Y-92005775D01*
X140833176Y-92012538D01*
X140839117Y-92014999D01*
X140842643Y-92015870D01*
X140850910Y-92021323D01*
X140855248Y-92024633D01*
X140867206Y-92031973D01*
X140882326Y-92040073D01*
X140891879Y-92045109D01*
X140906846Y-92053961D01*
X140916891Y-92061131D01*
X140916966Y-92061197D01*
X140928750Y-92068880D01*
X140943333Y-92075269D01*
X140945339Y-92075964D01*
X140955768Y-92080918D01*
X140960017Y-92085387D01*
X140960716Y-92087378D01*
X140967101Y-92090000D01*
X140970095Y-92090319D01*
X140975851Y-92093750D01*
X140980050Y-92097170D01*
X140991034Y-92103605D01*
X141006141Y-92111342D01*
X141019660Y-92118654D01*
X141032828Y-92127595D01*
X141039891Y-92134763D01*
X141040896Y-92139320D01*
X141042115Y-92153990D01*
X141043124Y-92178043D01*
X141043916Y-92211119D01*
X141044482Y-92252863D01*
X141044815Y-92302916D01*
X141044906Y-92360921D01*
X141044900Y-92381400D01*
X141044886Y-92431647D01*
X141044777Y-92473141D01*
X141044445Y-92506797D01*
X141043759Y-92533530D01*
X141042592Y-92554256D01*
X141040815Y-92569892D01*
X141038298Y-92581351D01*
X141034912Y-92589550D01*
X141030530Y-92595404D01*
X141025021Y-92599830D01*
X141018257Y-92603741D01*
X141010109Y-92608054D01*
X141007535Y-92609478D01*
X140994701Y-92617313D01*
X140986002Y-92623750D01*
X140981933Y-92626926D01*
X140974551Y-92629999D01*
X140973734Y-92630213D01*
X140966055Y-92633896D01*
X140952299Y-92641299D01*
X140934398Y-92651320D01*
X140914287Y-92662852D01*
X140893898Y-92674791D01*
X140875164Y-92686031D01*
X140860017Y-92695469D01*
X140855781Y-92697912D01*
X140843767Y-92703228D01*
X140839074Y-92705421D01*
X140835017Y-92710094D01*
X140831071Y-92714371D01*
X140821267Y-92719351D01*
X140819553Y-92720035D01*
X140802007Y-92728250D01*
X140780551Y-92739758D01*
X140759014Y-92752419D01*
X140741228Y-92764090D01*
X140737478Y-92766705D01*
X140728577Y-92772215D01*
X140725017Y-92773236D01*
X140724702Y-92773170D01*
X140718619Y-92775952D01*
X140705972Y-92782827D01*
X140688316Y-92792930D01*
X140667207Y-92805396D01*
X140661913Y-92808553D01*
X140640843Y-92820878D01*
X140623135Y-92830864D01*
X140610514Y-92837556D01*
X140604707Y-92840000D01*
X140603594Y-92840143D01*
X140600017Y-92845000D01*
X140599874Y-92846193D01*
X140595076Y-92850000D01*
X140589518Y-92852200D01*
X140577117Y-92858611D01*
X140559852Y-92868218D01*
X140539611Y-92880000D01*
X140520262Y-92891374D01*
X140503420Y-92901049D01*
X140491578Y-92907594D01*
X140486523Y-92910000D01*
X140486428Y-92910012D01*
X140480847Y-92912744D01*
X140468548Y-92919564D01*
X140451266Y-92929489D01*
X140430738Y-92941538D01*
X140409774Y-92953854D01*
X140388346Y-92966230D01*
X140370514Y-92976311D01*
X140358767Y-92982675D01*
X140354100Y-92985148D01*
X140344031Y-92991236D01*
X140340017Y-92994926D01*
X140340740Y-92995894D01*
X140347797Y-93001159D01*
X140360748Y-93009600D01*
X140377582Y-93020020D01*
X140396285Y-93031226D01*
X140414847Y-93042022D01*
X140431256Y-93051213D01*
X140443500Y-93057604D01*
X140449567Y-93059999D01*
X140451155Y-93060217D01*
X140455017Y-93065000D01*
X140455273Y-93066498D01*
X140460547Y-93070000D01*
X140460779Y-93070020D01*
X140467631Y-93072897D01*
X140481006Y-93079934D01*
X140499077Y-93090135D01*
X140520017Y-93102500D01*
X140522307Y-93103878D01*
X140542704Y-93116015D01*
X140559726Y-93125904D01*
X140571652Y-93132561D01*
X140576761Y-93135000D01*
X140577323Y-93135171D01*
X140584340Y-93138810D01*
X140597812Y-93146463D01*
X140616089Y-93157176D01*
X140637517Y-93169999D01*
X140643340Y-93173509D01*
X140664025Y-93185862D01*
X140681066Y-93195861D01*
X140692830Y-93202557D01*
X140697686Y-93205000D01*
X140702333Y-93207260D01*
X140713866Y-93213684D01*
X140730487Y-93223266D01*
X140750424Y-93235000D01*
X140769750Y-93246305D01*
X140786926Y-93256013D01*
X140799226Y-93262584D01*
X140804808Y-93265000D01*
X140804821Y-93265000D01*
X140811140Y-93267832D01*
X140820882Y-93274606D01*
X140825852Y-93278254D01*
X140841823Y-93288638D01*
X140862344Y-93300893D01*
X140884393Y-93313245D01*
X140904950Y-93323924D01*
X140906941Y-93324921D01*
X140920689Y-93332623D01*
X140930811Y-93339528D01*
X140933146Y-93341348D01*
X140940037Y-93345970D01*
X140950917Y-93352489D01*
X140966998Y-93361602D01*
X140989492Y-93374002D01*
X141019613Y-93390383D01*
X141022217Y-93391841D01*
X141033925Y-93399595D01*
X141040786Y-93406072D01*
X141041380Y-93409351D01*
X141042189Y-93421742D01*
X141042196Y-93421848D01*
G37*
%LPC*%
D12*
X155578185Y-98467448D03*
D13*
X155578185Y-100467448D03*
D14*
X163450000Y-91400000D03*
D15*
X161350000Y-91400000D03*
D16*
X159350000Y-91400000D03*
X157350000Y-91400000D03*
D14*
X155250000Y-91400000D03*
%LPD*%
M02*
