M48
; DRILL file {KiCad 9.0.0} date 2026-03-03T13:36:13-0600
; FORMAT={-:-/ absolute / metric / decimal}
; #@! TF.CreationDate,2026-03-03T13:36:13-06:00
; #@! TF.GenerationSoftware,Kicad,Pcbnew,9.0.0
; #@! TF.FileFunction,Plated,1,2,PTH
FMAT,2
METRIC
; #@! TA.AperFunction,Plated,PTH,ViaDrill
T1C0.300
; #@! TA.AperFunction,Plated,PTH,ComponentDrill
T2C0.750
; #@! TA.AperFunction,Plated,PTH,ComponentDrill
T3C0.900
; #@! TA.AperFunction,Plated,PTH,ComponentDrill
T4C1.500
%
G90
G05
T1
X136.3Y-107.65
X138.45Y-100.4
X138.478Y-90.251
X138.7Y-107.75
X138.8Y-103.0
X139.75Y-95.5
X140.0Y-88.58
X140.7Y-99.75
X143.45Y-105.75
X144.05Y-93.0
X147.4Y-100.75
X147.8Y-107.65
X148.75Y-95.45
X149.2Y-90.7
X150.0Y-106.9
X152.3Y-109.7
X154.75Y-102.6
X155.7Y-101.75
X156.359Y-93.901
X157.05Y-105.3
X157.7Y-96.9
X158.1Y-110.45
X159.55Y-105.1
X159.698Y-88.537
X159.75Y-102.5
X161.6Y-110.45
X162.25Y-102.55
X162.25Y-106.4
T2
X155.578Y-98.467
X155.578Y-100.467
T3
X157.35Y-91.4
X159.35Y-91.4
X161.35Y-91.4
T4
X155.25Y-91.4
X163.45Y-91.4
M30
