%TF.GenerationSoftware,KiCad,Pcbnew,9.0.0*%
%TF.CreationDate,2025-09-23T11:37:28-05:00*%
%TF.ProjectId,eidon-tracker,6569646f-6e2d-4747-9261-636b65722e6b,rev?*%
%TF.SameCoordinates,Original*%
%TF.FileFunction,Drillmap*%
%TF.FilePolarity,Positive*%
%FSLAX45Y45*%
G04 Gerber Fmt 4.5, Leading zero omitted, Abs format (unit mm)*
G04 Created by KiCad (PCBNEW 9.0.0) date 2025-09-23 11:37:28*
%MOMM*%
%LPD*%
G01*
G04 APERTURE LIST*
%ADD10C,0.200000*%
G04 APERTURE END LIST*
D10*
X13400000Y-8925000D02*
G75*
G02*
X13600000Y-8725000I200000J0D01*
G01*
X16350000Y-9925000D02*
X16350000Y-10950000D01*
X13400000Y-8925000D02*
X13400000Y-11150000D01*
X16350000Y-8725000D02*
X16350000Y-9525000D01*
X16150000Y-9725000D02*
G75*
G02*
X16350000Y-9525000I200000J0D01*
G01*
X16350000Y-9925000D02*
G75*
G02*
X16150000Y-9725000I0J200000D01*
G01*
X16350000Y-10950000D02*
G75*
G02*
X16150000Y-11150000I-200000J0D01*
G01*
X13400000Y-11150000D02*
X16150000Y-11150000D01*
X13600000Y-8725000D02*
X16350000Y-8725000D01*
X13650777Y-11471484D02*
X13650777Y-11271484D01*
X13650777Y-11271484D02*
X13698396Y-11271484D01*
X13698396Y-11271484D02*
X13726967Y-11281008D01*
X13726967Y-11281008D02*
X13746015Y-11300055D01*
X13746015Y-11300055D02*
X13755539Y-11319103D01*
X13755539Y-11319103D02*
X13765062Y-11357198D01*
X13765062Y-11357198D02*
X13765062Y-11385769D01*
X13765062Y-11385769D02*
X13755539Y-11423865D01*
X13755539Y-11423865D02*
X13746015Y-11442912D01*
X13746015Y-11442912D02*
X13726967Y-11461960D01*
X13726967Y-11461960D02*
X13698396Y-11471484D01*
X13698396Y-11471484D02*
X13650777Y-11471484D01*
X13850777Y-11471484D02*
X13850777Y-11338150D01*
X13850777Y-11376246D02*
X13860301Y-11357198D01*
X13860301Y-11357198D02*
X13869824Y-11347674D01*
X13869824Y-11347674D02*
X13888872Y-11338150D01*
X13888872Y-11338150D02*
X13907920Y-11338150D01*
X13974586Y-11471484D02*
X13974586Y-11338150D01*
X13974586Y-11271484D02*
X13965062Y-11281008D01*
X13965062Y-11281008D02*
X13974586Y-11290531D01*
X13974586Y-11290531D02*
X13984110Y-11281008D01*
X13984110Y-11281008D02*
X13974586Y-11271484D01*
X13974586Y-11271484D02*
X13974586Y-11290531D01*
X14098396Y-11471484D02*
X14079348Y-11461960D01*
X14079348Y-11461960D02*
X14069824Y-11442912D01*
X14069824Y-11442912D02*
X14069824Y-11271484D01*
X14203158Y-11471484D02*
X14184110Y-11461960D01*
X14184110Y-11461960D02*
X14174586Y-11442912D01*
X14174586Y-11442912D02*
X14174586Y-11271484D01*
X14431729Y-11471484D02*
X14431729Y-11271484D01*
X14431729Y-11271484D02*
X14498396Y-11414341D01*
X14498396Y-11414341D02*
X14565062Y-11271484D01*
X14565062Y-11271484D02*
X14565062Y-11471484D01*
X14746015Y-11471484D02*
X14746015Y-11366722D01*
X14746015Y-11366722D02*
X14736491Y-11347674D01*
X14736491Y-11347674D02*
X14717443Y-11338150D01*
X14717443Y-11338150D02*
X14679348Y-11338150D01*
X14679348Y-11338150D02*
X14660301Y-11347674D01*
X14746015Y-11461960D02*
X14726967Y-11471484D01*
X14726967Y-11471484D02*
X14679348Y-11471484D01*
X14679348Y-11471484D02*
X14660301Y-11461960D01*
X14660301Y-11461960D02*
X14650777Y-11442912D01*
X14650777Y-11442912D02*
X14650777Y-11423865D01*
X14650777Y-11423865D02*
X14660301Y-11404817D01*
X14660301Y-11404817D02*
X14679348Y-11395293D01*
X14679348Y-11395293D02*
X14726967Y-11395293D01*
X14726967Y-11395293D02*
X14746015Y-11385769D01*
X14841253Y-11338150D02*
X14841253Y-11538150D01*
X14841253Y-11347674D02*
X14860301Y-11338150D01*
X14860301Y-11338150D02*
X14898396Y-11338150D01*
X14898396Y-11338150D02*
X14917443Y-11347674D01*
X14917443Y-11347674D02*
X14926967Y-11357198D01*
X14926967Y-11357198D02*
X14936491Y-11376246D01*
X14936491Y-11376246D02*
X14936491Y-11433388D01*
X14936491Y-11433388D02*
X14926967Y-11452436D01*
X14926967Y-11452436D02*
X14917443Y-11461960D01*
X14917443Y-11461960D02*
X14898396Y-11471484D01*
X14898396Y-11471484D02*
X14860301Y-11471484D01*
X14860301Y-11471484D02*
X14841253Y-11461960D01*
X15022205Y-11452436D02*
X15031729Y-11461960D01*
X15031729Y-11461960D02*
X15022205Y-11471484D01*
X15022205Y-11471484D02*
X15012682Y-11461960D01*
X15012682Y-11461960D02*
X15022205Y-11452436D01*
X15022205Y-11452436D02*
X15022205Y-11471484D01*
X15022205Y-11347674D02*
X15031729Y-11357198D01*
X15031729Y-11357198D02*
X15022205Y-11366722D01*
X15022205Y-11366722D02*
X15012682Y-11357198D01*
X15012682Y-11357198D02*
X15022205Y-11347674D01*
X15022205Y-11347674D02*
X15022205Y-11366722D01*
M02*
