G04 #@! TF.GenerationSoftware,KiCad,Pcbnew,9.0.0*
G04 #@! TF.CreationDate,2026-03-02T13:57:17-06:00*
G04 #@! TF.ProjectId,eidon-tracker,6569646f-6e2d-4747-9261-636b65722e6b,rev?*
G04 #@! TF.SameCoordinates,Original*
G04 #@! TF.FileFunction,Soldermask,Top*
G04 #@! TF.FilePolarity,Negative*
%FSLAX46Y46*%
G04 Gerber Fmt 4.6, Leading zero omitted, Abs format (unit mm)*
G04 Created by KiCad (PCBNEW 9.0.0) date 2026-03-02 13:57:17*
%MOMM*%
%LPD*%
G01*
G04 APERTURE LIST*
G04 APERTURE END LIST*
G36*
X154002017Y-109200401D02*
G01*
X154062045Y-109207365D01*
X154082554Y-109216421D01*
X154105238Y-109220933D01*
X154129522Y-109237159D01*
X154155167Y-109248483D01*
X154172682Y-109265998D01*
X154194454Y-109280546D01*
X154209001Y-109302317D01*
X154226516Y-109319832D01*
X154237838Y-109345474D01*
X154254067Y-109369762D01*
X154258579Y-109392447D01*
X154267634Y-109412954D01*
X154274596Y-109472970D01*
X154275000Y-109475000D01*
X154275000Y-109925000D01*
X154274596Y-109927029D01*
X154267634Y-109987045D01*
X154258579Y-110007550D01*
X154254067Y-110030238D01*
X154237837Y-110054527D01*
X154226516Y-110080167D01*
X154209003Y-110097679D01*
X154194454Y-110119454D01*
X154172679Y-110134003D01*
X154155167Y-110151516D01*
X154129527Y-110162837D01*
X154105238Y-110179067D01*
X154082550Y-110183579D01*
X154062045Y-110192634D01*
X154002031Y-110199595D01*
X154000000Y-110200000D01*
X153500000Y-110200000D01*
X153497971Y-110199596D01*
X153437954Y-110192634D01*
X153417447Y-110183579D01*
X153394762Y-110179067D01*
X153370474Y-110162838D01*
X153344832Y-110151516D01*
X153327317Y-110134001D01*
X153305546Y-110119454D01*
X153290998Y-110097682D01*
X153273483Y-110080167D01*
X153262159Y-110054522D01*
X153245933Y-110030238D01*
X153241421Y-110007554D01*
X153232365Y-109987045D01*
X153225401Y-109927019D01*
X153225000Y-109925000D01*
X153225000Y-109475000D01*
X153225401Y-109472983D01*
X153232365Y-109412954D01*
X153241421Y-109392443D01*
X153245933Y-109369762D01*
X153262158Y-109345479D01*
X153273483Y-109319832D01*
X153291000Y-109302314D01*
X153305546Y-109280546D01*
X153327314Y-109266000D01*
X153344832Y-109248483D01*
X153370479Y-109237158D01*
X153394762Y-109220933D01*
X153417443Y-109216421D01*
X153437954Y-109207365D01*
X153497982Y-109200401D01*
X153500000Y-109200000D01*
X154000000Y-109200000D01*
X154002017Y-109200401D01*
G37*
G36*
X155502017Y-109200401D02*
G01*
X155562045Y-109207365D01*
X155582554Y-109216421D01*
X155605238Y-109220933D01*
X155629522Y-109237159D01*
X155655167Y-109248483D01*
X155672682Y-109265998D01*
X155694454Y-109280546D01*
X155709001Y-109302317D01*
X155726516Y-109319832D01*
X155737838Y-109345474D01*
X155754067Y-109369762D01*
X155758579Y-109392447D01*
X155767634Y-109412954D01*
X155774596Y-109472970D01*
X155775000Y-109475000D01*
X155775000Y-109925000D01*
X155774596Y-109927029D01*
X155767634Y-109987045D01*
X155758579Y-110007550D01*
X155754067Y-110030238D01*
X155737837Y-110054527D01*
X155726516Y-110080167D01*
X155709003Y-110097679D01*
X155694454Y-110119454D01*
X155672679Y-110134003D01*
X155655167Y-110151516D01*
X155629527Y-110162837D01*
X155605238Y-110179067D01*
X155582550Y-110183579D01*
X155562045Y-110192634D01*
X155502031Y-110199595D01*
X155500000Y-110200000D01*
X155000000Y-110200000D01*
X154997971Y-110199596D01*
X154937954Y-110192634D01*
X154917447Y-110183579D01*
X154894762Y-110179067D01*
X154870474Y-110162838D01*
X154844832Y-110151516D01*
X154827317Y-110134001D01*
X154805546Y-110119454D01*
X154790998Y-110097682D01*
X154773483Y-110080167D01*
X154762159Y-110054522D01*
X154745933Y-110030238D01*
X154741421Y-110007554D01*
X154732365Y-109987045D01*
X154725401Y-109927019D01*
X154725000Y-109925000D01*
X154725000Y-109475000D01*
X154725401Y-109472983D01*
X154732365Y-109412954D01*
X154741421Y-109392443D01*
X154745933Y-109369762D01*
X154762158Y-109345479D01*
X154773483Y-109319832D01*
X154791000Y-109302314D01*
X154805546Y-109280546D01*
X154827314Y-109266000D01*
X154844832Y-109248483D01*
X154870479Y-109237158D01*
X154894762Y-109220933D01*
X154917443Y-109216421D01*
X154937954Y-109207365D01*
X154997982Y-109200401D01*
X155000000Y-109200000D01*
X155500000Y-109200000D01*
X155502017Y-109200401D01*
G37*
G36*
X157002017Y-109200401D02*
G01*
X157062045Y-109207365D01*
X157082554Y-109216421D01*
X157105238Y-109220933D01*
X157129522Y-109237159D01*
X157155167Y-109248483D01*
X157172682Y-109265998D01*
X157194454Y-109280546D01*
X157209001Y-109302317D01*
X157226516Y-109319832D01*
X157237838Y-109345474D01*
X157254067Y-109369762D01*
X157258579Y-109392447D01*
X157267634Y-109412954D01*
X157274596Y-109472970D01*
X157275000Y-109475000D01*
X157275000Y-109925000D01*
X157274596Y-109927029D01*
X157267634Y-109987045D01*
X157258579Y-110007550D01*
X157254067Y-110030238D01*
X157237837Y-110054527D01*
X157226516Y-110080167D01*
X157209003Y-110097679D01*
X157194454Y-110119454D01*
X157172679Y-110134003D01*
X157155167Y-110151516D01*
X157129527Y-110162837D01*
X157105238Y-110179067D01*
X157082550Y-110183579D01*
X157062045Y-110192634D01*
X157002031Y-110199595D01*
X157000000Y-110200000D01*
X156500000Y-110200000D01*
X156497971Y-110199596D01*
X156437954Y-110192634D01*
X156417447Y-110183579D01*
X156394762Y-110179067D01*
X156370474Y-110162838D01*
X156344832Y-110151516D01*
X156327317Y-110134001D01*
X156305546Y-110119454D01*
X156290998Y-110097682D01*
X156273483Y-110080167D01*
X156262159Y-110054522D01*
X156245933Y-110030238D01*
X156241421Y-110007554D01*
X156232365Y-109987045D01*
X156225401Y-109927019D01*
X156225000Y-109925000D01*
X156225000Y-109475000D01*
X156225401Y-109472983D01*
X156232365Y-109412954D01*
X156241421Y-109392443D01*
X156245933Y-109369762D01*
X156262158Y-109345479D01*
X156273483Y-109319832D01*
X156291000Y-109302314D01*
X156305546Y-109280546D01*
X156327314Y-109266000D01*
X156344832Y-109248483D01*
X156370479Y-109237158D01*
X156394762Y-109220933D01*
X156417443Y-109216421D01*
X156437954Y-109207365D01*
X156497982Y-109200401D01*
X156500000Y-109200000D01*
X157000000Y-109200000D01*
X157002017Y-109200401D01*
G37*
G36*
X135631185Y-108657969D02*
G01*
X135635342Y-108659804D01*
X135639537Y-108660357D01*
X135692014Y-108684827D01*
X135732041Y-108702501D01*
X135733898Y-108704358D01*
X135734352Y-108704570D01*
X135807929Y-108778147D01*
X135808140Y-108778600D01*
X135809999Y-108780459D01*
X135827681Y-108820507D01*
X135852142Y-108872962D01*
X135852693Y-108877154D01*
X135854531Y-108881315D01*
X135862500Y-108950000D01*
X135862500Y-109850000D01*
X135854531Y-109918685D01*
X135852693Y-109922846D01*
X135852142Y-109927037D01*
X135827690Y-109979474D01*
X135809999Y-110019541D01*
X135808139Y-110021400D01*
X135807929Y-110021852D01*
X135734352Y-110095429D01*
X135733900Y-110095639D01*
X135732041Y-110097499D01*
X135691974Y-110115190D01*
X135639537Y-110139642D01*
X135635346Y-110140193D01*
X135631185Y-110142031D01*
X135562500Y-110150000D01*
X135037500Y-110150000D01*
X134968815Y-110142031D01*
X134964654Y-110140193D01*
X134960462Y-110139642D01*
X134908007Y-110115181D01*
X134867959Y-110097499D01*
X134866100Y-110095640D01*
X134865647Y-110095429D01*
X134792070Y-110021852D01*
X134791858Y-110021398D01*
X134790001Y-110019541D01*
X134772327Y-109979514D01*
X134747857Y-109927037D01*
X134747304Y-109922842D01*
X134745469Y-109918685D01*
X134737500Y-109850000D01*
X134737500Y-108950000D01*
X134745469Y-108881315D01*
X134747304Y-108877157D01*
X134747857Y-108872962D01*
X134772336Y-108820466D01*
X134790001Y-108780459D01*
X134791857Y-108778602D01*
X134792070Y-108778147D01*
X134865647Y-108704570D01*
X134866102Y-108704357D01*
X134867959Y-108702501D01*
X134907966Y-108684836D01*
X134960462Y-108660357D01*
X134964657Y-108659804D01*
X134968815Y-108657969D01*
X135037500Y-108650000D01*
X135562500Y-108650000D01*
X135631185Y-108657969D01*
G37*
G36*
X137456185Y-108657969D02*
G01*
X137460342Y-108659804D01*
X137464537Y-108660357D01*
X137517014Y-108684827D01*
X137557041Y-108702501D01*
X137558898Y-108704358D01*
X137559352Y-108704570D01*
X137632929Y-108778147D01*
X137633140Y-108778600D01*
X137634999Y-108780459D01*
X137652681Y-108820507D01*
X137677142Y-108872962D01*
X137677693Y-108877154D01*
X137679531Y-108881315D01*
X137687500Y-108950000D01*
X137687500Y-109850000D01*
X137679531Y-109918685D01*
X137677693Y-109922846D01*
X137677142Y-109927037D01*
X137652690Y-109979474D01*
X137634999Y-110019541D01*
X137633139Y-110021400D01*
X137632929Y-110021852D01*
X137559352Y-110095429D01*
X137558900Y-110095639D01*
X137557041Y-110097499D01*
X137516974Y-110115190D01*
X137464537Y-110139642D01*
X137460346Y-110140193D01*
X137456185Y-110142031D01*
X137387500Y-110150000D01*
X136862500Y-110150000D01*
X136793815Y-110142031D01*
X136789654Y-110140193D01*
X136785462Y-110139642D01*
X136733007Y-110115181D01*
X136692959Y-110097499D01*
X136691100Y-110095640D01*
X136690647Y-110095429D01*
X136617070Y-110021852D01*
X136616858Y-110021398D01*
X136615001Y-110019541D01*
X136597327Y-109979514D01*
X136572857Y-109927037D01*
X136572304Y-109922842D01*
X136570469Y-109918685D01*
X136562500Y-109850000D01*
X136562500Y-108950000D01*
X136570469Y-108881315D01*
X136572304Y-108877157D01*
X136572857Y-108872962D01*
X136597336Y-108820466D01*
X136615001Y-108780459D01*
X136616857Y-108778602D01*
X136617070Y-108778147D01*
X136690647Y-108704570D01*
X136691102Y-108704357D01*
X136692959Y-108702501D01*
X136732966Y-108684836D01*
X136785462Y-108660357D01*
X136789657Y-108659804D01*
X136793815Y-108657969D01*
X136862500Y-108650000D01*
X137387500Y-108650000D01*
X137456185Y-108657969D01*
G37*
G36*
X139043685Y-108657969D02*
G01*
X139047842Y-108659804D01*
X139052037Y-108660357D01*
X139104514Y-108684827D01*
X139144541Y-108702501D01*
X139146398Y-108704358D01*
X139146852Y-108704570D01*
X139220429Y-108778147D01*
X139220640Y-108778600D01*
X139222499Y-108780459D01*
X139240181Y-108820507D01*
X139264642Y-108872962D01*
X139265193Y-108877154D01*
X139267031Y-108881315D01*
X139275000Y-108950000D01*
X139275000Y-109850000D01*
X139267031Y-109918685D01*
X139265193Y-109922846D01*
X139264642Y-109927037D01*
X139240190Y-109979474D01*
X139222499Y-110019541D01*
X139220639Y-110021400D01*
X139220429Y-110021852D01*
X139146852Y-110095429D01*
X139146400Y-110095639D01*
X139144541Y-110097499D01*
X139104474Y-110115190D01*
X139052037Y-110139642D01*
X139047846Y-110140193D01*
X139043685Y-110142031D01*
X138975000Y-110150000D01*
X138450000Y-110150000D01*
X138381315Y-110142031D01*
X138377154Y-110140193D01*
X138372962Y-110139642D01*
X138320507Y-110115181D01*
X138280459Y-110097499D01*
X138278600Y-110095640D01*
X138278147Y-110095429D01*
X138204570Y-110021852D01*
X138204358Y-110021398D01*
X138202501Y-110019541D01*
X138184827Y-109979514D01*
X138160357Y-109927037D01*
X138159804Y-109922842D01*
X138157969Y-109918685D01*
X138150000Y-109850000D01*
X138150000Y-108950000D01*
X138157969Y-108881315D01*
X138159804Y-108877157D01*
X138160357Y-108872962D01*
X138184836Y-108820466D01*
X138202501Y-108780459D01*
X138204357Y-108778602D01*
X138204570Y-108778147D01*
X138278147Y-108704570D01*
X138278602Y-108704357D01*
X138280459Y-108702501D01*
X138320466Y-108684836D01*
X138372962Y-108660357D01*
X138377157Y-108659804D01*
X138381315Y-108657969D01*
X138450000Y-108650000D01*
X138975000Y-108650000D01*
X139043685Y-108657969D01*
G37*
G36*
X140868685Y-108657969D02*
G01*
X140872842Y-108659804D01*
X140877037Y-108660357D01*
X140929514Y-108684827D01*
X140969541Y-108702501D01*
X140971398Y-108704358D01*
X140971852Y-108704570D01*
X141045429Y-108778147D01*
X141045640Y-108778600D01*
X141047499Y-108780459D01*
X141065181Y-108820507D01*
X141089642Y-108872962D01*
X141090193Y-108877154D01*
X141092031Y-108881315D01*
X141100000Y-108950000D01*
X141100000Y-109850000D01*
X141092031Y-109918685D01*
X141090193Y-109922846D01*
X141089642Y-109927037D01*
X141065190Y-109979474D01*
X141047499Y-110019541D01*
X141045639Y-110021400D01*
X141045429Y-110021852D01*
X140971852Y-110095429D01*
X140971400Y-110095639D01*
X140969541Y-110097499D01*
X140929474Y-110115190D01*
X140877037Y-110139642D01*
X140872846Y-110140193D01*
X140868685Y-110142031D01*
X140800000Y-110150000D01*
X140275000Y-110150000D01*
X140206315Y-110142031D01*
X140202154Y-110140193D01*
X140197962Y-110139642D01*
X140145507Y-110115181D01*
X140105459Y-110097499D01*
X140103600Y-110095640D01*
X140103147Y-110095429D01*
X140029570Y-110021852D01*
X140029358Y-110021398D01*
X140027501Y-110019541D01*
X140009827Y-109979514D01*
X139985357Y-109927037D01*
X139984804Y-109922842D01*
X139982969Y-109918685D01*
X139975000Y-109850000D01*
X139975000Y-108950000D01*
X139982969Y-108881315D01*
X139984804Y-108877157D01*
X139985357Y-108872962D01*
X140009836Y-108820466D01*
X140027501Y-108780459D01*
X140029357Y-108778602D01*
X140029570Y-108778147D01*
X140103147Y-108704570D01*
X140103602Y-108704357D01*
X140105459Y-108702501D01*
X140145466Y-108684836D01*
X140197962Y-108660357D01*
X140202157Y-108659804D01*
X140206315Y-108657969D01*
X140275000Y-108650000D01*
X140800000Y-108650000D01*
X140868685Y-108657969D01*
G37*
G36*
X142431185Y-108657969D02*
G01*
X142435342Y-108659804D01*
X142439537Y-108660357D01*
X142492014Y-108684827D01*
X142532041Y-108702501D01*
X142533898Y-108704358D01*
X142534352Y-108704570D01*
X142607929Y-108778147D01*
X142608140Y-108778600D01*
X142609999Y-108780459D01*
X142627681Y-108820507D01*
X142652142Y-108872962D01*
X142652693Y-108877154D01*
X142654531Y-108881315D01*
X142662500Y-108950000D01*
X142662500Y-109850000D01*
X142654531Y-109918685D01*
X142652693Y-109922846D01*
X142652142Y-109927037D01*
X142627690Y-109979474D01*
X142609999Y-110019541D01*
X142608139Y-110021400D01*
X142607929Y-110021852D01*
X142534352Y-110095429D01*
X142533900Y-110095639D01*
X142532041Y-110097499D01*
X142491974Y-110115190D01*
X142439537Y-110139642D01*
X142435346Y-110140193D01*
X142431185Y-110142031D01*
X142362500Y-110150000D01*
X141837500Y-110150000D01*
X141768815Y-110142031D01*
X141764654Y-110140193D01*
X141760462Y-110139642D01*
X141708007Y-110115181D01*
X141667959Y-110097499D01*
X141666100Y-110095640D01*
X141665647Y-110095429D01*
X141592070Y-110021852D01*
X141591858Y-110021398D01*
X141590001Y-110019541D01*
X141572327Y-109979514D01*
X141547857Y-109927037D01*
X141547304Y-109922842D01*
X141545469Y-109918685D01*
X141537500Y-109850000D01*
X141537500Y-108950000D01*
X141545469Y-108881315D01*
X141547304Y-108877157D01*
X141547857Y-108872962D01*
X141572336Y-108820466D01*
X141590001Y-108780459D01*
X141591857Y-108778602D01*
X141592070Y-108778147D01*
X141665647Y-108704570D01*
X141666102Y-108704357D01*
X141667959Y-108702501D01*
X141707966Y-108684836D01*
X141760462Y-108660357D01*
X141764657Y-108659804D01*
X141768815Y-108657969D01*
X141837500Y-108650000D01*
X142362500Y-108650000D01*
X142431185Y-108657969D01*
G37*
G36*
X144256185Y-108657969D02*
G01*
X144260342Y-108659804D01*
X144264537Y-108660357D01*
X144317014Y-108684827D01*
X144357041Y-108702501D01*
X144358898Y-108704358D01*
X144359352Y-108704570D01*
X144432929Y-108778147D01*
X144433140Y-108778600D01*
X144434999Y-108780459D01*
X144452681Y-108820507D01*
X144477142Y-108872962D01*
X144477693Y-108877154D01*
X144479531Y-108881315D01*
X144487500Y-108950000D01*
X144487500Y-109850000D01*
X144479531Y-109918685D01*
X144477693Y-109922846D01*
X144477142Y-109927037D01*
X144452690Y-109979474D01*
X144434999Y-110019541D01*
X144433139Y-110021400D01*
X144432929Y-110021852D01*
X144359352Y-110095429D01*
X144358900Y-110095639D01*
X144357041Y-110097499D01*
X144316974Y-110115190D01*
X144264537Y-110139642D01*
X144260346Y-110140193D01*
X144256185Y-110142031D01*
X144187500Y-110150000D01*
X143662500Y-110150000D01*
X143593815Y-110142031D01*
X143589654Y-110140193D01*
X143585462Y-110139642D01*
X143533007Y-110115181D01*
X143492959Y-110097499D01*
X143491100Y-110095640D01*
X143490647Y-110095429D01*
X143417070Y-110021852D01*
X143416858Y-110021398D01*
X143415001Y-110019541D01*
X143397327Y-109979514D01*
X143372857Y-109927037D01*
X143372304Y-109922842D01*
X143370469Y-109918685D01*
X143362500Y-109850000D01*
X143362500Y-108950000D01*
X143370469Y-108881315D01*
X143372304Y-108877157D01*
X143372857Y-108872962D01*
X143397336Y-108820466D01*
X143415001Y-108780459D01*
X143416857Y-108778602D01*
X143417070Y-108778147D01*
X143490647Y-108704570D01*
X143491102Y-108704357D01*
X143492959Y-108702501D01*
X143532966Y-108684836D01*
X143585462Y-108660357D01*
X143589657Y-108659804D01*
X143593815Y-108657969D01*
X143662500Y-108650000D01*
X144187500Y-108650000D01*
X144256185Y-108657969D01*
G37*
G36*
X145856185Y-108657969D02*
G01*
X145860342Y-108659804D01*
X145864537Y-108660357D01*
X145917014Y-108684827D01*
X145957041Y-108702501D01*
X145958898Y-108704358D01*
X145959352Y-108704570D01*
X146032929Y-108778147D01*
X146033140Y-108778600D01*
X146034999Y-108780459D01*
X146052681Y-108820507D01*
X146077142Y-108872962D01*
X146077693Y-108877154D01*
X146079531Y-108881315D01*
X146087500Y-108950000D01*
X146087500Y-109850000D01*
X146079531Y-109918685D01*
X146077693Y-109922846D01*
X146077142Y-109927037D01*
X146052690Y-109979474D01*
X146034999Y-110019541D01*
X146033139Y-110021400D01*
X146032929Y-110021852D01*
X145959352Y-110095429D01*
X145958900Y-110095639D01*
X145957041Y-110097499D01*
X145916974Y-110115190D01*
X145864537Y-110139642D01*
X145860346Y-110140193D01*
X145856185Y-110142031D01*
X145787500Y-110150000D01*
X145262500Y-110150000D01*
X145193815Y-110142031D01*
X145189654Y-110140193D01*
X145185462Y-110139642D01*
X145133007Y-110115181D01*
X145092959Y-110097499D01*
X145091100Y-110095640D01*
X145090647Y-110095429D01*
X145017070Y-110021852D01*
X145016858Y-110021398D01*
X145015001Y-110019541D01*
X144997327Y-109979514D01*
X144972857Y-109927037D01*
X144972304Y-109922842D01*
X144970469Y-109918685D01*
X144962500Y-109850000D01*
X144962500Y-108950000D01*
X144970469Y-108881315D01*
X144972304Y-108877157D01*
X144972857Y-108872962D01*
X144997336Y-108820466D01*
X145015001Y-108780459D01*
X145016857Y-108778602D01*
X145017070Y-108778147D01*
X145090647Y-108704570D01*
X145091102Y-108704357D01*
X145092959Y-108702501D01*
X145132966Y-108684836D01*
X145185462Y-108660357D01*
X145189657Y-108659804D01*
X145193815Y-108657969D01*
X145262500Y-108650000D01*
X145787500Y-108650000D01*
X145856185Y-108657969D01*
G37*
G36*
X147681185Y-108657969D02*
G01*
X147685342Y-108659804D01*
X147689537Y-108660357D01*
X147742014Y-108684827D01*
X147782041Y-108702501D01*
X147783898Y-108704358D01*
X147784352Y-108704570D01*
X147857929Y-108778147D01*
X147858140Y-108778600D01*
X147859999Y-108780459D01*
X147877681Y-108820507D01*
X147902142Y-108872962D01*
X147902693Y-108877154D01*
X147904531Y-108881315D01*
X147912500Y-108950000D01*
X147912500Y-109850000D01*
X147904531Y-109918685D01*
X147902693Y-109922846D01*
X147902142Y-109927037D01*
X147877690Y-109979474D01*
X147859999Y-110019541D01*
X147858139Y-110021400D01*
X147857929Y-110021852D01*
X147784352Y-110095429D01*
X147783900Y-110095639D01*
X147782041Y-110097499D01*
X147741974Y-110115190D01*
X147689537Y-110139642D01*
X147685346Y-110140193D01*
X147681185Y-110142031D01*
X147612500Y-110150000D01*
X147087500Y-110150000D01*
X147018815Y-110142031D01*
X147014654Y-110140193D01*
X147010462Y-110139642D01*
X146958007Y-110115181D01*
X146917959Y-110097499D01*
X146916100Y-110095640D01*
X146915647Y-110095429D01*
X146842070Y-110021852D01*
X146841858Y-110021398D01*
X146840001Y-110019541D01*
X146822327Y-109979514D01*
X146797857Y-109927037D01*
X146797304Y-109922842D01*
X146795469Y-109918685D01*
X146787500Y-109850000D01*
X146787500Y-108950000D01*
X146795469Y-108881315D01*
X146797304Y-108877157D01*
X146797857Y-108872962D01*
X146822336Y-108820466D01*
X146840001Y-108780459D01*
X146841857Y-108778602D01*
X146842070Y-108778147D01*
X146915647Y-108704570D01*
X146916102Y-108704357D01*
X146917959Y-108702501D01*
X146957966Y-108684836D01*
X147010462Y-108660357D01*
X147014657Y-108659804D01*
X147018815Y-108657969D01*
X147087500Y-108650000D01*
X147612500Y-108650000D01*
X147681185Y-108657969D01*
G37*
G36*
X149256185Y-108657969D02*
G01*
X149260342Y-108659804D01*
X149264537Y-108660357D01*
X149317014Y-108684827D01*
X149357041Y-108702501D01*
X149358898Y-108704358D01*
X149359352Y-108704570D01*
X149432929Y-108778147D01*
X149433140Y-108778600D01*
X149434999Y-108780459D01*
X149452681Y-108820507D01*
X149477142Y-108872962D01*
X149477693Y-108877154D01*
X149479531Y-108881315D01*
X149487500Y-108950000D01*
X149487500Y-109850000D01*
X149479531Y-109918685D01*
X149477693Y-109922846D01*
X149477142Y-109927037D01*
X149452690Y-109979474D01*
X149434999Y-110019541D01*
X149433139Y-110021400D01*
X149432929Y-110021852D01*
X149359352Y-110095429D01*
X149358900Y-110095639D01*
X149357041Y-110097499D01*
X149316974Y-110115190D01*
X149264537Y-110139642D01*
X149260346Y-110140193D01*
X149256185Y-110142031D01*
X149187500Y-110150000D01*
X148662500Y-110150000D01*
X148593815Y-110142031D01*
X148589654Y-110140193D01*
X148585462Y-110139642D01*
X148533007Y-110115181D01*
X148492959Y-110097499D01*
X148491100Y-110095640D01*
X148490647Y-110095429D01*
X148417070Y-110021852D01*
X148416858Y-110021398D01*
X148415001Y-110019541D01*
X148397327Y-109979514D01*
X148372857Y-109927037D01*
X148372304Y-109922842D01*
X148370469Y-109918685D01*
X148362500Y-109850000D01*
X148362500Y-108950000D01*
X148370469Y-108881315D01*
X148372304Y-108877157D01*
X148372857Y-108872962D01*
X148397336Y-108820466D01*
X148415001Y-108780459D01*
X148416857Y-108778602D01*
X148417070Y-108778147D01*
X148490647Y-108704570D01*
X148491102Y-108704357D01*
X148492959Y-108702501D01*
X148532966Y-108684836D01*
X148585462Y-108660357D01*
X148589657Y-108659804D01*
X148593815Y-108657969D01*
X148662500Y-108650000D01*
X149187500Y-108650000D01*
X149256185Y-108657969D01*
G37*
G36*
X151081185Y-108657969D02*
G01*
X151085342Y-108659804D01*
X151089537Y-108660357D01*
X151142014Y-108684827D01*
X151182041Y-108702501D01*
X151183898Y-108704358D01*
X151184352Y-108704570D01*
X151257929Y-108778147D01*
X151258140Y-108778600D01*
X151259999Y-108780459D01*
X151277681Y-108820507D01*
X151302142Y-108872962D01*
X151302693Y-108877154D01*
X151304531Y-108881315D01*
X151312500Y-108950000D01*
X151312500Y-109850000D01*
X151304531Y-109918685D01*
X151302693Y-109922846D01*
X151302142Y-109927037D01*
X151277690Y-109979474D01*
X151259999Y-110019541D01*
X151258139Y-110021400D01*
X151257929Y-110021852D01*
X151184352Y-110095429D01*
X151183900Y-110095639D01*
X151182041Y-110097499D01*
X151141974Y-110115190D01*
X151089537Y-110139642D01*
X151085346Y-110140193D01*
X151081185Y-110142031D01*
X151012500Y-110150000D01*
X150487500Y-110150000D01*
X150418815Y-110142031D01*
X150414654Y-110140193D01*
X150410462Y-110139642D01*
X150358007Y-110115181D01*
X150317959Y-110097499D01*
X150316100Y-110095640D01*
X150315647Y-110095429D01*
X150242070Y-110021852D01*
X150241858Y-110021398D01*
X150240001Y-110019541D01*
X150222327Y-109979514D01*
X150197857Y-109927037D01*
X150197304Y-109922842D01*
X150195469Y-109918685D01*
X150187500Y-109850000D01*
X150187500Y-108950000D01*
X150195469Y-108881315D01*
X150197304Y-108877157D01*
X150197857Y-108872962D01*
X150222336Y-108820466D01*
X150240001Y-108780459D01*
X150241857Y-108778602D01*
X150242070Y-108778147D01*
X150315647Y-108704570D01*
X150316102Y-108704357D01*
X150317959Y-108702501D01*
X150357966Y-108684836D01*
X150410462Y-108660357D01*
X150414657Y-108659804D01*
X150418815Y-108657969D01*
X150487500Y-108650000D01*
X151012500Y-108650000D01*
X151081185Y-108657969D01*
G37*
G36*
X158769134Y-107653806D02*
G01*
X158785355Y-107664645D01*
X158796194Y-107680866D01*
X158800000Y-107700000D01*
X158800000Y-109500000D01*
X158796194Y-109519134D01*
X158785355Y-109535355D01*
X158769134Y-109546194D01*
X158750000Y-109550000D01*
X157750000Y-109550000D01*
X157730866Y-109546194D01*
X157714645Y-109535355D01*
X157703806Y-109519134D01*
X157700000Y-109500000D01*
X157700000Y-107700000D01*
X157703806Y-107680866D01*
X157714645Y-107664645D01*
X157730866Y-107653806D01*
X157750000Y-107650000D01*
X158750000Y-107650000D01*
X158769134Y-107653806D01*
G37*
G36*
X161269134Y-107653806D02*
G01*
X161285355Y-107664645D01*
X161296194Y-107680866D01*
X161300000Y-107700000D01*
X161300000Y-109500000D01*
X161296194Y-109519134D01*
X161285355Y-109535355D01*
X161269134Y-109546194D01*
X161250000Y-109550000D01*
X160250000Y-109550000D01*
X160230866Y-109546194D01*
X160214645Y-109535355D01*
X160203806Y-109519134D01*
X160200000Y-109500000D01*
X160200000Y-107700000D01*
X160203806Y-107680866D01*
X160214645Y-107664645D01*
X160230866Y-107653806D01*
X160250000Y-107650000D01*
X161250000Y-107650000D01*
X161269134Y-107653806D01*
G37*
G36*
X162502017Y-108550401D02*
G01*
X162562045Y-108557365D01*
X162582554Y-108566421D01*
X162605238Y-108570933D01*
X162629522Y-108587159D01*
X162655167Y-108598483D01*
X162672682Y-108615998D01*
X162694454Y-108630546D01*
X162709001Y-108652317D01*
X162726516Y-108669832D01*
X162737838Y-108695474D01*
X162754067Y-108719762D01*
X162758579Y-108742447D01*
X162767634Y-108762954D01*
X162774596Y-108822970D01*
X162775000Y-108825000D01*
X162775000Y-109275000D01*
X162774596Y-109277029D01*
X162767634Y-109337045D01*
X162758579Y-109357550D01*
X162754067Y-109380238D01*
X162737837Y-109404527D01*
X162726516Y-109430167D01*
X162709003Y-109447679D01*
X162694454Y-109469454D01*
X162672679Y-109484003D01*
X162655167Y-109501516D01*
X162629527Y-109512837D01*
X162605238Y-109529067D01*
X162582550Y-109533579D01*
X162562045Y-109542634D01*
X162502031Y-109549595D01*
X162500000Y-109550000D01*
X162000000Y-109550000D01*
X161997971Y-109549596D01*
X161937954Y-109542634D01*
X161917447Y-109533579D01*
X161894762Y-109529067D01*
X161870474Y-109512838D01*
X161844832Y-109501516D01*
X161827317Y-109484001D01*
X161805546Y-109469454D01*
X161790998Y-109447682D01*
X161773483Y-109430167D01*
X161762159Y-109404522D01*
X161745933Y-109380238D01*
X161741421Y-109357554D01*
X161732365Y-109337045D01*
X161725401Y-109277019D01*
X161725000Y-109275000D01*
X161725000Y-108825000D01*
X161725401Y-108822983D01*
X161732365Y-108762954D01*
X161741421Y-108742443D01*
X161745933Y-108719762D01*
X161762158Y-108695479D01*
X161773483Y-108669832D01*
X161791000Y-108652314D01*
X161805546Y-108630546D01*
X161827314Y-108616000D01*
X161844832Y-108598483D01*
X161870479Y-108587158D01*
X161894762Y-108570933D01*
X161917443Y-108566421D01*
X161937954Y-108557365D01*
X161997982Y-108550401D01*
X162000000Y-108550000D01*
X162500000Y-108550000D01*
X162502017Y-108550401D01*
G37*
G36*
X154002017Y-107650401D02*
G01*
X154062045Y-107657365D01*
X154082554Y-107666421D01*
X154105238Y-107670933D01*
X154129522Y-107687159D01*
X154155167Y-107698483D01*
X154172682Y-107715998D01*
X154194454Y-107730546D01*
X154209001Y-107752317D01*
X154226516Y-107769832D01*
X154237838Y-107795474D01*
X154254067Y-107819762D01*
X154258579Y-107842447D01*
X154267634Y-107862954D01*
X154274596Y-107922970D01*
X154275000Y-107925000D01*
X154275000Y-108375000D01*
X154274596Y-108377029D01*
X154267634Y-108437045D01*
X154258579Y-108457550D01*
X154254067Y-108480238D01*
X154237837Y-108504527D01*
X154226516Y-108530167D01*
X154209003Y-108547679D01*
X154194454Y-108569454D01*
X154172679Y-108584003D01*
X154155167Y-108601516D01*
X154129527Y-108612837D01*
X154105238Y-108629067D01*
X154082550Y-108633579D01*
X154062045Y-108642634D01*
X154002031Y-108649595D01*
X154000000Y-108650000D01*
X153500000Y-108650000D01*
X153497971Y-108649596D01*
X153437954Y-108642634D01*
X153417447Y-108633579D01*
X153394762Y-108629067D01*
X153370474Y-108612838D01*
X153344832Y-108601516D01*
X153327317Y-108584001D01*
X153305546Y-108569454D01*
X153290998Y-108547682D01*
X153273483Y-108530167D01*
X153262159Y-108504522D01*
X153245933Y-108480238D01*
X153241421Y-108457554D01*
X153232365Y-108437045D01*
X153225401Y-108377019D01*
X153225000Y-108375000D01*
X153225000Y-107925000D01*
X153225401Y-107922983D01*
X153232365Y-107862954D01*
X153241421Y-107842443D01*
X153245933Y-107819762D01*
X153262158Y-107795479D01*
X153273483Y-107769832D01*
X153291000Y-107752314D01*
X153305546Y-107730546D01*
X153327314Y-107716000D01*
X153344832Y-107698483D01*
X153370479Y-107687158D01*
X153394762Y-107670933D01*
X153417443Y-107666421D01*
X153437954Y-107657365D01*
X153497982Y-107650401D01*
X153500000Y-107650000D01*
X154000000Y-107650000D01*
X154002017Y-107650401D01*
G37*
G36*
X155502017Y-107650401D02*
G01*
X155562045Y-107657365D01*
X155582554Y-107666421D01*
X155605238Y-107670933D01*
X155629522Y-107687159D01*
X155655167Y-107698483D01*
X155672682Y-107715998D01*
X155694454Y-107730546D01*
X155709001Y-107752317D01*
X155726516Y-107769832D01*
X155737838Y-107795474D01*
X155754067Y-107819762D01*
X155758579Y-107842447D01*
X155767634Y-107862954D01*
X155774596Y-107922970D01*
X155775000Y-107925000D01*
X155775000Y-108375000D01*
X155774596Y-108377029D01*
X155767634Y-108437045D01*
X155758579Y-108457550D01*
X155754067Y-108480238D01*
X155737837Y-108504527D01*
X155726516Y-108530167D01*
X155709003Y-108547679D01*
X155694454Y-108569454D01*
X155672679Y-108584003D01*
X155655167Y-108601516D01*
X155629527Y-108612837D01*
X155605238Y-108629067D01*
X155582550Y-108633579D01*
X155562045Y-108642634D01*
X155502031Y-108649595D01*
X155500000Y-108650000D01*
X155000000Y-108650000D01*
X154997971Y-108649596D01*
X154937954Y-108642634D01*
X154917447Y-108633579D01*
X154894762Y-108629067D01*
X154870474Y-108612838D01*
X154844832Y-108601516D01*
X154827317Y-108584001D01*
X154805546Y-108569454D01*
X154790998Y-108547682D01*
X154773483Y-108530167D01*
X154762159Y-108504522D01*
X154745933Y-108480238D01*
X154741421Y-108457554D01*
X154732365Y-108437045D01*
X154725401Y-108377019D01*
X154725000Y-108375000D01*
X154725000Y-107925000D01*
X154725401Y-107922983D01*
X154732365Y-107862954D01*
X154741421Y-107842443D01*
X154745933Y-107819762D01*
X154762158Y-107795479D01*
X154773483Y-107769832D01*
X154791000Y-107752314D01*
X154805546Y-107730546D01*
X154827314Y-107716000D01*
X154844832Y-107698483D01*
X154870479Y-107687158D01*
X154894762Y-107670933D01*
X154917443Y-107666421D01*
X154937954Y-107657365D01*
X154997982Y-107650401D01*
X155000000Y-107650000D01*
X155500000Y-107650000D01*
X155502017Y-107650401D01*
G37*
G36*
X157002017Y-107650401D02*
G01*
X157062045Y-107657365D01*
X157082554Y-107666421D01*
X157105238Y-107670933D01*
X157129522Y-107687159D01*
X157155167Y-107698483D01*
X157172682Y-107715998D01*
X157194454Y-107730546D01*
X157209001Y-107752317D01*
X157226516Y-107769832D01*
X157237838Y-107795474D01*
X157254067Y-107819762D01*
X157258579Y-107842447D01*
X157267634Y-107862954D01*
X157274596Y-107922970D01*
X157275000Y-107925000D01*
X157275000Y-108375000D01*
X157274596Y-108377029D01*
X157267634Y-108437045D01*
X157258579Y-108457550D01*
X157254067Y-108480238D01*
X157237837Y-108504527D01*
X157226516Y-108530167D01*
X157209003Y-108547679D01*
X157194454Y-108569454D01*
X157172679Y-108584003D01*
X157155167Y-108601516D01*
X157129527Y-108612837D01*
X157105238Y-108629067D01*
X157082550Y-108633579D01*
X157062045Y-108642634D01*
X157002031Y-108649595D01*
X157000000Y-108650000D01*
X156500000Y-108650000D01*
X156497971Y-108649596D01*
X156437954Y-108642634D01*
X156417447Y-108633579D01*
X156394762Y-108629067D01*
X156370474Y-108612838D01*
X156344832Y-108601516D01*
X156327317Y-108584001D01*
X156305546Y-108569454D01*
X156290998Y-108547682D01*
X156273483Y-108530167D01*
X156262159Y-108504522D01*
X156245933Y-108480238D01*
X156241421Y-108457554D01*
X156232365Y-108437045D01*
X156225401Y-108377019D01*
X156225000Y-108375000D01*
X156225000Y-107925000D01*
X156225401Y-107922983D01*
X156232365Y-107862954D01*
X156241421Y-107842443D01*
X156245933Y-107819762D01*
X156262158Y-107795479D01*
X156273483Y-107769832D01*
X156291000Y-107752314D01*
X156305546Y-107730546D01*
X156327314Y-107716000D01*
X156344832Y-107698483D01*
X156370479Y-107687158D01*
X156394762Y-107670933D01*
X156417443Y-107666421D01*
X156437954Y-107657365D01*
X156497982Y-107650401D01*
X156500000Y-107650000D01*
X157000000Y-107650000D01*
X157002017Y-107650401D01*
G37*
G36*
X162502017Y-107000401D02*
G01*
X162562045Y-107007365D01*
X162582554Y-107016421D01*
X162605238Y-107020933D01*
X162629522Y-107037159D01*
X162655167Y-107048483D01*
X162672682Y-107065998D01*
X162694454Y-107080546D01*
X162709001Y-107102317D01*
X162726516Y-107119832D01*
X162737838Y-107145474D01*
X162754067Y-107169762D01*
X162758579Y-107192447D01*
X162767634Y-107212954D01*
X162774596Y-107272970D01*
X162775000Y-107275000D01*
X162775000Y-107725000D01*
X162774596Y-107727029D01*
X162767634Y-107787045D01*
X162758579Y-107807550D01*
X162754067Y-107830238D01*
X162737837Y-107854527D01*
X162726516Y-107880167D01*
X162709003Y-107897679D01*
X162694454Y-107919454D01*
X162672679Y-107934003D01*
X162655167Y-107951516D01*
X162629527Y-107962837D01*
X162605238Y-107979067D01*
X162582550Y-107983579D01*
X162562045Y-107992634D01*
X162502031Y-107999595D01*
X162500000Y-108000000D01*
X162000000Y-108000000D01*
X161997971Y-107999596D01*
X161937954Y-107992634D01*
X161917447Y-107983579D01*
X161894762Y-107979067D01*
X161870474Y-107962838D01*
X161844832Y-107951516D01*
X161827317Y-107934001D01*
X161805546Y-107919454D01*
X161790998Y-107897682D01*
X161773483Y-107880167D01*
X161762159Y-107854522D01*
X161745933Y-107830238D01*
X161741421Y-107807554D01*
X161732365Y-107787045D01*
X161725401Y-107727019D01*
X161725000Y-107725000D01*
X161725000Y-107275000D01*
X161725401Y-107272983D01*
X161732365Y-107212954D01*
X161741421Y-107192443D01*
X161745933Y-107169762D01*
X161762158Y-107145479D01*
X161773483Y-107119832D01*
X161791000Y-107102314D01*
X161805546Y-107080546D01*
X161827314Y-107066000D01*
X161844832Y-107048483D01*
X161870479Y-107037158D01*
X161894762Y-107020933D01*
X161917443Y-107016421D01*
X161937954Y-107007365D01*
X161997982Y-107000401D01*
X162000000Y-107000000D01*
X162500000Y-107000000D01*
X162502017Y-107000401D01*
G37*
G36*
X156183633Y-106242006D02*
G01*
X156199854Y-106252845D01*
X156210693Y-106269066D01*
X156214499Y-106288200D01*
X156214499Y-106974000D01*
X156210693Y-106993134D01*
X156199854Y-107009355D01*
X156183633Y-107020194D01*
X156164499Y-107024000D01*
X155910499Y-107024000D01*
X155891365Y-107020194D01*
X155875144Y-107009355D01*
X155864305Y-106993134D01*
X155860499Y-106974000D01*
X155860499Y-106288200D01*
X155864305Y-106269066D01*
X155875144Y-106252845D01*
X155891365Y-106242006D01*
X155910499Y-106238200D01*
X156164499Y-106238200D01*
X156183633Y-106242006D01*
G37*
G36*
X156683635Y-106242006D02*
G01*
X156699856Y-106252845D01*
X156710695Y-106269066D01*
X156714501Y-106288200D01*
X156714501Y-106974000D01*
X156710695Y-106993134D01*
X156699856Y-107009355D01*
X156683635Y-107020194D01*
X156664501Y-107024000D01*
X156410501Y-107024000D01*
X156391367Y-107020194D01*
X156375146Y-107009355D01*
X156364307Y-106993134D01*
X156360501Y-106974000D01*
X156360501Y-106288200D01*
X156364307Y-106269066D01*
X156375146Y-106252845D01*
X156391367Y-106242006D01*
X156410501Y-106238200D01*
X156664501Y-106238200D01*
X156683635Y-106242006D01*
G37*
G36*
X157183634Y-106242006D02*
G01*
X157199855Y-106252845D01*
X157210694Y-106269066D01*
X157214500Y-106288200D01*
X157214500Y-106974000D01*
X157210694Y-106993134D01*
X157199855Y-107009355D01*
X157183634Y-107020194D01*
X157164500Y-107024000D01*
X156910500Y-107024000D01*
X156891366Y-107020194D01*
X156875145Y-107009355D01*
X156864306Y-106993134D01*
X156860500Y-106974000D01*
X156860500Y-106288200D01*
X156864306Y-106269066D01*
X156875145Y-106252845D01*
X156891366Y-106242006D01*
X156910500Y-106238200D01*
X157164500Y-106238200D01*
X157183634Y-106242006D01*
G37*
G36*
X157683633Y-106242006D02*
G01*
X157699854Y-106252845D01*
X157710693Y-106269066D01*
X157714499Y-106288200D01*
X157714499Y-106974000D01*
X157710693Y-106993134D01*
X157699854Y-107009355D01*
X157683633Y-107020194D01*
X157664499Y-107024000D01*
X157410499Y-107024000D01*
X157391365Y-107020194D01*
X157375144Y-107009355D01*
X157364305Y-106993134D01*
X157360499Y-106974000D01*
X157360499Y-106288200D01*
X157364305Y-106269066D01*
X157375144Y-106252845D01*
X157391365Y-106242006D01*
X157410499Y-106238200D01*
X157664499Y-106238200D01*
X157683633Y-106242006D01*
G37*
G36*
X158183634Y-106242006D02*
G01*
X158199855Y-106252845D01*
X158210694Y-106269066D01*
X158214500Y-106288200D01*
X158214500Y-106974000D01*
X158210694Y-106993134D01*
X158199855Y-107009355D01*
X158183634Y-107020194D01*
X158164500Y-107024000D01*
X157910500Y-107024000D01*
X157891366Y-107020194D01*
X157875145Y-107009355D01*
X157864306Y-106993134D01*
X157860500Y-106974000D01*
X157860500Y-106288200D01*
X157864306Y-106269066D01*
X157875145Y-106252845D01*
X157891366Y-106242006D01*
X157910500Y-106238200D01*
X158164500Y-106238200D01*
X158183634Y-106242006D01*
G37*
G36*
X158683634Y-106242006D02*
G01*
X158699855Y-106252845D01*
X158710694Y-106269066D01*
X158714500Y-106288200D01*
X158714500Y-106974000D01*
X158710694Y-106993134D01*
X158699855Y-107009355D01*
X158683634Y-107020194D01*
X158664500Y-107024000D01*
X158410500Y-107024000D01*
X158391366Y-107020194D01*
X158375145Y-107009355D01*
X158364306Y-106993134D01*
X158360500Y-106974000D01*
X158360500Y-106288200D01*
X158364306Y-106269066D01*
X158375145Y-106252845D01*
X158391366Y-106242006D01*
X158410500Y-106238200D01*
X158664500Y-106238200D01*
X158683634Y-106242006D01*
G37*
G36*
X159183635Y-106242006D02*
G01*
X159199856Y-106252845D01*
X159210695Y-106269066D01*
X159214501Y-106288200D01*
X159214501Y-106974000D01*
X159210695Y-106993134D01*
X159199856Y-107009355D01*
X159183635Y-107020194D01*
X159164501Y-107024000D01*
X158910501Y-107024000D01*
X158891367Y-107020194D01*
X158875146Y-107009355D01*
X158864307Y-106993134D01*
X158860501Y-106974000D01*
X158860501Y-106288200D01*
X158864307Y-106269066D01*
X158875146Y-106252845D01*
X158891367Y-106242006D01*
X158910501Y-106238200D01*
X159164501Y-106238200D01*
X159183635Y-106242006D01*
G37*
G36*
X159683634Y-106242006D02*
G01*
X159699855Y-106252845D01*
X159710694Y-106269066D01*
X159714500Y-106288200D01*
X159714500Y-106974000D01*
X159710694Y-106993134D01*
X159699855Y-107009355D01*
X159683634Y-107020194D01*
X159664500Y-107024000D01*
X159410500Y-107024000D01*
X159391366Y-107020194D01*
X159375145Y-107009355D01*
X159364306Y-106993134D01*
X159360500Y-106974000D01*
X159360500Y-106288200D01*
X159364306Y-106269066D01*
X159375145Y-106252845D01*
X159391366Y-106242006D01*
X159410500Y-106238200D01*
X159664500Y-106238200D01*
X159683634Y-106242006D01*
G37*
G36*
X160183633Y-106242006D02*
G01*
X160199854Y-106252845D01*
X160210693Y-106269066D01*
X160214499Y-106288200D01*
X160214499Y-106974000D01*
X160210693Y-106993134D01*
X160199854Y-107009355D01*
X160183633Y-107020194D01*
X160164499Y-107024000D01*
X159910499Y-107024000D01*
X159891365Y-107020194D01*
X159875144Y-107009355D01*
X159864305Y-106993134D01*
X159860499Y-106974000D01*
X159860499Y-106288200D01*
X159864305Y-106269066D01*
X159875144Y-106252845D01*
X159891365Y-106242006D01*
X159910499Y-106238200D01*
X160164499Y-106238200D01*
X160183633Y-106242006D01*
G37*
G36*
X160683635Y-106242006D02*
G01*
X160699856Y-106252845D01*
X160710695Y-106269066D01*
X160714501Y-106288200D01*
X160714501Y-106974000D01*
X160710695Y-106993134D01*
X160699856Y-107009355D01*
X160683635Y-107020194D01*
X160664501Y-107024000D01*
X160410501Y-107024000D01*
X160391367Y-107020194D01*
X160375146Y-107009355D01*
X160364307Y-106993134D01*
X160360501Y-106974000D01*
X160360501Y-106288200D01*
X160364307Y-106269066D01*
X160375146Y-106252845D01*
X160391367Y-106242006D01*
X160410501Y-106238200D01*
X160664501Y-106238200D01*
X160683635Y-106242006D01*
G37*
G36*
X137033810Y-104456361D02*
G01*
X137040369Y-104458947D01*
X137045901Y-104459676D01*
X137119041Y-104489971D01*
X137173353Y-104511389D01*
X137176488Y-104513766D01*
X137178691Y-104514679D01*
X137262933Y-104579320D01*
X137292874Y-104602026D01*
X137315598Y-104631992D01*
X137380220Y-104716208D01*
X137381132Y-104718409D01*
X137383511Y-104721547D01*
X137404939Y-104775887D01*
X137435223Y-104848998D01*
X137435950Y-104854526D01*
X137438539Y-104861090D01*
X137454200Y-104991500D01*
X137454200Y-105991500D01*
X137438539Y-106121910D01*
X137435950Y-106128473D01*
X137435223Y-106134001D01*
X137404948Y-106207091D01*
X137383511Y-106261453D01*
X137381131Y-106264591D01*
X137380220Y-106266791D01*
X137315663Y-106350921D01*
X137292874Y-106380974D01*
X137262821Y-106403763D01*
X137178691Y-106468320D01*
X137176491Y-106469231D01*
X137173353Y-106471611D01*
X137118991Y-106493048D01*
X137045901Y-106523323D01*
X137040373Y-106524050D01*
X137033810Y-106526639D01*
X136903400Y-106542300D01*
X135153400Y-106542300D01*
X135022990Y-106526639D01*
X135016426Y-106524050D01*
X135010898Y-106523323D01*
X134937787Y-106493039D01*
X134883447Y-106471611D01*
X134880309Y-106469232D01*
X134878108Y-106468320D01*
X134793892Y-106403698D01*
X134763926Y-106380974D01*
X134741220Y-106351033D01*
X134676579Y-106266791D01*
X134675666Y-106264588D01*
X134673289Y-106261453D01*
X134651871Y-106207141D01*
X134621576Y-106134001D01*
X134620847Y-106128469D01*
X134618261Y-106121910D01*
X134602600Y-105991500D01*
X134602600Y-104991500D01*
X134618261Y-104861090D01*
X134620847Y-104854530D01*
X134621576Y-104848998D01*
X134651879Y-104775837D01*
X134673289Y-104721547D01*
X134675665Y-104718412D01*
X134676579Y-104716208D01*
X134741285Y-104631881D01*
X134763926Y-104602026D01*
X134793781Y-104579385D01*
X134878108Y-104514679D01*
X134880312Y-104513765D01*
X134883447Y-104511389D01*
X134937737Y-104489979D01*
X135010898Y-104459676D01*
X135016430Y-104458947D01*
X135022990Y-104456361D01*
X135153400Y-104440700D01*
X136903400Y-104440700D01*
X137033810Y-104456361D01*
G37*
G36*
X153198810Y-104456361D02*
G01*
X153205369Y-104458947D01*
X153210901Y-104459676D01*
X153284041Y-104489971D01*
X153338353Y-104511389D01*
X153341488Y-104513766D01*
X153343691Y-104514679D01*
X153427933Y-104579320D01*
X153457874Y-104602026D01*
X153480598Y-104631992D01*
X153545220Y-104716208D01*
X153546132Y-104718409D01*
X153548511Y-104721547D01*
X153569939Y-104775887D01*
X153600223Y-104848998D01*
X153600950Y-104854526D01*
X153603539Y-104861090D01*
X153619200Y-104991500D01*
X153619200Y-105991500D01*
X153603539Y-106121910D01*
X153600950Y-106128473D01*
X153600223Y-106134001D01*
X153569948Y-106207091D01*
X153548511Y-106261453D01*
X153546131Y-106264591D01*
X153545220Y-106266791D01*
X153480663Y-106350921D01*
X153457874Y-106380974D01*
X153427821Y-106403763D01*
X153343691Y-106468320D01*
X153341491Y-106469231D01*
X153338353Y-106471611D01*
X153283991Y-106493048D01*
X153210901Y-106523323D01*
X153205373Y-106524050D01*
X153198810Y-106526639D01*
X153068400Y-106542300D01*
X151318400Y-106542300D01*
X151187990Y-106526639D01*
X151181426Y-106524050D01*
X151175898Y-106523323D01*
X151102787Y-106493039D01*
X151048447Y-106471611D01*
X151045309Y-106469232D01*
X151043108Y-106468320D01*
X150958892Y-106403698D01*
X150928926Y-106380974D01*
X150906220Y-106351033D01*
X150841579Y-106266791D01*
X150840666Y-106264588D01*
X150838289Y-106261453D01*
X150816871Y-106207141D01*
X150786576Y-106134001D01*
X150785847Y-106128469D01*
X150783261Y-106121910D01*
X150767600Y-105991500D01*
X150767600Y-104991500D01*
X150783261Y-104861090D01*
X150785847Y-104854530D01*
X150786576Y-104848998D01*
X150816879Y-104775837D01*
X150838289Y-104721547D01*
X150840665Y-104718412D01*
X150841579Y-104716208D01*
X150906285Y-104631881D01*
X150928926Y-104602026D01*
X150958781Y-104579385D01*
X151043108Y-104514679D01*
X151045312Y-104513765D01*
X151048447Y-104511389D01*
X151102737Y-104489979D01*
X151175898Y-104459676D01*
X151181430Y-104458947D01*
X151187990Y-104456361D01*
X151318400Y-104440700D01*
X153068400Y-104440700D01*
X153198810Y-104456361D01*
G37*
G36*
X156387034Y-105645406D02*
G01*
X156403255Y-105656245D01*
X156414094Y-105672466D01*
X156417900Y-105691600D01*
X156417900Y-105945600D01*
X156414094Y-105964734D01*
X156403255Y-105980955D01*
X156387034Y-105991794D01*
X156367900Y-105995600D01*
X155682100Y-105995600D01*
X155662966Y-105991794D01*
X155646745Y-105980955D01*
X155635906Y-105964734D01*
X155632100Y-105945600D01*
X155632100Y-105691600D01*
X155635906Y-105672466D01*
X155646745Y-105656245D01*
X155662966Y-105645406D01*
X155682100Y-105641600D01*
X156367900Y-105641600D01*
X156387034Y-105645406D01*
G37*
G36*
X160912034Y-105645406D02*
G01*
X160928255Y-105656245D01*
X160939094Y-105672466D01*
X160942900Y-105691600D01*
X160942900Y-105945600D01*
X160939094Y-105964734D01*
X160928255Y-105980955D01*
X160912034Y-105991794D01*
X160892900Y-105995600D01*
X160207100Y-105995600D01*
X160187966Y-105991794D01*
X160171745Y-105980955D01*
X160160906Y-105964734D01*
X160157100Y-105945600D01*
X160157100Y-105691600D01*
X160160906Y-105672466D01*
X160171745Y-105656245D01*
X160187966Y-105645406D01*
X160207100Y-105641600D01*
X160892900Y-105641600D01*
X160912034Y-105645406D01*
G37*
G36*
X162502017Y-104750401D02*
G01*
X162562045Y-104757365D01*
X162582554Y-104766421D01*
X162605238Y-104770933D01*
X162629522Y-104787159D01*
X162655167Y-104798483D01*
X162672682Y-104815998D01*
X162694454Y-104830546D01*
X162709001Y-104852317D01*
X162726516Y-104869832D01*
X162737838Y-104895474D01*
X162754067Y-104919762D01*
X162758579Y-104942447D01*
X162767634Y-104962954D01*
X162774596Y-105022970D01*
X162775000Y-105025000D01*
X162775000Y-105475000D01*
X162774596Y-105477029D01*
X162767634Y-105537045D01*
X162758579Y-105557550D01*
X162754067Y-105580238D01*
X162737837Y-105604527D01*
X162726516Y-105630167D01*
X162709003Y-105647679D01*
X162694454Y-105669454D01*
X162672679Y-105684003D01*
X162655167Y-105701516D01*
X162629527Y-105712837D01*
X162605238Y-105729067D01*
X162582550Y-105733579D01*
X162562045Y-105742634D01*
X162502031Y-105749595D01*
X162500000Y-105750000D01*
X162000000Y-105750000D01*
X161997971Y-105749596D01*
X161937954Y-105742634D01*
X161917447Y-105733579D01*
X161894762Y-105729067D01*
X161870474Y-105712838D01*
X161844832Y-105701516D01*
X161827317Y-105684001D01*
X161805546Y-105669454D01*
X161790998Y-105647682D01*
X161773483Y-105630167D01*
X161762159Y-105604522D01*
X161745933Y-105580238D01*
X161741421Y-105557554D01*
X161732365Y-105537045D01*
X161725401Y-105477019D01*
X161725000Y-105475000D01*
X161725000Y-105025000D01*
X161725401Y-105022983D01*
X161732365Y-104962954D01*
X161741421Y-104942443D01*
X161745933Y-104919762D01*
X161762158Y-104895479D01*
X161773483Y-104869832D01*
X161791000Y-104852314D01*
X161805546Y-104830546D01*
X161827314Y-104816000D01*
X161844832Y-104798483D01*
X161870479Y-104787158D01*
X161894762Y-104770933D01*
X161917443Y-104766421D01*
X161937954Y-104757365D01*
X161997982Y-104750401D01*
X162000000Y-104750000D01*
X162500000Y-104750000D01*
X162502017Y-104750401D01*
G37*
G36*
X156387034Y-105145405D02*
G01*
X156403255Y-105156244D01*
X156414094Y-105172465D01*
X156417900Y-105191599D01*
X156417900Y-105445599D01*
X156414094Y-105464733D01*
X156403255Y-105480954D01*
X156387034Y-105491793D01*
X156367900Y-105495599D01*
X155682100Y-105495599D01*
X155662966Y-105491793D01*
X155646745Y-105480954D01*
X155635906Y-105464733D01*
X155632100Y-105445599D01*
X155632100Y-105191599D01*
X155635906Y-105172465D01*
X155646745Y-105156244D01*
X155662966Y-105145405D01*
X155682100Y-105141599D01*
X156367900Y-105141599D01*
X156387034Y-105145405D01*
G37*
G36*
X160912034Y-105145405D02*
G01*
X160928255Y-105156244D01*
X160939094Y-105172465D01*
X160942900Y-105191599D01*
X160942900Y-105445599D01*
X160939094Y-105464733D01*
X160928255Y-105480954D01*
X160912034Y-105491793D01*
X160892900Y-105495599D01*
X160207100Y-105495599D01*
X160187966Y-105491793D01*
X160171745Y-105480954D01*
X160160906Y-105464733D01*
X160157100Y-105445599D01*
X160157100Y-105191599D01*
X160160906Y-105172465D01*
X160171745Y-105156244D01*
X160187966Y-105145405D01*
X160207100Y-105141599D01*
X160892900Y-105141599D01*
X160912034Y-105145405D01*
G37*
G36*
X156387034Y-104645405D02*
G01*
X156403255Y-104656244D01*
X156414094Y-104672465D01*
X156417900Y-104691599D01*
X156417900Y-104945599D01*
X156414094Y-104964733D01*
X156403255Y-104980954D01*
X156387034Y-104991793D01*
X156367900Y-104995599D01*
X155682100Y-104995599D01*
X155662966Y-104991793D01*
X155646745Y-104980954D01*
X155635906Y-104964733D01*
X155632100Y-104945599D01*
X155632100Y-104691599D01*
X155635906Y-104672465D01*
X155646745Y-104656244D01*
X155662966Y-104645405D01*
X155682100Y-104641599D01*
X156367900Y-104641599D01*
X156387034Y-104645405D01*
G37*
G36*
X160912034Y-104645405D02*
G01*
X160928255Y-104656244D01*
X160939094Y-104672465D01*
X160942900Y-104691599D01*
X160942900Y-104945599D01*
X160939094Y-104964733D01*
X160928255Y-104980954D01*
X160912034Y-104991793D01*
X160892900Y-104995599D01*
X160207100Y-104995599D01*
X160187966Y-104991793D01*
X160171745Y-104980954D01*
X160160906Y-104964733D01*
X160157100Y-104945599D01*
X160157100Y-104691599D01*
X160160906Y-104672465D01*
X160171745Y-104656244D01*
X160187966Y-104645405D01*
X160207100Y-104641599D01*
X160892900Y-104641599D01*
X160912034Y-104645405D01*
G37*
G36*
X142661323Y-102113501D02*
G01*
X142665840Y-102115607D01*
X142669625Y-102116159D01*
X142723391Y-102142444D01*
X142763871Y-102161320D01*
X142765658Y-102163107D01*
X142766114Y-102163330D01*
X142841869Y-102239085D01*
X142842091Y-102239540D01*
X142843880Y-102241329D01*
X142862766Y-102281831D01*
X142889040Y-102335574D01*
X142889591Y-102339356D01*
X142891699Y-102343877D01*
X142902800Y-102428200D01*
X142902800Y-104378200D01*
X142891699Y-104462523D01*
X142889590Y-104467043D01*
X142889040Y-104470825D01*
X142862776Y-104524547D01*
X142843880Y-104565071D01*
X142842090Y-104566860D01*
X142841869Y-104567314D01*
X142766114Y-104643069D01*
X142765660Y-104643290D01*
X142763871Y-104645080D01*
X142723347Y-104663976D01*
X142669625Y-104690240D01*
X142665843Y-104690790D01*
X142661323Y-104692899D01*
X142577000Y-104704000D01*
X142027000Y-104704000D01*
X141942677Y-104692899D01*
X141938156Y-104690791D01*
X141934374Y-104690240D01*
X141880631Y-104663966D01*
X141840129Y-104645080D01*
X141838340Y-104643291D01*
X141837885Y-104643069D01*
X141762130Y-104567314D01*
X141761907Y-104566858D01*
X141760120Y-104565071D01*
X141741244Y-104524591D01*
X141714959Y-104470825D01*
X141714407Y-104467040D01*
X141712301Y-104462523D01*
X141701200Y-104378200D01*
X141701200Y-102428200D01*
X141712301Y-102343877D01*
X141714407Y-102339359D01*
X141714959Y-102335574D01*
X141741254Y-102281786D01*
X141760120Y-102241329D01*
X141761906Y-102239542D01*
X141762130Y-102239085D01*
X141837885Y-102163330D01*
X141838342Y-102163106D01*
X141840129Y-102161320D01*
X141880586Y-102142454D01*
X141934374Y-102116159D01*
X141938159Y-102115607D01*
X141942677Y-102113501D01*
X142027000Y-102102400D01*
X142577000Y-102102400D01*
X142661323Y-102113501D01*
G37*
G36*
X145201323Y-102113501D02*
G01*
X145205840Y-102115607D01*
X145209625Y-102116159D01*
X145263391Y-102142444D01*
X145303871Y-102161320D01*
X145305658Y-102163107D01*
X145306114Y-102163330D01*
X145381869Y-102239085D01*
X145382091Y-102239540D01*
X145383880Y-102241329D01*
X145402766Y-102281831D01*
X145429040Y-102335574D01*
X145429591Y-102339356D01*
X145431699Y-102343877D01*
X145442800Y-102428200D01*
X145442800Y-104378200D01*
X145431699Y-104462523D01*
X145429590Y-104467043D01*
X145429040Y-104470825D01*
X145402776Y-104524547D01*
X145383880Y-104565071D01*
X145382090Y-104566860D01*
X145381869Y-104567314D01*
X145306114Y-104643069D01*
X145305660Y-104643290D01*
X145303871Y-104645080D01*
X145263347Y-104663976D01*
X145209625Y-104690240D01*
X145205843Y-104690790D01*
X145201323Y-104692899D01*
X145117000Y-104704000D01*
X144567000Y-104704000D01*
X144482677Y-104692899D01*
X144478156Y-104690791D01*
X144474374Y-104690240D01*
X144420631Y-104663966D01*
X144380129Y-104645080D01*
X144378340Y-104643291D01*
X144377885Y-104643069D01*
X144302130Y-104567314D01*
X144301907Y-104566858D01*
X144300120Y-104565071D01*
X144281244Y-104524591D01*
X144254959Y-104470825D01*
X144254407Y-104467040D01*
X144252301Y-104462523D01*
X144241200Y-104378200D01*
X144241200Y-102428200D01*
X144252301Y-102343877D01*
X144254407Y-102339359D01*
X144254959Y-102335574D01*
X144281254Y-102281786D01*
X144300120Y-102241329D01*
X144301906Y-102239542D01*
X144302130Y-102239085D01*
X144377885Y-102163330D01*
X144378342Y-102163106D01*
X144380129Y-102161320D01*
X144420586Y-102142454D01*
X144474374Y-102116159D01*
X144478159Y-102115607D01*
X144482677Y-102113501D01*
X144567000Y-102102400D01*
X145117000Y-102102400D01*
X145201323Y-102113501D01*
G37*
G36*
X156387034Y-104145404D02*
G01*
X156403255Y-104156243D01*
X156414094Y-104172464D01*
X156417900Y-104191598D01*
X156417900Y-104445598D01*
X156414094Y-104464732D01*
X156403255Y-104480953D01*
X156387034Y-104491792D01*
X156367900Y-104495598D01*
X155682100Y-104495598D01*
X155662966Y-104491792D01*
X155646745Y-104480953D01*
X155635906Y-104464732D01*
X155632100Y-104445598D01*
X155632100Y-104191598D01*
X155635906Y-104172464D01*
X155646745Y-104156243D01*
X155662966Y-104145404D01*
X155682100Y-104141598D01*
X156367900Y-104141598D01*
X156387034Y-104145404D01*
G37*
G36*
X160912034Y-104145404D02*
G01*
X160928255Y-104156243D01*
X160939094Y-104172464D01*
X160942900Y-104191598D01*
X160942900Y-104445598D01*
X160939094Y-104464732D01*
X160928255Y-104480953D01*
X160912034Y-104491792D01*
X160892900Y-104495598D01*
X160207100Y-104495598D01*
X160187966Y-104491792D01*
X160171745Y-104480953D01*
X160160906Y-104464732D01*
X160157100Y-104445598D01*
X160157100Y-104191598D01*
X160160906Y-104172464D01*
X160171745Y-104156243D01*
X160187966Y-104145404D01*
X160207100Y-104141598D01*
X160892900Y-104141598D01*
X160912034Y-104145404D01*
G37*
G36*
X162502017Y-103200401D02*
G01*
X162562045Y-103207365D01*
X162582554Y-103216421D01*
X162605238Y-103220933D01*
X162629522Y-103237159D01*
X162655167Y-103248483D01*
X162672682Y-103265998D01*
X162694454Y-103280546D01*
X162709001Y-103302317D01*
X162726516Y-103319832D01*
X162737838Y-103345474D01*
X162754067Y-103369762D01*
X162758579Y-103392447D01*
X162767634Y-103412954D01*
X162774596Y-103472970D01*
X162775000Y-103475000D01*
X162775000Y-103925000D01*
X162774596Y-103927029D01*
X162767634Y-103987045D01*
X162758579Y-104007550D01*
X162754067Y-104030238D01*
X162737837Y-104054527D01*
X162726516Y-104080167D01*
X162709003Y-104097679D01*
X162694454Y-104119454D01*
X162672679Y-104134003D01*
X162655167Y-104151516D01*
X162629527Y-104162837D01*
X162605238Y-104179067D01*
X162582550Y-104183579D01*
X162562045Y-104192634D01*
X162502031Y-104199595D01*
X162500000Y-104200000D01*
X162000000Y-104200000D01*
X161997971Y-104199596D01*
X161937954Y-104192634D01*
X161917447Y-104183579D01*
X161894762Y-104179067D01*
X161870474Y-104162838D01*
X161844832Y-104151516D01*
X161827317Y-104134001D01*
X161805546Y-104119454D01*
X161790998Y-104097682D01*
X161773483Y-104080167D01*
X161762159Y-104054522D01*
X161745933Y-104030238D01*
X161741421Y-104007554D01*
X161732365Y-103987045D01*
X161725401Y-103927019D01*
X161725000Y-103925000D01*
X161725000Y-103475000D01*
X161725401Y-103472983D01*
X161732365Y-103412954D01*
X161741421Y-103392443D01*
X161745933Y-103369762D01*
X161762158Y-103345479D01*
X161773483Y-103319832D01*
X161791000Y-103302314D01*
X161805546Y-103280546D01*
X161827314Y-103266000D01*
X161844832Y-103248483D01*
X161870479Y-103237158D01*
X161894762Y-103220933D01*
X161917443Y-103216421D01*
X161937954Y-103207365D01*
X161997982Y-103200401D01*
X162000000Y-103200000D01*
X162500000Y-103200000D01*
X162502017Y-103200401D01*
G37*
G36*
X137033810Y-101916361D02*
G01*
X137040369Y-101918947D01*
X137045901Y-101919676D01*
X137119041Y-101949971D01*
X137173353Y-101971389D01*
X137176488Y-101973766D01*
X137178691Y-101974679D01*
X137262933Y-102039320D01*
X137292874Y-102062026D01*
X137315598Y-102091992D01*
X137380220Y-102176208D01*
X137381132Y-102178409D01*
X137383511Y-102181547D01*
X137404939Y-102235887D01*
X137435223Y-102308998D01*
X137435950Y-102314526D01*
X137438539Y-102321090D01*
X137454200Y-102451500D01*
X137454200Y-103451500D01*
X137438539Y-103581910D01*
X137435950Y-103588473D01*
X137435223Y-103594001D01*
X137404948Y-103667091D01*
X137383511Y-103721453D01*
X137381131Y-103724591D01*
X137380220Y-103726791D01*
X137315663Y-103810921D01*
X137292874Y-103840974D01*
X137262821Y-103863763D01*
X137178691Y-103928320D01*
X137176491Y-103929231D01*
X137173353Y-103931611D01*
X137118991Y-103953048D01*
X137045901Y-103983323D01*
X137040373Y-103984050D01*
X137033810Y-103986639D01*
X136903400Y-104002300D01*
X135153400Y-104002300D01*
X135022990Y-103986639D01*
X135016426Y-103984050D01*
X135010898Y-103983323D01*
X134937787Y-103953039D01*
X134883447Y-103931611D01*
X134880309Y-103929232D01*
X134878108Y-103928320D01*
X134793892Y-103863698D01*
X134763926Y-103840974D01*
X134741220Y-103811033D01*
X134676579Y-103726791D01*
X134675666Y-103724588D01*
X134673289Y-103721453D01*
X134651871Y-103667141D01*
X134621576Y-103594001D01*
X134620847Y-103588469D01*
X134618261Y-103581910D01*
X134602600Y-103451500D01*
X134602600Y-102451500D01*
X134618261Y-102321090D01*
X134620847Y-102314530D01*
X134621576Y-102308998D01*
X134651879Y-102235837D01*
X134673289Y-102181547D01*
X134675665Y-102178412D01*
X134676579Y-102176208D01*
X134741285Y-102091881D01*
X134763926Y-102062026D01*
X134793781Y-102039385D01*
X134878108Y-101974679D01*
X134880312Y-101973765D01*
X134883447Y-101971389D01*
X134937737Y-101949979D01*
X135010898Y-101919676D01*
X135016430Y-101918947D01*
X135022990Y-101916361D01*
X135153400Y-101900700D01*
X136903400Y-101900700D01*
X137033810Y-101916361D01*
G37*
G36*
X153198810Y-101916361D02*
G01*
X153205369Y-101918947D01*
X153210901Y-101919676D01*
X153284041Y-101949971D01*
X153338353Y-101971389D01*
X153341488Y-101973766D01*
X153343691Y-101974679D01*
X153427933Y-102039320D01*
X153457874Y-102062026D01*
X153480598Y-102091992D01*
X153545220Y-102176208D01*
X153546132Y-102178409D01*
X153548511Y-102181547D01*
X153569939Y-102235887D01*
X153600223Y-102308998D01*
X153600950Y-102314526D01*
X153603539Y-102321090D01*
X153619200Y-102451500D01*
X153619200Y-103451500D01*
X153603539Y-103581910D01*
X153600950Y-103588473D01*
X153600223Y-103594001D01*
X153569948Y-103667091D01*
X153548511Y-103721453D01*
X153546131Y-103724591D01*
X153545220Y-103726791D01*
X153480663Y-103810921D01*
X153457874Y-103840974D01*
X153427821Y-103863763D01*
X153343691Y-103928320D01*
X153341491Y-103929231D01*
X153338353Y-103931611D01*
X153283991Y-103953048D01*
X153210901Y-103983323D01*
X153205373Y-103984050D01*
X153198810Y-103986639D01*
X153068400Y-104002300D01*
X151318400Y-104002300D01*
X151187990Y-103986639D01*
X151181426Y-103984050D01*
X151175898Y-103983323D01*
X151102787Y-103953039D01*
X151048447Y-103931611D01*
X151045309Y-103929232D01*
X151043108Y-103928320D01*
X150958892Y-103863698D01*
X150928926Y-103840974D01*
X150906220Y-103811033D01*
X150841579Y-103726791D01*
X150840666Y-103724588D01*
X150838289Y-103721453D01*
X150816871Y-103667141D01*
X150786576Y-103594001D01*
X150785847Y-103588469D01*
X150783261Y-103581910D01*
X150767600Y-103451500D01*
X150767600Y-102451500D01*
X150783261Y-102321090D01*
X150785847Y-102314530D01*
X150786576Y-102308998D01*
X150816879Y-102235837D01*
X150838289Y-102181547D01*
X150840665Y-102178412D01*
X150841579Y-102176208D01*
X150906285Y-102091881D01*
X150928926Y-102062026D01*
X150958781Y-102039385D01*
X151043108Y-101974679D01*
X151045312Y-101973765D01*
X151048447Y-101971389D01*
X151102737Y-101949979D01*
X151175898Y-101919676D01*
X151181430Y-101918947D01*
X151187990Y-101916361D01*
X151318400Y-101900700D01*
X153068400Y-101900700D01*
X153198810Y-101916361D01*
G37*
G36*
X156183633Y-103117004D02*
G01*
X156199854Y-103127843D01*
X156210693Y-103144064D01*
X156214499Y-103163198D01*
X156214499Y-103848998D01*
X156210693Y-103868132D01*
X156199854Y-103884353D01*
X156183633Y-103895192D01*
X156164499Y-103898998D01*
X155910499Y-103898998D01*
X155891365Y-103895192D01*
X155875144Y-103884353D01*
X155864305Y-103868132D01*
X155860499Y-103848998D01*
X155860499Y-103163198D01*
X155864305Y-103144064D01*
X155875144Y-103127843D01*
X155891365Y-103117004D01*
X155910499Y-103113198D01*
X156164499Y-103113198D01*
X156183633Y-103117004D01*
G37*
G36*
X156683635Y-103117004D02*
G01*
X156699856Y-103127843D01*
X156710695Y-103144064D01*
X156714501Y-103163198D01*
X156714501Y-103848998D01*
X156710695Y-103868132D01*
X156699856Y-103884353D01*
X156683635Y-103895192D01*
X156664501Y-103898998D01*
X156410501Y-103898998D01*
X156391367Y-103895192D01*
X156375146Y-103884353D01*
X156364307Y-103868132D01*
X156360501Y-103848998D01*
X156360501Y-103163198D01*
X156364307Y-103144064D01*
X156375146Y-103127843D01*
X156391367Y-103117004D01*
X156410501Y-103113198D01*
X156664501Y-103113198D01*
X156683635Y-103117004D01*
G37*
G36*
X157183634Y-103117004D02*
G01*
X157199855Y-103127843D01*
X157210694Y-103144064D01*
X157214500Y-103163198D01*
X157214500Y-103848998D01*
X157210694Y-103868132D01*
X157199855Y-103884353D01*
X157183634Y-103895192D01*
X157164500Y-103898998D01*
X156910500Y-103898998D01*
X156891366Y-103895192D01*
X156875145Y-103884353D01*
X156864306Y-103868132D01*
X156860500Y-103848998D01*
X156860500Y-103163198D01*
X156864306Y-103144064D01*
X156875145Y-103127843D01*
X156891366Y-103117004D01*
X156910500Y-103113198D01*
X157164500Y-103113198D01*
X157183634Y-103117004D01*
G37*
G36*
X157683633Y-103117004D02*
G01*
X157699854Y-103127843D01*
X157710693Y-103144064D01*
X157714499Y-103163198D01*
X157714499Y-103848998D01*
X157710693Y-103868132D01*
X157699854Y-103884353D01*
X157683633Y-103895192D01*
X157664499Y-103898998D01*
X157410499Y-103898998D01*
X157391365Y-103895192D01*
X157375144Y-103884353D01*
X157364305Y-103868132D01*
X157360499Y-103848998D01*
X157360499Y-103163198D01*
X157364305Y-103144064D01*
X157375144Y-103127843D01*
X157391365Y-103117004D01*
X157410499Y-103113198D01*
X157664499Y-103113198D01*
X157683633Y-103117004D01*
G37*
G36*
X158183634Y-103117004D02*
G01*
X158199855Y-103127843D01*
X158210694Y-103144064D01*
X158214500Y-103163198D01*
X158214500Y-103848998D01*
X158210694Y-103868132D01*
X158199855Y-103884353D01*
X158183634Y-103895192D01*
X158164500Y-103898998D01*
X157910500Y-103898998D01*
X157891366Y-103895192D01*
X157875145Y-103884353D01*
X157864306Y-103868132D01*
X157860500Y-103848998D01*
X157860500Y-103163198D01*
X157864306Y-103144064D01*
X157875145Y-103127843D01*
X157891366Y-103117004D01*
X157910500Y-103113198D01*
X158164500Y-103113198D01*
X158183634Y-103117004D01*
G37*
G36*
X158683634Y-103117004D02*
G01*
X158699855Y-103127843D01*
X158710694Y-103144064D01*
X158714500Y-103163198D01*
X158714500Y-103848998D01*
X158710694Y-103868132D01*
X158699855Y-103884353D01*
X158683634Y-103895192D01*
X158664500Y-103898998D01*
X158410500Y-103898998D01*
X158391366Y-103895192D01*
X158375145Y-103884353D01*
X158364306Y-103868132D01*
X158360500Y-103848998D01*
X158360500Y-103163198D01*
X158364306Y-103144064D01*
X158375145Y-103127843D01*
X158391366Y-103117004D01*
X158410500Y-103113198D01*
X158664500Y-103113198D01*
X158683634Y-103117004D01*
G37*
G36*
X159183635Y-103117004D02*
G01*
X159199856Y-103127843D01*
X159210695Y-103144064D01*
X159214501Y-103163198D01*
X159214501Y-103848998D01*
X159210695Y-103868132D01*
X159199856Y-103884353D01*
X159183635Y-103895192D01*
X159164501Y-103898998D01*
X158910501Y-103898998D01*
X158891367Y-103895192D01*
X158875146Y-103884353D01*
X158864307Y-103868132D01*
X158860501Y-103848998D01*
X158860501Y-103163198D01*
X158864307Y-103144064D01*
X158875146Y-103127843D01*
X158891367Y-103117004D01*
X158910501Y-103113198D01*
X159164501Y-103113198D01*
X159183635Y-103117004D01*
G37*
G36*
X159683634Y-103117004D02*
G01*
X159699855Y-103127843D01*
X159710694Y-103144064D01*
X159714500Y-103163198D01*
X159714500Y-103848998D01*
X159710694Y-103868132D01*
X159699855Y-103884353D01*
X159683634Y-103895192D01*
X159664500Y-103898998D01*
X159410500Y-103898998D01*
X159391366Y-103895192D01*
X159375145Y-103884353D01*
X159364306Y-103868132D01*
X159360500Y-103848998D01*
X159360500Y-103163198D01*
X159364306Y-103144064D01*
X159375145Y-103127843D01*
X159391366Y-103117004D01*
X159410500Y-103113198D01*
X159664500Y-103113198D01*
X159683634Y-103117004D01*
G37*
G36*
X160183633Y-103117004D02*
G01*
X160199854Y-103127843D01*
X160210693Y-103144064D01*
X160214499Y-103163198D01*
X160214499Y-103848998D01*
X160210693Y-103868132D01*
X160199854Y-103884353D01*
X160183633Y-103895192D01*
X160164499Y-103898998D01*
X159910499Y-103898998D01*
X159891365Y-103895192D01*
X159875144Y-103884353D01*
X159864305Y-103868132D01*
X159860499Y-103848998D01*
X159860499Y-103163198D01*
X159864305Y-103144064D01*
X159875144Y-103127843D01*
X159891365Y-103117004D01*
X159910499Y-103113198D01*
X160164499Y-103113198D01*
X160183633Y-103117004D01*
G37*
G36*
X160683635Y-103117004D02*
G01*
X160699856Y-103127843D01*
X160710695Y-103144064D01*
X160714501Y-103163198D01*
X160714501Y-103848998D01*
X160710695Y-103868132D01*
X160699856Y-103884353D01*
X160683635Y-103895192D01*
X160664501Y-103898998D01*
X160410501Y-103898998D01*
X160391367Y-103895192D01*
X160375146Y-103884353D01*
X160364307Y-103868132D01*
X160360501Y-103848998D01*
X160360501Y-103163198D01*
X160364307Y-103144064D01*
X160375146Y-103127843D01*
X160391367Y-103117004D01*
X160410501Y-103113198D01*
X160664501Y-103113198D01*
X160683635Y-103117004D01*
G37*
G36*
X137033810Y-99376361D02*
G01*
X137040369Y-99378947D01*
X137045901Y-99379676D01*
X137119041Y-99409971D01*
X137173353Y-99431389D01*
X137176488Y-99433766D01*
X137178691Y-99434679D01*
X137262933Y-99499320D01*
X137292874Y-99522026D01*
X137315598Y-99551992D01*
X137380220Y-99636208D01*
X137381132Y-99638409D01*
X137383511Y-99641547D01*
X137404939Y-99695887D01*
X137435223Y-99768998D01*
X137435950Y-99774526D01*
X137438539Y-99781090D01*
X137454200Y-99911500D01*
X137454200Y-100911500D01*
X137438539Y-101041910D01*
X137435950Y-101048473D01*
X137435223Y-101054001D01*
X137404948Y-101127091D01*
X137383511Y-101181453D01*
X137381131Y-101184591D01*
X137380220Y-101186791D01*
X137315663Y-101270921D01*
X137292874Y-101300974D01*
X137262821Y-101323763D01*
X137178691Y-101388320D01*
X137176491Y-101389231D01*
X137173353Y-101391611D01*
X137118991Y-101413048D01*
X137045901Y-101443323D01*
X137040373Y-101444050D01*
X137033810Y-101446639D01*
X136903400Y-101462300D01*
X135153400Y-101462300D01*
X135022990Y-101446639D01*
X135016426Y-101444050D01*
X135010898Y-101443323D01*
X134937787Y-101413039D01*
X134883447Y-101391611D01*
X134880309Y-101389232D01*
X134878108Y-101388320D01*
X134793892Y-101323698D01*
X134763926Y-101300974D01*
X134741220Y-101271033D01*
X134676579Y-101186791D01*
X134675666Y-101184588D01*
X134673289Y-101181453D01*
X134651871Y-101127141D01*
X134621576Y-101054001D01*
X134620847Y-101048469D01*
X134618261Y-101041910D01*
X134602600Y-100911500D01*
X134602600Y-99911500D01*
X134618261Y-99781090D01*
X134620847Y-99774530D01*
X134621576Y-99768998D01*
X134651879Y-99695837D01*
X134673289Y-99641547D01*
X134675665Y-99638412D01*
X134676579Y-99636208D01*
X134741285Y-99551881D01*
X134763926Y-99522026D01*
X134793781Y-99499385D01*
X134878108Y-99434679D01*
X134880312Y-99433765D01*
X134883447Y-99431389D01*
X134937737Y-99409979D01*
X135010898Y-99379676D01*
X135016430Y-99378947D01*
X135022990Y-99376361D01*
X135153400Y-99360700D01*
X136903400Y-99360700D01*
X137033810Y-99376361D01*
G37*
G36*
X153198810Y-99376361D02*
G01*
X153205369Y-99378947D01*
X153210901Y-99379676D01*
X153284041Y-99409971D01*
X153338353Y-99431389D01*
X153341488Y-99433766D01*
X153343691Y-99434679D01*
X153427933Y-99499320D01*
X153457874Y-99522026D01*
X153480598Y-99551992D01*
X153545220Y-99636208D01*
X153546132Y-99638409D01*
X153548511Y-99641547D01*
X153569939Y-99695887D01*
X153600223Y-99768998D01*
X153600950Y-99774526D01*
X153603539Y-99781090D01*
X153619200Y-99911500D01*
X153619200Y-100911500D01*
X153603539Y-101041910D01*
X153600950Y-101048473D01*
X153600223Y-101054001D01*
X153569948Y-101127091D01*
X153548511Y-101181453D01*
X153546131Y-101184591D01*
X153545220Y-101186791D01*
X153480663Y-101270921D01*
X153457874Y-101300974D01*
X153427821Y-101323763D01*
X153343691Y-101388320D01*
X153341491Y-101389231D01*
X153338353Y-101391611D01*
X153283991Y-101413048D01*
X153210901Y-101443323D01*
X153205373Y-101444050D01*
X153198810Y-101446639D01*
X153068400Y-101462300D01*
X151318400Y-101462300D01*
X151187990Y-101446639D01*
X151181426Y-101444050D01*
X151175898Y-101443323D01*
X151102787Y-101413039D01*
X151048447Y-101391611D01*
X151045309Y-101389232D01*
X151043108Y-101388320D01*
X150958892Y-101323698D01*
X150928926Y-101300974D01*
X150906220Y-101271033D01*
X150841579Y-101186791D01*
X150840666Y-101184588D01*
X150838289Y-101181453D01*
X150816871Y-101127141D01*
X150786576Y-101054001D01*
X150785847Y-101048469D01*
X150783261Y-101041910D01*
X150767600Y-100911500D01*
X150767600Y-99911500D01*
X150783261Y-99781090D01*
X150785847Y-99774530D01*
X150786576Y-99768998D01*
X150816879Y-99695837D01*
X150838289Y-99641547D01*
X150840665Y-99638412D01*
X150841579Y-99636208D01*
X150906285Y-99551881D01*
X150928926Y-99522026D01*
X150958781Y-99499385D01*
X151043108Y-99434679D01*
X151045312Y-99433765D01*
X151048447Y-99431389D01*
X151102737Y-99409979D01*
X151175898Y-99379676D01*
X151181430Y-99378947D01*
X151187990Y-99376361D01*
X151318400Y-99360700D01*
X153068400Y-99360700D01*
X153198810Y-99376361D01*
G37*
G36*
X156271870Y-99825417D02*
G01*
X156276027Y-99827252D01*
X156280222Y-99827805D01*
X156332699Y-99852275D01*
X156372726Y-99869949D01*
X156374583Y-99871806D01*
X156375037Y-99872018D01*
X156448614Y-99945595D01*
X156448825Y-99946048D01*
X156450684Y-99947907D01*
X156468366Y-99987955D01*
X156492827Y-100040410D01*
X156493378Y-100044602D01*
X156495216Y-100048763D01*
X156503185Y-100117448D01*
X156503185Y-100817448D01*
X156495216Y-100886133D01*
X156493378Y-100890294D01*
X156492827Y-100894485D01*
X156468375Y-100946922D01*
X156450684Y-100986989D01*
X156448824Y-100988848D01*
X156448614Y-100989300D01*
X156375037Y-101062877D01*
X156374585Y-101063087D01*
X156372726Y-101064947D01*
X156332659Y-101082638D01*
X156280222Y-101107090D01*
X156276031Y-101107641D01*
X156271870Y-101109479D01*
X156203185Y-101117448D01*
X154953185Y-101117448D01*
X154884500Y-101109479D01*
X154880339Y-101107641D01*
X154876147Y-101107090D01*
X154823692Y-101082629D01*
X154783644Y-101064947D01*
X154781785Y-101063088D01*
X154781332Y-101062877D01*
X154707755Y-100989300D01*
X154707543Y-100988846D01*
X154705686Y-100986989D01*
X154688012Y-100946962D01*
X154663542Y-100894485D01*
X154662989Y-100890290D01*
X154661154Y-100886133D01*
X154653185Y-100817448D01*
X154653185Y-100117448D01*
X154661154Y-100048763D01*
X154662989Y-100044605D01*
X154663542Y-100040410D01*
X154688021Y-99987914D01*
X154705686Y-99947907D01*
X154707542Y-99946050D01*
X154707755Y-99945595D01*
X154781332Y-99872018D01*
X154781787Y-99871805D01*
X154783644Y-99869949D01*
X154823651Y-99852284D01*
X154876147Y-99827805D01*
X154880342Y-99827252D01*
X154884500Y-99825417D01*
X154953185Y-99817448D01*
X156203185Y-99817448D01*
X156271870Y-99825417D01*
G37*
G36*
X155916896Y-97820578D02*
G01*
X156041870Y-97845437D01*
X156159593Y-97894199D01*
X156265541Y-97964991D01*
X156355642Y-98055092D01*
X156426434Y-98161040D01*
X156475196Y-98278763D01*
X156500055Y-98403737D01*
X156500055Y-98531159D01*
X156475196Y-98656133D01*
X156426434Y-98773856D01*
X156355642Y-98879804D01*
X156265541Y-98969905D01*
X156159593Y-99040697D01*
X156041870Y-99089459D01*
X155916896Y-99114318D01*
X155853185Y-99117448D01*
X155852569Y-99117448D01*
X155303801Y-99117448D01*
X155303185Y-99117448D01*
X155239474Y-99114318D01*
X155114500Y-99089459D01*
X154996777Y-99040697D01*
X154890829Y-98969905D01*
X154800728Y-98879804D01*
X154729936Y-98773856D01*
X154681174Y-98656133D01*
X154656315Y-98531159D01*
X154656315Y-98403737D01*
X154681174Y-98278763D01*
X154729936Y-98161040D01*
X154800728Y-98055092D01*
X154890829Y-97964991D01*
X154996777Y-97894199D01*
X155114500Y-97845437D01*
X155239474Y-97820578D01*
X155303185Y-97817448D01*
X155853185Y-97817448D01*
X155916896Y-97820578D01*
G37*
G36*
X137033810Y-96836361D02*
G01*
X137040369Y-96838947D01*
X137045901Y-96839676D01*
X137119041Y-96869971D01*
X137173353Y-96891389D01*
X137176488Y-96893766D01*
X137178691Y-96894679D01*
X137262933Y-96959320D01*
X137292874Y-96982026D01*
X137315598Y-97011992D01*
X137380220Y-97096208D01*
X137381132Y-97098409D01*
X137383511Y-97101547D01*
X137404939Y-97155887D01*
X137435223Y-97228998D01*
X137435950Y-97234526D01*
X137438539Y-97241090D01*
X137454200Y-97371500D01*
X137454200Y-98371500D01*
X137438539Y-98501910D01*
X137435950Y-98508473D01*
X137435223Y-98514001D01*
X137404948Y-98587091D01*
X137383511Y-98641453D01*
X137381131Y-98644591D01*
X137380220Y-98646791D01*
X137315663Y-98730921D01*
X137292874Y-98760974D01*
X137262821Y-98783763D01*
X137178691Y-98848320D01*
X137176491Y-98849231D01*
X137173353Y-98851611D01*
X137118991Y-98873048D01*
X137045901Y-98903323D01*
X137040373Y-98904050D01*
X137033810Y-98906639D01*
X136903400Y-98922300D01*
X135153400Y-98922300D01*
X135022990Y-98906639D01*
X135016426Y-98904050D01*
X135010898Y-98903323D01*
X134937787Y-98873039D01*
X134883447Y-98851611D01*
X134880309Y-98849232D01*
X134878108Y-98848320D01*
X134793892Y-98783698D01*
X134763926Y-98760974D01*
X134741220Y-98731033D01*
X134676579Y-98646791D01*
X134675666Y-98644588D01*
X134673289Y-98641453D01*
X134651871Y-98587141D01*
X134621576Y-98514001D01*
X134620847Y-98508469D01*
X134618261Y-98501910D01*
X134602600Y-98371500D01*
X134602600Y-97371500D01*
X134618261Y-97241090D01*
X134620847Y-97234530D01*
X134621576Y-97228998D01*
X134651879Y-97155837D01*
X134673289Y-97101547D01*
X134675665Y-97098412D01*
X134676579Y-97096208D01*
X134741285Y-97011881D01*
X134763926Y-96982026D01*
X134793781Y-96959385D01*
X134878108Y-96894679D01*
X134880312Y-96893765D01*
X134883447Y-96891389D01*
X134937737Y-96869979D01*
X135010898Y-96839676D01*
X135016430Y-96838947D01*
X135022990Y-96836361D01*
X135153400Y-96820700D01*
X136903400Y-96820700D01*
X137033810Y-96836361D01*
G37*
G36*
X153198810Y-96836361D02*
G01*
X153205369Y-96838947D01*
X153210901Y-96839676D01*
X153284041Y-96869971D01*
X153338353Y-96891389D01*
X153341488Y-96893766D01*
X153343691Y-96894679D01*
X153427933Y-96959320D01*
X153457874Y-96982026D01*
X153480598Y-97011992D01*
X153545220Y-97096208D01*
X153546132Y-97098409D01*
X153548511Y-97101547D01*
X153569939Y-97155887D01*
X153600223Y-97228998D01*
X153600950Y-97234526D01*
X153603539Y-97241090D01*
X153619200Y-97371500D01*
X153619200Y-98371500D01*
X153603539Y-98501910D01*
X153600950Y-98508473D01*
X153600223Y-98514001D01*
X153569948Y-98587091D01*
X153548511Y-98641453D01*
X153546131Y-98644591D01*
X153545220Y-98646791D01*
X153480663Y-98730921D01*
X153457874Y-98760974D01*
X153427821Y-98783763D01*
X153343691Y-98848320D01*
X153341491Y-98849231D01*
X153338353Y-98851611D01*
X153283991Y-98873048D01*
X153210901Y-98903323D01*
X153205373Y-98904050D01*
X153198810Y-98906639D01*
X153068400Y-98922300D01*
X151318400Y-98922300D01*
X151187990Y-98906639D01*
X151181426Y-98904050D01*
X151175898Y-98903323D01*
X151102787Y-98873039D01*
X151048447Y-98851611D01*
X151045309Y-98849232D01*
X151043108Y-98848320D01*
X150958892Y-98783698D01*
X150928926Y-98760974D01*
X150906220Y-98731033D01*
X150841579Y-98646791D01*
X150840666Y-98644588D01*
X150838289Y-98641453D01*
X150816871Y-98587141D01*
X150786576Y-98514001D01*
X150785847Y-98508469D01*
X150783261Y-98501910D01*
X150767600Y-98371500D01*
X150767600Y-97371500D01*
X150783261Y-97241090D01*
X150785847Y-97234530D01*
X150786576Y-97228998D01*
X150816879Y-97155837D01*
X150838289Y-97101547D01*
X150840665Y-97098412D01*
X150841579Y-97096208D01*
X150906285Y-97011881D01*
X150928926Y-96982026D01*
X150958781Y-96959385D01*
X151043108Y-96894679D01*
X151045312Y-96893765D01*
X151048447Y-96891389D01*
X151102737Y-96869979D01*
X151175898Y-96839676D01*
X151181430Y-96838947D01*
X151187990Y-96836361D01*
X151318400Y-96820700D01*
X153068400Y-96820700D01*
X153198810Y-96836361D01*
G37*
G36*
X143071256Y-95988754D02*
G01*
X143234257Y-96056271D01*
X143380954Y-96154291D01*
X143505709Y-96279046D01*
X143603729Y-96425743D01*
X143671246Y-96588744D01*
X143705666Y-96761785D01*
X143705666Y-96938215D01*
X143671246Y-97111256D01*
X143603729Y-97274257D01*
X143505709Y-97420954D01*
X143380954Y-97545709D01*
X143234257Y-97643729D01*
X143071256Y-97711246D01*
X142898215Y-97745666D01*
X142721785Y-97745666D01*
X142548744Y-97711246D01*
X142385743Y-97643729D01*
X142239046Y-97545709D01*
X142114291Y-97420954D01*
X142016271Y-97274257D01*
X141948754Y-97111256D01*
X141914334Y-96938215D01*
X141914334Y-96761785D01*
X141948754Y-96588744D01*
X142016271Y-96425743D01*
X142114291Y-96279046D01*
X142239046Y-96154291D01*
X142385743Y-96056271D01*
X142548744Y-95988754D01*
X142721785Y-95954334D01*
X142898215Y-95954334D01*
X143071256Y-95988754D01*
G37*
G36*
X145518656Y-95931954D02*
G01*
X145681657Y-95999471D01*
X145828354Y-96097491D01*
X145953109Y-96222246D01*
X146051129Y-96368943D01*
X146118646Y-96531944D01*
X146153066Y-96704985D01*
X146153066Y-96881415D01*
X146118646Y-97054456D01*
X146051129Y-97217457D01*
X145953109Y-97364154D01*
X145828354Y-97488909D01*
X145681657Y-97586929D01*
X145518656Y-97654446D01*
X145345615Y-97688866D01*
X145169185Y-97688866D01*
X144996144Y-97654446D01*
X144833143Y-97586929D01*
X144686446Y-97488909D01*
X144561691Y-97364154D01*
X144463671Y-97217457D01*
X144396154Y-97054456D01*
X144361734Y-96881415D01*
X144361734Y-96704985D01*
X144396154Y-96531944D01*
X144463671Y-96368943D01*
X144561691Y-96222246D01*
X144686446Y-96097491D01*
X144833143Y-95999471D01*
X144996144Y-95931954D01*
X145169185Y-95897534D01*
X145345615Y-95897534D01*
X145518656Y-95931954D01*
G37*
G36*
X137033810Y-94296361D02*
G01*
X137040369Y-94298947D01*
X137045901Y-94299676D01*
X137119041Y-94329971D01*
X137173353Y-94351389D01*
X137176488Y-94353766D01*
X137178691Y-94354679D01*
X137262933Y-94419320D01*
X137292874Y-94442026D01*
X137315598Y-94471992D01*
X137380220Y-94556208D01*
X137381132Y-94558409D01*
X137383511Y-94561547D01*
X137404939Y-94615887D01*
X137435223Y-94688998D01*
X137435950Y-94694526D01*
X137438539Y-94701090D01*
X137454200Y-94831500D01*
X137454200Y-95831500D01*
X137438539Y-95961910D01*
X137435950Y-95968473D01*
X137435223Y-95974001D01*
X137404948Y-96047091D01*
X137383511Y-96101453D01*
X137381131Y-96104591D01*
X137380220Y-96106791D01*
X137315663Y-96190921D01*
X137292874Y-96220974D01*
X137262821Y-96243763D01*
X137178691Y-96308320D01*
X137176491Y-96309231D01*
X137173353Y-96311611D01*
X137118991Y-96333048D01*
X137045901Y-96363323D01*
X137040373Y-96364050D01*
X137033810Y-96366639D01*
X136903400Y-96382300D01*
X135153400Y-96382300D01*
X135022990Y-96366639D01*
X135016426Y-96364050D01*
X135010898Y-96363323D01*
X134937787Y-96333039D01*
X134883447Y-96311611D01*
X134880309Y-96309232D01*
X134878108Y-96308320D01*
X134793892Y-96243698D01*
X134763926Y-96220974D01*
X134741220Y-96191033D01*
X134676579Y-96106791D01*
X134675666Y-96104588D01*
X134673289Y-96101453D01*
X134651871Y-96047141D01*
X134621576Y-95974001D01*
X134620847Y-95968469D01*
X134618261Y-95961910D01*
X134602600Y-95831500D01*
X134602600Y-94831500D01*
X134618261Y-94701090D01*
X134620847Y-94694530D01*
X134621576Y-94688998D01*
X134651879Y-94615837D01*
X134673289Y-94561547D01*
X134675665Y-94558412D01*
X134676579Y-94556208D01*
X134741285Y-94471881D01*
X134763926Y-94442026D01*
X134793781Y-94419385D01*
X134878108Y-94354679D01*
X134880312Y-94353765D01*
X134883447Y-94351389D01*
X134937737Y-94329979D01*
X135010898Y-94299676D01*
X135016430Y-94298947D01*
X135022990Y-94296361D01*
X135153400Y-94280700D01*
X136903400Y-94280700D01*
X137033810Y-94296361D01*
G37*
G36*
X153198810Y-94296361D02*
G01*
X153205369Y-94298947D01*
X153210901Y-94299676D01*
X153284041Y-94329971D01*
X153338353Y-94351389D01*
X153341488Y-94353766D01*
X153343691Y-94354679D01*
X153427933Y-94419320D01*
X153457874Y-94442026D01*
X153480598Y-94471992D01*
X153545220Y-94556208D01*
X153546132Y-94558409D01*
X153548511Y-94561547D01*
X153569939Y-94615887D01*
X153600223Y-94688998D01*
X153600950Y-94694526D01*
X153603539Y-94701090D01*
X153619200Y-94831500D01*
X153619200Y-95831500D01*
X153603539Y-95961910D01*
X153600950Y-95968473D01*
X153600223Y-95974001D01*
X153569948Y-96047091D01*
X153548511Y-96101453D01*
X153546131Y-96104591D01*
X153545220Y-96106791D01*
X153480663Y-96190921D01*
X153457874Y-96220974D01*
X153427821Y-96243763D01*
X153343691Y-96308320D01*
X153341491Y-96309231D01*
X153338353Y-96311611D01*
X153283991Y-96333048D01*
X153210901Y-96363323D01*
X153205373Y-96364050D01*
X153198810Y-96366639D01*
X153068400Y-96382300D01*
X151318400Y-96382300D01*
X151187990Y-96366639D01*
X151181426Y-96364050D01*
X151175898Y-96363323D01*
X151102787Y-96333039D01*
X151048447Y-96311611D01*
X151045309Y-96309232D01*
X151043108Y-96308320D01*
X150958892Y-96243698D01*
X150928926Y-96220974D01*
X150906220Y-96191033D01*
X150841579Y-96106791D01*
X150840666Y-96104588D01*
X150838289Y-96101453D01*
X150816871Y-96047141D01*
X150786576Y-95974001D01*
X150785847Y-95968469D01*
X150783261Y-95961910D01*
X150767600Y-95831500D01*
X150767600Y-94831500D01*
X150783261Y-94701090D01*
X150785847Y-94694530D01*
X150786576Y-94688998D01*
X150816879Y-94615837D01*
X150838289Y-94561547D01*
X150840665Y-94558412D01*
X150841579Y-94556208D01*
X150906285Y-94471881D01*
X150928926Y-94442026D01*
X150958781Y-94419385D01*
X151043108Y-94354679D01*
X151045312Y-94353765D01*
X151048447Y-94351389D01*
X151102737Y-94329979D01*
X151175898Y-94299676D01*
X151181430Y-94298947D01*
X151187990Y-94296361D01*
X151318400Y-94280700D01*
X153068400Y-94280700D01*
X153198810Y-94296361D01*
G37*
G36*
X154831185Y-94329782D02*
G01*
X154835342Y-94331617D01*
X154839537Y-94332170D01*
X154892014Y-94356640D01*
X154932041Y-94374314D01*
X154933898Y-94376171D01*
X154934352Y-94376383D01*
X155007929Y-94449960D01*
X155008140Y-94450413D01*
X155009999Y-94452272D01*
X155027681Y-94492320D01*
X155052142Y-94544775D01*
X155052693Y-94548967D01*
X155054531Y-94553128D01*
X155062500Y-94621813D01*
X155062500Y-95521813D01*
X155054531Y-95590498D01*
X155052693Y-95594659D01*
X155052142Y-95598850D01*
X155027690Y-95651287D01*
X155009999Y-95691354D01*
X155008139Y-95693213D01*
X155007929Y-95693665D01*
X154934352Y-95767242D01*
X154933900Y-95767452D01*
X154932041Y-95769312D01*
X154891974Y-95787003D01*
X154839537Y-95811455D01*
X154835346Y-95812006D01*
X154831185Y-95813844D01*
X154762500Y-95821813D01*
X154237500Y-95821813D01*
X154168815Y-95813844D01*
X154164654Y-95812006D01*
X154160462Y-95811455D01*
X154108007Y-95786994D01*
X154067959Y-95769312D01*
X154066100Y-95767453D01*
X154065647Y-95767242D01*
X153992070Y-95693665D01*
X153991858Y-95693211D01*
X153990001Y-95691354D01*
X153972327Y-95651327D01*
X153947857Y-95598850D01*
X153947304Y-95594655D01*
X153945469Y-95590498D01*
X153937500Y-95521813D01*
X153937500Y-94621813D01*
X153945469Y-94553128D01*
X153947304Y-94548970D01*
X153947857Y-94544775D01*
X153972336Y-94492279D01*
X153990001Y-94452272D01*
X153991857Y-94450415D01*
X153992070Y-94449960D01*
X154065647Y-94376383D01*
X154066102Y-94376170D01*
X154067959Y-94374314D01*
X154107966Y-94356649D01*
X154160462Y-94332170D01*
X154164657Y-94331617D01*
X154168815Y-94329782D01*
X154237500Y-94321813D01*
X154762500Y-94321813D01*
X154831185Y-94329782D01*
G37*
G36*
X156656185Y-94329782D02*
G01*
X156660342Y-94331617D01*
X156664537Y-94332170D01*
X156717014Y-94356640D01*
X156757041Y-94374314D01*
X156758898Y-94376171D01*
X156759352Y-94376383D01*
X156832929Y-94449960D01*
X156833140Y-94450413D01*
X156834999Y-94452272D01*
X156852681Y-94492320D01*
X156877142Y-94544775D01*
X156877693Y-94548967D01*
X156879531Y-94553128D01*
X156887500Y-94621813D01*
X156887500Y-95521813D01*
X156879531Y-95590498D01*
X156877693Y-95594659D01*
X156877142Y-95598850D01*
X156852690Y-95651287D01*
X156834999Y-95691354D01*
X156833139Y-95693213D01*
X156832929Y-95693665D01*
X156759352Y-95767242D01*
X156758900Y-95767452D01*
X156757041Y-95769312D01*
X156716974Y-95787003D01*
X156664537Y-95811455D01*
X156660346Y-95812006D01*
X156656185Y-95813844D01*
X156587500Y-95821813D01*
X156062500Y-95821813D01*
X155993815Y-95813844D01*
X155989654Y-95812006D01*
X155985462Y-95811455D01*
X155933007Y-95786994D01*
X155892959Y-95769312D01*
X155891100Y-95767453D01*
X155890647Y-95767242D01*
X155817070Y-95693665D01*
X155816858Y-95693211D01*
X155815001Y-95691354D01*
X155797327Y-95651327D01*
X155772857Y-95598850D01*
X155772304Y-95594655D01*
X155770469Y-95590498D01*
X155762500Y-95521813D01*
X155762500Y-94621813D01*
X155770469Y-94553128D01*
X155772304Y-94548970D01*
X155772857Y-94544775D01*
X155797336Y-94492279D01*
X155815001Y-94452272D01*
X155816857Y-94450415D01*
X155817070Y-94449960D01*
X155890647Y-94376383D01*
X155891102Y-94376170D01*
X155892959Y-94374314D01*
X155932966Y-94356649D01*
X155985462Y-94332170D01*
X155989657Y-94331617D01*
X155993815Y-94329782D01*
X156062500Y-94321813D01*
X156587500Y-94321813D01*
X156656185Y-94329782D01*
G37*
G36*
X158331185Y-94329782D02*
G01*
X158335342Y-94331617D01*
X158339537Y-94332170D01*
X158392014Y-94356640D01*
X158432041Y-94374314D01*
X158433898Y-94376171D01*
X158434352Y-94376383D01*
X158507929Y-94449960D01*
X158508140Y-94450413D01*
X158509999Y-94452272D01*
X158527681Y-94492320D01*
X158552142Y-94544775D01*
X158552693Y-94548967D01*
X158554531Y-94553128D01*
X158562500Y-94621813D01*
X158562500Y-95521813D01*
X158554531Y-95590498D01*
X158552693Y-95594659D01*
X158552142Y-95598850D01*
X158527690Y-95651287D01*
X158509999Y-95691354D01*
X158508139Y-95693213D01*
X158507929Y-95693665D01*
X158434352Y-95767242D01*
X158433900Y-95767452D01*
X158432041Y-95769312D01*
X158391974Y-95787003D01*
X158339537Y-95811455D01*
X158335346Y-95812006D01*
X158331185Y-95813844D01*
X158262500Y-95821813D01*
X157737500Y-95821813D01*
X157668815Y-95813844D01*
X157664654Y-95812006D01*
X157660462Y-95811455D01*
X157608007Y-95786994D01*
X157567959Y-95769312D01*
X157566100Y-95767453D01*
X157565647Y-95767242D01*
X157492070Y-95693665D01*
X157491858Y-95693211D01*
X157490001Y-95691354D01*
X157472327Y-95651327D01*
X157447857Y-95598850D01*
X157447304Y-95594655D01*
X157445469Y-95590498D01*
X157437500Y-95521813D01*
X157437500Y-94621813D01*
X157445469Y-94553128D01*
X157447304Y-94548970D01*
X157447857Y-94544775D01*
X157472336Y-94492279D01*
X157490001Y-94452272D01*
X157491857Y-94450415D01*
X157492070Y-94449960D01*
X157565647Y-94376383D01*
X157566102Y-94376170D01*
X157567959Y-94374314D01*
X157607966Y-94356649D01*
X157660462Y-94332170D01*
X157664657Y-94331617D01*
X157668815Y-94329782D01*
X157737500Y-94321813D01*
X158262500Y-94321813D01*
X158331185Y-94329782D01*
G37*
G36*
X160156185Y-94329782D02*
G01*
X160160342Y-94331617D01*
X160164537Y-94332170D01*
X160217014Y-94356640D01*
X160257041Y-94374314D01*
X160258898Y-94376171D01*
X160259352Y-94376383D01*
X160332929Y-94449960D01*
X160333140Y-94450413D01*
X160334999Y-94452272D01*
X160352681Y-94492320D01*
X160377142Y-94544775D01*
X160377693Y-94548967D01*
X160379531Y-94553128D01*
X160387500Y-94621813D01*
X160387500Y-95521813D01*
X160379531Y-95590498D01*
X160377693Y-95594659D01*
X160377142Y-95598850D01*
X160352690Y-95651287D01*
X160334999Y-95691354D01*
X160333139Y-95693213D01*
X160332929Y-95693665D01*
X160259352Y-95767242D01*
X160258900Y-95767452D01*
X160257041Y-95769312D01*
X160216974Y-95787003D01*
X160164537Y-95811455D01*
X160160346Y-95812006D01*
X160156185Y-95813844D01*
X160087500Y-95821813D01*
X159562500Y-95821813D01*
X159493815Y-95813844D01*
X159489654Y-95812006D01*
X159485462Y-95811455D01*
X159433007Y-95786994D01*
X159392959Y-95769312D01*
X159391100Y-95767453D01*
X159390647Y-95767242D01*
X159317070Y-95693665D01*
X159316858Y-95693211D01*
X159315001Y-95691354D01*
X159297327Y-95651327D01*
X159272857Y-95598850D01*
X159272304Y-95594655D01*
X159270469Y-95590498D01*
X159262500Y-95521813D01*
X159262500Y-94621813D01*
X159270469Y-94553128D01*
X159272304Y-94548970D01*
X159272857Y-94544775D01*
X159297336Y-94492279D01*
X159315001Y-94452272D01*
X159316857Y-94450415D01*
X159317070Y-94449960D01*
X159390647Y-94376383D01*
X159391102Y-94376170D01*
X159392959Y-94374314D01*
X159432966Y-94356649D01*
X159485462Y-94332170D01*
X159489657Y-94331617D01*
X159493815Y-94329782D01*
X159562500Y-94321813D01*
X160087500Y-94321813D01*
X160156185Y-94329782D01*
G37*
G36*
X143071256Y-93448754D02*
G01*
X143234257Y-93516271D01*
X143380954Y-93614291D01*
X143505709Y-93739046D01*
X143603729Y-93885743D01*
X143671246Y-94048744D01*
X143705666Y-94221785D01*
X143705666Y-94398215D01*
X143671246Y-94571256D01*
X143603729Y-94734257D01*
X143505709Y-94880954D01*
X143380954Y-95005709D01*
X143234257Y-95103729D01*
X143071256Y-95171246D01*
X142898215Y-95205666D01*
X142721785Y-95205666D01*
X142548744Y-95171246D01*
X142385743Y-95103729D01*
X142239046Y-95005709D01*
X142114291Y-94880954D01*
X142016271Y-94734257D01*
X141948754Y-94571256D01*
X141914334Y-94398215D01*
X141914334Y-94221785D01*
X141948754Y-94048744D01*
X142016271Y-93885743D01*
X142114291Y-93739046D01*
X142239046Y-93614291D01*
X142385743Y-93516271D01*
X142548744Y-93448754D01*
X142721785Y-93414334D01*
X142898215Y-93414334D01*
X143071256Y-93448754D01*
G37*
G36*
X145611256Y-93448754D02*
G01*
X145774257Y-93516271D01*
X145920954Y-93614291D01*
X146045709Y-93739046D01*
X146143729Y-93885743D01*
X146211246Y-94048744D01*
X146245666Y-94221785D01*
X146245666Y-94398215D01*
X146211246Y-94571256D01*
X146143729Y-94734257D01*
X146045709Y-94880954D01*
X145920954Y-95005709D01*
X145774257Y-95103729D01*
X145611256Y-95171246D01*
X145438215Y-95205666D01*
X145261785Y-95205666D01*
X145088744Y-95171246D01*
X144925743Y-95103729D01*
X144779046Y-95005709D01*
X144654291Y-94880954D01*
X144556271Y-94734257D01*
X144488754Y-94571256D01*
X144454334Y-94398215D01*
X144454334Y-94221785D01*
X144488754Y-94048744D01*
X144556271Y-93885743D01*
X144654291Y-93739046D01*
X144779046Y-93614291D01*
X144925743Y-93516271D01*
X145088744Y-93448754D01*
X145261785Y-93414334D01*
X145438215Y-93414334D01*
X145611256Y-93448754D01*
G37*
G36*
X137033810Y-91756361D02*
G01*
X137040369Y-91758947D01*
X137045901Y-91759676D01*
X137119041Y-91789971D01*
X137173353Y-91811389D01*
X137176488Y-91813766D01*
X137178691Y-91814679D01*
X137262933Y-91879320D01*
X137292874Y-91902026D01*
X137315598Y-91931992D01*
X137380220Y-92016208D01*
X137381132Y-92018409D01*
X137383511Y-92021547D01*
X137404939Y-92075887D01*
X137435223Y-92148998D01*
X137435950Y-92154526D01*
X137438539Y-92161090D01*
X137454200Y-92291500D01*
X137454200Y-93291500D01*
X137438539Y-93421910D01*
X137435950Y-93428473D01*
X137435223Y-93434001D01*
X137404948Y-93507091D01*
X137383511Y-93561453D01*
X137381131Y-93564591D01*
X137380220Y-93566791D01*
X137315663Y-93650921D01*
X137292874Y-93680974D01*
X137262821Y-93703763D01*
X137178691Y-93768320D01*
X137176491Y-93769231D01*
X137173353Y-93771611D01*
X137118991Y-93793048D01*
X137045901Y-93823323D01*
X137040373Y-93824050D01*
X137033810Y-93826639D01*
X136903400Y-93842300D01*
X135153400Y-93842300D01*
X135022990Y-93826639D01*
X135016426Y-93824050D01*
X135010898Y-93823323D01*
X134937787Y-93793039D01*
X134883447Y-93771611D01*
X134880309Y-93769232D01*
X134878108Y-93768320D01*
X134793892Y-93703698D01*
X134763926Y-93680974D01*
X134741220Y-93651033D01*
X134676579Y-93566791D01*
X134675666Y-93564588D01*
X134673289Y-93561453D01*
X134651871Y-93507141D01*
X134621576Y-93434001D01*
X134620847Y-93428469D01*
X134618261Y-93421910D01*
X134602600Y-93291500D01*
X134602600Y-92291500D01*
X134618261Y-92161090D01*
X134620847Y-92154530D01*
X134621576Y-92148998D01*
X134651879Y-92075837D01*
X134673289Y-92021547D01*
X134675665Y-92018412D01*
X134676579Y-92016208D01*
X134741285Y-91931881D01*
X134763926Y-91902026D01*
X134793781Y-91879385D01*
X134878108Y-91814679D01*
X134880312Y-91813765D01*
X134883447Y-91811389D01*
X134937737Y-91789979D01*
X135010898Y-91759676D01*
X135016430Y-91758947D01*
X135022990Y-91756361D01*
X135153400Y-91740700D01*
X136903400Y-91740700D01*
X137033810Y-91756361D01*
G37*
G36*
X153198810Y-91756361D02*
G01*
X153205369Y-91758947D01*
X153210901Y-91759676D01*
X153284041Y-91789971D01*
X153338353Y-91811389D01*
X153341488Y-91813766D01*
X153343691Y-91814679D01*
X153427933Y-91879320D01*
X153457874Y-91902026D01*
X153480598Y-91931992D01*
X153545220Y-92016208D01*
X153546132Y-92018409D01*
X153548511Y-92021547D01*
X153569939Y-92075887D01*
X153600223Y-92148998D01*
X153600950Y-92154526D01*
X153603539Y-92161090D01*
X153619200Y-92291500D01*
X153619200Y-93291500D01*
X153603539Y-93421910D01*
X153600950Y-93428473D01*
X153600223Y-93434001D01*
X153569948Y-93507091D01*
X153548511Y-93561453D01*
X153546131Y-93564591D01*
X153545220Y-93566791D01*
X153480663Y-93650921D01*
X153457874Y-93680974D01*
X153427821Y-93703763D01*
X153343691Y-93768320D01*
X153341491Y-93769231D01*
X153338353Y-93771611D01*
X153283991Y-93793048D01*
X153210901Y-93823323D01*
X153205373Y-93824050D01*
X153198810Y-93826639D01*
X153068400Y-93842300D01*
X151318400Y-93842300D01*
X151187990Y-93826639D01*
X151181426Y-93824050D01*
X151175898Y-93823323D01*
X151102787Y-93793039D01*
X151048447Y-93771611D01*
X151045309Y-93769232D01*
X151043108Y-93768320D01*
X150958892Y-93703698D01*
X150928926Y-93680974D01*
X150906220Y-93651033D01*
X150841579Y-93566791D01*
X150840666Y-93564588D01*
X150838289Y-93561453D01*
X150816871Y-93507141D01*
X150786576Y-93434001D01*
X150785847Y-93428469D01*
X150783261Y-93421910D01*
X150767600Y-93291500D01*
X150767600Y-92291500D01*
X150783261Y-92161090D01*
X150785847Y-92154530D01*
X150786576Y-92148998D01*
X150816879Y-92075837D01*
X150838289Y-92021547D01*
X150840665Y-92018412D01*
X150841579Y-92016208D01*
X150906285Y-91931881D01*
X150928926Y-91902026D01*
X150958781Y-91879385D01*
X151043108Y-91814679D01*
X151045312Y-91813765D01*
X151048447Y-91811389D01*
X151102737Y-91789979D01*
X151175898Y-91759676D01*
X151181430Y-91758947D01*
X151187990Y-91756361D01*
X151318400Y-91740700D01*
X153068400Y-91740700D01*
X153198810Y-91756361D01*
G37*
G36*
X155518462Y-89631775D02*
G01*
X155690086Y-89687539D01*
X155850873Y-89769464D01*
X155996865Y-89875533D01*
X156124467Y-90003135D01*
X156230536Y-90149127D01*
X156312461Y-90309914D01*
X156368225Y-90481538D01*
X156396455Y-90659772D01*
X156400000Y-90750000D01*
X156400000Y-92050000D01*
X156396455Y-92140228D01*
X156368225Y-92318462D01*
X156312461Y-92490086D01*
X156230536Y-92650873D01*
X156124467Y-92796865D01*
X155996865Y-92924467D01*
X155850873Y-93030536D01*
X155690086Y-93112461D01*
X155518462Y-93168225D01*
X155340228Y-93196455D01*
X155159772Y-93196455D01*
X154981538Y-93168225D01*
X154809914Y-93112461D01*
X154649127Y-93030536D01*
X154503135Y-92924467D01*
X154375533Y-92796865D01*
X154269464Y-92650873D01*
X154187539Y-92490086D01*
X154131775Y-92318462D01*
X154103545Y-92140228D01*
X154100000Y-92050000D01*
X154100000Y-90750000D01*
X154103545Y-90659772D01*
X154131775Y-90481538D01*
X154187539Y-90309914D01*
X154269464Y-90149127D01*
X154375533Y-90003135D01*
X154503135Y-89875533D01*
X154649127Y-89769464D01*
X154809914Y-89687539D01*
X154981538Y-89631775D01*
X155159772Y-89603545D01*
X155340228Y-89603545D01*
X155518462Y-89631775D01*
G37*
G36*
X163718462Y-89631775D02*
G01*
X163890086Y-89687539D01*
X164050873Y-89769464D01*
X164196865Y-89875533D01*
X164324467Y-90003135D01*
X164430536Y-90149127D01*
X164512461Y-90309914D01*
X164568225Y-90481538D01*
X164596455Y-90659772D01*
X164600000Y-90750000D01*
X164600000Y-92050000D01*
X164596455Y-92140228D01*
X164568225Y-92318462D01*
X164512461Y-92490086D01*
X164430536Y-92650873D01*
X164324467Y-92796865D01*
X164196865Y-92924467D01*
X164050873Y-93030536D01*
X163890086Y-93112461D01*
X163718462Y-93168225D01*
X163540228Y-93196455D01*
X163359772Y-93196455D01*
X163181538Y-93168225D01*
X163009914Y-93112461D01*
X162849127Y-93030536D01*
X162703135Y-92924467D01*
X162575533Y-92796865D01*
X162469464Y-92650873D01*
X162387539Y-92490086D01*
X162331775Y-92318462D01*
X162303545Y-92140228D01*
X162300000Y-92050000D01*
X162300000Y-90750000D01*
X162303545Y-90659772D01*
X162331775Y-90481538D01*
X162387539Y-90309914D01*
X162469464Y-90149127D01*
X162575533Y-90003135D01*
X162703135Y-89875533D01*
X162849127Y-89769464D01*
X163009914Y-89687539D01*
X163181538Y-89631775D01*
X163359772Y-89603545D01*
X163540228Y-89603545D01*
X163718462Y-89631775D01*
G37*
G36*
X162119134Y-90103806D02*
G01*
X162135355Y-90114645D01*
X162146194Y-90130866D01*
X162150000Y-90150000D01*
X162150000Y-92650000D01*
X162146194Y-92669134D01*
X162135355Y-92685355D01*
X162119134Y-92696194D01*
X162100000Y-92700000D01*
X160600000Y-92700000D01*
X160580866Y-92696194D01*
X160564645Y-92685355D01*
X160553806Y-92669134D01*
X160550000Y-92650000D01*
X160550000Y-90150000D01*
X160553806Y-90130866D01*
X160564645Y-90114645D01*
X160580866Y-90103806D01*
X160600000Y-90100000D01*
X162100000Y-90100000D01*
X162119134Y-90103806D01*
G37*
G36*
X157582228Y-90134448D02*
G01*
X157727117Y-90194463D01*
X157857515Y-90281592D01*
X157968408Y-90392485D01*
X158055537Y-90522883D01*
X158115552Y-90667772D01*
X158146148Y-90821586D01*
X158150000Y-90900000D01*
X158150000Y-91900000D01*
X158146148Y-91978414D01*
X158115552Y-92132228D01*
X158055537Y-92277117D01*
X157968408Y-92407515D01*
X157857515Y-92518408D01*
X157727117Y-92605537D01*
X157582228Y-92665552D01*
X157428414Y-92696148D01*
X157271586Y-92696148D01*
X157117772Y-92665552D01*
X156972883Y-92605537D01*
X156842485Y-92518408D01*
X156731592Y-92407515D01*
X156644463Y-92277117D01*
X156584448Y-92132228D01*
X156553852Y-91978414D01*
X156550000Y-91900000D01*
X156550000Y-90900000D01*
X156553852Y-90821586D01*
X156584448Y-90667772D01*
X156644463Y-90522883D01*
X156731592Y-90392485D01*
X156842485Y-90281592D01*
X156972883Y-90194463D01*
X157117772Y-90134448D01*
X157271586Y-90103852D01*
X157428414Y-90103852D01*
X157582228Y-90134448D01*
G37*
G36*
X159582228Y-90134448D02*
G01*
X159727117Y-90194463D01*
X159857515Y-90281592D01*
X159968408Y-90392485D01*
X160055537Y-90522883D01*
X160115552Y-90667772D01*
X160146148Y-90821586D01*
X160150000Y-90900000D01*
X160150000Y-91900000D01*
X160146148Y-91978414D01*
X160115552Y-92132228D01*
X160055537Y-92277117D01*
X159968408Y-92407515D01*
X159857515Y-92518408D01*
X159727117Y-92605537D01*
X159582228Y-92665552D01*
X159428414Y-92696148D01*
X159271586Y-92696148D01*
X159117772Y-92665552D01*
X158972883Y-92605537D01*
X158842485Y-92518408D01*
X158731592Y-92407515D01*
X158644463Y-92277117D01*
X158584448Y-92132228D01*
X158553852Y-91978414D01*
X158550000Y-91900000D01*
X158550000Y-90900000D01*
X158553852Y-90821586D01*
X158584448Y-90667772D01*
X158644463Y-90522883D01*
X158731592Y-90392485D01*
X158842485Y-90281592D01*
X158972883Y-90194463D01*
X159117772Y-90134448D01*
X159271586Y-90103852D01*
X159428414Y-90103852D01*
X159582228Y-90134448D01*
G37*
G36*
X143071256Y-90908754D02*
G01*
X143234257Y-90976271D01*
X143380954Y-91074291D01*
X143505709Y-91199046D01*
X143603729Y-91345743D01*
X143671246Y-91508744D01*
X143705666Y-91681785D01*
X143705666Y-91858215D01*
X143671246Y-92031256D01*
X143603729Y-92194257D01*
X143505709Y-92340954D01*
X143380954Y-92465709D01*
X143234257Y-92563729D01*
X143071256Y-92631246D01*
X142898215Y-92665666D01*
X142721785Y-92665666D01*
X142548744Y-92631246D01*
X142385743Y-92563729D01*
X142239046Y-92465709D01*
X142114291Y-92340954D01*
X142016271Y-92194257D01*
X141948754Y-92031256D01*
X141914334Y-91858215D01*
X141914334Y-91681785D01*
X141948754Y-91508744D01*
X142016271Y-91345743D01*
X142114291Y-91199046D01*
X142239046Y-91074291D01*
X142385743Y-90976271D01*
X142548744Y-90908754D01*
X142721785Y-90874334D01*
X142898215Y-90874334D01*
X143071256Y-90908754D01*
G37*
G36*
X145611256Y-90908754D02*
G01*
X145774257Y-90976271D01*
X145920954Y-91074291D01*
X146045709Y-91199046D01*
X146143729Y-91345743D01*
X146211246Y-91508744D01*
X146245666Y-91681785D01*
X146245666Y-91858215D01*
X146211246Y-92031256D01*
X146143729Y-92194257D01*
X146045709Y-92340954D01*
X145920954Y-92465709D01*
X145774257Y-92563729D01*
X145611256Y-92631246D01*
X145438215Y-92665666D01*
X145261785Y-92665666D01*
X145088744Y-92631246D01*
X144925743Y-92563729D01*
X144779046Y-92465709D01*
X144654291Y-92340954D01*
X144556271Y-92194257D01*
X144488754Y-92031256D01*
X144454334Y-91858215D01*
X144454334Y-91681785D01*
X144488754Y-91508744D01*
X144556271Y-91345743D01*
X144654291Y-91199046D01*
X144779046Y-91074291D01*
X144925743Y-90976271D01*
X145088744Y-90908754D01*
X145261785Y-90874334D01*
X145438215Y-90874334D01*
X145611256Y-90908754D01*
G37*
G36*
X137033810Y-89216361D02*
G01*
X137040369Y-89218947D01*
X137045901Y-89219676D01*
X137119041Y-89249971D01*
X137173353Y-89271389D01*
X137176488Y-89273766D01*
X137178691Y-89274679D01*
X137262933Y-89339320D01*
X137292874Y-89362026D01*
X137315598Y-89391992D01*
X137380220Y-89476208D01*
X137381132Y-89478409D01*
X137383511Y-89481547D01*
X137404939Y-89535887D01*
X137435223Y-89608998D01*
X137435950Y-89614526D01*
X137438539Y-89621090D01*
X137454200Y-89751500D01*
X137454200Y-90751500D01*
X137438539Y-90881910D01*
X137435950Y-90888473D01*
X137435223Y-90894001D01*
X137404948Y-90967091D01*
X137383511Y-91021453D01*
X137381131Y-91024591D01*
X137380220Y-91026791D01*
X137315663Y-91110921D01*
X137292874Y-91140974D01*
X137262821Y-91163763D01*
X137178691Y-91228320D01*
X137176491Y-91229231D01*
X137173353Y-91231611D01*
X137118991Y-91253048D01*
X137045901Y-91283323D01*
X137040373Y-91284050D01*
X137033810Y-91286639D01*
X136903400Y-91302300D01*
X135153400Y-91302300D01*
X135022990Y-91286639D01*
X135016426Y-91284050D01*
X135010898Y-91283323D01*
X134937787Y-91253039D01*
X134883447Y-91231611D01*
X134880309Y-91229232D01*
X134878108Y-91228320D01*
X134793892Y-91163698D01*
X134763926Y-91140974D01*
X134741220Y-91111033D01*
X134676579Y-91026791D01*
X134675666Y-91024588D01*
X134673289Y-91021453D01*
X134651871Y-90967141D01*
X134621576Y-90894001D01*
X134620847Y-90888469D01*
X134618261Y-90881910D01*
X134602600Y-90751500D01*
X134602600Y-89751500D01*
X134618261Y-89621090D01*
X134620847Y-89614530D01*
X134621576Y-89608998D01*
X134651879Y-89535837D01*
X134673289Y-89481547D01*
X134675665Y-89478412D01*
X134676579Y-89476208D01*
X134741285Y-89391881D01*
X134763926Y-89362026D01*
X134793781Y-89339385D01*
X134878108Y-89274679D01*
X134880312Y-89273765D01*
X134883447Y-89271389D01*
X134937737Y-89249979D01*
X135010898Y-89219676D01*
X135016430Y-89218947D01*
X135022990Y-89216361D01*
X135153400Y-89200700D01*
X136903400Y-89200700D01*
X137033810Y-89216361D01*
G37*
G36*
X153198810Y-89216361D02*
G01*
X153205369Y-89218947D01*
X153210901Y-89219676D01*
X153284041Y-89249971D01*
X153338353Y-89271389D01*
X153341488Y-89273766D01*
X153343691Y-89274679D01*
X153427933Y-89339320D01*
X153457874Y-89362026D01*
X153480598Y-89391992D01*
X153545220Y-89476208D01*
X153546132Y-89478409D01*
X153548511Y-89481547D01*
X153569939Y-89535887D01*
X153600223Y-89608998D01*
X153600950Y-89614526D01*
X153603539Y-89621090D01*
X153619200Y-89751500D01*
X153619200Y-90751500D01*
X153603539Y-90881910D01*
X153600950Y-90888473D01*
X153600223Y-90894001D01*
X153569948Y-90967091D01*
X153548511Y-91021453D01*
X153546131Y-91024591D01*
X153545220Y-91026791D01*
X153480663Y-91110921D01*
X153457874Y-91140974D01*
X153427821Y-91163763D01*
X153343691Y-91228320D01*
X153341491Y-91229231D01*
X153338353Y-91231611D01*
X153283991Y-91253048D01*
X153210901Y-91283323D01*
X153205373Y-91284050D01*
X153198810Y-91286639D01*
X153068400Y-91302300D01*
X151318400Y-91302300D01*
X151187990Y-91286639D01*
X151181426Y-91284050D01*
X151175898Y-91283323D01*
X151102787Y-91253039D01*
X151048447Y-91231611D01*
X151045309Y-91229232D01*
X151043108Y-91228320D01*
X150958892Y-91163698D01*
X150928926Y-91140974D01*
X150906220Y-91111033D01*
X150841579Y-91026791D01*
X150840666Y-91024588D01*
X150838289Y-91021453D01*
X150816871Y-90967141D01*
X150786576Y-90894001D01*
X150785847Y-90888469D01*
X150783261Y-90881910D01*
X150767600Y-90751500D01*
X150767600Y-89751500D01*
X150783261Y-89621090D01*
X150785847Y-89614530D01*
X150786576Y-89608998D01*
X150816879Y-89535837D01*
X150838289Y-89481547D01*
X150840665Y-89478412D01*
X150841579Y-89476208D01*
X150906285Y-89391881D01*
X150928926Y-89362026D01*
X150958781Y-89339385D01*
X151043108Y-89274679D01*
X151045312Y-89273765D01*
X151048447Y-89271389D01*
X151102737Y-89249979D01*
X151175898Y-89219676D01*
X151181430Y-89218947D01*
X151187990Y-89216361D01*
X151318400Y-89200700D01*
X153068400Y-89200700D01*
X153198810Y-89216361D01*
G37*
G36*
X143071256Y-88368754D02*
G01*
X143234257Y-88436271D01*
X143380954Y-88534291D01*
X143505709Y-88659046D01*
X143603729Y-88805743D01*
X143671246Y-88968744D01*
X143705666Y-89141785D01*
X143705666Y-89318215D01*
X143671246Y-89491256D01*
X143603729Y-89654257D01*
X143505709Y-89800954D01*
X143380954Y-89925709D01*
X143234257Y-90023729D01*
X143071256Y-90091246D01*
X142898215Y-90125666D01*
X142721785Y-90125666D01*
X142548744Y-90091246D01*
X142385743Y-90023729D01*
X142239046Y-89925709D01*
X142114291Y-89800954D01*
X142016271Y-89654257D01*
X141948754Y-89491256D01*
X141914334Y-89318215D01*
X141914334Y-89141785D01*
X141948754Y-88968744D01*
X142016271Y-88805743D01*
X142114291Y-88659046D01*
X142239046Y-88534291D01*
X142385743Y-88436271D01*
X142548744Y-88368754D01*
X142721785Y-88334334D01*
X142898215Y-88334334D01*
X143071256Y-88368754D01*
G37*
G36*
X145611256Y-88368754D02*
G01*
X145774257Y-88436271D01*
X145920954Y-88534291D01*
X146045709Y-88659046D01*
X146143729Y-88805743D01*
X146211246Y-88968744D01*
X146245666Y-89141785D01*
X146245666Y-89318215D01*
X146211246Y-89491256D01*
X146143729Y-89654257D01*
X146045709Y-89800954D01*
X145920954Y-89925709D01*
X145774257Y-90023729D01*
X145611256Y-90091246D01*
X145438215Y-90125666D01*
X145261785Y-90125666D01*
X145088744Y-90091246D01*
X144925743Y-90023729D01*
X144779046Y-89925709D01*
X144654291Y-89800954D01*
X144556271Y-89654257D01*
X144488754Y-89491256D01*
X144454334Y-89318215D01*
X144454334Y-89141785D01*
X144488754Y-88968744D01*
X144556271Y-88805743D01*
X144654291Y-88659046D01*
X144779046Y-88534291D01*
X144925743Y-88436271D01*
X145088744Y-88368754D01*
X145261785Y-88334334D01*
X145438215Y-88334334D01*
X145611256Y-88368754D01*
G37*
M02*
