G04 #@! TF.GenerationSoftware,KiCad,Pcbnew,9.0.0*
G04 #@! TF.CreationDate,2025-09-23T11:37:30-05:00*
G04 #@! TF.ProjectId,eidon-tracker,6569646f-6e2d-4747-9261-636b65722e6b,rev?*
G04 #@! TF.SameCoordinates,Original*
G04 #@! TF.FileFunction,Legend,Bot*
G04 #@! TF.FilePolarity,Positive*
%FSLAX46Y46*%
G04 Gerber Fmt 4.6, Leading zero omitted, Abs format (unit mm)*
G04 Created by KiCad (PCBNEW 9.0.0) date 2025-09-23 11:37:30*
%MOMM*%
%LPD*%
G01*
G04 APERTURE LIST*
G04 Aperture macros list*
%AMRoundRect*
0 Rectangle with rounded corners*
0 $1 Rounding radius*
0 $2 $3 $4 $5 $6 $7 $8 $9 X,Y pos of 4 corners*
0 Add a 4 corners polygon primitive as box body*
4,1,4,$2,$3,$4,$5,$6,$7,$8,$9,$2,$3,0*
0 Add four circle primitives for the rounded corners*
1,1,$1+$1,$2,$3*
1,1,$1+$1,$4,$5*
1,1,$1+$1,$6,$7*
1,1,$1+$1,$8,$9*
0 Add four rect primitives between the rounded corners*
20,1,$1+$1,$2,$3,$4,$5,0*
20,1,$1+$1,$4,$5,$6,$7,0*
20,1,$1+$1,$6,$7,$8,$9,0*
20,1,$1+$1,$8,$9,$2,$3,0*%
G04 Aperture macros list end*
%ADD10C,0.100000*%
%ADD11C,0.062500*%
%ADD12C,0.101600*%
%ADD13C,0.120000*%
%ADD14C,0.127000*%
%ADD15C,0.504000*%
%ADD16C,0.000000*%
%ADD17C,2.100000*%
%ADD18RoundRect,0.177778X0.622222X1.372222X-0.622222X1.372222X-0.622222X-1.372222X0.622222X-1.372222X0*%
%ADD19RoundRect,0.261111X-0.913889X-1.288889X0.913889X-1.288889X0.913889X1.288889X-0.913889X1.288889X0*%
%ADD20RoundRect,0.490000X0.490000X0.685000X-0.490000X0.685000X-0.490000X-0.685000X0.490000X-0.685000X0*%
%ADD21RoundRect,0.261111X-1.288889X-0.913889X1.288889X-0.913889X1.288889X0.913889X-1.288889X0.913889X0*%
%ADD22RoundRect,0.270833X0.379167X0.654167X-0.379167X0.654167X-0.379167X-0.654167X0.379167X-0.654167X0*%
%ADD23O,1.300000X1.850000*%
%ADD24RoundRect,0.050000X0.750000X1.250000X-0.750000X1.250000X-0.750000X-1.250000X0.750000X-1.250000X0*%
%ADD25O,1.600000X2.600000*%
%ADD26O,2.300000X3.600000*%
%ADD27RoundRect,0.268750X0.481250X-0.268750X0.481250X0.268750X-0.481250X0.268750X-0.481250X-0.268750X0*%
%ADD28C,4.100000*%
%ADD29RoundRect,0.274390X-0.475610X0.288110X-0.475610X-0.288110X0.475610X-0.288110X0.475610X0.288110X0*%
%ADD30RoundRect,0.225000X-0.225000X-0.825000X0.225000X-0.825000X0.225000X0.825000X-0.225000X0.825000X0*%
G04 APERTURE END LIST*
D10*
X146258890Y-88533206D02*
X145958890Y-88533206D01*
X145830318Y-89004635D02*
X146258890Y-89004635D01*
X146258890Y-89004635D02*
X146258890Y-88104635D01*
X146258890Y-88104635D02*
X145830318Y-88104635D01*
X145444604Y-89004635D02*
X145444604Y-88104635D01*
X145016033Y-89004635D02*
X145016033Y-88104635D01*
X145016033Y-88104635D02*
X144801747Y-88104635D01*
X144801747Y-88104635D02*
X144673176Y-88147492D01*
X144673176Y-88147492D02*
X144587461Y-88233206D01*
X144587461Y-88233206D02*
X144544604Y-88318920D01*
X144544604Y-88318920D02*
X144501747Y-88490349D01*
X144501747Y-88490349D02*
X144501747Y-88618920D01*
X144501747Y-88618920D02*
X144544604Y-88790349D01*
X144544604Y-88790349D02*
X144587461Y-88876063D01*
X144587461Y-88876063D02*
X144673176Y-88961778D01*
X144673176Y-88961778D02*
X144801747Y-89004635D01*
X144801747Y-89004635D02*
X145016033Y-89004635D01*
X143944604Y-88104635D02*
X143773176Y-88104635D01*
X143773176Y-88104635D02*
X143687461Y-88147492D01*
X143687461Y-88147492D02*
X143601747Y-88233206D01*
X143601747Y-88233206D02*
X143558890Y-88404635D01*
X143558890Y-88404635D02*
X143558890Y-88704635D01*
X143558890Y-88704635D02*
X143601747Y-88876063D01*
X143601747Y-88876063D02*
X143687461Y-88961778D01*
X143687461Y-88961778D02*
X143773176Y-89004635D01*
X143773176Y-89004635D02*
X143944604Y-89004635D01*
X143944604Y-89004635D02*
X144030319Y-88961778D01*
X144030319Y-88961778D02*
X144116033Y-88876063D01*
X144116033Y-88876063D02*
X144158890Y-88704635D01*
X144158890Y-88704635D02*
X144158890Y-88404635D01*
X144158890Y-88404635D02*
X144116033Y-88233206D01*
X144116033Y-88233206D02*
X144030319Y-88147492D01*
X144030319Y-88147492D02*
X143944604Y-88104635D01*
X143173176Y-89004635D02*
X143173176Y-88104635D01*
X143173176Y-88104635D02*
X142658890Y-89004635D01*
X142658890Y-89004635D02*
X142658890Y-88104635D01*
X142230319Y-88918920D02*
X142187462Y-88961778D01*
X142187462Y-88961778D02*
X142230319Y-89004635D01*
X142230319Y-89004635D02*
X142273176Y-88961778D01*
X142273176Y-88961778D02*
X142230319Y-88918920D01*
X142230319Y-88918920D02*
X142230319Y-89004635D01*
X141844605Y-88747492D02*
X141416034Y-88747492D01*
X141930319Y-89004635D02*
X141630319Y-88104635D01*
X141630319Y-88104635D02*
X141330319Y-89004635D01*
X141030319Y-89004635D02*
X141030319Y-88104635D01*
X139873176Y-88318920D02*
X139958891Y-88276063D01*
X139958891Y-88276063D02*
X140130319Y-88276063D01*
X140130319Y-88276063D02*
X140216034Y-88318920D01*
X140216034Y-88318920D02*
X140301748Y-88404635D01*
X140301748Y-88404635D02*
X140344605Y-88490349D01*
X140344605Y-88490349D02*
X140344605Y-88661778D01*
X140344605Y-88661778D02*
X140301748Y-88747492D01*
X140301748Y-88747492D02*
X140216034Y-88833206D01*
X140216034Y-88833206D02*
X140130319Y-88876063D01*
X140130319Y-88876063D02*
X139958891Y-88876063D01*
X139958891Y-88876063D02*
X139873176Y-88833206D01*
X140044605Y-87976063D02*
X140258891Y-88018920D01*
X140258891Y-88018920D02*
X140473176Y-88147492D01*
X140473176Y-88147492D02*
X140601748Y-88361778D01*
X140601748Y-88361778D02*
X140644605Y-88576063D01*
X140644605Y-88576063D02*
X140601748Y-88790349D01*
X140601748Y-88790349D02*
X140473176Y-89004635D01*
X140473176Y-89004635D02*
X140258891Y-89133206D01*
X140258891Y-89133206D02*
X140044605Y-89176063D01*
X140044605Y-89176063D02*
X139830319Y-89133206D01*
X139830319Y-89133206D02*
X139616034Y-89004635D01*
X139616034Y-89004635D02*
X139487462Y-88790349D01*
X139487462Y-88790349D02*
X139444605Y-88576063D01*
X139444605Y-88576063D02*
X139487462Y-88361778D01*
X139487462Y-88361778D02*
X139616034Y-88147492D01*
X139616034Y-88147492D02*
X139830319Y-88018920D01*
X139830319Y-88018920D02*
X140044605Y-87976063D01*
X139101748Y-88190349D02*
X139058891Y-88147492D01*
X139058891Y-88147492D02*
X138973177Y-88104635D01*
X138973177Y-88104635D02*
X138758891Y-88104635D01*
X138758891Y-88104635D02*
X138673177Y-88147492D01*
X138673177Y-88147492D02*
X138630319Y-88190349D01*
X138630319Y-88190349D02*
X138587462Y-88276063D01*
X138587462Y-88276063D02*
X138587462Y-88361778D01*
X138587462Y-88361778D02*
X138630319Y-88490349D01*
X138630319Y-88490349D02*
X139144605Y-89004635D01*
X139144605Y-89004635D02*
X138587462Y-89004635D01*
X138030319Y-88104635D02*
X137944605Y-88104635D01*
X137944605Y-88104635D02*
X137858891Y-88147492D01*
X137858891Y-88147492D02*
X137816034Y-88190349D01*
X137816034Y-88190349D02*
X137773176Y-88276063D01*
X137773176Y-88276063D02*
X137730319Y-88447492D01*
X137730319Y-88447492D02*
X137730319Y-88661778D01*
X137730319Y-88661778D02*
X137773176Y-88833206D01*
X137773176Y-88833206D02*
X137816034Y-88918920D01*
X137816034Y-88918920D02*
X137858891Y-88961778D01*
X137858891Y-88961778D02*
X137944605Y-89004635D01*
X137944605Y-89004635D02*
X138030319Y-89004635D01*
X138030319Y-89004635D02*
X138116034Y-88961778D01*
X138116034Y-88961778D02*
X138158891Y-88918920D01*
X138158891Y-88918920D02*
X138201748Y-88833206D01*
X138201748Y-88833206D02*
X138244605Y-88661778D01*
X138244605Y-88661778D02*
X138244605Y-88447492D01*
X138244605Y-88447492D02*
X138201748Y-88276063D01*
X138201748Y-88276063D02*
X138158891Y-88190349D01*
X138158891Y-88190349D02*
X138116034Y-88147492D01*
X138116034Y-88147492D02*
X138030319Y-88104635D01*
X137387462Y-88190349D02*
X137344605Y-88147492D01*
X137344605Y-88147492D02*
X137258891Y-88104635D01*
X137258891Y-88104635D02*
X137044605Y-88104635D01*
X137044605Y-88104635D02*
X136958891Y-88147492D01*
X136958891Y-88147492D02*
X136916033Y-88190349D01*
X136916033Y-88190349D02*
X136873176Y-88276063D01*
X136873176Y-88276063D02*
X136873176Y-88361778D01*
X136873176Y-88361778D02*
X136916033Y-88490349D01*
X136916033Y-88490349D02*
X137430319Y-89004635D01*
X137430319Y-89004635D02*
X136873176Y-89004635D01*
X136058890Y-88104635D02*
X136487462Y-88104635D01*
X136487462Y-88104635D02*
X136530319Y-88533206D01*
X136530319Y-88533206D02*
X136487462Y-88490349D01*
X136487462Y-88490349D02*
X136401748Y-88447492D01*
X136401748Y-88447492D02*
X136187462Y-88447492D01*
X136187462Y-88447492D02*
X136101748Y-88490349D01*
X136101748Y-88490349D02*
X136058890Y-88533206D01*
X136058890Y-88533206D02*
X136016033Y-88618920D01*
X136016033Y-88618920D02*
X136016033Y-88833206D01*
X136016033Y-88833206D02*
X136058890Y-88918920D01*
X136058890Y-88918920D02*
X136101748Y-88961778D01*
X136101748Y-88961778D02*
X136187462Y-89004635D01*
X136187462Y-89004635D02*
X136401748Y-89004635D01*
X136401748Y-89004635D02*
X136487462Y-88961778D01*
X136487462Y-88961778D02*
X136530319Y-88918920D01*
X162115789Y-88533206D02*
X161815789Y-88533206D01*
X161687217Y-89004635D02*
X162115789Y-89004635D01*
X162115789Y-89004635D02*
X162115789Y-88104635D01*
X162115789Y-88104635D02*
X161687217Y-88104635D01*
X161301503Y-89004635D02*
X161301503Y-88104635D01*
X160872932Y-89004635D02*
X160872932Y-88104635D01*
X160872932Y-88104635D02*
X160658646Y-88104635D01*
X160658646Y-88104635D02*
X160530075Y-88147492D01*
X160530075Y-88147492D02*
X160444360Y-88233206D01*
X160444360Y-88233206D02*
X160401503Y-88318920D01*
X160401503Y-88318920D02*
X160358646Y-88490349D01*
X160358646Y-88490349D02*
X160358646Y-88618920D01*
X160358646Y-88618920D02*
X160401503Y-88790349D01*
X160401503Y-88790349D02*
X160444360Y-88876063D01*
X160444360Y-88876063D02*
X160530075Y-88961778D01*
X160530075Y-88961778D02*
X160658646Y-89004635D01*
X160658646Y-89004635D02*
X160872932Y-89004635D01*
X159801503Y-88104635D02*
X159630075Y-88104635D01*
X159630075Y-88104635D02*
X159544360Y-88147492D01*
X159544360Y-88147492D02*
X159458646Y-88233206D01*
X159458646Y-88233206D02*
X159415789Y-88404635D01*
X159415789Y-88404635D02*
X159415789Y-88704635D01*
X159415789Y-88704635D02*
X159458646Y-88876063D01*
X159458646Y-88876063D02*
X159544360Y-88961778D01*
X159544360Y-88961778D02*
X159630075Y-89004635D01*
X159630075Y-89004635D02*
X159801503Y-89004635D01*
X159801503Y-89004635D02*
X159887218Y-88961778D01*
X159887218Y-88961778D02*
X159972932Y-88876063D01*
X159972932Y-88876063D02*
X160015789Y-88704635D01*
X160015789Y-88704635D02*
X160015789Y-88404635D01*
X160015789Y-88404635D02*
X159972932Y-88233206D01*
X159972932Y-88233206D02*
X159887218Y-88147492D01*
X159887218Y-88147492D02*
X159801503Y-88104635D01*
X159030075Y-89004635D02*
X159030075Y-88104635D01*
X159030075Y-88104635D02*
X158515789Y-89004635D01*
X158515789Y-89004635D02*
X158515789Y-88104635D01*
X158087218Y-88661778D02*
X157401504Y-88661778D01*
X157101503Y-88104635D02*
X156587218Y-88104635D01*
X156844360Y-89004635D02*
X156844360Y-88104635D01*
X155772932Y-89004635D02*
X156072932Y-88576063D01*
X156287218Y-89004635D02*
X156287218Y-88104635D01*
X156287218Y-88104635D02*
X155944361Y-88104635D01*
X155944361Y-88104635D02*
X155858646Y-88147492D01*
X155858646Y-88147492D02*
X155815789Y-88190349D01*
X155815789Y-88190349D02*
X155772932Y-88276063D01*
X155772932Y-88276063D02*
X155772932Y-88404635D01*
X155772932Y-88404635D02*
X155815789Y-88490349D01*
X155815789Y-88490349D02*
X155858646Y-88533206D01*
X155858646Y-88533206D02*
X155944361Y-88576063D01*
X155944361Y-88576063D02*
X156287218Y-88576063D01*
X155430075Y-88747492D02*
X155001504Y-88747492D01*
X155515789Y-89004635D02*
X155215789Y-88104635D01*
X155215789Y-88104635D02*
X154915789Y-89004635D01*
X154101503Y-88918920D02*
X154144360Y-88961778D01*
X154144360Y-88961778D02*
X154272932Y-89004635D01*
X154272932Y-89004635D02*
X154358646Y-89004635D01*
X154358646Y-89004635D02*
X154487217Y-88961778D01*
X154487217Y-88961778D02*
X154572932Y-88876063D01*
X154572932Y-88876063D02*
X154615789Y-88790349D01*
X154615789Y-88790349D02*
X154658646Y-88618920D01*
X154658646Y-88618920D02*
X154658646Y-88490349D01*
X154658646Y-88490349D02*
X154615789Y-88318920D01*
X154615789Y-88318920D02*
X154572932Y-88233206D01*
X154572932Y-88233206D02*
X154487217Y-88147492D01*
X154487217Y-88147492D02*
X154358646Y-88104635D01*
X154358646Y-88104635D02*
X154272932Y-88104635D01*
X154272932Y-88104635D02*
X154144360Y-88147492D01*
X154144360Y-88147492D02*
X154101503Y-88190349D01*
X153715789Y-89004635D02*
X153715789Y-88104635D01*
X153201503Y-89004635D02*
X153587217Y-88490349D01*
X153201503Y-88104635D02*
X153715789Y-88618920D01*
X152815789Y-88533206D02*
X152515789Y-88533206D01*
X152387217Y-89004635D02*
X152815789Y-89004635D01*
X152815789Y-89004635D02*
X152815789Y-88104635D01*
X152815789Y-88104635D02*
X152387217Y-88104635D01*
X151487217Y-89004635D02*
X151787217Y-88576063D01*
X152001503Y-89004635D02*
X152001503Y-88104635D01*
X152001503Y-88104635D02*
X151658646Y-88104635D01*
X151658646Y-88104635D02*
X151572931Y-88147492D01*
X151572931Y-88147492D02*
X151530074Y-88190349D01*
X151530074Y-88190349D02*
X151487217Y-88276063D01*
X151487217Y-88276063D02*
X151487217Y-88404635D01*
X151487217Y-88404635D02*
X151530074Y-88490349D01*
X151530074Y-88490349D02*
X151572931Y-88533206D01*
X151572931Y-88533206D02*
X151658646Y-88576063D01*
X151658646Y-88576063D02*
X152001503Y-88576063D01*
X153715789Y-89553585D02*
X153415789Y-90453585D01*
X153415789Y-90453585D02*
X153115789Y-89553585D01*
X152644360Y-89553585D02*
X152558646Y-89553585D01*
X152558646Y-89553585D02*
X152472932Y-89596442D01*
X152472932Y-89596442D02*
X152430075Y-89639299D01*
X152430075Y-89639299D02*
X152387217Y-89725013D01*
X152387217Y-89725013D02*
X152344360Y-89896442D01*
X152344360Y-89896442D02*
X152344360Y-90110728D01*
X152344360Y-90110728D02*
X152387217Y-90282156D01*
X152387217Y-90282156D02*
X152430075Y-90367870D01*
X152430075Y-90367870D02*
X152472932Y-90410728D01*
X152472932Y-90410728D02*
X152558646Y-90453585D01*
X152558646Y-90453585D02*
X152644360Y-90453585D01*
X152644360Y-90453585D02*
X152730075Y-90410728D01*
X152730075Y-90410728D02*
X152772932Y-90367870D01*
X152772932Y-90367870D02*
X152815789Y-90282156D01*
X152815789Y-90282156D02*
X152858646Y-90110728D01*
X152858646Y-90110728D02*
X152858646Y-89896442D01*
X152858646Y-89896442D02*
X152815789Y-89725013D01*
X152815789Y-89725013D02*
X152772932Y-89639299D01*
X152772932Y-89639299D02*
X152730075Y-89596442D01*
X152730075Y-89596442D02*
X152644360Y-89553585D01*
X152044360Y-89553585D02*
X151487217Y-89553585D01*
X151487217Y-89553585D02*
X151787217Y-89896442D01*
X151787217Y-89896442D02*
X151658646Y-89896442D01*
X151658646Y-89896442D02*
X151572932Y-89939299D01*
X151572932Y-89939299D02*
X151530074Y-89982156D01*
X151530074Y-89982156D02*
X151487217Y-90067870D01*
X151487217Y-90067870D02*
X151487217Y-90282156D01*
X151487217Y-90282156D02*
X151530074Y-90367870D01*
X151530074Y-90367870D02*
X151572932Y-90410728D01*
X151572932Y-90410728D02*
X151658646Y-90453585D01*
X151658646Y-90453585D02*
X151915789Y-90453585D01*
X151915789Y-90453585D02*
X152001503Y-90410728D01*
X152001503Y-90410728D02*
X152044360Y-90367870D01*
X135159020Y-90026812D02*
X135111401Y-90026812D01*
X135111401Y-90026812D02*
X135063782Y-90050622D01*
X135063782Y-90050622D02*
X135039972Y-90074431D01*
X135039972Y-90074431D02*
X135016163Y-90122050D01*
X135016163Y-90122050D02*
X134992353Y-90217288D01*
X134992353Y-90217288D02*
X134992353Y-90336336D01*
X134992353Y-90336336D02*
X135016163Y-90431574D01*
X135016163Y-90431574D02*
X135039972Y-90479193D01*
X135039972Y-90479193D02*
X135063782Y-90503003D01*
X135063782Y-90503003D02*
X135111401Y-90526812D01*
X135111401Y-90526812D02*
X135159020Y-90526812D01*
X135159020Y-90526812D02*
X135206639Y-90503003D01*
X135206639Y-90503003D02*
X135230448Y-90479193D01*
X135230448Y-90479193D02*
X135254258Y-90431574D01*
X135254258Y-90431574D02*
X135278067Y-90336336D01*
X135278067Y-90336336D02*
X135278067Y-90217288D01*
X135278067Y-90217288D02*
X135254258Y-90122050D01*
X135254258Y-90122050D02*
X135230448Y-90074431D01*
X135230448Y-90074431D02*
X135206639Y-90050622D01*
X135206639Y-90050622D02*
X135159020Y-90026812D01*
X134992353Y-93116812D02*
X135278067Y-93116812D01*
X135135210Y-93116812D02*
X135135210Y-92616812D01*
X135135210Y-92616812D02*
X135182829Y-92688241D01*
X135182829Y-92688241D02*
X135230448Y-92735860D01*
X135230448Y-92735860D02*
X135278067Y-92759669D01*
X154182930Y-100212105D02*
X154159121Y-100188296D01*
X154159121Y-100188296D02*
X154111502Y-100164486D01*
X154111502Y-100164486D02*
X153992454Y-100164486D01*
X153992454Y-100164486D02*
X153944835Y-100188296D01*
X153944835Y-100188296D02*
X153921026Y-100212105D01*
X153921026Y-100212105D02*
X153897216Y-100259724D01*
X153897216Y-100259724D02*
X153897216Y-100307343D01*
X153897216Y-100307343D02*
X153921026Y-100378772D01*
X153921026Y-100378772D02*
X154206740Y-100664486D01*
X154206740Y-100664486D02*
X153897216Y-100664486D01*
X153587693Y-100164486D02*
X153540074Y-100164486D01*
X153540074Y-100164486D02*
X153492455Y-100188296D01*
X153492455Y-100188296D02*
X153468645Y-100212105D01*
X153468645Y-100212105D02*
X153444836Y-100259724D01*
X153444836Y-100259724D02*
X153421026Y-100354962D01*
X153421026Y-100354962D02*
X153421026Y-100474010D01*
X153421026Y-100474010D02*
X153444836Y-100569248D01*
X153444836Y-100569248D02*
X153468645Y-100616867D01*
X153468645Y-100616867D02*
X153492455Y-100640677D01*
X153492455Y-100640677D02*
X153540074Y-100664486D01*
X153540074Y-100664486D02*
X153587693Y-100664486D01*
X153587693Y-100664486D02*
X153635312Y-100640677D01*
X153635312Y-100640677D02*
X153659121Y-100616867D01*
X153659121Y-100616867D02*
X153682931Y-100569248D01*
X153682931Y-100569248D02*
X153706740Y-100474010D01*
X153706740Y-100474010D02*
X153706740Y-100354962D01*
X153706740Y-100354962D02*
X153682931Y-100259724D01*
X153682931Y-100259724D02*
X153659121Y-100212105D01*
X153659121Y-100212105D02*
X153635312Y-100188296D01*
X153635312Y-100188296D02*
X153587693Y-100164486D01*
X145771115Y-105491466D02*
X145009211Y-105491466D01*
X153897216Y-103164486D02*
X154182930Y-103164486D01*
X154040073Y-103164486D02*
X154040073Y-102664486D01*
X154040073Y-102664486D02*
X154087692Y-102735915D01*
X154087692Y-102735915D02*
X154135311Y-102783534D01*
X154135311Y-102783534D02*
X154182930Y-102807343D01*
X153659121Y-103164486D02*
X153563883Y-103164486D01*
X153563883Y-103164486D02*
X153516264Y-103140677D01*
X153516264Y-103140677D02*
X153492455Y-103116867D01*
X153492455Y-103116867D02*
X153444836Y-103045438D01*
X153444836Y-103045438D02*
X153421026Y-102950200D01*
X153421026Y-102950200D02*
X153421026Y-102759724D01*
X153421026Y-102759724D02*
X153444836Y-102712105D01*
X153444836Y-102712105D02*
X153468645Y-102688296D01*
X153468645Y-102688296D02*
X153516264Y-102664486D01*
X153516264Y-102664486D02*
X153611502Y-102664486D01*
X153611502Y-102664486D02*
X153659121Y-102688296D01*
X153659121Y-102688296D02*
X153682931Y-102712105D01*
X153682931Y-102712105D02*
X153706740Y-102759724D01*
X153706740Y-102759724D02*
X153706740Y-102878772D01*
X153706740Y-102878772D02*
X153682931Y-102926391D01*
X153682931Y-102926391D02*
X153659121Y-102950200D01*
X153659121Y-102950200D02*
X153611502Y-102974010D01*
X153611502Y-102974010D02*
X153516264Y-102974010D01*
X153516264Y-102974010D02*
X153468645Y-102950200D01*
X153468645Y-102950200D02*
X153444836Y-102926391D01*
X153444836Y-102926391D02*
X153421026Y-102878772D01*
X135278067Y-97704431D02*
X135254258Y-97680622D01*
X135254258Y-97680622D02*
X135206639Y-97656812D01*
X135206639Y-97656812D02*
X135087591Y-97656812D01*
X135087591Y-97656812D02*
X135039972Y-97680622D01*
X135039972Y-97680622D02*
X135016163Y-97704431D01*
X135016163Y-97704431D02*
X134992353Y-97752050D01*
X134992353Y-97752050D02*
X134992353Y-97799669D01*
X134992353Y-97799669D02*
X135016163Y-97871098D01*
X135016163Y-97871098D02*
X135301877Y-98156812D01*
X135301877Y-98156812D02*
X134992353Y-98156812D01*
X134516163Y-98156812D02*
X134801877Y-98156812D01*
X134659020Y-98156812D02*
X134659020Y-97656812D01*
X134659020Y-97656812D02*
X134706639Y-97728241D01*
X134706639Y-97728241D02*
X134754258Y-97775860D01*
X134754258Y-97775860D02*
X134801877Y-97799669D01*
X135278067Y-102724431D02*
X135254258Y-102700622D01*
X135254258Y-102700622D02*
X135206639Y-102676812D01*
X135206639Y-102676812D02*
X135087591Y-102676812D01*
X135087591Y-102676812D02*
X135039972Y-102700622D01*
X135039972Y-102700622D02*
X135016163Y-102724431D01*
X135016163Y-102724431D02*
X134992353Y-102772050D01*
X134992353Y-102772050D02*
X134992353Y-102819669D01*
X134992353Y-102819669D02*
X135016163Y-102891098D01*
X135016163Y-102891098D02*
X135301877Y-103176812D01*
X135301877Y-103176812D02*
X134992353Y-103176812D01*
X134825687Y-102676812D02*
X134516163Y-102676812D01*
X134516163Y-102676812D02*
X134682830Y-102867288D01*
X134682830Y-102867288D02*
X134611401Y-102867288D01*
X134611401Y-102867288D02*
X134563782Y-102891098D01*
X134563782Y-102891098D02*
X134539973Y-102914907D01*
X134539973Y-102914907D02*
X134516163Y-102962526D01*
X134516163Y-102962526D02*
X134516163Y-103081574D01*
X134516163Y-103081574D02*
X134539973Y-103129193D01*
X134539973Y-103129193D02*
X134563782Y-103153003D01*
X134563782Y-103153003D02*
X134611401Y-103176812D01*
X134611401Y-103176812D02*
X134754258Y-103176812D01*
X134754258Y-103176812D02*
X134801877Y-103153003D01*
X134801877Y-103153003D02*
X134825687Y-103129193D01*
X142421115Y-105491466D02*
X141659211Y-105491466D01*
X142040163Y-105872419D02*
X142040163Y-105110514D01*
D11*
X144169046Y-105673654D02*
X144097618Y-105697464D01*
X144097618Y-105697464D02*
X144073808Y-105721273D01*
X144073808Y-105721273D02*
X144049999Y-105768892D01*
X144049999Y-105768892D02*
X144049999Y-105840321D01*
X144049999Y-105840321D02*
X144073808Y-105887940D01*
X144073808Y-105887940D02*
X144097618Y-105911750D01*
X144097618Y-105911750D02*
X144145237Y-105935559D01*
X144145237Y-105935559D02*
X144335713Y-105935559D01*
X144335713Y-105935559D02*
X144335713Y-105435559D01*
X144335713Y-105435559D02*
X144169046Y-105435559D01*
X144169046Y-105435559D02*
X144121427Y-105459369D01*
X144121427Y-105459369D02*
X144097618Y-105483178D01*
X144097618Y-105483178D02*
X144073808Y-105530797D01*
X144073808Y-105530797D02*
X144073808Y-105578416D01*
X144073808Y-105578416D02*
X144097618Y-105626035D01*
X144097618Y-105626035D02*
X144121427Y-105649845D01*
X144121427Y-105649845D02*
X144169046Y-105673654D01*
X144169046Y-105673654D02*
X144335713Y-105673654D01*
X143859522Y-105792702D02*
X143621427Y-105792702D01*
X143907141Y-105935559D02*
X143740475Y-105435559D01*
X143740475Y-105435559D02*
X143573808Y-105935559D01*
X143478570Y-105435559D02*
X143192856Y-105435559D01*
X143335713Y-105935559D02*
X143335713Y-105435559D01*
D10*
X153947216Y-98144486D02*
X154232930Y-98144486D01*
X154090073Y-98144486D02*
X154090073Y-97644486D01*
X154090073Y-97644486D02*
X154137692Y-97715915D01*
X154137692Y-97715915D02*
X154185311Y-97763534D01*
X154185311Y-97763534D02*
X154232930Y-97787343D01*
X153661502Y-97858772D02*
X153709121Y-97834962D01*
X153709121Y-97834962D02*
X153732931Y-97811153D01*
X153732931Y-97811153D02*
X153756740Y-97763534D01*
X153756740Y-97763534D02*
X153756740Y-97739724D01*
X153756740Y-97739724D02*
X153732931Y-97692105D01*
X153732931Y-97692105D02*
X153709121Y-97668296D01*
X153709121Y-97668296D02*
X153661502Y-97644486D01*
X153661502Y-97644486D02*
X153566264Y-97644486D01*
X153566264Y-97644486D02*
X153518645Y-97668296D01*
X153518645Y-97668296D02*
X153494836Y-97692105D01*
X153494836Y-97692105D02*
X153471026Y-97739724D01*
X153471026Y-97739724D02*
X153471026Y-97763534D01*
X153471026Y-97763534D02*
X153494836Y-97811153D01*
X153494836Y-97811153D02*
X153518645Y-97834962D01*
X153518645Y-97834962D02*
X153566264Y-97858772D01*
X153566264Y-97858772D02*
X153661502Y-97858772D01*
X153661502Y-97858772D02*
X153709121Y-97882581D01*
X153709121Y-97882581D02*
X153732931Y-97906391D01*
X153732931Y-97906391D02*
X153756740Y-97954010D01*
X153756740Y-97954010D02*
X153756740Y-98049248D01*
X153756740Y-98049248D02*
X153732931Y-98096867D01*
X153732931Y-98096867D02*
X153709121Y-98120677D01*
X153709121Y-98120677D02*
X153661502Y-98144486D01*
X153661502Y-98144486D02*
X153566264Y-98144486D01*
X153566264Y-98144486D02*
X153518645Y-98120677D01*
X153518645Y-98120677D02*
X153494836Y-98096867D01*
X153494836Y-98096867D02*
X153471026Y-98049248D01*
X153471026Y-98049248D02*
X153471026Y-97954010D01*
X153471026Y-97954010D02*
X153494836Y-97906391D01*
X153494836Y-97906391D02*
X153518645Y-97882581D01*
X153518645Y-97882581D02*
X153566264Y-97858772D01*
X153947216Y-105764486D02*
X154232930Y-105764486D01*
X154090073Y-105764486D02*
X154090073Y-105264486D01*
X154090073Y-105264486D02*
X154137692Y-105335915D01*
X154137692Y-105335915D02*
X154185311Y-105383534D01*
X154185311Y-105383534D02*
X154232930Y-105407343D01*
X153780550Y-105264486D02*
X153447217Y-105264486D01*
X153447217Y-105264486D02*
X153661502Y-105764486D01*
D11*
X143078571Y-98773654D02*
X143007143Y-98797464D01*
X143007143Y-98797464D02*
X142983333Y-98821273D01*
X142983333Y-98821273D02*
X142959524Y-98868892D01*
X142959524Y-98868892D02*
X142959524Y-98940321D01*
X142959524Y-98940321D02*
X142983333Y-98987940D01*
X142983333Y-98987940D02*
X143007143Y-99011750D01*
X143007143Y-99011750D02*
X143054762Y-99035559D01*
X143054762Y-99035559D02*
X143245238Y-99035559D01*
X143245238Y-99035559D02*
X143245238Y-98535559D01*
X143245238Y-98535559D02*
X143078571Y-98535559D01*
X143078571Y-98535559D02*
X143030952Y-98559369D01*
X143030952Y-98559369D02*
X143007143Y-98583178D01*
X143007143Y-98583178D02*
X142983333Y-98630797D01*
X142983333Y-98630797D02*
X142983333Y-98678416D01*
X142983333Y-98678416D02*
X143007143Y-98726035D01*
X143007143Y-98726035D02*
X143030952Y-98749845D01*
X143030952Y-98749845D02*
X143078571Y-98773654D01*
X143078571Y-98773654D02*
X143245238Y-98773654D01*
X142650000Y-98535559D02*
X142554762Y-98535559D01*
X142554762Y-98535559D02*
X142507143Y-98559369D01*
X142507143Y-98559369D02*
X142459524Y-98606988D01*
X142459524Y-98606988D02*
X142435714Y-98702226D01*
X142435714Y-98702226D02*
X142435714Y-98868892D01*
X142435714Y-98868892D02*
X142459524Y-98964130D01*
X142459524Y-98964130D02*
X142507143Y-99011750D01*
X142507143Y-99011750D02*
X142554762Y-99035559D01*
X142554762Y-99035559D02*
X142650000Y-99035559D01*
X142650000Y-99035559D02*
X142697619Y-99011750D01*
X142697619Y-99011750D02*
X142745238Y-98964130D01*
X142745238Y-98964130D02*
X142769047Y-98868892D01*
X142769047Y-98868892D02*
X142769047Y-98702226D01*
X142769047Y-98702226D02*
X142745238Y-98606988D01*
X142745238Y-98606988D02*
X142697619Y-98559369D01*
X142697619Y-98559369D02*
X142650000Y-98535559D01*
X142126190Y-98535559D02*
X142030952Y-98535559D01*
X142030952Y-98535559D02*
X141983333Y-98559369D01*
X141983333Y-98559369D02*
X141935714Y-98606988D01*
X141935714Y-98606988D02*
X141911904Y-98702226D01*
X141911904Y-98702226D02*
X141911904Y-98868892D01*
X141911904Y-98868892D02*
X141935714Y-98964130D01*
X141935714Y-98964130D02*
X141983333Y-99011750D01*
X141983333Y-99011750D02*
X142030952Y-99035559D01*
X142030952Y-99035559D02*
X142126190Y-99035559D01*
X142126190Y-99035559D02*
X142173809Y-99011750D01*
X142173809Y-99011750D02*
X142221428Y-98964130D01*
X142221428Y-98964130D02*
X142245237Y-98868892D01*
X142245237Y-98868892D02*
X142245237Y-98702226D01*
X142245237Y-98702226D02*
X142221428Y-98606988D01*
X142221428Y-98606988D02*
X142173809Y-98559369D01*
X142173809Y-98559369D02*
X142126190Y-98535559D01*
X141769046Y-98535559D02*
X141483332Y-98535559D01*
X141626189Y-99035559D02*
X141626189Y-98535559D01*
D10*
X135278067Y-95204431D02*
X135254258Y-95180622D01*
X135254258Y-95180622D02*
X135206639Y-95156812D01*
X135206639Y-95156812D02*
X135087591Y-95156812D01*
X135087591Y-95156812D02*
X135039972Y-95180622D01*
X135039972Y-95180622D02*
X135016163Y-95204431D01*
X135016163Y-95204431D02*
X134992353Y-95252050D01*
X134992353Y-95252050D02*
X134992353Y-95299669D01*
X134992353Y-95299669D02*
X135016163Y-95371098D01*
X135016163Y-95371098D02*
X135301877Y-95656812D01*
X135301877Y-95656812D02*
X134992353Y-95656812D01*
X135278067Y-100224431D02*
X135254258Y-100200622D01*
X135254258Y-100200622D02*
X135206639Y-100176812D01*
X135206639Y-100176812D02*
X135087591Y-100176812D01*
X135087591Y-100176812D02*
X135039972Y-100200622D01*
X135039972Y-100200622D02*
X135016163Y-100224431D01*
X135016163Y-100224431D02*
X134992353Y-100272050D01*
X134992353Y-100272050D02*
X134992353Y-100319669D01*
X134992353Y-100319669D02*
X135016163Y-100391098D01*
X135016163Y-100391098D02*
X135301877Y-100676812D01*
X135301877Y-100676812D02*
X134992353Y-100676812D01*
X134801877Y-100224431D02*
X134778068Y-100200622D01*
X134778068Y-100200622D02*
X134730449Y-100176812D01*
X134730449Y-100176812D02*
X134611401Y-100176812D01*
X134611401Y-100176812D02*
X134563782Y-100200622D01*
X134563782Y-100200622D02*
X134539973Y-100224431D01*
X134539973Y-100224431D02*
X134516163Y-100272050D01*
X134516163Y-100272050D02*
X134516163Y-100319669D01*
X134516163Y-100319669D02*
X134539973Y-100391098D01*
X134539973Y-100391098D02*
X134825687Y-100676812D01*
X134825687Y-100676812D02*
X134516163Y-100676812D01*
X143462203Y-92976109D02*
X143462203Y-92476109D01*
X143462203Y-92476109D02*
X143343155Y-92476109D01*
X143343155Y-92476109D02*
X143271727Y-92499919D01*
X143271727Y-92499919D02*
X143224108Y-92547538D01*
X143224108Y-92547538D02*
X143200298Y-92595157D01*
X143200298Y-92595157D02*
X143176489Y-92690395D01*
X143176489Y-92690395D02*
X143176489Y-92761823D01*
X143176489Y-92761823D02*
X143200298Y-92857061D01*
X143200298Y-92857061D02*
X143224108Y-92904680D01*
X143224108Y-92904680D02*
X143271727Y-92952300D01*
X143271727Y-92952300D02*
X143343155Y-92976109D01*
X143343155Y-92976109D02*
X143462203Y-92976109D01*
X142700298Y-92976109D02*
X142986012Y-92976109D01*
X142843155Y-92976109D02*
X142843155Y-92476109D01*
X142843155Y-92476109D02*
X142890774Y-92547538D01*
X142890774Y-92547538D02*
X142938393Y-92595157D01*
X142938393Y-92595157D02*
X142986012Y-92618966D01*
X159446741Y-96367519D02*
X159446741Y-96772281D01*
X159446741Y-96772281D02*
X159422931Y-96819900D01*
X159422931Y-96819900D02*
X159399122Y-96843710D01*
X159399122Y-96843710D02*
X159351503Y-96867519D01*
X159351503Y-96867519D02*
X159256265Y-96867519D01*
X159256265Y-96867519D02*
X159208646Y-96843710D01*
X159208646Y-96843710D02*
X159184836Y-96819900D01*
X159184836Y-96819900D02*
X159161027Y-96772281D01*
X159161027Y-96772281D02*
X159161027Y-96367519D01*
X158946740Y-96415138D02*
X158922931Y-96391329D01*
X158922931Y-96391329D02*
X158875312Y-96367519D01*
X158875312Y-96367519D02*
X158756264Y-96367519D01*
X158756264Y-96367519D02*
X158708645Y-96391329D01*
X158708645Y-96391329D02*
X158684836Y-96415138D01*
X158684836Y-96415138D02*
X158661026Y-96462757D01*
X158661026Y-96462757D02*
X158661026Y-96510376D01*
X158661026Y-96510376D02*
X158684836Y-96581805D01*
X158684836Y-96581805D02*
X158970550Y-96867519D01*
X158970550Y-96867519D02*
X158661026Y-96867519D01*
X136207142Y-108333609D02*
X136207142Y-107833609D01*
X136207142Y-107833609D02*
X136016666Y-107833609D01*
X136016666Y-107833609D02*
X135969047Y-107857419D01*
X135969047Y-107857419D02*
X135945237Y-107881228D01*
X135945237Y-107881228D02*
X135921428Y-107928847D01*
X135921428Y-107928847D02*
X135921428Y-108000276D01*
X135921428Y-108000276D02*
X135945237Y-108047895D01*
X135945237Y-108047895D02*
X135969047Y-108071704D01*
X135969047Y-108071704D02*
X136016666Y-108095514D01*
X136016666Y-108095514D02*
X136207142Y-108095514D01*
X135730951Y-108309800D02*
X135659523Y-108333609D01*
X135659523Y-108333609D02*
X135540475Y-108333609D01*
X135540475Y-108333609D02*
X135492856Y-108309800D01*
X135492856Y-108309800D02*
X135469047Y-108285990D01*
X135469047Y-108285990D02*
X135445237Y-108238371D01*
X135445237Y-108238371D02*
X135445237Y-108190752D01*
X135445237Y-108190752D02*
X135469047Y-108143133D01*
X135469047Y-108143133D02*
X135492856Y-108119323D01*
X135492856Y-108119323D02*
X135540475Y-108095514D01*
X135540475Y-108095514D02*
X135635713Y-108071704D01*
X135635713Y-108071704D02*
X135683332Y-108047895D01*
X135683332Y-108047895D02*
X135707142Y-108024085D01*
X135707142Y-108024085D02*
X135730951Y-107976466D01*
X135730951Y-107976466D02*
X135730951Y-107928847D01*
X135730951Y-107928847D02*
X135707142Y-107881228D01*
X135707142Y-107881228D02*
X135683332Y-107857419D01*
X135683332Y-107857419D02*
X135635713Y-107833609D01*
X135635713Y-107833609D02*
X135516666Y-107833609D01*
X135516666Y-107833609D02*
X135445237Y-107857419D01*
X135135714Y-107833609D02*
X135088095Y-107833609D01*
X135088095Y-107833609D02*
X135040476Y-107857419D01*
X135040476Y-107857419D02*
X135016666Y-107881228D01*
X135016666Y-107881228D02*
X134992857Y-107928847D01*
X134992857Y-107928847D02*
X134969047Y-108024085D01*
X134969047Y-108024085D02*
X134969047Y-108143133D01*
X134969047Y-108143133D02*
X134992857Y-108238371D01*
X134992857Y-108238371D02*
X135016666Y-108285990D01*
X135016666Y-108285990D02*
X135040476Y-108309800D01*
X135040476Y-108309800D02*
X135088095Y-108333609D01*
X135088095Y-108333609D02*
X135135714Y-108333609D01*
X135135714Y-108333609D02*
X135183333Y-108309800D01*
X135183333Y-108309800D02*
X135207142Y-108285990D01*
X135207142Y-108285990D02*
X135230952Y-108238371D01*
X135230952Y-108238371D02*
X135254761Y-108143133D01*
X135254761Y-108143133D02*
X135254761Y-108024085D01*
X135254761Y-108024085D02*
X135230952Y-107928847D01*
X135230952Y-107928847D02*
X135207142Y-107881228D01*
X135207142Y-107881228D02*
X135183333Y-107857419D01*
X135183333Y-107857419D02*
X135135714Y-107833609D01*
X138807142Y-108333609D02*
X138807142Y-107833609D01*
X138807142Y-107833609D02*
X138616666Y-107833609D01*
X138616666Y-107833609D02*
X138569047Y-107857419D01*
X138569047Y-107857419D02*
X138545237Y-107881228D01*
X138545237Y-107881228D02*
X138521428Y-107928847D01*
X138521428Y-107928847D02*
X138521428Y-108000276D01*
X138521428Y-108000276D02*
X138545237Y-108047895D01*
X138545237Y-108047895D02*
X138569047Y-108071704D01*
X138569047Y-108071704D02*
X138616666Y-108095514D01*
X138616666Y-108095514D02*
X138807142Y-108095514D01*
X138330951Y-108309800D02*
X138259523Y-108333609D01*
X138259523Y-108333609D02*
X138140475Y-108333609D01*
X138140475Y-108333609D02*
X138092856Y-108309800D01*
X138092856Y-108309800D02*
X138069047Y-108285990D01*
X138069047Y-108285990D02*
X138045237Y-108238371D01*
X138045237Y-108238371D02*
X138045237Y-108190752D01*
X138045237Y-108190752D02*
X138069047Y-108143133D01*
X138069047Y-108143133D02*
X138092856Y-108119323D01*
X138092856Y-108119323D02*
X138140475Y-108095514D01*
X138140475Y-108095514D02*
X138235713Y-108071704D01*
X138235713Y-108071704D02*
X138283332Y-108047895D01*
X138283332Y-108047895D02*
X138307142Y-108024085D01*
X138307142Y-108024085D02*
X138330951Y-107976466D01*
X138330951Y-107976466D02*
X138330951Y-107928847D01*
X138330951Y-107928847D02*
X138307142Y-107881228D01*
X138307142Y-107881228D02*
X138283332Y-107857419D01*
X138283332Y-107857419D02*
X138235713Y-107833609D01*
X138235713Y-107833609D02*
X138116666Y-107833609D01*
X138116666Y-107833609D02*
X138045237Y-107857419D01*
X137569047Y-108333609D02*
X137854761Y-108333609D01*
X137711904Y-108333609D02*
X137711904Y-107833609D01*
X137711904Y-107833609D02*
X137759523Y-107905038D01*
X137759523Y-107905038D02*
X137807142Y-107952657D01*
X137807142Y-107952657D02*
X137854761Y-107976466D01*
X154042856Y-108309800D02*
X153971428Y-108333609D01*
X153971428Y-108333609D02*
X153852380Y-108333609D01*
X153852380Y-108333609D02*
X153804761Y-108309800D01*
X153804761Y-108309800D02*
X153780952Y-108285990D01*
X153780952Y-108285990D02*
X153757142Y-108238371D01*
X153757142Y-108238371D02*
X153757142Y-108190752D01*
X153757142Y-108190752D02*
X153780952Y-108143133D01*
X153780952Y-108143133D02*
X153804761Y-108119323D01*
X153804761Y-108119323D02*
X153852380Y-108095514D01*
X153852380Y-108095514D02*
X153947618Y-108071704D01*
X153947618Y-108071704D02*
X153995237Y-108047895D01*
X153995237Y-108047895D02*
X154019047Y-108024085D01*
X154019047Y-108024085D02*
X154042856Y-107976466D01*
X154042856Y-107976466D02*
X154042856Y-107928847D01*
X154042856Y-107928847D02*
X154019047Y-107881228D01*
X154019047Y-107881228D02*
X153995237Y-107857419D01*
X153995237Y-107857419D02*
X153947618Y-107833609D01*
X153947618Y-107833609D02*
X153828571Y-107833609D01*
X153828571Y-107833609D02*
X153757142Y-107857419D01*
X153257143Y-108285990D02*
X153280952Y-108309800D01*
X153280952Y-108309800D02*
X153352381Y-108333609D01*
X153352381Y-108333609D02*
X153400000Y-108333609D01*
X153400000Y-108333609D02*
X153471428Y-108309800D01*
X153471428Y-108309800D02*
X153519047Y-108262180D01*
X153519047Y-108262180D02*
X153542857Y-108214561D01*
X153542857Y-108214561D02*
X153566666Y-108119323D01*
X153566666Y-108119323D02*
X153566666Y-108047895D01*
X153566666Y-108047895D02*
X153542857Y-107952657D01*
X153542857Y-107952657D02*
X153519047Y-107905038D01*
X153519047Y-107905038D02*
X153471428Y-107857419D01*
X153471428Y-107857419D02*
X153400000Y-107833609D01*
X153400000Y-107833609D02*
X153352381Y-107833609D01*
X153352381Y-107833609D02*
X153280952Y-107857419D01*
X153280952Y-107857419D02*
X153257143Y-107881228D01*
X153042857Y-108333609D02*
X153042857Y-107833609D01*
X152757143Y-108333609D02*
X152971428Y-108047895D01*
X152757143Y-107833609D02*
X153042857Y-108119323D01*
D12*
X149988809Y-96512242D02*
X150049285Y-96482004D01*
X150049285Y-96482004D02*
X150139999Y-96482004D01*
X150139999Y-96482004D02*
X150230714Y-96512242D01*
X150230714Y-96512242D02*
X150291190Y-96572718D01*
X150291190Y-96572718D02*
X150321428Y-96633194D01*
X150321428Y-96633194D02*
X150351666Y-96754146D01*
X150351666Y-96754146D02*
X150351666Y-96844861D01*
X150351666Y-96844861D02*
X150321428Y-96965813D01*
X150321428Y-96965813D02*
X150291190Y-97026289D01*
X150291190Y-97026289D02*
X150230714Y-97086766D01*
X150230714Y-97086766D02*
X150139999Y-97117004D01*
X150139999Y-97117004D02*
X150079523Y-97117004D01*
X150079523Y-97117004D02*
X149988809Y-97086766D01*
X149988809Y-97086766D02*
X149958571Y-97056527D01*
X149958571Y-97056527D02*
X149958571Y-96844861D01*
X149958571Y-96844861D02*
X150079523Y-96844861D01*
X149565476Y-96814623D02*
X149565476Y-97117004D01*
X149777142Y-96482004D02*
X149565476Y-96814623D01*
X149565476Y-96814623D02*
X149353809Y-96482004D01*
X149142142Y-96875099D02*
X148658333Y-96875099D01*
X148144285Y-96784385D02*
X148053571Y-96814623D01*
X148053571Y-96814623D02*
X148023333Y-96844861D01*
X148023333Y-96844861D02*
X147993095Y-96905337D01*
X147993095Y-96905337D02*
X147993095Y-96996051D01*
X147993095Y-96996051D02*
X148023333Y-97056527D01*
X148023333Y-97056527D02*
X148053571Y-97086766D01*
X148053571Y-97086766D02*
X148114047Y-97117004D01*
X148114047Y-97117004D02*
X148355952Y-97117004D01*
X148355952Y-97117004D02*
X148355952Y-96482004D01*
X148355952Y-96482004D02*
X148144285Y-96482004D01*
X148144285Y-96482004D02*
X148083809Y-96512242D01*
X148083809Y-96512242D02*
X148053571Y-96542480D01*
X148053571Y-96542480D02*
X148023333Y-96602956D01*
X148023333Y-96602956D02*
X148023333Y-96663432D01*
X148023333Y-96663432D02*
X148053571Y-96723908D01*
X148053571Y-96723908D02*
X148083809Y-96754146D01*
X148083809Y-96754146D02*
X148144285Y-96784385D01*
X148144285Y-96784385D02*
X148355952Y-96784385D01*
X147720952Y-97117004D02*
X147720952Y-96482004D01*
X147720952Y-96482004D02*
X147358095Y-97117004D01*
X147358095Y-97117004D02*
X147358095Y-96482004D01*
X146934762Y-96482004D02*
X146813809Y-96482004D01*
X146813809Y-96482004D02*
X146753333Y-96512242D01*
X146753333Y-96512242D02*
X146692857Y-96572718D01*
X146692857Y-96572718D02*
X146662619Y-96693670D01*
X146662619Y-96693670D02*
X146662619Y-96905337D01*
X146662619Y-96905337D02*
X146692857Y-97026289D01*
X146692857Y-97026289D02*
X146753333Y-97086766D01*
X146753333Y-97086766D02*
X146813809Y-97117004D01*
X146813809Y-97117004D02*
X146934762Y-97117004D01*
X146934762Y-97117004D02*
X146995238Y-97086766D01*
X146995238Y-97086766D02*
X147055714Y-97026289D01*
X147055714Y-97026289D02*
X147085952Y-96905337D01*
X147085952Y-96905337D02*
X147085952Y-96693670D01*
X147085952Y-96693670D02*
X147055714Y-96572718D01*
X147055714Y-96572718D02*
X146995238Y-96512242D01*
X146995238Y-96512242D02*
X146934762Y-96482004D01*
X146269524Y-96482004D02*
X146209047Y-96482004D01*
X146209047Y-96482004D02*
X146148571Y-96512242D01*
X146148571Y-96512242D02*
X146118333Y-96542480D01*
X146118333Y-96542480D02*
X146088095Y-96602956D01*
X146088095Y-96602956D02*
X146057857Y-96723908D01*
X146057857Y-96723908D02*
X146057857Y-96875099D01*
X146057857Y-96875099D02*
X146088095Y-96996051D01*
X146088095Y-96996051D02*
X146118333Y-97056527D01*
X146118333Y-97056527D02*
X146148571Y-97086766D01*
X146148571Y-97086766D02*
X146209047Y-97117004D01*
X146209047Y-97117004D02*
X146269524Y-97117004D01*
X146269524Y-97117004D02*
X146330000Y-97086766D01*
X146330000Y-97086766D02*
X146360238Y-97056527D01*
X146360238Y-97056527D02*
X146390476Y-96996051D01*
X146390476Y-96996051D02*
X146420714Y-96875099D01*
X146420714Y-96875099D02*
X146420714Y-96723908D01*
X146420714Y-96723908D02*
X146390476Y-96602956D01*
X146390476Y-96602956D02*
X146360238Y-96542480D01*
X146360238Y-96542480D02*
X146330000Y-96512242D01*
X146330000Y-96512242D02*
X146269524Y-96482004D01*
X145695000Y-96754146D02*
X145755476Y-96723908D01*
X145755476Y-96723908D02*
X145785714Y-96693670D01*
X145785714Y-96693670D02*
X145815952Y-96633194D01*
X145815952Y-96633194D02*
X145815952Y-96602956D01*
X145815952Y-96602956D02*
X145785714Y-96542480D01*
X145785714Y-96542480D02*
X145755476Y-96512242D01*
X145755476Y-96512242D02*
X145695000Y-96482004D01*
X145695000Y-96482004D02*
X145574047Y-96482004D01*
X145574047Y-96482004D02*
X145513571Y-96512242D01*
X145513571Y-96512242D02*
X145483333Y-96542480D01*
X145483333Y-96542480D02*
X145453095Y-96602956D01*
X145453095Y-96602956D02*
X145453095Y-96633194D01*
X145453095Y-96633194D02*
X145483333Y-96693670D01*
X145483333Y-96693670D02*
X145513571Y-96723908D01*
X145513571Y-96723908D02*
X145574047Y-96754146D01*
X145574047Y-96754146D02*
X145695000Y-96754146D01*
X145695000Y-96754146D02*
X145755476Y-96784385D01*
X145755476Y-96784385D02*
X145785714Y-96814623D01*
X145785714Y-96814623D02*
X145815952Y-96875099D01*
X145815952Y-96875099D02*
X145815952Y-96996051D01*
X145815952Y-96996051D02*
X145785714Y-97056527D01*
X145785714Y-97056527D02*
X145755476Y-97086766D01*
X145755476Y-97086766D02*
X145695000Y-97117004D01*
X145695000Y-97117004D02*
X145574047Y-97117004D01*
X145574047Y-97117004D02*
X145513571Y-97086766D01*
X145513571Y-97086766D02*
X145483333Y-97056527D01*
X145483333Y-97056527D02*
X145453095Y-96996051D01*
X145453095Y-96996051D02*
X145453095Y-96875099D01*
X145453095Y-96875099D02*
X145483333Y-96814623D01*
X145483333Y-96814623D02*
X145513571Y-96784385D01*
X145513571Y-96784385D02*
X145574047Y-96754146D01*
X144878571Y-96482004D02*
X145180952Y-96482004D01*
X145180952Y-96482004D02*
X145211190Y-96784385D01*
X145211190Y-96784385D02*
X145180952Y-96754146D01*
X145180952Y-96754146D02*
X145120476Y-96723908D01*
X145120476Y-96723908D02*
X144969285Y-96723908D01*
X144969285Y-96723908D02*
X144908809Y-96754146D01*
X144908809Y-96754146D02*
X144878571Y-96784385D01*
X144878571Y-96784385D02*
X144848333Y-96844861D01*
X144848333Y-96844861D02*
X144848333Y-96996051D01*
X144848333Y-96996051D02*
X144878571Y-97056527D01*
X144878571Y-97056527D02*
X144908809Y-97086766D01*
X144908809Y-97086766D02*
X144969285Y-97117004D01*
X144969285Y-97117004D02*
X145120476Y-97117004D01*
X145120476Y-97117004D02*
X145180952Y-97086766D01*
X145180952Y-97086766D02*
X145211190Y-97056527D01*
D10*
X145883333Y-108285990D02*
X145907142Y-108309800D01*
X145907142Y-108309800D02*
X145978571Y-108333609D01*
X145978571Y-108333609D02*
X146026190Y-108333609D01*
X146026190Y-108333609D02*
X146097618Y-108309800D01*
X146097618Y-108309800D02*
X146145237Y-108262180D01*
X146145237Y-108262180D02*
X146169047Y-108214561D01*
X146169047Y-108214561D02*
X146192856Y-108119323D01*
X146192856Y-108119323D02*
X146192856Y-108047895D01*
X146192856Y-108047895D02*
X146169047Y-107952657D01*
X146169047Y-107952657D02*
X146145237Y-107905038D01*
X146145237Y-107905038D02*
X146097618Y-107857419D01*
X146097618Y-107857419D02*
X146026190Y-107833609D01*
X146026190Y-107833609D02*
X145978571Y-107833609D01*
X145978571Y-107833609D02*
X145907142Y-107857419D01*
X145907142Y-107857419D02*
X145883333Y-107881228D01*
X145692856Y-108309800D02*
X145621428Y-108333609D01*
X145621428Y-108333609D02*
X145502380Y-108333609D01*
X145502380Y-108333609D02*
X145454761Y-108309800D01*
X145454761Y-108309800D02*
X145430952Y-108285990D01*
X145430952Y-108285990D02*
X145407142Y-108238371D01*
X145407142Y-108238371D02*
X145407142Y-108190752D01*
X145407142Y-108190752D02*
X145430952Y-108143133D01*
X145430952Y-108143133D02*
X145454761Y-108119323D01*
X145454761Y-108119323D02*
X145502380Y-108095514D01*
X145502380Y-108095514D02*
X145597618Y-108071704D01*
X145597618Y-108071704D02*
X145645237Y-108047895D01*
X145645237Y-108047895D02*
X145669047Y-108024085D01*
X145669047Y-108024085D02*
X145692856Y-107976466D01*
X145692856Y-107976466D02*
X145692856Y-107928847D01*
X145692856Y-107928847D02*
X145669047Y-107881228D01*
X145669047Y-107881228D02*
X145645237Y-107857419D01*
X145645237Y-107857419D02*
X145597618Y-107833609D01*
X145597618Y-107833609D02*
X145478571Y-107833609D01*
X145478571Y-107833609D02*
X145407142Y-107857419D01*
X141073809Y-108333609D02*
X141240475Y-108095514D01*
X141359523Y-108333609D02*
X141359523Y-107833609D01*
X141359523Y-107833609D02*
X141169047Y-107833609D01*
X141169047Y-107833609D02*
X141121428Y-107857419D01*
X141121428Y-107857419D02*
X141097618Y-107881228D01*
X141097618Y-107881228D02*
X141073809Y-107928847D01*
X141073809Y-107928847D02*
X141073809Y-108000276D01*
X141073809Y-108000276D02*
X141097618Y-108047895D01*
X141097618Y-108047895D02*
X141121428Y-108071704D01*
X141121428Y-108071704D02*
X141169047Y-108095514D01*
X141169047Y-108095514D02*
X141359523Y-108095514D01*
X140883332Y-108309800D02*
X140811904Y-108333609D01*
X140811904Y-108333609D02*
X140692856Y-108333609D01*
X140692856Y-108333609D02*
X140645237Y-108309800D01*
X140645237Y-108309800D02*
X140621428Y-108285990D01*
X140621428Y-108285990D02*
X140597618Y-108238371D01*
X140597618Y-108238371D02*
X140597618Y-108190752D01*
X140597618Y-108190752D02*
X140621428Y-108143133D01*
X140621428Y-108143133D02*
X140645237Y-108119323D01*
X140645237Y-108119323D02*
X140692856Y-108095514D01*
X140692856Y-108095514D02*
X140788094Y-108071704D01*
X140788094Y-108071704D02*
X140835713Y-108047895D01*
X140835713Y-108047895D02*
X140859523Y-108024085D01*
X140859523Y-108024085D02*
X140883332Y-107976466D01*
X140883332Y-107976466D02*
X140883332Y-107928847D01*
X140883332Y-107928847D02*
X140859523Y-107881228D01*
X140859523Y-107881228D02*
X140835713Y-107857419D01*
X140835713Y-107857419D02*
X140788094Y-107833609D01*
X140788094Y-107833609D02*
X140669047Y-107833609D01*
X140669047Y-107833609D02*
X140597618Y-107857419D01*
X140454761Y-107833609D02*
X140169047Y-107833609D01*
X140311904Y-108333609D02*
X140311904Y-107833609D01*
X143652380Y-108333609D02*
X143652380Y-107833609D01*
X143414285Y-108333609D02*
X143414285Y-107833609D01*
X143414285Y-107833609D02*
X143128571Y-108333609D01*
X143128571Y-108333609D02*
X143128571Y-107833609D01*
X142961903Y-107833609D02*
X142676189Y-107833609D01*
X142819046Y-108333609D02*
X142819046Y-107833609D01*
X151585714Y-108333609D02*
X151585714Y-107833609D01*
X151585714Y-107833609D02*
X151419047Y-108190752D01*
X151419047Y-108190752D02*
X151252381Y-107833609D01*
X151252381Y-107833609D02*
X151252381Y-108333609D01*
X151014285Y-108333609D02*
X151014285Y-107833609D01*
X150799999Y-108309800D02*
X150728571Y-108333609D01*
X150728571Y-108333609D02*
X150609523Y-108333609D01*
X150609523Y-108333609D02*
X150561904Y-108309800D01*
X150561904Y-108309800D02*
X150538095Y-108285990D01*
X150538095Y-108285990D02*
X150514285Y-108238371D01*
X150514285Y-108238371D02*
X150514285Y-108190752D01*
X150514285Y-108190752D02*
X150538095Y-108143133D01*
X150538095Y-108143133D02*
X150561904Y-108119323D01*
X150561904Y-108119323D02*
X150609523Y-108095514D01*
X150609523Y-108095514D02*
X150704761Y-108071704D01*
X150704761Y-108071704D02*
X150752380Y-108047895D01*
X150752380Y-108047895D02*
X150776190Y-108024085D01*
X150776190Y-108024085D02*
X150799999Y-107976466D01*
X150799999Y-107976466D02*
X150799999Y-107928847D01*
X150799999Y-107928847D02*
X150776190Y-107881228D01*
X150776190Y-107881228D02*
X150752380Y-107857419D01*
X150752380Y-107857419D02*
X150704761Y-107833609D01*
X150704761Y-107833609D02*
X150585714Y-107833609D01*
X150585714Y-107833609D02*
X150514285Y-107857419D01*
X150204762Y-107833609D02*
X150109524Y-107833609D01*
X150109524Y-107833609D02*
X150061905Y-107857419D01*
X150061905Y-107857419D02*
X150014286Y-107905038D01*
X150014286Y-107905038D02*
X149990476Y-108000276D01*
X149990476Y-108000276D02*
X149990476Y-108166942D01*
X149990476Y-108166942D02*
X150014286Y-108262180D01*
X150014286Y-108262180D02*
X150061905Y-108309800D01*
X150061905Y-108309800D02*
X150109524Y-108333609D01*
X150109524Y-108333609D02*
X150204762Y-108333609D01*
X150204762Y-108333609D02*
X150252381Y-108309800D01*
X150252381Y-108309800D02*
X150300000Y-108262180D01*
X150300000Y-108262180D02*
X150323809Y-108166942D01*
X150323809Y-108166942D02*
X150323809Y-108000276D01*
X150323809Y-108000276D02*
X150300000Y-107905038D01*
X150300000Y-107905038D02*
X150252381Y-107857419D01*
X150252381Y-107857419D02*
X150204762Y-107833609D01*
X149185714Y-108333609D02*
X149185714Y-107833609D01*
X149185714Y-107833609D02*
X149019047Y-108190752D01*
X149019047Y-108190752D02*
X148852381Y-107833609D01*
X148852381Y-107833609D02*
X148852381Y-108333609D01*
X148519047Y-107833609D02*
X148423809Y-107833609D01*
X148423809Y-107833609D02*
X148376190Y-107857419D01*
X148376190Y-107857419D02*
X148328571Y-107905038D01*
X148328571Y-107905038D02*
X148304761Y-108000276D01*
X148304761Y-108000276D02*
X148304761Y-108166942D01*
X148304761Y-108166942D02*
X148328571Y-108262180D01*
X148328571Y-108262180D02*
X148376190Y-108309800D01*
X148376190Y-108309800D02*
X148423809Y-108333609D01*
X148423809Y-108333609D02*
X148519047Y-108333609D01*
X148519047Y-108333609D02*
X148566666Y-108309800D01*
X148566666Y-108309800D02*
X148614285Y-108262180D01*
X148614285Y-108262180D02*
X148638094Y-108166942D01*
X148638094Y-108166942D02*
X148638094Y-108000276D01*
X148638094Y-108000276D02*
X148614285Y-107905038D01*
X148614285Y-107905038D02*
X148566666Y-107857419D01*
X148566666Y-107857419D02*
X148519047Y-107833609D01*
X148114284Y-108309800D02*
X148042856Y-108333609D01*
X148042856Y-108333609D02*
X147923808Y-108333609D01*
X147923808Y-108333609D02*
X147876189Y-108309800D01*
X147876189Y-108309800D02*
X147852380Y-108285990D01*
X147852380Y-108285990D02*
X147828570Y-108238371D01*
X147828570Y-108238371D02*
X147828570Y-108190752D01*
X147828570Y-108190752D02*
X147852380Y-108143133D01*
X147852380Y-108143133D02*
X147876189Y-108119323D01*
X147876189Y-108119323D02*
X147923808Y-108095514D01*
X147923808Y-108095514D02*
X148019046Y-108071704D01*
X148019046Y-108071704D02*
X148066665Y-108047895D01*
X148066665Y-108047895D02*
X148090475Y-108024085D01*
X148090475Y-108024085D02*
X148114284Y-107976466D01*
X148114284Y-107976466D02*
X148114284Y-107928847D01*
X148114284Y-107928847D02*
X148090475Y-107881228D01*
X148090475Y-107881228D02*
X148066665Y-107857419D01*
X148066665Y-107857419D02*
X148019046Y-107833609D01*
X148019046Y-107833609D02*
X147899999Y-107833609D01*
X147899999Y-107833609D02*
X147828570Y-107857419D01*
X147614285Y-108333609D02*
X147614285Y-107833609D01*
X141083333Y-92976109D02*
X141249999Y-92738014D01*
X141369047Y-92976109D02*
X141369047Y-92476109D01*
X141369047Y-92476109D02*
X141178571Y-92476109D01*
X141178571Y-92476109D02*
X141130952Y-92499919D01*
X141130952Y-92499919D02*
X141107142Y-92523728D01*
X141107142Y-92523728D02*
X141083333Y-92571347D01*
X141083333Y-92571347D02*
X141083333Y-92642776D01*
X141083333Y-92642776D02*
X141107142Y-92690395D01*
X141107142Y-92690395D02*
X141130952Y-92714204D01*
X141130952Y-92714204D02*
X141178571Y-92738014D01*
X141178571Y-92738014D02*
X141369047Y-92738014D01*
X140916666Y-92476109D02*
X140607142Y-92476109D01*
X140607142Y-92476109D02*
X140773809Y-92666585D01*
X140773809Y-92666585D02*
X140702380Y-92666585D01*
X140702380Y-92666585D02*
X140654761Y-92690395D01*
X140654761Y-92690395D02*
X140630952Y-92714204D01*
X140630952Y-92714204D02*
X140607142Y-92761823D01*
X140607142Y-92761823D02*
X140607142Y-92880871D01*
X140607142Y-92880871D02*
X140630952Y-92928490D01*
X140630952Y-92928490D02*
X140654761Y-92952300D01*
X140654761Y-92952300D02*
X140702380Y-92976109D01*
X140702380Y-92976109D02*
X140845237Y-92976109D01*
X140845237Y-92976109D02*
X140892856Y-92952300D01*
X140892856Y-92952300D02*
X140916666Y-92928490D01*
X149934785Y-89694832D02*
X150101451Y-89456737D01*
X150220499Y-89694832D02*
X150220499Y-89194832D01*
X150220499Y-89194832D02*
X150030023Y-89194832D01*
X150030023Y-89194832D02*
X149982404Y-89218642D01*
X149982404Y-89218642D02*
X149958594Y-89242451D01*
X149958594Y-89242451D02*
X149934785Y-89290070D01*
X149934785Y-89290070D02*
X149934785Y-89361499D01*
X149934785Y-89361499D02*
X149958594Y-89409118D01*
X149958594Y-89409118D02*
X149982404Y-89432927D01*
X149982404Y-89432927D02*
X150030023Y-89456737D01*
X150030023Y-89456737D02*
X150220499Y-89456737D01*
X149458594Y-89694832D02*
X149744308Y-89694832D01*
X149601451Y-89694832D02*
X149601451Y-89194832D01*
X149601451Y-89194832D02*
X149649070Y-89266261D01*
X149649070Y-89266261D02*
X149696689Y-89313880D01*
X149696689Y-89313880D02*
X149744308Y-89337689D01*
X147934785Y-89694832D02*
X148101451Y-89456737D01*
X148220499Y-89694832D02*
X148220499Y-89194832D01*
X148220499Y-89194832D02*
X148030023Y-89194832D01*
X148030023Y-89194832D02*
X147982404Y-89218642D01*
X147982404Y-89218642D02*
X147958594Y-89242451D01*
X147958594Y-89242451D02*
X147934785Y-89290070D01*
X147934785Y-89290070D02*
X147934785Y-89361499D01*
X147934785Y-89361499D02*
X147958594Y-89409118D01*
X147958594Y-89409118D02*
X147982404Y-89432927D01*
X147982404Y-89432927D02*
X148030023Y-89456737D01*
X148030023Y-89456737D02*
X148220499Y-89456737D01*
X147744308Y-89242451D02*
X147720499Y-89218642D01*
X147720499Y-89218642D02*
X147672880Y-89194832D01*
X147672880Y-89194832D02*
X147553832Y-89194832D01*
X147553832Y-89194832D02*
X147506213Y-89218642D01*
X147506213Y-89218642D02*
X147482404Y-89242451D01*
X147482404Y-89242451D02*
X147458594Y-89290070D01*
X147458594Y-89290070D02*
X147458594Y-89337689D01*
X147458594Y-89337689D02*
X147482404Y-89409118D01*
X147482404Y-89409118D02*
X147768118Y-89694832D01*
X147768118Y-89694832D02*
X147458594Y-89694832D01*
X148766665Y-93202300D02*
X148695237Y-93226109D01*
X148695237Y-93226109D02*
X148576189Y-93226109D01*
X148576189Y-93226109D02*
X148528570Y-93202300D01*
X148528570Y-93202300D02*
X148504761Y-93178490D01*
X148504761Y-93178490D02*
X148480951Y-93130871D01*
X148480951Y-93130871D02*
X148480951Y-93083252D01*
X148480951Y-93083252D02*
X148504761Y-93035633D01*
X148504761Y-93035633D02*
X148528570Y-93011823D01*
X148528570Y-93011823D02*
X148576189Y-92988014D01*
X148576189Y-92988014D02*
X148671427Y-92964204D01*
X148671427Y-92964204D02*
X148719046Y-92940395D01*
X148719046Y-92940395D02*
X148742856Y-92916585D01*
X148742856Y-92916585D02*
X148766665Y-92868966D01*
X148766665Y-92868966D02*
X148766665Y-92821347D01*
X148766665Y-92821347D02*
X148742856Y-92773728D01*
X148742856Y-92773728D02*
X148719046Y-92749919D01*
X148719046Y-92749919D02*
X148671427Y-92726109D01*
X148671427Y-92726109D02*
X148552380Y-92726109D01*
X148552380Y-92726109D02*
X148480951Y-92749919D01*
X148314285Y-92726109D02*
X148195237Y-93226109D01*
X148195237Y-93226109D02*
X148099999Y-92868966D01*
X148099999Y-92868966D02*
X148004761Y-93226109D01*
X148004761Y-93226109D02*
X147885714Y-92726109D01*
X147719046Y-92773728D02*
X147695237Y-92749919D01*
X147695237Y-92749919D02*
X147647618Y-92726109D01*
X147647618Y-92726109D02*
X147528570Y-92726109D01*
X147528570Y-92726109D02*
X147480951Y-92749919D01*
X147480951Y-92749919D02*
X147457142Y-92773728D01*
X147457142Y-92773728D02*
X147433332Y-92821347D01*
X147433332Y-92821347D02*
X147433332Y-92868966D01*
X147433332Y-92868966D02*
X147457142Y-92940395D01*
X147457142Y-92940395D02*
X147742856Y-93226109D01*
X147742856Y-93226109D02*
X147433332Y-93226109D01*
D13*
X142133156Y-94435000D02*
X142133156Y-91750000D01*
X144053156Y-91750000D02*
X144053156Y-94435000D01*
X144053156Y-94435000D02*
X142133156Y-94435000D01*
D14*
X134370000Y-95985000D02*
X159770000Y-95985000D01*
X134370000Y-111020000D02*
X134370000Y-95985000D01*
X134370000Y-111020000D02*
X159770000Y-111020000D01*
X142371000Y-111030000D02*
X159516000Y-111030000D01*
X159770000Y-95985000D02*
X159770000Y-111030000D01*
D15*
X158662764Y-107985000D02*
G75*
G02*
X158158764Y-107985000I-252000J0D01*
G01*
X158158764Y-107985000D02*
G75*
G02*
X158662764Y-107985000I252000J0D01*
G01*
D13*
X140265000Y-92522936D02*
X140265000Y-92977064D01*
X141735000Y-92522936D02*
X141735000Y-92977064D01*
X149116452Y-89241659D02*
X149116452Y-89695787D01*
X150586452Y-89241659D02*
X150586452Y-89695787D01*
X147116452Y-89241659D02*
X147116452Y-89695787D01*
X148586452Y-89241659D02*
X148586452Y-89695787D01*
X146030000Y-91430000D02*
X146030000Y-91730000D01*
X146030000Y-94270000D02*
X146030000Y-94570000D01*
X146030000Y-94570000D02*
X150170000Y-94570000D01*
X150170000Y-91430000D02*
X146030000Y-91430000D01*
X150170000Y-91730000D02*
X150170000Y-91430000D01*
X150170000Y-94570000D02*
X150170000Y-94270000D01*
D16*
G36*
X162812179Y-103171848D02*
G01*
X162812924Y-103192574D01*
X162813580Y-103220482D01*
X162814127Y-103254524D01*
X162814546Y-103293651D01*
X162814818Y-103336817D01*
X162814924Y-103382975D01*
X162814928Y-103414695D01*
X162814885Y-103462271D01*
X162814749Y-103501257D01*
X162814487Y-103532547D01*
X162814064Y-103557035D01*
X162813446Y-103575614D01*
X162812600Y-103589178D01*
X162811491Y-103598622D01*
X162810086Y-103604838D01*
X162808351Y-103608722D01*
X162806250Y-103611166D01*
X162805067Y-103612150D01*
X162795217Y-103619210D01*
X162780109Y-103629130D01*
X162762500Y-103640088D01*
X162757494Y-103643140D01*
X162741754Y-103653006D01*
X162730185Y-103660670D01*
X162725000Y-103664680D01*
X162724419Y-103665274D01*
X162717049Y-103669640D01*
X162705000Y-103675000D01*
X162702284Y-103676097D01*
X162690904Y-103681206D01*
X162685000Y-103684716D01*
X162682125Y-103686786D01*
X162672284Y-103692548D01*
X162658420Y-103700000D01*
X162649390Y-103704879D01*
X162635025Y-103713413D01*
X162625633Y-103720000D01*
X162622789Y-103722258D01*
X162607344Y-103732181D01*
X162582766Y-103745777D01*
X162549161Y-103762986D01*
X162540572Y-103767504D01*
X162528690Y-103774693D01*
X162522703Y-103779671D01*
X162520904Y-103781550D01*
X162511809Y-103787648D01*
X162498543Y-103794604D01*
X162489897Y-103798875D01*
X162470896Y-103809060D01*
X162452500Y-103819720D01*
X162441903Y-103825957D01*
X162425795Y-103834731D01*
X162413750Y-103840463D01*
X162404128Y-103845619D01*
X162400000Y-103850489D01*
X162399158Y-103852559D01*
X162392500Y-103855000D01*
X162389067Y-103855422D01*
X162385000Y-103858779D01*
X162384923Y-103859189D01*
X162379870Y-103863842D01*
X162369342Y-103869490D01*
X162369323Y-103869498D01*
X162357081Y-103875636D01*
X162340058Y-103885052D01*
X162321932Y-103895710D01*
X162319828Y-103896982D01*
X162304009Y-103906108D01*
X162291586Y-103912555D01*
X162285091Y-103915000D01*
X162283827Y-103915146D01*
X162280000Y-103919663D01*
X162277549Y-103923356D01*
X162268907Y-103927847D01*
X162262005Y-103930884D01*
X162247837Y-103938258D01*
X162229241Y-103948594D01*
X162208442Y-103960683D01*
X162190167Y-103971441D01*
X162173469Y-103981071D01*
X162161753Y-103987597D01*
X162156818Y-103990000D01*
X162155929Y-103990347D01*
X162148299Y-103994466D01*
X162134296Y-104002498D01*
X162115509Y-104013523D01*
X162093533Y-104026620D01*
X162085966Y-104031151D01*
X162064102Y-104044144D01*
X162045469Y-104055071D01*
X162031843Y-104062898D01*
X162025000Y-104066588D01*
X162020994Y-104068537D01*
X162010000Y-104074892D01*
X162001436Y-104080286D01*
X161986598Y-104089272D01*
X161967816Y-104100447D01*
X161946881Y-104112766D01*
X161925584Y-104125187D01*
X161905716Y-104136664D01*
X161889066Y-104146154D01*
X161877426Y-104152614D01*
X161872586Y-104155000D01*
X161868038Y-104157133D01*
X161856592Y-104163530D01*
X161840112Y-104173164D01*
X161820401Y-104185000D01*
X161802023Y-104195934D01*
X161784569Y-104205825D01*
X161771757Y-104212531D01*
X161765511Y-104215000D01*
X161763879Y-104215210D01*
X161760000Y-104219663D01*
X161757907Y-104223128D01*
X161749636Y-104227615D01*
X161749587Y-104227631D01*
X161741299Y-104231423D01*
X161726536Y-104239223D01*
X161707374Y-104249903D01*
X161685886Y-104262332D01*
X161640435Y-104289066D01*
X161600852Y-104312292D01*
X161568462Y-104331217D01*
X161542549Y-104346254D01*
X161522396Y-104357812D01*
X161507286Y-104366304D01*
X161496504Y-104372138D01*
X161489331Y-104375728D01*
X161485052Y-104377483D01*
X161479129Y-104380265D01*
X161475000Y-104385336D01*
X161474883Y-104386355D01*
X161470144Y-104390000D01*
X161468627Y-104390372D01*
X161459697Y-104394452D01*
X161445387Y-104402078D01*
X161427983Y-104412055D01*
X161421925Y-104415601D01*
X161404051Y-104425659D01*
X161389284Y-104433404D01*
X161380339Y-104437392D01*
X161374127Y-104440190D01*
X161370000Y-104444767D01*
X161369482Y-104445962D01*
X161362926Y-104451248D01*
X161351250Y-104457564D01*
X161346940Y-104459665D01*
X161331582Y-104467816D01*
X161312147Y-104478727D01*
X161291806Y-104490634D01*
X161281752Y-104496554D01*
X161264832Y-104506032D01*
X161252036Y-104512565D01*
X161245556Y-104515000D01*
X161243903Y-104515173D01*
X161240000Y-104518819D01*
X161237949Y-104521316D01*
X161229021Y-104527209D01*
X161215415Y-104534311D01*
X161206231Y-104538910D01*
X161191319Y-104547353D01*
X161181379Y-104554241D01*
X161178063Y-104556910D01*
X161163061Y-104566747D01*
X161139684Y-104579922D01*
X161107500Y-104596684D01*
X161103916Y-104598566D01*
X161087296Y-104608493D01*
X161073367Y-104618416D01*
X161071551Y-104619870D01*
X161061066Y-104627069D01*
X161054061Y-104630000D01*
X161051343Y-104630840D01*
X161041141Y-104635807D01*
X161025814Y-104644243D01*
X161007500Y-104655000D01*
X160996732Y-104661392D01*
X160979785Y-104670963D01*
X160967006Y-104677549D01*
X160960556Y-104680000D01*
X160958876Y-104680235D01*
X160955000Y-104685000D01*
X160954857Y-104686193D01*
X160950063Y-104690000D01*
X160949575Y-104690083D01*
X160942305Y-104693365D01*
X160928580Y-104700717D01*
X160910162Y-104711168D01*
X160888813Y-104723750D01*
X160884989Y-104726039D01*
X160863979Y-104738524D01*
X160846213Y-104748933D01*
X160833463Y-104756234D01*
X160827500Y-104759397D01*
X160827468Y-104759409D01*
X160821303Y-104762629D01*
X160808427Y-104769865D01*
X160790704Y-104780055D01*
X160770000Y-104792136D01*
X160750345Y-104803569D01*
X160727491Y-104816604D01*
X160707596Y-104827689D01*
X160693474Y-104835239D01*
X160684559Y-104839982D01*
X160670168Y-104848433D01*
X160660757Y-104855000D01*
X160655166Y-104858928D01*
X160641682Y-104866841D01*
X160624355Y-104876156D01*
X160606254Y-104885289D01*
X160590446Y-104892656D01*
X160580000Y-104896674D01*
X160574897Y-104896804D01*
X160565000Y-104892527D01*
X160557092Y-104886886D01*
X160542854Y-104877687D01*
X160524347Y-104866210D01*
X160503396Y-104853535D01*
X160481821Y-104840743D01*
X160461446Y-104828913D01*
X160444094Y-104819126D01*
X160431587Y-104812461D01*
X160425748Y-104810000D01*
X160423897Y-104809732D01*
X160420000Y-104805000D01*
X160419790Y-104803611D01*
X160414673Y-104800000D01*
X160411710Y-104799090D01*
X160401220Y-104794081D01*
X160385611Y-104785677D01*
X160367020Y-104775000D01*
X160355493Y-104768297D01*
X160338572Y-104758876D01*
X160325988Y-104752405D01*
X160319847Y-104750000D01*
X160318799Y-104749893D01*
X160315000Y-104745489D01*
X160311053Y-104740762D01*
X160301250Y-104735507D01*
X160294117Y-104732276D01*
X160278922Y-104724351D01*
X160262500Y-104714909D01*
X160252466Y-104709000D01*
X160234195Y-104698847D01*
X160219097Y-104691141D01*
X160216661Y-104690069D01*
X160212012Y-104688302D01*
X160207840Y-104686710D01*
X160204118Y-104684784D01*
X160200821Y-104682014D01*
X160197923Y-104677892D01*
X160195399Y-104671910D01*
X160193223Y-104663558D01*
X160191370Y-104652329D01*
X160189814Y-104637712D01*
X160188529Y-104619200D01*
X160187491Y-104596284D01*
X160186672Y-104568455D01*
X160186049Y-104535205D01*
X160185594Y-104496024D01*
X160185283Y-104450404D01*
X160185090Y-104397836D01*
X160184990Y-104337812D01*
X160184956Y-104269823D01*
X160184964Y-104193360D01*
X160184987Y-104107915D01*
X160184996Y-104038750D01*
X160245115Y-104038750D01*
X160245230Y-104637500D01*
X160358308Y-104702500D01*
X160385599Y-104718277D01*
X160414201Y-104735018D01*
X160439098Y-104749809D01*
X160459042Y-104761902D01*
X160472787Y-104770548D01*
X160479086Y-104775000D01*
X160484242Y-104779270D01*
X160489643Y-104781493D01*
X160490758Y-104781549D01*
X160498439Y-104784767D01*
X160510000Y-104791297D01*
X160512184Y-104792630D01*
X160527640Y-104801427D01*
X160541250Y-104808312D01*
X160555000Y-104814517D01*
X160555000Y-104215352D01*
X160555000Y-103616186D01*
X160537834Y-103603093D01*
X160533475Y-103599892D01*
X160522330Y-103592820D01*
X160515334Y-103590000D01*
X160513849Y-103589801D01*
X160510000Y-103584999D01*
X160509866Y-103583717D01*
X160506250Y-103581211D01*
X160505613Y-103581128D01*
X160498391Y-103577961D01*
X160484886Y-103571078D01*
X160466950Y-103561509D01*
X160446434Y-103550285D01*
X160425193Y-103538437D01*
X160405076Y-103526994D01*
X160387937Y-103516987D01*
X160375628Y-103509447D01*
X160370000Y-103505405D01*
X160369821Y-103505214D01*
X160363473Y-103500936D01*
X160352500Y-103495010D01*
X160348936Y-103493165D01*
X160335262Y-103485639D01*
X160317137Y-103475286D01*
X160297500Y-103463778D01*
X160288214Y-103458359D01*
X160271156Y-103448945D01*
X160258079Y-103442439D01*
X160251250Y-103440009D01*
X160250705Y-103440543D01*
X160249789Y-103444460D01*
X160248970Y-103452557D01*
X160248244Y-103465282D01*
X160247608Y-103483083D01*
X160247055Y-103506408D01*
X160246583Y-103535704D01*
X160246185Y-103571419D01*
X160245857Y-103614000D01*
X160245596Y-103663895D01*
X160245395Y-103721552D01*
X160245252Y-103787418D01*
X160245160Y-103861941D01*
X160245116Y-103945569D01*
X160245115Y-104038750D01*
X160184996Y-104038750D01*
X160185000Y-104012978D01*
X160185002Y-103967727D01*
X160185014Y-103878743D01*
X160185045Y-103799005D01*
X160185102Y-103728000D01*
X160185192Y-103665215D01*
X160185321Y-103610137D01*
X160185497Y-103562253D01*
X160185726Y-103521051D01*
X160186016Y-103486017D01*
X160186373Y-103456639D01*
X160186804Y-103432404D01*
X160187317Y-103412799D01*
X160187917Y-103397311D01*
X160188612Y-103385427D01*
X160188877Y-103382500D01*
X160276804Y-103382500D01*
X160279550Y-103384859D01*
X160290027Y-103391902D01*
X160307379Y-103402863D01*
X160330600Y-103417126D01*
X160358682Y-103434073D01*
X160390618Y-103453087D01*
X160425400Y-103473552D01*
X160452001Y-103489044D01*
X160485198Y-103508175D01*
X160515057Y-103525154D01*
X160540525Y-103539395D01*
X160560547Y-103550308D01*
X160574070Y-103557306D01*
X160580040Y-103559802D01*
X160584125Y-103558528D01*
X160595993Y-103552894D01*
X160613660Y-103543535D01*
X160635539Y-103531302D01*
X160660040Y-103517044D01*
X160676532Y-103507289D01*
X160701176Y-103492790D01*
X160722895Y-103480105D01*
X160739799Y-103470335D01*
X160750000Y-103464580D01*
X160757810Y-103460246D01*
X160774984Y-103450405D01*
X160792500Y-103440080D01*
X160808975Y-103430383D01*
X160830408Y-103418044D01*
X160851217Y-103406294D01*
X160854750Y-103404298D01*
X160870086Y-103394914D01*
X160880864Y-103387142D01*
X160884934Y-103382500D01*
X160884748Y-103381872D01*
X160879120Y-103376460D01*
X160867226Y-103368232D01*
X160851217Y-103358703D01*
X160850566Y-103358340D01*
X160838713Y-103351722D01*
X160827877Y-103345635D01*
X160816851Y-103339383D01*
X160804427Y-103332271D01*
X160789400Y-103323601D01*
X160770562Y-103312678D01*
X160746707Y-103298806D01*
X160716627Y-103281287D01*
X160679115Y-103259427D01*
X160668442Y-103253227D01*
X160641609Y-103237827D01*
X160618048Y-103224568D01*
X160599094Y-103214187D01*
X160586082Y-103207419D01*
X160580346Y-103205000D01*
X160579414Y-103205242D01*
X160571252Y-103209083D01*
X160556249Y-103217024D01*
X160535758Y-103228322D01*
X160511134Y-103242234D01*
X160483731Y-103258016D01*
X160453455Y-103275572D01*
X160419721Y-103295061D01*
X160386816Y-103314005D01*
X160357343Y-103330906D01*
X160333904Y-103344266D01*
X160328145Y-103347561D01*
X160307580Y-103359832D01*
X160291132Y-103370439D01*
X160280355Y-103378342D01*
X160276804Y-103382500D01*
X160188877Y-103382500D01*
X160189409Y-103376635D01*
X160190314Y-103370422D01*
X160191335Y-103366274D01*
X160192478Y-103363680D01*
X160193750Y-103362125D01*
X160198924Y-103358277D01*
X160211338Y-103350182D01*
X160228498Y-103339559D01*
X160248513Y-103327521D01*
X160269487Y-103315178D01*
X160289529Y-103303643D01*
X160306742Y-103294026D01*
X160319235Y-103287442D01*
X160325114Y-103285000D01*
X160325223Y-103284998D01*
X160330834Y-103281250D01*
X160332911Y-103279114D01*
X160341824Y-103272991D01*
X160355000Y-103265372D01*
X160363139Y-103260886D01*
X160374482Y-103254221D01*
X160380000Y-103250372D01*
X160380724Y-103249724D01*
X160388143Y-103245121D01*
X160400000Y-103238914D01*
X160407930Y-103234831D01*
X160425055Y-103225383D01*
X160442500Y-103215171D01*
X160453070Y-103208863D01*
X160468686Y-103199868D01*
X160480000Y-103193737D01*
X160481919Y-103192747D01*
X160493779Y-103186226D01*
X160510472Y-103176697D01*
X160529025Y-103165850D01*
X160547356Y-103155248D01*
X160565370Y-103146392D01*
X160579656Y-103142773D01*
X160592845Y-103144299D01*
X160607572Y-103150877D01*
X160626469Y-103162414D01*
X160630026Y-103164672D01*
X160649469Y-103176490D01*
X160667646Y-103186788D01*
X160681029Y-103193554D01*
X160685504Y-103195643D01*
X160695862Y-103201626D01*
X160700000Y-103205962D01*
X160700433Y-103207438D01*
X160706250Y-103210047D01*
X160706404Y-103210053D01*
X160713812Y-103212806D01*
X160726745Y-103219599D01*
X160742500Y-103229017D01*
X160758906Y-103238919D01*
X160776054Y-103248430D01*
X160788750Y-103254576D01*
X160790657Y-103255385D01*
X160800847Y-103260984D01*
X160805000Y-103265606D01*
X160805842Y-103267622D01*
X160812500Y-103270000D01*
X160815936Y-103270436D01*
X160820000Y-103273903D01*
X160824006Y-103278404D01*
X160833750Y-103283824D01*
X160840900Y-103287285D01*
X160856090Y-103295517D01*
X160872500Y-103305149D01*
X160882737Y-103311221D01*
X160900545Y-103321081D01*
X160915000Y-103328291D01*
X160917923Y-103329628D01*
X160929172Y-103335377D01*
X160935000Y-103339359D01*
X160936112Y-103340394D01*
X160944040Y-103345606D01*
X160956250Y-103352434D01*
X160975000Y-103362274D01*
X160975000Y-103382500D01*
X160975000Y-103555841D01*
X160975006Y-103565436D01*
X160975163Y-103607858D01*
X160975239Y-103616186D01*
X160975518Y-103646856D01*
X160976048Y-103681335D01*
X160976726Y-103710199D01*
X160977530Y-103732351D01*
X160978434Y-103746696D01*
X160979413Y-103752136D01*
X160979635Y-103752254D01*
X160986506Y-103751030D01*
X160996451Y-103744931D01*
X160996893Y-103744586D01*
X161006579Y-103737804D01*
X161012569Y-103735000D01*
X161012755Y-103734973D01*
X161018905Y-103732054D01*
X161031660Y-103725010D01*
X161049275Y-103714829D01*
X161070000Y-103702499D01*
X161072291Y-103701121D01*
X161092687Y-103688984D01*
X161109708Y-103679094D01*
X161121632Y-103672438D01*
X161126738Y-103670000D01*
X161131357Y-103667838D01*
X161142868Y-103661435D01*
X161159414Y-103651812D01*
X161179196Y-103640000D01*
X161197796Y-103628999D01*
X161215302Y-103619140D01*
X161228154Y-103612459D01*
X161234428Y-103610000D01*
X161236123Y-103609762D01*
X161240000Y-103605000D01*
X161240262Y-103603487D01*
X161245556Y-103600000D01*
X161248357Y-103599166D01*
X161258701Y-103594202D01*
X161274136Y-103585763D01*
X161292500Y-103575000D01*
X161303269Y-103568607D01*
X161320216Y-103559036D01*
X161332995Y-103552450D01*
X161339445Y-103550000D01*
X161341111Y-103549795D01*
X161345000Y-103545569D01*
X161345524Y-103544283D01*
X161352083Y-103538755D01*
X161363750Y-103532266D01*
X161371479Y-103528358D01*
X161388009Y-103519403D01*
X161408435Y-103507902D01*
X161430000Y-103495389D01*
X161444252Y-103487056D01*
X161466743Y-103474144D01*
X161486871Y-103462854D01*
X161501527Y-103454942D01*
X161510488Y-103450113D01*
X161524879Y-103441589D01*
X161534313Y-103435000D01*
X161542133Y-103429268D01*
X161556346Y-103420608D01*
X161577434Y-103408924D01*
X161606480Y-103393595D01*
X161625459Y-103383727D01*
X161584929Y-103359363D01*
X161574747Y-103353288D01*
X161558637Y-103343886D01*
X161547060Y-103337411D01*
X161542021Y-103334999D01*
X161541849Y-103334964D01*
X161536005Y-103331993D01*
X161523508Y-103324941D01*
X161506062Y-103314784D01*
X161485371Y-103302499D01*
X161483232Y-103301221D01*
X161462410Y-103289049D01*
X161444639Y-103279127D01*
X161431744Y-103272447D01*
X161425550Y-103270000D01*
X161423875Y-103269765D01*
X161420000Y-103265000D01*
X161419857Y-103263806D01*
X161415059Y-103260000D01*
X161409501Y-103257799D01*
X161397100Y-103251388D01*
X161379835Y-103241781D01*
X161359594Y-103230000D01*
X161340281Y-103218730D01*
X161322931Y-103209004D01*
X161310392Y-103202421D01*
X161304535Y-103200000D01*
X161303464Y-103199858D01*
X161300000Y-103195000D01*
X161299741Y-103193490D01*
X161294451Y-103190000D01*
X161294318Y-103189992D01*
X161287694Y-103187308D01*
X161274482Y-103180473D01*
X161256533Y-103170485D01*
X161235701Y-103158343D01*
X161235091Y-103157980D01*
X161214031Y-103145539D01*
X161195696Y-103134865D01*
X161182036Y-103127085D01*
X161175000Y-103123322D01*
X161169758Y-103120644D01*
X161157477Y-103113776D01*
X161142500Y-103105002D01*
X161132478Y-103099118D01*
X161114559Y-103089012D01*
X161100000Y-103081274D01*
X161096793Y-103079639D01*
X161085726Y-103073541D01*
X161080000Y-103069635D01*
X161078011Y-103067911D01*
X161070000Y-103063131D01*
X161059211Y-103057509D01*
X161042305Y-103048102D01*
X161021852Y-103036346D01*
X160999600Y-103023287D01*
X160977294Y-103009968D01*
X160956683Y-102997434D01*
X160939514Y-102986728D01*
X160927532Y-102978894D01*
X160922487Y-102974977D01*
X160922357Y-102974557D01*
X160921764Y-102966830D01*
X160921246Y-102950589D01*
X160920802Y-102927069D01*
X160920434Y-102897505D01*
X160920142Y-102863131D01*
X160919927Y-102825180D01*
X160919790Y-102784887D01*
X160919732Y-102743486D01*
X160919753Y-102702212D01*
X160919817Y-102677278D01*
X160973281Y-102677278D01*
X160973283Y-102715980D01*
X160973489Y-102763805D01*
X160974478Y-102937500D01*
X160995989Y-102953418D01*
X161004491Y-102959473D01*
X161015810Y-102966707D01*
X161022200Y-102969668D01*
X161025706Y-102970855D01*
X161036449Y-102976283D01*
X161051336Y-102984704D01*
X161067803Y-102994570D01*
X161083289Y-103004332D01*
X161095231Y-103012439D01*
X161101068Y-103017345D01*
X161102560Y-103019145D01*
X161106068Y-103020018D01*
X161107589Y-103019861D01*
X161115480Y-103022983D01*
X161127500Y-103029580D01*
X161137261Y-103035326D01*
X161156124Y-103046061D01*
X161175000Y-103056466D01*
X161187886Y-103063824D01*
X161200016Y-103071700D01*
X161206068Y-103076904D01*
X161207749Y-103078973D01*
X161212156Y-103080000D01*
X161216589Y-103080637D01*
X161224896Y-103086250D01*
X161232595Y-103092073D01*
X161238634Y-103095000D01*
X161241623Y-103096119D01*
X161251745Y-103101236D01*
X161266678Y-103109342D01*
X161284180Y-103119159D01*
X161302006Y-103129406D01*
X161317914Y-103138806D01*
X161329660Y-103146078D01*
X161335000Y-103149945D01*
X161335322Y-103150280D01*
X161342159Y-103154398D01*
X161353750Y-103159640D01*
X161355670Y-103160443D01*
X161365851Y-103165822D01*
X161370000Y-103170064D01*
X161373147Y-103173402D01*
X161382500Y-103177053D01*
X161390762Y-103180261D01*
X161395000Y-103184707D01*
X161395214Y-103185481D01*
X161401090Y-103190134D01*
X161412500Y-103195000D01*
X161415244Y-103195955D01*
X161425748Y-103200789D01*
X161430000Y-103204845D01*
X161432960Y-103208243D01*
X161442151Y-103211965D01*
X161450915Y-103215103D01*
X161461055Y-103221257D01*
X161461518Y-103221662D01*
X161469936Y-103227344D01*
X161484164Y-103235673D01*
X161501398Y-103245000D01*
X161504597Y-103246679D01*
X161520028Y-103255169D01*
X161530887Y-103261796D01*
X161534994Y-103265245D01*
X161535238Y-103265790D01*
X161541156Y-103269558D01*
X161552500Y-103274319D01*
X161555324Y-103275401D01*
X161565773Y-103280755D01*
X161570000Y-103285323D01*
X161570719Y-103287362D01*
X161577143Y-103290000D01*
X161581557Y-103290854D01*
X161590893Y-103296461D01*
X161591211Y-103296762D01*
X161600680Y-103303174D01*
X161613750Y-103309567D01*
X161615679Y-103310384D01*
X161625854Y-103315857D01*
X161630000Y-103320218D01*
X161630217Y-103320918D01*
X161636098Y-103325263D01*
X161647500Y-103330000D01*
X161650222Y-103330954D01*
X161660741Y-103335974D01*
X161665000Y-103340387D01*
X161665002Y-103340443D01*
X161669467Y-103343663D01*
X161680000Y-103345000D01*
X161680181Y-103344999D01*
X161690654Y-103343656D01*
X161695000Y-103340489D01*
X161698959Y-103335717D01*
X161708750Y-103330377D01*
X161718125Y-103326244D01*
X161734611Y-103317702D01*
X161748382Y-103309148D01*
X161756174Y-103302500D01*
X161758130Y-103300348D01*
X161760000Y-103302500D01*
X161760485Y-103304274D01*
X161763827Y-103301957D01*
X161764786Y-103301039D01*
X161772585Y-103295601D01*
X161786521Y-103286741D01*
X161804763Y-103275543D01*
X161825480Y-103263091D01*
X161846843Y-103250471D01*
X161867019Y-103238767D01*
X161884180Y-103229064D01*
X161896494Y-103222446D01*
X161902130Y-103220000D01*
X161904866Y-103218781D01*
X161914022Y-103213301D01*
X161926864Y-103204905D01*
X161934554Y-103199936D01*
X161952101Y-103189742D01*
X161967115Y-103182338D01*
X161968264Y-103181856D01*
X161978877Y-103176592D01*
X161981825Y-103171791D01*
X161978798Y-103164932D01*
X161973940Y-103158774D01*
X161967929Y-103155000D01*
X161966513Y-103154580D01*
X161957710Y-103150333D01*
X161942650Y-103142236D01*
X161922989Y-103131193D01*
X161900381Y-103118109D01*
X161893329Y-103113974D01*
X161869391Y-103099980D01*
X161847582Y-103087288D01*
X161830066Y-103077155D01*
X161819006Y-103070837D01*
X161818318Y-103070451D01*
X161794646Y-103057033D01*
X161770096Y-103042906D01*
X161746263Y-103029012D01*
X161724742Y-103016293D01*
X161707128Y-103005692D01*
X161695016Y-102998152D01*
X161690000Y-102994614D01*
X161686080Y-102991863D01*
X161676280Y-102987846D01*
X161668576Y-102984702D01*
X161658737Y-102978422D01*
X161652526Y-102973962D01*
X161639688Y-102966235D01*
X161623725Y-102957500D01*
X161609804Y-102949748D01*
X161599115Y-102942810D01*
X161595018Y-102938750D01*
X161594712Y-102937557D01*
X161589242Y-102935000D01*
X161589122Y-102934996D01*
X161582021Y-102932384D01*
X161568909Y-102925851D01*
X161552152Y-102916750D01*
X161534116Y-102906432D01*
X161517165Y-102896249D01*
X161503666Y-102887552D01*
X161495982Y-102881695D01*
X161491645Y-102878245D01*
X161483122Y-102875000D01*
X161478159Y-102873498D01*
X161466619Y-102867757D01*
X161452229Y-102859190D01*
X161441859Y-102852749D01*
X161420383Y-102840101D01*
X161400080Y-102828842D01*
X161387270Y-102821759D01*
X161375577Y-102814614D01*
X161370080Y-102810325D01*
X161366131Y-102807149D01*
X161356280Y-102802846D01*
X161348569Y-102799710D01*
X161338607Y-102793422D01*
X161332417Y-102789027D01*
X161319551Y-102781348D01*
X161303577Y-102772675D01*
X161289804Y-102765004D01*
X161279100Y-102757927D01*
X161275000Y-102753630D01*
X161274634Y-102752275D01*
X161270000Y-102752500D01*
X161268064Y-102753281D01*
X161265000Y-102750295D01*
X161264276Y-102747979D01*
X161257858Y-102745000D01*
X161253518Y-102744189D01*
X161244108Y-102738691D01*
X161236896Y-102733165D01*
X161225000Y-102726195D01*
X161213337Y-102720230D01*
X161195967Y-102710908D01*
X161178124Y-102700973D01*
X161162137Y-102691749D01*
X161150332Y-102684560D01*
X161145036Y-102680728D01*
X161139552Y-102676723D01*
X161129004Y-102671370D01*
X161124141Y-102669052D01*
X161109610Y-102661168D01*
X161094004Y-102651789D01*
X161083106Y-102645145D01*
X161063322Y-102633800D01*
X161043750Y-102623232D01*
X161029813Y-102615482D01*
X161019101Y-102608427D01*
X161015000Y-102604165D01*
X161014285Y-102602354D01*
X161007858Y-102600000D01*
X161002563Y-102598706D01*
X160993229Y-102592514D01*
X160987643Y-102588642D01*
X160979122Y-102587569D01*
X160977331Y-102589930D01*
X160975887Y-102596165D01*
X160974788Y-102607141D01*
X160974006Y-102623734D01*
X160973513Y-102646821D01*
X160973281Y-102677278D01*
X160919817Y-102677278D01*
X160919855Y-102662298D01*
X160920037Y-102624978D01*
X160920302Y-102591487D01*
X160920649Y-102563060D01*
X160921079Y-102540929D01*
X160921594Y-102526329D01*
X160922194Y-102520496D01*
X160923961Y-102518811D01*
X160932917Y-102512478D01*
X160947486Y-102503098D01*
X160965659Y-102491871D01*
X160985429Y-102479995D01*
X161004785Y-102468671D01*
X161021719Y-102459098D01*
X161034222Y-102452474D01*
X161040284Y-102450000D01*
X161041206Y-102449922D01*
X161045000Y-102446004D01*
X161045122Y-102445477D01*
X161050543Y-102441021D01*
X161061527Y-102436032D01*
X161061567Y-102436018D01*
X161076161Y-102429221D01*
X161088064Y-102421278D01*
X161091985Y-102418174D01*
X161104987Y-102409477D01*
X161120287Y-102400591D01*
X161149576Y-102384784D01*
X161180095Y-102367957D01*
X161206791Y-102352739D01*
X161232500Y-102337539D01*
X161232979Y-102337251D01*
X161254274Y-102324680D01*
X161276529Y-102311882D01*
X161295000Y-102301585D01*
X161297321Y-102300318D01*
X161316167Y-102289728D01*
X161338510Y-102276798D01*
X161360000Y-102264039D01*
X161364055Y-102261598D01*
X161384868Y-102249209D01*
X161404791Y-102237546D01*
X161420000Y-102228852D01*
X161426294Y-102225312D01*
X161443763Y-102215367D01*
X161464969Y-102203187D01*
X161486645Y-102190646D01*
X161499764Y-102183142D01*
X161516814Y-102173783D01*
X161529375Y-102167375D01*
X161535395Y-102164999D01*
X161536278Y-102164913D01*
X161540000Y-102160336D01*
X161542132Y-102156845D01*
X161550444Y-102152359D01*
X161551463Y-102152012D01*
X161561985Y-102147254D01*
X161576202Y-102139635D01*
X161591605Y-102130661D01*
X161605687Y-102121837D01*
X161615942Y-102114669D01*
X161619861Y-102110665D01*
X161619039Y-102109531D01*
X161611792Y-102104182D01*
X161598935Y-102096093D01*
X161582757Y-102086562D01*
X161565545Y-102076889D01*
X161549588Y-102068372D01*
X161537174Y-102062309D01*
X161530591Y-102059999D01*
X161528880Y-102059758D01*
X161525000Y-102055000D01*
X161524154Y-102052699D01*
X161517500Y-102050000D01*
X161514058Y-102049493D01*
X161510000Y-102045489D01*
X161506027Y-102040653D01*
X161496250Y-102035194D01*
X161478530Y-102027200D01*
X161464725Y-102019327D01*
X161460000Y-102013814D01*
X161459748Y-102012679D01*
X161454445Y-102010000D01*
X161451644Y-102009166D01*
X161441300Y-102004202D01*
X161425865Y-101995763D01*
X161407500Y-101985000D01*
X161396732Y-101978607D01*
X161379785Y-101969036D01*
X161367006Y-101962450D01*
X161360556Y-101960000D01*
X161358901Y-101959822D01*
X161355000Y-101956096D01*
X161351015Y-101951675D01*
X161341250Y-101946401D01*
X161335284Y-101943643D01*
X161320310Y-101935809D01*
X161304180Y-101926555D01*
X161290176Y-101918122D01*
X161263294Y-101902000D01*
X161243400Y-101890193D01*
X161229419Y-101882073D01*
X161220273Y-101877009D01*
X161214883Y-101874373D01*
X161210043Y-101871885D01*
X161197745Y-101864923D01*
X161180672Y-101854909D01*
X161160957Y-101843079D01*
X161145403Y-101833743D01*
X161128833Y-101824043D01*
X161117044Y-101817439D01*
X161111907Y-101814999D01*
X161111749Y-101814972D01*
X161105891Y-101812052D01*
X161093394Y-101805008D01*
X161075981Y-101794827D01*
X161055369Y-101782499D01*
X161053562Y-101781410D01*
X161032796Y-101769171D01*
X161015020Y-101759189D01*
X161002071Y-101752464D01*
X160995787Y-101750000D01*
X160993902Y-101749725D01*
X160990000Y-101745000D01*
X160989154Y-101742699D01*
X160982500Y-101740000D01*
X160982025Y-101740047D01*
X160980175Y-101741587D01*
X160978672Y-101745964D01*
X160977479Y-101754074D01*
X160976561Y-101766811D01*
X160975882Y-101785071D01*
X160975407Y-101809750D01*
X160975099Y-101841742D01*
X160974922Y-101881944D01*
X160974841Y-101931250D01*
X160974805Y-101955588D01*
X160974597Y-102004068D01*
X160974199Y-102043543D01*
X160973588Y-102074704D01*
X160972744Y-102098240D01*
X160971644Y-102114841D01*
X160970267Y-102125200D01*
X160968591Y-102130004D01*
X160965321Y-102133333D01*
X160953709Y-102142564D01*
X160938187Y-102153249D01*
X160922043Y-102163188D01*
X160908563Y-102170183D01*
X160896045Y-102176389D01*
X160883231Y-102183936D01*
X160875000Y-102190000D01*
X160872662Y-102191653D01*
X160863361Y-102197123D01*
X160850000Y-102204408D01*
X160847535Y-102205714D01*
X160815098Y-102223084D01*
X160791286Y-102236247D01*
X160776214Y-102245135D01*
X160770000Y-102249683D01*
X160768581Y-102250963D01*
X160760182Y-102256244D01*
X160747500Y-102262978D01*
X160736705Y-102268461D01*
X160718083Y-102278351D01*
X160699360Y-102288698D01*
X160682778Y-102298233D01*
X160670577Y-102305682D01*
X160665000Y-102309776D01*
X160663565Y-102311049D01*
X160655165Y-102316328D01*
X160642500Y-102323116D01*
X160638113Y-102325337D01*
X160619329Y-102335037D01*
X160601142Y-102344649D01*
X160597870Y-102346385D01*
X160584924Y-102352156D01*
X160575325Y-102353142D01*
X160564892Y-102349954D01*
X160564110Y-102349625D01*
X160554119Y-102344293D01*
X160550000Y-102339935D01*
X160546854Y-102336597D01*
X160537500Y-102332946D01*
X160529243Y-102329643D01*
X160525000Y-102324904D01*
X160524883Y-102323803D01*
X160520395Y-102319999D01*
X160517379Y-102319001D01*
X160506913Y-102313944D01*
X160491259Y-102305581D01*
X160472500Y-102294999D01*
X160460224Y-102288016D01*
X160443216Y-102278732D01*
X160430649Y-102272364D01*
X160424606Y-102270000D01*
X160423516Y-102269857D01*
X160420000Y-102265000D01*
X160419862Y-102263810D01*
X160415176Y-102260000D01*
X160411397Y-102258622D01*
X160400347Y-102252961D01*
X160384290Y-102243934D01*
X160365228Y-102232637D01*
X160355821Y-102226984D01*
X160329918Y-102211779D01*
X160303593Y-102196743D01*
X160281302Y-102184434D01*
X160273643Y-102180287D01*
X160257207Y-102171139D01*
X160245268Y-102164140D01*
X160240000Y-102160546D01*
X160239195Y-102159785D01*
X160231755Y-102154777D01*
X160220000Y-102148011D01*
X160217728Y-102146757D01*
X160203976Y-102138382D01*
X160193750Y-102130987D01*
X160193023Y-102130243D01*
X160191829Y-102128223D01*
X160190759Y-102124876D01*
X160189806Y-102119693D01*
X160188965Y-102112163D01*
X160188227Y-102101775D01*
X160187587Y-102088020D01*
X160187036Y-102070387D01*
X160186570Y-102048367D01*
X160186180Y-102021448D01*
X160185860Y-101989121D01*
X160185603Y-101950876D01*
X160185402Y-101906202D01*
X160185251Y-101854590D01*
X160185143Y-101795528D01*
X160185070Y-101728507D01*
X160185027Y-101653017D01*
X160185009Y-101580963D01*
X160239884Y-101580963D01*
X160239897Y-101646751D01*
X160239964Y-101710822D01*
X160240086Y-101772430D01*
X160240264Y-101830831D01*
X160240500Y-101885277D01*
X160240793Y-101935023D01*
X160241146Y-101979323D01*
X160241558Y-102017431D01*
X160242032Y-102048601D01*
X160242567Y-102072087D01*
X160243165Y-102087143D01*
X160243827Y-102093024D01*
X160245280Y-102094500D01*
X160254092Y-102100766D01*
X160268570Y-102109686D01*
X160286461Y-102119841D01*
X160293570Y-102123780D01*
X160311256Y-102134055D01*
X160325145Y-102142790D01*
X160332711Y-102148424D01*
X160337135Y-102152234D01*
X160340000Y-102152741D01*
X160340158Y-102152463D01*
X160344931Y-102153887D01*
X160353806Y-102158585D01*
X160363317Y-102164577D01*
X160370000Y-102169884D01*
X160370215Y-102170077D01*
X160376451Y-102173980D01*
X160388856Y-102180955D01*
X160405000Y-102189630D01*
X160406960Y-102190666D01*
X160422810Y-102199305D01*
X160434635Y-102206191D01*
X160440000Y-102209914D01*
X160440321Y-102210252D01*
X160447159Y-102214390D01*
X160458750Y-102219640D01*
X160460670Y-102220443D01*
X160470851Y-102225822D01*
X160475000Y-102230064D01*
X160477963Y-102233321D01*
X160487151Y-102236965D01*
X160495921Y-102240099D01*
X160506129Y-102246257D01*
X160507424Y-102247394D01*
X160518106Y-102254905D01*
X160530497Y-102261623D01*
X160541275Y-102265932D01*
X160547119Y-102266215D01*
X160547278Y-102265449D01*
X160547722Y-102256801D01*
X160548142Y-102239176D01*
X160548533Y-102213332D01*
X160548889Y-102180027D01*
X160549206Y-102140021D01*
X160549478Y-102094070D01*
X160549698Y-102042933D01*
X160549862Y-101987369D01*
X160549965Y-101928135D01*
X160550000Y-101865990D01*
X160550000Y-101468646D01*
X160562758Y-101456823D01*
X160563972Y-101455716D01*
X160573625Y-101448112D01*
X160580023Y-101445000D01*
X160585992Y-101446146D01*
X160596557Y-101450517D01*
X160605947Y-101456133D01*
X160610000Y-101460802D01*
X160610040Y-101461403D01*
X160613750Y-101464127D01*
X160613779Y-101464121D01*
X160621214Y-101465511D01*
X160631662Y-101470230D01*
X160640974Y-101476066D01*
X160645000Y-101480802D01*
X160645716Y-101482628D01*
X160652143Y-101484999D01*
X160658518Y-101486921D01*
X160668036Y-101493749D01*
X160674385Y-101499098D01*
X160679643Y-101501180D01*
X160681202Y-101501303D01*
X160689301Y-101504963D01*
X160701123Y-101512052D01*
X160705530Y-101514851D01*
X160719388Y-101522736D01*
X160729873Y-101527459D01*
X160735888Y-101530088D01*
X160740000Y-101534332D01*
X160740237Y-101535017D01*
X160746143Y-101539331D01*
X160757500Y-101544319D01*
X160760324Y-101545401D01*
X160770773Y-101550755D01*
X160775000Y-101555323D01*
X160775719Y-101557362D01*
X160782143Y-101560000D01*
X160787764Y-101561471D01*
X160797143Y-101567857D01*
X160802097Y-101572202D01*
X160805000Y-101573014D01*
X160806338Y-101573031D01*
X160813931Y-101576418D01*
X160826068Y-101582833D01*
X160840245Y-101590844D01*
X160853961Y-101599024D01*
X160864713Y-101605940D01*
X160870000Y-101610164D01*
X160873916Y-101613049D01*
X160883721Y-101617153D01*
X160891431Y-101620290D01*
X160901375Y-101626577D01*
X160901837Y-101626977D01*
X160910115Y-101632511D01*
X160924227Y-101640726D01*
X160941398Y-101650000D01*
X160944529Y-101651647D01*
X160959992Y-101660317D01*
X160970876Y-101667313D01*
X160974994Y-101671250D01*
X160975709Y-101672877D01*
X160982143Y-101675000D01*
X160986848Y-101675999D01*
X160996127Y-101681840D01*
X161001939Y-101686327D01*
X161013954Y-101692167D01*
X161021390Y-101695227D01*
X161031375Y-101701577D01*
X161031837Y-101701977D01*
X161040115Y-101707511D01*
X161054227Y-101715726D01*
X161071398Y-101725000D01*
X161074529Y-101726647D01*
X161089992Y-101735317D01*
X161100876Y-101742313D01*
X161104994Y-101746250D01*
X161105709Y-101747877D01*
X161112143Y-101750000D01*
X161117764Y-101751471D01*
X161127143Y-101757857D01*
X161132101Y-101762180D01*
X161135000Y-101762903D01*
X161135061Y-101762717D01*
X161139589Y-101764004D01*
X161149478Y-101769177D01*
X161162155Y-101776661D01*
X161175045Y-101784884D01*
X161185576Y-101792271D01*
X161191174Y-101797249D01*
X161193038Y-101799373D01*
X161195000Y-101797500D01*
X161195442Y-101795348D01*
X161198827Y-101797500D01*
X161203992Y-101801630D01*
X161215787Y-101808896D01*
X161231250Y-101817324D01*
X161245184Y-101825004D01*
X161255899Y-101831945D01*
X161260000Y-101836074D01*
X161260019Y-101836462D01*
X161263750Y-101839127D01*
X161263779Y-101839121D01*
X161271214Y-101840511D01*
X161281662Y-101845230D01*
X161290974Y-101851066D01*
X161295000Y-101855802D01*
X161295173Y-101856876D01*
X161300174Y-101860000D01*
X161300863Y-101860107D01*
X161308692Y-101863356D01*
X161322178Y-101870141D01*
X161338908Y-101879117D01*
X161356469Y-101888941D01*
X161372447Y-101898266D01*
X161384429Y-101905749D01*
X161390000Y-101910045D01*
X161393914Y-101913001D01*
X161403721Y-101917153D01*
X161411431Y-101920290D01*
X161421375Y-101926577D01*
X161421837Y-101926977D01*
X161430115Y-101932511D01*
X161444227Y-101940726D01*
X161461398Y-101950000D01*
X161464566Y-101951664D01*
X161480011Y-101960238D01*
X161490882Y-101967034D01*
X161494994Y-101970707D01*
X161498151Y-101973623D01*
X161507500Y-101977053D01*
X161515755Y-101980428D01*
X161520000Y-101985390D01*
X161520391Y-101987157D01*
X161525000Y-101987500D01*
X161526937Y-101986718D01*
X161530000Y-101989704D01*
X161530591Y-101991866D01*
X161536735Y-101995000D01*
X161544655Y-101997815D01*
X161555000Y-102005000D01*
X161564816Y-102011949D01*
X161572908Y-102015000D01*
X161576996Y-102015837D01*
X161586067Y-102021250D01*
X161592373Y-102025774D01*
X161605377Y-102033588D01*
X161621424Y-102042324D01*
X161635197Y-102049995D01*
X161645901Y-102057072D01*
X161650000Y-102061369D01*
X161650367Y-102062724D01*
X161655000Y-102062500D01*
X161656937Y-102061718D01*
X161660000Y-102064704D01*
X161660704Y-102066999D01*
X161667084Y-102070000D01*
X161670099Y-102070420D01*
X161675834Y-102074865D01*
X161678756Y-102075487D01*
X161688280Y-102072880D01*
X161701752Y-102067467D01*
X161716462Y-102060466D01*
X161729699Y-102053097D01*
X161738752Y-102046577D01*
X161743983Y-102042755D01*
X161755565Y-102037320D01*
X161763732Y-102033700D01*
X161775697Y-102025743D01*
X161782805Y-102020582D01*
X161788913Y-102018272D01*
X161789236Y-102018326D01*
X161795000Y-102015448D01*
X161797989Y-102012991D01*
X161807995Y-102006519D01*
X161822770Y-101997663D01*
X161840090Y-101987680D01*
X161857732Y-101977825D01*
X161873473Y-101969355D01*
X161885089Y-101963524D01*
X161890358Y-101961589D01*
X161894283Y-101960096D01*
X161901965Y-101953750D01*
X161908988Y-101948294D01*
X161917858Y-101945000D01*
X161920964Y-101944578D01*
X161925000Y-101940791D01*
X161928926Y-101936788D01*
X161939628Y-101930016D01*
X161954732Y-101922041D01*
X161969400Y-101914117D01*
X161980419Y-101906655D01*
X161984732Y-101901616D01*
X161981120Y-101896601D01*
X161970862Y-101888572D01*
X161956250Y-101879447D01*
X161941902Y-101871064D01*
X161930352Y-101863803D01*
X161925000Y-101859754D01*
X161921066Y-101856910D01*
X161911250Y-101852836D01*
X161904170Y-101849515D01*
X161900000Y-101844367D01*
X161899616Y-101842704D01*
X161895000Y-101842500D01*
X161893123Y-101843344D01*
X161890000Y-101841299D01*
X161889768Y-101840519D01*
X161883869Y-101835826D01*
X161872501Y-101830680D01*
X161869633Y-101829594D01*
X161859214Y-101824587D01*
X161855001Y-101820680D01*
X161854764Y-101819993D01*
X161848859Y-101815672D01*
X161837501Y-101810680D01*
X161834677Y-101809598D01*
X161824228Y-101804244D01*
X161820001Y-101799676D01*
X161819282Y-101797637D01*
X161812858Y-101795000D01*
X161806483Y-101793078D01*
X161796965Y-101786250D01*
X161791089Y-101781050D01*
X161787858Y-101779832D01*
X161787839Y-101779885D01*
X161783398Y-101778522D01*
X161772727Y-101773133D01*
X161758042Y-101764832D01*
X161743488Y-101756379D01*
X161719778Y-101742893D01*
X161698078Y-101730830D01*
X161697666Y-101730605D01*
X161682132Y-101721801D01*
X161670420Y-101714602D01*
X161665036Y-101710546D01*
X161664720Y-101710171D01*
X161657865Y-101705737D01*
X161646250Y-101700359D01*
X161644331Y-101699556D01*
X161634150Y-101694177D01*
X161630000Y-101689935D01*
X161626854Y-101686597D01*
X161617500Y-101682946D01*
X161609243Y-101679643D01*
X161605000Y-101674904D01*
X161604699Y-101673337D01*
X161599274Y-101670000D01*
X161595396Y-101668732D01*
X161584168Y-101663349D01*
X161567929Y-101654777D01*
X161548655Y-101644143D01*
X161528323Y-101632578D01*
X161508908Y-101621208D01*
X161492386Y-101611163D01*
X161480734Y-101603571D01*
X161475928Y-101599560D01*
X161475580Y-101598995D01*
X161468938Y-101594650D01*
X161457178Y-101589893D01*
X161454740Y-101589042D01*
X161444256Y-101584047D01*
X161440000Y-101579612D01*
X161439685Y-101578114D01*
X161434209Y-101575000D01*
X161430191Y-101573410D01*
X161418702Y-101567576D01*
X161401494Y-101558316D01*
X161380169Y-101546542D01*
X161356326Y-101533162D01*
X161331565Y-101519089D01*
X161307486Y-101505232D01*
X161285691Y-101492502D01*
X161267778Y-101481810D01*
X161255348Y-101474065D01*
X161250000Y-101470180D01*
X161249681Y-101469834D01*
X161242845Y-101465635D01*
X161231250Y-101460359D01*
X161229331Y-101459556D01*
X161219150Y-101454177D01*
X161215000Y-101449935D01*
X161212038Y-101446678D01*
X161202850Y-101443034D01*
X161194084Y-101439897D01*
X161183927Y-101433742D01*
X161177623Y-101429221D01*
X161164623Y-101421409D01*
X161148577Y-101412675D01*
X161134752Y-101405136D01*
X161124084Y-101398548D01*
X161120000Y-101394929D01*
X161119758Y-101394357D01*
X161113846Y-101390484D01*
X161102500Y-101385680D01*
X161099662Y-101384597D01*
X161089223Y-101379359D01*
X161085000Y-101375013D01*
X161082475Y-101371514D01*
X161073750Y-101367259D01*
X161072926Y-101366977D01*
X161063320Y-101362512D01*
X161047460Y-101354165D01*
X161027352Y-101343018D01*
X161005000Y-101330155D01*
X160983650Y-101317683D01*
X160952018Y-101299300D01*
X160920161Y-101280874D01*
X160892500Y-101264965D01*
X160890090Y-101263583D01*
X160869351Y-101251549D01*
X160852096Y-101241293D01*
X160840066Y-101233864D01*
X160835000Y-101230310D01*
X160834674Y-101229986D01*
X160828064Y-101225759D01*
X160815287Y-101218666D01*
X160798750Y-101210053D01*
X160795573Y-101208430D01*
X160780052Y-101200078D01*
X160769129Y-101193492D01*
X160765000Y-101189980D01*
X160764759Y-101189400D01*
X160758847Y-101185497D01*
X160747500Y-101180680D01*
X160744633Y-101179594D01*
X160734214Y-101174587D01*
X160730000Y-101170680D01*
X160729764Y-101169993D01*
X160723859Y-101165672D01*
X160712500Y-101160680D01*
X160709633Y-101159594D01*
X160699214Y-101154587D01*
X160695000Y-101150680D01*
X160694764Y-101149993D01*
X160688859Y-101145672D01*
X160677500Y-101140680D01*
X160674677Y-101139598D01*
X160664228Y-101134244D01*
X160660000Y-101129676D01*
X160659282Y-101127637D01*
X160652858Y-101125000D01*
X160646483Y-101123078D01*
X160636965Y-101116250D01*
X160631088Y-101111058D01*
X160627858Y-101109867D01*
X160627847Y-101109892D01*
X160623449Y-101108141D01*
X160612373Y-101102418D01*
X160596489Y-101093784D01*
X160577669Y-101083299D01*
X160557783Y-101072024D01*
X160538702Y-101061018D01*
X160522298Y-101051343D01*
X160510440Y-101044059D01*
X160505000Y-101040227D01*
X160500265Y-101037096D01*
X160488942Y-101030716D01*
X160473750Y-101022675D01*
X160459817Y-101014995D01*
X160449102Y-101008054D01*
X160445000Y-101003925D01*
X160444278Y-101002213D01*
X160437833Y-101000000D01*
X160434234Y-100999055D01*
X160423375Y-100994127D01*
X160408998Y-100986490D01*
X160394128Y-100977856D01*
X160381788Y-100969936D01*
X160375000Y-100964439D01*
X160371059Y-100961786D01*
X160361250Y-100957836D01*
X160354170Y-100954515D01*
X160350000Y-100949367D01*
X160349616Y-100947704D01*
X160345000Y-100947499D01*
X160343064Y-100948281D01*
X160340000Y-100945295D01*
X160339276Y-100942979D01*
X160332858Y-100940000D01*
X160328412Y-100939173D01*
X160318852Y-100933750D01*
X160311050Y-100928201D01*
X160297600Y-100920200D01*
X160281495Y-100911397D01*
X160265546Y-100903275D01*
X160252562Y-100897315D01*
X160245354Y-100895000D01*
X160244873Y-100897452D01*
X160244225Y-100908944D01*
X160243619Y-100929163D01*
X160243055Y-100957363D01*
X160242533Y-100992798D01*
X160242055Y-101034722D01*
X160241622Y-101082389D01*
X160241235Y-101135054D01*
X160240895Y-101191969D01*
X160240602Y-101252390D01*
X160240357Y-101315569D01*
X160240162Y-101380763D01*
X160240018Y-101447224D01*
X160239925Y-101514206D01*
X160239884Y-101580963D01*
X160185009Y-101580963D01*
X160185006Y-101568547D01*
X160185000Y-101474587D01*
X160185000Y-100840200D01*
X160275000Y-100840200D01*
X160278115Y-100842894D01*
X160288639Y-100849884D01*
X160305263Y-100860212D01*
X160326596Y-100873018D01*
X160351250Y-100887440D01*
X160360694Y-100892899D01*
X160395252Y-100912886D01*
X160433050Y-100934758D01*
X160470122Y-100956219D01*
X160502500Y-100974974D01*
X160518097Y-100984008D01*
X160552303Y-101003805D01*
X160589728Y-101025449D01*
X160626813Y-101046882D01*
X160660000Y-101066046D01*
X160667296Y-101070257D01*
X160690818Y-101083837D01*
X160721370Y-101101478D01*
X160757795Y-101122513D01*
X160798935Y-101146272D01*
X160843633Y-101172089D01*
X160890731Y-101199293D01*
X160939073Y-101227217D01*
X160987500Y-101255191D01*
X161004785Y-101265176D01*
X161054009Y-101293611D01*
X161103144Y-101321994D01*
X161150963Y-101349616D01*
X161196244Y-101375771D01*
X161237763Y-101399751D01*
X161274294Y-101420851D01*
X161304615Y-101438362D01*
X161327500Y-101451578D01*
X161354915Y-101467408D01*
X161408500Y-101498354D01*
X161455186Y-101525321D01*
X161496176Y-101549008D01*
X161532676Y-101570109D01*
X161565891Y-101589323D01*
X161597026Y-101607347D01*
X161627286Y-101624878D01*
X161657876Y-101642611D01*
X161690000Y-101661246D01*
X161711864Y-101673923D01*
X161748743Y-101695278D01*
X161787863Y-101717903D01*
X161827668Y-101740899D01*
X161866601Y-101763368D01*
X161903107Y-101784413D01*
X161935629Y-101803135D01*
X161962612Y-101818637D01*
X161982500Y-101830021D01*
X161985969Y-101832001D01*
X162015504Y-101848994D01*
X162037518Y-101862076D01*
X162053130Y-101872079D01*
X162063463Y-101879835D01*
X162069637Y-101886176D01*
X162072773Y-101891935D01*
X162073993Y-101897944D01*
X162073829Y-101901616D01*
X162073529Y-101908360D01*
X162066493Y-101920673D01*
X162065620Y-101921353D01*
X162056897Y-101927106D01*
X162041269Y-101936732D01*
X162020191Y-101949357D01*
X161995116Y-101964108D01*
X161967500Y-101980112D01*
X161964117Y-101982059D01*
X161931509Y-102000823D01*
X161896340Y-102021067D01*
X161859858Y-102042072D01*
X161823310Y-102063121D01*
X161787943Y-102083493D01*
X161755006Y-102102470D01*
X161725746Y-102119335D01*
X161701409Y-102133367D01*
X161683245Y-102143848D01*
X161672500Y-102150059D01*
X161665478Y-102154118D01*
X161650623Y-102162693D01*
X161628924Y-102175213D01*
X161601303Y-102191147D01*
X161568679Y-102209965D01*
X161531974Y-102231135D01*
X161492108Y-102254126D01*
X161450000Y-102278408D01*
X161449158Y-102278893D01*
X161377594Y-102320164D01*
X161314200Y-102356734D01*
X161258486Y-102388890D01*
X161209962Y-102416918D01*
X161168137Y-102441107D01*
X161132521Y-102461741D01*
X161102623Y-102479108D01*
X161077955Y-102493494D01*
X161058024Y-102505187D01*
X161042342Y-102514472D01*
X161030417Y-102521637D01*
X161021760Y-102526968D01*
X161015880Y-102530752D01*
X161012287Y-102533275D01*
X161010490Y-102534824D01*
X161010000Y-102535686D01*
X161010085Y-102535859D01*
X161015373Y-102539761D01*
X161028090Y-102547865D01*
X161047137Y-102559505D01*
X161071412Y-102574018D01*
X161099816Y-102590737D01*
X161131250Y-102608999D01*
X161143852Y-102616275D01*
X161181864Y-102638234D01*
X161225416Y-102663405D01*
X161272257Y-102690486D01*
X161320136Y-102718177D01*
X161366801Y-102745174D01*
X161410000Y-102770177D01*
X161425797Y-102779321D01*
X161472975Y-102806619D01*
X161523502Y-102835844D01*
X161576377Y-102866415D01*
X161630601Y-102897757D01*
X161685173Y-102929291D01*
X161739093Y-102960439D01*
X161791359Y-102990623D01*
X161840973Y-103019266D01*
X161886933Y-103045791D01*
X161928239Y-103069618D01*
X161963890Y-103090171D01*
X161992886Y-103106871D01*
X162014227Y-103119142D01*
X162036742Y-103132643D01*
X162055725Y-103145208D01*
X162068899Y-103155327D01*
X162074731Y-103161917D01*
X162076591Y-103168633D01*
X162076196Y-103171791D01*
X162074755Y-103183300D01*
X162063429Y-103194843D01*
X162058286Y-103197975D01*
X162044302Y-103206284D01*
X162024188Y-103218113D01*
X161999469Y-103232572D01*
X161971667Y-103248773D01*
X161942306Y-103265827D01*
X161912910Y-103282845D01*
X161885000Y-103298939D01*
X161859087Y-103313849D01*
X161807073Y-103343791D01*
X161754915Y-103373831D01*
X161703593Y-103403406D01*
X161654087Y-103431949D01*
X161607376Y-103458896D01*
X161564438Y-103483683D01*
X161526252Y-103505744D01*
X161493798Y-103524514D01*
X161468054Y-103539429D01*
X161450000Y-103549923D01*
X161443770Y-103553549D01*
X161423552Y-103565266D01*
X161396470Y-103580915D01*
X161363792Y-103599766D01*
X161326788Y-103621085D01*
X161286725Y-103644144D01*
X161244873Y-103668210D01*
X161202500Y-103692553D01*
X161177815Y-103706735D01*
X161138449Y-103729386D01*
X161101780Y-103750527D01*
X161068802Y-103769581D01*
X161040513Y-103785971D01*
X161017911Y-103799120D01*
X161001991Y-103808451D01*
X160993750Y-103813388D01*
X160975000Y-103825125D01*
X160975000Y-103999767D01*
X160975083Y-104034859D01*
X160975372Y-104072952D01*
X160975844Y-104106816D01*
X160976474Y-104135298D01*
X160977233Y-104157243D01*
X160978097Y-104171497D01*
X160979039Y-104176905D01*
X160982532Y-104175496D01*
X160994132Y-104169493D01*
X161013227Y-104159124D01*
X161039186Y-104144745D01*
X161071381Y-104126710D01*
X161109183Y-104105376D01*
X161151963Y-104081095D01*
X161199093Y-104054225D01*
X161249943Y-104025120D01*
X161303885Y-103994135D01*
X161360289Y-103961624D01*
X161388349Y-103945425D01*
X161448073Y-103910948D01*
X161507241Y-103876796D01*
X161564952Y-103843488D01*
X161620305Y-103811545D01*
X161672401Y-103781485D01*
X161720338Y-103753828D01*
X161763218Y-103729094D01*
X161800138Y-103707801D01*
X161830199Y-103690471D01*
X161852500Y-103677621D01*
X161872101Y-103666332D01*
X161908577Y-103645319D01*
X161948498Y-103622316D01*
X161990763Y-103597957D01*
X162034272Y-103572878D01*
X162077924Y-103547713D01*
X162120617Y-103523097D01*
X162161251Y-103499665D01*
X162198725Y-103478051D01*
X162231937Y-103458891D01*
X162259788Y-103442819D01*
X162281176Y-103430470D01*
X162295000Y-103422478D01*
X162304867Y-103416768D01*
X162336810Y-103398299D01*
X162374835Y-103376333D01*
X162417056Y-103351958D01*
X162461583Y-103326264D01*
X162506529Y-103300341D01*
X162550006Y-103275277D01*
X162590126Y-103252161D01*
X162625000Y-103232084D01*
X162639462Y-103223710D01*
X162665992Y-103208045D01*
X162688673Y-103194256D01*
X162706288Y-103183102D01*
X162717625Y-103175344D01*
X162721466Y-103171742D01*
X162721234Y-103171406D01*
X162716167Y-103167672D01*
X162704359Y-103160147D01*
X162685616Y-103148714D01*
X162659740Y-103133260D01*
X162626538Y-103113670D01*
X162585812Y-103089829D01*
X162537369Y-103061624D01*
X162481011Y-103028939D01*
X162416544Y-102991660D01*
X162343773Y-102949672D01*
X162262500Y-102902861D01*
X162248263Y-102894662D01*
X162208359Y-102871656D01*
X162165732Y-102847044D01*
X162123231Y-102822474D01*
X162083704Y-102799591D01*
X162050000Y-102780043D01*
X162015836Y-102760228D01*
X161977169Y-102737852D01*
X161937926Y-102715184D01*
X161901179Y-102694001D01*
X161870000Y-102676075D01*
X161831142Y-102653755D01*
X161789065Y-102629499D01*
X161754393Y-102609359D01*
X161726405Y-102592881D01*
X161704377Y-102579609D01*
X161687586Y-102569087D01*
X161675309Y-102560861D01*
X161666822Y-102554473D01*
X161661403Y-102549469D01*
X161658329Y-102545394D01*
X161656876Y-102541790D01*
X161656290Y-102538989D01*
X161656437Y-102531452D01*
X161660137Y-102523969D01*
X161668453Y-102515604D01*
X161682448Y-102505420D01*
X161703184Y-102492482D01*
X161731723Y-102475854D01*
X161750227Y-102465237D01*
X161777390Y-102449619D01*
X161809602Y-102431074D01*
X161844960Y-102410700D01*
X161881560Y-102389590D01*
X161917500Y-102368843D01*
X161922164Y-102366149D01*
X161963781Y-102342117D01*
X162008574Y-102316255D01*
X162055699Y-102289051D01*
X162104310Y-102260994D01*
X162153562Y-102232571D01*
X162202609Y-102204270D01*
X162250606Y-102176578D01*
X162296706Y-102149984D01*
X162340065Y-102124975D01*
X162379837Y-102102038D01*
X162415176Y-102081663D01*
X162445237Y-102064336D01*
X162469174Y-102050545D01*
X162486141Y-102040779D01*
X162495294Y-102035524D01*
X162500207Y-102032707D01*
X162515101Y-102024129D01*
X162536244Y-102011925D01*
X162562079Y-101996995D01*
X162591047Y-101980239D01*
X162621592Y-101962557D01*
X162637485Y-101953418D01*
X162668061Y-101936009D01*
X162690660Y-101922652D01*
X162705489Y-101912262D01*
X162712759Y-101903754D01*
X162712680Y-101896044D01*
X162705461Y-101888049D01*
X162691311Y-101878684D01*
X162670440Y-101866865D01*
X162643058Y-101851507D01*
X162639936Y-101849721D01*
X162616035Y-101836037D01*
X162593666Y-101823217D01*
X162575213Y-101812628D01*
X162563058Y-101805636D01*
X162557241Y-101802279D01*
X162536188Y-101790129D01*
X162509209Y-101774557D01*
X162478305Y-101756719D01*
X162445478Y-101737771D01*
X162412733Y-101718869D01*
X162382069Y-101701169D01*
X162355491Y-101685826D01*
X162335000Y-101673996D01*
X162331657Y-101672065D01*
X162311107Y-101660183D01*
X162284512Y-101644790D01*
X162254028Y-101627134D01*
X162221806Y-101608461D01*
X162190000Y-101590018D01*
X162180700Y-101584625D01*
X162144964Y-101563922D01*
X162104453Y-101540476D01*
X162060659Y-101515149D01*
X162015073Y-101488804D01*
X161969189Y-101462301D01*
X161924497Y-101436503D01*
X161882490Y-101412270D01*
X161844661Y-101390465D01*
X161812500Y-101371949D01*
X161787500Y-101357583D01*
X161774495Y-101350102D01*
X161752985Y-101337696D01*
X161725343Y-101321731D01*
X161692896Y-101302976D01*
X161656972Y-101282197D01*
X161618898Y-101260162D01*
X161580000Y-101237637D01*
X161579108Y-101237120D01*
X161541591Y-101215397D01*
X161506088Y-101194858D01*
X161473705Y-101176141D01*
X161445549Y-101159884D01*
X161422725Y-101146727D01*
X161406340Y-101137307D01*
X161397500Y-101132265D01*
X161393752Y-101130136D01*
X161380842Y-101122733D01*
X161360850Y-101111226D01*
X161334786Y-101096198D01*
X161303660Y-101078232D01*
X161268480Y-101057909D01*
X161230257Y-101035813D01*
X161190000Y-101012527D01*
X161185812Y-101010103D01*
X161140182Y-100983703D01*
X161092449Y-100956093D01*
X161044407Y-100928308D01*
X160997848Y-100901387D01*
X160954566Y-100876365D01*
X160916352Y-100854279D01*
X160885000Y-100836166D01*
X160866289Y-100825353D01*
X160826813Y-100802518D01*
X160785595Y-100778647D01*
X160745236Y-100755248D01*
X160708337Y-100733829D01*
X160677500Y-100715896D01*
X160669772Y-100711408D01*
X160643206Y-100696150D01*
X160619807Y-100682971D01*
X160600936Y-100672622D01*
X160587955Y-100665852D01*
X160582226Y-100663412D01*
X160581093Y-100663752D01*
X160572697Y-100667831D01*
X160557434Y-100675981D01*
X160536502Y-100687512D01*
X160511100Y-100701735D01*
X160482427Y-100717959D01*
X160451681Y-100735494D01*
X160420063Y-100753651D01*
X160388771Y-100771740D01*
X160359003Y-100789070D01*
X160331960Y-100804952D01*
X160308838Y-100818696D01*
X160290839Y-100829612D01*
X160279160Y-100837010D01*
X160275000Y-100840200D01*
X160185000Y-100840200D01*
X160185000Y-100825725D01*
X160198175Y-100815362D01*
X160199034Y-100814693D01*
X160209049Y-100807825D01*
X160215442Y-100805000D01*
X160220486Y-100802866D01*
X160232413Y-100796470D01*
X160249269Y-100786836D01*
X160269196Y-100775000D01*
X160287796Y-100763999D01*
X160305302Y-100754140D01*
X160318154Y-100747459D01*
X160324428Y-100745000D01*
X160326123Y-100744762D01*
X160330000Y-100740000D01*
X160330847Y-100737699D01*
X160337500Y-100735000D01*
X160340937Y-100734548D01*
X160345000Y-100730962D01*
X160345750Y-100729539D01*
X160352847Y-100724299D01*
X160365009Y-100718096D01*
X160369674Y-100715959D01*
X160382968Y-100709023D01*
X160391387Y-100703384D01*
X160395684Y-100700214D01*
X160407549Y-100693099D01*
X160422629Y-100685122D01*
X160432820Y-100679900D01*
X160444454Y-100673463D01*
X160450000Y-100669719D01*
X160452680Y-100667725D01*
X160462416Y-100662109D01*
X160476250Y-100654961D01*
X160485371Y-100650164D01*
X160495899Y-100643591D01*
X160500000Y-100639450D01*
X160502299Y-100636394D01*
X160510762Y-100632258D01*
X160516703Y-100629869D01*
X160530375Y-100623114D01*
X160545982Y-100614421D01*
X160552395Y-100610844D01*
X160574839Y-100602009D01*
X160593327Y-100600853D01*
X160606786Y-100607499D01*
X160612036Y-100611783D01*
X160619643Y-100614999D01*
X160621139Y-100615183D01*
X160625000Y-100619612D01*
X160625213Y-100620399D01*
X160631088Y-100625110D01*
X160642500Y-100629999D01*
X160645222Y-100630954D01*
X160655741Y-100635974D01*
X160660000Y-100640387D01*
X160660699Y-100642378D01*
X160667084Y-100645000D01*
X160670078Y-100645319D01*
X160675834Y-100648750D01*
X160676429Y-100649575D01*
X160683368Y-100654706D01*
X160695000Y-100661134D01*
X160702944Y-100665245D01*
X160720063Y-100674732D01*
X160737500Y-100684978D01*
X160748169Y-100691286D01*
X160763687Y-100699884D01*
X160774899Y-100705407D01*
X160783725Y-100709738D01*
X160789899Y-100714185D01*
X160793026Y-100716647D01*
X160803183Y-100722680D01*
X160817372Y-100730122D01*
X160827304Y-100735269D01*
X160840710Y-100742926D01*
X160848614Y-100748384D01*
X160850561Y-100749935D01*
X160861058Y-100756268D01*
X160874992Y-100763096D01*
X160880407Y-100765636D01*
X160890852Y-100771677D01*
X160895000Y-100775962D01*
X160895840Y-100777812D01*
X160902500Y-100780000D01*
X160905951Y-100780564D01*
X160910000Y-100785000D01*
X160910200Y-100786360D01*
X160915278Y-100790000D01*
X160920221Y-100791833D01*
X160932241Y-100797910D01*
X160949162Y-100807230D01*
X160969028Y-100818750D01*
X160985648Y-100828537D01*
X161005098Y-100839810D01*
X161020664Y-100848631D01*
X161030000Y-100853655D01*
X161040001Y-100858877D01*
X161052500Y-100866083D01*
X161053887Y-100866951D01*
X161081412Y-100883838D01*
X161104829Y-100897522D01*
X161122741Y-100907210D01*
X161133750Y-100912112D01*
X161140839Y-100915405D01*
X161145000Y-100920336D01*
X161145357Y-100921923D01*
X161150951Y-100925000D01*
X161153246Y-100925713D01*
X161163232Y-100930615D01*
X161179237Y-100939399D01*
X161199634Y-100951162D01*
X161222801Y-100964999D01*
X161235327Y-100972541D01*
X161257183Y-100985386D01*
X161275383Y-100995680D01*
X161288311Y-101002519D01*
X161294351Y-101004999D01*
X161296115Y-101005250D01*
X161300000Y-101010000D01*
X161300256Y-101011498D01*
X161305530Y-101014999D01*
X161305762Y-101015020D01*
X161312614Y-101017897D01*
X161325989Y-101024934D01*
X161344060Y-101035135D01*
X161365000Y-101047499D01*
X161366933Y-101048662D01*
X161387693Y-101060875D01*
X161405420Y-101070834D01*
X161418288Y-101077542D01*
X161424471Y-101079999D01*
X161426128Y-101080230D01*
X161430000Y-101085000D01*
X161430211Y-101086388D01*
X161435328Y-101089999D01*
X161438291Y-101090909D01*
X161448781Y-101095918D01*
X161464390Y-101104322D01*
X161482981Y-101114999D01*
X161494508Y-101121702D01*
X161511429Y-101131123D01*
X161524013Y-101137594D01*
X161530154Y-101139999D01*
X161531207Y-101140111D01*
X161535000Y-101144663D01*
X161537183Y-101148187D01*
X161545550Y-101152674D01*
X161549950Y-101154530D01*
X161562587Y-101161061D01*
X161579839Y-101170761D01*
X161599300Y-101182305D01*
X161611170Y-101189409D01*
X161629757Y-101200056D01*
X161644767Y-101208077D01*
X161653750Y-101212131D01*
X161660852Y-101215220D01*
X161665000Y-101219450D01*
X161666838Y-101221817D01*
X161675457Y-101227775D01*
X161688750Y-101235036D01*
X161694801Y-101238150D01*
X161712585Y-101247877D01*
X161733930Y-101260077D01*
X161755453Y-101272832D01*
X161767079Y-101279757D01*
X161785549Y-101290312D01*
X161800403Y-101298253D01*
X161809203Y-101302247D01*
X161815860Y-101305242D01*
X161820000Y-101309794D01*
X161823821Y-101313586D01*
X161833750Y-101317328D01*
X161844718Y-101321515D01*
X161857500Y-101329677D01*
X161858370Y-101330428D01*
X161868461Y-101337786D01*
X161883080Y-101347176D01*
X161899649Y-101357095D01*
X161915588Y-101366040D01*
X161928321Y-101372509D01*
X161935268Y-101374999D01*
X161936223Y-101375096D01*
X161940000Y-101379663D01*
X161942357Y-101383297D01*
X161950902Y-101387786D01*
X161954515Y-101389235D01*
X161966836Y-101395335D01*
X161983871Y-101404584D01*
X162003074Y-101415623D01*
X162013582Y-101421728D01*
X162030539Y-101431122D01*
X162043293Y-101437591D01*
X162049673Y-101440000D01*
X162051131Y-101440158D01*
X162055000Y-101444145D01*
X162057166Y-101446842D01*
X162066246Y-101452869D01*
X162080001Y-101460000D01*
X162090149Y-101465112D01*
X162100849Y-101471629D01*
X162105000Y-101475854D01*
X162105511Y-101477459D01*
X162111506Y-101479999D01*
X162111911Y-101480030D01*
X162119772Y-101483116D01*
X162132994Y-101490277D01*
X162148948Y-101500101D01*
X162149597Y-101500522D01*
X162166503Y-101511155D01*
X162181422Y-101519967D01*
X162191192Y-101525089D01*
X162199352Y-101528957D01*
X162210000Y-101534965D01*
X162213434Y-101537200D01*
X162227953Y-101546145D01*
X162246688Y-101557211D01*
X162267507Y-101569193D01*
X162288273Y-101580885D01*
X162306852Y-101591079D01*
X162321108Y-101598571D01*
X162328907Y-101602152D01*
X162335843Y-101605385D01*
X162340000Y-101610336D01*
X162340159Y-101611491D01*
X162345086Y-101614999D01*
X162345629Y-101615092D01*
X162352974Y-101618317D01*
X162366266Y-101625249D01*
X162383310Y-101634656D01*
X162401910Y-101645307D01*
X162419872Y-101655972D01*
X162435000Y-101665420D01*
X162439235Y-101667884D01*
X162451250Y-101673228D01*
X162455941Y-101675443D01*
X162460000Y-101680246D01*
X162462224Y-101683442D01*
X162470617Y-101687695D01*
X162472360Y-101688378D01*
X162482713Y-101693571D01*
X162499114Y-101702610D01*
X162519691Y-101714447D01*
X162542574Y-101728032D01*
X162550986Y-101733073D01*
X162572425Y-101745642D01*
X162590375Y-101755775D01*
X162603159Y-101762538D01*
X162609100Y-101764999D01*
X162612626Y-101765870D01*
X162620893Y-101771323D01*
X162625231Y-101774633D01*
X162637189Y-101781973D01*
X162652309Y-101790073D01*
X162661862Y-101795109D01*
X162676829Y-101803961D01*
X162686874Y-101811131D01*
X162686949Y-101811197D01*
X162698733Y-101818880D01*
X162713316Y-101825269D01*
X162715322Y-101825964D01*
X162725751Y-101830918D01*
X162730000Y-101835387D01*
X162730699Y-101837378D01*
X162737084Y-101840000D01*
X162740078Y-101840319D01*
X162745834Y-101843750D01*
X162750033Y-101847170D01*
X162761017Y-101853605D01*
X162776124Y-101861342D01*
X162789643Y-101868654D01*
X162802811Y-101877595D01*
X162809874Y-101884763D01*
X162810879Y-101889320D01*
X162812098Y-101903990D01*
X162813107Y-101928043D01*
X162813899Y-101961119D01*
X162814465Y-102002863D01*
X162814798Y-102052916D01*
X162814889Y-102110921D01*
X162814883Y-102131400D01*
X162814869Y-102181647D01*
X162814760Y-102223141D01*
X162814428Y-102256797D01*
X162813742Y-102283530D01*
X162812575Y-102304256D01*
X162810798Y-102319892D01*
X162808281Y-102331351D01*
X162804895Y-102339550D01*
X162800513Y-102345404D01*
X162795004Y-102349830D01*
X162788240Y-102353741D01*
X162780092Y-102358054D01*
X162777518Y-102359478D01*
X162764684Y-102367313D01*
X162755985Y-102373750D01*
X162751916Y-102376926D01*
X162744534Y-102379999D01*
X162743717Y-102380213D01*
X162736038Y-102383896D01*
X162722282Y-102391299D01*
X162704381Y-102401320D01*
X162684270Y-102412852D01*
X162663881Y-102424791D01*
X162645147Y-102436031D01*
X162630000Y-102445469D01*
X162625764Y-102447912D01*
X162613750Y-102453228D01*
X162609057Y-102455421D01*
X162605000Y-102460094D01*
X162601054Y-102464371D01*
X162591250Y-102469351D01*
X162589536Y-102470035D01*
X162571990Y-102478250D01*
X162550534Y-102489758D01*
X162528997Y-102502419D01*
X162511211Y-102514090D01*
X162507461Y-102516705D01*
X162498560Y-102522215D01*
X162495000Y-102523236D01*
X162494685Y-102523170D01*
X162488602Y-102525952D01*
X162475955Y-102532827D01*
X162458299Y-102542930D01*
X162437190Y-102555396D01*
X162431896Y-102558553D01*
X162410826Y-102570878D01*
X162393118Y-102580864D01*
X162380497Y-102587556D01*
X162374690Y-102590000D01*
X162373577Y-102590143D01*
X162370000Y-102595000D01*
X162369857Y-102596193D01*
X162365059Y-102600000D01*
X162359501Y-102602200D01*
X162347100Y-102608611D01*
X162329835Y-102618218D01*
X162309594Y-102630000D01*
X162290245Y-102641374D01*
X162273403Y-102651049D01*
X162261561Y-102657594D01*
X162256506Y-102660000D01*
X162256411Y-102660012D01*
X162250830Y-102662744D01*
X162238531Y-102669564D01*
X162221249Y-102679489D01*
X162200721Y-102691538D01*
X162179757Y-102703854D01*
X162158329Y-102716230D01*
X162140497Y-102726311D01*
X162128750Y-102732675D01*
X162124083Y-102735148D01*
X162114014Y-102741236D01*
X162110000Y-102744926D01*
X162110723Y-102745894D01*
X162117780Y-102751159D01*
X162130731Y-102759600D01*
X162147565Y-102770020D01*
X162166268Y-102781226D01*
X162184830Y-102792022D01*
X162201239Y-102801213D01*
X162213483Y-102807604D01*
X162219550Y-102809999D01*
X162221138Y-102810217D01*
X162225000Y-102815000D01*
X162225256Y-102816498D01*
X162230530Y-102820000D01*
X162230762Y-102820020D01*
X162237614Y-102822897D01*
X162250989Y-102829934D01*
X162269060Y-102840135D01*
X162290000Y-102852500D01*
X162292290Y-102853878D01*
X162312687Y-102866015D01*
X162329709Y-102875904D01*
X162341635Y-102882561D01*
X162346744Y-102885000D01*
X162347306Y-102885171D01*
X162354323Y-102888810D01*
X162367795Y-102896463D01*
X162386072Y-102907176D01*
X162407500Y-102919999D01*
X162413323Y-102923509D01*
X162434008Y-102935862D01*
X162451049Y-102945861D01*
X162462813Y-102952557D01*
X162467669Y-102955000D01*
X162472316Y-102957260D01*
X162483849Y-102963684D01*
X162500470Y-102973266D01*
X162520407Y-102985000D01*
X162539733Y-102996305D01*
X162556909Y-103006013D01*
X162569209Y-103012584D01*
X162574791Y-103015000D01*
X162574804Y-103015000D01*
X162581123Y-103017832D01*
X162590865Y-103024606D01*
X162595835Y-103028254D01*
X162611806Y-103038638D01*
X162632327Y-103050893D01*
X162654376Y-103063245D01*
X162674933Y-103073924D01*
X162676924Y-103074921D01*
X162690672Y-103082623D01*
X162700794Y-103089528D01*
X162703129Y-103091348D01*
X162710020Y-103095970D01*
X162720900Y-103102489D01*
X162736981Y-103111602D01*
X162759475Y-103124002D01*
X162789596Y-103140383D01*
X162792200Y-103141841D01*
X162803908Y-103149595D01*
X162810769Y-103156072D01*
X162811363Y-103159351D01*
X162812172Y-103171742D01*
X162812179Y-103171848D01*
G37*
%LPC*%
D17*
X136645000Y-90230000D03*
X136645000Y-92770000D03*
X136645000Y-95310000D03*
X136645000Y-97850000D03*
X136645000Y-100390000D03*
X136645000Y-102930000D03*
X151885000Y-105470000D03*
X151885000Y-102930000D03*
X151885000Y-100390000D03*
X151885000Y-97850000D03*
X151885000Y-95310000D03*
X151885000Y-92770000D03*
D18*
X141560000Y-103350000D03*
D19*
X142310000Y-103350000D03*
X145310000Y-103350000D03*
D18*
X146060000Y-103350000D03*
D20*
X141621528Y-96828213D03*
D21*
X142551528Y-96828213D03*
D22*
X161480000Y-107100000D03*
D23*
X159480000Y-107100000D03*
D24*
X161350000Y-91400000D03*
D25*
X159350000Y-91400000D03*
X157350000Y-91400000D03*
D26*
X163450000Y-91400000D03*
X155250000Y-91400000D03*
D27*
X143093156Y-93687500D03*
X143093156Y-91812500D03*
D17*
X158500000Y-109750000D03*
X155960000Y-109750000D03*
X153420000Y-109750000D03*
X150880000Y-109750000D03*
X148340000Y-109750000D03*
X145800000Y-109750000D03*
X143260000Y-109750000D03*
X140720000Y-109750000D03*
X138180000Y-109750000D03*
X135640000Y-109750000D03*
D28*
X157070000Y-98765000D03*
D29*
X141000000Y-91837500D03*
X141000000Y-93662500D03*
X149851452Y-88556223D03*
X149851452Y-90381223D03*
X147851452Y-88556223D03*
X147851452Y-90381223D03*
D30*
X146000000Y-93000000D03*
X150200000Y-93000000D03*
%LPD*%
M02*
