G04 #@! TF.GenerationSoftware,KiCad,Pcbnew,9.0.0*
G04 #@! TF.CreationDate,2026-03-02T13:57:17-06:00*
G04 #@! TF.ProjectId,eidon-tracker,6569646f-6e2d-4747-9261-636b65722e6b,rev?*
G04 #@! TF.SameCoordinates,Original*
G04 #@! TF.FileFunction,Copper,L2,Bot*
G04 #@! TF.FilePolarity,Positive*
%FSLAX46Y46*%
G04 Gerber Fmt 4.6, Leading zero omitted, Abs format (unit mm)*
G04 Created by KiCad (PCBNEW 9.0.0) date 2026-03-02 13:57:17*
%MOMM*%
%LPD*%
G01*
G04 APERTURE LIST*
G04 Aperture macros list*
%AMRoundRect*
0 Rectangle with rounded corners*
0 $1 Rounding radius*
0 $2 $3 $4 $5 $6 $7 $8 $9 X,Y pos of 4 corners*
0 Add a 4 corners polygon primitive as box body*
4,1,4,$2,$3,$4,$5,$6,$7,$8,$9,$2,$3,0*
0 Add four circle primitives for the rounded corners*
1,1,$1+$1,$2,$3*
1,1,$1+$1,$4,$5*
1,1,$1+$1,$6,$7*
1,1,$1+$1,$8,$9*
0 Add four rect primitives between the rounded corners*
20,1,$1+$1,$2,$3,$4,$5,0*
20,1,$1+$1,$4,$5,$6,$7,0*
20,1,$1+$1,$6,$7,$8,$9,0*
20,1,$1+$1,$8,$9,$2,$3,0*%
G04 Aperture macros list end*
G04 #@! TA.AperFunction,ComponentPad*
%ADD10O,1.750000X1.200000*%
G04 #@! TD*
G04 #@! TA.AperFunction,ComponentPad*
%ADD11RoundRect,0.250000X0.625000X-0.350000X0.625000X0.350000X-0.625000X0.350000X-0.625000X-0.350000X0*%
G04 #@! TD*
G04 #@! TA.AperFunction,ComponentPad*
%ADD12O,2.200000X3.500000*%
G04 #@! TD*
G04 #@! TA.AperFunction,ComponentPad*
%ADD13R,1.500000X2.500000*%
G04 #@! TD*
G04 #@! TA.AperFunction,ComponentPad*
%ADD14O,1.500000X2.500000*%
G04 #@! TD*
G04 #@! TA.AperFunction,ViaPad*
%ADD15C,0.600000*%
G04 #@! TD*
G04 #@! TA.AperFunction,Conductor*
%ADD16C,0.250000*%
G04 #@! TD*
G04 #@! TA.AperFunction,Conductor*
%ADD17C,0.500000*%
G04 #@! TD*
G04 APERTURE END LIST*
D10*
X155578185Y-98467448D03*
D11*
X155578185Y-100467448D03*
D12*
X163450000Y-91400000D03*
D13*
X161350000Y-91400000D03*
D14*
X159350000Y-91400000D03*
X157350000Y-91400000D03*
D12*
X155250000Y-91400000D03*
D15*
X148750000Y-95450000D03*
X139750000Y-95500000D03*
X140700000Y-99750000D03*
X144050000Y-93000000D03*
X138800000Y-103000000D03*
X140000000Y-88580000D03*
X157700000Y-96900000D03*
X143450000Y-105750000D03*
X159698005Y-88536838D03*
X162250000Y-106400000D03*
X147400000Y-100750000D03*
X158100000Y-110450000D03*
X157050000Y-105300000D03*
X152300000Y-109700000D03*
X161600000Y-110450000D03*
X149200000Y-90700000D03*
X154750000Y-102600000D03*
X138450000Y-100400000D03*
X155700000Y-101750000D03*
X136300000Y-107650000D03*
X138478101Y-90251500D03*
X156358720Y-93900789D03*
X159550000Y-105100000D03*
X138700000Y-107750000D03*
X150000000Y-106900000D03*
X147800000Y-107650000D03*
X162250000Y-102550000D03*
X159750000Y-102500000D03*
D16*
X154750000Y-102600000D02*
X140650000Y-102600000D01*
X140650000Y-102600000D02*
X138450000Y-100400000D01*
X155700000Y-102750000D02*
X155150000Y-103300000D01*
X140650000Y-103300000D02*
X136300000Y-107650000D01*
X155150000Y-103300000D02*
X140650000Y-103300000D01*
X155700000Y-101750000D02*
X155700000Y-102750000D01*
D17*
X138478101Y-90251500D02*
X145801500Y-90251500D01*
X151000000Y-95450000D02*
X155460000Y-95450000D01*
X145801500Y-90251500D02*
X151000000Y-95450000D01*
X155460000Y-95450000D02*
X156358720Y-94551280D01*
X156358720Y-94551280D02*
X156358720Y-93900789D01*
D16*
X138700000Y-106350000D02*
X141100000Y-103950000D01*
X141100000Y-103950000D02*
X158400000Y-103950000D01*
X138700000Y-107750000D02*
X138700000Y-106350000D01*
X158400000Y-103950000D02*
X159550000Y-105100000D01*
X149250000Y-107650000D02*
X150000000Y-106900000D01*
X147800000Y-107650000D02*
X149250000Y-107650000D01*
X159750000Y-102500000D02*
X162200000Y-102500000D01*
X162200000Y-102500000D02*
X162250000Y-102550000D01*
G04 #@! TA.AperFunction,Conductor*
G36*
X162942539Y-87770185D02*
G01*
X162988294Y-87822989D01*
X162999500Y-87874500D01*
X162999499Y-89123420D01*
X162979814Y-89190460D01*
X162927010Y-89236214D01*
X162913818Y-89241351D01*
X162835616Y-89266760D01*
X162611151Y-89381132D01*
X162407350Y-89529200D01*
X162315487Y-89621062D01*
X162254163Y-89654546D01*
X162214553Y-89656669D01*
X162205522Y-89655698D01*
X162147873Y-89649500D01*
X162147865Y-89649500D01*
X160552129Y-89649500D01*
X160552123Y-89649501D01*
X160492516Y-89655908D01*
X160357671Y-89706202D01*
X160357664Y-89706206D01*
X160242455Y-89792452D01*
X160213765Y-89830777D01*
X160157830Y-89872648D01*
X160088139Y-89877631D01*
X160041613Y-89856783D01*
X160005405Y-89830476D01*
X159830029Y-89741117D01*
X159642826Y-89680290D01*
X159448422Y-89649500D01*
X159448417Y-89649500D01*
X159251583Y-89649500D01*
X159251578Y-89649500D01*
X159057173Y-89680290D01*
X158869970Y-89741117D01*
X158694594Y-89830476D01*
X158629692Y-89877631D01*
X158535354Y-89946172D01*
X158535352Y-89946174D01*
X158535351Y-89946174D01*
X158437681Y-90043845D01*
X158376358Y-90077330D01*
X158306666Y-90072346D01*
X158262319Y-90043845D01*
X158164648Y-89946174D01*
X158164646Y-89946172D01*
X158005405Y-89830476D01*
X157830029Y-89741117D01*
X157642826Y-89680290D01*
X157448422Y-89649500D01*
X157448417Y-89649500D01*
X157251583Y-89649500D01*
X157251578Y-89649500D01*
X157057173Y-89680290D01*
X156869967Y-89741118D01*
X156690460Y-89832582D01*
X156621791Y-89845478D01*
X156557051Y-89819201D01*
X156533848Y-89794982D01*
X156470414Y-89707673D01*
X156470409Y-89707667D01*
X156292332Y-89529590D01*
X156088583Y-89381557D01*
X155864184Y-89267219D01*
X155624670Y-89189397D01*
X155500000Y-89169650D01*
X155500000Y-90691759D01*
X155468767Y-90678822D01*
X155323869Y-90650000D01*
X155176131Y-90650000D01*
X155031233Y-90678822D01*
X155000000Y-90691759D01*
X155000000Y-89169650D01*
X154875330Y-89189397D01*
X154875327Y-89189397D01*
X154635815Y-89267219D01*
X154411416Y-89381557D01*
X154207668Y-89529590D01*
X154207667Y-89529590D01*
X154029590Y-89707667D01*
X154029590Y-89707668D01*
X153881557Y-89911416D01*
X153767219Y-90135815D01*
X153689397Y-90375330D01*
X153650000Y-90624071D01*
X153650000Y-91150000D01*
X154541759Y-91150000D01*
X154528822Y-91181233D01*
X154500000Y-91326131D01*
X154500000Y-91473869D01*
X154528822Y-91618767D01*
X154541759Y-91650000D01*
X153650000Y-91650000D01*
X153650000Y-92175928D01*
X153689397Y-92424669D01*
X153767219Y-92664184D01*
X153881557Y-92888583D01*
X154029590Y-93092331D01*
X154029590Y-93092332D01*
X154207667Y-93270409D01*
X154411416Y-93418442D01*
X154635815Y-93532780D01*
X154875329Y-93610602D01*
X155000000Y-93630348D01*
X155000000Y-92108240D01*
X155031233Y-92121178D01*
X155176131Y-92150000D01*
X155323869Y-92150000D01*
X155468767Y-92121178D01*
X155500000Y-92108240D01*
X155500000Y-93630348D01*
X155527078Y-93653475D01*
X155565271Y-93711982D01*
X155568163Y-93771956D01*
X155558220Y-93821942D01*
X155558220Y-93979635D01*
X155588981Y-94134278D01*
X155588983Y-94134286D01*
X155593994Y-94146383D01*
X155601463Y-94215852D01*
X155570188Y-94278332D01*
X155567114Y-94281517D01*
X155185451Y-94663181D01*
X155124128Y-94696666D01*
X155097770Y-94699500D01*
X151362229Y-94699500D01*
X151295190Y-94679815D01*
X151274548Y-94663181D01*
X148297688Y-91686319D01*
X146279921Y-89668552D01*
X146279914Y-89668546D01*
X146206229Y-89619312D01*
X146206229Y-89619313D01*
X146156991Y-89586413D01*
X146020417Y-89529843D01*
X146020407Y-89529840D01*
X145875420Y-89501000D01*
X145875418Y-89501000D01*
X138782705Y-89501000D01*
X138735256Y-89491562D01*
X138711598Y-89481763D01*
X138711594Y-89481762D01*
X138711589Y-89481760D01*
X138556946Y-89451000D01*
X138556943Y-89451000D01*
X138399259Y-89451000D01*
X138399256Y-89451000D01*
X138244611Y-89481761D01*
X138244599Y-89481764D01*
X138098928Y-89542102D01*
X138098915Y-89542109D01*
X137967812Y-89629710D01*
X137967808Y-89629713D01*
X137856314Y-89741207D01*
X137856311Y-89741211D01*
X137768710Y-89872314D01*
X137768703Y-89872327D01*
X137708365Y-90017998D01*
X137708362Y-90018010D01*
X137677601Y-90172653D01*
X137677601Y-90330346D01*
X137708362Y-90484989D01*
X137708365Y-90485001D01*
X137768703Y-90630672D01*
X137768710Y-90630685D01*
X137856311Y-90761788D01*
X137856314Y-90761792D01*
X137967808Y-90873286D01*
X137967812Y-90873289D01*
X138098915Y-90960890D01*
X138098928Y-90960897D01*
X138198161Y-91002000D01*
X138244604Y-91021237D01*
X138362771Y-91044742D01*
X138399254Y-91051999D01*
X138399257Y-91052000D01*
X138399259Y-91052000D01*
X138556945Y-91052000D01*
X138556946Y-91051999D01*
X138633253Y-91036820D01*
X138711589Y-91021239D01*
X138711590Y-91021238D01*
X138711598Y-91021237D01*
X138735256Y-91011437D01*
X138782705Y-91002000D01*
X145439270Y-91002000D01*
X145506309Y-91021685D01*
X145526951Y-91038319D01*
X150521580Y-96032948D01*
X150521584Y-96032951D01*
X150644498Y-96115080D01*
X150644511Y-96115087D01*
X150781082Y-96171656D01*
X150781087Y-96171658D01*
X150781091Y-96171658D01*
X150781092Y-96171659D01*
X150926079Y-96200500D01*
X150926082Y-96200500D01*
X155533920Y-96200500D01*
X155631462Y-96181096D01*
X155678913Y-96171658D01*
X155815495Y-96115084D01*
X155864729Y-96082186D01*
X155938416Y-96032952D01*
X156941672Y-95029696D01*
X156990906Y-94956009D01*
X157023804Y-94906775D01*
X157080378Y-94770193D01*
X157109220Y-94625198D01*
X157109220Y-94205393D01*
X157118659Y-94157940D01*
X157123446Y-94146383D01*
X157128457Y-94134286D01*
X157159220Y-93979631D01*
X157159220Y-93821947D01*
X157159220Y-93821944D01*
X157159219Y-93821942D01*
X157128458Y-93667299D01*
X157128457Y-93667292D01*
X157128455Y-93667287D01*
X157068117Y-93521616D01*
X157068110Y-93521603D01*
X156980509Y-93390500D01*
X156980506Y-93390496D01*
X156907705Y-93317695D01*
X156874220Y-93256372D01*
X156879204Y-93186680D01*
X156921076Y-93130747D01*
X156986540Y-93106330D01*
X157033706Y-93112083D01*
X157057174Y-93119709D01*
X157126866Y-93130747D01*
X157251578Y-93150500D01*
X157251583Y-93150500D01*
X157448422Y-93150500D01*
X157642826Y-93119709D01*
X157722574Y-93093797D01*
X157830025Y-93058884D01*
X158005405Y-92969524D01*
X158164646Y-92853828D01*
X158262319Y-92756155D01*
X158323642Y-92722670D01*
X158393334Y-92727654D01*
X158437681Y-92756155D01*
X158535354Y-92853828D01*
X158694595Y-92969524D01*
X158769218Y-93007546D01*
X158869970Y-93058882D01*
X158869972Y-93058882D01*
X158869975Y-93058884D01*
X158970317Y-93091487D01*
X159057173Y-93119709D01*
X159251578Y-93150500D01*
X159251583Y-93150500D01*
X159448422Y-93150500D01*
X159642826Y-93119709D01*
X159722574Y-93093797D01*
X159830025Y-93058884D01*
X160005405Y-92969524D01*
X160041614Y-92943215D01*
X160107417Y-92919736D01*
X160175471Y-92935560D01*
X160213763Y-92969220D01*
X160242454Y-93007546D01*
X160242455Y-93007546D01*
X160242456Y-93007548D01*
X160357664Y-93093793D01*
X160357671Y-93093797D01*
X160492517Y-93144091D01*
X160492516Y-93144091D01*
X160499444Y-93144835D01*
X160552127Y-93150500D01*
X162147872Y-93150499D01*
X162207483Y-93144091D01*
X162207486Y-93144089D01*
X162214554Y-93143330D01*
X162283314Y-93155736D01*
X162315490Y-93178939D01*
X162407345Y-93270794D01*
X162407350Y-93270798D01*
X162471899Y-93317695D01*
X162611155Y-93418870D01*
X162812780Y-93521603D01*
X162835625Y-93533243D01*
X162913816Y-93558648D01*
X162971492Y-93598084D01*
X162998691Y-93662443D01*
X162999499Y-93676579D01*
X162999499Y-96950880D01*
X162979814Y-97017919D01*
X162927010Y-97063674D01*
X162905174Y-97071277D01*
X162754728Y-97108358D01*
X162471882Y-97215628D01*
X162204035Y-97356206D01*
X162204026Y-97356212D01*
X161955078Y-97528047D01*
X161955072Y-97528052D01*
X161728648Y-97728646D01*
X161728646Y-97728648D01*
X161528052Y-97955072D01*
X161528047Y-97955078D01*
X161356212Y-98204026D01*
X161356206Y-98204035D01*
X161215628Y-98471882D01*
X161108358Y-98754727D01*
X161078200Y-98877085D01*
X161035963Y-99048449D01*
X160999500Y-99348748D01*
X160999500Y-99434108D01*
X160999500Y-99500000D01*
X160999500Y-99651252D01*
X161035963Y-99951551D01*
X161053038Y-100020827D01*
X161108358Y-100245272D01*
X161215628Y-100528117D01*
X161356206Y-100795964D01*
X161356212Y-100795973D01*
X161528047Y-101044921D01*
X161528052Y-101044927D01*
X161728646Y-101271351D01*
X161728648Y-101271353D01*
X161955072Y-101471947D01*
X161955078Y-101471952D01*
X162074360Y-101554286D01*
X162118350Y-101608568D01*
X162126010Y-101678017D01*
X162094907Y-101740582D01*
X162052444Y-101770447D01*
X162040660Y-101775457D01*
X162016503Y-101780263D01*
X161870821Y-101840606D01*
X161841705Y-101860060D01*
X161831004Y-101864611D01*
X161807386Y-101867374D01*
X161784695Y-101874480D01*
X161782480Y-101874500D01*
X160292350Y-101874500D01*
X160225311Y-101854815D01*
X160223459Y-101853602D01*
X160129184Y-101790609D01*
X160129172Y-101790602D01*
X159983501Y-101730264D01*
X159983489Y-101730261D01*
X159828845Y-101699500D01*
X159828842Y-101699500D01*
X159671158Y-101699500D01*
X159671155Y-101699500D01*
X159516510Y-101730261D01*
X159516498Y-101730264D01*
X159370827Y-101790602D01*
X159370814Y-101790609D01*
X159239711Y-101878210D01*
X159239707Y-101878213D01*
X159128213Y-101989707D01*
X159128210Y-101989711D01*
X159040609Y-102120814D01*
X159040602Y-102120827D01*
X158980264Y-102266498D01*
X158980261Y-102266510D01*
X158949500Y-102421153D01*
X158949500Y-102578846D01*
X158980261Y-102733489D01*
X158980264Y-102733501D01*
X159040602Y-102879172D01*
X159040609Y-102879185D01*
X159128210Y-103010288D01*
X159128213Y-103010292D01*
X159239707Y-103121786D01*
X159239711Y-103121789D01*
X159370814Y-103209390D01*
X159370827Y-103209397D01*
X159516498Y-103269735D01*
X159516503Y-103269737D01*
X159671153Y-103300499D01*
X159671156Y-103300500D01*
X159671158Y-103300500D01*
X159828844Y-103300500D01*
X159828845Y-103300499D01*
X159983497Y-103269737D01*
X160129179Y-103209394D01*
X160223459Y-103146398D01*
X160290136Y-103125520D01*
X160292350Y-103125500D01*
X161642059Y-103125500D01*
X161709098Y-103145185D01*
X161729740Y-103161819D01*
X161739707Y-103171786D01*
X161739711Y-103171789D01*
X161870814Y-103259390D01*
X161870827Y-103259397D01*
X162016498Y-103319735D01*
X162016503Y-103319737D01*
X162171153Y-103350499D01*
X162171156Y-103350500D01*
X162171158Y-103350500D01*
X162328844Y-103350500D01*
X162328845Y-103350499D01*
X162483497Y-103319737D01*
X162629179Y-103259394D01*
X162760289Y-103171789D01*
X162770259Y-103161819D01*
X162787818Y-103144261D01*
X162849141Y-103110776D01*
X162918833Y-103115760D01*
X162974766Y-103157632D01*
X162999183Y-103223096D01*
X162999499Y-103231942D01*
X162999499Y-109495585D01*
X162999183Y-109504432D01*
X162984869Y-109704557D01*
X162982351Y-109722068D01*
X162940646Y-109913787D01*
X162935662Y-109930763D01*
X162867090Y-110114609D01*
X162859740Y-110130701D01*
X162765711Y-110302904D01*
X162756146Y-110317789D01*
X162638558Y-110474867D01*
X162626972Y-110488237D01*
X162488237Y-110626972D01*
X162474867Y-110638558D01*
X162317789Y-110756146D01*
X162302904Y-110765711D01*
X162130701Y-110859740D01*
X162114609Y-110867090D01*
X161930763Y-110935662D01*
X161913787Y-110940646D01*
X161722068Y-110982351D01*
X161704557Y-110984869D01*
X161523779Y-110997799D01*
X161504417Y-110999184D01*
X161495572Y-110999500D01*
X134624500Y-110999500D01*
X134557461Y-110979815D01*
X134511706Y-110927011D01*
X134500500Y-110875500D01*
X134500500Y-107571153D01*
X135499500Y-107571153D01*
X135499500Y-107728846D01*
X135530261Y-107883489D01*
X135530264Y-107883501D01*
X135590602Y-108029172D01*
X135590609Y-108029185D01*
X135678210Y-108160288D01*
X135678213Y-108160292D01*
X135789707Y-108271786D01*
X135789711Y-108271789D01*
X135920814Y-108359390D01*
X135920827Y-108359397D01*
X136066498Y-108419735D01*
X136066503Y-108419737D01*
X136221153Y-108450499D01*
X136221156Y-108450500D01*
X136221158Y-108450500D01*
X136378844Y-108450500D01*
X136378845Y-108450499D01*
X136533497Y-108419737D01*
X136679179Y-108359394D01*
X136810289Y-108271789D01*
X136921789Y-108160289D01*
X137009394Y-108029179D01*
X137069737Y-107883497D01*
X137091858Y-107772282D01*
X137124240Y-107710375D01*
X137125733Y-107708855D01*
X137862820Y-106971769D01*
X137882255Y-106961157D01*
X137898989Y-106946657D01*
X137912320Y-106944740D01*
X137924142Y-106938285D01*
X137946228Y-106939864D01*
X137968147Y-106936713D01*
X137980398Y-106942308D01*
X137993834Y-106943269D01*
X138011560Y-106956539D01*
X138031703Y-106965738D01*
X138038985Y-106977069D01*
X138049767Y-106985141D01*
X138057504Y-107005886D01*
X138069477Y-107024516D01*
X138072628Y-107046434D01*
X138074184Y-107050605D01*
X138074500Y-107059451D01*
X138074500Y-107207650D01*
X138054815Y-107274689D01*
X138053602Y-107276541D01*
X137990609Y-107370815D01*
X137990602Y-107370828D01*
X137930264Y-107516498D01*
X137930261Y-107516510D01*
X137899500Y-107671153D01*
X137899500Y-107828846D01*
X137930261Y-107983489D01*
X137930264Y-107983501D01*
X137990602Y-108129172D01*
X137990609Y-108129185D01*
X138078210Y-108260288D01*
X138078213Y-108260292D01*
X138189707Y-108371786D01*
X138189711Y-108371789D01*
X138320814Y-108459390D01*
X138320827Y-108459397D01*
X138466498Y-108519735D01*
X138466503Y-108519737D01*
X138621153Y-108550499D01*
X138621156Y-108550500D01*
X138621158Y-108550500D01*
X138778844Y-108550500D01*
X138778845Y-108550499D01*
X138933497Y-108519737D01*
X139079179Y-108459394D01*
X139210289Y-108371789D01*
X139321789Y-108260289D01*
X139409394Y-108129179D01*
X139469737Y-107983497D01*
X139500500Y-107828842D01*
X139500500Y-107671158D01*
X139500500Y-107671155D01*
X139484209Y-107589258D01*
X139484209Y-107589257D01*
X139480608Y-107571153D01*
X146999500Y-107571153D01*
X146999500Y-107728846D01*
X147030261Y-107883489D01*
X147030264Y-107883501D01*
X147090602Y-108029172D01*
X147090609Y-108029185D01*
X147178210Y-108160288D01*
X147178213Y-108160292D01*
X147289707Y-108271786D01*
X147289711Y-108271789D01*
X147420814Y-108359390D01*
X147420827Y-108359397D01*
X147566498Y-108419735D01*
X147566503Y-108419737D01*
X147721153Y-108450499D01*
X147721156Y-108450500D01*
X147721158Y-108450500D01*
X147878844Y-108450500D01*
X147878845Y-108450499D01*
X148033497Y-108419737D01*
X148179179Y-108359394D01*
X148273459Y-108296398D01*
X148340136Y-108275520D01*
X148342350Y-108275500D01*
X149311608Y-108275500D01*
X149311608Y-108275499D01*
X149388079Y-108260289D01*
X149432452Y-108251463D01*
X149465792Y-108237652D01*
X149546286Y-108204312D01*
X149612169Y-108160289D01*
X149648733Y-108135858D01*
X149735858Y-108048733D01*
X149735859Y-108048731D01*
X149742925Y-108041665D01*
X149742928Y-108041661D01*
X150058797Y-107725791D01*
X150120118Y-107692308D01*
X150122128Y-107691889D01*
X150233497Y-107669737D01*
X150379179Y-107609394D01*
X150510289Y-107521789D01*
X150621789Y-107410289D01*
X150709394Y-107279179D01*
X150712854Y-107270827D01*
X150767163Y-107139711D01*
X150769737Y-107133497D01*
X150800500Y-106978842D01*
X150800500Y-106821158D01*
X150800500Y-106821155D01*
X150800499Y-106821153D01*
X150769738Y-106666510D01*
X150769737Y-106666503D01*
X150745956Y-106609090D01*
X150709397Y-106520827D01*
X150709390Y-106520814D01*
X150621789Y-106389711D01*
X150621786Y-106389707D01*
X150510292Y-106278213D01*
X150510288Y-106278210D01*
X150379185Y-106190609D01*
X150379172Y-106190602D01*
X150233501Y-106130264D01*
X150233489Y-106130261D01*
X150078845Y-106099500D01*
X150078842Y-106099500D01*
X149921158Y-106099500D01*
X149921155Y-106099500D01*
X149766510Y-106130261D01*
X149766498Y-106130264D01*
X149620827Y-106190602D01*
X149620814Y-106190609D01*
X149489711Y-106278210D01*
X149489707Y-106278213D01*
X149378213Y-106389707D01*
X149378210Y-106389711D01*
X149290609Y-106520814D01*
X149290602Y-106520827D01*
X149230264Y-106666498D01*
X149230261Y-106666510D01*
X149208141Y-106777714D01*
X149199376Y-106794470D01*
X149195356Y-106812950D01*
X149176609Y-106837992D01*
X149175756Y-106839625D01*
X149174252Y-106841156D01*
X149027227Y-106988182D01*
X148965907Y-107021666D01*
X148939548Y-107024500D01*
X148342350Y-107024500D01*
X148275311Y-107004815D01*
X148273459Y-107003602D01*
X148179184Y-106940609D01*
X148179172Y-106940602D01*
X148033501Y-106880264D01*
X148033489Y-106880261D01*
X147878845Y-106849500D01*
X147878842Y-106849500D01*
X147721158Y-106849500D01*
X147721155Y-106849500D01*
X147566510Y-106880261D01*
X147566498Y-106880264D01*
X147420827Y-106940602D01*
X147420814Y-106940609D01*
X147289711Y-107028210D01*
X147289707Y-107028213D01*
X147178213Y-107139707D01*
X147178210Y-107139711D01*
X147090609Y-107270814D01*
X147090602Y-107270827D01*
X147030264Y-107416498D01*
X147030261Y-107416510D01*
X146999500Y-107571153D01*
X139480608Y-107571153D01*
X139469738Y-107516510D01*
X139469737Y-107516503D01*
X139409394Y-107370821D01*
X139346397Y-107276539D01*
X139325520Y-107209863D01*
X139325500Y-107207650D01*
X139325500Y-106660452D01*
X139345185Y-106593413D01*
X139361819Y-106572771D01*
X141322772Y-104611819D01*
X141384095Y-104578334D01*
X141410453Y-104575500D01*
X158089548Y-104575500D01*
X158156587Y-104595185D01*
X158177229Y-104611819D01*
X158724205Y-105158795D01*
X158757690Y-105220118D01*
X158758141Y-105222285D01*
X158780261Y-105333489D01*
X158780264Y-105333501D01*
X158840602Y-105479172D01*
X158840609Y-105479185D01*
X158928210Y-105610288D01*
X158928213Y-105610292D01*
X159039707Y-105721786D01*
X159039711Y-105721789D01*
X159170814Y-105809390D01*
X159170827Y-105809397D01*
X159316498Y-105869735D01*
X159316503Y-105869737D01*
X159471153Y-105900499D01*
X159471156Y-105900500D01*
X159471158Y-105900500D01*
X159628844Y-105900500D01*
X159628845Y-105900499D01*
X159783497Y-105869737D01*
X159929179Y-105809394D01*
X160060289Y-105721789D01*
X160171789Y-105610289D01*
X160259394Y-105479179D01*
X160319737Y-105333497D01*
X160350500Y-105178842D01*
X160350500Y-105021158D01*
X160350500Y-105021155D01*
X160350499Y-105021153D01*
X160319738Y-104866510D01*
X160319737Y-104866503D01*
X160319735Y-104866498D01*
X160259397Y-104720827D01*
X160259390Y-104720814D01*
X160171789Y-104589711D01*
X160171786Y-104589707D01*
X160060292Y-104478213D01*
X160060288Y-104478210D01*
X159929185Y-104390609D01*
X159929172Y-104390602D01*
X159783501Y-104330264D01*
X159783489Y-104330261D01*
X159672285Y-104308141D01*
X159610374Y-104275756D01*
X159608795Y-104274205D01*
X158895822Y-103561232D01*
X158885859Y-103551269D01*
X158885858Y-103551267D01*
X158798733Y-103464142D01*
X158747509Y-103429915D01*
X158696286Y-103395688D01*
X158696283Y-103395686D01*
X158696280Y-103395685D01*
X158620924Y-103364472D01*
X158620918Y-103364470D01*
X158614003Y-103361606D01*
X158582452Y-103348537D01*
X158522029Y-103336518D01*
X158517430Y-103335603D01*
X158517422Y-103335601D01*
X158461610Y-103324500D01*
X158461607Y-103324500D01*
X158461606Y-103324500D01*
X156300402Y-103324500D01*
X156233363Y-103304815D01*
X156187608Y-103252011D01*
X156177664Y-103182853D01*
X156197301Y-103131607D01*
X156201369Y-103125520D01*
X156206695Y-103117549D01*
X156254311Y-103046286D01*
X156301463Y-102932452D01*
X156321146Y-102833497D01*
X156321374Y-102832354D01*
X156325500Y-102811607D01*
X156325500Y-102292350D01*
X156345185Y-102225311D01*
X156346398Y-102223459D01*
X156346809Y-102222843D01*
X156409394Y-102129179D01*
X156412854Y-102120827D01*
X156423067Y-102096166D01*
X156469737Y-101983497D01*
X156500500Y-101828842D01*
X156500500Y-101671158D01*
X156489686Y-101616793D01*
X156495912Y-101547205D01*
X156538775Y-101492027D01*
X156546206Y-101487064D01*
X156671530Y-101409763D01*
X156795500Y-101285793D01*
X156887541Y-101136572D01*
X156887543Y-101136567D01*
X156942690Y-100970145D01*
X156942691Y-100970138D01*
X156953184Y-100867434D01*
X156953185Y-100867421D01*
X156953185Y-100717448D01*
X155858515Y-100717448D01*
X155878260Y-100697703D01*
X155927629Y-100612193D01*
X155953185Y-100516818D01*
X155953185Y-100418078D01*
X155927629Y-100322703D01*
X155878260Y-100237193D01*
X155858515Y-100217448D01*
X156953184Y-100217448D01*
X156953184Y-100067476D01*
X156953183Y-100067461D01*
X156942690Y-99964750D01*
X156887543Y-99798328D01*
X156887541Y-99798323D01*
X156795500Y-99649102D01*
X156671528Y-99525130D01*
X156607278Y-99485501D01*
X156560553Y-99433553D01*
X156549330Y-99364591D01*
X156577173Y-99300509D01*
X156584671Y-99292303D01*
X156692599Y-99184376D01*
X156794417Y-99044236D01*
X156873058Y-98889893D01*
X156926587Y-98725149D01*
X156953685Y-98554059D01*
X156953685Y-98380837D01*
X156926587Y-98209747D01*
X156873058Y-98045003D01*
X156794417Y-97890660D01*
X156692599Y-97750520D01*
X156570113Y-97628034D01*
X156429973Y-97526216D01*
X156275630Y-97447575D01*
X156110886Y-97394046D01*
X156110884Y-97394045D01*
X156110883Y-97394045D01*
X155979456Y-97373229D01*
X155939796Y-97366948D01*
X155216574Y-97366948D01*
X155176913Y-97373229D01*
X155045487Y-97394045D01*
X154880737Y-97447576D01*
X154726396Y-97526216D01*
X154671788Y-97565892D01*
X154586257Y-97628034D01*
X154586255Y-97628036D01*
X154586254Y-97628036D01*
X154463773Y-97750517D01*
X154463773Y-97750518D01*
X154463771Y-97750520D01*
X154422508Y-97807314D01*
X154361953Y-97890659D01*
X154283313Y-98045000D01*
X154229782Y-98209750D01*
X154202685Y-98380837D01*
X154202685Y-98554058D01*
X154224106Y-98689309D01*
X154229783Y-98725149D01*
X154283312Y-98889893D01*
X154361953Y-99044236D01*
X154463771Y-99184376D01*
X154463773Y-99184378D01*
X154571676Y-99292281D01*
X154605161Y-99353604D01*
X154600177Y-99423296D01*
X154558305Y-99479229D01*
X154549092Y-99485501D01*
X154484839Y-99525132D01*
X154360869Y-99649102D01*
X154268828Y-99798323D01*
X154268826Y-99798328D01*
X154213679Y-99964750D01*
X154213678Y-99964757D01*
X154203185Y-100067461D01*
X154203185Y-100217448D01*
X155297855Y-100217448D01*
X155278110Y-100237193D01*
X155228741Y-100322703D01*
X155203185Y-100418078D01*
X155203185Y-100516818D01*
X155228741Y-100612193D01*
X155278110Y-100697703D01*
X155297855Y-100717448D01*
X154203186Y-100717448D01*
X154203186Y-100867434D01*
X154213679Y-100970145D01*
X154268826Y-101136567D01*
X154268828Y-101136572D01*
X154360869Y-101285793D01*
X154484839Y-101409763D01*
X154634060Y-101501804D01*
X154634065Y-101501806D01*
X154803025Y-101557794D01*
X154860470Y-101597567D01*
X154887293Y-101662082D01*
X154874978Y-101730858D01*
X154827435Y-101782058D01*
X154764021Y-101799500D01*
X154671155Y-101799500D01*
X154516510Y-101830261D01*
X154516498Y-101830264D01*
X154370827Y-101890602D01*
X154370815Y-101890609D01*
X154276541Y-101953602D01*
X154209864Y-101974480D01*
X154207650Y-101974500D01*
X140960452Y-101974500D01*
X140893413Y-101954815D01*
X140872771Y-101938181D01*
X139275793Y-100341203D01*
X139242308Y-100279880D01*
X139241887Y-100277864D01*
X139219737Y-100166503D01*
X139178713Y-100067461D01*
X139159397Y-100020827D01*
X139159390Y-100020814D01*
X139071789Y-99889711D01*
X139071786Y-99889707D01*
X138960292Y-99778213D01*
X138960288Y-99778210D01*
X138829185Y-99690609D01*
X138829172Y-99690602D01*
X138683501Y-99630264D01*
X138683489Y-99630261D01*
X138528845Y-99599500D01*
X138528842Y-99599500D01*
X138371158Y-99599500D01*
X138371155Y-99599500D01*
X138216510Y-99630261D01*
X138216498Y-99630264D01*
X138070827Y-99690602D01*
X138070814Y-99690609D01*
X137939711Y-99778210D01*
X137939707Y-99778213D01*
X137828213Y-99889707D01*
X137828210Y-99889711D01*
X137740609Y-100020814D01*
X137740602Y-100020827D01*
X137680264Y-100166498D01*
X137680261Y-100166510D01*
X137649500Y-100321153D01*
X137649500Y-100478846D01*
X137680261Y-100633489D01*
X137680264Y-100633501D01*
X137740602Y-100779172D01*
X137740609Y-100779185D01*
X137828210Y-100910288D01*
X137828213Y-100910292D01*
X137939707Y-101021786D01*
X137939711Y-101021789D01*
X138070814Y-101109390D01*
X138070827Y-101109397D01*
X138136423Y-101136567D01*
X138216503Y-101169737D01*
X138327716Y-101191858D01*
X138389623Y-101224241D01*
X138391203Y-101225793D01*
X140027728Y-102862318D01*
X140061213Y-102923641D01*
X140056229Y-102993333D01*
X140027728Y-103037680D01*
X136241203Y-106824205D01*
X136179880Y-106857690D01*
X136177714Y-106858141D01*
X136066508Y-106880261D01*
X136066498Y-106880264D01*
X135920827Y-106940602D01*
X135920814Y-106940609D01*
X135789711Y-107028210D01*
X135789707Y-107028213D01*
X135678213Y-107139707D01*
X135678210Y-107139711D01*
X135590609Y-107270814D01*
X135590602Y-107270827D01*
X135530264Y-107416498D01*
X135530261Y-107416510D01*
X135499500Y-107571153D01*
X134500500Y-107571153D01*
X134500500Y-89254427D01*
X134500816Y-89245581D01*
X134515130Y-89045443D01*
X134517646Y-89027938D01*
X134559356Y-88836199D01*
X134564333Y-88819248D01*
X134632911Y-88635385D01*
X134640259Y-88619298D01*
X134702815Y-88504734D01*
X134734291Y-88447089D01*
X134743845Y-88432221D01*
X134861448Y-88275123D01*
X134873020Y-88261769D01*
X135011769Y-88123020D01*
X135025123Y-88111448D01*
X135182221Y-87993845D01*
X135197089Y-87984291D01*
X135369298Y-87890258D01*
X135385385Y-87882911D01*
X135569248Y-87814333D01*
X135586199Y-87809356D01*
X135777938Y-87767646D01*
X135795436Y-87765130D01*
X135995582Y-87750816D01*
X136004428Y-87750500D01*
X136065892Y-87750500D01*
X162875500Y-87750500D01*
X162942539Y-87770185D01*
G37*
G04 #@! TD.AperFunction*
M02*
