G04 #@! TF.GenerationSoftware,KiCad,Pcbnew,9.0.0*
G04 #@! TF.CreationDate,2025-09-23T11:37:30-05:00*
G04 #@! TF.ProjectId,eidon-tracker,6569646f-6e2d-4747-9261-636b65722e6b,rev?*
G04 #@! TF.SameCoordinates,Original*
G04 #@! TF.FileFunction,Copper,L1,Top*
G04 #@! TF.FilePolarity,Positive*
%FSLAX46Y46*%
G04 Gerber Fmt 4.6, Leading zero omitted, Abs format (unit mm)*
G04 Created by KiCad (PCBNEW 9.0.0) date 2025-09-23 11:37:30*
%MOMM*%
%LPD*%
G01*
G04 APERTURE LIST*
G04 Aperture macros list*
%AMRoundRect*
0 Rectangle with rounded corners*
0 $1 Rounding radius*
0 $2 $3 $4 $5 $6 $7 $8 $9 X,Y pos of 4 corners*
0 Add a 4 corners polygon primitive as box body*
4,1,4,$2,$3,$4,$5,$6,$7,$8,$9,$2,$3,0*
0 Add four circle primitives for the rounded corners*
1,1,$1+$1,$2,$3*
1,1,$1+$1,$4,$5*
1,1,$1+$1,$6,$7*
1,1,$1+$1,$8,$9*
0 Add four rect primitives between the rounded corners*
20,1,$1+$1,$2,$3,$4,$5,0*
20,1,$1+$1,$4,$5,$6,$7,0*
20,1,$1+$1,$6,$7,$8,$9,0*
20,1,$1+$1,$8,$9,$2,$3,0*%
G04 Aperture macros list end*
G04 #@! TA.AperFunction,SMDPad,CuDef*
%ADD10RoundRect,0.500000X0.875000X0.500000X-0.875000X0.500000X-0.875000X-0.500000X0.875000X-0.500000X0*%
G04 #@! TD*
G04 #@! TA.AperFunction,ComponentPad*
%ADD11C,2.000000*%
G04 #@! TD*
G04 #@! TA.AperFunction,SMDPad,CuDef*
%ADD12RoundRect,0.500000X-0.875000X-0.500000X0.875000X-0.500000X0.875000X0.500000X-0.875000X0.500000X0*%
G04 #@! TD*
G04 #@! TA.AperFunction,ComponentPad*
%ADD13RoundRect,0.250000X-0.875000X-1.250000X0.875000X-1.250000X0.875000X1.250000X-0.875000X1.250000X0*%
G04 #@! TD*
G04 #@! TA.AperFunction,ComponentPad*
%ADD14RoundRect,0.250000X-1.250000X-0.875000X1.250000X-0.875000X1.250000X0.875000X-1.250000X0.875000X0*%
G04 #@! TD*
G04 #@! TA.AperFunction,ComponentPad*
%ADD15RoundRect,0.250000X0.350000X0.625000X-0.350000X0.625000X-0.350000X-0.625000X0.350000X-0.625000X0*%
G04 #@! TD*
G04 #@! TA.AperFunction,ComponentPad*
%ADD16O,1.200000X1.750000*%
G04 #@! TD*
G04 #@! TA.AperFunction,ComponentPad*
%ADD17R,1.500000X2.500000*%
G04 #@! TD*
G04 #@! TA.AperFunction,ComponentPad*
%ADD18O,1.500000X2.500000*%
G04 #@! TD*
G04 #@! TA.AperFunction,ComponentPad*
%ADD19O,2.200000X3.500000*%
G04 #@! TD*
G04 #@! TA.AperFunction,ComponentPad*
%ADD20C,4.000000*%
G04 #@! TD*
G04 #@! TA.AperFunction,ViaPad*
%ADD21C,0.600000*%
G04 #@! TD*
G04 #@! TA.AperFunction,Conductor*
%ADD22C,1.000000*%
G04 #@! TD*
G04 #@! TA.AperFunction,Conductor*
%ADD23C,1.300000*%
G04 #@! TD*
G04 #@! TA.AperFunction,Conductor*
%ADD24C,0.500000*%
G04 #@! TD*
G04 APERTURE END LIST*
D10*
X135810000Y-90230000D03*
D11*
X136645000Y-90230000D03*
D10*
X135810000Y-92770000D03*
D11*
X136645000Y-92770000D03*
D10*
X135810000Y-95310000D03*
D11*
X136645000Y-95310000D03*
D10*
X135810000Y-97850000D03*
D11*
X136645000Y-97850000D03*
D10*
X135810000Y-100390000D03*
D11*
X136645000Y-100390000D03*
D10*
X135810000Y-102930000D03*
D11*
X136645000Y-102930000D03*
X151885000Y-105470000D03*
D12*
X152720000Y-105470000D03*
D11*
X151885000Y-102930000D03*
D12*
X152720000Y-102930000D03*
D11*
X151885000Y-100390000D03*
D12*
X152720000Y-100390000D03*
D11*
X151885000Y-97850000D03*
D12*
X152720000Y-97850000D03*
D11*
X151885000Y-95310000D03*
D12*
X152720000Y-95310000D03*
D11*
X151885000Y-92770000D03*
D12*
X152720000Y-92770000D03*
D13*
X142310000Y-103350000D03*
X145310000Y-103350000D03*
D14*
X142551528Y-96828213D03*
D15*
X161480000Y-107100000D03*
D16*
X159480000Y-107100000D03*
D17*
X161350000Y-91400000D03*
D18*
X159350000Y-91400000D03*
X157350000Y-91400000D03*
D19*
X163450000Y-91400000D03*
X155250000Y-91400000D03*
D11*
X158500000Y-109750000D03*
X155960000Y-109750000D03*
X153420000Y-109750000D03*
X150880000Y-109750000D03*
X148340000Y-109750000D03*
X145800000Y-109750000D03*
X143260000Y-109750000D03*
X140720000Y-109750000D03*
X138180000Y-109750000D03*
X135640000Y-109750000D03*
D20*
X157070000Y-98765000D03*
D21*
X140750000Y-90250000D03*
X154750000Y-107250000D03*
X140750000Y-99750000D03*
X157250000Y-94000000D03*
X144000000Y-90250000D03*
X138372948Y-107959343D03*
X159699078Y-88480074D03*
X144500000Y-107250000D03*
X155750000Y-102000000D03*
X161750000Y-94000000D03*
X161500000Y-110000000D03*
X135500000Y-88250000D03*
X148250000Y-99750000D03*
X158000000Y-104500000D03*
X139000000Y-95500000D03*
D22*
X155960000Y-109750000D02*
X155960000Y-109440000D01*
D23*
X153880000Y-92770000D02*
X155250000Y-91400000D01*
D22*
X151885000Y-92770000D02*
X153880000Y-92770000D01*
X149700000Y-98300000D02*
X149700000Y-94100000D01*
X157070000Y-96070000D02*
X157070000Y-98765000D01*
X149700000Y-94100000D02*
X151030000Y-92770000D01*
X148250000Y-99750000D02*
X145310000Y-102690000D01*
X151030000Y-92770000D02*
X151885000Y-92770000D01*
X151885000Y-92770000D02*
X153770000Y-92770000D01*
X148250000Y-99750000D02*
X149700000Y-98300000D01*
X153770000Y-92770000D02*
X157070000Y-96070000D01*
X145310000Y-102690000D02*
X145310000Y-103350000D01*
D24*
X139500000Y-103250000D02*
X139500000Y-105990000D01*
X136645000Y-100390000D02*
X136645000Y-100395000D01*
X136645000Y-100395000D02*
X139500000Y-103250000D01*
X139500000Y-105990000D02*
X143260000Y-109750000D01*
X137430000Y-102930000D02*
X138500000Y-104000000D01*
X138500000Y-106600000D02*
X140720000Y-108820000D01*
X140720000Y-108820000D02*
X140720000Y-109750000D01*
X136645000Y-102930000D02*
X137430000Y-102930000D01*
X138500000Y-104000000D02*
X138500000Y-106600000D01*
X148750000Y-102750000D02*
X148750000Y-106750000D01*
X150880000Y-108880000D02*
X150880000Y-109750000D01*
X151110000Y-100390000D02*
X148750000Y-102750000D01*
X148750000Y-106750000D02*
X150880000Y-108880000D01*
X151885000Y-100390000D02*
X151110000Y-100390000D01*
X150000000Y-103500000D02*
X150570000Y-102930000D01*
X153420000Y-108920000D02*
X152000000Y-107500000D01*
X151250000Y-107500000D02*
X150000000Y-106250000D01*
X150570000Y-102930000D02*
X151885000Y-102930000D01*
X152000000Y-107500000D02*
X151250000Y-107500000D01*
X150000000Y-106250000D02*
X150000000Y-103500000D01*
X153420000Y-109750000D02*
X153420000Y-108920000D01*
X148250000Y-109660000D02*
X148340000Y-109750000D01*
X147575259Y-107575259D02*
X148250000Y-108250000D01*
X147575259Y-102159741D02*
X147575259Y-107575259D01*
X148250000Y-108250000D02*
X148250000Y-109660000D01*
X151885000Y-97850000D02*
X147575259Y-102159741D01*
G04 #@! TA.AperFunction,Conductor*
G36*
X155545792Y-109921571D02*
G01*
X155604311Y-110022930D01*
X155687070Y-110105689D01*
X155788429Y-110164208D01*
X155875906Y-110187647D01*
X155100371Y-110963181D01*
X155039048Y-110996666D01*
X155012690Y-110999500D01*
X154591889Y-110999500D01*
X154574888Y-110994508D01*
X154557168Y-110994540D01*
X154542058Y-110984868D01*
X154524850Y-110979815D01*
X154513247Y-110966425D01*
X154498322Y-110956871D01*
X154490840Y-110940565D01*
X154479095Y-110927011D01*
X154476573Y-110909474D01*
X154469183Y-110893368D01*
X154471703Y-110875607D01*
X154469151Y-110857853D01*
X154476519Y-110841678D01*
X154479002Y-110824192D01*
X154495013Y-110801086D01*
X154498030Y-110794466D01*
X154500993Y-110791033D01*
X154564517Y-110727510D01*
X154610610Y-110664067D01*
X154614006Y-110660135D01*
X154639168Y-110643899D01*
X154662877Y-110625618D01*
X154668874Y-110624733D01*
X154672716Y-110622255D01*
X154685848Y-110622231D01*
X154717594Y-110617551D01*
X154737340Y-110619105D01*
X155522352Y-109834093D01*
X155545792Y-109921571D01*
G37*
G04 #@! TD.AperFunction*
G04 #@! TA.AperFunction,Conductor*
G36*
X157182657Y-110619104D02*
G01*
X157202404Y-110617550D01*
X157207428Y-110618605D01*
X157212357Y-110617168D01*
X157241276Y-110625715D01*
X157270781Y-110631914D01*
X157275768Y-110635911D01*
X157279361Y-110636973D01*
X157291915Y-110648852D01*
X157305993Y-110660134D01*
X157309389Y-110664068D01*
X157355483Y-110727510D01*
X157419006Y-110791033D01*
X157421970Y-110794466D01*
X157434623Y-110822305D01*
X157449277Y-110849142D01*
X157448943Y-110853812D01*
X157450880Y-110858074D01*
X157446474Y-110888332D01*
X157444293Y-110918834D01*
X157441487Y-110922581D01*
X157440813Y-110927214D01*
X157420744Y-110950290D01*
X157402421Y-110974767D01*
X157398035Y-110976402D01*
X157394963Y-110979936D01*
X157365602Y-110988499D01*
X157336957Y-110999184D01*
X157328111Y-110999500D01*
X156907308Y-110999500D01*
X156840269Y-110979815D01*
X156819627Y-110963181D01*
X156044093Y-110187647D01*
X156131571Y-110164208D01*
X156232930Y-110105689D01*
X156315689Y-110022930D01*
X156374208Y-109921571D01*
X156397647Y-109834094D01*
X157182657Y-110619104D01*
G37*
G04 #@! TD.AperFunction*
G04 #@! TA.AperFunction,Conductor*
G36*
X155500000Y-93630347D02*
G01*
X155624668Y-93610602D01*
X155624671Y-93610602D01*
X155864184Y-93532780D01*
X156088583Y-93418442D01*
X156292331Y-93270409D01*
X156292332Y-93270409D01*
X156470415Y-93092326D01*
X156533847Y-93005018D01*
X156589176Y-92962351D01*
X156658790Y-92956371D01*
X156690461Y-92967417D01*
X156694592Y-92969521D01*
X156694595Y-92969524D01*
X156769218Y-93007546D01*
X156869970Y-93058882D01*
X156869972Y-93058882D01*
X156869975Y-93058884D01*
X156970317Y-93091487D01*
X157057173Y-93119709D01*
X157251578Y-93150500D01*
X157251583Y-93150500D01*
X157448422Y-93150500D01*
X157642826Y-93119709D01*
X157722574Y-93093797D01*
X157830025Y-93058884D01*
X158005405Y-92969524D01*
X158164646Y-92853828D01*
X158262319Y-92756155D01*
X158323642Y-92722670D01*
X158393334Y-92727654D01*
X158437681Y-92756155D01*
X158535354Y-92853828D01*
X158694595Y-92969524D01*
X158734998Y-92990110D01*
X158869970Y-93058882D01*
X158869972Y-93058882D01*
X158869975Y-93058884D01*
X158970317Y-93091487D01*
X159057173Y-93119709D01*
X159251578Y-93150500D01*
X159251583Y-93150500D01*
X159448422Y-93150500D01*
X159642826Y-93119709D01*
X159722574Y-93093797D01*
X159830025Y-93058884D01*
X160005405Y-92969524D01*
X160041614Y-92943215D01*
X160107417Y-92919736D01*
X160175471Y-92935560D01*
X160213763Y-92969220D01*
X160242454Y-93007546D01*
X160242455Y-93007546D01*
X160242456Y-93007548D01*
X160357664Y-93093793D01*
X160357671Y-93093797D01*
X160492517Y-93144091D01*
X160492516Y-93144091D01*
X160499444Y-93144835D01*
X160552127Y-93150500D01*
X162147872Y-93150499D01*
X162207483Y-93144091D01*
X162207486Y-93144089D01*
X162214554Y-93143330D01*
X162283314Y-93155736D01*
X162315490Y-93178939D01*
X162407345Y-93270794D01*
X162407350Y-93270798D01*
X162510852Y-93345996D01*
X162611155Y-93418870D01*
X162834716Y-93532780D01*
X162835625Y-93533243D01*
X162913816Y-93558648D01*
X162971492Y-93598084D01*
X162998691Y-93662443D01*
X162999499Y-93676579D01*
X162999499Y-94700880D01*
X162979814Y-94767919D01*
X162927010Y-94813674D01*
X162905174Y-94821277D01*
X162754728Y-94858358D01*
X162471882Y-94965628D01*
X162204035Y-95106206D01*
X162204026Y-95106212D01*
X161955078Y-95278047D01*
X161955072Y-95278052D01*
X161728648Y-95478646D01*
X161728646Y-95478648D01*
X161528052Y-95705072D01*
X161528047Y-95705078D01*
X161356212Y-95954026D01*
X161356206Y-95954035D01*
X161215628Y-96221882D01*
X161108358Y-96504727D01*
X161083736Y-96604626D01*
X161035963Y-96798449D01*
X161032231Y-96829187D01*
X161003772Y-97063567D01*
X160999500Y-97098748D01*
X160999500Y-97184108D01*
X160999500Y-97250000D01*
X160999500Y-97401252D01*
X161035963Y-97701551D01*
X161061900Y-97806782D01*
X161108358Y-97995272D01*
X161215628Y-98278117D01*
X161356206Y-98545964D01*
X161356212Y-98545973D01*
X161528047Y-98794921D01*
X161528052Y-98794927D01*
X161728646Y-99021351D01*
X161728648Y-99021353D01*
X161955072Y-99221947D01*
X161955078Y-99221952D01*
X162204026Y-99393787D01*
X162204035Y-99393793D01*
X162471882Y-99534371D01*
X162754727Y-99641641D01*
X162754731Y-99641642D01*
X162754734Y-99641643D01*
X162905177Y-99678723D01*
X162965554Y-99713878D01*
X162997343Y-99776097D01*
X162999499Y-99799119D01*
X162999499Y-109495585D01*
X162999183Y-109504432D01*
X162984869Y-109704557D01*
X162982351Y-109722068D01*
X162940646Y-109913787D01*
X162935662Y-109930763D01*
X162867090Y-110114609D01*
X162859740Y-110130701D01*
X162765711Y-110302904D01*
X162756146Y-110317789D01*
X162638558Y-110474867D01*
X162626972Y-110488237D01*
X162488237Y-110626972D01*
X162474867Y-110638558D01*
X162317789Y-110756146D01*
X162302904Y-110765711D01*
X162130701Y-110859740D01*
X162114609Y-110867090D01*
X161930763Y-110935662D01*
X161913787Y-110940646D01*
X161722068Y-110982351D01*
X161704557Y-110984869D01*
X161523779Y-110997799D01*
X161504417Y-110999184D01*
X161495572Y-110999500D01*
X159671889Y-110999500D01*
X159604850Y-110979815D01*
X159559095Y-110927011D01*
X159549151Y-110857853D01*
X159578176Y-110794297D01*
X159584208Y-110787819D01*
X159610567Y-110761460D01*
X159644517Y-110727510D01*
X159783343Y-110536433D01*
X159890568Y-110325992D01*
X159963553Y-110101368D01*
X160000500Y-109868097D01*
X160000500Y-109631902D01*
X159963553Y-109398631D01*
X159890566Y-109174003D01*
X159783342Y-108963566D01*
X159769999Y-108945201D01*
X159644517Y-108772490D01*
X159549128Y-108677101D01*
X159515643Y-108615778D01*
X159520627Y-108546086D01*
X159562499Y-108490153D01*
X159617412Y-108466947D01*
X159737584Y-108447914D01*
X159902257Y-108394408D01*
X160056524Y-108315804D01*
X160196598Y-108214035D01*
X160304199Y-108106434D01*
X160365522Y-108072949D01*
X160435214Y-108077933D01*
X160491148Y-108119804D01*
X160497420Y-108129019D01*
X160532858Y-108186475D01*
X160537288Y-108193656D01*
X160661344Y-108317712D01*
X160810666Y-108409814D01*
X160977203Y-108464999D01*
X161079991Y-108475500D01*
X161880008Y-108475499D01*
X161880016Y-108475498D01*
X161880019Y-108475498D01*
X161936302Y-108469748D01*
X161982797Y-108464999D01*
X162149334Y-108409814D01*
X162298656Y-108317712D01*
X162422712Y-108193656D01*
X162514814Y-108044334D01*
X162569999Y-107877797D01*
X162580500Y-107775009D01*
X162580499Y-106424992D01*
X162569999Y-106322203D01*
X162514814Y-106155666D01*
X162422712Y-106006344D01*
X162298656Y-105882288D01*
X162149334Y-105790186D01*
X161982797Y-105735001D01*
X161982795Y-105735000D01*
X161880010Y-105724500D01*
X161079998Y-105724500D01*
X161079980Y-105724501D01*
X160977203Y-105735000D01*
X160977200Y-105735001D01*
X160810668Y-105790185D01*
X160810663Y-105790187D01*
X160661342Y-105882289D01*
X160537289Y-106006342D01*
X160497420Y-106070981D01*
X160445472Y-106117705D01*
X160376509Y-106128928D01*
X160312427Y-106101084D01*
X160304200Y-106093565D01*
X160196602Y-105985967D01*
X160056524Y-105884195D01*
X159902257Y-105805591D01*
X159737589Y-105752087D01*
X159737581Y-105752085D01*
X159730000Y-105750884D01*
X159730000Y-106819670D01*
X159710255Y-106799925D01*
X159624745Y-106750556D01*
X159529370Y-106725000D01*
X159430630Y-106725000D01*
X159335255Y-106750556D01*
X159249745Y-106799925D01*
X159230000Y-106819670D01*
X159230000Y-105750884D01*
X159229999Y-105750884D01*
X159222418Y-105752085D01*
X159222410Y-105752087D01*
X159057742Y-105805591D01*
X158903475Y-105884195D01*
X158763397Y-105985967D01*
X158640967Y-106108397D01*
X158539195Y-106248475D01*
X158460591Y-106402742D01*
X158407085Y-106567415D01*
X158380000Y-106738428D01*
X158380000Y-106850000D01*
X159199670Y-106850000D01*
X159179925Y-106869745D01*
X159130556Y-106955255D01*
X159105000Y-107050630D01*
X159105000Y-107149370D01*
X159130556Y-107244745D01*
X159179925Y-107330255D01*
X159199670Y-107350000D01*
X158380000Y-107350000D01*
X158380000Y-107461571D01*
X158407085Y-107632584D01*
X158460591Y-107797257D01*
X158539198Y-107951528D01*
X158612641Y-108052615D01*
X158636121Y-108118421D01*
X158620295Y-108186475D01*
X158570189Y-108235170D01*
X158512323Y-108249500D01*
X158381903Y-108249500D01*
X158148631Y-108286446D01*
X157924003Y-108359433D01*
X157713566Y-108466657D01*
X157615814Y-108537679D01*
X157522490Y-108605483D01*
X157522488Y-108605485D01*
X157522487Y-108605485D01*
X157355482Y-108772490D01*
X157312451Y-108831717D01*
X157257120Y-108874382D01*
X157202405Y-108882448D01*
X157182658Y-108880893D01*
X156397647Y-109665905D01*
X156374208Y-109578429D01*
X156315689Y-109477070D01*
X156232930Y-109394311D01*
X156131571Y-109335792D01*
X156044094Y-109312352D01*
X156829105Y-108527340D01*
X156829104Y-108527338D01*
X156746174Y-108467087D01*
X156535802Y-108359897D01*
X156311247Y-108286934D01*
X156311248Y-108286934D01*
X156078052Y-108250000D01*
X155841948Y-108250000D01*
X155608752Y-108286934D01*
X155384197Y-108359897D01*
X155173830Y-108467084D01*
X155090894Y-108527340D01*
X155875906Y-109312352D01*
X155788429Y-109335792D01*
X155687070Y-109394311D01*
X155604311Y-109477070D01*
X155545792Y-109578429D01*
X155522352Y-109665905D01*
X154737340Y-108880893D01*
X154717593Y-108882448D01*
X154713860Y-108881663D01*
X154710222Y-108882808D01*
X154679936Y-108874537D01*
X154649215Y-108868084D01*
X154645429Y-108865114D01*
X154642821Y-108864402D01*
X154633431Y-108855701D01*
X154615712Y-108841800D01*
X154611370Y-108836978D01*
X154564517Y-108772490D01*
X154397510Y-108605483D01*
X154206433Y-108466657D01*
X154169648Y-108447914D01*
X153995996Y-108359433D01*
X153912919Y-108332440D01*
X153863557Y-108302190D01*
X152743548Y-107182180D01*
X152710063Y-107120857D01*
X152715047Y-107051165D01*
X152756919Y-106995232D01*
X152822383Y-106970815D01*
X152831229Y-106970499D01*
X153653028Y-106970499D01*
X153653036Y-106970499D01*
X153772418Y-106959886D01*
X153968049Y-106903909D01*
X154148407Y-106809698D01*
X154306109Y-106681109D01*
X154311971Y-106673920D01*
X154327239Y-106655196D01*
X154327239Y-106655195D01*
X154434698Y-106523407D01*
X154528909Y-106343049D01*
X154584886Y-106147418D01*
X154595500Y-106028037D01*
X154595499Y-104911964D01*
X154584886Y-104792582D01*
X154540012Y-104635756D01*
X154528910Y-104596954D01*
X154528909Y-104596953D01*
X154528909Y-104596951D01*
X154434698Y-104416593D01*
X154321983Y-104278359D01*
X154294875Y-104213965D01*
X154306884Y-104145135D01*
X154321981Y-104121642D01*
X154434698Y-103983407D01*
X154528909Y-103803049D01*
X154584886Y-103607418D01*
X154595500Y-103488037D01*
X154595499Y-102371964D01*
X154584886Y-102252582D01*
X154528909Y-102056951D01*
X154434698Y-101876593D01*
X154321983Y-101738359D01*
X154294875Y-101673965D01*
X154306884Y-101605135D01*
X154321981Y-101581642D01*
X154434698Y-101443407D01*
X154528909Y-101263049D01*
X154584886Y-101067418D01*
X154595500Y-100948037D01*
X154595499Y-100347257D01*
X154595499Y-99931838D01*
X154615183Y-99864799D01*
X154667987Y-99819044D01*
X154737146Y-99809100D01*
X154800702Y-99838125D01*
X154831219Y-99878036D01*
X154878492Y-99976200D01*
X155027884Y-100213956D01*
X155134187Y-100347257D01*
X155847339Y-99634104D01*
X155925864Y-99742184D01*
X156092816Y-99909136D01*
X156200893Y-99987658D01*
X155487741Y-100700810D01*
X155487741Y-100700811D01*
X155621043Y-100807115D01*
X155858799Y-100956507D01*
X156111782Y-101078337D01*
X156376819Y-101171077D01*
X156376821Y-101171078D01*
X156650575Y-101233560D01*
X156650587Y-101233562D01*
X156929598Y-101264999D01*
X156929600Y-101265000D01*
X157210400Y-101265000D01*
X157210401Y-101264999D01*
X157489412Y-101233562D01*
X157489424Y-101233560D01*
X157763178Y-101171078D01*
X157763180Y-101171077D01*
X158028217Y-101078337D01*
X158281200Y-100956507D01*
X158518956Y-100807116D01*
X158652257Y-100700810D01*
X157939105Y-99987659D01*
X158047184Y-99909136D01*
X158214136Y-99742184D01*
X158292659Y-99634105D01*
X159005810Y-100347257D01*
X159112116Y-100213956D01*
X159261507Y-99976200D01*
X159383337Y-99723217D01*
X159476077Y-99458180D01*
X159476078Y-99458178D01*
X159538560Y-99184424D01*
X159538562Y-99184412D01*
X159569999Y-98905401D01*
X159570000Y-98905399D01*
X159570000Y-98624600D01*
X159569999Y-98624598D01*
X159538562Y-98345587D01*
X159538560Y-98345575D01*
X159476078Y-98071821D01*
X159476077Y-98071819D01*
X159383337Y-97806782D01*
X159261507Y-97553799D01*
X159112115Y-97316043D01*
X159005810Y-97182741D01*
X158292658Y-97895893D01*
X158214136Y-97787816D01*
X158047184Y-97620864D01*
X157939105Y-97542340D01*
X158652257Y-96829187D01*
X158518956Y-96722884D01*
X158281200Y-96573492D01*
X158028217Y-96451662D01*
X157763180Y-96358922D01*
X157763178Y-96358921D01*
X157489424Y-96296439D01*
X157489412Y-96296437D01*
X157210401Y-96265000D01*
X156929598Y-96265000D01*
X156650587Y-96296437D01*
X156650575Y-96296439D01*
X156376821Y-96358921D01*
X156376819Y-96358922D01*
X156111782Y-96451662D01*
X155858799Y-96573492D01*
X155621043Y-96722884D01*
X155487741Y-96829187D01*
X156200894Y-97542340D01*
X156092816Y-97620864D01*
X155925864Y-97787816D01*
X155847340Y-97895894D01*
X155134187Y-97182741D01*
X155027884Y-97316043D01*
X154878492Y-97553799D01*
X154831219Y-97651964D01*
X154784397Y-97703823D01*
X154716970Y-97722136D01*
X154650346Y-97701088D01*
X154605677Y-97647362D01*
X154595499Y-97598162D01*
X154595499Y-97291971D01*
X154595499Y-97291964D01*
X154584886Y-97172582D01*
X154528909Y-96976951D01*
X154434698Y-96796593D01*
X154321983Y-96658359D01*
X154294875Y-96593965D01*
X154306884Y-96525135D01*
X154321981Y-96501642D01*
X154434698Y-96363407D01*
X154528909Y-96183049D01*
X154584886Y-95987418D01*
X154595500Y-95868037D01*
X154595499Y-94751964D01*
X154584886Y-94632582D01*
X154528909Y-94436951D01*
X154434698Y-94256593D01*
X154321661Y-94117964D01*
X154294552Y-94053568D01*
X154306561Y-93984738D01*
X154321662Y-93961241D01*
X154434278Y-93823130D01*
X154528441Y-93642862D01*
X154531048Y-93633752D01*
X154568412Y-93574712D01*
X154631764Y-93545245D01*
X154688584Y-93549926D01*
X154875329Y-93610602D01*
X155000000Y-93630348D01*
X155000000Y-92108240D01*
X155031233Y-92121178D01*
X155176131Y-92150000D01*
X155323869Y-92150000D01*
X155468767Y-92121178D01*
X155500000Y-92108240D01*
X155500000Y-93630347D01*
G37*
G04 #@! TD.AperFunction*
G04 #@! TA.AperFunction,Conductor*
G36*
X137607349Y-104175131D02*
G01*
X137634056Y-104195423D01*
X137713181Y-104274548D01*
X137746666Y-104335871D01*
X137749500Y-104362229D01*
X137749500Y-106673918D01*
X137749500Y-106673920D01*
X137749499Y-106673920D01*
X137778340Y-106818907D01*
X137778343Y-106818917D01*
X137834912Y-106955488D01*
X137834918Y-106955499D01*
X137844939Y-106970495D01*
X137844941Y-106970500D01*
X137917046Y-107078414D01*
X137917052Y-107078421D01*
X139103709Y-108265077D01*
X139137194Y-108326400D01*
X139132210Y-108396092D01*
X139090338Y-108452025D01*
X139024874Y-108476442D01*
X138959733Y-108463243D01*
X138755996Y-108359433D01*
X138531368Y-108286446D01*
X138298097Y-108249500D01*
X138298092Y-108249500D01*
X138061908Y-108249500D01*
X138061903Y-108249500D01*
X137828631Y-108286446D01*
X137604003Y-108359433D01*
X137393566Y-108466657D01*
X137295814Y-108537679D01*
X137202490Y-108605483D01*
X137202488Y-108605485D01*
X137202487Y-108605485D01*
X137035484Y-108772488D01*
X137010318Y-108807127D01*
X136954987Y-108849792D01*
X136885374Y-108855771D01*
X136823579Y-108823165D01*
X136809682Y-108807127D01*
X136784517Y-108772490D01*
X136617510Y-108605483D01*
X136426433Y-108466657D01*
X136389648Y-108447914D01*
X136215996Y-108359433D01*
X135991368Y-108286446D01*
X135758097Y-108249500D01*
X135758092Y-108249500D01*
X135521908Y-108249500D01*
X135521903Y-108249500D01*
X135288631Y-108286446D01*
X135064003Y-108359433D01*
X134853566Y-108466657D01*
X134761592Y-108533480D01*
X134697384Y-108580130D01*
X134631579Y-108603610D01*
X134563525Y-108587785D01*
X134514831Y-108537679D01*
X134500500Y-108479812D01*
X134500500Y-104510782D01*
X134520185Y-104443743D01*
X134572989Y-104397988D01*
X134642147Y-104388044D01*
X134658595Y-104391562D01*
X134757582Y-104419886D01*
X134876963Y-104430500D01*
X136521772Y-104430499D01*
X136521798Y-104430500D01*
X136526908Y-104430500D01*
X136763092Y-104430500D01*
X136788766Y-104426433D01*
X136862418Y-104419886D01*
X136902476Y-104408423D01*
X136909933Y-104407242D01*
X136909934Y-104407242D01*
X136937609Y-104402858D01*
X136996368Y-104393553D01*
X137220992Y-104320568D01*
X137431433Y-104213343D01*
X137473491Y-104182784D01*
X137539295Y-104159306D01*
X137607349Y-104175131D01*
G37*
G04 #@! TD.AperFunction*
G04 #@! TA.AperFunction,Conductor*
G36*
X162942539Y-87770185D02*
G01*
X162988294Y-87822989D01*
X162999500Y-87874500D01*
X162999499Y-89123420D01*
X162979814Y-89190460D01*
X162927010Y-89236214D01*
X162913818Y-89241351D01*
X162835616Y-89266760D01*
X162611151Y-89381132D01*
X162407350Y-89529200D01*
X162315487Y-89621062D01*
X162254163Y-89654546D01*
X162214553Y-89656669D01*
X162205522Y-89655698D01*
X162147873Y-89649500D01*
X162147865Y-89649500D01*
X160552129Y-89649500D01*
X160552123Y-89649501D01*
X160492516Y-89655908D01*
X160357671Y-89706202D01*
X160357664Y-89706206D01*
X160242455Y-89792452D01*
X160213765Y-89830777D01*
X160157830Y-89872648D01*
X160088139Y-89877631D01*
X160041613Y-89856783D01*
X160005405Y-89830476D01*
X159830029Y-89741117D01*
X159642826Y-89680290D01*
X159448422Y-89649500D01*
X159448417Y-89649500D01*
X159251583Y-89649500D01*
X159251578Y-89649500D01*
X159057173Y-89680290D01*
X158869970Y-89741117D01*
X158694594Y-89830476D01*
X158628314Y-89878632D01*
X158535354Y-89946172D01*
X158535352Y-89946174D01*
X158535351Y-89946174D01*
X158437681Y-90043845D01*
X158376358Y-90077330D01*
X158306666Y-90072346D01*
X158262319Y-90043845D01*
X158164648Y-89946174D01*
X158164646Y-89946172D01*
X158005405Y-89830476D01*
X157830029Y-89741117D01*
X157642826Y-89680290D01*
X157448422Y-89649500D01*
X157448417Y-89649500D01*
X157251583Y-89649500D01*
X157251578Y-89649500D01*
X157057173Y-89680290D01*
X156869967Y-89741118D01*
X156690460Y-89832582D01*
X156621791Y-89845478D01*
X156557051Y-89819201D01*
X156533848Y-89794982D01*
X156470414Y-89707673D01*
X156470409Y-89707667D01*
X156292332Y-89529590D01*
X156088583Y-89381557D01*
X155864184Y-89267219D01*
X155624670Y-89189397D01*
X155500000Y-89169650D01*
X155500000Y-90691759D01*
X155468767Y-90678822D01*
X155323869Y-90650000D01*
X155176131Y-90650000D01*
X155031233Y-90678822D01*
X155000000Y-90691759D01*
X155000000Y-89169650D01*
X154875330Y-89189397D01*
X154875327Y-89189397D01*
X154635815Y-89267219D01*
X154411416Y-89381557D01*
X154207668Y-89529590D01*
X154207667Y-89529590D01*
X154029590Y-89707667D01*
X154029590Y-89707668D01*
X153881557Y-89911416D01*
X153767219Y-90135815D01*
X153689397Y-90375330D01*
X153650000Y-90624071D01*
X153650000Y-91146000D01*
X153630315Y-91213039D01*
X153577511Y-91258794D01*
X153526000Y-91270000D01*
X151766943Y-91270000D01*
X151745476Y-91273399D01*
X151620181Y-91293244D01*
X151599994Y-91296441D01*
X151599993Y-91296442D01*
X152809094Y-92505543D01*
X152842579Y-92566866D01*
X152837595Y-92636558D01*
X152809094Y-92680905D01*
X152630905Y-92859094D01*
X152569582Y-92892579D01*
X152499890Y-92887595D01*
X152455543Y-92859094D01*
X152329500Y-92733051D01*
X152329500Y-92711480D01*
X152299208Y-92598429D01*
X152240689Y-92497070D01*
X152157930Y-92414311D01*
X152056571Y-92355792D01*
X151943520Y-92325500D01*
X151921949Y-92325500D01*
X151089969Y-91493520D01*
X151015894Y-91547340D01*
X151015893Y-91547340D01*
X151800905Y-92332352D01*
X151713429Y-92355792D01*
X151612070Y-92414311D01*
X151529311Y-92497070D01*
X151470792Y-92598429D01*
X151447352Y-92685906D01*
X150662340Y-91900894D01*
X150602084Y-91983830D01*
X150494897Y-92194197D01*
X150421934Y-92418752D01*
X150385000Y-92651947D01*
X150385000Y-92888052D01*
X150421934Y-93121247D01*
X150494897Y-93345802D01*
X150602087Y-93556174D01*
X150662338Y-93639104D01*
X150662340Y-93639105D01*
X151447352Y-92854093D01*
X151470792Y-92941571D01*
X151529311Y-93042930D01*
X151612070Y-93125689D01*
X151713429Y-93184208D01*
X151800904Y-93207647D01*
X151015893Y-93992658D01*
X151017448Y-94012405D01*
X151003084Y-94080783D01*
X150966717Y-94122451D01*
X150907490Y-94165482D01*
X150740485Y-94332487D01*
X150740485Y-94332488D01*
X150740483Y-94332490D01*
X150680862Y-94414550D01*
X150601657Y-94523566D01*
X150494433Y-94734003D01*
X150421446Y-94958631D01*
X150384500Y-95191902D01*
X150384500Y-95428097D01*
X150421446Y-95661368D01*
X150494433Y-95885996D01*
X150601657Y-96096433D01*
X150740483Y-96287510D01*
X150907490Y-96454517D01*
X150942127Y-96479683D01*
X150984792Y-96535013D01*
X150990771Y-96604626D01*
X150958165Y-96666421D01*
X150942130Y-96680315D01*
X150924365Y-96693222D01*
X150907488Y-96705484D01*
X150740485Y-96872487D01*
X150740485Y-96872488D01*
X150740483Y-96872490D01*
X150695033Y-96935046D01*
X150601657Y-97063566D01*
X150494433Y-97274003D01*
X150421446Y-97498631D01*
X150384500Y-97731902D01*
X150384500Y-97968097D01*
X150418511Y-98182833D01*
X150409556Y-98252126D01*
X150383719Y-98289912D01*
X146989174Y-101684457D01*
X146927851Y-101717942D01*
X146858159Y-101712958D01*
X146802226Y-101671086D01*
X146795954Y-101661872D01*
X146777317Y-101631656D01*
X146653345Y-101507684D01*
X146504124Y-101415643D01*
X146504119Y-101415641D01*
X146337697Y-101360494D01*
X146337690Y-101360493D01*
X146234986Y-101350000D01*
X145560000Y-101350000D01*
X145560000Y-102141759D01*
X145528767Y-102128822D01*
X145383869Y-102100000D01*
X145236131Y-102100000D01*
X145091233Y-102128822D01*
X145060000Y-102141759D01*
X145060000Y-101350000D01*
X144385028Y-101350000D01*
X144385012Y-101350001D01*
X144282302Y-101360494D01*
X144115880Y-101415641D01*
X144115875Y-101415643D01*
X143966657Y-101507682D01*
X143898034Y-101576305D01*
X143836710Y-101609789D01*
X143767019Y-101604804D01*
X143722672Y-101576304D01*
X143653657Y-101507289D01*
X143653656Y-101507288D01*
X143504334Y-101415186D01*
X143337797Y-101360001D01*
X143337795Y-101360000D01*
X143235010Y-101349500D01*
X141384998Y-101349500D01*
X141384981Y-101349501D01*
X141282203Y-101360000D01*
X141282200Y-101360001D01*
X141115668Y-101415185D01*
X141115663Y-101415187D01*
X140966342Y-101507289D01*
X140842289Y-101631342D01*
X140750187Y-101780663D01*
X140750185Y-101780668D01*
X140742372Y-101804246D01*
X140695001Y-101947203D01*
X140695001Y-101947204D01*
X140695000Y-101947204D01*
X140684500Y-102049983D01*
X140684500Y-104650001D01*
X140684501Y-104650018D01*
X140695000Y-104752796D01*
X140695001Y-104752799D01*
X140708184Y-104792582D01*
X140750186Y-104919334D01*
X140842288Y-105068656D01*
X140966344Y-105192712D01*
X141115666Y-105284814D01*
X141282203Y-105339999D01*
X141384991Y-105350500D01*
X143235008Y-105350499D01*
X143337797Y-105339999D01*
X143504334Y-105284814D01*
X143653656Y-105192712D01*
X143722675Y-105123692D01*
X143783994Y-105090210D01*
X143853686Y-105095194D01*
X143898034Y-105123695D01*
X143966654Y-105192315D01*
X144115875Y-105284356D01*
X144115880Y-105284358D01*
X144282302Y-105339505D01*
X144282309Y-105339506D01*
X144385019Y-105349999D01*
X145059999Y-105349999D01*
X145060000Y-105349998D01*
X145060000Y-104558240D01*
X145091233Y-104571178D01*
X145236131Y-104600000D01*
X145383869Y-104600000D01*
X145528767Y-104571178D01*
X145560000Y-104558240D01*
X145560000Y-105349999D01*
X146234972Y-105349999D01*
X146234986Y-105349998D01*
X146337697Y-105339505D01*
X146504119Y-105284358D01*
X146504130Y-105284353D01*
X146635662Y-105203223D01*
X146703054Y-105184782D01*
X146769718Y-105205704D01*
X146814487Y-105259346D01*
X146824759Y-105308761D01*
X146824759Y-107649177D01*
X146824759Y-107649179D01*
X146824758Y-107649179D01*
X146853599Y-107794166D01*
X146853602Y-107794176D01*
X146910173Y-107930750D01*
X146910175Y-107930754D01*
X146924056Y-107951528D01*
X146940072Y-107975499D01*
X146992308Y-108053677D01*
X146992311Y-108053680D01*
X147365621Y-108426989D01*
X147399106Y-108488312D01*
X147394122Y-108558003D01*
X147365621Y-108602351D01*
X147195484Y-108772488D01*
X147170318Y-108807127D01*
X147114987Y-108849792D01*
X147045374Y-108855771D01*
X146983579Y-108823165D01*
X146969682Y-108807127D01*
X146944517Y-108772490D01*
X146777510Y-108605483D01*
X146586433Y-108466657D01*
X146549648Y-108447914D01*
X146375996Y-108359433D01*
X146151368Y-108286446D01*
X145918097Y-108249500D01*
X145918092Y-108249500D01*
X145681908Y-108249500D01*
X145681903Y-108249500D01*
X145448631Y-108286446D01*
X145224003Y-108359433D01*
X145013566Y-108466657D01*
X144915814Y-108537679D01*
X144822490Y-108605483D01*
X144822488Y-108605485D01*
X144822487Y-108605485D01*
X144655484Y-108772488D01*
X144630318Y-108807127D01*
X144574987Y-108849792D01*
X144505374Y-108855771D01*
X144443579Y-108823165D01*
X144429682Y-108807127D01*
X144404517Y-108772490D01*
X144237510Y-108605483D01*
X144046433Y-108466657D01*
X144009648Y-108447914D01*
X143835996Y-108359433D01*
X143611368Y-108286446D01*
X143378097Y-108249500D01*
X143378092Y-108249500D01*
X143141908Y-108249500D01*
X143141903Y-108249500D01*
X142927166Y-108283511D01*
X142857872Y-108274556D01*
X142820087Y-108248719D01*
X140286819Y-105715451D01*
X140253334Y-105654128D01*
X140250500Y-105627770D01*
X140250500Y-103176079D01*
X140243057Y-103138666D01*
X140225041Y-103048092D01*
X140221659Y-103031088D01*
X140166658Y-102898308D01*
X140165977Y-102896503D01*
X140165939Y-102896012D01*
X140165764Y-102895523D01*
X140125268Y-102834915D01*
X140125267Y-102834914D01*
X140082956Y-102771589D01*
X140082952Y-102771584D01*
X138145597Y-100834229D01*
X138112112Y-100772906D01*
X138110805Y-100727150D01*
X138145500Y-100508097D01*
X138145500Y-100271902D01*
X138108553Y-100038631D01*
X138035566Y-99814003D01*
X137966636Y-99678722D01*
X137928343Y-99603567D01*
X137789517Y-99412490D01*
X137622510Y-99245483D01*
X137587872Y-99220317D01*
X137545207Y-99164989D01*
X137539228Y-99095375D01*
X137571833Y-99033580D01*
X137587873Y-99019682D01*
X137622510Y-98994517D01*
X137789517Y-98827510D01*
X137928343Y-98636433D01*
X138035568Y-98425992D01*
X138108553Y-98201368D01*
X138113225Y-98171869D01*
X138145500Y-97968097D01*
X138145500Y-97731902D01*
X138108553Y-97498631D01*
X138044642Y-97301935D01*
X138035568Y-97274008D01*
X138035566Y-97274005D01*
X138035566Y-97274003D01*
X137979002Y-97162991D01*
X137928343Y-97063567D01*
X137789517Y-96872490D01*
X137622510Y-96705483D01*
X137587872Y-96680317D01*
X137545207Y-96624989D01*
X137539228Y-96555375D01*
X137571833Y-96493580D01*
X137587873Y-96479682D01*
X137622510Y-96454517D01*
X137789517Y-96287510D01*
X137928343Y-96096433D01*
X138026802Y-95903196D01*
X140551028Y-95903196D01*
X140551028Y-97753214D01*
X140551029Y-97753231D01*
X140561528Y-97856009D01*
X140561529Y-97856012D01*
X140598669Y-97968092D01*
X140616714Y-98022547D01*
X140708816Y-98171869D01*
X140832872Y-98295925D01*
X140982194Y-98388027D01*
X141148731Y-98443212D01*
X141251519Y-98453713D01*
X143851536Y-98453712D01*
X143954325Y-98443212D01*
X144120862Y-98388027D01*
X144270184Y-98295925D01*
X144394240Y-98171869D01*
X144486342Y-98022547D01*
X144541527Y-97856010D01*
X144552028Y-97753222D01*
X144552027Y-95903205D01*
X144541527Y-95800416D01*
X144486342Y-95633879D01*
X144394240Y-95484557D01*
X144270184Y-95360501D01*
X144120862Y-95268399D01*
X143954325Y-95213214D01*
X143954323Y-95213213D01*
X143851538Y-95202713D01*
X141251526Y-95202713D01*
X141251509Y-95202714D01*
X141148731Y-95213213D01*
X141148728Y-95213214D01*
X140982196Y-95268398D01*
X140982191Y-95268400D01*
X140832870Y-95360502D01*
X140708817Y-95484555D01*
X140616715Y-95633876D01*
X140616714Y-95633879D01*
X140561529Y-95800416D01*
X140561529Y-95800417D01*
X140561528Y-95800417D01*
X140551028Y-95903196D01*
X138026802Y-95903196D01*
X138035568Y-95885992D01*
X138108553Y-95661368D01*
X138110274Y-95650501D01*
X138145500Y-95428097D01*
X138145500Y-95191902D01*
X138108553Y-94958631D01*
X138074689Y-94854412D01*
X138035568Y-94734008D01*
X138035566Y-94734005D01*
X138035566Y-94734003D01*
X137928342Y-94523566D01*
X137789517Y-94332490D01*
X137622510Y-94165483D01*
X137587872Y-94140317D01*
X137545207Y-94084989D01*
X137539228Y-94015375D01*
X137571833Y-93953580D01*
X137587873Y-93939682D01*
X137622510Y-93914517D01*
X137789517Y-93747510D01*
X137928343Y-93556433D01*
X138035568Y-93345992D01*
X138108553Y-93121368D01*
X138112920Y-93093796D01*
X138145500Y-92888097D01*
X138145500Y-92651902D01*
X138108553Y-92418631D01*
X138035566Y-92194003D01*
X137928342Y-91983566D01*
X137789517Y-91792490D01*
X137622510Y-91625483D01*
X137587872Y-91600317D01*
X137545207Y-91544989D01*
X137539228Y-91475375D01*
X137571833Y-91413580D01*
X137587873Y-91399682D01*
X137622510Y-91374517D01*
X137789517Y-91207510D01*
X137928343Y-91016433D01*
X138035568Y-90805992D01*
X138108553Y-90581368D01*
X138134115Y-90419975D01*
X138145500Y-90348097D01*
X138145500Y-90111902D01*
X138108553Y-89878631D01*
X138063872Y-89741118D01*
X138035568Y-89654008D01*
X138035566Y-89654005D01*
X138035566Y-89654003D01*
X137928342Y-89443566D01*
X137789517Y-89252490D01*
X137622510Y-89085483D01*
X137431433Y-88946657D01*
X137220996Y-88839433D01*
X136996368Y-88766446D01*
X136909936Y-88752757D01*
X136902471Y-88751574D01*
X136862418Y-88740114D01*
X136788771Y-88733565D01*
X136784577Y-88732901D01*
X136784563Y-88732900D01*
X136763092Y-88729500D01*
X136526908Y-88729500D01*
X136526907Y-88729500D01*
X134876971Y-88729500D01*
X134876965Y-88729500D01*
X134876964Y-88729501D01*
X134795850Y-88736712D01*
X134785918Y-88734730D01*
X134776024Y-88736883D01*
X134752233Y-88728009D01*
X134727331Y-88723041D01*
X134720047Y-88716004D01*
X134710560Y-88712466D01*
X134695342Y-88692138D01*
X134677080Y-88674496D01*
X134674757Y-88664640D01*
X134668688Y-88656533D01*
X134666876Y-88631202D01*
X134661052Y-88606489D01*
X134664293Y-88595085D01*
X134663704Y-88586841D01*
X134676038Y-88553773D01*
X134702815Y-88504734D01*
X134734291Y-88447089D01*
X134743845Y-88432221D01*
X134861448Y-88275123D01*
X134873020Y-88261769D01*
X135011769Y-88123020D01*
X135025123Y-88111448D01*
X135182221Y-87993845D01*
X135197089Y-87984291D01*
X135369298Y-87890258D01*
X135385385Y-87882911D01*
X135569248Y-87814333D01*
X135586199Y-87809356D01*
X135777938Y-87767646D01*
X135795436Y-87765130D01*
X135995582Y-87750816D01*
X136004428Y-87750500D01*
X136065892Y-87750500D01*
X162875500Y-87750500D01*
X162942539Y-87770185D01*
G37*
G04 #@! TD.AperFunction*
M02*
